<svg width="24" height="24" viewBox="0 0 24 24" fill="none" xmlns="http://www.w3.org/2000/svg">
<g clip-path="url(#clip0_12553_2699)">
<path d="M14.3857 10.4851C14.3857 10.306 14.3146 10.1343 14.188 10.0078C14.0614 9.88117 13.8897 9.81006 13.7107 9.81006H8.8957C8.71668 9.81006 8.54499 9.88117 8.41841 10.0078C8.29182 10.1343 8.2207 10.306 8.2207 10.4851C8.2207 10.6641 8.29182 10.8358 8.41841 10.9624C8.54499 11.0889 8.71668 11.1601 8.8957 11.1601H13.7107C13.8897 11.1601 14.0614 11.0889 14.188 10.9624C14.3146 10.8358 14.3857 10.6641 14.3857 10.4851ZM8.8957 12.6578C8.71668 12.6578 8.54499 12.7289 8.41841 12.8555C8.29182 12.9821 8.2207 13.1538 8.2207 13.3328C8.2207 13.5118 8.29182 13.6835 8.41841 13.8101C8.54499 13.9367 8.71668 14.0078 8.8957 14.0078H12.192C12.371 14.0078 12.5427 13.9367 12.6693 13.8101C12.7958 13.6835 12.867 13.5118 12.867 13.3328C12.867 13.1538 12.7958 12.9821 12.6693 12.8555C12.5427 12.7289 12.371 12.6578 12.192 12.6578H8.8957Z" fill="#2C2C2C"/>
<path d="M21.999 18.5455H20.1892V12.2702C20.1892 12.0912 20.1181 11.9195 19.9915 11.7929C19.8649 11.6664 19.6932 11.5952 19.5142 11.5952C19.3352 11.5952 19.1635 11.6664 19.0369 11.7929C18.9103 11.9195 18.8392 12.0912 18.8392 12.2702V18.5455H9.02172C8.44272 18.5455 7.97097 19.0172 7.97097 19.5955V20.6267C7.96797 21.085 7.72947 21.4892 7.37997 21.6902C7.23297 21.769 7.07247 21.814 6.90597 21.8207C6.76204 21.8276 6.61819 21.8057 6.48276 21.7566C6.34732 21.7074 6.22299 21.6318 6.11697 21.5342C6.0015 21.4297 5.90936 21.302 5.84656 21.1595C5.78375 21.0169 5.7517 20.8627 5.75247 20.707V6.45398C5.74637 6.06771 5.65548 5.6875 5.48622 5.34023H11.6992C11.8782 5.34023 12.0499 5.26912 12.1765 5.14253C12.3031 5.01594 12.3742 4.84426 12.3742 4.66523C12.3742 4.48621 12.3031 4.31452 12.1765 4.18794C12.0499 4.06135 11.8782 3.99023 11.6992 3.99023H3.29172C3.28122 3.99023 3.27297 3.99548 3.26247 3.99623C2.61432 4.00236 1.99475 4.26388 1.53825 4.72403C1.08176 5.18418 0.825177 5.80581 0.824219 6.45398V7.56773C0.824219 8.14598 1.29522 8.61698 1.87347 8.61698H4.40097V20.707C4.4013 21.0504 4.47308 21.3899 4.61176 21.7041C4.75043 22.0182 4.95296 22.3001 5.20647 22.5317C5.65797 22.9435 6.24897 23.1707 6.85422 23.1745L6.86097 23.176H20.5822C21.2362 23.1752 21.8632 22.915 22.3256 22.4526C22.788 21.9902 23.0482 21.3632 23.049 20.7092V19.5962C23.049 19.0165 22.5772 18.5455 21.999 18.5455ZM2.17422 7.26698V6.45398C2.17422 5.84198 2.67147 5.34398 3.29022 5.34398C3.90222 5.34398 4.40022 5.84198 4.40022 6.45398V7.26698H2.17422ZM21.699 20.7085C21.699 21.3242 21.1987 21.8245 20.583 21.8245H9.05397C9.35922 21.2245 9.32172 20.548 9.32172 19.8977H19.5142C19.518 19.8977 19.521 19.8955 19.5255 19.8955H21.6997L21.699 20.7085Z" fill="#2C2C2C"/>
<path d="M18.3795 10.4147C21.0232 10.4147 23.175 8.2637 23.175 5.61995C23.175 2.9762 21.024 0.825195 18.3795 0.825195C15.735 0.825195 13.584 2.9762 13.584 5.61995C13.584 8.2637 15.735 10.4147 18.3795 10.4147ZM18.3795 2.1752C19.2927 2.17639 20.1682 2.5397 20.814 3.18545C21.4597 3.83121 21.823 4.70671 21.8242 5.61995C21.8242 7.5197 20.2785 9.0647 18.3795 9.0647C16.4805 9.0647 14.9347 7.51895 14.9347 5.61995C14.9357 4.70665 15.299 3.83104 15.9448 3.18524C16.5906 2.53943 17.4662 2.17619 18.3795 2.1752Z" fill="#2C2C2C"/>
<path d="M17.2372 6.95497C17.2922 7.02542 17.3606 7.08421 17.4386 7.12793C17.5165 7.17165 17.6024 7.19941 17.6912 7.2096C17.78 7.21979 17.8699 7.21221 17.9558 7.18729C18.0416 7.16238 18.1216 7.12062 18.1912 7.06447L20.2027 5.44372C20.2745 5.3891 20.3346 5.32062 20.3795 5.24235C20.4244 5.16408 20.4532 5.0776 20.4641 4.98802C20.475 4.89844 20.4678 4.80759 20.443 4.72083C20.4182 4.63407 20.3763 4.55317 20.3196 4.4829C20.263 4.41264 20.1929 4.35444 20.1134 4.31175C20.0339 4.26906 19.9466 4.24275 19.8568 4.23437C19.7669 4.22598 19.6763 4.2357 19.5903 4.26294C19.5042 4.29018 19.4245 4.3344 19.3559 4.39297L17.8769 5.58397L17.5087 5.11447C17.4544 5.04335 17.3866 4.98372 17.3092 4.93904C17.2317 4.89435 17.1461 4.8655 17.0574 4.85417C16.9687 4.84284 16.8786 4.84925 16.7924 4.87303C16.7062 4.89681 16.6256 4.93748 16.5552 4.99268C16.4849 5.04788 16.4262 5.11652 16.3826 5.1946C16.339 5.27267 16.3113 5.35864 16.3012 5.4475C16.2911 5.53636 16.2988 5.62633 16.3237 5.71221C16.3487 5.79808 16.3905 5.87814 16.4467 5.94772L17.2372 6.95497Z" fill="#2C2C2C"/>
</g>
<defs>
<clipPath id="clip0_12553_2699">
<rect width="24" height="24" fill="white"/>
</clipPath>
</defs>
</svg>
