<svg width="24" height="24" viewBox="0 0 24 24" fill="none" xmlns="http://www.w3.org/2000/svg">
<g clip-path="url(#clip0_12553_2687)">
<path d="M19.4067 -0.0344238H3.09333C1.38772 -0.0344238 0 1.35302 0 3.0589V13.0424C0 14.7444 1.38164 16.1296 3.08236 16.1357V20.666L9.59298 16.1357H19.4067C21.1123 16.1357 22.5 14.748 22.5 13.0423V3.0589C22.5 1.35302 21.1123 -0.0344238 19.4067 -0.0344238ZM21.1816 13.0423C21.1816 14.0209 20.3854 14.8173 19.4067 14.8173H9.17936L4.40072 18.1426V14.8173H3.09333C2.11458 14.8173 1.31836 14.0209 1.31836 13.0423V3.0589C1.31836 2.08005 2.11458 1.28393 3.09333 1.28393H19.4067C20.3854 1.28393 21.1816 2.08005 21.1816 3.0589V13.0423Z" fill="#2C2C2C"/>
<path d="M6.02246 4.62402H16.4784V5.94238H6.02246V4.62402ZM6.02246 7.43652H16.4784V8.75488H6.02246V7.43652ZM6.02246 10.249H16.4784V11.5674H6.02246V10.249Z" fill="#2C2C2C"/>
</g>
<defs>
<clipPath id="clip0_12553_2687">
<rect width="24" height="24" fill="white"/>
</clipPath>
</defs>
</svg>
