<svg width="50" height="50" viewBox="0 0 50 50" fill="none" xmlns="http://www.w3.org/2000/svg">
<path d="M15.1985 36.2629L33.9304 18.8102L33.7018 25.5801C33.6926 25.7741 33.7222 25.968 33.7888 26.1505C33.8554 26.333 33.9577 26.5003 34.0898 26.6427C34.2889 26.8502 34.5448 26.9944 34.8254 27.0571C35.106 27.1198 35.3989 27.0983 35.6674 26.9952C35.9358 26.8921 36.1679 26.7121 36.3345 26.4777C36.5011 26.2433 36.5947 25.965 36.6038 25.6776L36.9715 15.3715C36.9783 15.1796 36.9472 14.9883 36.8801 14.8085C36.8129 14.6287 36.7109 14.4638 36.58 14.3235C36.4491 14.1831 36.2918 14.0698 36.1171 13.9903C35.9424 13.9107 35.7537 13.8664 35.5618 13.8598L25.2552 13.5077C23.2739 13.4034 23.181 16.3991 25.1613 16.4215L31.9621 16.659L13.21 34.1305C13.0561 34.2572 12.9298 34.4142 12.8389 34.5916C12.7479 34.769 12.6943 34.9631 12.6812 35.1621C12.6681 35.361 12.6959 35.5605 12.7629 35.7483C12.8298 35.9361 12.9345 36.1082 13.0704 36.254C13.2064 36.3998 13.3708 36.5163 13.5535 36.5961C13.7361 36.676 13.9332 36.7177 14.1326 36.7185C14.3319 36.7193 14.5294 36.6793 14.7127 36.601C14.896 36.5226 15.0614 36.4076 15.1985 36.2629Z" fill="url(#paint0_linear_931_20537)"/>
<defs>
<linearGradient id="paint0_linear_931_20537" x1="7.06952" y1="29.8188" x2="22.6872" y2="43.4611" gradientUnits="userSpaceOnUse">
<stop stop-color="#DCAD81"/>
<stop offset="0.25" stop-color="#D8A97C"/>
<stop offset="0.5" stop-color="#FFD2A4"/>
<stop offset="0.75" stop-color="#D8A97C"/>
<stop offset="1" stop-color="#DCAD81"/>
</linearGradient>
</defs>
</svg>
