<svg width="19" height="18" viewBox="0 0 19 18" fill="none" xmlns="http://www.w3.org/2000/svg">
<path d="M1.21975 8.46053L6.46975 3.21053C6.6112 3.07392 6.80065 2.99832 6.9973 3.00003C7.19395 3.00174 7.38206 3.08061 7.52111 3.21967C7.66017 3.35873 7.73905 3.54684 7.74076 3.74348C7.74246 3.94013 7.66687 4.12958 7.53025 4.27103L3.5605 8.24078H16.75C16.9489 8.24078 17.1397 8.3198 17.2803 8.46045C17.421 8.60111 17.5 8.79187 17.5 8.99078C17.5 9.1897 17.421 9.38046 17.2803 9.52111C17.1397 9.66177 16.9489 9.74078 16.75 9.74078H3.5605L7.53025 13.7105C7.60188 13.7797 7.65902 13.8625 7.69833 13.954C7.73763 14.0455 7.75832 14.1439 7.75919 14.2435C7.76005 14.3431 7.74108 14.4418 7.70337 14.534C7.66566 14.6262 7.60997 14.7099 7.53955 14.7803C7.46913 14.8507 7.38539 14.9064 7.29322 14.9442C7.20104 14.9819 7.10228 15.0008 7.0027 15C6.90312 14.9991 6.8047 14.9784 6.7132 14.9391C6.62169 14.8998 6.53894 14.8427 6.46975 14.771L1.21975 9.52103C1.07915 9.38039 1.00016 9.18966 1.00016 8.99078C1.00016 8.79191 1.07915 8.60118 1.21975 8.46053Z" fill="black"/>
</svg>
