<svg width="218" height="218" viewBox="0 0 218 218" fill="none" xmlns="http://www.w3.org/2000/svg">
<g clip-path="url(#clip0_934_23469)">
<path d="M109.416 17.0323C107.061 17.0153 105.141 18.91 105.124 21.2604C105.107 23.6107 106.997 25.531 109.352 25.548C111.702 25.565 113.623 23.6746 113.64 21.3242C113.657 18.9739 111.766 17.0536 109.416 17.0323ZM109.222 42.5789C92.7822 42.4622 79.3185 55.7249 79.1942 72.1597C79.0703 88.5937 92.3403 102.064 108.775 102.188L109.003 102.189C125.333 102.189 138.679 88.9654 138.803 72.6068C138.927 56.1737 125.657 42.7028 109.222 42.5789ZM109.002 93.6733L108.839 93.6724C97.0997 93.5839 87.6209 83.962 87.7094 72.2236C87.7976 60.538 97.33 51.0933 108.995 51.0933L109.158 51.0941C120.898 51.1827 130.376 60.8045 130.288 72.5429C130.199 84.2286 120.667 93.6733 109.002 93.6733ZM127.576 20.2615C125.361 19.4755 122.926 20.6357 122.14 22.8524C121.354 25.069 122.515 27.5023 124.731 28.2883C143.485 34.9352 155.984 52.7973 155.834 72.7354C155.817 75.0866 157.709 77.0073 160.06 77.0252H160.093C162.429 77.0252 164.332 75.1398 164.35 72.7993C164.527 49.2335 149.749 28.1202 127.576 20.2615Z" fill="#2B2B2B"/>
<path d="M135.123 160.282C163.443 123.828 181.141 104.819 181.38 72.9263C181.68 32.7992 149.115 -0.000976562 108.991 -0.000976562C69.3354 -0.000976562 36.9172 32.115 36.6157 71.8405C36.3722 104.598 54.3994 123.581 82.9149 160.276C54.5471 164.515 36.6157 175.167 36.6157 188.195C36.6157 196.922 44.6826 204.754 59.3308 210.246C72.6634 215.246 90.3023 217.999 108.998 217.999C127.694 217.999 145.333 215.246 158.665 210.246C173.313 204.753 181.38 196.922 181.38 188.195C181.38 175.173 163.465 164.524 135.123 160.282ZM45.131 71.9048C45.3966 36.8505 73.9986 8.51468 108.992 8.51468C144.4 8.51468 173.129 37.4628 172.865 72.8628C172.638 103.15 153.869 121.816 123.904 160.878C118.559 167.842 113.651 174.427 109.004 180.867C104.372 174.423 99.5613 167.956 94.1364 160.876C62.9325 120.178 44.9002 102.923 45.131 71.9048ZM108.998 209.484C72.4441 209.484 45.131 198.245 45.131 188.195C45.131 180.742 61.4589 171.327 88.9125 168.067C94.9812 176.03 100.302 183.264 105.52 190.652C105.913 191.208 106.433 191.662 107.038 191.975C107.642 192.289 108.313 192.452 108.994 192.453H108.998C109.678 192.453 110.349 192.29 110.953 191.977C111.557 191.665 112.078 191.212 112.472 190.657C117.641 183.365 123.107 175.953 129.123 168.072C156.552 171.335 172.865 180.747 172.865 188.195C172.865 198.245 145.552 209.484 108.998 209.484Z" fill="#2B2B2B"/>
</g>
<defs>
<clipPath id="clip0_934_23469">
<rect width="218.001" height="218.001" fill="white" transform="translate(0 -0.000976562)"/>
</clipPath>
</defs>
</svg>
