<svg width="420" height="331" viewBox="0 0 420 331" fill="none" xmlns="http://www.w3.org/2000/svg">
<path d="M100.594 144.326H105.945L108.621 148.96L111.297 144.326H116.648L113.973 139.691L116.648 135.056H111.297L108.621 130.422L105.945 135.056H100.594L103.27 139.691L100.594 144.326Z" fill="#F7F5F0"/>
<path d="M110.629 161.706H115.981L118.656 166.341L121.332 161.706H126.684L124.008 157.072L126.684 152.437H121.332L118.656 147.803L115.981 152.437H110.629L113.305 157.072L110.629 161.706Z" fill="#F7F5F0"/>
<path d="M90.5608 161.706H95.9123L98.5881 166.341L101.264 161.706H106.615L103.939 157.072L106.615 152.437H101.264L98.5881 147.803L95.9123 152.437H90.5608L93.2364 157.072L90.5608 161.706Z" fill="#F7F5F0"/>
<path d="M80.5256 144.326H85.8771L88.5527 148.96L91.2286 144.326H96.5801L93.9042 139.691L96.5801 135.056H91.2286L88.5527 130.422L85.8771 135.056H80.5256L83.2013 139.691L80.5256 144.326Z" fill="#F7F5F0"/>
<path d="M90.5608 126.947H95.9123L98.5881 131.581L101.264 126.947H106.615L103.939 122.312L106.615 117.678H101.264L98.5881 113.043L95.9123 117.678H90.5608L93.2364 122.312L90.5608 126.947Z" fill="#F7F5F0"/>
<path d="M110.629 126.947H115.981L118.656 131.581L121.332 126.947H126.684L124.008 122.312L126.684 117.678H121.332L118.656 113.043L115.981 117.678H110.629L113.305 122.312L110.629 126.947Z" fill="#F7F5F0"/>
<path d="M120.662 144.328H126.014L128.69 148.962L131.365 144.328H136.717L134.041 139.693L136.717 135.058H131.365L128.69 130.424L126.014 135.058H120.662L123.338 139.693L120.662 144.328Z" fill="#F7F5F0"/>
<path d="M120.662 179.087H126.014L128.69 183.722L131.365 179.087H136.717L134.041 174.453L136.717 169.818H131.365L128.69 165.184L126.014 169.818H120.662L123.338 174.453L120.662 179.087Z" fill="#F7F5F0"/>
<path d="M100.594 179.087H105.945L108.621 183.722L111.297 179.087H116.648L113.973 174.453L116.648 169.818H111.297L108.621 165.184L105.945 169.818H100.594L103.27 174.453L100.594 179.087Z" fill="#F7F5F0"/>
<path d="M80.5256 179.087H85.8771L88.5527 183.722L91.2286 179.087H96.5801L93.9042 174.453L96.5801 169.818H91.2286L88.5527 165.184L85.8771 169.818H80.5256L83.2013 174.453L80.5256 179.087Z" fill="#F7F5F0"/>
<path d="M70.4924 161.706H75.8439L78.5198 166.341L81.1954 161.706H86.5469L83.8712 157.072L86.5469 152.437H81.1954L78.5198 147.803L75.8439 152.437H70.4924L73.1681 157.072L70.4924 161.706Z" fill="#F7F5F0"/>
<path d="M60.4572 144.326H65.8087L68.4844 148.96L71.1602 144.326H76.5117L73.8359 139.691L76.5117 135.056H71.1602L68.4844 130.422L65.8087 135.056H60.4572L63.1329 139.691L60.4572 144.326Z" fill="#F7F5F0"/>
<path d="M70.4924 126.947H75.8439L78.5198 131.581L81.1954 126.947H86.5469L83.8712 122.312L86.5469 117.678H81.1954L78.5198 113.043L75.8439 117.678H70.4924L73.1681 122.312L70.4924 126.947Z" fill="#F7F5F0"/>
<path d="M80.5256 109.568H85.8771L88.5527 114.202L91.2286 109.568H96.5801L93.9042 104.933L96.5801 100.299H91.2286L88.5527 95.6641L85.8771 100.299H80.5256L83.2013 104.933L80.5256 109.568Z" fill="#F7F5F0"/>
<path d="M100.594 109.568H105.945L108.621 114.202L111.297 109.568H116.648L113.973 104.933L116.648 100.299H111.297L108.621 95.6641L105.945 100.299H100.594L103.27 104.933L100.594 109.568Z" fill="#F7F5F0"/>
<path d="M120.662 109.568H126.014L128.69 114.202L131.365 109.568H136.717L134.041 104.933L136.717 100.299H131.365L128.69 95.6641L126.014 100.299H120.662L123.338 104.933L120.662 109.568Z" fill="#F7F5F0"/>
<path d="M130.696 126.947H136.047L138.723 131.581L141.399 126.947H146.75L144.074 122.312L146.75 117.678H141.399L138.723 113.043L136.047 117.678H130.696L133.371 122.312L130.696 126.947Z" fill="#F7F5F0"/>
<path d="M140.731 144.328H146.082L148.758 148.962L151.434 144.328H156.785L154.109 139.693L156.785 135.058H151.434L148.758 130.424L146.082 135.058H140.731L143.406 139.693L140.731 144.328Z" fill="#F7F5F0"/>
<path d="M130.698 161.706H136.049L138.725 166.341L141.4 161.706H146.752L144.076 157.072L146.752 152.437H141.4L138.725 147.803L136.049 152.437H130.698L133.373 157.072L130.698 161.706Z" fill="#F7F5F0"/>
<path d="M131.266 196.138H136.238L138.725 200.444L141.211 196.138H146.184L143.697 191.832L146.184 187.525H141.211L138.725 183.219L136.238 187.525H131.266L133.752 191.832L131.266 196.138Z" fill="#F7F5F0"/>
<path d="M110.629 196.466H115.981L118.656 201.101L121.332 196.466H126.684L124.008 191.832L126.684 187.197H121.332L118.656 182.562L115.981 187.197H110.629L113.305 191.832L110.629 196.466Z" fill="#F7F5F0"/>
<path d="M90.5608 196.466H95.9123L98.5881 201.101L101.264 196.466H106.615L103.939 191.832L106.615 187.197H101.264L98.5881 182.562L95.9123 187.197H90.5608L93.2364 191.832L90.5608 196.466Z" fill="#F7F5F0"/>
<path d="M70.4924 196.466H75.8439L78.5198 201.101L81.1954 196.466H86.5469L83.8712 191.832L86.5469 187.197H81.1954L78.5198 182.562L75.8439 187.197H70.4924L73.1681 191.832L70.4924 196.466Z" fill="#F7F5F0"/>
<path d="M60.4572 179.087H65.8087L68.4844 183.722L71.1602 179.087H76.5117L73.8359 174.453L76.5117 169.818H71.1602L68.4844 165.184L65.8087 169.818H60.4572L63.1329 174.453L60.4572 179.087Z" fill="#F7F5F0"/>
<path d="M50.4243 161.706H55.7755L58.4514 166.341L61.1273 161.706H66.4785L63.8029 157.072L66.4785 152.437H61.1273L58.4514 147.803L55.7755 152.437H50.4243L53.0999 157.072L50.4243 161.706Z" fill="#F7F5F0"/>
<path d="M40.3908 144.326H45.7423L48.418 148.96L51.0938 144.326H56.4453L53.7697 139.691L56.4453 135.056H51.0938L48.418 130.422L45.7423 135.056H40.3908L43.0665 139.691L40.3908 144.326Z" fill="#F7F5F0"/>
<path d="M50.4243 126.947H55.7755L58.4514 131.581L61.1273 126.947H66.4785L63.8029 122.312L66.4785 117.678H61.1273L58.4514 113.043L55.7755 117.678H50.4243L53.0999 122.312L50.4243 126.947Z" fill="#F7F5F0"/>
<path d="M60.4572 109.568H65.8087L68.4844 114.202L71.1602 109.568H76.5117L73.8359 104.933L76.5117 100.299H71.1602L68.4844 95.6641L65.8087 100.299H60.4572L63.1329 104.933L60.4572 109.568Z" fill="#F7F5F0"/>
<path d="M71.55 91.5787H76.1959L78.5191 95.6023L80.8421 91.5787H85.4883L83.1651 87.5551L85.4883 83.5314H80.8421L78.5191 79.5078L76.1959 83.5314H71.55L73.873 87.5551L71.55 91.5787Z" fill="#F7F5F0"/>
<path d="M91.6531 91.5574H96.2758L98.5874 95.5609L100.899 91.5574H105.521L103.21 87.5539L105.521 83.5504H100.899L98.5874 79.5469L96.2758 83.5504H91.6531L93.9645 87.5539L91.6531 91.5574Z" fill="#F7F5F0"/>
<path d="M111.652 91.5965H116.321L118.656 95.6403L120.991 91.5965H125.66L123.326 87.5526L125.66 83.5088H120.991L118.656 79.4648L116.321 83.5088H111.652L113.987 87.5526L111.652 91.5965Z" fill="#F7F5F0"/>
<path d="M132.733 91.0115H136.727L138.723 94.4697L140.72 91.0115H144.713L142.716 87.5532L144.713 84.0951H140.72L138.723 80.6367L136.727 84.0951H132.733L134.73 87.5532L132.733 91.0115Z" fill="#F7F5F0"/>
<path d="M141.019 109.4H146.178L148.758 113.868L151.337 109.4H156.496L153.916 104.932L156.496 100.464H151.337L148.758 95.9961L146.178 100.464H141.019L143.598 104.932L141.019 109.4Z" fill="#F7F5F0"/>
<path d="M150.764 126.947H156.115L158.791 131.581L161.467 126.947H166.818L164.143 122.312L166.818 117.678H161.467L158.791 113.043L156.115 117.678H150.764L153.44 122.312L150.764 126.947Z" fill="#F7F5F0"/>
<path d="M160.799 144.326H166.151L168.826 148.96L171.502 144.326H176.854L174.178 139.691L176.854 135.056H171.502L168.826 130.422L166.151 135.056H160.799L163.475 139.691L160.799 144.326Z" fill="#F7F5F0"/>
<path d="M150.764 161.706H156.115L158.791 166.341L161.467 161.706H166.818L164.143 157.072L166.818 152.437H161.467L158.791 147.803L156.115 152.437H150.764L153.44 157.072L150.764 161.706Z" fill="#F7F5F0"/>
<path d="M140.731 179.087H146.082L148.758 183.722L151.434 179.087H156.785L154.109 174.453L156.785 169.818H151.434L148.758 165.184L146.082 169.818H140.731L143.406 174.453L140.731 179.087Z" fill="#F7F5F0"/>
<path d="M142.733 212.689H146.75L148.758 216.168L150.766 212.689H154.783L152.775 209.211L154.783 205.732H150.766L148.758 202.254L146.75 205.732H142.733L144.742 209.211L142.733 212.689Z" fill="#F7F5F0"/>
<path d="M121.965 213.092H126.448L128.69 216.975L130.931 213.092H135.414L133.173 209.21L135.414 205.327H130.931L128.69 201.445L126.448 205.327H121.965L124.207 209.21L121.965 213.092Z" fill="#F7F5F0"/>
<path d="M101.058 213.577H106.101L108.622 217.944L111.143 213.577H116.186L113.664 209.21L116.186 204.844H111.143L108.622 200.477L106.101 204.844H101.058L103.579 209.21L101.058 213.577Z" fill="#F7F5F0"/>
<path d="M81.1288 213.495H86.078L88.5527 217.782L91.0273 213.495H95.9766L93.5019 209.209L95.9766 204.923H91.0273L88.5527 200.637L86.078 204.923H81.1288L83.6034 209.209L81.1288 213.495Z" fill="#F7F5F0"/>
<path d="M61.2363 213.396H66.069L68.4854 217.581L70.9017 213.396H75.7344L73.3181 209.21L75.7344 205.025H70.9017L68.4854 200.84L66.069 205.025H61.2363L63.6527 209.21L61.2363 213.396Z" fill="#F7F5F0"/>
<path d="M50.4243 196.466H55.7755L58.4514 201.101L61.1273 196.466H66.4785L63.8029 191.832L66.4785 187.197H61.1273L58.4514 182.562L55.7755 187.197H50.4243L53.0999 191.832L50.4243 196.466Z" fill="#F7F5F0"/>
<path d="M40.3908 179.087H45.7423L48.418 183.722L51.0938 179.087H56.4453L53.7697 174.453L56.4453 169.818H51.0938L48.418 165.184L45.7423 169.818H40.3908L43.0665 174.453L40.3908 179.087Z" fill="#F7F5F0"/>
<path d="M30.3557 161.706H35.7069L38.3828 166.341L41.0586 161.706H46.4102L43.7343 157.072L46.4102 152.437H41.0586L38.3828 147.803L35.7069 152.437H30.3557L33.0313 157.072L30.3557 161.706Z" fill="#F7F5F0"/>
<path d="M20.3225 144.326H25.674L28.3498 148.96L31.0255 144.326H36.377L33.7013 139.691L36.377 135.056H31.0255L28.3498 130.422L25.674 135.056H20.3225L22.9983 139.691L20.3225 144.326Z" fill="#F7F5F0"/>
<path d="M30.3557 126.947H35.7069L38.3828 131.581L41.0586 126.947H46.4102L43.7343 122.312L46.4102 117.678H41.0586L38.3828 113.043L35.7069 117.678H30.3557L33.0313 122.312L30.3557 126.947Z" fill="#F7F5F0"/>
<path d="M40.3908 109.568H45.7423L48.418 114.202L51.0938 109.568H56.4453L53.7697 104.933L56.4453 100.299H51.0938L48.418 95.6641L45.7423 100.299H40.3908L43.0665 104.933L40.3908 109.568Z" fill="#F7F5F0"/>
<path d="M50.5034 92.1424H55.8024L58.4519 96.7315L61.1014 92.1424H66.4004L63.7509 87.5533L66.4004 82.9641H61.1014L58.4519 78.375L55.8024 82.9641H50.5034L53.1529 87.5533L50.5034 92.1424Z" fill="#F7F5F0"/>
<path d="M63.1253 73.2686H66.6987L68.4855 76.3633L70.2722 73.2686H73.8457L72.0592 70.174L73.8457 67.0793H70.2722L68.4855 63.9844L66.6987 67.0793H63.1253L64.912 70.174L63.1253 73.2686Z" fill="#F7F5F0"/>
<path d="M83.4024 73.1472H86.8358L88.5526 76.1207L90.2695 73.1472H93.7031L91.9863 70.1736L93.7031 67.2001H90.2695L88.5526 64.2266L86.8358 67.2001H83.4024L85.119 70.1736L83.4024 73.1472Z" fill="#F7F5F0"/>
<path d="M103.051 73.3899H106.765L108.621 76.6059L110.478 73.3899H114.191L112.335 70.1741L114.191 66.958H110.478L108.621 63.7422L106.765 66.958H103.051L104.908 70.1741L103.051 73.3899Z" fill="#F7F5F0"/>
<path d="M123.68 73.0672H127.021L128.691 75.9598L130.361 73.0672H133.701L132.031 70.1743L133.701 67.2815H130.361L128.691 64.3887L127.021 67.2815H123.68L125.35 70.1743L123.68 73.0672Z" fill="#F7F5F0"/>
<path d="M144.762 72.4802H147.426L148.758 74.7873L150.09 72.4802H152.754L151.422 70.173L152.754 67.8658H150.09L148.758 65.5586L147.426 67.8658H144.762L146.094 70.173L144.762 72.4802Z" fill="#F7F5F0"/>
<path d="M152.837 90.9918H156.807L158.791 94.4298L160.776 90.9918H164.746L162.761 87.5537L164.746 84.1157H160.776L158.791 80.6777L156.807 84.1157H152.837L154.821 87.5537L152.837 90.9918Z" fill="#F7F5F0"/>
<path d="M161.018 109.443H166.223L168.826 113.951L171.429 109.443H176.635L174.032 104.935L176.635 100.426H171.429L168.826 95.918L166.223 100.426H161.018L163.62 104.935L161.018 109.443Z" fill="#F7F5F0"/>
<path d="M170.832 126.947H176.184L178.86 131.581L181.535 126.947H186.887L184.211 122.312L186.887 117.678H181.535L178.86 113.043L176.184 117.678H170.832L173.508 122.312L170.832 126.947Z" fill="#F7F5F0"/>
<path d="M180.867 144.326H186.219L188.895 148.96L191.57 144.326H196.922L194.246 139.691L196.922 135.056H191.57L188.895 130.422L186.219 135.056H180.867L183.543 139.691L180.867 144.326Z" fill="#F7F5F0"/>
<path d="M170.832 161.706H176.184L178.86 166.341L181.535 161.706H186.887L184.211 157.072L186.887 152.437H181.535L178.86 147.803L176.184 152.437H170.832L173.508 157.072L170.832 161.706Z" fill="#F7F5F0"/>
<path d="M160.799 179.087H166.151L168.826 183.722L171.502 179.087H176.854L174.178 174.453L176.854 169.818H171.502L168.826 165.184L166.151 169.818H160.799L163.475 174.453L160.799 179.087Z" fill="#F7F5F0"/>
<path d="M151.404 196.097H156.33L158.793 200.363L161.256 196.097H166.182L163.719 191.831L166.182 187.565H161.256L158.793 183.299L156.33 187.565H151.404L153.867 191.831L151.404 196.097Z" fill="#F7F5F0"/>
<path d="M154.236 229.219H157.273L158.792 231.849L160.31 229.219H163.348L161.829 226.589L163.348 223.958H160.31L158.792 221.328L157.273 223.958H154.236L155.755 226.589L154.236 229.219Z" fill="#F7F5F0"/>
<path d="M133.503 229.604H136.983L138.723 232.618L140.463 229.604H143.943L142.203 226.59L143.943 223.576H140.463L138.723 220.562L136.983 223.576H133.503L135.243 226.59L133.503 229.604Z" fill="#F7F5F0"/>
<path d="M112.561 230.107H116.624L118.655 233.626L120.687 230.107H124.75L122.718 226.588L124.75 223.069H120.687L118.655 219.551L116.624 223.069H112.561L114.592 226.588L112.561 230.107Z" fill="#F7F5F0"/>
<path d="M92.1074 230.33H96.4271L98.5871 234.071L100.747 230.33H105.066L102.907 226.589L105.066 222.848H100.747L98.5871 219.107L96.4271 222.848H92.1074L94.2674 226.589L92.1074 230.33Z" fill="#F7F5F0"/>
<path d="M72.2845 230.189H76.4411L78.5193 233.789L80.5975 230.189H84.7539L82.6757 226.59L84.7539 222.99H80.5975L78.5193 219.391L76.4411 222.99H72.2845L74.3627 226.59L72.2845 230.189Z" fill="#F7F5F0"/>
<path d="M52.3573 230.107H56.4206L58.4521 233.626L60.4836 230.107H64.5469L62.5154 226.588L64.5469 223.069H60.4836L58.4521 219.551L56.4206 223.069H52.3573L54.3888 226.588L52.3573 230.107Z" fill="#F7F5F0"/>
<path d="M41.4832 213.213H46.1059L48.4173 217.217L50.7288 213.213H55.3516L53.0402 209.21L55.3516 205.206H50.7288L48.4173 201.203L46.1059 205.206H41.4832L43.7945 209.21L41.4832 213.213Z" fill="#F7F5F0"/>
<path d="M30.8894 196.157H35.8853L38.3832 200.484L40.8812 196.157H45.877L43.3791 191.831L45.877 187.504H40.8812L38.3832 183.178L35.8853 187.504H30.8894L33.3872 191.831L30.8894 196.157Z" fill="#F7F5F0"/>
<path d="M20.3225 179.087H25.674L28.3498 183.722L31.0255 179.087H36.377L33.7013 174.453L36.377 169.818H31.0255L28.3498 165.184L25.674 169.818H20.3225L22.9983 174.453L20.3225 179.087Z" fill="#F7F5F0"/>
<path d="M10.2871 161.706H15.6388L18.3144 166.341L20.9903 161.706H26.3418L23.6659 157.072L26.3418 152.437H20.9903L18.3144 147.803L15.6388 152.437H10.2871L12.9629 157.072L10.2871 161.706Z" fill="#F7F5F0"/>
<path d="M0.33343 144.281H5.63243L8.28192 148.87L10.9314 144.281H16.2305L13.581 139.692L16.2305 135.103H10.9314L8.28192 130.514L5.63243 135.103H0.33343L2.98293 139.692L0.33343 144.281Z" fill="#F7F5F0"/>
<path d="M10.2871 126.947H15.6388L18.3144 131.581L20.9903 126.947H26.3418L23.6659 122.312L26.3418 117.678H20.9903L18.3144 113.043L15.6388 117.678H10.2871L12.9629 122.312L10.2871 126.947Z" fill="#F7F5F0"/>
<path d="M20.3225 109.568H25.674L28.3498 114.202L31.0255 109.568H36.377L33.7013 104.933L36.377 100.299H31.0255L28.3498 95.6641L25.674 100.299H20.3225L22.9983 104.933L20.3225 109.568Z" fill="#F7F5F0"/>
<path d="M30.3557 92.1888H35.7069L38.3828 96.8234L41.0586 92.1888H46.4102L43.7343 87.5543L46.4102 82.9197H41.0586L38.3828 78.2852L35.7069 82.9197H30.3557L33.0313 87.5543L30.3557 92.1888Z" fill="#F7F5F0"/>
<path d="M42.183 73.7734H46.3394L48.4176 77.373L50.496 73.7734H54.6523L52.5742 70.1738L54.6523 66.5742H50.496L48.4176 62.9746L46.3394 66.5742H42.183L44.2612 70.1738L42.183 73.7734Z" fill="#F7F5F0"/>
<path d="M54.7701 54.9192H57.2245L58.4515 57.0447L59.6786 54.9192H62.1328L60.9056 52.7937L62.1328 50.6685H59.6786L58.4515 48.543L57.2245 50.6685H54.7701L55.9972 52.7937L54.7701 54.9192Z" fill="#F7F5F0"/>
<path d="M75.1186 54.7589H77.3865L78.5204 56.7226L79.654 54.7589H81.9219L80.788 52.7948L81.9219 50.8311H79.654L78.5204 48.8672L77.3865 50.8311H75.1186L76.2526 52.7948L75.1186 54.7589Z" fill="#F7F5F0"/>
<path d="M94.8006 54.9799H97.3248L98.5869 57.1659L99.8488 54.9799H102.373L101.111 52.7938L102.373 50.6079H99.8488L98.5869 48.4219L97.3248 50.6079H94.8006L96.0627 52.7938L94.8006 54.9799Z" fill="#F7F5F0"/>
<path d="M114.695 55.0816H117.336L118.656 57.3685L119.976 55.0816H122.617L121.297 52.7945L122.617 50.5076H119.976L118.656 48.2207L117.336 50.5076H114.695L116.015 52.7945L114.695 55.0816Z" fill="#F7F5F0"/>
<path d="M135.741 54.5161H137.729L138.723 56.2377L139.717 54.5161H141.705L140.711 52.7946L141.705 51.0732H139.717L138.723 49.3516L137.729 51.0732H135.741L136.735 52.7946L135.741 54.5161Z" fill="#F7F5F0"/>
<path d="M156.755 53.9703H158.114L158.793 55.1465L159.472 53.9703H160.83L160.151 52.7938L160.83 51.6176H159.472L158.793 50.4414L158.114 51.6176H156.755L157.434 52.7938L156.755 53.9703Z" fill="#F7F5F0"/>
<path d="M164.585 72.623H167.412L168.826 75.0715L170.239 72.623H173.066L171.653 70.1745L173.066 67.726H170.239L168.826 65.2773L167.412 67.726H164.585L165.998 70.1745L164.585 72.623Z" fill="#F7F5F0"/>
<path d="M173.465 90.6691H177.062L178.861 93.7839L180.659 90.6691H184.256L182.458 87.554L184.256 84.4392H180.659L178.861 81.3242L177.062 84.4392H173.465L175.264 87.554L173.465 90.6691Z" fill="#F7F5F0"/>
<path d="M180.945 109.521H186.244L188.894 114.11L191.543 109.521H196.842L194.193 104.932L196.842 100.343H191.543L188.894 95.7539L186.244 100.343H180.945L183.594 104.932L180.945 109.521Z" fill="#F7F5F0"/>
<path d="M190.901 126.947H196.252L198.928 131.581L201.604 126.947H206.955L204.279 122.312L206.955 117.678H201.604L198.928 113.043L196.252 117.678H190.901L193.576 122.312L190.901 126.947Z" fill="#F7F5F0"/>
<path d="M200.936 144.326H206.287L208.963 148.96L211.639 144.326H216.99L214.314 139.691L216.99 135.056H211.639L208.963 130.422L206.287 135.056H200.936L203.611 139.691L200.936 144.326Z" fill="#F7F5F0"/>
<path d="M190.901 161.706H196.252L198.928 166.341L201.604 161.706H206.955L204.279 157.072L206.955 152.437H201.604L198.928 147.803L196.252 152.437H190.901L193.576 157.072L190.901 161.706Z" fill="#F7F5F0"/>
<path d="M180.875 179.08H186.221L188.894 183.709L191.566 179.08H196.912L194.239 174.45L196.912 169.821H191.566L188.894 165.191L186.221 169.821H180.875L183.548 174.45L180.875 179.08Z" fill="#F7F5F0"/>
<path d="M171.507 196.077H176.41L178.861 200.323L181.312 196.077H186.215L183.763 191.831L186.215 187.586H181.312L178.861 183.34L176.41 187.586H171.507L173.958 191.831L171.507 196.077Z" fill="#F7F5F0"/>
<path d="M162.941 212.607H166.864L168.826 216.005L170.788 212.607H174.711L172.749 209.209L174.711 205.812H170.788L168.826 202.414L166.864 205.812H162.941L164.903 209.209L162.941 212.607Z" fill="#F7F5F0"/>
<path d="M165.774 245.731H167.808L168.825 247.493L169.843 245.731H171.877L170.86 243.969L171.877 242.207H169.843L168.825 240.445L167.808 242.207H165.774L166.791 243.969L165.774 245.731Z" fill="#F7F5F0"/>
<path d="M145.112 246.074H147.542L148.758 248.179L149.973 246.074H152.404L151.189 243.968L152.404 241.863H149.973L148.758 239.758L147.542 241.863H145.112L146.327 243.968L145.112 246.074Z" fill="#F7F5F0"/>
<path d="M124.135 246.6H127.172L128.69 249.23L130.209 246.6H133.246L131.728 243.97L133.246 241.339H130.209L128.69 238.709L127.172 241.339H124.135L125.653 243.97L124.135 246.6Z" fill="#F7F5F0"/>
<path d="M103.262 247.064H106.835L108.622 250.158L110.409 247.064H113.982L112.196 243.969L113.982 240.874H110.409L108.622 237.779L106.835 240.874H103.262L105.049 243.969L103.262 247.064Z" fill="#F7F5F0"/>
<path d="M83.2632 247.022H86.79L88.5535 250.077L90.317 247.022H93.8438L92.0803 243.968L93.8438 240.914H90.317L88.5535 237.859L86.79 240.914H83.2632L85.0267 243.968L83.2632 247.022Z" fill="#F7F5F0"/>
<path d="M63.4404 246.884H66.804L68.4857 249.797L70.1675 246.884H73.5312L71.8495 243.971L73.5312 241.058H70.1675L68.4857 238.145L66.804 241.058H63.4404L65.1222 243.971L63.4404 246.884Z" fill="#F7F5F0"/>
<path d="M43.546 246.782H46.793L48.4165 249.594L50.0402 246.782H53.2871L51.6636 243.97L53.2871 241.158H50.0402L48.4165 238.346L46.793 241.158H43.546L45.1696 243.97L43.546 246.782Z" fill="#F7F5F0"/>
<path d="M32.6041 229.927H36.4574L38.384 233.264L40.3107 229.927H44.1641L42.2373 226.59L44.1641 223.253H40.3107L38.384 219.916L36.4574 223.253H32.6041L34.5307 226.59L32.6041 229.927Z" fill="#F7F5F0"/>
<path d="M21.9387 212.91H26.2117L28.3484 216.611L30.4849 212.91H34.7578L32.6214 209.21L34.7578 205.509H30.4849L28.3484 201.809L26.2117 205.509H21.9387L24.0752 209.21L21.9387 212.91Z" fill="#F7F5F0"/>
<path d="M11.2404 195.915H15.9566L18.3146 199.999L20.6726 195.915H25.3887L23.0306 191.831L25.3887 187.746H20.6726L18.3146 183.662L15.9566 187.746H11.2404L13.5985 191.831L11.2404 195.915Z" fill="#F7F5F0"/>
<path d="M0.472473 178.959H5.67833L8.28113 183.467L10.884 178.959H16.0898L13.4868 174.45L16.0898 169.942H10.884L8.28113 165.434L5.67833 169.942H0.472473L3.07528 174.45L0.472473 178.959Z" fill="#F7F5F0"/>
<path d="M-9.3866 161.48H-4.29753L-1.75297 165.887L0.791538 161.48H5.88086L3.3363 157.072L5.88086 152.665H0.791538L-1.75297 148.258L-4.29753 152.665H-9.3866L-6.84204 157.072L-9.3866 161.48Z" fill="#F7F5F0"/>
<path d="M-9.35181 126.7H-4.28594L-1.75303 131.088L0.779882 126.7H5.8457L3.31279 122.313L5.8457 117.926H0.779882L-1.75303 113.539L-4.28594 117.926H-9.35181L-6.81885 122.313L-9.35181 126.7Z" fill="#F7F5F0"/>
<path d="M0.254147 109.568H5.60561L8.28145 114.202L10.9571 109.568H16.3086L13.633 104.933L16.3086 100.299H10.9571L8.28145 95.6641L5.60561 100.299H0.254147L2.92998 104.933L0.254147 109.568Z" fill="#F7F5F0"/>
<path d="M10.2871 92.1888H15.6388L18.3144 96.8234L20.9903 92.1888H26.3418L23.6659 87.5543L26.3418 82.9197H20.9903L18.3144 78.2852L15.6388 82.9197H10.2871L12.9629 87.5543L10.2871 92.1888Z" fill="#F7F5F0"/>
<path d="M21.0649 74.3799H25.9208L28.3489 78.5853L30.7769 74.3799H35.6328L33.2048 70.1746L35.6328 65.9692H30.7769L28.3489 61.7637L25.9208 65.9692H21.0649L23.4929 70.1746L21.0649 74.3799Z" fill="#F7F5F0"/>
<path d="M33.7583 55.4651H36.8422L38.3842 58.1358L39.9261 55.4651H43.0098L41.468 52.7942L43.0098 50.1238H39.9261L38.3842 47.4531L36.8422 50.1238H33.7583L35.3003 52.7942L33.7583 55.4651Z" fill="#F7F5F0"/>
<path d="M46.3455 36.6129H47.727L48.4178 37.8094L49.1089 36.6129H50.4902L49.7997 35.4163L50.4902 34.22H49.1089L48.4178 33.0234L47.727 34.22H46.3455L47.0365 35.4163L46.3455 36.6129Z" fill="#F7F5F0"/>
<path d="M66.7618 36.4093H67.9102L68.4844 37.404L69.0586 36.4093H70.207L69.6329 35.4148L70.207 34.4203H69.0586L68.4844 33.4258L67.9102 34.4203H66.7618L67.336 35.4148L66.7618 36.4093Z" fill="#F7F5F0"/>
<path d="M86.5517 36.5718H87.8868L88.5541 37.7279L89.2217 36.5718H90.5566L89.8891 35.4157L90.5566 34.2596H89.2217L88.5541 33.1035L87.8868 34.2596H86.5517L87.2192 35.4157L86.5517 36.5718Z" fill="#F7F5F0"/>
<path d="M106.199 36.8126H107.813L108.621 38.211L109.428 36.8126H111.043L110.236 35.414L111.043 34.0156H109.428L108.621 32.6172L107.813 34.0156H106.199L107.006 35.414L106.199 36.8126Z" fill="#F7F5F0"/>
<path d="M126.547 36.6522H127.975L128.69 37.889L129.404 36.6522H130.832L130.118 35.4152L130.832 34.1784H129.404L128.69 32.9414L127.975 34.1784H126.547L127.261 35.4152L126.547 36.6522Z" fill="#F7F5F0"/>
<path d="M147.805 35.9653H148.44L148.758 36.5155L149.076 35.9653H149.711L149.393 35.415L149.711 34.8648H149.076L148.758 34.3145L148.44 34.8648H147.805L148.123 35.415L147.805 35.9653Z" fill="#F7F5F0"/>
<path d="M168.747 35.4605H168.799L168.826 35.5059L168.852 35.4605H168.904L168.878 35.4151L168.904 35.3696H168.852L168.826 35.3242L168.799 35.3696H168.747L168.773 35.4151L168.747 35.4605Z" fill="#F7F5F0"/>
<path d="M176.473 54.1737H178.065L178.861 55.5519L179.657 54.1737H181.248L180.452 52.7954L181.248 51.4173H179.657L178.861 50.0391L178.065 51.4173H176.473L177.269 52.7954L176.473 54.1737Z" fill="#F7F5F0"/>
<path d="M185.422 72.1786H187.736L188.894 74.183L190.051 72.1786H192.365L191.208 70.1745L192.365 68.1702H190.051L188.894 66.166L187.736 68.1702H185.422L186.579 70.1745L185.422 72.1786Z" fill="#F7F5F0"/>
<path d="M193.288 90.8099H197.048L198.928 94.0662L200.808 90.8099H204.568L202.688 87.5536L204.568 84.2973H200.808L198.928 81.041L197.048 84.2973H193.288L195.168 87.5536L193.288 90.8099Z" fill="#F7F5F0"/>
<path d="M201.433 109.279H206.452L208.961 113.625L211.471 109.279H216.49L213.981 104.932L216.49 100.585H211.471L208.961 96.2383L206.452 100.585H201.433L203.942 104.932L201.433 109.279Z" fill="#F7F5F0"/>
<path d="M211.327 126.74H216.439L218.995 131.167L221.552 126.74H226.664L224.108 122.312L226.664 117.884H221.552L218.995 113.457L216.439 117.884H211.327L213.883 122.312L211.327 126.74Z" fill="#F7F5F0"/>
<path d="M221.677 143.937H226.579L229.031 148.182L231.482 143.937H236.385L233.933 139.691L236.385 135.445H231.482L229.031 131.199L226.579 135.445H221.677L224.128 139.691L221.677 143.937Z" fill="#F7F5F0"/>
<path d="M211.572 161.359H216.521L218.996 165.645L221.471 161.359H226.42L223.945 157.072L226.42 152.786H221.471L218.996 148.5L216.521 152.786H211.572L214.047 157.072L211.572 161.359Z" fill="#F7F5F0"/>
<path d="M201.608 178.698H206.511L208.962 182.944L211.414 178.698H216.316L213.865 174.453L216.316 170.207H211.414L208.962 165.961L206.511 170.207H201.608L204.06 174.453L201.608 178.698Z" fill="#F7F5F0"/>
<path d="M191.923 195.874H196.593L198.928 199.918L201.262 195.874H205.932L203.597 191.83L205.932 187.786H201.262L198.928 183.742L196.593 187.786H191.923L194.258 191.83L191.923 195.874Z" fill="#F7F5F0"/>
<path d="M182.94 212.648H186.91L188.895 216.086L190.88 212.648H194.85L192.865 209.21L194.85 205.772H190.88L188.895 202.334L186.91 205.772H182.94L184.925 209.21L182.94 212.648Z" fill="#F7F5F0"/>
<path d="M174.479 229.119H177.399L178.859 231.649L180.32 229.119H183.24L181.78 226.59L183.24 224.061H180.32L178.859 221.531L177.399 224.061H174.479L175.939 226.59L174.479 229.119Z" fill="#F7F5F0"/>
<path d="M177.278 262.263H178.333L178.861 263.177L179.388 262.263H180.443L179.916 261.349L180.443 260.435H179.388L178.861 259.521L178.333 260.435H177.278L177.806 261.349L177.278 262.263Z" fill="#F7F5F0"/>
<path d="M156.614 262.605H158.066L158.791 263.862L159.517 262.605H160.969L160.243 261.348L160.969 260.091H159.517L158.791 258.834L158.066 260.091H156.614L157.34 261.348L156.614 262.605Z" fill="#F7F5F0"/>
<path d="M135.672 263.11H137.707L138.724 264.872L139.741 263.11H141.775L140.758 261.348L141.775 259.586H139.741L138.724 257.824L137.707 259.586H135.672L136.689 261.348L135.672 263.11Z" fill="#F7F5F0"/>
<path d="M114.73 263.617H117.347L118.656 265.883L119.964 263.617H122.582L121.273 261.35L122.582 259.083H119.964L118.656 256.816L117.347 259.083H114.73L116.038 261.35L114.73 263.617Z" fill="#F7F5F0"/>
<path d="M94.2418 263.859H97.139L98.5878 266.368L100.036 263.859H102.934L101.485 261.35L102.934 258.841H100.036L98.5878 256.332L97.139 258.841H94.2418L95.6904 261.35L94.2418 263.859Z" fill="#F7F5F0"/>
<path d="M74.4189 263.717H77.153L78.5201 266.084L79.887 263.717H82.6211L81.2541 261.349L82.6211 258.981H79.887L78.5201 256.613L77.153 258.981H74.4189L75.786 261.349L74.4189 263.717Z" fill="#F7F5F0"/>
<path d="M54.5593 263.595H57.1534L58.4506 265.842L59.7477 263.595H62.3418L61.0446 261.349L62.3418 259.102H59.7477L58.4506 256.855L57.1534 259.102H54.5593L55.8564 261.349L54.5593 263.595Z" fill="#F7F5F0"/>
<path d="M34.667 263.494H37.1443L38.3832 265.639L39.6219 263.494H42.0996L40.8607 261.348L42.0996 259.202H39.6219L38.3832 257.057L37.1443 259.202H34.667L35.9056 261.348L34.667 263.494Z" fill="#F7F5F0"/>
<path d="M23.7579 246.619H26.8183L28.3486 249.27L29.8788 246.619H32.9395L31.4091 243.969L32.9395 241.319H29.8788L28.3486 238.668L26.8183 241.319H23.7579L25.2882 243.969L23.7579 246.619Z" fill="#F7F5F0"/>
<path d="M12.9901 229.665H16.5401L18.3153 232.739L20.0904 229.665H23.6406L21.8655 226.59L23.6406 223.516H20.0904L18.3153 220.441L16.5401 223.516H12.9901L14.7653 226.59L12.9901 229.665Z" fill="#F7F5F0"/>
<path d="M2.36139 212.628H6.30783L8.28126 216.046L10.2545 212.628H14.2012L12.228 209.211L14.2012 205.793H10.2545L8.28126 202.375L6.30783 205.793H2.36139L4.33461 209.211L2.36139 212.628Z" fill="#F7F5F0"/>
<path d="M-8.44332 195.692H-3.98363L-1.75399 199.554L0.475857 195.692H4.93555L2.7057 191.83L4.93555 187.968H0.475857L-1.75399 184.105L-3.98363 187.968H-8.44332L-6.21347 191.83L-8.44332 195.692Z" fill="#F7F5F0"/>
<path d="M-9.45627 92.0014H-4.32031L-1.75255 96.4492L0.815408 92.0014H5.95117L3.38342 87.5537L5.95117 83.1061H0.815408L-1.75255 78.6582L-4.32031 83.1061H-9.45627L-6.88831 87.5537L-9.45627 92.0014Z" fill="#F7F5F0"/>
<path d="M0.71808 74.5423H5.7607L8.28197 78.9092L10.8031 74.5423H15.8457L13.3244 70.1753L15.8457 65.8084H10.8031L8.28197 61.4414L5.7607 65.8084H0.71808L3.23939 70.1753L0.71808 74.5423Z" fill="#F7F5F0"/>
<path d="M12.6055 56.0912H16.4121L18.3155 59.3879L20.2188 56.0912H24.0254L22.1221 52.7944L24.0254 49.4979H20.2188L18.3155 46.2012L16.4121 49.4979H12.6055L14.5088 52.7944L12.6055 56.0912Z" fill="#F7F5F0"/>
<path d="M25.4031 37.1159H27.3679L28.3501 38.8172L29.3324 37.1159H31.2969L30.3146 35.4145L31.2969 33.7132H29.3324L28.3501 32.0117L27.3679 33.7132H25.4031L26.3854 35.4145L25.4031 37.1159Z" fill="#F7F5F0"/>
<path d="M37.9903 18.2635H38.2527L38.3838 18.4906L38.5149 18.2635H38.7773L38.6462 18.0363L38.7773 17.8092H38.5149L38.3838 17.582L38.2527 17.8092H37.9903L38.1214 18.0363L37.9903 18.2635Z" fill="#F7F5F0"/>
<path d="M78.3707 18.1227H78.4699L78.5195 18.2086L78.5691 18.1227H78.668L78.6184 18.0368L78.668 17.9509H78.5691L78.5195 17.8652L78.4699 17.9509H78.3707L78.4203 18.0368L78.3707 18.1227Z" fill="#F7F5F0"/>
<path d="M97.9847 18.3848H98.3869L98.5882 18.7331L98.7892 18.3848H99.1914L98.9904 18.0364L99.1914 17.6881H98.7892L98.5882 17.3398L98.3869 17.6881H97.9847L98.1857 18.0364L97.9847 18.3848Z" fill="#F7F5F0"/>
<path d="M117.842 18.5062H118.384L118.655 18.9759L118.926 18.5062H119.469L119.198 18.0368L119.469 17.5673H118.926L118.655 17.0977L118.384 17.5673H117.842L118.113 18.0368L117.842 18.5062Z" fill="#F7F5F0"/>
<path d="M138.576 18.1207H138.675L138.724 18.2066L138.774 18.1207H138.873L138.823 18.0348L138.873 17.949H138.774L138.724 17.8633L138.675 17.949H138.576L138.625 18.0348L138.576 18.1207Z" fill="#F7F5F0"/>
<path d="M188.361 35.7228H188.716L188.894 36.0306L189.072 35.7228H189.428L189.25 35.4147L189.428 35.1069H189.072L188.894 34.7988L188.716 35.1069H188.361L188.539 35.4147L188.361 35.7228Z" fill="#F7F5F0"/>
<path d="M197.205 53.7884H198.354L198.928 54.7829L199.502 53.7884H200.65L200.076 52.7937L200.65 51.7992H199.502L198.928 50.8047L198.354 51.7992H197.205L197.779 52.7937L197.205 53.7884Z" fill="#F7F5F0"/>
<path d="M205.736 72.0378H207.887L208.963 73.9007L210.038 72.0378H212.189L211.114 70.175L212.189 68.3121H210.038L208.963 66.4492L207.887 68.3121H205.736L206.812 70.175L205.736 72.0378Z" fill="#F7F5F0"/>
<path d="M213.007 91.0115H217L218.997 94.4697L220.993 91.0115H224.986L222.99 87.5532L224.986 84.0951H220.993L218.997 80.6367L217 84.0951H213.007L215.003 87.5532L213.007 91.0115Z" fill="#F7F5F0"/>
<path d="M222.027 108.977H226.696L229.031 113.021L231.366 108.977H236.035L233.7 104.933L236.035 100.889H231.366L229.031 96.8457L226.696 100.889H222.027L224.362 104.933L222.027 108.977Z" fill="#F7F5F0"/>
<path d="M232.06 126.358H236.73L239.064 130.402L241.399 126.358H246.068L243.734 122.314L246.068 118.27H241.399L239.064 114.227L236.73 118.27H232.06L234.395 122.314L232.06 126.358Z" fill="#F7F5F0"/>
<path d="M242.584 143.453H246.927L249.099 147.214L251.27 143.453H255.613L253.442 139.692L255.613 135.931H251.27L249.099 132.17L246.927 135.931H242.584L244.756 139.692L242.584 143.453Z" fill="#F7F5F0"/>
<path d="M232.375 160.934H236.835L239.064 164.796L241.294 160.934H245.754L243.524 157.072L245.754 153.21H241.294L239.064 149.348L236.835 153.21H232.375L234.605 157.072L232.375 160.934Z" fill="#F7F5F0"/>
<path d="M222.377 178.294H226.813L229.031 182.135L231.249 178.294H235.686L233.467 174.452L235.686 170.61H231.249L229.031 166.768L226.813 170.61H222.377L224.595 174.452L222.377 178.294Z" fill="#F7F5F0"/>
<path d="M212.587 195.531H216.86L218.997 199.232L221.133 195.531H225.406L223.27 191.831L225.406 188.13H221.133L218.997 184.43L216.86 188.13H212.587L214.724 191.831L212.587 195.531Z" fill="#F7F5F0"/>
<path d="M203.148 212.568H207.024L208.962 215.925L210.901 212.568H214.777L212.839 209.211L214.777 205.853H210.901L208.962 202.496L207.024 205.853H203.148L205.086 209.211L203.148 212.568Z" fill="#F7F5F0"/>
<path d="M194.442 229.18H197.433L198.928 231.77L200.424 229.18H203.414L201.919 226.59L203.414 224H200.424L198.928 221.41L197.433 224H194.442L195.938 226.59L194.442 229.18Z" fill="#F7F5F0"/>
<path d="M186.087 245.59H187.959L188.894 247.211L189.83 245.59H191.701L190.766 243.97L191.701 242.349H189.83L188.894 240.729L187.959 242.349H186.087L187.023 243.97L186.087 245.59Z" fill="#F7F5F0"/>
<path d="M188.815 278.773H188.868L188.894 278.818L188.92 278.773H188.973L188.946 278.728L188.973 278.682H188.92L188.894 278.637L188.868 278.682H188.815L188.841 278.728L188.815 278.773Z" fill="#F7F5F0"/>
<path d="M168.153 279.117H168.602L168.827 279.506L169.051 279.117H169.5L169.276 278.728L169.5 278.34H169.051L168.827 277.951L168.602 278.34H168.153L168.378 278.728L168.153 279.117Z" fill="#F7F5F0"/>
<path d="M147.209 279.622H148.241L148.757 280.516L149.273 279.622H150.305L149.789 278.729L150.305 277.835H149.273L148.757 276.941L148.241 277.835H147.209L147.725 278.729L147.209 279.622Z" fill="#F7F5F0"/>
<path d="M126.267 280.127H127.882L128.689 281.525L129.497 280.127H131.111L130.304 278.728L131.111 277.33H129.497L128.689 275.932L127.882 277.33H126.267L127.074 278.728L126.267 280.127Z" fill="#F7F5F0"/>
<path d="M105.429 280.571H107.557L108.621 282.414L109.685 280.571H111.812L110.749 278.728L111.812 276.886H109.685L108.621 275.043L107.557 276.886H105.429L106.493 278.728L105.429 280.571Z" fill="#F7F5F0"/>
<path d="M85.3626 280.571H87.4906L88.5543 282.414L89.6183 280.571H91.7461L90.6821 278.728L91.7461 276.886H89.6183L88.5543 275.043L87.4906 276.886H85.3626L86.4265 278.728L85.3626 280.571Z" fill="#F7F5F0"/>
<path d="M65.5728 280.411H67.5141L68.4845 282.092L69.4552 280.411H71.3965L70.4258 278.729L71.3965 277.048H69.4552L68.4845 275.367L67.5141 277.048H65.5728L66.5433 278.729L65.5728 280.411Z" fill="#F7F5F0"/>
<path d="M45.6804 280.309H47.5051L48.4172 281.889L49.3296 280.309H51.1543L50.242 278.729L51.1543 277.148H49.3296L48.4172 275.568L47.5051 277.148H45.6804L46.5928 278.729L45.6804 280.309Z" fill="#F7F5F0"/>
<path d="M25.788 280.207H27.4961L28.3501 281.687L29.2042 280.207H30.9121L30.0581 278.728L30.9121 277.249H29.2042L28.3501 275.77L27.4961 277.249H25.788L26.642 278.728L25.788 280.207Z" fill="#F7F5F0"/>
<path d="M14.8443 263.353H17.1586L18.3157 265.357L19.4728 263.353H21.7871L20.6302 261.348L21.7871 259.344H19.4728L18.3157 257.34L17.1586 259.344H14.8443L16.0015 261.348L14.8443 263.353Z" fill="#F7F5F0"/>
<path d="M4.11106 246.377H6.89188L8.28217 248.785L9.6725 246.377H12.4531L11.0628 243.969L12.4531 241.56H9.6725L8.28217 239.152L6.89188 241.56H4.11106L5.5016 243.969L4.11106 246.377Z" fill="#F7F5F0"/>
<path d="M-6.51962 229.34H-3.34234L-1.75392 232.092L-0.165308 229.34H3.01172L1.42331 226.589L3.01172 223.837H-0.165308L-1.75392 221.086L-3.34234 223.837H-6.51962L-4.93095 226.589L-6.51962 229.34Z" fill="#F7F5F0"/>
<path d="M-8.19761 56.5156H-3.9012L-1.7531 60.2365L0.395202 56.5156H4.69141L2.5433 52.7948L4.69141 49.0743H0.395202L-1.7531 45.3535L-3.9012 49.0743H-8.19761L-6.04931 52.7948L-8.19761 56.5156Z" fill="#F7F5F0"/>
<path d="M4.25031 37.7437H6.93753L8.28138 40.0711L9.62502 37.7437H12.3125L10.9687 35.4164L12.3125 33.0891H9.62502L8.28138 30.7617L6.93753 33.0891H4.25031L5.59395 35.4164L4.25031 37.7437Z" fill="#F7F5F0"/>
<path d="M17.1177 18.7272H17.9163L18.3157 19.4188L18.715 18.7272H19.5137L19.1143 18.0356L19.5137 17.344H18.715L18.3157 16.6523L17.9163 17.344H17.1177L17.517 18.0356L17.1177 18.7272Z" fill="#F7F5F0"/>
<path d="M208.953 35.4215H208.959L208.962 35.4265L208.965 35.4215H208.971L208.968 35.4163L208.971 35.4113H208.965L208.962 35.4062L208.959 35.4113H208.953L208.956 35.4163L208.953 35.4215Z" fill="#F7F5F0"/>
<path d="M217.869 53.4459H218.621L218.997 54.0971L219.373 53.4459H220.125L219.749 52.7945L220.125 52.1434H219.373L218.997 51.4922L218.621 52.1434H217.869L218.245 52.7945L217.869 53.4459Z" fill="#F7F5F0"/>
<path d="M225.455 72.2395H227.839L229.031 74.3042L230.223 72.2395H232.607L231.415 70.1746L232.607 68.1096H230.223L229.031 66.0449L227.839 68.1096H225.455L226.647 70.1746L225.455 72.2395Z" fill="#F7F5F0"/>
<path d="M233.319 90.8705H237.149L239.064 94.1874L240.979 90.8705H244.809L242.894 87.5536L244.809 84.2368H240.979L239.064 80.9199L237.149 84.2368H233.319L235.234 87.5536L233.319 90.8705Z" fill="#F7F5F0"/>
<path d="M242.828 108.553H247.008L249.098 112.172L251.187 108.553H255.367L253.277 104.933L255.367 101.313H251.187L249.098 97.6934L247.008 101.313H242.828L244.918 104.933L242.828 108.553Z" fill="#F7F5F0"/>
<path d="M252.933 125.892H257.066L259.132 129.472L261.199 125.892H265.332L263.265 122.313L265.332 118.734H261.199L259.132 115.154L257.066 118.734H252.933L254.999 122.313L252.933 125.892Z" fill="#F7F5F0"/>
<path d="M263.353 143.048H267.229L269.167 146.405L271.106 143.048H274.982L273.044 139.691L274.982 136.334H271.106L269.167 132.977L267.229 136.334H263.353L265.291 139.691L263.353 143.048Z" fill="#F7F5F0"/>
<path d="M253.213 160.49H257.16L259.133 163.908L261.106 160.49H265.053L263.08 157.072L265.053 153.654H261.106L259.133 150.236L257.16 153.654H253.213L255.186 157.072L253.213 160.49Z" fill="#F7F5F0"/>
<path d="M243.213 177.849H247.136L249.098 181.247L251.059 177.849H254.982L253.021 174.452L254.982 171.054H251.059L249.098 167.656L247.136 171.054H243.213L245.174 174.452L243.213 177.849Z" fill="#F7F5F0"/>
<path d="M233.319 195.148H237.149L239.064 198.465L240.979 195.148H244.809L242.894 191.831L244.809 188.514H240.979L239.064 185.197L237.149 188.514H233.319L235.234 191.831L233.319 195.148Z" fill="#F7F5F0"/>
<path d="M223.67 212.306H227.244L229.03 215.4L230.817 212.306H234.391L232.604 209.211L234.391 206.116H230.817L229.03 203.021L227.244 206.116H223.67L225.457 209.211L223.67 212.306Z" fill="#F7F5F0"/>
<path d="M214.546 229.16H217.513L218.996 231.73L220.48 229.16H223.447L221.964 226.59L223.447 224.021H220.48L218.996 221.451L217.513 224.021H214.546L216.029 226.59L214.546 229.16Z" fill="#F7F5F0"/>
<path d="M206.086 245.632H208.004L208.963 247.292L209.922 245.632H211.84L210.881 243.97L211.84 242.309H209.922L208.963 240.648L208.004 242.309H206.086L207.045 243.97L206.086 245.632Z" fill="#F7F5F0"/>
<path d="M197.59 262.122H198.482L198.928 262.894L199.374 262.122H200.266L199.82 261.35L200.266 260.577H199.374L198.928 259.805L198.482 260.577H197.59L198.036 261.35L197.59 262.122Z" fill="#F7F5F0"/>
<path d="M158.783 296.113H158.789L158.792 296.118L158.795 296.113H158.801L158.798 296.108L158.801 296.103H158.795L158.792 296.098L158.789 296.103H158.783L158.786 296.108L158.783 296.113Z" fill="#F7F5F0"/>
<path d="M137.806 296.637H138.418L138.724 297.167L139.03 296.637H139.643L139.337 296.107L139.643 295.577H139.03L138.724 295.047L138.418 295.577H137.806L138.112 296.107L137.806 296.637Z" fill="#F7F5F0"/>
<path d="M116.864 297.144H118.059L118.657 298.179L119.254 297.144H120.449L119.852 296.109L120.449 295.074H119.254L118.657 294.039L118.059 295.074H116.864L117.462 296.109L116.864 297.144Z" fill="#F7F5F0"/>
<path d="M96.3762 297.385H97.8511L98.5886 298.662L99.3259 297.385H100.801L100.063 296.107L100.801 294.83H99.3259L98.5886 293.553L97.8511 294.83H96.3762L97.1136 296.107L96.3762 297.385Z" fill="#F7F5F0"/>
<path d="M76.5165 297.265H77.8515L78.519 298.421L79.1864 297.265H80.5215L79.8539 296.109L80.5215 294.953H79.1864L78.519 293.797L77.8515 294.953H76.5165L77.1841 296.109L76.5165 297.265Z" fill="#F7F5F0"/>
<path d="M56.6938 297.122H57.8657L58.4515 298.137L59.0373 297.122H60.209L59.6232 296.108L60.209 295.093H59.0373L58.4515 294.078L57.8657 295.093H56.6938L57.2796 296.108L56.6938 297.122Z" fill="#F7F5F0"/>
<path d="M36.8012 297.023H37.8565L38.384 297.936L38.9115 297.023H39.9668L39.4391 296.109L39.9668 295.195H38.9115L38.384 294.281L37.8565 295.195H36.8012L37.3289 296.109L36.8012 297.023Z" fill="#F7F5F0"/>
<path d="M16.9072 296.921H17.8457L18.3149 297.734L18.7842 296.921H19.7227L19.2534 296.108L19.7227 295.295H18.7842L18.3149 294.482L17.8457 295.295H16.9072L17.3764 296.108L16.9072 296.921Z" fill="#F7F5F0"/>
<path d="M5.96309 280.066H7.50815L8.28045 281.404L9.0528 280.066H10.5977L9.8253 278.728L10.5977 277.391H9.0528L8.28045 276.053L7.50815 277.391H5.96309L6.73559 278.728L5.96309 280.066Z" fill="#F7F5F0"/>
<path d="M-4.80463 263.11H-2.77003L-1.7529 264.872L-0.735574 263.11H1.29883L0.281703 261.348L1.29883 259.586H-0.735574L-1.7529 257.824L-2.77003 259.586H-4.80463L-3.78735 261.348L-4.80463 263.11Z" fill="#F7F5F0"/>
<path d="M-4.00019 19.3339H-2.50223L-1.75313 20.6313L-1.00402 19.3339H0.494141L-0.254965 18.0364L0.494141 16.739H-1.00402L-1.75313 15.4414L-2.50223 16.739H-4.00019L-3.25129 18.0364L-4.00019 19.3339Z" fill="#F7F5F0"/>
<path d="M237.97 53.4264H238.699L239.063 54.0574L239.428 53.4264H240.156L239.792 52.7951L240.156 52.1641H239.428L239.063 51.5332L238.699 52.1641H237.97L238.335 52.7951L237.97 53.4264Z" fill="#F7F5F0"/>
<path d="M245.101 72.4802H247.766L249.098 74.7873L250.43 72.4802H253.094L251.762 70.173L253.094 67.8658H250.43L249.098 65.5586L247.766 67.8658H245.101L246.434 70.173L245.101 72.4802Z" fill="#F7F5F0"/>
<path d="M253.841 90.6084H257.368L259.132 93.6627L260.895 90.6084H264.422L262.659 87.554L264.422 84.4998H260.895L259.132 81.4453L257.368 84.4998H253.841L255.605 87.554L253.841 90.6084Z" fill="#F7F5F0"/>
<path d="M263.527 108.191H267.287L269.167 111.447L271.046 108.191H274.807L272.927 104.934L274.807 101.678H271.046L269.167 98.4219L267.287 101.678H263.527L265.406 104.934L263.527 108.191Z" fill="#F7F5F0"/>
<path d="M273.736 125.468H277.379L279.201 128.623L281.023 125.468H284.666L282.844 122.313L284.666 119.157H281.023L279.201 116.002L277.379 119.157H273.736L275.557 122.313L273.736 125.468Z" fill="#F7F5F0"/>
<path d="M284.225 142.585H287.565L289.236 145.478L290.906 142.585H294.246L292.576 139.692L294.246 136.799H290.906L289.236 133.906L287.565 136.799H284.225L285.895 139.692L284.225 142.585Z" fill="#F7F5F0"/>
<path d="M274.016 160.065H277.473L279.201 163.059L280.93 160.065H284.387L282.658 157.072L284.387 154.078H280.93L279.201 151.084L277.473 154.078H274.016L275.745 157.072L274.016 160.065Z" fill="#F7F5F0"/>
<path d="M264.016 177.425H267.449L269.166 180.398L270.883 177.425H274.316L272.6 174.451L274.316 171.477H270.883L269.166 168.504L267.449 171.477H264.016L265.732 174.451L264.016 177.425Z" fill="#F7F5F0"/>
<path d="M254.087 194.743H257.45L259.132 197.656L260.814 194.743H264.178L262.496 191.83L264.178 188.917H260.814L259.132 186.004L257.45 188.917H254.087L255.769 191.83L254.087 194.743Z" fill="#F7F5F0"/>
<path d="M244.332 211.961H247.509L249.098 214.713L250.686 211.961H253.863L252.275 209.21L253.863 206.459H250.686L249.098 203.707L247.509 206.459H244.332L245.921 209.21L244.332 211.961Z" fill="#F7F5F0"/>
<path d="M234.894 228.998H237.675L239.065 231.406L240.456 228.998H243.236L241.846 226.589L243.236 224.181H240.456L239.065 221.773L237.675 224.181H234.894L236.285 226.589L234.894 228.998Z" fill="#F7F5F0"/>
<path d="M226.083 245.67H228.048L229.03 247.372L230.012 245.67H231.977L230.994 243.969L231.977 242.268H230.012L229.03 240.566L228.048 242.268H226.083L227.065 243.969L226.083 245.67Z" fill="#F7F5F0"/>
<path d="M217.658 262.122H218.55L218.996 262.894L219.442 262.122H220.334L219.888 261.35L220.334 260.577H219.442L218.996 259.805L218.55 260.577H217.658L218.104 261.35L217.658 262.122Z" fill="#F7F5F0"/>
<path d="M128.436 313.633H128.605L128.69 313.779L128.774 313.633H128.943L128.859 313.486L128.943 313.34H128.774L128.69 313.193L128.605 313.34H128.436L128.521 313.486L128.436 313.633Z" fill="#F7F5F0"/>
<path d="M107.633 314.057H108.292L108.621 314.628L108.951 314.057H109.609L109.28 313.487L109.609 312.916H108.951L108.621 312.346L108.292 312.916H107.633L107.962 313.487L107.633 314.057Z" fill="#F7F5F0"/>
<path d="M87.5299 314.077H88.212L88.553 314.668L88.8941 314.077H89.5762L89.2351 313.486L89.5762 312.895H88.8941L88.553 312.305L88.212 312.895H87.5299L87.8709 313.486L87.5299 314.077Z" fill="#F7F5F0"/>
<path d="M67.7072 313.938H68.226L68.4853 314.387L68.7449 313.938H69.2637L69.0042 313.488L69.2637 313.039H68.7449L68.4853 312.59L68.226 313.039H67.7072L67.9665 313.488L67.7072 313.938Z" fill="#F7F5F0"/>
<path d="M47.8497 313.817H48.2286L48.4179 314.145L48.6075 313.817H48.9863L48.797 313.488L48.9863 313.16H48.6075L48.4179 312.832L48.2286 313.16H47.8497L48.0391 313.488L47.8497 313.817Z" fill="#F7F5F0"/>
<path d="M27.9554 313.715H28.2176L28.3489 313.942L28.48 313.715H28.7422L28.6111 313.487L28.7422 313.26H28.48L28.3489 313.033L28.2176 313.26H27.9554L28.0865 313.487L27.9554 313.715Z" fill="#F7F5F0"/>
<path d="M8.06267 313.613H8.20853L8.28131 313.739L8.35414 313.613H8.5L8.42697 313.487L8.5 313.361H8.35414L8.28131 313.234L8.20853 313.361H8.06267L8.1355 313.487L8.06267 313.613Z" fill="#F7F5F0"/>
<path d="M257.584 53.6886H258.616L259.132 54.5823L259.648 53.6886H260.68L260.164 52.795L260.68 51.9015H259.648L259.132 51.0078L258.616 51.9015H257.584L258.1 52.795L257.584 53.6886Z" fill="#F7F5F0"/>
<path d="M265.276 72.4194H267.87L269.168 74.6661L270.464 72.4194H273.059L271.762 70.173L273.059 67.9263H270.464L269.168 65.6797L267.87 67.9263H265.276L266.573 70.173L265.276 72.4194Z" fill="#F7F5F0"/>
<path d="M274.47 90.2836H277.624L279.201 93.0148L280.778 90.2836H283.932L282.355 87.5523L283.932 84.8211H280.778L279.201 82.0898L277.624 84.8211H274.47L276.047 87.5523L274.47 90.2836Z" fill="#F7F5F0"/>
<path d="M284.295 107.786H287.589L289.235 110.638L290.882 107.786H294.176L292.529 104.933L294.176 102.081H290.882L289.235 99.2285L287.589 102.081H284.295L285.942 104.933L284.295 107.786Z" fill="#F7F5F0"/>
<path d="M294.539 125.045H297.692L299.269 127.777L300.846 125.045H304L302.423 122.314L304 119.583H300.846L299.269 116.852L297.692 119.583H294.539L296.116 122.314L294.539 125.045Z" fill="#F7F5F0"/>
<path d="M305.061 142.14H307.888L309.302 144.589L310.716 142.14H313.543L312.129 139.692L313.543 137.243H310.716L309.302 134.795L307.888 137.243H305.061L306.475 139.692L305.061 142.14Z" fill="#F7F5F0"/>
<path d="M294.817 159.643H297.784L299.268 162.212L300.752 159.643H303.719L302.235 157.073L303.719 154.503H300.752L299.268 151.934L297.784 154.503H294.817L296.301 157.073L294.817 159.643Z" fill="#F7F5F0"/>
<path d="M284.784 177.022H287.751L289.235 179.591L290.718 177.022H293.686L292.202 174.452L293.686 171.882H290.718L289.235 169.312L287.751 171.882H284.784L286.267 174.452L284.784 177.022Z" fill="#F7F5F0"/>
<path d="M274.82 194.361H277.741L279.201 196.891L280.661 194.361H283.582L282.122 191.832L283.582 189.303H280.661L279.201 186.773L277.741 189.303H274.82L276.281 191.832L274.82 194.361Z" fill="#F7F5F0"/>
<path d="M264.996 211.619H267.777L269.167 214.027L270.557 211.619H273.338L271.948 209.211L273.338 206.803H270.557L269.167 204.395L267.777 206.803H264.996L266.386 209.211L264.996 211.619Z" fill="#F7F5F0"/>
<path d="M255.417 228.734H257.895L259.133 230.879L260.372 228.734H262.85L261.611 226.588L262.85 224.442H260.372L259.133 222.297L257.895 224.442H255.417L256.656 226.588L255.417 228.734Z" fill="#F7F5F0"/>
<path d="M246.256 245.61H248.15L249.098 247.251L250.045 245.61H251.939L250.992 243.969L251.939 242.328H250.045L249.098 240.688L248.15 242.328H246.256L247.203 243.969L246.256 245.61Z" fill="#F7F5F0"/>
<path d="M237.587 262.202H238.573L239.065 263.055L239.558 262.202H240.543L240.05 261.349L240.543 260.496H239.558L239.065 259.643L238.573 260.496H237.587L238.08 261.349L237.587 262.202Z" fill="#F7F5F0"/>
<path d="M98.5435 330.892H98.5726L98.5873 330.917L98.6018 330.892H98.6309L98.6163 330.867L98.6309 330.842H98.6018L98.5873 330.816L98.5726 330.842H98.5435L98.558 330.867L98.5435 330.892Z" fill="#F7F5F0"/>
<path d="M277.198 53.9509H278.533L279.201 55.107L279.868 53.9509H281.203L280.536 52.7946L281.203 51.6387H279.868L279.201 50.4824L278.533 51.6387H277.198L277.866 52.7946L277.198 53.9509Z" fill="#F7F5F0"/>
<path d="M285.658 72.2395H288.042L289.234 74.3042L290.426 72.2395H292.811L291.618 70.1746L292.811 68.1096H290.426L289.234 66.0449L288.042 68.1096H285.658L286.85 70.1746L285.658 72.2395Z" fill="#F7F5F0"/>
<path d="M295.097 89.9628H297.878L299.269 92.3708L300.659 89.9628H303.439L302.049 87.5546L303.439 85.1465H300.659L299.269 82.7383L297.878 85.1465H295.097L296.488 87.5546L295.097 89.9628Z" fill="#F7F5F0"/>
<path d="M305.096 107.361H307.9L309.302 109.789L310.704 107.361H313.508L312.106 104.933L313.508 102.505H310.704L309.302 100.076L307.9 102.505H305.096L306.498 104.933L305.096 107.361Z" fill="#F7F5F0"/>
<path d="M315.446 124.56H318.04L319.337 126.807L320.634 124.56H323.229L321.931 122.314L323.229 120.067H320.634L319.337 117.82L318.04 120.067H315.446L316.743 122.314L315.446 124.56Z" fill="#F7F5F0"/>
<path d="M325.864 141.718H328.202L329.37 143.742L330.539 141.718H332.877L331.708 139.693L332.877 137.669H330.539L329.37 135.645L328.202 137.669H325.864L327.033 139.693L325.864 141.718Z" fill="#F7F5F0"/>
<path d="M315.726 159.157H318.134L319.338 161.243L320.542 159.157H322.949L321.745 157.072L322.949 154.987H320.542L319.338 152.902L318.134 154.987H315.726L316.93 157.072L315.726 159.157Z" fill="#F7F5F0"/>
<path d="M305.656 176.556H308.087L309.303 178.661L310.518 176.556H312.949L311.734 174.451L312.949 172.345H310.518L309.303 170.24L308.087 172.345H305.656L306.872 174.451L305.656 176.556Z" fill="#F7F5F0"/>
<path d="M295.658 193.915H298.066L299.269 196L300.473 193.915H302.881L301.677 191.83L302.881 189.745H300.473L299.269 187.66L298.066 189.745H295.658L296.862 191.83L295.658 193.915Z" fill="#F7F5F0"/>
<path d="M285.728 211.234H288.065L289.234 213.258L290.403 211.234H292.74L291.571 209.209L292.74 207.185H290.403L289.234 205.16L288.065 207.185H285.728L286.896 209.209L285.728 211.234Z" fill="#F7F5F0"/>
<path d="M276.009 228.432H278.137L279.201 230.275L280.265 228.432H282.393L281.329 226.59L282.393 224.747H280.265L279.201 222.904L278.137 224.747H276.009L277.073 226.59L276.009 228.432Z" fill="#F7F5F0"/>
<path d="M266.674 245.408H268.335L269.166 246.847L269.997 245.408H271.658L270.828 243.97L271.658 242.531H269.997L269.166 241.092L268.335 242.531H266.674L267.505 243.97L266.674 245.408Z" fill="#F7F5F0"/>
<path d="M257.654 262.202H258.639L259.132 263.055L259.624 262.202H260.609L260.117 261.349L260.609 260.496H259.624L259.132 259.643L258.639 260.496H257.654L258.146 261.349L257.654 262.202Z" fill="#F7F5F0"/>
<path d="M297.232 53.9703H298.59L299.269 55.1465L299.948 53.9703H301.307L300.628 52.7938L301.307 51.6176H299.948L299.269 50.4414L298.59 51.6176H297.232L297.911 52.7938L297.232 53.9703Z" fill="#F7F5F0"/>
<path d="M306.215 71.9559H308.273L309.302 73.7379L310.331 71.9559H312.389L311.36 70.1737L312.389 68.3915H310.331L309.302 66.6094L308.273 68.3915H306.215L307.244 70.1737L306.215 71.9559Z" fill="#F7F5F0"/>
<path d="M315.866 89.5577H318.18L319.337 91.5619L320.494 89.5577H322.809L321.651 87.5534L322.809 85.5493H320.494L319.337 83.5449L318.18 85.5493H315.866L317.023 87.5534L315.866 89.5577Z" fill="#F7F5F0"/>
<path d="M325.864 106.958H328.202L329.37 108.982L330.539 106.958H332.877L331.708 104.933L332.877 102.909H330.539L329.37 100.885L328.202 102.909H325.864L327.033 104.933L325.864 106.958Z" fill="#F7F5F0"/>
<path d="M336.178 124.175H338.329L339.404 126.038L340.48 124.175H342.631L341.555 122.312L342.631 120.449H340.48L339.404 118.586L338.329 120.449H336.178L337.253 122.312L336.178 124.175Z" fill="#F7F5F0"/>
<path d="M346.737 141.252H348.538L349.439 142.812L350.339 141.252H352.141L351.24 139.692L352.141 138.132H350.339L349.439 136.572L348.538 138.132H346.737L347.637 139.692L346.737 141.252Z" fill="#F7F5F0"/>
<path d="M336.493 158.752H338.434L339.405 160.434L340.375 158.752H342.316L341.346 157.071L342.316 155.39H340.375L339.405 153.709L338.434 155.39H336.493L337.463 157.071L336.493 158.752Z" fill="#F7F5F0"/>
<path d="M326.425 176.153H328.389L329.372 177.854L330.354 176.153H332.318L331.336 174.452L332.318 172.75H330.354L329.372 171.049L328.389 172.75H326.425L327.407 174.452L326.425 176.153Z" fill="#F7F5F0"/>
<path d="M316.424 193.512H318.366L319.336 195.193L320.307 193.512H322.248L321.278 191.831L322.248 190.15H320.307L319.336 188.469L318.366 190.15H316.424L317.395 191.831L316.424 193.512Z" fill="#F7F5F0"/>
<path d="M306.565 210.791H308.39L309.302 212.371L310.214 210.791H312.039L311.127 209.211L312.039 207.631H310.214L309.302 206.051L308.39 207.631H306.565L307.478 209.211L306.565 210.791Z" fill="#F7F5F0"/>
<path d="M296.741 228.049H298.425L299.268 229.508L300.11 228.049H301.795L300.952 226.59L301.795 225.131H300.11L299.268 223.672L298.425 225.131H296.741L297.583 226.59L296.741 228.049Z" fill="#F7F5F0"/>
<path d="M287.162 245.166H288.543L289.234 246.362L289.925 245.166H291.307L290.616 243.969L291.307 242.773H289.925L289.234 241.576L288.543 242.773H287.162L287.853 243.969L287.162 245.166Z" fill="#F7F5F0"/>
<path d="M277.968 262.061H278.79L279.201 262.773L279.611 262.061H280.434L280.022 261.349L280.434 260.638H279.611L279.201 259.926L278.79 260.638H277.968L278.379 261.349L277.968 262.061Z" fill="#F7F5F0"/>
<path d="M269.158 278.734H269.164L269.167 278.739L269.17 278.734H269.176L269.173 278.729L269.176 278.724H269.17L269.167 278.719L269.164 278.724H269.158L269.161 278.729L269.158 278.734Z" fill="#F7F5F0"/>
<path d="M317.544 53.8295H318.739L319.336 54.8642L319.934 53.8295H321.129L320.531 52.7943L321.129 51.7596H319.934L319.336 50.7246L318.739 51.7596H317.544L318.141 52.7943L317.544 53.8295Z" fill="#F7F5F0"/>
<path d="M326.844 71.633H328.529L329.371 73.0919L330.214 71.633H331.898L331.056 70.174L331.898 68.715H330.214L329.371 67.2559L328.529 68.715H326.844L327.687 70.174L326.844 71.633Z" fill="#F7F5F0"/>
<path d="M336.632 89.1547H338.48L339.404 90.7549L340.328 89.1547H342.176L341.252 87.5542L342.176 85.954H340.328L339.404 84.3535L338.48 85.954H336.632L337.556 87.5542L336.632 89.1547Z" fill="#F7F5F0"/>
<path d="M346.737 106.492H348.538L349.439 108.052L350.339 106.492H352.141L351.24 104.932L352.141 103.372H350.339L349.439 101.812L348.538 103.372H346.737L347.637 104.932L346.737 106.492Z" fill="#F7F5F0"/>
<path d="M357.05 123.711H358.665L359.472 125.109L360.28 123.711H361.895L361.087 122.313L361.895 120.914H360.28L359.472 119.516L358.665 120.914H357.05L357.857 122.313L357.05 123.711Z" fill="#F7F5F0"/>
<path d="M367.574 140.808H368.863L369.507 141.924L370.151 140.808H371.439L370.795 139.692L371.439 138.577H370.151L369.507 137.461L368.863 138.577H367.574L368.219 139.692L367.574 140.808Z" fill="#F7F5F0"/>
<path d="M357.33 158.308H358.759L359.473 159.545L360.187 158.308H361.615L360.901 157.071L361.615 155.835H360.187L359.473 154.598L358.759 155.835H357.33L358.045 157.071L357.33 158.308Z" fill="#F7F5F0"/>
<path d="M347.262 175.709H348.714L349.44 176.966L350.166 175.709H351.617L350.891 174.452L351.617 173.195H350.166L349.44 171.938L348.714 173.195H347.262L347.988 174.452L347.262 175.709Z" fill="#F7F5F0"/>
<path d="M337.262 193.068H338.69L339.405 194.305L340.119 193.068H341.547L340.833 191.831L341.547 190.594H340.119L339.405 189.357L338.69 190.594H337.262L337.976 191.831L337.262 193.068Z" fill="#F7F5F0"/>
<path d="M327.264 210.427H328.669L329.371 211.644L330.073 210.427H331.479L330.776 209.211L331.479 207.994H330.073L329.371 206.777L328.669 207.994H327.264L327.966 209.211L327.264 210.427Z" fill="#F7F5F0"/>
<path d="M317.439 227.685H318.704L319.337 228.781L319.969 227.685H321.234L320.602 226.589L321.234 225.494H319.969L319.337 224.398L318.704 225.494H317.439L318.072 226.589L317.439 227.685Z" fill="#F7F5F0"/>
<path d="M307.791 244.843H308.799L309.303 245.716L309.808 244.843H310.816L310.312 243.97L310.816 243.096H309.808L309.303 242.223L308.799 243.096H307.791L308.295 243.97L307.791 244.843Z" fill="#F7F5F0"/>
<path d="M298.351 261.879H298.963L299.269 262.41L299.575 261.879H300.188L299.882 261.349L300.188 260.819H299.575L299.269 260.289L298.963 260.819H298.351L298.657 261.349L298.351 261.879Z" fill="#F7F5F0"/>
<path d="M329.292 35.4605H329.344L329.37 35.5059L329.397 35.4605H329.449L329.423 35.4151L329.449 35.3696H329.397L329.37 35.3242L329.344 35.3696H329.292L329.318 35.4151L329.292 35.4605Z" fill="#F7F5F0"/>
<path d="M338.032 53.5889H338.947L339.405 54.3813L339.862 53.5889H340.777L340.32 52.796L340.777 52.0036H339.862L339.405 51.2109L338.947 52.0036H338.032L338.489 52.796L338.032 53.5889Z" fill="#F7F5F0"/>
<path d="M347.471 71.3103H348.783L349.439 72.446L350.095 71.3103H351.406L350.751 70.1743L351.406 69.0383H350.095L349.439 67.9023L348.783 69.0383H347.471L348.127 70.1743L347.471 71.3103Z" fill="#F7F5F0"/>
<path d="M357.33 88.7909H358.759L359.473 90.0277L360.187 88.7909H361.615L360.901 87.5539L361.615 86.3171H360.187L359.473 85.0801L358.759 86.3171H357.33L358.045 87.5539L357.33 88.7909Z" fill="#F7F5F0"/>
<path d="M367.505 106.089H368.84L369.507 107.245L370.175 106.089H371.51L370.842 104.933L371.51 103.777H370.175L369.507 102.621L368.84 103.777H367.505L368.172 104.933L367.505 106.089Z" fill="#F7F5F0"/>
<path d="M377.888 123.267H378.99L379.541 124.221L380.092 123.267H381.193L380.642 122.313L381.193 121.358H380.092L379.541 120.404L378.99 121.358H377.888L378.439 122.313L377.888 123.267Z" fill="#F7F5F0"/>
<path d="M388.343 140.405H389.165L389.576 141.117L389.987 140.405H390.809L390.398 139.693L390.809 138.981H389.987L389.576 138.27L389.165 138.981H388.343L388.754 139.693L388.343 140.405Z" fill="#F7F5F0"/>
<path d="M378.203 157.845H379.095L379.541 158.617L379.987 157.845H380.879L380.433 157.072L380.879 156.3H379.987L379.541 155.527L379.095 156.3H378.203L378.649 157.072L378.203 157.845Z" fill="#F7F5F0"/>
<path d="M368.098 175.263H369.037L369.506 176.076L369.976 175.263H370.914L370.445 174.45L370.914 173.637H369.976L369.506 172.824L369.037 173.637H368.098L368.568 174.45L368.098 175.263Z" fill="#F7F5F0"/>
<path d="M358.03 192.663H358.992L359.473 193.496L359.954 192.663H360.916L360.435 191.83L360.916 190.997H359.954L359.473 190.164L358.992 190.997H358.03L358.511 191.83L358.03 192.663Z" fill="#F7F5F0"/>
<path d="M348.102 209.981H348.994L349.44 210.754L349.886 209.981H350.777L350.332 209.209L350.777 208.437H349.886L349.44 207.664L348.994 208.437H348.102L348.548 209.209L348.102 209.981Z" fill="#F7F5F0"/>
<path d="M338.173 227.302H338.995L339.406 228.013L339.817 227.302H340.639L340.228 226.59L340.639 225.878H339.817L339.406 225.166L338.995 225.878H338.173L338.584 226.59L338.173 227.302Z" fill="#F7F5F0"/>
<path d="M328.453 244.498H329.065L329.371 245.029L329.677 244.498H330.289L329.983 243.968L330.289 243.438H329.677L329.371 242.908L329.065 243.438H328.453L328.759 243.968L328.453 244.498Z" fill="#F7F5F0"/>
<path d="M318.909 261.596H319.194L319.337 261.843L319.48 261.596H319.766L319.623 261.348L319.766 261.101H319.48L319.337 260.854L319.194 261.101H318.909L319.052 261.348L318.909 261.596Z" fill="#F7F5F0"/>
<path d="M358.555 53.3247H359.166L359.472 53.8547L359.779 53.3247H360.391L360.085 52.7944L360.391 52.2644H359.779L359.472 51.7344L359.166 52.2644H358.555L358.861 52.7944L358.555 53.3247Z" fill="#F7F5F0"/>
<path d="M368.205 70.9265H369.073L369.508 71.6787L369.942 70.9265H370.811L370.376 70.1743L370.811 69.4221H369.942L369.508 68.6699L369.073 69.4221H368.205L368.639 70.1743L368.205 70.9265Z" fill="#F7F5F0"/>
<path d="M378.169 88.3467H379.084L379.541 89.1394L379.999 88.3467H380.914L380.456 87.5541L380.914 86.7614H379.999L379.541 85.9688L379.084 86.7614H378.169L378.626 87.5541L378.169 88.3467Z" fill="#F7F5F0"/>
<path d="M388.308 105.665H389.153L389.576 106.397L389.998 105.665H390.844L390.421 104.933L390.844 104.201H389.998L389.576 103.469L389.153 104.201H388.308L388.73 104.933L388.308 105.665Z" fill="#F7F5F0"/>
<path d="M398.656 122.864H399.292L399.609 123.414L399.927 122.864H400.562L400.245 122.314L400.562 121.763H399.927L399.609 121.213L399.292 121.763H398.656L398.974 122.314L398.656 122.864Z" fill="#F7F5F0"/>
<path d="M409.215 139.94H409.501L409.644 140.187L409.787 139.94H410.072L409.93 139.692L410.072 139.445H409.787L409.644 139.197L409.501 139.445H409.215L409.358 139.692L409.215 139.94Z" fill="#F7F5F0"/>
<path d="M398.971 157.442H399.397L399.61 157.81L399.823 157.442H400.248L400.035 157.073L400.248 156.705H399.823L399.61 156.336L399.397 156.705H398.971L399.184 157.073L398.971 157.442Z" fill="#F7F5F0"/>
<path d="M388.867 174.86H389.339L389.575 175.269L389.811 174.86H390.283L390.047 174.451L390.283 174.042H389.811L389.575 173.633L389.339 174.042H388.867L389.103 174.451L388.867 174.86Z" fill="#F7F5F0"/>
<path d="M378.833 192.238H379.306L379.542 192.647L379.778 192.238H380.25L380.014 191.829L380.25 191.421H379.778L379.542 191.012L379.306 191.421H378.833L379.069 191.829L378.833 192.238Z" fill="#F7F5F0"/>
<path d="M368.833 209.6H369.282L369.506 209.989L369.731 209.6H370.18L369.955 209.211L370.18 208.822H369.731L369.506 208.434L369.282 208.822H368.833L369.057 209.211L368.833 209.6Z" fill="#F7F5F0"/>
<path d="M358.974 226.877H359.306L359.472 227.165L359.638 226.877H359.971L359.805 226.589L359.971 226.301H359.638L359.472 226.014L359.306 226.301H358.974L359.14 226.589L358.974 226.877Z" fill="#F7F5F0"/>
<path d="M349.186 244.115H349.355L349.44 244.261L349.524 244.115H349.693L349.609 243.969L349.693 243.822H349.524L349.44 243.676L349.355 243.822H349.186L349.271 243.969L349.186 244.115Z" fill="#F7F5F0"/>
<path d="M379.183 53.0017H379.422L379.542 53.2088L379.661 53.0017H379.9L379.781 52.7947L379.9 52.5879H379.661L379.542 52.3809L379.422 52.5879H379.183L379.303 52.7947L379.183 53.0017Z" fill="#F7F5F0"/>
<path d="M388.867 70.5823H389.339L389.575 70.9912L389.811 70.5823H390.283L390.047 70.1734L390.283 69.7643H389.811L389.575 69.3555L389.339 69.7643H388.867L389.103 70.1734L388.867 70.5823Z" fill="#F7F5F0"/>
<path d="M398.9 87.963H399.372L399.608 88.372L399.844 87.963H400.316L400.08 87.5541L400.316 87.1452H399.844L399.608 86.7363L399.372 87.1452H398.9L399.136 87.5541L398.9 87.963Z" fill="#F7F5F0"/>
<path d="M409.144 105.221H409.476L409.642 105.509L409.809 105.221H410.141L409.974 104.933L410.141 104.645H409.809L409.642 104.357L409.476 104.645H409.144L409.31 104.933L409.144 105.221Z" fill="#F7F5F0"/>
<path d="M419.564 122.379H419.639L419.677 122.444L419.715 122.379H419.791L419.753 122.313L419.791 122.247H419.715L419.677 122.182L419.639 122.247H419.564L419.602 122.313L419.564 122.379Z" fill="#F7F5F0"/>
<path d="M409.635 70.1793H409.64L409.644 70.1843L409.647 70.1793H409.652L409.649 70.1743L409.652 70.1691H409.647L409.644 70.1641L409.64 70.1691H409.635L409.637 70.1743L409.635 70.1793Z" fill="#F7F5F0"/>
</svg>
