<svg width="439" height="331" viewBox="0 0 439 331" fill="none" xmlns="http://www.w3.org/2000/svg">
<path d="M319.197 144.326H313.846L311.17 148.96L308.494 144.326H303.143L305.818 139.691L303.143 135.056H308.494L311.17 130.422L313.846 135.056H319.197L316.521 139.691L319.197 144.326Z" fill="white"/>
<path d="M309.162 161.706H303.81L301.135 166.341L298.459 161.706H293.107L295.783 157.072L293.107 152.437H298.459L301.135 147.803L303.81 152.437H309.162L306.486 157.072L309.162 161.706Z" fill="white"/>
<path d="M329.23 161.706H323.879L321.203 166.341L318.527 161.706H313.176L315.852 157.072L313.176 152.437H318.527L321.203 147.803L323.879 152.437H329.23L326.555 157.072L329.23 161.706Z" fill="white"/>
<path d="M339.265 144.326H333.914L331.238 148.96L328.562 144.326H323.211L325.887 139.691L323.211 135.056H328.562L331.238 130.422L333.914 135.056H339.265L336.59 139.691L339.265 144.326Z" fill="white"/>
<path d="M329.23 126.947H323.879L321.203 131.581L318.527 126.947H313.176L315.852 122.312L313.176 117.678H318.527L321.203 113.043L323.879 117.678H329.23L326.555 122.312L329.23 126.947Z" fill="white"/>
<path d="M309.162 126.947H303.81L301.135 131.581L298.459 126.947H293.107L295.783 122.312L293.107 117.678H298.459L301.135 113.043L303.81 117.678H309.162L306.486 122.312L309.162 126.947Z" fill="white"/>
<path d="M299.129 144.328H293.777L291.101 148.962L288.426 144.328H283.074L285.75 139.693L283.074 135.058H288.426L291.101 130.424L293.777 135.058H299.129L296.453 139.693L299.129 144.328Z" fill="white"/>
<path d="M299.129 179.087H293.777L291.101 183.722L288.426 179.087H283.074L285.75 174.453L283.074 169.818H288.426L291.101 165.184L293.777 169.818H299.129L296.453 174.453L299.129 179.087Z" fill="white"/>
<path d="M319.197 179.087H313.846L311.17 183.722L308.494 179.087H303.143L305.818 174.453L303.143 169.818H308.494L311.17 165.184L313.846 169.818H319.197L316.521 174.453L319.197 179.087Z" fill="white"/>
<path d="M339.265 179.087H333.914L331.238 183.722L328.562 179.087H323.211L325.887 174.453L323.211 169.818H328.562L331.238 165.184L333.914 169.818H339.265L336.59 174.453L339.265 179.087Z" fill="white"/>
<path d="M349.299 161.706H343.947L341.271 166.341L338.596 161.706H333.244L335.92 157.072L333.244 152.437H338.596L341.271 147.803L343.947 152.437H349.299L346.623 157.072L349.299 161.706Z" fill="white"/>
<path d="M359.332 144.326H353.98L351.305 148.96L348.629 144.326H343.277L345.953 139.691L343.277 135.056H348.629L351.305 130.422L353.98 135.056H359.332L356.656 139.691L359.332 144.326Z" fill="white"/>
<path d="M349.299 126.947H343.947L341.271 131.581L338.596 126.947H333.244L335.92 122.312L333.244 117.678H338.596L341.271 113.043L343.947 117.678H349.299L346.623 122.312L349.299 126.947Z" fill="white"/>
<path d="M339.265 109.568H333.914L331.238 114.202L328.562 109.568H323.211L325.887 104.933L323.211 100.299H328.562L331.238 95.6641L333.914 100.299H339.265L336.59 104.933L339.265 109.568Z" fill="white"/>
<path d="M319.197 109.568H313.846L311.17 114.202L308.494 109.568H303.143L305.818 104.933L303.143 100.299H308.494L311.17 95.6641L313.846 100.299H319.197L316.521 104.933L319.197 109.568Z" fill="white"/>
<path d="M299.129 109.568H293.777L291.101 114.202L288.426 109.568H283.074L285.75 104.933L283.074 100.299H288.426L291.101 95.6641L293.777 100.299H299.129L296.453 104.933L299.129 109.568Z" fill="white"/>
<path d="M289.094 126.947H283.742L281.066 131.581L278.391 126.947H273.039L275.715 122.312L273.039 117.678H278.391L281.066 113.043L283.742 117.678H289.094L286.418 122.312L289.094 126.947Z" fill="white"/>
<path d="M279.06 144.328H273.709L271.033 148.962L268.357 144.328H263.006L265.682 139.693L263.006 135.058H268.357L271.033 130.424L273.709 135.058H279.06L276.385 139.693L279.06 144.328Z" fill="white"/>
<path d="M289.094 161.706H283.742L281.066 166.341L278.391 161.706H273.039L275.715 157.072L273.039 152.437H278.391L281.066 147.803L283.742 152.437H289.094L286.418 157.072L289.094 161.706Z" fill="white"/>
<path d="M288.525 196.138H283.553L281.066 200.444L278.58 196.138H273.607L276.094 191.832L273.607 187.525H278.58L281.066 183.219L283.553 187.525H288.525L286.039 191.832L288.525 196.138Z" fill="white"/>
<path d="M309.162 196.466H303.81L301.135 201.101L298.459 196.466H293.107L295.783 191.832L293.107 187.197H298.459L301.135 182.562L303.81 187.197H309.162L306.486 191.832L309.162 196.466Z" fill="white"/>
<path d="M329.23 196.466H323.879L321.203 201.101L318.527 196.466H313.176L315.852 191.832L313.176 187.197H318.527L321.203 182.562L323.879 187.197H329.23L326.555 191.832L329.23 196.466Z" fill="white"/>
<path d="M349.299 196.466H343.947L341.271 201.101L338.596 196.466H333.244L335.92 191.832L333.244 187.197H338.596L341.271 182.562L343.947 187.197H349.299L346.623 191.832L349.299 196.466Z" fill="white"/>
<path d="M359.332 179.087H353.98L351.305 183.722L348.629 179.087H343.277L345.953 174.453L343.277 169.818H348.629L351.305 165.184L353.98 169.818H359.332L356.656 174.453L359.332 179.087Z" fill="white"/>
<path d="M369.367 161.706H364.015L361.34 166.341L358.664 161.706H353.312L355.988 157.072L353.312 152.437H358.664L361.34 147.803L364.015 152.437H369.367L366.691 157.072L369.367 161.706Z" fill="white"/>
<path d="M379.4 144.326H374.049L371.373 148.96L368.697 144.326H363.346L366.021 139.691L363.346 135.056H368.697L371.373 130.422L374.049 135.056H379.4L376.725 139.691L379.4 144.326Z" fill="white"/>
<path d="M369.367 126.947H364.015L361.34 131.581L358.664 126.947H353.312L355.988 122.312L353.312 117.678H358.664L361.34 113.043L364.015 117.678H369.367L366.691 122.312L369.367 126.947Z" fill="white"/>
<path d="M359.332 109.568H353.98L351.305 114.202L348.629 109.568H343.277L345.953 104.933L343.277 100.299H348.629L351.305 95.6641L353.98 100.299H359.332L356.656 104.933L359.332 109.568Z" fill="white"/>
<path d="M348.241 91.5787H343.595L341.272 95.6023L338.949 91.5787H334.303L336.626 87.5551L334.303 83.5314H338.949L341.272 79.5078L343.595 83.5314H348.241L345.918 87.5551L348.241 91.5787Z" fill="white"/>
<path d="M328.138 91.5574H323.515L321.204 95.5609L318.892 91.5574H314.27L316.581 87.5539L314.27 83.5504H318.892L321.204 79.5469L323.515 83.5504H328.138L325.827 87.5539L328.138 91.5574Z" fill="white"/>
<path d="M308.139 91.5965H303.47L301.135 95.6403L298.8 91.5965H294.131L296.465 87.5526L294.131 83.5088H298.8L301.135 79.4648L303.47 83.5088H308.139L305.804 87.5526L308.139 91.5965Z" fill="white"/>
<path d="M287.058 91.0115H283.064L281.068 94.4697L279.071 91.0115H275.078L277.075 87.5532L275.078 84.0951H279.071L281.068 80.6367L283.064 84.0951H287.058L285.061 87.5532L287.058 91.0115Z" fill="white"/>
<path d="M278.772 109.4H273.613L271.033 113.868L268.454 109.4H263.295L265.875 104.932L263.295 100.464H268.454L271.033 95.9961L273.613 100.464H278.772L276.193 104.932L278.772 109.4Z" fill="white"/>
<path d="M269.027 126.947H263.676L261 131.581L258.324 126.947H252.973L255.648 122.312L252.973 117.678H258.324L261 113.043L263.676 117.678H269.027L266.351 122.312L269.027 126.947Z" fill="white"/>
<path d="M258.992 144.326H253.64L250.965 148.96L248.289 144.326H242.938L245.613 139.691L242.938 135.056H248.289L250.965 130.422L253.64 135.056H258.992L256.316 139.691L258.992 144.326Z" fill="white"/>
<path d="M269.027 161.706H263.676L261 166.341L258.324 161.706H252.973L255.648 157.072L252.973 152.437H258.324L261 147.803L263.676 152.437H269.027L266.351 157.072L269.027 161.706Z" fill="white"/>
<path d="M279.06 179.087H273.709L271.033 183.722L268.357 179.087H263.006L265.682 174.453L263.006 169.818H268.357L271.033 165.184L273.709 169.818H279.06L276.385 174.453L279.06 179.087Z" fill="white"/>
<path d="M277.058 212.689H273.041L271.033 216.168L269.025 212.689H265.008L267.016 209.211L265.008 205.732H269.025L271.033 202.254L273.041 205.732H277.058L275.049 209.211L277.058 212.689Z" fill="white"/>
<path d="M297.826 213.092H293.343L291.101 216.975L288.86 213.092H284.377L286.618 209.21L284.377 205.327H288.86L291.101 201.445L293.343 205.327H297.826L295.584 209.21L297.826 213.092Z" fill="white"/>
<path d="M318.733 213.577H313.69L311.169 217.944L308.648 213.577H303.605L306.127 209.21L303.605 204.844H308.648L311.169 200.477L313.69 204.844H318.733L316.212 209.21L318.733 213.577Z" fill="white"/>
<path d="M338.662 213.495H333.713L331.238 217.782L328.764 213.495H323.814L326.289 209.209L323.814 204.923H328.764L331.238 200.637L333.713 204.923H338.662L336.188 209.209L338.662 213.495Z" fill="white"/>
<path d="M358.555 213.396H353.722L351.306 217.581L348.889 213.396H344.057L346.473 209.21L344.057 205.025H348.889L351.306 200.84L353.722 205.025H358.555L356.138 209.21L358.555 213.396Z" fill="white"/>
<path d="M369.367 196.466H364.015L361.34 201.101L358.664 196.466H353.312L355.988 191.832L353.312 187.197H358.664L361.34 182.562L364.015 187.197H369.367L366.691 191.832L369.367 196.466Z" fill="white"/>
<path d="M379.4 179.087H374.049L371.373 183.722L368.697 179.087H363.346L366.021 174.453L363.346 169.818H368.697L371.373 165.184L374.049 169.818H379.4L376.725 174.453L379.4 179.087Z" fill="white"/>
<path d="M389.435 161.706H384.084L381.408 166.341L378.732 161.706H373.381L376.057 157.072L373.381 152.437H378.732L381.408 147.803L384.084 152.437H389.435L386.76 157.072L389.435 161.706Z" fill="white"/>
<path d="M399.469 144.326H394.117L391.441 148.96L388.766 144.326H383.414L386.09 139.691L383.414 135.056H388.766L391.441 130.422L394.117 135.056H399.469L396.793 139.691L399.469 144.326Z" fill="white"/>
<path d="M389.435 126.947H384.084L381.408 131.581L378.732 126.947H373.381L376.057 122.312L373.381 117.678H378.732L381.408 113.043L384.084 117.678H389.435L386.76 122.312L389.435 126.947Z" fill="white"/>
<path d="M379.4 109.568H374.049L371.373 114.202L368.697 109.568H363.346L366.021 104.933L363.346 100.299H368.697L371.373 95.6641L374.049 100.299H379.4L376.725 104.933L379.4 109.568Z" fill="white"/>
<path d="M369.288 92.1424H363.989L361.339 96.7315L358.69 92.1424H353.391L356.04 87.5533L353.391 82.9641H358.69L361.339 78.375L363.989 82.9641H369.288L366.638 87.5533L369.288 92.1424Z" fill="white"/>
<path d="M356.666 73.2686H353.092L351.306 76.3633L349.519 73.2686H345.945L347.732 70.174L345.945 67.0793H349.519L351.306 63.9844L353.092 67.0793H356.666L354.879 70.174L356.666 73.2686Z" fill="white"/>
<path d="M336.387 73.1472H332.953L331.236 76.1207L329.52 73.1472H326.086L327.803 70.1736L326.086 67.2001H329.52L331.236 64.2266L332.953 67.2001H336.387L334.67 70.1736L336.387 73.1472Z" fill="white"/>
<path d="M316.74 73.3899H313.026L311.17 76.6059L309.313 73.3899H305.6L307.456 70.1741L305.6 66.958H309.313L311.17 63.7422L313.026 66.958H316.74L314.883 70.1741L316.74 73.3899Z" fill="white"/>
<path d="M296.111 73.0672H292.77L291.1 75.9598L289.43 73.0672H286.09L287.76 70.1743L286.09 67.2815H289.43L291.1 64.3887L292.77 67.2815H296.111L294.441 70.1743L296.111 73.0672Z" fill="white"/>
<path d="M275.029 72.4802H272.365L271.033 74.7873L269.701 72.4802H267.037L268.369 70.173L267.037 67.8658H269.701L271.033 65.5586L272.365 67.8658H275.029L273.697 70.173L275.029 72.4802Z" fill="white"/>
<path d="M266.954 90.9918H262.985L261 94.4298L259.015 90.9918H255.045L257.03 87.5537L255.045 84.1157H259.015L261 80.6777L262.985 84.1157H266.954L264.97 87.5537L266.954 90.9918Z" fill="white"/>
<path d="M258.773 109.443H253.568L250.965 113.951L248.362 109.443H243.156L245.759 104.935L243.156 100.426H248.362L250.965 95.918L253.568 100.426H258.773L256.171 104.935L258.773 109.443Z" fill="white"/>
<path d="M248.959 126.947H243.607L240.931 131.581L238.256 126.947H232.904L235.58 122.312L232.904 117.678H238.256L240.931 113.043L243.607 117.678H248.959L246.283 122.312L248.959 126.947Z" fill="white"/>
<path d="M238.924 144.326H233.572L230.896 148.96L228.221 144.326H222.869L225.545 139.691L222.869 135.056H228.221L230.896 130.422L233.572 135.056H238.924L236.248 139.691L238.924 144.326Z" fill="white"/>
<path d="M248.959 161.706H243.607L240.931 166.341L238.256 161.706H232.904L235.58 157.072L232.904 152.437H238.256L240.931 147.803L243.607 152.437H248.959L246.283 157.072L248.959 161.706Z" fill="white"/>
<path d="M258.992 179.087H253.64L250.965 183.722L248.289 179.087H242.938L245.613 174.453L242.938 169.818H248.289L250.965 165.184L253.64 169.818H258.992L256.316 174.453L258.992 179.087Z" fill="white"/>
<path d="M268.387 196.097H263.461L260.998 200.363L258.535 196.097H253.609L256.072 191.831L253.609 187.565H258.535L260.998 183.299L263.461 187.565H268.387L265.924 191.831L268.387 196.097Z" fill="white"/>
<path d="M265.555 229.219H262.518L260.999 231.849L259.481 229.219H256.443L257.962 226.589L256.443 223.958H259.481L260.999 221.328L262.518 223.958H265.555L264.036 226.589L265.555 229.219Z" fill="white"/>
<path d="M286.288 229.604H282.808L281.068 232.618L279.328 229.604H275.848L277.588 226.59L275.848 223.576H279.328L281.068 220.562L282.808 223.576H286.288L284.548 226.59L286.288 229.604Z" fill="white"/>
<path d="M307.23 230.107H303.167L301.136 233.626L299.104 230.107H295.041L297.073 226.588L295.041 223.069H299.104L301.136 219.551L303.167 223.069H307.23L305.199 226.588L307.23 230.107Z" fill="white"/>
<path d="M327.684 230.33H323.364L321.204 234.071L319.044 230.33H314.725L316.884 226.589L314.725 222.848H319.044L321.204 219.107L323.364 222.848H327.684L325.524 226.589L327.684 230.33Z" fill="white"/>
<path d="M347.507 230.189H343.35L341.272 233.789L339.194 230.189H335.037L337.115 226.59L335.037 222.99H339.194L341.272 219.391L343.35 222.99H347.507L345.428 226.59L347.507 230.189Z" fill="white"/>
<path d="M367.434 230.107H363.37L361.339 233.626L359.307 230.107H355.244L357.276 226.588L355.244 223.069H359.307L361.339 219.551L363.37 223.069H367.434L365.402 226.588L367.434 230.107Z" fill="white"/>
<path d="M378.308 213.213H373.685L371.374 217.217L369.062 213.213H364.439L366.751 209.21L364.439 205.206H369.062L371.374 201.203L373.685 205.206H378.308L375.996 209.21L378.308 213.213Z" fill="white"/>
<path d="M388.902 196.157H383.906L381.408 200.484L378.91 196.157H373.914L376.412 191.831L373.914 187.504H378.91L381.408 183.178L383.906 187.504H388.902L386.404 191.831L388.902 196.157Z" fill="white"/>
<path d="M399.469 179.087H394.117L391.441 183.722L388.766 179.087H383.414L386.09 174.453L383.414 169.818H388.766L391.441 165.184L394.117 169.818H399.469L396.793 174.453L399.469 179.087Z" fill="white"/>
<path d="M409.504 161.706H404.152L401.477 166.341L398.801 161.706H393.449L396.125 157.072L393.449 152.437H398.801L401.477 147.803L404.152 152.437H409.504L406.828 157.072L409.504 161.706Z" fill="white"/>
<path d="M419.46 144.281H414.161L411.511 148.87L408.862 144.281H403.562L406.212 139.692L403.562 135.103H408.862L411.511 130.514L414.161 135.103H419.46L416.81 139.692L419.46 144.281Z" fill="white"/>
<path d="M409.504 126.947H404.152L401.477 131.581L398.801 126.947H393.449L396.125 122.312L393.449 117.678H398.801L401.477 113.043L404.152 117.678H409.504L406.828 122.312L409.504 126.947Z" fill="white"/>
<path d="M399.469 109.568H394.117L391.441 114.202L388.766 109.568H383.414L386.09 104.933L383.414 100.299H388.766L391.441 95.6641L394.117 100.299H399.469L396.793 104.933L399.469 109.568Z" fill="white"/>
<path d="M389.435 92.1888H384.084L381.408 96.8234L378.732 92.1888H373.381L376.057 87.5543L373.381 82.9197H378.732L381.408 78.2852L384.084 82.9197H389.435L386.76 87.5543L389.435 92.1888Z" fill="white"/>
<path d="M377.608 73.7734H373.452L371.373 77.373L369.295 73.7734H365.139L367.217 70.1738L365.139 66.5742H369.295L371.373 62.9746L373.452 66.5742H377.608L375.53 70.1738L377.608 73.7734Z" fill="white"/>
<path d="M365.021 54.9192H362.567L361.34 57.0447L360.112 54.9192H357.658L358.885 52.7937L357.658 50.6685H360.112L361.34 48.543L362.567 50.6685H365.021L363.794 52.7937L365.021 54.9192Z" fill="white"/>
<path d="M344.672 54.7589H342.405L341.271 56.7226L340.137 54.7589H337.869L339.003 52.7948L337.869 50.8311H340.137L341.271 48.8672L342.405 50.8311H344.672L343.538 52.7948L344.672 54.7589Z" fill="white"/>
<path d="M324.99 54.9799H322.466L321.204 57.1659L319.942 54.9799H317.418L318.68 52.7938L317.418 50.6079H319.942L321.204 48.4219L322.466 50.6079H324.99L323.728 52.7938L324.99 54.9799Z" fill="white"/>
<path d="M305.096 55.0816H302.455L301.135 57.3685L299.815 55.0816H297.174L298.494 52.7945L297.174 50.5076H299.815L301.135 48.2207L302.455 50.5076H305.096L303.776 52.7945L305.096 55.0816Z" fill="white"/>
<path d="M284.05 54.5161H282.062L281.068 56.2377L280.074 54.5161H278.086L279.08 52.7946L278.086 51.0732H280.074L281.068 49.3516L282.062 51.0732H284.05L283.056 52.7946L284.05 54.5161Z" fill="white"/>
<path d="M263.036 53.9703H261.677L260.998 55.1465L260.319 53.9703H258.961L259.64 52.7938L258.961 51.6176H260.319L260.998 50.4414L261.677 51.6176H263.036L262.357 52.7938L263.036 53.9703Z" fill="white"/>
<path d="M255.206 72.623H252.379L250.965 75.0715L249.552 72.623H246.725L248.138 70.1745L246.725 67.726H249.552L250.965 65.2773L252.379 67.726H255.206L253.793 70.1745L255.206 72.623Z" fill="white"/>
<path d="M246.326 90.6691H242.729L240.93 93.7839L239.132 90.6691H235.535L237.333 87.554L235.535 84.4392H239.132L240.93 81.3242L242.729 84.4392H246.326L244.527 87.554L246.326 90.6691Z" fill="white"/>
<path d="M238.846 109.521H233.547L230.898 114.11L228.248 109.521H222.949L225.599 104.932L222.949 100.343H228.248L230.898 95.7539L233.547 100.343H238.846L236.197 104.932L238.846 109.521Z" fill="white"/>
<path d="M228.89 126.947H223.539L220.863 131.581L218.187 126.947H212.836L215.512 122.312L212.836 117.678H218.187L220.863 113.043L223.539 117.678H228.89L226.215 122.312L228.89 126.947Z" fill="white"/>
<path d="M218.855 144.326H213.504L210.828 148.96L208.152 144.326H202.801L205.477 139.691L202.801 135.056H208.152L210.828 130.422L213.504 135.056H218.855L216.18 139.691L218.855 144.326Z" fill="white"/>
<path d="M228.89 161.706H223.539L220.863 166.341L218.187 161.706H212.836L215.512 157.072L212.836 152.437H218.187L220.863 147.803L223.539 152.437H228.89L226.215 157.072L228.89 161.706Z" fill="white"/>
<path d="M238.916 179.08H233.57L230.897 183.709L228.225 179.08H222.879L225.552 174.45L222.879 169.821H228.225L230.897 165.191L233.57 169.821H238.916L236.243 174.45L238.916 179.08Z" fill="white"/>
<path d="M248.286 196.077H243.383L240.932 200.323L238.481 196.077H233.578L236.029 191.831L233.578 187.586H238.481L240.932 183.34L243.383 187.586H248.286L245.835 191.831L248.286 196.077Z" fill="white"/>
<path d="M256.85 212.607H252.927L250.965 216.005L249.003 212.607H245.08L247.042 209.209L245.08 205.812H249.003L250.965 202.414L252.927 205.812H256.85L254.888 209.209L256.85 212.607Z" fill="white"/>
<path d="M254.017 245.731H251.983L250.966 247.493L249.948 245.731H247.914L248.931 243.969L247.914 242.207H249.948L250.966 240.445L251.983 242.207H254.017L253 243.969L254.017 245.731Z" fill="white"/>
<path d="M274.679 246.074H272.249L271.033 248.179L269.818 246.074H267.387L268.602 243.968L267.387 241.863H269.818L271.033 239.758L272.249 241.863H274.679L273.464 243.968L274.679 246.074Z" fill="white"/>
<path d="M295.656 246.6H292.619L291.101 249.23L289.582 246.6H286.545L288.063 243.97L286.545 241.339H289.582L291.101 238.709L292.619 241.339H295.656L294.138 243.97L295.656 246.6Z" fill="white"/>
<path d="M316.529 247.064H312.956L311.169 250.158L309.382 247.064H305.809L307.595 243.969L305.809 240.874H309.382L311.169 237.779L312.956 240.874H316.529L314.742 243.969L316.529 247.064Z" fill="white"/>
<path d="M336.528 247.022H333.001L331.238 250.077L329.474 247.022H325.947L327.711 243.968L325.947 240.914H329.474L331.238 237.859L333.001 240.914H336.528L334.764 243.968L336.528 247.022Z" fill="white"/>
<path d="M356.351 246.884H352.987L351.305 249.797L349.624 246.884H346.26L347.942 243.971L346.26 241.058H349.624L351.305 238.145L352.987 241.058H356.351L354.669 243.971L356.351 246.884Z" fill="white"/>
<path d="M376.245 246.782H372.998L371.375 249.594L369.751 246.782H366.504L368.127 243.97L366.504 241.158H369.751L371.375 238.346L372.998 241.158H376.245L374.621 243.97L376.245 246.782Z" fill="white"/>
<path d="M387.187 229.927H383.334L381.407 233.264L379.48 229.927H375.627L377.554 226.59L375.627 223.253H379.48L381.407 219.916L383.334 223.253H387.187L385.26 226.59L387.187 229.927Z" fill="white"/>
<path d="M397.85 212.91H393.577L391.441 216.611L389.304 212.91H385.031L387.168 209.21L385.031 205.509H389.304L391.441 201.809L393.577 205.509H397.85L395.714 209.21L397.85 212.91Z" fill="white"/>
<path d="M408.551 195.915H403.834L401.476 199.999L399.118 195.915H394.402L396.76 191.831L394.402 187.746H399.118L401.476 183.662L403.834 187.746H408.551L406.193 191.831L408.551 195.915Z" fill="white"/>
<path d="M419.319 178.959H414.113L411.51 183.467L408.907 178.959H403.701L406.304 174.45L403.701 169.942H408.907L411.51 165.434L414.113 169.942H419.319L416.716 174.45L419.319 178.959Z" fill="white"/>
<path d="M429.178 161.48H424.089L421.544 165.887L418.999 161.48H413.91L416.455 157.072L413.91 152.665H418.999L421.544 148.258L424.089 152.665H429.178L426.633 157.072L429.178 161.48Z" fill="white"/>
<path d="M438.757 143.837H433.971L431.578 147.981L429.184 143.837H424.398L426.792 139.692L424.398 135.547H429.184L431.578 131.402L433.971 135.547H438.757L436.364 139.692L438.757 143.837Z" fill="white"/>
<path d="M429.143 126.7H424.077L421.544 131.088L419.011 126.7H413.945L416.478 122.313L413.945 117.926H419.011L421.544 113.539L424.077 117.926H429.143L426.61 122.313L429.143 126.7Z" fill="white"/>
<path d="M419.537 109.568H414.185L411.51 114.202L408.834 109.568H403.482L406.158 104.933L403.482 100.299H408.834L411.51 95.6641L414.185 100.299H419.537L416.861 104.933L419.537 109.568Z" fill="white"/>
<path d="M409.504 92.1888H404.152L401.477 96.8234L398.801 92.1888H393.449L396.125 87.5543L393.449 82.9197H398.801L401.477 78.2852L404.152 82.9197H409.504L406.828 87.5543L409.504 92.1888Z" fill="white"/>
<path d="M398.726 74.3799H393.87L391.442 78.5853L389.014 74.3799H384.158L386.586 70.1746L384.158 65.9692H389.014L391.442 61.7637L393.87 65.9692H398.726L396.298 70.1746L398.726 74.3799Z" fill="white"/>
<path d="M386.033 55.4651H382.949L381.407 58.1358L379.865 55.4651H376.781L378.323 52.7942L376.781 50.1238H379.865L381.407 47.4531L382.949 50.1238H386.033L384.491 52.7942L386.033 55.4651Z" fill="white"/>
<path d="M373.446 36.6129H372.064L371.373 37.8094L370.682 36.6129H369.301L369.991 35.4163L369.301 34.22H370.682L371.373 33.0234L372.064 34.22H373.446L372.755 35.4163L373.446 36.6129Z" fill="white"/>
<path d="M353.027 36.4093H351.879L351.305 37.404L350.73 36.4093H349.582L350.156 35.4148L349.582 34.4203H350.73L351.305 33.4258L351.879 34.4203H353.027L352.453 35.4148L353.027 36.4093Z" fill="white"/>
<path d="M333.239 36.5718H331.904L331.237 37.7279L330.569 36.5718H329.234L329.902 35.4157L329.234 34.2596H330.569L331.237 33.1035L331.904 34.2596H333.239L332.572 35.4157L333.239 36.5718Z" fill="white"/>
<path d="M313.592 36.8126H311.978L311.17 38.211L310.363 36.8126H308.748L309.555 35.414L308.748 34.0156H310.363L311.17 32.6172L311.978 34.0156H313.592L312.785 35.414L313.592 36.8126Z" fill="white"/>
<path d="M293.244 36.6522H291.816L291.101 37.889L290.387 36.6522H288.959L289.673 35.4152L288.959 34.1784H290.387L291.101 32.9414L291.816 34.1784H293.244L292.53 35.4152L293.244 36.6522Z" fill="white"/>
<path d="M271.986 35.9653H271.351L271.033 36.5155L270.715 35.9653H270.08L270.398 35.415L270.08 34.8648H270.715L271.033 34.3145L271.351 34.8648H271.986L271.668 35.415L271.986 35.9653Z" fill="white"/>
<path d="M251.044 35.4605H250.992L250.965 35.5059L250.939 35.4605H250.887L250.913 35.4151L250.887 35.3696H250.939L250.965 35.3242L250.992 35.3696H251.044L251.018 35.4151L251.044 35.4605Z" fill="white"/>
<path d="M243.318 54.1737H241.726L240.93 55.5519L240.134 54.1737H238.543L239.339 52.7954L238.543 51.4173H240.134L240.93 50.0391L241.726 51.4173H243.318L242.522 52.7954L243.318 54.1737Z" fill="white"/>
<path d="M234.369 72.1786H232.055L230.897 74.183L229.74 72.1786H227.426L228.583 70.1745L227.426 68.1702H229.74L230.897 66.166L232.055 68.1702H234.369L233.212 70.1745L234.369 72.1786Z" fill="white"/>
<path d="M226.503 90.8099H222.743L220.863 94.0662L218.983 90.8099H215.223L217.103 87.5536L215.223 84.2973H218.983L220.863 81.041L222.743 84.2973H226.503L224.623 87.5536L226.503 90.8099Z" fill="white"/>
<path d="M218.359 109.279H213.339L210.83 113.625L208.32 109.279H203.301L205.81 104.932L203.301 100.585H208.32L210.83 96.2383L213.339 100.585H218.359L215.849 104.932L218.359 109.279Z" fill="white"/>
<path d="M208.465 126.74H203.352L200.796 131.167L198.239 126.74H193.127L195.683 122.312L193.127 117.884H198.239L200.796 113.457L203.352 117.884H208.465L205.908 122.312L208.465 126.74Z" fill="white"/>
<path d="M198.114 143.937H193.212L190.76 148.182L188.309 143.937H183.406L185.858 139.691L183.406 135.445H188.309L190.76 131.199L193.212 135.445H198.114L195.663 139.691L198.114 143.937Z" fill="white"/>
<path d="M208.219 161.359H203.27L200.795 165.645L198.32 161.359H193.371L195.846 157.072L193.371 152.786H198.32L200.795 148.5L203.27 152.786H208.219L205.744 157.072L208.219 161.359Z" fill="white"/>
<path d="M218.183 178.698H213.28L210.829 182.944L208.377 178.698H203.475L205.926 174.453L203.475 170.207H208.377L210.829 165.961L213.28 170.207H218.183L215.731 174.453L218.183 178.698Z" fill="white"/>
<path d="M227.868 195.874H223.198L220.863 199.918L218.529 195.874H213.859L216.194 191.83L213.859 187.786H218.529L220.863 183.742L223.198 187.786H227.868L225.533 191.83L227.868 195.874Z" fill="white"/>
<path d="M236.851 212.648H232.881L230.896 216.086L228.911 212.648H224.941L226.926 209.21L224.941 205.772H228.911L230.896 202.334L232.881 205.772H236.851L234.866 209.21L236.851 212.648Z" fill="white"/>
<path d="M245.312 229.119H242.392L240.932 231.649L239.471 229.119H236.551L238.011 226.59L236.551 224.061H239.471L240.932 221.531L242.392 224.061H245.312L243.852 226.59L245.312 229.119Z" fill="white"/>
<path d="M242.513 262.263H241.458L240.93 263.177L240.403 262.263H239.348L239.875 261.349L239.348 260.435H240.403L240.93 259.521L241.458 260.435H242.513L241.985 261.349L242.513 262.263Z" fill="white"/>
<path d="M263.177 262.605H261.726L261 263.862L260.274 262.605H258.822L259.548 261.348L258.822 260.091H260.274L261 258.834L261.726 260.091H263.177L262.451 261.348L263.177 262.605Z" fill="white"/>
<path d="M284.119 263.11H282.084L281.067 264.872L280.05 263.11H278.016L279.033 261.348L278.016 259.586H280.05L281.067 257.824L282.084 259.586H284.119L283.102 261.348L284.119 263.11Z" fill="white"/>
<path d="M305.061 263.617H302.444L301.135 265.883L299.827 263.617H297.209L298.518 261.35L297.209 259.083H299.827L301.135 256.816L302.444 259.083H305.061L303.753 261.35L305.061 263.617Z" fill="white"/>
<path d="M325.549 263.859H322.652L321.203 266.368L319.755 263.859H316.857L318.306 261.35L316.857 258.841H319.755L321.203 256.332L322.652 258.841H325.549L324.101 261.35L325.549 263.859Z" fill="white"/>
<path d="M345.372 263.717H342.638L341.271 266.084L339.904 263.717H337.17L338.537 261.349L337.17 258.981H339.904L341.271 256.613L342.638 258.981H345.372L344.005 261.349L345.372 263.717Z" fill="white"/>
<path d="M365.232 263.595H362.638L361.34 265.842L360.043 263.595H357.449L358.746 261.349L357.449 259.102H360.043L361.34 256.855L362.638 259.102H365.232L363.935 261.349L365.232 263.595Z" fill="white"/>
<path d="M385.124 263.494H382.647L381.408 265.639L380.169 263.494H377.691L378.93 261.348L377.691 259.202H380.169L381.408 257.057L382.647 259.202H385.124L383.885 261.348L385.124 263.494Z" fill="white"/>
<path d="M396.033 246.619H392.973L391.442 249.27L389.912 246.619H386.852L388.382 243.969L386.852 241.319H389.912L391.442 238.668L392.973 241.319H396.033L394.503 243.969L396.033 246.619Z" fill="white"/>
<path d="M406.801 229.665H403.251L401.476 232.739L399.701 229.665H396.15L397.925 226.59L396.15 223.516H399.701L401.476 220.441L403.251 223.516H406.801L405.026 226.59L406.801 229.665Z" fill="white"/>
<path d="M417.43 212.628H413.483L411.51 216.046L409.536 212.628H405.59L407.563 209.211L405.59 205.793H409.536L411.51 202.375L413.483 205.793H417.43L415.456 209.211L417.43 212.628Z" fill="white"/>
<path d="M428.234 195.692H423.775L421.545 199.554L419.315 195.692H414.855L417.085 191.83L414.855 187.968H419.315L421.545 184.105L423.775 187.968H428.234L426.004 191.83L428.234 195.692Z" fill="white"/>
<path d="M438.791 178.616H433.982L431.577 182.781L429.173 178.616H424.363L426.768 174.451L424.363 170.286H429.173L431.577 166.121L433.982 170.286H438.791L436.387 174.451L438.791 178.616Z" fill="white"/>
<path d="M429.247 92.0014H424.111L421.544 96.4492L418.976 92.0014H413.84L416.408 87.5537L413.84 83.1061H418.976L421.544 78.6582L424.111 83.1061H429.247L426.679 87.5537L429.247 92.0014Z" fill="white"/>
<path d="M419.073 74.5423H414.03L411.509 78.9092L408.988 74.5423H403.945L406.467 70.1753L403.945 65.8084H408.988L411.509 61.4414L414.03 65.8084H419.073L416.552 70.1753L419.073 74.5423Z" fill="white"/>
<path d="M407.186 56.0912H403.379L401.476 59.3879L399.572 56.0912H395.766L397.669 52.7944L395.766 49.4979H399.572L401.476 46.2012L403.379 49.4979H407.186L405.282 52.7944L407.186 56.0912Z" fill="white"/>
<path d="M394.39 37.1159H392.425L391.443 38.8172L390.461 37.1159H388.496L389.478 35.4145L388.496 33.7132H390.461L391.443 32.0117L392.425 33.7132H394.39L393.408 35.4145L394.39 37.1159Z" fill="white"/>
<path d="M381.801 18.2635H381.538L381.407 18.4906L381.276 18.2635H381.014L381.145 18.0363L381.014 17.8092H381.276L381.407 17.582L381.538 17.8092H381.801L381.67 18.0363L381.801 18.2635Z" fill="white"/>
<path d="M341.42 18.1227H341.321L341.272 18.2086L341.222 18.1227H341.123L341.173 18.0368L341.123 17.9509H341.222L341.272 17.8652L341.321 17.9509H341.42L341.371 18.0368L341.42 18.1227Z" fill="white"/>
<path d="M321.806 18.3848H321.404L321.203 18.7331L321.002 18.3848H320.6L320.801 18.0364L320.6 17.6881H321.002L321.203 17.3398L321.404 17.6881H321.806L321.605 18.0364L321.806 18.3848Z" fill="white"/>
<path d="M301.949 18.5062H301.407L301.136 18.9759L300.865 18.5062H300.322L300.593 18.0368L300.322 17.5673H300.865L301.136 17.0977L301.407 17.5673H301.949L301.678 18.0368L301.949 18.5062Z" fill="white"/>
<path d="M281.215 18.1207H281.116L281.067 18.2066L281.017 18.1207H280.918L280.968 18.0348L280.918 17.949H281.017L281.067 17.8633L281.116 17.949H281.215L281.166 18.0348L281.215 18.1207Z" fill="white"/>
<path d="M231.43 35.7228H231.075L230.897 36.0306L230.719 35.7228H230.363L230.541 35.4147L230.363 35.1069H230.719L230.897 34.7988L231.075 35.1069H231.43L231.252 35.4147L231.43 35.7228Z" fill="white"/>
<path d="M222.586 53.7884H221.437L220.863 54.7829L220.289 53.7884H219.141L219.715 52.7937L219.141 51.7992H220.289L220.863 50.8047L221.437 51.7992H222.586L222.012 52.7937L222.586 53.7884Z" fill="white"/>
<path d="M214.055 72.0378H211.904L210.828 73.9007L209.753 72.0378H207.602L208.677 70.175L207.602 68.3121H209.753L210.828 66.4492L211.904 68.3121H214.055L212.979 70.175L214.055 72.0378Z" fill="white"/>
<path d="M206.785 91.0115H202.791L200.794 94.4697L198.798 91.0115H194.805L196.801 87.5532L194.805 84.0951H198.798L200.794 80.6367L202.791 84.0951H206.785L204.788 87.5532L206.785 91.0115Z" fill="white"/>
<path d="M197.764 108.977H193.095L190.76 113.021L188.425 108.977H183.756L186.091 104.933L183.756 100.889H188.425L190.76 96.8457L193.095 100.889H197.764L195.429 104.933L197.764 108.977Z" fill="white"/>
<path d="M187.731 126.358H183.061L180.727 130.402L178.392 126.358H173.723L176.057 122.314L173.723 118.27H178.392L180.727 114.227L183.061 118.27H187.731L185.396 122.314L187.731 126.358Z" fill="white"/>
<path d="M177.207 143.453H172.864L170.692 147.214L168.521 143.453H164.178L166.349 139.692L164.178 135.931H168.521L170.692 132.17L172.864 135.931H177.207L175.035 139.692L177.207 143.453Z" fill="white"/>
<path d="M187.416 160.934H182.956L180.727 164.796L178.497 160.934H174.037L176.267 157.072L174.037 153.21H178.497L180.727 149.348L182.956 153.21H187.416L185.186 157.072L187.416 160.934Z" fill="white"/>
<path d="M197.414 178.294H192.978L190.76 182.135L188.542 178.294H184.105L186.324 174.452L184.105 170.61H188.542L190.76 166.768L192.978 170.61H197.414L195.196 174.452L197.414 178.294Z" fill="white"/>
<path d="M207.204 195.531H202.931L200.794 199.232L198.658 195.531H194.385L196.521 191.831L194.385 188.13H198.658L200.794 184.43L202.931 188.13H207.204L205.067 191.831L207.204 195.531Z" fill="white"/>
<path d="M216.644 212.568H212.767L210.829 215.925L208.89 212.568H205.014L206.952 209.211L205.014 205.853H208.89L210.829 202.496L212.767 205.853H216.644L214.705 209.211L216.644 212.568Z" fill="white"/>
<path d="M225.349 229.18H222.358L220.863 231.77L219.368 229.18H216.377L217.872 226.59L216.377 224H219.368L220.863 221.41L222.358 224H225.349L223.853 226.59L225.349 229.18Z" fill="white"/>
<path d="M233.704 245.59H231.832L230.897 247.211L229.961 245.59H228.09L229.025 243.97L228.09 242.349H229.961L230.897 240.729L231.832 242.349H233.704L232.768 243.97L233.704 245.59Z" fill="white"/>
<path d="M230.976 278.773H230.923L230.897 278.818L230.871 278.773H230.818L230.845 278.728L230.818 278.682H230.871L230.897 278.637L230.923 278.682H230.976L230.95 278.728L230.976 278.773Z" fill="white"/>
<path d="M251.638 279.117H251.189L250.964 279.506L250.74 279.117H250.291L250.515 278.728L250.291 278.34H250.74L250.964 277.951L251.189 278.34H251.638L251.413 278.728L251.638 279.117Z" fill="white"/>
<path d="M272.582 279.622H271.55L271.034 280.516L270.518 279.622H269.486L270.002 278.729L269.486 277.835H270.518L271.034 276.941L271.55 277.835H272.582L272.066 278.729L272.582 279.622Z" fill="white"/>
<path d="M293.524 280.127H291.909L291.102 281.525L290.294 280.127H288.68L289.487 278.728L288.68 277.33H290.294L291.102 275.932L291.909 277.33H293.524L292.717 278.728L293.524 280.127Z" fill="white"/>
<path d="M314.362 280.571H312.234L311.17 282.414L310.106 280.571H307.979L309.042 278.728L307.979 276.886H310.106L311.17 275.043L312.234 276.886H314.362L313.298 278.728L314.362 280.571Z" fill="white"/>
<path d="M334.428 280.571H332.3L331.237 282.414L330.173 280.571H328.045L329.109 278.728L328.045 276.886H330.173L331.237 275.043L332.3 276.886H334.428L333.364 278.728L334.428 280.571Z" fill="white"/>
<path d="M354.218 280.411H352.277L351.306 282.092L350.336 280.411H348.395L349.365 278.729L348.395 277.048H350.336L351.306 275.367L352.277 277.048H354.218L353.248 278.729L354.218 280.411Z" fill="white"/>
<path d="M374.111 280.309H372.286L371.374 281.889L370.461 280.309H368.637L369.549 278.729L368.637 277.148H370.461L371.374 275.568L372.286 277.148H374.111L373.198 278.729L374.111 280.309Z" fill="white"/>
<path d="M394.003 280.207H392.295L391.441 281.687L390.587 280.207H388.879L389.733 278.728L388.879 277.249H390.587L391.441 275.77L392.295 277.249H394.003L393.149 278.728L394.003 280.207Z" fill="white"/>
<path d="M404.947 263.353H402.632L401.475 265.357L400.318 263.353H398.004L399.161 261.348L398.004 259.344H400.318L401.475 257.34L402.632 259.344H404.947L403.79 261.348L404.947 263.353Z" fill="white"/>
<path d="M415.682 246.377H412.901L411.511 248.785L410.12 246.377H407.34L408.73 243.969L407.34 241.56H410.12L411.511 239.152L412.901 241.56H415.682L414.291 243.969L415.682 246.377Z" fill="white"/>
<path d="M426.311 229.34H423.133L421.545 232.092L419.956 229.34H416.779L418.368 226.589L416.779 223.837H419.956L421.545 221.086L423.133 223.837H426.311L424.722 226.589L426.311 229.34Z" fill="white"/>
<path d="M437.044 212.364H433.4L431.578 215.52L429.757 212.364H426.113L427.935 209.209L426.113 206.054H429.757L431.578 202.898L433.4 206.054H437.044L435.222 209.209L437.044 212.364Z" fill="white"/>
<path d="M438.791 74.3389H433.982L431.577 78.5038L429.173 74.3389H424.363L426.768 70.1738L424.363 66.0086H429.173L431.577 61.8438L433.982 66.0086H438.791L436.387 70.1738L438.791 74.3389Z" fill="white"/>
<path d="M427.989 56.5156H423.692L421.544 60.2365L419.396 56.5156H415.1L417.248 52.7948L415.1 49.0743H419.396L421.544 45.3535L423.692 49.0743H427.989L425.84 52.7948L427.989 56.5156Z" fill="white"/>
<path d="M415.541 37.7437H412.853L411.51 40.0711L410.166 37.7437H407.479L408.822 35.4164L407.479 33.0891H410.166L411.51 30.7617L412.853 33.0891H415.541L414.197 35.4164L415.541 37.7437Z" fill="white"/>
<path d="M402.673 18.7272H401.875L401.475 19.4188L401.076 18.7272H400.277L400.677 18.0356L400.277 17.344H401.076L401.475 16.6523L401.875 17.344H402.673L402.274 18.0356L402.673 18.7272Z" fill="white"/>
<path d="M210.838 35.4215H210.832L210.829 35.4265L210.826 35.4215H210.82L210.823 35.4163L210.82 35.4113H210.826L210.829 35.4062L210.832 35.4113H210.838L210.835 35.4163L210.838 35.4215Z" fill="white"/>
<path d="M201.922 53.4459H201.17L200.794 54.0971L200.418 53.4459H199.666L200.042 52.7945L199.666 52.1434H200.418L200.794 51.4922L201.17 52.1434H201.922L201.546 52.7945L201.922 53.4459Z" fill="white"/>
<path d="M194.336 72.2395H191.952L190.76 74.3042L189.568 72.2395H187.184L188.376 70.1746L187.184 68.1096H189.568L190.76 66.0449L191.952 68.1096H194.336L193.144 70.1746L194.336 72.2395Z" fill="white"/>
<path d="M186.472 90.8705H182.642L180.727 94.1874L178.812 90.8705H174.982L176.897 87.5536L174.982 84.2368H178.812L180.727 80.9199L182.642 84.2368H186.472L184.557 87.5536L186.472 90.8705Z" fill="white"/>
<path d="M176.961 108.553H172.781L170.692 112.172L168.602 108.553H164.422L166.512 104.933L164.422 101.313H168.602L170.692 97.6934L172.781 101.313H176.961L174.871 104.933L176.961 108.553Z" fill="white"/>
<path d="M166.858 125.892H162.725L160.659 129.472L158.592 125.892H154.459L156.526 122.313L154.459 118.734H158.592L160.659 115.154L162.725 118.734H166.858L164.792 122.313L166.858 125.892Z" fill="white"/>
<path d="M156.438 143.048H152.562L150.624 146.405L148.685 143.048H144.809L146.747 139.691L144.809 136.334H148.685L150.624 132.977L152.562 136.334H156.438L154.5 139.691L156.438 143.048Z" fill="white"/>
<path d="M166.578 160.49H162.631L160.658 163.908L158.685 160.49H154.738L156.712 157.072L154.738 153.654H158.685L160.658 150.236L162.631 153.654H166.578L164.605 157.072L166.578 160.49Z" fill="white"/>
<path d="M176.578 177.849H172.655L170.693 181.247L168.732 177.849H164.809L166.77 174.452L164.809 171.054H168.732L170.693 167.656L172.655 171.054H176.578L174.617 174.452L176.578 177.849Z" fill="white"/>
<path d="M186.472 195.148H182.642L180.727 198.465L178.812 195.148H174.982L176.897 191.831L174.982 188.514H178.812L180.727 185.197L182.642 188.514H186.472L184.557 191.831L186.472 195.148Z" fill="white"/>
<path d="M196.121 212.306H192.547L190.761 215.4L188.974 212.306H185.4L187.187 209.211L185.4 206.116H188.974L190.761 203.021L192.547 206.116H196.121L194.334 209.211L196.121 212.306Z" fill="white"/>
<path d="M205.245 229.16H202.278L200.795 231.73L199.311 229.16H196.344L197.827 226.59L196.344 224.021H199.311L200.795 221.451L202.278 224.021H205.245L203.762 226.59L205.245 229.16Z" fill="white"/>
<path d="M213.707 245.632H211.789L210.83 247.292L209.871 245.632H207.953L208.912 243.97L207.953 242.309H209.871L210.83 240.648L211.789 242.309H213.707L212.748 243.97L213.707 245.632Z" fill="white"/>
<path d="M222.201 262.122H221.309L220.863 262.894L220.417 262.122H219.525L219.971 261.35L219.525 260.577H220.417L220.863 259.805L221.309 260.577H222.201L221.755 261.35L222.201 262.122Z" fill="white"/>
<path d="M261.008 296.113H261.002L260.999 296.118L260.996 296.113H260.99L260.993 296.108L260.99 296.103H260.996L260.999 296.098L261.002 296.103H261.008L261.005 296.108L261.008 296.113Z" fill="white"/>
<path d="M281.985 296.637H281.373L281.067 297.167L280.761 296.637H280.148L280.454 296.107L280.148 295.577H280.761L281.067 295.047L281.373 295.577H281.985L281.679 296.107L281.985 296.637Z" fill="white"/>
<path d="M302.929 297.144H301.734L301.136 298.179L300.539 297.144H299.344L299.941 296.109L299.344 295.074H300.539L301.136 294.039L301.734 295.074H302.929L302.331 296.109L302.929 297.144Z" fill="white"/>
<path d="M323.417 297.385H321.942L321.204 298.662L320.467 297.385H318.992L319.73 296.107L318.992 294.83H320.467L321.204 293.553L321.942 294.83H323.417L322.679 296.107L323.417 297.385Z" fill="white"/>
<path d="M343.274 297.265H341.94L341.272 298.421L340.605 297.265H339.27L339.937 296.109L339.27 294.953H340.605L341.272 293.797L341.94 294.953H343.274L342.607 296.109L343.274 297.265Z" fill="white"/>
<path d="M363.097 297.122H361.925L361.34 298.137L360.754 297.122H359.582L360.168 296.108L359.582 295.093H360.754L361.34 294.078L361.925 295.093H363.097L362.511 296.108L363.097 297.122Z" fill="white"/>
<path d="M382.99 297.023H381.935L381.407 297.936L380.879 297.023H379.824L380.352 296.109L379.824 295.195H380.879L381.407 294.281L381.935 295.195H382.99L382.462 296.109L382.99 297.023Z" fill="white"/>
<path d="M402.884 296.921H401.945L401.476 297.734L401.007 296.921H400.068L400.538 296.108L400.068 295.295H401.007L401.476 294.482L401.945 295.295H402.884L402.415 296.108L402.884 296.921Z" fill="white"/>
<path d="M413.828 280.066H412.283L411.511 281.404L410.738 280.066H409.193L409.966 278.728L409.193 277.391H410.738L411.511 276.053L412.283 277.391H413.828L413.055 278.728L413.828 280.066Z" fill="white"/>
<path d="M424.596 263.11H422.561L421.544 264.872L420.527 263.11H418.492L419.509 261.348L418.492 259.586H420.527L421.544 257.824L422.561 259.586H424.596L423.578 261.348L424.596 263.11Z" fill="white"/>
<path d="M435.19 246.054H432.782L431.578 248.139L430.374 246.054H427.967L429.171 243.969L427.967 241.884H430.374L431.578 239.799L432.782 241.884H435.19L433.986 243.969L435.19 246.054Z" fill="white"/>
<path d="M436.589 38.3072H433.249L431.579 41.2001L429.909 38.3072H426.568L428.239 35.4144L426.568 32.5215H429.909L431.579 29.6289L433.249 32.5215H436.589L434.919 35.4144L436.589 38.3072Z" fill="white"/>
<path d="M423.791 19.3339H422.293L421.544 20.6313L420.795 19.3339H419.297L420.046 18.0364L419.297 16.739H420.795L421.544 15.4414L422.293 16.739H423.791L423.042 18.0364L423.791 19.3339Z" fill="white"/>
<path d="M181.819 53.4264H181.09L180.726 54.0574L180.361 53.4264H179.633L179.997 52.7951L179.633 52.1641H180.361L180.726 51.5332L181.09 52.1641H181.819L181.454 52.7951L181.819 53.4264Z" fill="white"/>
<path d="M174.69 72.4802H172.025L170.693 74.7873L169.361 72.4802H166.697L168.029 70.173L166.697 67.8658H169.361L170.693 65.5586L172.025 67.8658H174.69L173.357 70.173L174.69 72.4802Z" fill="white"/>
<path d="M165.95 90.6084H162.423L160.659 93.6627L158.896 90.6084H155.369L157.132 87.554L155.369 84.4998H158.896L160.659 81.4453L162.423 84.4998H165.95L164.186 87.554L165.95 90.6084Z" fill="white"/>
<path d="M156.264 108.191H152.505L150.624 111.447L148.745 108.191H144.984L146.864 104.934L144.984 101.678H148.745L150.624 98.4219L152.505 101.678H156.264L154.385 104.934L156.264 108.191Z" fill="white"/>
<path d="M146.055 125.468H142.412L140.59 128.623L138.768 125.468H135.125L136.947 122.313L135.125 119.157H138.768L140.59 116.002L142.412 119.157H146.055L144.234 122.313L146.055 125.468Z" fill="white"/>
<path d="M135.568 142.585H132.227L130.557 145.478L128.887 142.585H125.547L127.217 139.692L125.547 136.799H128.887L130.557 133.906L132.227 136.799H135.568L133.898 139.692L135.568 142.585Z" fill="white"/>
<path d="M145.775 160.065H142.318L140.59 163.059L138.861 160.065H135.404L137.133 157.072L135.404 154.078H138.861L140.59 151.084L142.318 154.078H145.775L144.047 157.072L145.775 160.065Z" fill="white"/>
<path d="M155.775 177.425H152.342L150.625 180.398L148.908 177.425H145.475L147.191 174.451L145.475 171.477H148.908L150.625 168.504L152.342 171.477H155.775L154.059 174.451L155.775 177.425Z" fill="white"/>
<path d="M165.704 194.743H162.341L160.659 197.656L158.977 194.743H155.613L157.295 191.83L155.613 188.917H158.977L160.659 186.004L162.341 188.917H165.704L164.022 191.83L165.704 194.743Z" fill="white"/>
<path d="M175.459 211.961H172.282L170.693 214.713L169.105 211.961H165.928L167.516 209.21L165.928 206.459H169.105L170.693 203.707L172.282 206.459H175.459L173.87 209.21L175.459 211.961Z" fill="white"/>
<path d="M184.897 228.998H182.116L180.726 231.406L179.335 228.998H176.555L177.945 226.589L176.555 224.181H179.335L180.726 221.773L182.116 224.181H184.897L183.506 226.589L184.897 228.998Z" fill="white"/>
<path d="M193.708 245.67H191.743L190.761 247.372L189.779 245.67H187.814L188.797 243.969L187.814 242.268H189.779L190.761 240.566L191.743 242.268H193.708L192.726 243.969L193.708 245.67Z" fill="white"/>
<path d="M202.133 262.122H201.241L200.795 262.894L200.349 262.122H199.457L199.903 261.35L199.457 260.577H200.349L200.795 259.805L201.241 260.577H202.133L201.687 261.35L202.133 262.122Z" fill="white"/>
<path d="M291.355 313.633H291.186L291.101 313.779L291.017 313.633H290.848L290.932 313.486L290.848 313.34H291.017L291.101 313.193L291.186 313.34H291.355L291.27 313.486L291.355 313.633Z" fill="white"/>
<path d="M312.158 314.057H311.499L311.17 314.628L310.84 314.057H310.182L310.511 313.487L310.182 312.916H310.84L311.17 312.346L311.499 312.916H312.158L311.829 313.487L312.158 314.057Z" fill="white"/>
<path d="M332.261 314.077H331.579L331.238 314.668L330.897 314.077H330.215L330.556 313.486L330.215 312.895H330.897L331.238 312.305L331.579 312.895H332.261L331.92 313.486L332.261 314.077Z" fill="white"/>
<path d="M352.084 313.938H351.565L351.306 314.387L351.046 313.938H350.527L350.787 313.488L350.527 313.039H351.046L351.306 312.59L351.565 313.039H352.084L351.824 313.488L352.084 313.938Z" fill="white"/>
<path d="M371.941 313.817H371.562L371.373 314.145L371.183 313.817H370.805L370.994 313.488L370.805 313.16H371.183L371.373 312.832L371.562 313.16H371.941L371.752 313.488L371.941 313.817Z" fill="white"/>
<path d="M391.836 313.715H391.573L391.442 313.942L391.311 313.715H391.049L391.18 313.487L391.049 313.26H391.311L391.442 313.033L391.573 313.26H391.836L391.705 313.487L391.836 313.715Z" fill="white"/>
<path d="M411.728 313.613H411.582L411.51 313.739L411.437 313.613H411.291L411.364 313.487L411.291 313.361H411.437L411.51 313.234L411.582 313.361H411.728L411.656 313.487L411.728 313.613Z" fill="white"/>
<path d="M422.707 296.78H421.931L421.544 297.451L421.156 296.78H420.381L420.768 296.109L420.381 295.437H421.156L421.544 294.766L421.931 295.437H422.707L422.319 296.109L422.707 296.78Z" fill="white"/>
<path d="M433.51 279.843H432.221L431.577 280.959L430.933 279.843H429.645L430.289 278.727L429.645 277.612H430.933L431.577 276.496L432.221 277.612H433.51L432.865 278.727L433.51 279.843Z" fill="white"/>
<path d="M432.147 0.984332H431.768L431.578 1.31251L431.389 0.984332H431.01L431.199 0.65636L431.01 0.32818H431.389L431.578 0L431.768 0.32818H432.147L431.957 0.65636L432.147 0.984332Z" fill="white"/>
<path d="M162.207 53.6886H161.175L160.659 54.5823L160.143 53.6886H159.111L159.627 52.795L159.111 51.9015H160.143L160.659 51.0078L161.175 51.9015H162.207L161.691 52.795L162.207 53.6886Z" fill="white"/>
<path d="M154.517 72.4194H151.923L150.625 74.6661L149.328 72.4194H146.734L148.031 70.173L146.734 67.9263H149.328L150.625 65.6797L151.923 67.9263H154.517L153.22 70.173L154.517 72.4194Z" fill="white"/>
<path d="M145.321 90.2836H142.167L140.59 93.0148L139.013 90.2836H135.859L137.436 87.5523L135.859 84.8211H139.013L140.59 82.0898L142.167 84.8211H145.321L143.744 87.5523L145.321 90.2836Z" fill="white"/>
<path d="M135.496 107.786H132.202L130.556 110.638L128.909 107.786H125.615L127.262 104.933L125.615 102.081H128.909L130.556 99.2285L132.202 102.081H135.496L133.849 104.933L135.496 107.786Z" fill="white"/>
<path d="M125.252 125.045H122.099L120.522 127.777L118.945 125.045H115.791L117.368 122.314L115.791 119.583H118.945L120.522 116.852L122.099 119.583H125.252L123.675 122.314L125.252 125.045Z" fill="white"/>
<path d="M114.73 142.14H111.903L110.489 144.589L109.075 142.14H106.248L107.662 139.692L106.248 137.243H109.075L110.489 134.795L111.903 137.243H114.73L113.316 139.692L114.73 142.14Z" fill="white"/>
<path d="M124.974 159.643H122.007L120.523 162.212L119.039 159.643H116.072L117.556 157.073L116.072 154.503H119.039L120.523 151.934L122.007 154.503H124.974L123.49 157.073L124.974 159.643Z" fill="white"/>
<path d="M135.007 177.022H132.04L130.556 179.591L129.073 177.022H126.105L127.589 174.452L126.105 171.882H129.073L130.556 169.312L132.04 171.882H135.007L133.524 174.452L135.007 177.022Z" fill="white"/>
<path d="M144.971 194.361H142.05L140.59 196.891L139.13 194.361H136.209L137.669 191.832L136.209 189.303H139.13L140.59 186.773L142.05 189.303H144.971L143.51 191.832L144.971 194.361Z" fill="white"/>
<path d="M154.795 211.619H152.014L150.624 214.027L149.234 211.619H146.453L147.843 209.211L146.453 206.803H149.234L150.624 204.395L152.014 206.803H154.795L153.405 209.211L154.795 211.619Z" fill="white"/>
<path d="M164.374 228.734H161.896L160.658 230.879L159.419 228.734H156.941L158.18 226.588L156.941 224.442H159.419L160.658 222.297L161.896 224.442H164.374L163.135 226.588L164.374 228.734Z" fill="white"/>
<path d="M173.535 245.61H171.641L170.693 247.251L169.746 245.61H167.852L168.799 243.969L167.852 242.328H169.746L170.693 240.688L171.641 242.328H173.535L172.588 243.969L173.535 245.61Z" fill="white"/>
<path d="M182.206 262.202H181.22L180.728 263.055L180.235 262.202H179.25L179.742 261.349L179.25 260.496H180.235L180.728 259.643L181.22 260.496H182.206L181.713 261.349L182.206 262.202Z" fill="white"/>
<path d="M321.248 330.892H321.218L321.204 330.917L321.189 330.892H321.16L321.175 330.867L321.16 330.842H321.189L321.204 330.816L321.218 330.842H321.248L321.233 330.867L321.248 330.892Z" fill="white"/>
<path d="M142.593 53.9509H141.258L140.59 55.107L139.923 53.9509H138.588L139.255 52.7946L138.588 51.6387H139.923L140.59 50.4824L141.258 51.6387H142.593L141.925 52.7946L142.593 53.9509Z" fill="white"/>
<path d="M134.133 72.2395H131.749L130.557 74.3042L129.365 72.2395H126.98L128.173 70.1746L126.98 68.1096H129.365L130.557 66.0449L131.749 68.1096H134.133L132.941 70.1746L134.133 72.2395Z" fill="white"/>
<path d="M124.694 89.9628H121.913L120.522 92.3708L119.132 89.9628H116.352L117.742 87.5546L116.352 85.1465H119.132L120.522 82.7383L121.913 85.1465H124.694L123.303 87.5546L124.694 89.9628Z" fill="white"/>
<path d="M114.695 107.361H111.891L110.489 109.789L109.087 107.361H106.283L107.685 104.933L106.283 102.505H109.087L110.489 100.076L111.891 102.505H114.695L113.293 104.933L114.695 107.361Z" fill="white"/>
<path d="M104.345 124.56H101.751L100.454 126.807L99.1568 124.56H96.5625L97.8597 122.314L96.5625 120.067H99.1568L100.454 117.82L101.751 120.067H104.345L103.048 122.314L104.345 124.56Z" fill="white"/>
<path d="M93.927 141.718H91.5893L90.4205 143.742L89.2516 141.718H86.9141L88.0828 139.693L86.9141 137.669H89.2516L90.4205 135.645L91.5893 137.669H93.927L92.758 139.693L93.927 141.718Z" fill="white"/>
<path d="M104.067 159.157H101.659L100.455 161.243L99.2514 159.157H96.8438L98.0476 157.072L96.8438 154.987H99.2514L100.455 152.902L101.659 154.987H104.067L102.863 157.072L104.067 159.157Z" fill="white"/>
<path d="M114.135 176.556H111.704L110.488 178.661L109.273 176.556H106.842L108.057 174.451L106.842 172.345H109.273L110.488 170.24L111.704 172.345H114.135L112.919 174.451L114.135 176.556Z" fill="white"/>
<path d="M124.133 193.915H121.725L120.522 196L119.318 193.915H116.91L118.114 191.83L116.91 189.745H119.318L120.522 187.66L121.725 189.745H124.133L122.929 191.83L124.133 193.915Z" fill="white"/>
<path d="M134.064 211.234H131.726L130.557 213.258L129.388 211.234H127.051L128.22 209.209L127.051 207.185H129.388L130.557 205.16L131.726 207.185H134.064L132.895 209.209L134.064 211.234Z" fill="white"/>
<path d="M143.782 228.432H141.654L140.59 230.275L139.526 228.432H137.398L138.462 226.59L137.398 224.747H139.526L140.59 222.904L141.654 224.747H143.782L142.718 226.59L143.782 228.432Z" fill="white"/>
<path d="M153.117 245.408H151.456L150.625 246.847L149.794 245.408H148.133L148.963 243.97L148.133 242.531H149.794L150.625 241.092L151.456 242.531H153.117L152.286 243.97L153.117 245.408Z" fill="white"/>
<path d="M162.135 262.202H161.15L160.658 263.055L160.165 262.202H159.18L159.672 261.349L159.18 260.496H160.165L160.658 259.643L161.15 260.496H162.135L161.643 261.349L162.135 262.202Z" fill="white"/>
<path d="M122.559 53.9703H121.201L120.522 55.1465L119.843 53.9703H118.484L119.163 52.7938L118.484 51.6176H119.843L120.522 50.4414L121.201 51.6176H122.559L121.88 52.7938L122.559 53.9703Z" fill="white"/>
<path d="M113.576 71.9559H111.518L110.489 73.7379L109.46 71.9559H107.402L108.431 70.1737L107.402 68.3915H109.46L110.489 66.6094L111.518 68.3915H113.576L112.547 70.1737L113.576 71.9559Z" fill="white"/>
<path d="M103.925 89.5577H101.611L100.454 91.5619L99.2967 89.5577H96.9824L98.1396 87.5534L96.9824 85.5493H99.2967L100.454 83.5449L101.611 85.5493H103.925L102.768 87.5534L103.925 89.5577Z" fill="white"/>
<path d="M93.927 106.958H91.5893L90.4205 108.982L89.2516 106.958H86.9141L88.0828 104.933L86.9141 102.909H89.2516L90.4205 100.885L91.5893 102.909H93.927L92.758 104.933L93.927 106.958Z" fill="white"/>
<path d="M83.6134 124.175H81.4624L80.3868 126.038L79.3114 124.175H77.1602L78.2358 122.312L77.1602 120.449H79.3114L80.3868 118.586L81.4624 120.449H83.6134L82.538 122.312L83.6134 124.175Z" fill="white"/>
<path d="M73.0544 141.252H71.2531L70.3524 142.812L69.4516 141.252H67.6504L68.5511 139.692L67.6504 138.132H69.4516L70.3524 136.572L71.2531 138.132H73.0544L72.1536 139.692L73.0544 141.252Z" fill="white"/>
<path d="M83.2982 158.752H81.357L80.3863 160.434L79.4157 158.752H77.4746L78.4452 157.071L77.4746 155.39H79.4157L80.3863 153.709L81.357 155.39H83.2982L82.3276 157.071L83.2982 158.752Z" fill="white"/>
<path d="M93.3662 176.153H91.4017L90.4194 177.854L89.4372 176.153H87.4727L88.4549 174.452L87.4727 172.75H89.4372L90.4194 171.049L91.4017 172.75H93.3662L92.384 174.452L93.3662 176.153Z" fill="white"/>
<path d="M103.367 193.512H101.425L100.455 195.193L99.484 193.512H97.543L98.5134 191.831L97.543 190.15H99.484L100.455 188.469L101.425 190.15H103.367L102.396 191.831L103.367 193.512Z" fill="white"/>
<path d="M113.226 210.791H111.401L110.489 212.371L109.577 210.791H107.752L108.664 209.211L107.752 207.631H109.577L110.489 206.051L111.401 207.631H113.226L112.313 209.211L113.226 210.791Z" fill="white"/>
<path d="M123.05 228.049H121.366L120.523 229.508L119.681 228.049H117.996L118.839 226.59L117.996 225.131H119.681L120.523 223.672L121.366 225.131H123.05L122.208 226.59L123.05 228.049Z" fill="white"/>
<path d="M132.629 245.166H131.248L130.557 246.362L129.866 245.166H128.484L129.175 243.969L128.484 242.773H129.866L130.557 241.576L131.248 242.773H132.629L131.938 243.969L132.629 245.166Z" fill="white"/>
<path d="M141.823 262.061H141.001L140.59 262.773L140.18 262.061H139.357L139.769 261.349L139.357 260.638H140.18L140.59 259.926L141.001 260.638H141.823L141.412 261.349L141.823 262.061Z" fill="white"/>
<path d="M150.633 278.734H150.627L150.624 278.739L150.621 278.734H150.615L150.618 278.729L150.615 278.724H150.621L150.624 278.719L150.627 278.724H150.633L150.63 278.729L150.633 278.734Z" fill="white"/>
<path d="M102.247 53.8295H101.052L100.455 54.8642L99.8572 53.8295H98.6621L99.2596 52.7943L98.6621 51.7596H99.8572L100.455 50.7246L101.052 51.7596H102.247L101.65 52.7943L102.247 53.8295Z" fill="white"/>
<path d="M92.9468 71.633H91.2619L90.4197 73.0919L89.5772 71.633H87.8926L88.7348 70.174L87.8926 68.715H89.5772L90.4197 67.2559L91.2619 68.715H92.9468L92.1044 70.174L92.9468 71.633Z" fill="white"/>
<path d="M83.1573 89.1547H81.3092L80.3852 90.7549L79.4612 89.1547H77.6133L78.5372 87.5542L77.6133 85.954H79.4612L80.3852 84.3535L81.3092 85.954H83.1573L82.2331 87.5542L83.1573 89.1547Z" fill="white"/>
<path d="M73.0544 106.492H71.2531L70.3524 108.052L69.4516 106.492H67.6504L68.5511 104.932L67.6504 103.372H69.4516L70.3524 101.812L71.2531 103.372H73.0544L72.1536 104.932L73.0544 106.492Z" fill="white"/>
<path d="M62.741 123.711H61.1262L60.3188 125.109L59.5115 123.711H57.8965L58.7039 122.313L57.8965 120.914H59.5115L60.3188 119.516L61.1262 120.914H62.741L61.9336 122.313L62.741 123.711Z" fill="white"/>
<path d="M52.2167 140.808H50.9283L50.2841 141.924L49.64 140.808H48.3516L48.9959 139.692L48.3516 138.577H49.64L50.2841 137.461L50.9283 138.577H52.2167L51.5724 139.692L52.2167 140.808Z" fill="white"/>
<path d="M62.4606 158.308H61.0323L60.3183 159.545L59.6041 158.308H58.1758L58.89 157.071L58.1758 155.835H59.6041L60.3183 154.598L61.0323 155.835H62.4606L61.7464 157.071L62.4606 158.308Z" fill="white"/>
<path d="M72.5305 175.709H71.079L70.3532 176.966L69.6273 175.709H68.1758L68.9016 174.452L68.1758 173.195H69.6273L70.3532 171.938L71.079 173.195H72.5305L71.8046 174.452L72.5305 175.709Z" fill="white"/>
<path d="M82.5289 193.068H81.1007L80.3864 194.305L79.6724 193.068H78.2441L78.9584 191.831L78.2441 190.594H79.6724L80.3864 189.357L81.1007 190.594H82.5289L81.8147 191.831L82.5289 193.068Z" fill="white"/>
<path d="M92.5272 210.427H91.1224L90.42 211.644L89.7175 210.427H88.3125L89.0149 209.211L88.3125 207.994H89.7175L90.42 206.777L91.1224 207.994H92.5272L91.8248 209.211L92.5272 210.427Z" fill="white"/>
<path d="M102.352 227.685H101.087L100.454 228.781L99.8217 227.685H98.5566L99.1892 226.589L98.5566 225.494H99.8217L100.454 224.398L101.087 225.494H102.352L101.719 226.589L102.352 227.685Z" fill="white"/>
<path d="M112 244.843H110.992L110.488 245.716L109.983 244.843H108.975L109.479 243.97L108.975 243.096H109.983L110.488 242.223L110.992 243.096H112L111.496 243.97L112 244.843Z" fill="white"/>
<path d="M121.44 261.879H120.828L120.522 262.41L120.216 261.879H119.604L119.909 261.349L119.604 260.819H120.216L120.522 260.289L120.828 260.819H121.44L121.134 261.349L121.44 261.879Z" fill="white"/>
<path d="M90.4992 35.4605H90.4468L90.4206 35.5059L90.3943 35.4605H90.3418L90.3681 35.4151L90.3418 35.3696H90.3943L90.4206 35.3242L90.4468 35.3696H90.4992L90.4731 35.4151L90.4992 35.4605Z" fill="white"/>
<path d="M81.7592 53.5889H80.844L80.3864 54.3813L79.9287 53.5889H79.0137L79.4713 52.796L79.0137 52.0036H79.9287L80.3864 51.2109L80.844 52.0036H81.7592L81.3016 52.796L81.7592 53.5889Z" fill="white"/>
<path d="M72.3196 71.3103H71.0079L70.3522 72.446L69.6964 71.3103H68.3848L69.0405 70.1743L68.3848 69.0383H69.6964L70.3522 67.9023L71.0079 69.0383H72.3196L71.6639 70.1743L72.3196 71.3103Z" fill="white"/>
<path d="M62.4606 88.7909H61.0323L60.3183 90.0277L59.6041 88.7909H58.1758L58.89 87.5539L58.1758 86.3171H59.6041L60.3183 85.0801L61.0323 86.3171H62.4606L61.7464 87.5539L62.4606 88.7909Z" fill="white"/>
<path d="M52.2862 106.089H50.9513L50.2837 107.245L49.6162 106.089H48.2812L48.9488 104.933L48.2812 103.777H49.6162L50.2837 102.621L50.9513 103.777H52.2862L51.6186 104.933L52.2862 106.089Z" fill="white"/>
<path d="M41.9029 123.267H40.8012L40.2504 124.221L39.6994 123.267H38.5977L39.1486 122.313L38.5977 121.358H39.6994L40.2504 120.404L40.8012 121.358H41.9029L41.3521 122.313L41.9029 123.267Z" fill="white"/>
<path d="M31.4483 140.405H30.6262L30.2153 141.117L29.8043 140.405H28.9824L29.3934 139.693L28.9824 138.981H29.8043L30.2153 138.27L30.6262 138.981H31.4483L31.0374 139.693L31.4483 140.405Z" fill="white"/>
<path d="M41.5879 157.845H40.6959L40.2501 158.617L39.8041 157.845H38.9121L39.3581 157.072L38.9121 156.3H39.8041L40.2501 155.527L40.6959 156.3H41.5879L41.1419 157.072L41.5879 157.845Z" fill="white"/>
<path d="M51.6926 175.263H50.7539L50.2847 176.076L49.8154 175.263H48.877L49.3462 174.45L48.877 173.637H49.8154L50.2847 172.824L50.7539 173.637H51.6926L51.2232 174.45L51.6926 175.263Z" fill="white"/>
<path d="M61.7608 192.663H60.7989L60.318 193.496L59.8369 192.663H58.875L59.3561 191.83L58.875 190.997H59.8369L60.318 190.164L60.7989 190.997H61.7608L61.2797 191.83L61.7608 192.663Z" fill="white"/>
<path d="M71.6893 209.981H70.7975L70.3515 210.754L69.9055 209.981H69.0137L69.4595 209.209L69.0137 208.437H69.9055L70.3515 207.664L70.7975 208.437H71.6893L71.2433 209.209L71.6893 209.981Z" fill="white"/>
<path d="M81.6182 227.302H80.7961L80.3852 228.013L79.9742 227.302H79.1523L79.5633 226.59L79.1523 225.878H79.9742L80.3852 225.166L80.7961 225.878H81.6182L81.2073 226.59L81.6182 227.302Z" fill="white"/>
<path d="M91.3383 244.498H90.7261L90.4201 245.029L90.1139 244.498H89.502L89.8079 243.968L89.502 243.438H90.1139L90.4201 242.908L90.7261 243.438H91.3383L91.0321 243.968L91.3383 244.498Z" fill="white"/>
<path d="M100.882 261.596H100.597L100.454 261.843L100.311 261.596H100.025L100.168 261.348L100.025 261.101H100.311L100.454 260.854L100.597 261.101H100.882L100.739 261.348L100.882 261.596Z" fill="white"/>
<path d="M61.2365 53.3247H60.6245L60.3186 53.8547L60.0123 53.3247H59.4004L59.7064 52.7944L59.4004 52.2644H60.0123L60.3186 51.7344L60.6245 52.2644H61.2365L60.9305 52.7944L61.2365 53.3247Z" fill="white"/>
<path d="M51.5864 70.9265H50.7178L50.2834 71.6787L49.8493 70.9265H48.9805L49.4149 70.1743L48.9805 69.4221H49.8493L50.2834 68.6699L50.7178 69.4221H51.5864L51.152 70.1743L51.5864 70.9265Z" fill="white"/>
<path d="M41.6225 88.3467H40.7075L40.2498 89.1394L39.7922 88.3467H38.877L39.3346 87.5541L38.877 86.7614H39.7922L40.2498 85.9688L40.7075 86.7614H41.6225L41.1651 87.5541L41.6225 88.3467Z" fill="white"/>
<path d="M31.4831 105.665H30.638L30.2152 106.397L29.7926 105.665H28.9473L29.3701 104.933L28.9473 104.201H29.7926L30.2152 103.469L30.638 104.201H31.4831L31.0605 104.933L31.4831 105.665Z" fill="white"/>
<path d="M21.1347 122.864H20.4993L20.1817 123.414L19.8639 122.864H19.2285L19.5463 122.314L19.2285 121.763H19.8639L20.1817 121.213L20.4993 121.763H21.1347L20.8171 122.314L21.1347 122.864Z" fill="white"/>
<path d="M10.5757 139.94H10.29L10.1471 140.187L10.0044 139.94H9.71875L9.86147 139.692L9.71875 139.445H10.0044L10.1471 139.197L10.29 139.445H10.5757L10.4328 139.692L10.5757 139.94Z" fill="white"/>
<path d="M20.8196 157.442H20.3941L20.1813 157.81L19.9684 157.442H19.543L19.7556 157.073L19.543 156.705H19.9684L20.1813 156.336L20.3941 156.705H20.8196L20.6068 157.073L20.8196 157.442Z" fill="white"/>
<path d="M30.9245 174.86H30.4521L30.216 175.269L29.98 174.86H29.5078L29.7439 174.451L29.5078 174.042H29.98L30.216 173.633L30.4521 174.042H30.9245L30.6882 174.451L30.9245 174.86Z" fill="white"/>
<path d="M40.9577 192.238H40.4855L40.2495 192.647L40.0132 192.238H39.541L39.7773 191.829L39.541 191.421H40.0132L40.2495 191.012L40.4855 191.421H40.9577L40.7216 191.829L40.9577 192.238Z" fill="white"/>
<path d="M50.9581 209.6H50.5092L50.2847 209.989L50.0602 209.6H49.6113L49.8358 209.211L49.6113 208.822H50.0602L50.2847 208.434L50.5092 208.822H50.9581L50.7336 209.211L50.9581 209.6Z" fill="white"/>
<path d="M60.8171 226.877H60.4847L60.3188 227.165L60.1526 226.877H59.8203L59.9865 226.589L59.8203 226.301H60.1526L60.3188 226.014L60.4847 226.301H60.8171L60.6509 226.589L60.8171 226.877Z" fill="white"/>
<path d="M70.6049 244.115H70.4358L70.3514 244.261L70.2667 244.115H70.0977L70.1823 243.969L70.0977 243.822H70.2667L70.3514 243.676L70.4358 243.822H70.6049L70.5204 243.969L70.6049 244.115Z" fill="white"/>
<path d="M40.6078 53.0017H40.3688L40.2493 53.2088L40.1298 53.0017H39.8906L40.0101 52.7947L39.8906 52.5879H40.1298L40.2493 52.3809L40.3688 52.5879H40.6078L40.4883 52.7947L40.6078 53.0017Z" fill="white"/>
<path d="M30.9245 70.5823H30.4521L30.216 70.9912L29.98 70.5823H29.5078L29.7439 70.1734L29.5078 69.7643H29.98L30.216 69.3555L30.4521 69.7643H30.9245L30.6882 70.1734L30.9245 70.5823Z" fill="white"/>
<path d="M20.8891 87.963H20.417L20.1809 88.372L19.9448 87.963H19.4727L19.7087 87.5541L19.4727 87.1452H19.9448L20.1809 86.7363L20.417 87.1452H20.8891L20.653 87.5541L20.8891 87.963Z" fill="white"/>
<path d="M10.6452 105.221H10.3129L10.1467 105.509L9.98055 105.221H9.64844L9.81461 104.933L9.64844 104.645H9.98055L10.1467 104.357L10.3129 104.645H10.6452L10.4791 104.933L10.6452 105.221Z" fill="white"/>
<path d="M0.22735 122.379H0.151634L0.113675 122.444L0.0757159 122.379H0L0.0379592 122.313L0 122.247H0.0757159L0.113675 122.182L0.151634 122.247H0.22735L0.189391 122.313L0.22735 122.379Z" fill="white"/>
<path d="M10.1562 70.1793H10.1506L10.1474 70.1843L10.1445 70.1793H10.1387L10.1416 70.1743L10.1387 70.1691H10.1445L10.1474 70.1641L10.1506 70.1691H10.1562L10.1535 70.1743L10.1562 70.1793Z" fill="white"/>
</svg>
