<svg width="35" height="35" viewBox="0 0 35 35" fill="none" xmlns="http://www.w3.org/2000/svg">
<path d="M23.3411 23.125C27.0656 17.2807 26.5974 18.0098 26.7047 17.8575C28.0607 15.9449 28.7773 13.6939 28.7773 11.3477C28.7773 5.12559 23.7283 0 17.498 0C11.2881 0 6.21875 5.11547 6.21875 11.3477C6.21875 13.6924 6.95047 16.0023 8.35088 17.9406L11.6548 23.125C8.12235 23.6679 2.11719 25.2856 2.11719 28.8477C2.11719 30.1461 2.96471 31.9966 7.00229 33.4386C9.82156 34.4455 13.549 35 17.498 35C24.8826 35 32.8789 32.917 32.8789 28.8477C32.8789 25.285 26.8808 23.669 23.3411 23.125ZM10.0639 16.8126C10.0526 16.795 10.0408 16.7778 10.0286 16.7608C8.86323 15.1577 8.26953 13.2577 8.26953 11.3477C8.26953 6.21947 12.3988 2.05078 17.498 2.05078C22.5867 2.05078 26.7266 6.22132 26.7266 11.3477C26.7266 13.2608 26.1441 15.0963 25.0418 16.6572C24.943 16.7875 25.4584 15.9869 17.498 28.4778L10.0639 16.8126ZM17.498 32.9492C9.43205 32.9492 4.16797 30.5783 4.16797 28.8477C4.16797 27.6845 6.87281 25.7718 12.8666 25.0263L16.6333 30.9369C16.7259 31.0822 16.8537 31.2019 17.0049 31.2848C17.156 31.3678 17.3256 31.4112 17.498 31.4112C17.6704 31.4112 17.84 31.3678 17.9911 31.2848C18.1422 31.2019 18.27 31.0822 18.3627 30.9369L22.1293 25.0263C28.1232 25.7718 30.8281 27.6845 30.8281 28.8477C30.8281 30.5636 25.6114 32.9492 17.498 32.9492Z" fill="url(#paint0_linear_1629_2164)"/>
<path d="M17.498 6.21875C14.671 6.21875 12.3711 8.5187 12.3711 11.3457C12.3711 14.1727 14.671 16.4727 17.498 16.4727C20.325 16.4727 22.625 14.1727 22.625 11.3457C22.625 8.5187 20.325 6.21875 17.498 6.21875ZM17.498 14.4219C15.8018 14.4219 14.4219 13.0419 14.4219 11.3457C14.4219 9.6495 15.8018 8.26953 17.498 8.26953C19.1942 8.26953 20.5742 9.6495 20.5742 11.3457C20.5742 13.0419 19.1942 14.4219 17.498 14.4219Z" fill="url(#paint1_linear_1629_2164)"/>
<defs>
<linearGradient id="paint0_linear_1629_2164" x1="32.8789" y1="4.17232e-06" x2="-2.69775" y2="5.8832" gradientUnits="userSpaceOnUse">
<stop stop-color="#DCAD81"/>
<stop offset="0.25" stop-color="#D8A97C"/>
<stop offset="0.5" stop-color="#FFD2A4"/>
<stop offset="0.75" stop-color="#D8A97C"/>
<stop offset="1" stop-color="#DCAD81"/>
</linearGradient>
<linearGradient id="paint1_linear_1629_2164" x1="22.625" y1="6.21875" x2="10.8584" y2="8.43265" gradientUnits="userSpaceOnUse">
<stop stop-color="#DCAD81"/>
<stop offset="0.25" stop-color="#D8A97C"/>
<stop offset="0.5" stop-color="#FFD2A4"/>
<stop offset="0.75" stop-color="#D8A97C"/>
<stop offset="1" stop-color="#DCAD81"/>
</linearGradient>
</defs>
</svg>
