<svg width="24" height="24" viewBox="0 0 24 24" fill="none" xmlns="http://www.w3.org/2000/svg">
<g clip-path="url(#clip0_1630_2304)">
<path d="M18.9657 14.8671C18.4744 14.3555 17.8817 14.082 17.2536 14.082C16.6306 14.082 16.0329 14.3505 15.5213 14.8621L13.9206 16.4577C13.7889 16.3867 13.6572 16.3209 13.5306 16.2551C13.3482 16.1639 13.176 16.0778 13.0291 15.9866C11.5298 15.0343 10.1672 13.7933 8.86033 12.1876C8.22716 11.3872 7.80167 10.7135 7.49268 10.0297C7.90804 9.64981 8.29301 9.25472 8.66785 8.87481C8.80968 8.73298 8.95151 8.58609 9.09334 8.44426C10.1571 7.38053 10.1571 6.00275 9.09334 4.93902L7.71049 3.55618C7.55347 3.39915 7.39138 3.23706 7.23942 3.07497C6.93549 2.76092 6.61638 2.43673 6.28713 2.13281C5.79579 1.64654 5.20821 1.3882 4.59023 1.3882C3.97226 1.3882 3.37454 1.64654 2.86801 2.13281L2.85788 2.14294L1.13565 3.88036C0.487286 4.52873 0.117514 5.31893 0.0364682 6.23576C-0.0851005 7.71485 0.350521 9.09262 0.684835 9.99426C1.50542 12.2078 2.73124 14.2593 4.55984 16.4577C6.77847 19.1069 9.44792 21.1988 12.4973 22.6729C13.6623 23.225 15.2174 23.8784 16.9548 23.9899C17.0612 23.9949 17.1726 24 17.2739 24C18.444 24 19.4267 23.5796 20.1966 22.7438C20.2017 22.7337 20.2118 22.7286 20.2169 22.7185C20.4803 22.3993 20.7842 22.1106 21.1033 21.8016C21.3211 21.5939 21.544 21.3761 21.7618 21.1482C22.2633 20.6265 22.5267 20.0186 22.5267 19.3956C22.5267 18.7675 22.2582 18.1647 21.7466 17.6582L18.9657 14.8671ZM20.7791 20.201C20.7741 20.201 20.7741 20.206 20.7791 20.201C20.5816 20.4137 20.379 20.6062 20.1612 20.8189C19.8319 21.133 19.4976 21.4622 19.1835 21.832C18.6719 22.3791 18.0692 22.6374 17.279 22.6374C17.203 22.6374 17.1219 22.6374 17.046 22.6323C15.5415 22.5361 14.1435 21.9485 13.095 21.4471C10.228 20.0591 7.7105 18.0887 5.6185 15.5915C3.89121 13.5096 2.73631 11.5848 1.97144 9.51812C1.50036 8.25684 1.32814 7.27416 1.40412 6.3472C1.45477 5.75455 1.68271 5.26321 2.10314 4.84278L3.83043 3.11549C4.07863 2.88249 4.34203 2.75585 4.60036 2.75585C4.91948 2.75585 5.17781 2.94834 5.3399 3.11043L5.3551 3.12562C5.66409 3.41435 5.95788 3.71321 6.26687 4.03233C6.42389 4.19442 6.58598 4.35651 6.74808 4.52367L8.13092 5.90651C8.66785 6.44344 8.66785 6.93984 8.13092 7.47677C7.98403 7.62367 7.84219 7.77056 7.6953 7.91239C7.26981 8.34802 6.86458 8.75325 6.42389 9.14834C6.41376 9.15847 6.40363 9.16354 6.39857 9.17367C5.96294 9.60929 6.04399 10.0348 6.13517 10.3235L6.15036 10.3691C6.51 11.2403 7.01654 12.0609 7.78648 13.0385L7.79154 13.0436C9.18958 14.7658 10.6636 16.1082 12.2896 17.1364C12.4973 17.2681 12.71 17.3745 12.9126 17.4758C13.095 17.567 13.2672 17.6531 13.4141 17.7443C13.4344 17.7544 13.4546 17.7696 13.4749 17.7797C13.6471 17.8658 13.8092 17.9064 13.9764 17.9064C14.3968 17.9064 14.6602 17.643 14.7463 17.5568L16.4786 15.8245C16.6509 15.6523 16.9244 15.4446 17.2435 15.4446C17.5576 15.4446 17.8159 15.6421 17.9729 15.8144L17.9831 15.8245L20.7741 18.6155C21.2958 19.1322 21.2958 19.664 20.7791 20.201ZM12.9683 5.70896C14.2955 5.93184 15.501 6.55994 16.4634 7.52236C17.4259 8.48478 18.0489 9.69034 18.2768 11.0175C18.3326 11.3518 18.6213 11.5848 18.9505 11.5848C18.9911 11.5848 19.0265 11.5797 19.067 11.5747C19.4419 11.5139 19.6901 11.1593 19.6293 10.7845C19.3558 9.17874 18.596 7.71485 17.436 6.55488C16.276 5.39491 14.8121 4.6351 13.2064 4.36157C12.8316 4.30079 12.4821 4.54899 12.4162 4.91876C12.3504 5.28854 12.5935 5.64818 12.9683 5.70896ZM23.9703 10.5869C23.5195 7.94279 22.2734 5.53674 20.3587 3.62203C18.444 1.70732 16.038 0.461243 13.3938 0.0104253C13.0241 -0.0554245 12.6746 0.197844 12.6087 0.567615C12.5479 0.942452 12.7961 1.29196 13.171 1.35781C15.5314 1.75798 17.6842 2.87742 19.3963 4.58445C21.1084 6.29654 22.2228 8.44932 22.6229 10.8098C22.6786 11.1441 22.9674 11.3771 23.2966 11.3771C23.3371 11.3771 23.3726 11.372 23.4131 11.367C23.7829 11.3113 24.0362 10.9567 23.9703 10.5869Z" fill="#2D2D2D"/>
</g>
<defs>
<clipPath id="clip0_1630_2304">
<rect width="24" height="24" fill="white"/>
</clipPath>
</defs>
</svg>
