<svg width="59" height="59" viewBox="0 0 59 59" fill="none" xmlns="http://www.w3.org/2000/svg">
<path d="M57.0371 13.516C55.8593 12.2822 54.2329 11.5531 52.3821 11.5531H43.0722V11.4409C43.0722 10.0389 42.5114 8.69285 41.558 7.79551C40.6046 6.84209 39.3146 6.28125 37.9125 6.28125H21.0875C19.6293 6.28125 18.3394 6.84209 17.3859 7.79551C16.4325 8.74893 15.8717 10.0389 15.8717 11.4409V11.5531H6.61787C4.76711 11.5531 3.14068 12.2822 1.96293 13.516C0.785171 14.6938 0 16.3763 0 18.171V46.1006C0 47.9514 0.729087 49.5778 1.96293 50.7556C3.14068 51.9333 4.82319 52.7185 6.61787 52.7185H52.3821C54.2329 52.7185 55.8593 51.9894 57.0371 50.7556C58.2148 49.5778 59 47.8953 59 46.1006V18.171C59 16.3202 58.2709 14.6938 57.0371 13.516ZM56.0836 46.1006H56.0276C56.0276 47.1101 55.635 48.0075 54.962 48.6805C54.289 49.3535 53.3916 49.7461 52.3821 49.7461H6.61787C5.60837 49.7461 4.71103 49.3535 4.03802 48.6805C3.36502 48.0075 2.97243 47.1101 2.97243 46.1006V18.171C2.97243 17.1615 3.36502 16.2641 4.03802 15.5911C4.71103 14.9181 5.60837 14.5255 6.61787 14.5255H17.442C18.2833 14.5255 18.9563 13.8525 18.9563 13.0113V11.3849C18.9563 10.7679 19.1806 10.2071 19.5732 9.81452C19.9658 9.42193 20.5266 9.1976 21.1435 9.1976H37.9125C38.5295 9.1976 39.0903 9.42193 39.4829 9.81452C39.8755 10.2071 40.0998 10.7679 40.0998 11.3849V13.0113C40.0998 13.8525 40.7728 14.5255 41.6141 14.5255H52.4382C53.4477 14.5255 54.3451 14.9181 55.0181 15.5911C55.6911 16.2641 56.0836 17.1615 56.0836 18.171V46.1006Z" fill="white"/>
<path d="M29.4997 18.3394C25.686 18.3394 22.2088 19.9097 19.7411 22.3774C17.2174 24.9011 15.7031 28.3222 15.7031 32.1359C15.7031 35.9496 17.2735 39.4268 19.7411 41.8945C22.2649 44.4183 25.686 45.9325 29.4997 45.9325C33.3134 45.9325 36.7906 44.3622 39.2583 41.8945C41.782 39.3707 43.2963 35.9496 43.2963 32.1359C43.2963 28.3222 41.7259 24.8451 39.2583 22.3774C36.7906 19.9097 33.3134 18.3394 29.4997 18.3394ZM37.1271 39.8194C35.1642 41.7262 32.4721 42.9601 29.4997 42.9601C26.5273 42.9601 23.8353 41.7262 21.8723 39.8194C19.9094 37.8565 18.7316 35.1645 18.7316 32.192C18.7316 29.2196 19.9655 26.5276 21.8723 24.5646C23.8353 22.6017 26.5273 21.424 29.4997 21.424C32.4721 21.424 35.1642 22.6578 37.1271 24.5646C39.09 26.5276 40.2678 29.2196 40.2678 32.192C40.3238 35.1645 39.09 37.8565 37.1271 39.8194Z" fill="white"/>
<path d="M49.4649 23.7794C50.9826 23.7794 52.213 22.549 52.213 21.0313C52.213 19.5136 50.9826 18.2832 49.4649 18.2832C47.9472 18.2832 46.7168 19.5136 46.7168 21.0313C46.7168 22.549 47.9472 23.7794 49.4649 23.7794Z" fill="white"/>
</svg>
