<svg width="46" height="46" viewBox="0 0 46 46" fill="none" xmlns="http://www.w3.org/2000/svg">
<path d="M34.4943 32.3528C34.3606 32.3527 34.2297 32.3154 34.1161 32.245C34.0025 32.1747 33.9108 32.0741 33.8513 31.9545C33.7917 31.8349 33.7666 31.7011 33.7789 31.568C33.7912 31.435 33.8403 31.308 33.9207 31.2013C35.7043 28.8401 36.6652 25.9595 36.6562 23.0004C36.6562 22.0631 36.5599 21.1244 36.3702 20.2116C36.349 20.1185 36.3467 20.022 36.3632 19.928C36.3798 19.8339 36.4149 19.7441 36.4666 19.6637C36.5183 19.5834 36.5855 19.5142 36.6642 19.4601C36.7429 19.406 36.8316 19.3682 36.9252 19.3488C37.0187 19.3294 37.1152 19.3288 37.2089 19.3471C37.3027 19.3655 37.3918 19.4023 37.4712 19.4554C37.5505 19.5086 37.6185 19.5771 37.6711 19.6568C37.7237 19.7365 37.7599 19.8259 37.7775 19.9198C37.9874 20.9289 38.0938 21.9654 38.0938 23.0004C38.0938 26.2994 37.0472 29.4361 35.0692 32.0667C35.0022 32.1557 34.9153 32.2279 34.8155 32.2775C34.7157 32.3272 34.6057 32.3529 34.4943 32.3528ZM8.9355 26.7149C8.7708 26.7143 8.61126 26.6573 8.48339 26.5535C8.35552 26.4497 8.26701 26.3053 8.23256 26.1442C8.01616 25.1102 7.90682 24.0567 7.90625 23.0004C7.90625 19.7157 8.94269 16.592 10.9049 13.97C10.9614 13.8944 11.0323 13.8307 11.1135 13.7825C11.1946 13.7342 11.2845 13.7025 11.3779 13.689C11.4714 13.6755 11.5665 13.6806 11.658 13.7039C11.7495 13.7272 11.8355 13.7683 11.9111 13.8248C11.9867 13.8814 12.0505 13.9522 12.0987 14.0334C12.1469 14.1146 12.1786 14.2044 12.1921 14.2979C12.2056 14.3913 12.2005 14.4865 12.1772 14.578C12.1539 14.6695 12.1129 14.7555 12.0563 14.8311C10.2869 17.1863 9.33448 20.0546 9.34375 23.0004C9.34375 23.9563 9.44294 24.9151 9.63987 25.8481C9.66193 25.9528 9.6603 26.0612 9.63512 26.1652C9.60995 26.2692 9.56185 26.3663 9.49434 26.4494C9.42684 26.5325 9.34163 26.5994 9.24495 26.6453C9.14826 26.6913 9.04254 26.715 8.9355 26.7149ZM25.1562 30.1879H20.8438C20.6531 30.1879 20.4703 30.1122 20.3355 29.9774C20.2007 29.8426 20.125 29.6598 20.125 29.4691V25.8754H16.5312C16.3406 25.8754 16.1578 25.7997 16.023 25.6649C15.8882 25.5301 15.8125 25.3473 15.8125 25.1566V20.8441C15.8125 20.6535 15.8882 20.4707 16.023 20.3359C16.1578 20.2011 16.3406 20.1254 16.5312 20.1254H20.125V16.5316C20.125 16.341 20.2007 16.1582 20.3355 16.0234C20.4703 15.8886 20.6531 15.8129 20.8438 15.8129H25.1562C25.3469 15.8129 25.5297 15.8886 25.6645 16.0234C25.7993 16.1582 25.875 16.341 25.875 16.5316V20.1254H29.4688C29.6594 20.1254 29.8422 20.2011 29.977 20.3359C30.1118 20.4707 30.1875 20.6535 30.1875 20.8441V25.1566C30.1875 25.3473 30.1118 25.5301 29.977 25.6649C29.8422 25.7997 29.6594 25.8754 29.4688 25.8754H25.875V29.4691C25.875 29.6598 25.7993 29.8426 25.6645 29.9774C25.5297 30.1122 25.3469 30.1879 25.1562 30.1879ZM21.5625 28.7504H24.4375V25.1566C24.4375 24.966 24.5132 24.7832 24.648 24.6484C24.7828 24.5136 24.9656 24.4379 25.1562 24.4379H28.75V21.5629H25.1562C24.9656 21.5629 24.7828 21.4872 24.648 21.3524C24.5132 21.2176 24.4375 21.0348 24.4375 20.8441V17.2504H21.5625V20.8441C21.5625 21.0348 21.4868 21.2176 21.352 21.3524C21.2172 21.4872 21.0344 21.5629 20.8438 21.5629H17.25V24.4379H20.8438C21.0344 24.4379 21.2172 24.5136 21.352 24.6484C21.4868 24.7832 21.5625 24.966 21.5625 25.1566V28.7504ZM26.0777 43.1254H18.5437C17.1323 43.1238 15.7391 42.8054 14.467 42.1939L9.43144 39.7473C8.1585 39.1318 6.76283 38.8124 5.34894 38.8129H2.15625C1.96563 38.8129 1.78281 38.7372 1.64802 38.6024C1.51323 38.4676 1.4375 38.2848 1.4375 38.0941C1.4375 37.9035 1.51323 37.7207 1.64802 37.5859C1.78281 37.4511 1.96563 37.3754 2.15625 37.3754H5.34894C6.98194 37.3754 8.56606 37.7376 10.0567 38.4535L15.0909 40.8987C16.1686 41.4159 17.3483 41.6856 18.5437 41.6879H25.9339L32.2115 39.0975C32.2115 39.0371 32.2963 38.4808 32.0203 38.0079C31.5991 37.2834 30.6259 37.2604 29.8885 37.3682C28.8176 37.5335 27.9321 37.8311 27.1515 38.0941L26.8554 38.1933C26.6752 38.2505 26.4798 38.2344 26.3115 38.1486C26.1431 38.0627 26.0154 37.914 25.9558 37.7347C25.8963 37.5553 25.9098 37.3597 25.9934 37.1902C26.077 37.0208 26.224 36.891 26.4026 36.8291L26.6929 36.7328C27.5296 36.4511 28.4769 36.1319 29.6757 35.9479C32.6399 35.5167 33.3802 37.3682 33.5397 37.9446C33.8028 38.8948 33.5843 40.0836 32.7635 40.4272L26.3508 43.0736C26.2637 43.1074 26.1711 43.1249 26.0777 43.1254ZM16.7253 32.8861C16.5883 32.8861 16.4541 32.847 16.3385 32.7734C16.2229 32.6998 16.1307 32.5948 16.0727 32.4706C14.6639 29.4389 11.0041 29.0048 8.28288 30.1333C8.19531 30.1693 8.10155 30.1878 8.00688 30.1879H2.15625C1.96563 30.1879 1.78281 30.1122 1.64802 29.9774C1.51323 29.8426 1.4375 29.6598 1.4375 29.4691C1.4375 29.2785 1.51323 29.0957 1.64802 28.9609C1.78281 28.8261 1.96563 28.7504 2.15625 28.7504H7.86744C11.7587 27.2051 15.8254 28.5319 17.3779 31.8654C17.4282 31.975 17.4502 32.0955 17.4419 32.2157C17.4335 32.336 17.3951 32.4523 17.3302 32.5539C17.2652 32.6554 17.1758 32.7391 17.0701 32.7971C16.9644 32.8552 16.8459 32.8857 16.7253 32.8861Z" fill="url(#paint0_linear_931_20364)"/>
<path d="M23.5383 39.7081C23.4441 39.7079 23.3508 39.6893 23.2637 39.6534L15.0326 36.2365C14.9454 36.2003 14.8662 36.1472 14.7995 36.0803C14.7327 36.0135 14.6799 35.9341 14.6438 35.8468C14.6078 35.7595 14.5893 35.666 14.5894 35.5715C14.5895 35.4771 14.6082 35.3836 14.6445 35.2964C14.6807 35.2092 14.7338 35.1299 14.8006 35.0632C14.8675 34.9965 14.9468 34.9436 15.0341 34.9076C15.1214 34.8716 15.215 34.8531 15.3094 34.8532C15.4039 34.8533 15.4974 34.872 15.5846 34.9082L23.0927 38.0247C23.4075 36.5427 22.5967 35.3898 20.6705 34.592L16.4399 32.8354C16.2638 32.7622 16.1239 32.622 16.0511 32.4457C15.9783 32.2694 15.9786 32.0714 16.0518 31.8953C16.125 31.7191 16.2652 31.5793 16.4415 31.5065C16.6178 31.4337 16.8158 31.4339 16.9919 31.5071L21.221 33.2637C24.1837 34.4914 25.2705 36.6778 24.2024 39.261C24.1665 39.3485 24.1136 39.428 24.0467 39.4948C23.9798 39.5617 23.9003 39.6146 23.8128 39.6506C23.7263 39.6887 23.6328 39.7083 23.5383 39.7081ZM15.484 10.1186C13.2228 10.1186 12.6047 8.57469 12.4609 8.05719C12.1978 7.107 12.4163 5.91819 13.2372 5.57463L19.6498 2.92819C19.7367 2.89332 19.8294 2.87527 19.923 2.875H27.4555C28.8599 2.875 30.2313 3.18837 31.5322 3.8065L36.5678 6.25312C37.8601 6.87269 39.2358 7.1875 40.6517 7.1875H43.8444C44.035 7.1875 44.2178 7.26323 44.3526 7.39802C44.4874 7.53281 44.5632 7.71563 44.5632 7.90625C44.5632 8.09687 44.4874 8.27969 44.3526 8.41448C44.2178 8.54927 44.035 8.625 43.8444 8.625H40.6517C39.0212 8.62582 37.4116 8.25722 35.9439 7.54688L30.9098 5.10312C29.8324 4.58473 28.6525 4.31456 27.4569 4.3125H20.0667L13.7877 6.90287C13.7877 6.96325 13.7029 7.51956 13.9789 7.9925C14.4015 8.717 15.3718 8.74 16.1107 8.63219C17.1817 8.46688 18.0672 8.16931 18.8477 7.90625L19.1438 7.80706C19.2338 7.77589 19.329 7.76289 19.424 7.76881C19.519 7.77474 19.6119 7.79948 19.6972 7.8416C19.7826 7.88371 19.8588 7.94236 19.9213 8.01414C19.9838 8.08592 20.0314 8.1694 20.0614 8.25974C20.0914 8.35008 20.1031 8.44548 20.0959 8.54039C20.0888 8.63531 20.0628 8.72785 20.0196 8.81265C19.9763 8.89745 19.9167 8.97281 19.8441 9.03437C19.7715 9.09593 19.6874 9.14246 19.5967 9.17125L19.3063 9.26756C18.4697 9.54931 17.5223 9.86844 16.3235 10.0524C16.0457 10.0956 15.7651 10.1177 15.484 10.1186ZM34.873 17.8897C32.1561 17.8897 29.7382 16.5327 28.6227 14.1349C28.5507 13.9632 28.548 13.7702 28.6153 13.5965C28.6825 13.4228 28.8145 13.2819 28.9834 13.2034C29.1523 13.1249 29.345 13.1149 29.5212 13.1755C29.6973 13.2361 29.8431 13.3625 29.928 13.5283C31.3353 16.5586 34.9937 16.9912 37.7178 15.8657C37.8056 15.8308 37.8993 15.8128 37.9938 15.8125H43.8444C44.035 15.8125 44.2178 15.8882 44.3526 16.023C44.4874 16.1578 44.5632 16.3406 44.5632 16.5312C44.5632 16.7219 44.4874 16.9047 44.3526 17.0395C44.2178 17.1743 44.035 17.25 43.8444 17.25H38.1332C37.0407 17.6827 35.9338 17.8897 34.873 17.8897Z" fill="url(#paint1_linear_931_20364)"/>
<path d="M29.2845 14.5474C29.1898 14.5474 29.0961 14.5289 29.0085 14.4927L24.7794 12.7361C21.8167 11.5085 20.73 9.32206 21.798 6.73887C21.8336 6.65112 21.8863 6.57133 21.953 6.50412C22.0197 6.43691 22.0991 6.38364 22.1866 6.34739C22.2741 6.31114 22.3679 6.29264 22.4626 6.29297C22.5573 6.2933 22.6509 6.31245 22.7382 6.34931L30.9693 9.76624C31.0565 9.80249 31.1357 9.85556 31.2024 9.92242C31.2691 9.98928 31.322 10.0686 31.3581 10.1559C31.3941 10.2432 31.4126 10.3368 31.4125 10.4312C31.4124 10.5257 31.3937 10.6192 31.3574 10.7064C31.3212 10.7936 31.2681 10.8728 31.2012 10.9395C31.1344 11.0062 31.055 11.0591 30.9677 11.0951C30.8804 11.1312 30.7869 11.1497 30.6925 11.1496C30.598 11.1495 30.5045 11.1307 30.4173 11.0945L22.9092 7.97799C22.5944 9.46006 23.4052 10.6129 25.3314 11.4107L29.562 13.1674C29.6492 13.2036 29.7285 13.2566 29.7952 13.3235C29.862 13.3903 29.9149 13.4697 29.9509 13.557C29.987 13.6443 30.0054 13.7379 30.0053 13.8323C30.0052 13.9268 29.9864 14.0203 29.9501 14.1075C29.8944 14.2379 29.8016 14.3491 29.6833 14.4273C29.565 14.5055 29.4264 14.5472 29.2845 14.5474ZM32.3651 34.5502C32.2231 34.5502 32.0842 34.508 31.9661 34.4291C31.848 34.3503 31.7559 34.2381 31.7014 34.1069C31.647 33.9757 31.6326 33.8313 31.6602 33.692C31.6877 33.5527 31.7559 33.4246 31.8562 33.324C32.138 33.0437 32.6425 32.9934 32.9229 33.2737C33.2032 33.554 33.2535 33.9594 32.9732 34.2397L32.8725 34.3403C32.8059 34.407 32.7268 34.4598 32.6397 34.4958C32.5527 34.5318 32.4593 34.5503 32.3651 34.5502ZM13.6776 12.9877C13.535 12.9877 13.3957 12.9452 13.2773 12.8658C13.1589 12.7864 13.0668 12.6735 13.0127 12.5416C12.9586 12.4097 12.945 12.2647 12.9735 12.125C13.0021 11.9853 13.0715 11.8573 13.173 11.7572L13.2751 11.6566C13.3419 11.5885 13.4216 11.5345 13.5095 11.4976C13.5974 11.4607 13.6918 11.4416 13.7872 11.4415C13.8825 11.4415 13.9769 11.4604 14.0649 11.4971C14.1529 11.5339 14.2327 11.5878 14.2996 11.6557C14.3665 11.7236 14.4193 11.8041 14.4548 11.8926C14.4903 11.9811 14.5079 12.0757 14.5065 12.1711C14.505 12.2664 14.4846 12.3605 14.4465 12.4479C14.4083 12.5353 14.3532 12.6142 14.2842 12.6801L14.1822 12.7807C14.048 12.9137 13.8665 12.9881 13.6776 12.9877Z" fill="url(#paint2_linear_931_20364)"/>
<defs>
<linearGradient id="paint0_linear_931_20364" x1="38.0937" y1="13.6816" x2="-3.19399" y2="23.3529" gradientUnits="userSpaceOnUse">
<stop stop-color="#DCAD81"/>
<stop offset="0.25" stop-color="#D8A97C"/>
<stop offset="0.5" stop-color="#FFD2A4"/>
<stop offset="0.75" stop-color="#D8A97C"/>
<stop offset="1" stop-color="#DCAD81"/>
</linearGradient>
<linearGradient id="paint1_linear_931_20364" x1="44.5631" y1="2.875" x2="7.30411" y2="9.00498" gradientUnits="userSpaceOnUse">
<stop stop-color="#DCAD81"/>
<stop offset="0.25" stop-color="#D8A97C"/>
<stop offset="0.5" stop-color="#FFD2A4"/>
<stop offset="0.75" stop-color="#D8A97C"/>
<stop offset="1" stop-color="#DCAD81"/>
</linearGradient>
<linearGradient id="paint2_linear_931_20364" x1="33.1599" y1="6.29297" x2="9.58471" y2="9.46403" gradientUnits="userSpaceOnUse">
<stop stop-color="#DCAD81"/>
<stop offset="0.25" stop-color="#D8A97C"/>
<stop offset="0.5" stop-color="#FFD2A4"/>
<stop offset="0.75" stop-color="#D8A97C"/>
<stop offset="1" stop-color="#DCAD81"/>
</linearGradient>
</defs>
</svg>
