<svg width="19" height="19" viewBox="0 0 19 19" fill="none" xmlns="http://www.w3.org/2000/svg">
<path d="M17.0787 3.92586V7.0666C17.0787 7.22279 17.0167 7.37255 16.9062 7.48301C16.7957 7.59347 16.646 7.65549 16.4898 7.65549C16.3336 7.65549 16.1839 7.59347 16.0734 7.48301C15.9629 7.37255 15.9009 7.22279 15.9009 7.0666V3.92586C15.9009 3.38408 15.4612 2.94438 14.9194 2.94438H11.7787C11.6225 2.94438 11.4727 2.88234 11.3623 2.7719C11.2518 2.66146 11.1898 2.51167 11.1898 2.35549C11.1898 2.19931 11.2518 2.04952 11.3623 1.93908C11.4727 1.82864 11.6225 1.7666 11.7787 1.7666H14.9194C15.4919 1.76722 16.0407 1.99492 16.4456 2.39973C16.8504 2.80453 17.0781 3.35338 17.0787 3.92586ZM16.4898 11.1888C16.3336 11.1888 16.1839 11.2508 16.0734 11.3613C15.9629 11.4718 15.9009 11.6215 15.9009 11.7777V14.9185C15.9009 15.4603 15.4612 15.8999 14.9194 15.8999H11.7787C11.6225 15.8999 11.4727 15.962 11.3623 16.0724C11.2518 16.1829 11.1898 16.3326 11.1898 16.4888C11.1898 16.645 11.2518 16.7948 11.3623 16.9052C11.4727 17.0157 11.6225 17.0777 11.7787 17.0777H14.9194C15.4919 17.0771 16.0407 16.8494 16.4456 16.4446C16.8504 16.0398 17.0781 15.491 17.0787 14.9185V11.7777C17.0787 11.6215 17.0167 11.4718 16.9062 11.3613C16.7957 11.2508 16.646 11.1888 16.4898 11.1888ZM7.06758 15.8999H3.92684C3.38506 15.8999 2.94536 15.4603 2.94536 14.9185V11.7777C2.94536 11.6215 2.88331 11.4718 2.77287 11.3613C2.66243 11.2508 2.51265 11.1888 2.35647 11.1888C2.20029 11.1888 2.0505 11.2508 1.94006 11.3613C1.82962 11.4718 1.76758 11.6215 1.76758 11.7777V14.9185C1.7682 15.491 1.9959 16.0398 2.4007 16.4446C2.8055 16.8494 3.35436 17.0771 3.92684 17.0777H7.06758C7.22377 17.0777 7.37352 17.0157 7.48398 16.9052C7.59445 16.7948 7.65647 16.645 7.65647 16.4888C7.65647 16.3326 7.59445 16.1829 7.48398 16.0724C7.37352 15.962 7.22377 15.8999 7.06758 15.8999ZM7.65647 2.35549C7.65647 2.19931 7.59445 2.04952 7.48398 1.93908C7.37352 1.82864 7.22377 1.7666 7.06758 1.7666H3.92684C3.35436 1.76722 2.8055 1.99492 2.4007 2.39973C1.9959 2.80453 1.7682 3.35338 1.76758 3.92586V7.0666C1.76758 7.22279 1.82962 7.37255 1.94006 7.48301C2.0505 7.59347 2.20029 7.65549 2.35647 7.65549C2.51265 7.65549 2.66243 7.59347 2.77287 7.48301C2.88331 7.37255 2.94536 7.22279 2.94536 7.0666V3.92586C2.94536 3.38408 3.38506 2.94438 3.92684 2.94438H7.06758C7.22377 2.94438 7.37352 2.88234 7.48398 2.7719C7.59445 2.66146 7.65647 2.51167 7.65647 2.35549ZM5.69349 6.2814V7.0666C5.69349 7.22279 5.75556 7.37255 5.86597 7.48301C5.97643 7.59347 6.12619 7.65549 6.28237 7.65549C6.43856 7.65549 6.58838 7.59347 6.69878 7.48301C6.80924 7.37255 6.87126 7.22279 6.87126 7.0666V6.2814C6.87126 6.12521 6.80924 5.97545 6.69878 5.86499C6.58838 5.75458 6.43856 5.69251 6.28237 5.69251C6.12619 5.69251 5.97643 5.75458 5.86597 5.86499C5.75556 5.97545 5.69349 6.12521 5.69349 6.2814ZM12.5639 7.65549C12.7201 7.65549 12.8698 7.59347 12.9803 7.48301C13.0907 7.37255 13.1528 7.22279 13.1528 7.0666V6.2814C13.1528 6.12521 13.0907 5.97545 12.9803 5.86499C12.8698 5.75458 12.7201 5.69251 12.5639 5.69251C12.4077 5.69251 12.2579 5.75458 12.1475 5.86499C12.037 5.97545 11.975 6.12521 11.975 6.2814V7.0666C11.975 7.39167 12.2388 7.65549 12.5639 7.65549ZM9.77647 10.6392C9.83106 10.6941 9.89596 10.7377 9.96746 10.7674C10.0389 10.7971 10.1156 10.8125 10.193 10.8125C10.2704 10.8125 10.3471 10.7971 10.4186 10.7674C10.4901 10.7377 10.555 10.6941 10.6096 10.6392C10.9302 10.3189 11.1419 9.9058 11.2145 9.45846C11.2871 9.01107 11.2169 8.55221 11.0139 8.147L10.3426 6.80433C10.3084 6.73455 10.2608 6.6722 10.2024 6.62088C10.144 6.56961 10.076 6.53037 10.0024 6.50548C9.92877 6.48054 9.85096 6.47045 9.77342 6.47577C9.69588 6.48109 9.62017 6.50171 9.55061 6.53641C9.48111 6.5711 9.41914 6.61927 9.36826 6.67807C9.31744 6.73682 9.27875 6.80511 9.25442 6.87893C9.23009 6.9527 9.22061 7.03063 9.22649 7.10811C9.23242 7.1856 9.25359 7.26114 9.28889 7.33042L9.96098 8.67309C10.053 8.85743 10.0847 9.06605 10.0517 9.26941C10.0185 9.47276 9.92224 9.66054 9.77647 9.80608C9.66617 9.91655 9.60426 10.0662 9.60426 10.2223C9.60426 10.3783 9.66617 10.528 9.77647 10.6384V10.6392ZM13.0899 12.0408C13.1589 11.9024 13.1704 11.7424 13.1219 11.5955C13.0733 11.4488 12.9687 11.3271 12.8308 11.2571C12.6924 11.1873 12.532 11.1744 12.3842 11.2214C12.2364 11.2684 12.1129 11.3714 12.0402 11.5084C12.0127 11.5602 11.3571 12.7592 9.42313 12.7592C7.4892 12.7592 6.83357 11.5602 6.80847 11.5147C6.77638 11.4416 6.72976 11.3759 6.67146 11.3214C6.61315 11.2669 6.54442 11.2248 6.46938 11.1978C6.39433 11.1707 6.31452 11.1591 6.23488 11.1638C6.15523 11.1685 6.07736 11.1893 6.00603 11.225C5.93464 11.2607 5.87129 11.3104 5.81974 11.3713C5.76825 11.4323 5.72962 11.503 5.70629 11.5793C5.6829 11.6556 5.67531 11.7359 5.6839 11.8152C5.69254 11.8945 5.71715 11.9713 5.75634 12.0408C5.79403 12.1185 6.73464 13.937 9.42313 13.937C12.1116 13.937 13.0515 12.1185 13.0899 12.0408Z" fill="url(#paint0_linear_10203_5598)"/>
<defs>
<linearGradient id="paint0_linear_10203_5598" x1="17.0772" y1="9.42536" x2="1.76604" y2="9.42536" gradientUnits="userSpaceOnUse">
<stop stop-color="#BE9644"/>
<stop offset="0.15" stop-color="#AA803C"/>
<stop offset="0.43" stop-color="#F3DC87"/>
<stop offset="0.59" stop-color="#FBEFAC"/>
<stop offset="0.73" stop-color="#F3DC87"/>
<stop offset="0.93" stop-color="#AA803C"/>
<stop offset="1" stop-color="#C49D47"/>
</linearGradient>
</defs>
</svg>
