<svg width="30" height="30" viewBox="0 0 30 30" fill="none" xmlns="http://www.w3.org/2000/svg">
<path d="M3.7498 27.1873C3.50116 27.1873 3.2627 27.0885 3.08689 26.9127C2.91107 26.7369 2.8123 26.4984 2.8123 26.2498V7.4998C2.7389 6.86648 2.80965 6.22475 3.01926 5.62263C3.22888 5.02051 3.57193 4.47358 4.02275 4.02275C4.47358 3.57193 5.02051 3.22888 5.62263 3.01926C6.22475 2.80965 6.86648 2.7389 7.4998 2.8123H22.4998C23.1331 2.7389 23.7749 2.80965 24.377 3.01926C24.9791 3.22888 25.526 3.57193 25.9769 4.02275C26.4277 4.47358 26.7707 5.02051 26.9803 5.62263C27.19 6.22475 27.2607 6.86648 27.1873 7.4998V18.7498C27.2607 19.3831 27.19 20.0249 26.9803 20.627C26.7707 21.2291 26.4277 21.776 25.9769 22.2269C25.526 22.6777 24.9791 23.0207 24.377 23.2303C23.7749 23.44 23.1331 23.5107 22.4998 23.4373H7.88855L4.4123 26.9123C4.32549 26.9996 4.22226 27.0689 4.10855 27.1161C3.99484 27.1633 3.87292 27.1875 3.7498 27.1873ZM7.4998 4.6873C5.52855 4.6873 4.6873 5.52855 4.6873 7.4998V23.986L6.8373 21.8373C6.92415 21.7501 7.02739 21.6808 7.14109 21.6336C7.25479 21.5865 7.3767 21.5622 7.4998 21.5623H22.4998C24.4711 21.5623 25.3123 20.7211 25.3123 18.7498V7.4998C25.3123 5.52855 24.4711 4.6873 22.4998 4.6873H7.4998ZM20.9373 10.6248C20.9373 10.3762 20.8385 10.1377 20.6627 9.96189C20.4869 9.78607 20.2484 9.6873 19.9998 9.6873H9.9998C9.75116 9.6873 9.5127 9.78607 9.33689 9.96189C9.16107 10.1377 9.0623 10.3762 9.0623 10.6248C9.0623 10.8734 9.16107 11.1119 9.33689 11.2877C9.5127 11.4635 9.75116 11.5623 9.9998 11.5623H19.9998C20.2484 11.5623 20.4869 11.4635 20.6627 11.2877C20.8385 11.1119 20.9373 10.8734 20.9373 10.6248ZM17.1873 15.6248C17.1873 15.3762 17.0885 15.1377 16.9127 14.9619C16.7369 14.7861 16.4984 14.6873 16.2498 14.6873H9.9998C9.75116 14.6873 9.5127 14.7861 9.33689 14.9619C9.16107 15.1377 9.0623 15.3762 9.0623 15.6248C9.0623 15.8734 9.16107 16.1119 9.33689 16.2877C9.5127 16.4635 9.75116 16.5623 9.9998 16.5623H16.2498C16.4984 16.5623 16.7369 16.4635 16.9127 16.2877C17.0885 16.1119 17.1873 15.8734 17.1873 15.6248Z" fill="white"/>
</svg>
