<svg width="114" height="114" viewBox="0 0 114 114" fill="none" xmlns="http://www.w3.org/2000/svg">
<circle cx="57" cy="57" r="36.5" stroke="url(#paint0_linear_10954_7085)"/>
<circle opacity="0.5" cx="57" cy="57" r="47.5" stroke="url(#paint1_linear_10954_7085)"/>
<circle opacity="0.2" cx="57" cy="57" r="56.5" stroke="url(#paint2_linear_10954_7085)"/>
<circle cx="57" cy="57" r="28" fill="url(#paint3_linear_10954_7085)"/>
<path fill-rule="evenodd" clip-rule="evenodd" d="M56.1504 68.1096V69.849H53.2904C52.9758 69.849 52.7184 70.1062 52.7184 70.423C52.7184 70.7399 52.9758 70.997 53.2904 70.997H60.1545C60.4691 70.997 60.7265 70.7399 60.7265 70.423C60.7265 70.1062 60.4691 69.849 60.1545 69.849H57.2945V68.1096C62.0822 67.8131 65.8746 63.8227 65.8746 58.9432V57.7952C65.8746 57.4783 65.6172 57.2212 65.3026 57.2212C64.988 57.2212 64.7306 57.4783 64.7306 57.7952V58.9432C64.7306 63.3813 61.1441 66.9791 56.7224 66.9791C52.3008 66.9791 48.7143 63.3813 48.7143 58.9432V57.7952C48.7143 57.4783 48.4569 57.2212 48.1423 57.2212C47.8277 57.2212 47.5703 57.4783 47.5703 57.7952V58.9432C47.5703 63.8227 51.3627 67.8131 56.1504 68.1096ZM58.9561 43.8187C58.2374 43.5706 57.4825 43.4444 56.7224 43.4453C52.93 43.4453 49.8583 46.5291 49.8583 50.3332V58.9432C49.8583 62.7473 52.93 65.8311 56.7224 65.8311C60.5149 65.8311 63.5865 62.7473 63.5865 58.9432V53.6337C63.5865 53.3169 63.3291 53.0597 63.0145 53.0597C62.6999 53.0597 62.4425 53.3169 62.4425 53.6337V58.9432C62.4425 62.1133 59.8828 64.6831 56.7224 64.6831C53.5621 64.6831 51.0024 62.1133 51.0024 58.9432V50.3332C51.0024 47.1631 53.5621 44.5933 56.7224 44.5933C57.3745 44.5933 58.0009 44.7027 58.5843 44.9041C58.7277 44.9534 58.8847 44.9436 59.0209 44.8769C59.1571 44.8102 59.2613 44.692 59.3108 44.5482C59.3354 44.477 59.3458 44.4015 59.3413 44.3263C59.3368 44.251 59.3175 44.1773 59.2846 44.1095C59.2516 44.0417 59.2056 43.9811 59.1493 43.9312C59.0929 43.8813 59.0273 43.8431 58.9561 43.8187ZM56.1247 51.2821C56.0842 51.1721 56.0111 51.0772 55.9152 51.0102C55.8193 50.9432 55.7053 50.9073 55.5884 50.9073C55.4716 50.9073 55.3576 50.9432 55.2617 51.0102C55.1658 51.0772 55.0927 51.1721 55.0522 51.2821L54.3715 53.1295L52.5296 53.8128C52.4196 53.8531 52.3246 53.9264 52.2574 54.0227C52.1903 54.119 52.1543 54.2337 52.1543 54.3512C52.1543 54.4687 52.1903 54.5834 52.2574 54.6797C52.3246 54.7761 52.4196 54.8493 52.5296 54.8896L54.3715 55.573L55.0522 57.4204C55.0927 57.5303 55.1658 57.6252 55.2617 57.6922C55.3576 57.7592 55.4716 57.7951 55.5884 57.7951C55.7053 57.7951 55.8193 57.7592 55.9152 57.6922C56.0111 57.6252 56.0842 57.5303 56.1247 57.4204L56.8054 55.573L58.6473 54.8896C58.7567 54.8487 58.851 54.7752 58.9176 54.679C58.9842 54.5827 59.0199 54.4684 59.0199 54.3512C59.0199 54.234 58.9842 54.1197 58.9176 54.0234C58.851 53.9272 58.7567 53.8537 58.6473 53.8128L56.8054 53.1295L56.1247 51.2821ZM55.587 53.1352L55.8244 53.7752C55.8816 53.9325 56.0046 54.0562 56.1619 54.1144L56.7997 54.3512L56.1619 54.588C56.0046 54.6462 55.8816 54.7699 55.8244 54.9272L55.587 55.5672L55.3525 54.9272C55.3238 54.8497 55.2787 54.7793 55.2205 54.7208C55.1623 54.6622 55.0922 54.6169 55.015 54.588L54.3772 54.3512L55.015 54.1144C55.0922 54.0855 55.1623 54.0402 55.2205 53.9817C55.2787 53.9231 55.3238 53.8527 55.3525 53.7752L55.587 53.1352ZM61.2642 43.8201C61.1812 43.5948 60.9667 43.4453 60.7265 43.4453C60.4863 43.4453 60.2718 43.5948 60.1888 43.8201L58.8131 47.5528L55.0951 48.9338C54.985 48.9741 54.89 49.0474 54.8229 49.1437C54.7557 49.24 54.7197 49.3547 54.7197 49.4723C54.7197 49.5898 54.7557 49.7045 54.8229 49.8008C54.89 49.8971 54.985 49.9704 55.0951 50.0107L58.8131 51.3917L60.1888 55.1244C60.2718 55.3497 60.4863 55.4992 60.7265 55.4992C60.9667 55.4992 61.1812 55.3497 61.2642 55.1244L62.6399 51.3917L66.3579 50.0107C66.468 49.9704 66.563 49.8971 66.6301 49.8008C66.6973 49.7045 66.7333 49.5898 66.7333 49.4723C66.7333 49.3547 66.6973 49.24 66.6301 49.1437C66.563 49.0474 66.468 48.9741 66.3579 48.9338L62.6399 47.5528L61.2642 43.8201ZM60.7265 45.6733L61.6589 48.1986C61.7161 48.3558 61.8391 48.4795 61.9964 48.5378L64.5132 49.4723L61.9964 50.4067C61.8391 50.465 61.7161 50.5887 61.6589 50.7459L60.7265 53.2712L59.7941 50.7459C59.7369 50.5887 59.6139 50.465 59.4566 50.4067L56.9398 49.4723L59.4566 48.5378C59.6139 48.4795 59.7369 48.3558 59.7941 48.1986L60.7265 45.6733ZM64.7306 45.1673H64.1585C63.8439 45.1673 63.5865 45.4244 63.5865 45.7413C63.5865 46.0581 63.8439 46.3153 64.1585 46.3153H64.7306V46.8893C64.7306 47.2061 64.988 47.4633 65.3026 47.4633C65.6172 47.4633 65.8746 47.2061 65.8746 46.8893V46.3153H66.4466C66.7612 46.3153 67.0186 46.0581 67.0186 45.7413C67.0186 45.4244 66.7612 45.1673 66.4466 45.1673H65.8746V44.5933C65.8746 44.2765 65.6172 44.0193 65.3026 44.0193C64.988 44.0193 64.7306 44.2765 64.7306 44.5933V45.1673Z" fill="black"/>
<defs>
<linearGradient id="paint0_linear_10954_7085" x1="92.9928" y1="57.0151" x2="20.9928" y2="57.0151" gradientUnits="userSpaceOnUse">
<stop stop-color="#BE9644"/>
<stop offset="0.15" stop-color="#AA803C"/>
<stop offset="0.43" stop-color="#F3DC87"/>
<stop offset="0.59" stop-color="#FBEFAC"/>
<stop offset="0.73" stop-color="#F3DC87"/>
<stop offset="0.93" stop-color="#AA803C"/>
<stop offset="1" stop-color="#C49D47"/>
</linearGradient>
<linearGradient id="paint1_linear_10954_7085" x1="103.991" y1="57.0197" x2="9.99055" y2="57.0197" gradientUnits="userSpaceOnUse">
<stop stop-color="#BE9644"/>
<stop offset="0.15" stop-color="#AA803C"/>
<stop offset="0.43" stop-color="#F3DC87"/>
<stop offset="0.59" stop-color="#FBEFAC"/>
<stop offset="0.73" stop-color="#F3DC87"/>
<stop offset="0.93" stop-color="#AA803C"/>
<stop offset="1" stop-color="#C49D47"/>
</linearGradient>
<linearGradient id="paint2_linear_10954_7085" x1="112.989" y1="57.0234" x2="0.988738" y2="57.0234" gradientUnits="userSpaceOnUse">
<stop stop-color="#BE9644"/>
<stop offset="0.15" stop-color="#AA803C"/>
<stop offset="0.43" stop-color="#F3DC87"/>
<stop offset="0.59" stop-color="#FBEFAC"/>
<stop offset="0.73" stop-color="#F3DC87"/>
<stop offset="0.93" stop-color="#AA803C"/>
<stop offset="1" stop-color="#C49D47"/>
</linearGradient>
<linearGradient id="paint3_linear_10954_7085" x1="84.9944" y1="57.0117" x2="28.9944" y2="57.0117" gradientUnits="userSpaceOnUse">
<stop stop-color="#BE9644"/>
<stop offset="0.15" stop-color="#AA803C"/>
<stop offset="0.43" stop-color="#F3DC87"/>
<stop offset="0.59" stop-color="#FBEFAC"/>
<stop offset="0.73" stop-color="#F3DC87"/>
<stop offset="0.93" stop-color="#AA803C"/>
<stop offset="1" stop-color="#C49D47"/>
</linearGradient>
</defs>
</svg>
