<svg width="30" height="30" viewBox="0 0 30 30" fill="none" xmlns="http://www.w3.org/2000/svg">
<path d="M6.84615 5.03467C6.36566 5.03485 5.90492 5.22585 5.56524 5.56567C5.22562 5.90547 5.03483 6.36623 5.03483 6.84666C5.03483 7.32708 5.22562 7.78784 5.56524 8.12765L12.4378 15.0006L5.56524 21.873C5.22552 22.2128 5.03467 22.6736 5.03467 23.1541C5.03467 23.6346 5.22552 24.0955 5.56524 24.4353C5.90505 24.775 6.36585 24.9658 6.84631 24.9658C7.32678 24.9658 7.78758 24.775 8.12739 24.4353L15.0003 17.5625L21.8729 24.4355C22.2127 24.7751 22.6735 24.9659 23.154 24.9659C23.6344 24.9659 24.0952 24.7751 24.435 24.4355C24.7748 24.0956 24.9657 23.6348 24.9657 23.1542C24.9657 22.6737 24.7748 22.2128 24.435 21.873L17.5623 15.0006L24.4352 8.12765C24.7748 7.78784 24.9656 7.32708 24.9656 6.84666C24.9656 6.36623 24.7748 5.90547 24.4352 5.56567C24.0955 5.22581 23.6347 5.0348 23.1541 5.03467C22.9162 5.03471 22.6805 5.08163 22.4607 5.17274C22.2409 5.26385 22.0411 5.39736 21.8729 5.56567L15.0003 12.4384L8.12739 5.5655C7.78759 5.22566 7.32672 5.03472 6.84615 5.03467Z" fill="white"/>
</svg>
