<svg width="62" height="62" viewBox="0 0 62 62" fill="none" xmlns="http://www.w3.org/2000/svg">
<g clip-path="url(#clip0_931_20505)">
<path d="M61.0934 39.3442H60.8517V29.9118C60.8517 29.6713 60.7561 29.4407 60.5861 29.2707C60.4161 29.1007 60.1855 29.0052 59.9451 29.0052H54.738V22.4589C54.738 22.2184 54.6424 21.9878 54.4724 21.8178C54.3024 21.6478 54.0718 21.5523 53.8314 21.5523H49.7789L46.3427 16.6583C46.2591 16.5391 46.148 16.4419 46.0188 16.3748C45.8897 16.3076 45.7463 16.2726 45.6007 16.2726H41.1101V0.961279C41.1101 0.720836 41.0146 0.490241 40.8445 0.320222C40.6745 0.150203 40.4439 0.0546875 40.2035 0.0546875H24.8562C24.6158 0.0546875 24.3852 0.150203 24.2152 0.320222C24.0451 0.490241 23.9496 0.720836 23.9496 0.961279V6.49886C23.9496 7.67103 25.7628 7.67103 25.7628 6.49886V1.86787H39.2968L39.268 31.054H25.7628V11.1783C25.7628 10.0062 23.9496 10.0062 23.9496 11.1783V15.6095H22.2571V11.1353C22.2571 10.8949 22.1616 10.6643 21.9915 10.4942C21.8215 10.3242 21.5909 10.2287 21.3505 10.2287H17.6911V4.7848C17.6911 3.61264 15.8779 3.61264 15.8779 4.7848V10.2286H12.2184C11.978 10.2286 11.7474 10.3241 11.5774 10.4941C11.4074 10.6641 11.3118 10.8947 11.3118 11.1352V15.6094H8.71283C8.47239 15.6094 8.24179 15.7049 8.07177 15.8749C7.90175 16.0449 7.80624 16.2755 7.80624 16.516V28.6198L0.549636 31.7288C0.386537 31.7988 0.247531 31.915 0.149835 32.0631C0.0521386 32.2113 4.31127e-05 32.3848 0 32.5623L0 37.4757C0 38.6478 1.81318 38.6478 1.81318 37.4757V33.1602L10.6207 29.3866V34.8476H7.56424C6.39208 34.8476 6.39208 36.6608 7.56424 36.6608H10.6208V38.7397H7.56424C6.39208 38.7397 6.39208 40.5529 7.56424 40.5529H10.6208V42.7222H7.9693C7.72886 42.7222 7.49827 42.8177 7.32825 42.9877C7.15823 43.1577 7.06271 43.3883 7.06271 43.6288V60.1314H1.81318V42.064C1.81318 40.8918 0 40.8918 0 42.064V61.0381C0 61.2785 0.0955156 61.5091 0.265535 61.6792C0.435554 61.8492 0.666149 61.9447 0.906592 61.9447H61.0934C61.3339 61.9447 61.5644 61.8492 61.7345 61.6792C61.9045 61.5091 62 61.2785 62 61.0381V40.2508C62 40.0103 61.9045 39.7798 61.7345 39.6097C61.5644 39.4397 61.3339 39.3442 61.0934 39.3442ZM48.8097 41.1574H60.1868V53.8257H48.8097V41.1574ZM59.0385 30.8184V39.3442H54.738V30.8184H59.0385ZM52.9248 29.9118V39.3442H48.8097V37.0937C48.8097 36.8532 48.7142 36.6226 48.5442 36.4526C48.3741 36.2826 48.1435 36.1871 47.9031 36.1871H47.6414V31.9606C47.6414 31.7201 47.5459 31.4895 47.3759 31.3195C47.2058 31.1495 46.9753 31.054 46.7348 31.054H41.1101V23.3656H52.9248V29.9118ZM45.1295 18.0858L47.5635 21.5524H41.1101V18.0858H45.1295ZM45.8282 32.8671V36.1871H21.2313V32.8671H45.8282ZM13.125 12.0419H20.4439V15.6095H13.125V12.0419ZM12.4338 28.0119C12.4338 27.4114 11.783 26.916 11.1702 27.1786L9.6193 27.8431V17.4227H23.9496V31.054H20.3247C20.0843 31.054 19.8537 31.1495 19.6836 31.3195C19.5136 31.4895 19.4181 31.7201 19.4181 31.9606V36.1871H18.59C18.3495 36.1871 18.1189 36.2826 17.9489 36.4526C17.7789 36.6226 17.6834 36.8532 17.6834 37.0937V42.7222H12.4338V28.0119ZM8.8759 60.1315V44.5355H17.6834V60.1315H8.8759ZM24.9824 60.1315V42.9869H26.3927V60.1315H24.9824ZM32.5414 60.1315V42.9869H33.9517V60.1315H32.5414ZM40.1005 60.1315V42.9869H41.5108V60.1315H40.1005ZM43.324 60.1315V42.0803C43.324 41.8399 43.2285 41.6093 43.0584 41.4392C42.8884 41.2692 42.6578 41.1737 42.4174 41.1737H39.1939C38.9535 41.1737 38.7229 41.2692 38.5528 41.4392C38.3828 41.6093 38.2873 41.8399 38.2873 42.0803V60.1315H35.7649V42.0803C35.7649 41.8399 35.6694 41.6093 35.4994 41.4392C35.3294 41.2692 35.0988 41.1737 34.8583 41.1737H31.6349C31.3944 41.1737 31.1638 41.2692 30.9938 41.4392C30.8238 41.6093 30.7283 41.8399 30.7283 42.0803V60.1315H28.2058V42.0803C28.2058 41.8399 28.1102 41.6093 27.9402 41.4392C27.7702 41.2692 27.5396 41.1737 27.2992 41.1737H24.0757C23.8352 41.1737 23.6047 41.2692 23.4346 41.4392C23.2646 41.6093 23.1691 41.8399 23.1691 42.0803V60.1315H19.4966V38.0003H46.9965V56.6663C46.9965 57.8384 48.8097 57.8384 48.8097 56.6663V55.6388H60.1868V60.1315H43.324Z" fill="white"/>
<path d="M11.5285 51.5504C11.769 51.5504 11.9995 51.4549 12.1696 51.2849C12.3396 51.1148 12.4351 50.8843 12.4351 50.6438V48.6474C12.4351 48.4069 12.3396 48.1763 12.1696 48.0063C11.9995 47.8363 11.769 47.7408 11.5285 47.7408C11.2881 47.7408 11.0575 47.8363 10.8875 48.0063C10.7174 48.1763 10.6219 48.4069 10.6219 48.6474V50.6438C10.6219 50.8843 10.7174 51.1148 10.8875 51.2849C11.0575 51.4549 11.2881 51.5504 11.5285 51.5504ZM15.0398 51.5504C15.2802 51.5504 15.5108 51.4549 15.6809 51.2849C15.8509 51.1148 15.9464 50.8843 15.9464 50.6438V48.6474C15.9464 48.4069 15.8509 48.1763 15.6809 48.0063C15.5108 47.8363 15.2802 47.7408 15.0398 47.7408C14.7994 47.7408 14.5688 47.8363 14.3987 48.0063C14.2287 48.1763 14.1332 48.4069 14.1332 48.6474V50.6438C14.1332 50.8843 14.2287 51.1148 14.3987 51.2849C14.5688 51.4549 14.7994 51.5504 15.0398 51.5504ZM12.4351 56.2259V54.2294C12.4351 53.989 12.3396 53.7584 12.1696 53.5884C11.9995 53.4184 11.769 53.3228 11.5285 53.3228C11.2881 53.3228 11.0575 53.4184 10.8875 53.5884C10.7174 53.7584 10.6219 53.989 10.6219 54.2294V56.2259C10.6219 56.4663 10.7174 56.6969 10.8875 56.8669C11.0575 57.0369 11.2881 57.1325 11.5285 57.1325C11.769 57.1325 11.9995 57.0369 12.1696 56.8669C12.3396 56.6969 12.4351 56.4663 12.4351 56.2259ZM15.0398 57.1325C15.2802 57.1325 15.5108 57.0369 15.6809 56.8669C15.8509 56.6969 15.9464 56.4663 15.9464 56.2259V54.2294C15.9464 53.989 15.8509 53.7584 15.6809 53.5884C15.5108 53.4184 15.2802 53.3228 15.0398 53.3228C14.7994 53.3228 14.5688 53.4184 14.3987 53.5884C14.2287 53.7584 14.1332 53.989 14.1332 54.2294V56.2259C14.1332 56.4663 14.2287 56.6969 14.3987 56.8669C14.5688 57.0369 14.7994 57.1325 15.0398 57.1325ZM44.5133 26.2184C44.2729 26.2184 44.0423 26.3139 43.8723 26.4839C43.7023 26.654 43.6067 26.8846 43.6067 27.125V29.1214C43.6067 29.6221 44.0125 30.028 44.5133 30.028C45.0141 30.028 45.4199 29.6221 45.4199 29.1214V27.125C45.4199 26.8846 45.3244 26.654 45.1544 26.4839C44.9844 26.3139 44.7538 26.2184 44.5133 26.2184ZM48.5885 27.125V29.1214C48.5885 29.6221 48.9943 30.028 49.4951 30.028C49.9959 30.028 50.4017 29.6221 50.4017 29.1214V27.125C50.4017 26.6243 49.9959 26.2184 49.4951 26.2184C48.9943 26.2184 48.5885 26.6243 48.5885 27.125ZM49.4951 31.8005C49.2547 31.8005 49.0241 31.896 48.8541 32.066C48.684 32.236 48.5885 32.4666 48.5885 32.7071V34.7035C48.5885 35.2042 48.9943 35.6101 49.4951 35.6101C49.9959 35.6101 50.4017 35.2042 50.4017 34.7035V32.7071C50.4017 32.4666 50.3062 32.236 50.1362 32.066C49.9662 31.896 49.7356 31.8005 49.4951 31.8005ZM29.3388 7.00459H35.7235C36.8957 7.00459 36.8957 5.19141 35.7235 5.19141H29.3388C28.1665 5.19141 28.1665 7.00459 29.3388 7.00459ZM29.3388 12.0413H35.7235C36.8957 12.0413 36.8957 10.2281 35.7235 10.2281H29.3388C28.1665 10.2281 28.1665 12.0413 29.3388 12.0413ZM29.3388 17.0779H35.7235C36.8957 17.0779 36.8957 15.2647 35.7235 15.2647H29.3388C28.1665 15.2647 28.1665 17.0779 29.3388 17.0779ZM29.3388 22.1145H35.7235C36.8957 22.1145 36.8957 20.3013 35.7235 20.3013H29.3388C28.1665 20.3013 28.1665 22.1145 29.3388 22.1145ZM29.3388 27.1511H35.7235C36.8957 27.1511 36.8957 25.3379 35.7235 25.3379H29.3388C28.1665 25.3379 28.1665 27.1511 29.3388 27.1511ZM57.2395 44.6383H51.7597C50.5875 44.6383 50.5875 46.4515 51.7597 46.4515H57.2395C58.4116 46.4515 58.4116 44.6383 57.2395 44.6383ZM57.2395 48.7056H51.7597C50.5875 48.7056 50.5875 50.5188 51.7597 50.5188H57.2395C58.4116 50.5188 58.4116 48.7056 57.2395 48.7056ZM4.42264 34.847C3.25592 34.847 3.25399 36.6602 4.42264 36.6602C5.58937 36.6602 5.5913 34.847 4.42264 34.847ZM4.42264 40.5524C5.58937 40.5524 5.5913 38.7392 4.42264 38.7392C3.25592 38.7392 3.25399 40.5524 4.42264 40.5524ZM4.42264 44.4444C5.58937 44.4444 5.5913 42.6312 4.42264 42.6312C3.25592 42.6312 3.25399 44.4444 4.42264 44.4444ZM4.42264 48.3366C5.58937 48.3366 5.5913 46.5234 4.42264 46.5234C3.25592 46.5234 3.25399 48.3366 4.42264 48.3366ZM4.42264 52.2287C5.58937 52.2287 5.5913 50.4155 4.42264 50.4155C3.25592 50.4155 3.25399 52.2287 4.42264 52.2287ZM4.42264 56.1208C5.58937 56.1208 5.5913 54.3076 4.42264 54.3076C3.25592 54.3076 3.25399 56.1208 4.42264 56.1208ZM22.0803 25.3574V20.8049C22.0803 20.5644 21.9848 20.3338 21.8147 20.1638C21.6447 19.9938 21.4141 19.8983 21.1737 19.8983H12.3979C12.1574 19.8983 11.9268 19.9938 11.7568 20.1638C11.5868 20.3338 11.4913 20.5644 11.4913 20.8049V25.3574C11.4913 25.5978 11.5868 25.8284 11.7568 25.9984C11.9268 26.1685 12.1574 26.264 12.3979 26.264H21.1737C21.4141 26.264 21.6447 26.1685 21.8147 25.9984C21.9848 25.8284 22.0803 25.5978 22.0803 25.3574ZM20.2671 24.4508H13.3045V21.7114H20.2671V24.4508Z" fill="white"/>
</g>
<defs>
<clipPath id="clip0_931_20505">
<rect width="62" height="62" fill="white"/>
</clipPath>
</defs>
</svg>
