<svg width="24" height="25" viewBox="0 0 24 25" fill="none" xmlns="http://www.w3.org/2000/svg">
<path d="M12 12.5625C14.8875 12.5625 17.25 9.89375 17.25 6.65625C17.25 3.41875 14.8875 0.75 12 0.75C9.1125 0.75 6.75 3.41875 6.75 6.65625C6.75 9.89375 9.1125 12.5625 12 12.5625ZM12 1.625C14.4062 1.625 16.375 3.9 16.375 6.65625C16.375 9.4125 14.4062 11.6875 12 11.6875C9.59375 11.6875 7.625 9.4125 7.625 6.65625C7.625 3.9 9.59375 1.625 12 1.625ZM17.5562 14.4875C17.425 14.4 15.7188 13.7875 14.1438 13.5687C14.0563 13.5687 13.925 13.5688 13.8375 13.6562L12 15.0563L10.1625 13.6562C10.1187 13.6125 10.075 13.6125 10.0312 13.5687H9.85625C8.325 13.7875 6.75 14.3125 6.44375 14.4875C0.274999 17.0688 0.1875 23.85 0.1875 23.9375C0.1875 24.2 0.3625 24.375 0.625 24.375H23.375C23.6375 24.375 23.8125 24.2 23.8125 23.9375C23.8125 23.85 23.725 17.0688 17.5562 14.4875ZM17.25 18.25C17.7313 18.25 18.125 18.6437 18.125 19.125C18.125 19.6063 17.7313 20 17.25 20C16.7687 20 16.375 19.6063 16.375 19.125C16.375 18.6437 16.7687 18.25 17.25 18.25ZM2.15625 19.6062C3.075 17.725 4.475 16.3688 6.3125 15.4938V17.4625C4.60625 17.7688 4.125 19.7812 4.125 20.9187C4.125 21.1812 4.3 21.3562 4.5625 21.3562H5.4375C5.7 21.3562 5.875 21.1812 5.875 20.9187C5.875 20.6562 5.7 20.4812 5.4375 20.4812H5.04375C5.13125 19.7375 5.48125 18.2937 6.75 18.2937C8.01875 18.2937 8.36875 19.7375 8.45625 20.4812H8.0625C7.8 20.4812 7.625 20.6562 7.625 20.9187C7.625 21.1812 7.8 21.3562 8.0625 21.3562H8.9375C9.2 21.3562 9.375 21.1812 9.375 20.9187C9.375 19.7812 8.89375 17.7688 7.1875 17.4625V15.1438C7.975 14.8375 8.85 14.6187 9.76875 14.5312L11.5625 15.8875V23.5H1.10625C1.15 22.7563 1.36875 21.225 2.15625 19.6062ZM12.4375 23.5V15.8438L14.2312 14.4875C15.1937 14.6188 16.0688 14.8375 16.8125 15.1438V17.4625C16.0688 17.6375 15.5 18.3375 15.5 19.1687C15.5 20.1312 16.2875 20.9187 17.25 20.9187C18.2125 20.9187 19 20.1312 19 19.1687C19 18.3375 18.4312 17.6812 17.6875 17.4625V15.4938C22.1063 17.5938 22.8062 22.0562 22.9375 23.5H12.4375Z" fill="url(#paint0_linear_1697_2129)"/>
<defs>
<linearGradient id="paint0_linear_1697_2129" x1="23.8125" y1="0.750003" x2="-3.29782" y2="5.85082" gradientUnits="userSpaceOnUse">
<stop stop-color="#DCAD81"/>
<stop offset="0.25" stop-color="#D8A97C"/>
<stop offset="0.5" stop-color="#FFD2A4"/>
<stop offset="0.75" stop-color="#D8A97C"/>
<stop offset="1" stop-color="#DCAD81"/>
</linearGradient>
</defs>
</svg>
