<svg width="82" height="82" viewBox="0 0 82 82" fill="none" xmlns="http://www.w3.org/2000/svg">
<path d="M64.1656 82H17.8344C7.98475 82 0 74.0153 0 64.1656V17.8344C0 7.98475 7.98475 0 17.8344 0H64.1656C74.0153 0 82 7.98475 82 17.8344V64.1656C82 74.0153 74.0153 82 64.1656 82Z" fill="black"/>
<mask id="mask0_4008_26449" style="mask-type:luminance" maskUnits="userSpaceOnUse" x="0" y="0" width="82" height="82">
<path d="M64.1656 82H17.8344C7.98475 82 0 74.0153 0 64.1656V17.8344C0 7.98475 7.98475 0 17.8344 0H64.1656C74.0153 0 82 7.98475 82 17.8344V64.1656C82 74.0153 74.0153 82 64.1656 82Z" fill="white"/>
</mask>
<g mask="url(#mask0_4008_26449)">
<path d="M64.1656 82H17.8344C7.98475 82 0 74.0153 0 64.1656V17.8344C0 7.98475 7.98475 0 17.8344 0H64.1656C74.0153 0 82 7.98475 82 17.8344V64.1656C82 74.0153 74.0153 82 64.1656 82Z" fill="white"/>
</g>
<mask id="mask1_4008_26449" style="mask-type:luminance" maskUnits="userSpaceOnUse" x="0" y="0" width="82" height="82">
<path d="M64.1656 82H17.8344C7.98475 82 0 74.0153 0 64.1656V17.8344C0 7.98475 7.98475 0 17.8344 0H64.1656C74.0153 0 82 7.98475 82 17.8344V64.1656C82 74.0153 74.0153 82 64.1656 82Z" fill="white"/>
</mask>
<g mask="url(#mask1_4008_26449)">
</g>
<g clip-path="url(#clip0_4008_26449)">
<path d="M19.4635 59.7076H27.3982V40.4378L22.2025 31.365L16.063 31.9363V56.3071C16.063 58.1859 17.5848 59.7076 19.4635 59.7076Z" fill="#0085F7"/>
<path d="M54.6025 59.7076H62.5372C64.416 59.7076 65.9378 58.1859 65.9378 56.3071V31.9363L59.8072 31.365L54.6026 40.4378V59.7076H54.6025Z" fill="#00A94B"/>
<path d="M54.6028 25.7019L49.9419 34.596L54.6028 40.4378L65.938 31.9363V27.4023C65.938 23.1997 61.1404 20.7995 57.7767 23.3216L54.6028 25.7019Z" fill="#FFBC00"/>
<path fill-rule="evenodd" clip-rule="evenodd" d="M27.3983 40.4377L22.957 31.056L27.3983 25.7019L41.0006 35.9036L54.6028 25.7019V40.4377L41.0006 50.6394L27.3983 40.4377Z" fill="#FF4131"/>
<path d="M16.063 27.4023V31.9363L27.3982 40.4378V25.7019L24.2244 23.3216C20.8606 20.7995 16.063 23.1997 16.063 27.4023Z" fill="#E51C19"/>
</g>
<defs>
<clipPath id="clip0_4008_26449">
<rect width="49.875" height="49.875" fill="white" transform="translate(16.063 16.0625)"/>
</clipPath>
</defs>
</svg>
