<svg width="63" height="62" viewBox="0 0 63 62" fill="none" xmlns="http://www.w3.org/2000/svg">
<path d="M57.9315 31.0076C59.2362 28.4069 60.263 25.7925 60.9759 23.2164C63.2109 15.1447 62.1287 8.38572 57.9277 4.18534C53.7274 -0.0152799 46.9683 -1.0981 38.8966 1.13705C36.3206 1.84981 33.7062 2.87717 31.1055 4.18134C27.87 2.55748 24.6299 1.36931 21.5078 0.684763C14.2564 -0.904471 8.14452 0.338556 4.29834 4.18534C1.82973 6.65384 0.397914 10.1226 0.158633 14.2167C-0.0566719 17.8996 0.68975 22.1261 2.31652 26.4798C0.980617 27.5361 0.121094 29.1689 0.121094 31C0.121094 32.831 0.980617 34.4639 2.3164 35.5202C0.689629 39.8738 -0.0569141 44.1009 0.158512 47.7833C0.398277 51.8773 1.82961 55.346 4.29834 57.8147C7.05516 60.5719 10.923 61.9933 15.5952 61.9933C16.5331 61.9933 17.5036 61.9362 18.5047 61.8208C22.5107 61.3585 26.7911 59.9939 31.1116 57.8213C33.7103 59.1245 36.3229 60.1505 38.8966 60.8628C41.6435 61.6235 44.2385 62 46.6325 62C51.2723 62 55.1567 60.5856 57.9277 57.8146C61.7744 53.9686 63.0174 47.8566 61.4281 40.6048C60.7437 37.4832 59.5555 34.243 57.9315 31.0076ZM39.3821 2.89049C46.7949 0.837947 52.9243 1.75475 56.6412 5.47184C60.3582 9.18881 61.275 15.3182 59.2225 22.731C58.6478 24.8075 57.8583 26.9125 56.8763 29.0155C55.1168 25.86 52.9526 22.7333 50.4451 19.7509C51.2133 18.7718 51.673 17.5396 51.673 16.2014C51.673 14.9076 51.2545 13.6854 50.4617 12.6665L49.0255 13.7832C49.5677 14.48 49.8538 15.3163 49.8538 16.2014C49.8538 18.3753 48.0852 20.1436 45.9117 20.1436C43.7382 20.1436 41.9695 18.3753 41.9695 16.2014C41.9695 14.0274 43.7381 12.2591 45.9117 12.2591C46.6195 12.2585 47.3143 12.4487 47.923 12.8098L48.853 11.246C47.9628 10.7177 46.9467 10.4391 45.9116 10.4395C44.5735 10.4395 43.3413 10.8996 42.3626 11.6678C39.3797 9.16036 36.253 6.99629 33.0975 5.23619C35.2005 4.25473 37.3055 3.46508 39.3821 2.89049ZM5.58484 5.47196C10.5039 0.552892 19.5236 0.736349 29.1211 5.23111C24.4359 7.84407 19.8405 11.3431 15.6481 15.535C12.5394 18.6437 9.80339 21.9827 7.50503 25.4684C6.97793 25.3154 6.43182 25.2379 5.88298 25.2381C5.2144 25.2378 4.55091 25.3542 3.92235 25.582C0.770035 16.9904 1.36037 9.69595 5.58484 5.47196ZM15.6423 60.1676C11.5266 60.1676 8.02755 58.9707 5.58436 56.5281C1.36025 52.304 0.76943 45.0099 3.92223 36.4181C5.07358 36.8354 6.32813 36.874 7.50297 36.5283C9.80133 40.0153 12.5383 43.3553 15.648 46.465C19.8389 50.6554 24.433 54.1535 29.1167 56.7664C24.3057 59.018 19.6771 60.1679 15.6423 60.1675V60.1676ZM31.1078 55.7764C26.1935 53.1951 21.3407 49.5841 16.9346 45.1782C13.9739 42.2173 11.3623 39.0442 9.16038 35.735C10.6599 34.6938 11.6443 32.9601 11.6443 31.0005C11.6443 30.8297 11.6372 30.657 11.6221 30.4873L9.80932 30.6476C9.81985 30.7638 9.82506 30.8822 9.82506 31C9.82506 33.174 8.05637 34.9422 5.88286 34.9422C3.70934 34.9422 1.94077 33.174 1.94077 31C1.94077 28.826 3.70947 27.0578 5.88298 27.0578C7.3843 27.0578 8.73582 27.8921 9.40935 29.235L11.0356 28.4196C10.591 27.5327 9.94289 26.7981 9.16438 26.2584C11.3659 22.952 13.9759 19.7804 16.9347 16.8216C21.3418 12.4145 26.1965 8.8024 31.1121 6.22117C34.4578 7.98224 37.8428 10.2527 41.1222 13.0024C40.487 13.9483 40.1484 15.0621 40.1497 16.2015C40.1497 19.3782 42.7347 21.9629 45.9116 21.9629C47.0947 21.9629 48.1948 21.6044 49.1107 20.9904C51.8603 24.2698 54.1304 27.6552 55.8914 31.0005C53.3101 35.9161 49.6981 40.7707 45.2915 45.1784C44.8066 45.6627 44.3084 46.1442 43.8052 46.6159C42.8009 45.7663 41.5044 45.2526 40.0892 45.2526C38.7954 45.2526 37.5731 45.6717 36.5542 46.464L37.6715 47.9002C38.3678 47.3585 39.2041 47.0724 40.0892 47.0719C42.2627 47.0719 44.0313 48.8405 44.0313 51.014C44.0313 53.188 42.2627 54.9562 40.0892 54.9562C37.9155 54.9562 36.147 53.188 36.147 51.014C36.147 50.3045 36.3371 49.6092 36.6976 49.0032L35.1338 48.0727C34.6055 48.9629 34.3269 49.979 34.3273 51.0141C34.3265 51.8963 34.5297 52.7667 34.9209 53.5574C33.6461 54.3711 32.3726 55.1108 31.1078 55.7764ZM56.641 56.528C52.924 60.2456 46.7946 61.1618 39.3819 59.1097C37.3067 58.5351 35.2036 57.7466 33.1019 56.7655C34.0767 56.2202 35.0348 55.6459 35.9751 55.0433C37.0219 56.1113 38.4789 56.7759 40.0891 56.7759C43.2658 56.7759 45.8509 54.1914 45.8509 51.0145C45.852 49.9481 45.5552 48.9025 44.9942 47.9956C45.5304 47.4942 46.0582 46.9839 46.5775 46.465C50.7698 42.2721 54.2683 37.6767 56.8817 32.9914C61.3765 42.5895 61.5599 51.609 56.641 56.528Z" fill="white"/>
<path d="M46.0327 40.4001H44.153V35.8159C44.153 33.7886 42.7902 31.9883 40.839 31.4377L40.1588 31.2461L39.665 32.9972L40.3452 33.1893C41.5154 33.5194 42.3333 34.5993 42.3333 35.8159V40.4001H39.0581V37.9134H37.2389V40.4001H29.0508V42.2192H46.0328L46.0327 40.4001Z" fill="white"/>
<path d="M34.1218 31.4342L37.9136 32.5042L38.4079 30.7526L34.6913 29.7044V27.2882C36.3739 26.1406 37.4813 24.2093 37.4813 22.0234V19.3545C37.4813 15.8434 34.6247 12.9863 31.113 12.9863C27.6016 12.9863 24.7446 15.8434 24.7446 19.3546V22.0234C24.7446 24.2092 25.8519 26.1406 27.5345 27.2882V29.7044L21.3871 31.438C19.4359 31.9886 18.0731 33.7889 18.0731 35.8163V40.4004H16.1934V42.2196H27.2313V40.4004H24.9873V37.9137H23.168V40.4004H19.8928V35.8163C19.8928 34.5996 20.7106 33.5198 21.8809 33.1896L28.1039 31.4347C28.8704 32.2729 29.9526 32.7586 31.113 32.7586C32.2733 32.7586 33.356 32.2724 34.1218 31.4342ZM31.113 14.806C33.6208 14.806 35.6615 16.8467 35.6615 19.3551V20.3683L33.749 17.8387H26.8249C27.4507 16.0737 29.1362 14.806 31.113 14.806ZM26.5643 22.0234V19.6584H32.8437L35.5106 23.1852C34.9955 25.1326 33.2193 26.5721 31.113 26.5721C28.605 26.5721 26.5643 24.5314 26.5643 22.0234ZM29.3543 30.0993V28.1424C30.5032 28.4747 31.7227 28.4747 32.8716 28.1424V30.0993C32.444 30.6287 31.8036 30.939 31.113 30.939C30.4224 30.939 29.7814 30.6287 29.3543 30.0993Z" fill="white"/>
<path d="M35.9178 35.7213L33.355 34.9985L33.8493 33.2475L36.4116 33.9702L35.9178 35.7213ZM39.9121 34.9546L39.4178 36.7057L37.6666 36.2119L38.1609 34.4608L39.9121 34.9546ZM45.0018 15.291H46.821V17.1108H45.0019L45.0018 15.291ZM39.1793 50.1041H40.9985V51.9233H39.1793V50.1041ZM4.97266 30.0895H6.79245V31.9088H4.97266V30.0895Z" fill="white"/>
</svg>
