<svg width="80" height="80" viewBox="0 0 80 80" fill="none" xmlns="http://www.w3.org/2000/svg">
<g clip-path="url(#clip0_931_20487)">
<path d="M35.7173 25.0505C35.4065 25.0505 35.1085 25.1739 34.8887 25.3937C34.6689 25.6135 34.5455 25.9115 34.5455 26.2223V27.475C34.5455 27.7858 34.6689 28.0839 34.8887 28.3036C35.1085 28.5234 35.4065 28.6469 35.7173 28.6469C36.0281 28.6469 36.3262 28.5234 36.546 28.3036C36.7658 28.0839 36.8892 27.7858 36.8892 27.475V26.2223C36.8892 25.9115 36.7658 25.6135 36.546 25.3937C36.3262 25.1739 36.0281 25.0505 35.7173 25.0505ZM50.7473 25.0505C50.5934 25.0504 50.4411 25.0807 50.2989 25.1396C50.1567 25.1985 50.0275 25.2848 49.9187 25.3937C49.8098 25.5025 49.7235 25.6317 49.6646 25.7739C49.6057 25.916 49.5754 26.0684 49.5755 26.2223V27.475C49.5755 28.1223 50.1 28.6469 50.7473 28.6469C51.3947 28.6469 51.9192 28.1223 51.9192 27.475V26.2223C51.9192 25.9115 51.7958 25.6135 51.576 25.3937C51.3562 25.1739 51.0581 25.0505 50.7473 25.0505ZM47.8241 34.1672C47.716 34.0576 47.5875 33.9704 47.4457 33.9105C47.3039 33.8506 47.1518 33.8192 46.9979 33.8182C46.844 33.8171 46.6914 33.8464 46.5488 33.9044C46.4063 33.9623 46.2765 34.0478 46.167 34.1559C45.7392 34.5778 44.7139 35.0706 43.2323 35.0706C41.7508 35.0706 40.7256 34.5778 40.2978 34.1559C40.1883 34.0478 40.0586 33.9623 39.916 33.9043C39.7734 33.8464 39.6208 33.8171 39.4669 33.8181C39.313 33.8191 39.1608 33.8505 39.0191 33.9103C38.8773 33.9702 38.7487 34.0574 38.6406 34.167C38.4224 34.3883 38.3009 34.6871 38.303 34.9979C38.3051 35.3087 38.4305 35.6059 38.6517 35.8242C39.6609 36.8198 41.3733 37.4144 43.2323 37.4144C45.0913 37.4144 46.8036 36.8198 47.8128 35.8242C47.9224 35.7162 48.0096 35.5876 48.0694 35.4458C48.1293 35.3041 48.1606 35.1519 48.1617 34.998C48.1627 34.8442 48.1335 34.6916 48.0755 34.549C48.0176 34.4065 47.9321 34.2767 47.8241 34.1672ZM36.9697 21.293H34.4648C33.8177 21.293 33.293 21.8175 33.293 22.4648C33.293 23.1122 33.8177 23.6367 34.4648 23.6367H36.9698C37.1237 23.6367 37.2761 23.6064 37.4183 23.5475C37.5605 23.4886 37.6897 23.4023 37.7985 23.2934C37.9073 23.1846 37.9936 23.0554 38.0525 22.9132C38.1113 22.771 38.1417 22.6187 38.1416 22.4648C38.1416 22.3109 38.1113 22.1585 38.0524 22.0163C37.9935 21.8741 37.9072 21.745 37.7984 21.6361C37.6895 21.5273 37.5603 21.441 37.4182 21.3821C37.276 21.3233 37.1236 21.293 36.9697 21.293ZM51.9998 21.293H49.4948C48.8475 21.293 48.323 21.8175 48.323 22.4648C48.323 23.1122 48.8477 23.6367 49.4948 23.6367H51.9998C52.6472 23.6367 53.1717 23.1122 53.1717 22.4648C53.1717 21.8175 52.6472 21.293 51.9998 21.293Z" fill="white"/>
<path d="M68.3303 55.8183L59.8836 53.2214C59.8987 52.9635 59.8768 52.7048 59.8185 52.4531C59.7278 52.0673 59.5533 51.7061 59.3074 51.3953C59.0614 51.0846 58.75 50.8317 58.3954 50.6549L53.1716 48.0432V44.3185C57.0799 41.6004 59.8305 37.3278 60.5183 32.404H61.2149C63.4988 32.404 65.4578 30.707 65.6747 28.5403C65.7963 27.3261 65.3991 26.1139 64.585 25.2144C64.1944 24.7834 63.7204 24.4362 63.1917 24.1936V11.192C63.1917 6.40199 59.2949 2.50499 54.5047 2.50499L54.3066 2.50514C52.1968 0.948901 49.0973 0 45.659 0C38.3389 0 34.976 1.52499 31.0822 3.29076C29.0021 4.23404 26.8513 5.20934 23.8026 6.1009C23.6443 6.14718 23.4976 6.22633 23.372 6.33319C23.2465 6.44004 23.1448 6.5722 23.0738 6.72102C23.0028 6.86983 22.964 7.03196 22.96 7.1968C22.9559 7.36164 22.9867 7.52548 23.0502 7.67761C23.0859 7.76292 23.6095 8.97839 24.9602 10.4549C24.377 11.1729 23.2729 13.009 23.2729 16.6194V24.2458C21.9245 24.8888 20.9403 26.1623 20.7901 27.6609C20.6684 28.8751 21.0654 30.0875 21.8795 30.9873C22.2832 31.433 22.7758 31.7892 23.3254 32.0332C23.8751 32.2771 24.4697 32.4034 25.071 32.4039H25.9457C26.6329 37.3292 29.3836 41.6023 33.2928 44.3201V48.043L28.069 50.6547C27.7143 50.8316 27.4029 51.0844 27.1569 51.3953C26.911 51.7061 26.7365 52.0673 26.6459 52.4531C26.5876 52.7048 26.5657 52.9634 26.5807 53.2213L18.134 55.8181C14.4651 56.9462 12 60.2829 12 64.1215V78.8277C12 79.1385 12.1235 79.4365 12.3432 79.6563C12.563 79.8761 12.8611 79.9995 13.1719 79.9995C13.4827 79.9995 13.7807 79.8761 14.0005 79.6563C14.2203 79.4365 14.3437 79.1385 14.3437 78.8277V64.1217C14.3437 61.3189 16.1437 58.8823 18.8229 58.0586L27.609 55.3573L29.1597 57.4251L27.3979 59.1872C26.8515 59.7324 26.4909 60.436 26.3672 61.198C26.2436 61.9599 26.3631 62.7414 26.709 63.4315L30.0636 70.1407H26.8691V68.8076C26.8691 68.4968 26.7457 68.1987 26.5259 67.9789C26.3061 67.7592 26.0081 67.6357 25.6973 67.6357C25.3865 67.6357 25.0884 67.7592 24.8686 67.9789C24.6489 68.1987 24.5254 68.4968 24.5254 68.8076V70.1407H19.4346C19.1238 70.1407 18.8258 70.2642 18.606 70.4839C18.3862 70.7037 18.2628 71.0018 18.2628 71.3126V78.8277C18.2628 79.1385 18.3862 79.4365 18.606 79.6563C18.8258 79.8761 19.1238 79.9995 19.4346 79.9995H31.9599C32.2707 79.9995 32.5688 79.8761 32.7885 79.6563C33.0083 79.4365 33.1318 79.1385 33.1318 78.8277V76.2767L34.6692 79.3519C34.7381 79.4895 34.8333 79.6123 34.9496 79.7131C35.0658 79.8139 35.2008 79.8908 35.3468 79.9395C35.4928 79.9881 35.647 80.0075 35.8005 79.9966C35.954 79.9857 36.1038 79.9446 36.2414 79.8758C36.3791 79.807 36.5018 79.7117 36.6027 79.5954C36.7035 79.4792 36.7805 79.3442 36.8291 79.1982C36.8778 79.0522 36.8972 78.898 36.8863 78.7445C36.8754 78.591 36.8343 78.4411 36.7655 78.3035L28.8054 62.3831C28.68 62.1329 28.6367 61.8495 28.6815 61.5732C28.7264 61.297 28.8571 61.0419 29.0552 60.8442L31.536 58.3633C31.7354 58.1638 31.8563 57.8991 31.8763 57.6177C31.8963 57.3364 31.8141 57.0572 31.6449 56.8315L28.9899 53.2917C28.9578 53.2495 28.9356 53.2006 28.9247 53.1487C28.9139 53.0968 28.9148 53.0431 28.9272 52.9916C28.9391 52.9398 28.9623 52.8914 28.9952 52.8498C29.0282 52.8081 29.0699 52.7744 29.1176 52.7509L33.7332 50.4431L36.9916 61.6148C37.0827 61.9083 37.2855 62.1542 37.5562 62.2996C37.8269 62.445 38.1439 62.4783 38.4389 62.3923C38.734 62.3063 38.9834 62.1078 39.1335 61.8397C39.2836 61.5715 39.3224 61.2552 39.2416 60.9587L38.728 59.1978C40.1765 59.7014 41.6991 59.9588 43.2326 59.9592C44.766 59.9591 46.2886 59.702 47.737 59.1986L43.2325 74.6422L40.7034 65.9713C40.6611 65.8228 40.5898 65.684 40.4936 65.5631C40.3975 65.4422 40.2783 65.3415 40.1431 65.2668C40.0079 65.192 39.8592 65.1448 39.7057 65.1278C39.5521 65.1107 39.3967 65.1242 39.2484 65.1675C39.1001 65.2107 38.9618 65.2829 38.8414 65.3798C38.7211 65.4767 38.6211 65.5964 38.5472 65.7321C38.4734 65.8678 38.427 66.0167 38.4109 66.1704C38.3948 66.3241 38.4093 66.4794 38.4534 66.6274L42.1075 79.1555C42.1785 79.3989 42.3265 79.6127 42.5294 79.7648C42.7322 79.917 42.9789 79.9992 43.2325 79.9992C43.486 79.9992 43.7327 79.917 43.9356 79.7648C44.1384 79.6127 44.2865 79.3989 44.3575 79.1555L52.7319 50.4431L57.3474 52.7509C57.395 52.7744 57.4368 52.8081 57.4697 52.8497C57.5026 52.8913 57.5259 52.9397 57.5379 52.9914C57.5504 53.043 57.5512 53.0967 57.5404 53.1486C57.5295 53.2006 57.5073 53.2495 57.4752 53.2917L54.8202 56.8315C54.651 57.0572 54.5689 57.3364 54.5888 57.6178C54.6088 57.8991 54.7296 58.1639 54.929 58.3634L57.4099 60.8443C57.608 61.042 57.7387 61.2971 57.7836 61.5733C57.8284 61.8495 57.7851 62.1329 57.6597 62.3831L49.6992 78.3036C49.6098 78.4822 49.5675 78.6807 49.5764 78.8803C49.5853 79.0798 49.645 79.2738 49.7499 79.4438C49.8549 79.6137 50.0015 79.754 50.1759 79.8514C50.3503 79.9488 50.5467 79.9999 50.7465 80C51.1763 80 51.5902 79.7625 51.7956 79.352L59.7557 63.4317C60.1015 62.7416 60.2211 61.9601 60.0975 61.1982C59.9739 60.4362 59.6133 59.7326 59.0671 59.1873L57.3049 57.4251L58.8555 55.3575L67.6417 58.0589C70.3208 58.8825 72.1207 61.319 72.1207 64.122V78.8277C72.1207 79.475 72.6453 79.9995 73.2926 79.9995C73.94 79.9995 74.4645 79.475 74.4645 78.8277V64.1217C74.4643 60.2831 71.9993 56.9462 68.3303 55.8183ZM30.7877 77.6558H20.6062V72.4844H24.5251V72.565C24.5251 72.8758 24.6485 73.1739 24.8683 73.3937C25.0881 73.6134 25.3862 73.7369 25.697 73.7369C26.0077 73.7369 26.3058 73.6134 26.5256 73.3937C26.7454 73.1739 26.8688 72.8758 26.8688 72.565V72.4844H30.7877V77.6558ZM32.05 5.42528C35.8467 3.70357 38.8455 2.34374 45.659 2.34374C49.9824 2.34374 53.8459 4.1531 54.6457 6.55262C54.7446 6.8467 54.9561 7.08955 55.2338 7.22793C55.5115 7.3663 55.8327 7.38891 56.127 7.29078C56.4214 7.19265 56.6648 6.98181 56.8039 6.70448C56.943 6.42715 56.9665 6.10597 56.8691 5.81137C56.8011 5.60853 56.7213 5.40981 56.6302 5.21622C59.0855 6.09215 60.8482 8.43964 60.8482 11.192V23.7978H59.515C58.7799 23.7978 58.1819 23.1999 58.1819 22.4647V21.2121C58.1819 15.7791 54.2485 11.7834 54.081 11.6159C53.9293 11.4643 53.7389 11.3573 53.5306 11.3064C53.3223 11.2554 53.104 11.2626 52.8994 11.327C46.3942 13.3813 37.2219 15.1127 30.4691 11.696C28.0662 10.4801 26.6473 8.93495 25.901 7.90324C28.3887 7.08574 30.3169 6.21121 32.05 5.42528ZM50.8281 48.6L48.5899 56.2737C46.9419 57.1554 45.1016 57.6164 43.2325 57.6158C41.3586 57.6158 39.5144 57.1531 37.8752 56.275L35.6366 48.6V45.6927C37.9342 46.8079 40.5114 47.4344 43.2323 47.4344C45.9529 47.4344 48.5301 46.8075 50.8281 45.6916V48.6ZM43.2323 45.0905C34.9002 45.0905 28.1216 38.3118 28.1216 29.9797C28.1216 29.6689 27.9982 29.3708 27.7784 29.151C27.5586 28.9313 27.2606 28.8078 26.9498 28.8078C26.639 28.8078 26.3409 28.9313 26.1211 29.151C25.9014 29.3708 25.7779 29.6689 25.7779 29.9797V30.0603H25.071C24.7971 30.06 24.5263 30.0024 24.276 29.8913C24.0256 29.7801 23.8013 29.6178 23.6174 29.4148C23.2415 28.9994 23.0656 28.4595 23.1221 27.8947C23.2207 26.9116 24.1554 26.1414 25.2501 26.1414H26.9498C28.9772 26.1414 30.6266 24.4919 30.6266 22.4646V18.0415C30.6266 17.7307 30.5031 17.4326 30.2834 17.2128C30.0636 16.9931 29.7655 16.8696 29.4547 16.8696C29.1439 16.8696 28.8459 16.9931 28.6261 17.2128C28.4063 17.4326 28.2829 17.7307 28.2829 18.0415V22.4646C28.2829 23.1997 27.6848 23.7977 26.9498 23.7977H25.6166V16.6194C25.6166 13.8927 26.3494 12.5368 26.6879 12.056C27.4038 12.6207 28.2435 13.1801 29.2263 13.6923C31.8821 15.0765 35.043 15.843 38.6211 15.9705C42.815 16.1213 47.6084 15.3857 52.8773 13.7873C53.8073 14.9135 55.8383 17.7677 55.8383 21.2119V22.4646C55.8383 24.492 57.4879 26.1414 59.5152 26.1414H61.3939C61.6678 26.1417 61.9387 26.1993 62.189 26.3104C62.4393 26.4216 62.6636 26.5839 62.8475 26.7869C63.2235 27.2023 63.3994 27.742 63.3428 28.3069C63.2444 29.2901 62.3099 30.0603 61.2152 30.0603H60.6864V29.9919C60.6864 29.6811 60.563 29.3831 60.3434 29.1634C60.1237 28.9436 59.8258 28.8201 59.515 28.82H59.5146C59.2039 28.82 58.906 28.9433 58.6863 29.1629C58.4665 29.3825 58.343 29.6803 58.3427 29.9909C58.3363 38.3168 51.5579 45.0905 43.2323 45.0905Z" fill="white"/>
<path d="M67.0302 70.766H65.0709V68.8066C65.0709 68.1593 64.5463 67.6348 63.899 67.6348C63.2516 67.6348 62.7271 68.1593 62.7271 68.8066V70.766H60.7676C60.1202 70.766 59.5957 71.2905 59.5957 71.9379C59.5957 72.5852 60.1202 73.1098 60.7676 73.1098H62.7271V75.0691C62.7271 75.7165 63.2516 76.241 63.899 76.241C64.5463 76.241 65.0709 75.7165 65.0709 75.0691V73.1098H67.0302C67.341 73.1098 67.6391 72.9863 67.8589 72.7665C68.0786 72.5468 68.2021 72.2487 68.2021 71.9379C68.2021 71.6271 68.0786 71.329 67.8589 71.1092C67.6391 70.8895 67.341 70.766 67.0302 70.766Z" fill="white"/>
</g>
<defs>
<clipPath id="clip0_931_20487">
<rect width="80" height="80" fill="white"/>
</clipPath>
</defs>
</svg>
