<svg width="19" height="19" viewBox="0 0 19 19" fill="none" xmlns="http://www.w3.org/2000/svg">
<g clip-path="url(#clip0_10203_5588)">
<mask id="mask0_10203_5588" style="mask-type:luminance" maskUnits="userSpaceOnUse" x="0" y="0" width="19" height="19">
<path d="M18.8444 0H0V18.8444H18.8444V0Z" fill="white"/>
</mask>
<g mask="url(#mask0_10203_5588)">
<path d="M9.42222 4.31852C8.79618 4.31836 8.18414 4.50388 7.66351 4.8516C7.14287 5.19933 6.73707 5.69364 6.49745 6.27202C6.25777 6.85037 6.19505 7.48684 6.31713 8.10087C6.43921 8.71491 6.74072 9.27895 7.18339 9.72167C7.62605 10.1643 8.19009 10.4658 8.80413 10.5879C9.41822 10.71 10.0546 10.6472 10.633 10.4076C11.2114 10.1679 11.7057 9.76213 12.0534 9.24155C12.4012 8.72091 12.5867 8.10888 12.5865 7.48284C12.5855 6.6439 12.2518 5.83966 11.6586 5.24646C11.0654 4.65327 10.2612 4.31956 9.42222 4.31852ZM9.42222 9.86271C8.95147 9.86289 8.49131 9.72344 8.09981 9.46203C7.70832 9.20062 7.40316 8.82898 7.2229 8.39408C7.0427 7.95925 6.99541 7.48071 7.08716 7.01903C7.17891 6.55728 7.40551 6.13316 7.7383 5.80025C8.07114 5.46734 8.49519 5.2406 8.95688 5.1487C9.41851 5.05681 9.8971 5.1039 10.332 5.284C10.7669 5.46411 11.1387 5.76914 11.4002 6.16054C11.6617 6.55192 11.8013 7.01208 11.8013 7.48284C11.8005 8.11359 11.5496 8.71832 11.1036 9.16447C10.6577 9.61055 10.053 9.86165 9.42222 9.86271ZM9.97737 12.3109H8.8679C8.15882 12.3123 7.46246 12.4994 6.84831 12.8537C6.23416 13.2081 5.72356 13.7172 5.36753 14.3304C5.33277 14.3903 5.2828 14.4399 5.22268 14.4742C5.16255 14.5086 5.09442 14.5264 5.02518 14.5259C4.95622 14.5262 4.88844 14.5081 4.82889 14.4733C4.7842 14.4474 4.74506 14.4131 4.71368 14.3721C4.68231 14.3311 4.65932 14.2843 4.64605 14.2344C4.63278 14.1846 4.62947 14.1325 4.63633 14.0813C4.64318 14.0302 4.66006 13.9809 4.68598 13.9362C5.11119 13.2042 5.72086 12.5964 6.45422 12.1735C7.18757 11.7505 8.01896 11.5272 8.86555 11.5257H9.97501C10.8214 11.5271 11.6526 11.7504 12.3858 12.1732C13.119 12.596 13.7286 13.2037 14.1538 13.9355C14.1822 13.9802 14.2012 14.0301 14.2098 14.0824C14.2184 14.1346 14.2164 14.188 14.2038 14.2395C14.1912 14.2909 14.1683 14.3393 14.1365 14.3816C14.1048 14.424 14.0647 14.4595 14.0189 14.486C13.973 14.5125 13.9223 14.5294 13.8697 14.5358C13.8172 14.5422 13.7639 14.5379 13.713 14.5231C13.6622 14.5084 13.6149 14.4835 13.5739 14.45C13.5329 14.4165 13.4991 14.375 13.4745 14.3281C13.1184 13.7159 12.6082 13.2075 11.9946 12.8537C11.3811 12.4998 10.6856 12.3127 9.97737 12.3109ZM18.8444 2.59111V6.35058C18.8444 6.45469 18.8031 6.55457 18.7294 6.62818C18.6558 6.70179 18.556 6.74319 18.4518 6.74319C18.3477 6.74319 18.2479 6.70179 18.1742 6.62818C18.1006 6.55457 18.0593 6.45469 18.0593 6.35058V2.59111C18.0582 2.11247 17.8676 1.65372 17.5292 1.31527C17.1907 0.97682 16.732 0.78622 16.2533 0.785183H12.5629C12.4588 0.785183 12.359 0.743826 12.2853 0.670197C12.2117 0.596574 12.1704 0.496715 12.1704 0.392593C12.1704 0.288471 12.2117 0.188613 12.2853 0.114988C12.359 0.0413623 12.4588 0 12.5629 0H16.2533C16.9402 0.00124538 17.5985 0.274637 18.0841 0.760297C18.5698 1.24595 18.8432 1.90429 18.8444 2.59111ZM0 6.35058V2.59111C0.00124538 1.90429 0.274637 1.24595 0.760297 0.760297C1.24595 0.274637 1.90429 0.00124538 2.59111 0H6.2815C6.38562 0 6.48543 0.0413623 6.5591 0.114988C6.63271 0.188613 6.67405 0.288471 6.67405 0.392593C6.67405 0.496715 6.63271 0.596574 6.5591 0.670197C6.48543 0.743826 6.38562 0.785183 6.2815 0.785183H2.59111C2.11247 0.78622 1.65372 0.97682 1.31527 1.31527C0.97682 1.65372 0.78622 2.11247 0.785183 2.59111V6.35058C0.785183 6.45469 0.743826 6.55457 0.670197 6.62818C0.596574 6.70179 0.496715 6.74319 0.392593 6.74319C0.288471 6.74319 0.188613 6.70179 0.114988 6.62818C0.0413623 6.55457 0 6.45469 0 6.35058ZM18.8444 12.6321V16.2533C18.8432 16.9402 18.5698 17.5985 18.0841 18.0841C17.5985 18.5698 16.9402 18.8432 16.2533 18.8444H12.5629C12.4588 18.8444 12.359 18.8031 12.2853 18.7294C12.2117 18.6558 12.1704 18.556 12.1704 18.4518C12.1704 18.3477 12.2117 18.2479 12.2853 18.1742C12.359 18.1006 12.4588 18.0593 12.5629 18.0593H16.2533C16.732 18.0582 17.1907 17.8676 17.5292 17.5292C17.8676 17.1907 18.0582 16.732 18.0593 16.2533V12.6321C18.0593 12.528 18.1006 12.4281 18.1742 12.3545C18.2479 12.2808 18.3477 12.2395 18.4518 12.2395C18.556 12.2395 18.6558 12.2808 18.7294 12.3545C18.8031 12.4281 18.8444 12.528 18.8444 12.6321ZM0 16.2533V12.6321C0 12.528 0.0413623 12.4281 0.114988 12.3545C0.188613 12.2808 0.288471 12.2395 0.392593 12.2395C0.496715 12.2395 0.596574 12.2808 0.670197 12.3545C0.743826 12.4281 0.785183 12.528 0.785183 12.6321V16.2533C0.78622 16.732 0.97682 17.1907 1.31527 17.5292C1.65372 17.8676 2.11247 18.0582 2.59111 18.0593H6.2815C6.38562 18.0593 6.48543 18.1006 6.5591 18.1742C6.63271 18.2479 6.67405 18.3477 6.67405 18.4518C6.67405 18.556 6.63271 18.6558 6.5591 18.7294C6.48543 18.8031 6.38562 18.8444 6.2815 18.8444H2.59111C1.90429 18.8432 1.24595 18.5698 0.760297 18.0841C0.274637 17.5985 0.00124538 16.9402 0 16.2533Z" fill="url(#paint0_linear_10203_5588)"/>
</g>
</g>
<defs>
<linearGradient id="paint0_linear_10203_5588" x1="18.8426" y1="9.42616" x2="-0.00189487" y2="9.42616" gradientUnits="userSpaceOnUse">
<stop stop-color="#BE9644"/>
<stop offset="0.15" stop-color="#AA803C"/>
<stop offset="0.43" stop-color="#F3DC87"/>
<stop offset="0.59" stop-color="#FBEFAC"/>
<stop offset="0.73" stop-color="#F3DC87"/>
<stop offset="0.93" stop-color="#AA803C"/>
<stop offset="1" stop-color="#C49D47"/>
</linearGradient>
<clipPath id="clip0_10203_5588">
<rect width="18.8444" height="18.8444" fill="white"/>
</clipPath>
</defs>
</svg>
