<svg width="60" height="60" viewBox="0 0 60 60" fill="none" xmlns="http://www.w3.org/2000/svg">
<g clip-path="url(#clip0_763_467)">
<path d="M57.7346 24.7839L33.2611 24.7827C32.1804 24.7827 31.3044 25.6586 31.3044 26.7393V34.5574C31.3044 35.6379 32.1804 36.514 33.261 36.514H47.043C45.5338 40.4305 42.7171 43.7105 39.1234 45.7946L45 55.9675C54.4268 50.5156 60 40.9497 60 30.2413C60 28.7166 59.8876 27.6266 59.6629 26.3993C59.492 25.4669 58.6825 24.7839 57.7346 24.7839Z" fill="#167EE6"/>
<path d="M30 48.2607C23.2554 48.2607 17.3674 44.5756 14.2051 39.1226L4.03253 44.9859C9.20929 53.958 18.907 59.9999 30 59.9999C35.4418 59.9999 40.5766 58.5347 45 55.9813V55.9673L39.1234 45.7943C36.4353 47.3533 33.3247 48.2607 30 48.2607Z" fill="#12B347"/>
<path d="M45 55.9814V55.9675L39.1234 45.7944C36.4354 47.3534 33.325 48.2609 30 48.2609V60C35.4418 60 40.5769 58.5348 45 55.9814Z" fill="#0F993E"/>
<path d="M11.7391 30.0002C11.7391 26.6757 12.6464 23.5654 14.2051 20.8775L4.03254 15.0142C1.46508 19.4236 0 24.5444 0 30.0002C0 35.456 1.46508 40.5769 4.03254 44.9863L14.2051 39.1229C12.6464 36.435 11.7391 33.3247 11.7391 30.0002Z" fill="#FFD500"/>
<path d="M30 11.7391C34.3982 11.7391 38.4381 13.302 41.5936 15.9015C42.3721 16.5428 43.5035 16.4965 44.2166 15.7834L49.756 10.2439C50.5651 9.43488 50.5075 8.11055 49.6432 7.36078C44.3563 2.77418 37.4774 0 30 0C18.907 0 9.20929 6.04184 4.03253 15.0139L14.2051 20.8773C17.3674 15.4242 23.2554 11.7391 30 11.7391Z" fill="#FF4B26"/>
<path d="M41.5936 15.9015C42.3721 16.5428 43.5036 16.4965 44.2166 15.7834L49.7561 10.2439C50.565 9.43488 50.5073 8.11055 49.6432 7.36078C44.3563 2.77406 37.4774 0 30 0V11.7391C34.398 11.7391 38.4381 13.302 41.5936 15.9015Z" fill="#D93F21"/>
</g>
<defs>
<clipPath id="clip0_763_467">
<rect width="60" height="60" fill="white"/>
</clipPath>
</defs>
</svg>
