<svg width="20" height="28" viewBox="0 0 20 28" fill="none" xmlns="http://www.w3.org/2000/svg">
<path fill-rule="evenodd" clip-rule="evenodd" d="M8.58012 24.6642V26.4037H5.72008C5.40548 26.4037 5.14807 26.6609 5.14807 26.9777C5.14807 27.2946 5.40548 27.5517 5.72008 27.5517H12.5842C12.8988 27.5517 13.1562 27.2946 13.1562 26.9777C13.1562 26.6609 12.8988 26.4037 12.5842 26.4037H9.72414V24.6642C14.5118 24.3678 18.3043 20.3774 18.3043 15.4978V14.3499C18.3043 14.033 18.0469 13.7759 17.7323 13.7759C17.4176 13.7759 17.1602 14.033 17.1602 14.3499V15.4978C17.1602 19.936 13.5738 23.5338 9.15213 23.5338C4.73051 23.5338 1.14402 19.936 1.14402 15.4978V14.3499C1.14402 14.033 0.886613 13.7759 0.572008 13.7759C0.257404 13.7759 0 14.033 0 14.3499V15.4978C0 20.3774 3.79241 24.3678 8.58012 24.6642ZM11.3858 0.373388C10.6671 0.125319 9.91219 -0.000869064 9.15213 4.50465e-06C5.35972 4.50465e-06 2.28803 3.08379 2.28803 6.88793V15.4978C2.28803 19.302 5.35972 22.3858 9.15213 22.3858C12.9445 22.3858 16.0162 19.302 16.0162 15.4978V10.1884C16.0162 9.87156 15.7588 9.61441 15.4442 9.61441C15.1296 9.61441 14.8722 9.87156 14.8722 10.1884V15.4978C14.8722 18.668 12.3125 21.2378 9.15213 21.2378C5.99179 21.2378 3.43205 18.668 3.43205 15.4978V6.88793C3.43205 3.71776 5.99179 1.14799 9.15213 1.14799C9.80422 1.14799 10.4306 1.25734 11.014 1.45881C11.1574 1.5081 11.3144 1.49831 11.4506 1.4316C11.5868 1.36488 11.691 1.24668 11.7405 1.10293C11.7651 1.03168 11.7755 0.956233 11.771 0.880941C11.7665 0.805649 11.7472 0.731991 11.7142 0.664199C11.6813 0.596407 11.6353 0.535818 11.5789 0.485911C11.5226 0.436004 11.457 0.397764 11.3858 0.373388ZM8.55438 7.83675C8.51387 7.72677 8.44075 7.6319 8.34488 7.56489C8.249 7.49788 8.13496 7.46195 8.01812 7.46195C7.90128 7.46195 7.78725 7.49788 7.69137 7.56489C7.59549 7.6319 7.52238 7.72677 7.48187 7.83675L6.80118 9.68415L4.95931 10.3675C4.84928 10.4078 4.75425 10.481 4.68711 10.5774C4.61996 10.6737 4.58395 10.7884 4.58395 10.9059C4.58395 11.0234 4.61996 11.1381 4.68711 11.2344C4.75425 11.3307 4.84928 11.404 4.95931 11.4443L6.80118 12.1276L7.48187 13.975C7.52238 14.085 7.59549 14.1799 7.69137 14.2469C7.78725 14.3139 7.90128 14.3498 8.01812 14.3498C8.13496 14.3498 8.249 14.3139 8.34488 14.2469C8.44075 14.1799 8.51387 14.085 8.55438 13.975L9.23507 12.1276L11.0769 11.4443C11.1863 11.4034 11.2807 11.3299 11.3473 11.2337C11.4139 11.1374 11.4496 11.0231 11.4496 10.9059C11.4496 10.7887 11.4139 10.6744 11.3473 10.5781C11.2807 10.4819 11.1863 10.4084 11.0769 10.3675L9.23507 9.68415L8.55438 7.83675ZM8.01669 9.68989L8.25408 10.3299C8.31128 10.4872 8.43426 10.6109 8.59156 10.6691L9.22935 10.9059L8.59156 11.1427C8.43426 11.2009 8.31128 11.3246 8.25408 11.4819L8.01669 12.1219L7.78217 11.4819C7.75344 11.4044 7.70843 11.334 7.6502 11.2754C7.59197 11.2169 7.52188 11.1716 7.44469 11.1427L6.8069 10.9059L7.44469 10.6691C7.52188 10.6402 7.59197 10.5949 7.6502 10.5363C7.70843 10.4778 7.75344 10.4074 7.78217 10.3299L8.01669 9.68989ZM13.6939 0.374823C13.6109 0.14953 13.3964 4.50465e-06 13.1562 4.50465e-06C12.9159 4.50465e-06 12.7014 0.14953 12.6185 0.374823L11.2428 4.10751L7.52477 5.48854C7.41473 5.52883 7.31971 5.60209 7.25256 5.6984C7.18542 5.79471 7.14941 5.90941 7.14941 6.02694C7.14941 6.14448 7.18542 6.25918 7.25256 6.35548C7.31971 6.45179 7.41473 6.52506 7.52477 6.56535L11.2428 7.94638L12.6185 11.6791C12.7014 11.9044 12.9159 12.0539 13.1562 12.0539C13.3964 12.0539 13.6109 11.9044 13.6939 11.6791L15.0696 7.94638L18.7876 6.56535C18.8976 6.52506 18.9927 6.45179 19.0598 6.35548C19.127 6.25918 19.163 6.14448 19.163 6.02694C19.163 5.90941 19.127 5.79471 19.0598 5.6984C18.9927 5.60209 18.8976 5.52883 18.7876 5.48854L15.0696 4.10751L13.6939 0.374823ZM13.1562 2.22796L14.0886 4.75325C14.1458 4.91052 14.2687 5.03422 14.426 5.09248L16.9429 6.02694L14.426 6.96141C14.2687 7.01967 14.1458 7.14336 14.0886 7.30064L13.1562 9.82592L12.2238 7.30064C12.1666 7.14336 12.0436 7.01967 11.8863 6.96141L9.36949 6.02694L11.8863 5.09248C12.0436 5.03422 12.1666 4.91052 12.2238 4.75325L13.1562 2.22796ZM17.1602 1.72199H16.5882C16.2736 1.72199 16.0162 1.97914 16.0162 2.29598C16.0162 2.61283 16.2736 2.86998 16.5882 2.86998H17.1602V3.44397C17.1602 3.76081 17.4176 4.01796 17.7323 4.01796C18.0469 4.01796 18.3043 3.76081 18.3043 3.44397V2.86998H18.8763C19.1909 2.86998 19.4483 2.61283 19.4483 2.29598C19.4483 1.97914 19.1909 1.72199 18.8763 1.72199H18.3043V1.14799C18.3043 0.831148 18.0469 0.573999 17.7323 0.573999C17.4176 0.573999 17.1602 0.831148 17.1602 1.14799V1.72199Z" fill="white"/>
</svg>
