<svg width="62" height="62" viewBox="0 0 62 62" fill="none" xmlns="http://www.w3.org/2000/svg">
<path d="M3.86455 4.20571C-0.993615 9.25192 0.000686765 14.6124 0.000686765 30.8973C0.000686765 44.4208 -2.35885 57.9779 9.99007 61.1694C13.8462 62.1611 48.0131 62.1611 51.8641 61.1643C57.0056 59.8377 61.1889 55.6673 61.7607 48.3955C61.8406 47.3806 61.8406 14.4321 61.7582 13.3966C61.1502 5.65079 56.3822 1.18674 50.0996 0.282595C48.6596 0.0739465 48.3711 0.0121246 40.9834 -0.000754975C14.7787 0.0121246 9.03441 -1.15476 3.86455 4.20571Z" fill="url(#paint0_linear_3695_2645)"/>
<path d="M30.9058 8.08453C21.5526 8.08453 12.6709 7.25251 9.27842 15.9591C7.87712 19.5551 8.08062 24.2252 8.08062 30.9123C8.08062 36.7802 7.89258 42.2952 9.27842 45.8628C12.6632 54.5746 21.617 53.74 30.9006 53.74C39.8571 53.74 49.0917 54.6725 52.5254 45.8628C53.9293 42.2308 53.7232 37.6302 53.7232 30.9123C53.7232 21.9945 54.2152 16.2373 49.8902 11.9149C45.5112 7.53586 39.5892 8.08453 30.8955 8.08453H30.9058ZM28.8605 12.1983C48.3705 12.1673 50.8536 9.99844 49.4832 40.1289C48.9964 50.7854 40.8823 49.6159 30.9083 49.6159C12.7224 49.6159 12.1995 49.0956 12.1995 30.902C12.1995 12.4971 13.642 12.2086 28.8605 12.1931V12.1983ZM43.0898 15.9874C42.3636 15.9874 41.6671 16.2759 41.1536 16.7894C40.6401 17.3029 40.3516 17.9994 40.3516 18.7256C40.3516 19.4518 40.6401 20.1483 41.1536 20.6618C41.6671 21.1753 42.3636 21.4638 43.0898 21.4638C43.816 21.4638 44.5125 21.1753 45.026 20.6618C45.5395 20.1483 45.828 19.4518 45.828 18.7256C45.828 17.9994 45.5395 17.3029 45.026 16.7894C44.5125 16.2759 43.816 15.9874 43.0898 15.9874ZM30.9058 19.1893C29.3665 19.1895 27.8423 19.4928 26.4202 20.082C24.9981 20.6713 23.706 21.5348 22.6177 22.6234C20.4197 24.8219 19.185 27.8035 19.1854 30.9123C19.1857 34.021 20.421 37.0024 22.6195 39.2004C24.818 41.3984 27.7996 42.633 30.9083 42.6327C34.0171 42.6323 36.9985 41.397 39.1965 39.1985C41.3945 37.0001 42.6291 34.0185 42.6287 30.9097C42.6284 27.8009 41.3931 24.8196 39.1946 22.6216C36.9961 20.4236 34.0146 19.1889 30.9058 19.1893ZM30.9058 23.303C40.9647 23.303 40.9776 38.5215 30.9058 38.5215C20.8494 38.5215 20.834 23.303 30.9058 23.303Z" fill="white"/>
<defs>
<linearGradient id="paint0_linear_3695_2645" x1="3.9831" y1="57.8725" x2="61.44" y2="8.14422" gradientUnits="userSpaceOnUse">
<stop stop-color="#FFDD55"/>
<stop offset="0.5" stop-color="#FF543E"/>
<stop offset="1" stop-color="#C837AB"/>
</linearGradient>
</defs>
</svg>
