<svg width="62" height="62" viewBox="0 0 62 62" fill="none" xmlns="http://www.w3.org/2000/svg">
<g clip-path="url(#clip0_3695_2660)">
<path d="M53.5455 0H8.45455C3.78523 0 0 3.78523 0 8.45455V53.5455C0 58.2148 3.78523 62 8.45455 62H53.5455C58.2148 62 62 58.2148 62 53.5455V8.45455C62 3.78523 58.2148 0 53.5455 0Z" fill="#0077B5"/>
<path d="M22.3338 16.9091C22.3338 17.9542 22.0239 18.9758 21.4433 19.8448C20.8627 20.7137 20.0374 21.391 19.0719 21.791C18.1063 22.1909 17.0439 22.2955 16.0188 22.0917C14.9938 21.8878 14.0523 21.3845 13.3133 20.6455C12.5743 19.9065 12.071 18.965 11.8672 17.94C11.6633 16.915 11.7679 15.8525 12.1679 14.887C12.5678 13.9214 13.2451 13.0962 14.114 12.5155C14.983 11.9349 16.0046 11.625 17.0497 11.625C18.4511 11.625 19.7952 12.1817 20.7861 13.1727C21.7771 14.1636 22.3338 15.5077 22.3338 16.9091ZM21.1361 25.7159V49.061C21.137 49.2332 21.1039 49.4039 21.0386 49.5633C20.9734 49.7227 20.8772 49.8676 20.7558 49.9897C20.6343 50.1118 20.49 50.2087 20.3309 50.2748C20.1719 50.341 20.0014 50.375 19.8292 50.375H14.2597C14.0875 50.3755 13.9169 50.3419 13.7577 50.2762C13.5985 50.2105 13.4538 50.114 13.3321 49.9922C13.2103 49.8704 13.1138 49.7258 13.0481 49.5666C12.9824 49.4074 12.9488 49.2368 12.9493 49.0645V25.7159C12.9493 25.3684 13.0873 25.035 13.3331 24.7893C13.5788 24.5435 13.9122 24.4055 14.2597 24.4055H19.8292C20.1761 24.4064 20.5085 24.5449 20.7535 24.7905C20.9985 25.0362 21.1361 25.369 21.1361 25.7159ZM50.2479 37.8693V49.1702C50.2484 49.3286 50.2175 49.4854 50.1571 49.6318C50.0968 49.7782 50.008 49.9112 49.8961 50.0232C49.7841 50.1351 49.6511 50.2239 49.5047 50.2842C49.3583 50.3446 49.2015 50.3755 49.0431 50.375H43.0545C42.8962 50.3755 42.7393 50.3446 42.5929 50.2842C42.4465 50.2239 42.3135 50.1351 42.2016 50.0232C42.0896 49.9112 42.0009 49.7782 41.9405 49.6318C41.8801 49.4854 41.8493 49.3286 41.8497 49.1702V38.2181C41.8497 36.5835 42.3288 31.0599 37.5767 31.0599C33.8954 31.0599 33.1451 34.8398 32.9971 36.5377V49.1702C32.9971 49.4867 32.8726 49.7905 32.6505 50.016C32.4283 50.2414 32.1264 50.3704 31.8099 50.375H26.0256C25.8676 50.375 25.7111 50.3438 25.5651 50.2832C25.4191 50.2226 25.2866 50.1338 25.175 50.0219C25.0634 49.91 24.975 49.7772 24.9148 49.631C24.8546 49.4849 24.8239 49.3283 24.8244 49.1702V25.6138C24.8239 25.4557 24.8546 25.2991 24.9148 25.153C24.975 25.0068 25.0634 24.874 25.175 24.7621C25.2866 24.6501 25.4191 24.5613 25.5651 24.5008C25.7111 24.4402 25.8676 24.409 26.0256 24.409H31.8099C32.1295 24.409 32.4359 24.5359 32.6618 24.7618C32.8878 24.9878 33.0147 25.2942 33.0147 25.6138V27.6499C34.3815 25.5997 36.4071 24.018 40.7295 24.018C50.3043 24.018 50.2479 32.9586 50.2479 37.8693Z" fill="white"/>
</g>
<defs>
<clipPath id="clip0_3695_2660">
<rect width="62" height="62" fill="white"/>
</clipPath>
</defs>
</svg>
