<svg width="22" height="22" viewBox="0 0 22 22" fill="none" xmlns="http://www.w3.org/2000/svg">
<path d="M11.0422 1.71876C10.8045 1.71704 10.6107 1.90825 10.609 2.14544C10.6073 2.38263 10.7981 2.57642 11.0357 2.57814C11.2729 2.57986 11.4667 2.38907 11.4684 2.15189C11.4701 1.9147 11.2793 1.72091 11.0422 1.71876ZM11.0226 4.29684C9.36354 4.28507 8.00482 5.6235 7.99227 7.28205C7.97977 8.94052 9.31893 10.2999 10.9775 10.3124L11.0005 10.3125C12.6485 10.3125 13.9954 8.97803 14.0078 7.32717C14.0203 5.66879 12.6812 4.30935 11.0226 4.29684ZM11.0004 9.45314L10.9839 9.45305C9.79924 9.44411 8.84267 8.47311 8.85161 7.2885C8.8605 6.10922 9.82248 5.15609 10.9997 5.15609L11.0162 5.15618C12.2008 5.16511 13.1574 6.13612 13.1485 7.32073C13.1395 8.5 12.1776 9.45314 11.0004 9.45314ZM12.8748 2.04464C12.6513 1.96532 12.4056 2.08241 12.3262 2.3061C12.247 2.5298 12.364 2.77536 12.5877 2.85468C14.4803 3.52547 15.7417 5.32805 15.7266 7.34015C15.7248 7.57742 15.9157 7.77125 16.153 7.77306H16.1563C16.3921 7.77306 16.5841 7.58279 16.5859 7.34659C16.6038 4.9684 15.1124 2.83771 12.8748 2.04464Z" fill="url(#paint0_linear_1630_2295)"/>
<path d="M13.6366 16.1752C16.4946 12.4965 18.2807 10.5781 18.3048 7.3596C18.335 3.3101 15.0487 0 10.9995 0C6.99753 0 3.72598 3.24105 3.69556 7.25003C3.67098 10.5558 5.49023 12.4716 8.36794 16.1746C5.50514 16.6024 3.69556 17.6774 3.69556 18.9922C3.69556 19.8729 4.50964 20.6632 5.9879 21.2175C7.33338 21.7221 9.11345 22 11.0002 22C12.8869 22 14.6669 21.7221 16.0124 21.2175C17.4907 20.6632 18.3048 19.8729 18.3048 18.9921C18.3048 17.6781 16.4969 16.6034 13.6366 16.1752ZM4.55489 7.25652C4.5817 3.71895 7.46813 0.859375 10.9996 0.859375C14.5728 0.859375 17.4721 3.78073 17.4454 7.3532C17.4226 10.4097 15.5284 12.2934 12.5044 16.2354C11.965 16.9382 11.4697 17.6027 11.0008 18.2527C10.5333 17.6023 10.0478 16.9498 9.50038 16.2352C6.35137 12.1281 4.5316 10.3868 4.55489 7.25652ZM11.0002 21.1406C7.31125 21.1406 4.55489 20.0064 4.55489 18.9922C4.55489 18.2401 6.20266 17.2899 8.9732 16.9609C9.58563 17.7645 10.1226 18.4945 10.6492 19.2401C10.6888 19.2962 10.7414 19.342 10.8024 19.3737C10.8634 19.4053 10.9311 19.4218 10.9998 19.4219H11.0002C11.0688 19.4219 11.1365 19.4054 11.1975 19.3739C11.2584 19.3424 11.311 19.2967 11.3507 19.2407C11.8723 18.5048 12.424 17.7568 13.0312 16.9614C15.7991 17.2908 17.4454 18.2406 17.4454 18.9922C17.4454 20.0064 14.6891 21.1406 11.0002 21.1406Z" fill="url(#paint1_linear_1630_2295)"/>
<defs>
<linearGradient id="paint0_linear_1630_2295" x1="16.5861" y1="1.71875" x2="6.72437" y2="3.57428" gradientUnits="userSpaceOnUse">
<stop stop-color="#DCAD81"/>
<stop offset="0.25" stop-color="#D8A97C"/>
<stop offset="0.5" stop-color="#FFD2A4"/>
<stop offset="0.75" stop-color="#D8A97C"/>
<stop offset="1" stop-color="#DCAD81"/>
</linearGradient>
<linearGradient id="paint1_linear_1630_2295" x1="18.305" y1="2.6226e-06" x2="1.21333" y2="2.13554" gradientUnits="userSpaceOnUse">
<stop stop-color="#DCAD81"/>
<stop offset="0.25" stop-color="#D8A97C"/>
<stop offset="0.5" stop-color="#FFD2A4"/>
<stop offset="0.75" stop-color="#D8A97C"/>
<stop offset="1" stop-color="#DCAD81"/>
</linearGradient>
</defs>
</svg>
