<svg width="30" height="30" viewBox="0 0 30 30" fill="none" xmlns="http://www.w3.org/2000/svg">
<path d="M27.3633 4.45312H2.63672C1.1799 4.45312 0 5.64035 0 7.08984V22.9102C0 24.3683 1.18857 25.5469 2.63672 25.5469H27.3633C28.8079 25.5469 30 24.3732 30 22.9102V7.08984C30 5.64293 28.8248 4.45312 27.3633 4.45312ZM26.994 6.21094L16.8645 16.2871C16.3664 16.7852 15.7043 17.0594 15 17.0594C14.2957 17.0594 13.6336 16.7851 13.1339 16.2855L3.00598 6.21094H26.994ZM1.75781 22.5524V7.44873L9.35379 15.0047L1.75781 22.5524ZM3.00709 23.7891L10.6001 16.2444L11.8926 17.5301C12.7226 18.3601 13.8262 18.8172 15 18.8172C16.1738 18.8172 17.2774 18.3601 18.1058 17.5317L19.3999 16.2444L26.9929 23.7891H3.00709ZM28.2422 22.5524L20.6462 15.0047L28.2422 7.44873V22.5524Z" fill="url(#paint0_linear_1462_8085)"/>
<defs>
<linearGradient id="paint0_linear_1462_8085" x1="9.99623" y1="4.45312" x2="28.7294" y2="9.37591" gradientUnits="userSpaceOnUse">
<stop stop-color="#C3942F"/>
<stop offset="0.234" stop-color="#D89C27"/>
<stop offset="0.449" stop-color="#E7DC96"/>
<stop offset="0.669" stop-color="#DFC86F"/>
<stop offset="0.849" stop-color="#D89C27"/>
<stop offset="1" stop-color="#C99C30"/>
</linearGradient>
</defs>
</svg>
