<svg width="22" height="22" viewBox="0 0 22 22" fill="none" xmlns="http://www.w3.org/2000/svg">
<path d="M19.4427 5.97162C19.3341 4.16522 17.8257 2.75 16.009 2.75H15.1245V2.0625C15.1245 1.88016 15.0521 1.7053 14.9232 1.57636C14.7942 1.44743 14.6194 1.375 14.437 1.375C14.2547 1.375 14.0798 1.44743 13.9509 1.57636C13.822 1.7053 13.7495 1.88016 13.7495 2.0625V2.75H8.24954V2.0625C8.24954 1.88016 8.1771 1.7053 8.04817 1.57636C7.91924 1.44743 7.74437 1.375 7.56204 1.375C7.3797 1.375 7.20483 1.44743 7.0759 1.57636C6.94697 1.7053 6.87454 1.88016 6.87454 2.0625V2.75H5.99007C4.173 2.75 2.66463 4.16522 2.55635 5.97162C2.3525 9.36925 2.35629 12.8157 2.56769 16.215C2.67494 17.9413 4.05785 19.3242 5.78416 19.4315C7.51425 19.5391 9.25672 19.5927 10.9992 19.5927C12.7413 19.5927 14.4841 19.5391 16.2142 19.4315C17.9405 19.3242 19.3234 17.9413 19.4307 16.215C19.6424 12.8174 19.6462 9.37131 19.4427 5.97162ZM18.0588 16.1298C18.0269 16.6311 17.8134 17.1035 17.4582 17.4587C17.1031 17.8139 16.6306 18.0274 16.1293 18.0592C12.7255 18.2707 9.27357 18.2707 5.86975 18.0592C5.36847 18.0274 4.896 17.8139 4.54083 17.4587C4.18565 17.1035 3.97214 16.6311 3.94029 16.1298C3.77915 13.5064 3.74278 10.8768 3.83132 8.25H18.1681C18.2547 10.8763 18.2214 13.5173 18.0588 16.1298ZM7.56204 5.5C7.74437 5.5 7.91924 5.42757 8.04817 5.29864C8.1771 5.1697 8.24954 4.99484 8.24954 4.8125V4.125H13.7495V4.8125C13.7495 4.99484 13.822 5.1697 13.9509 5.29864C14.0798 5.42757 14.2547 5.5 14.437 5.5C14.6194 5.5 14.7942 5.42757 14.9232 5.29864C15.0521 5.1697 15.1245 4.99484 15.1245 4.8125V4.125H16.009C17.0997 4.125 18.0052 4.97234 18.0701 6.05378C18.0863 6.32672 18.0932 6.60138 18.1066 6.875H3.8925C3.90625 6.60138 3.91279 6.32672 3.92894 6.05378C3.99391 4.97234 4.899 4.125 5.99007 4.125H6.87454V4.8125C6.87454 4.99484 6.94697 5.1697 7.0759 5.29864C7.20483 5.42757 7.3797 5.5 7.56204 5.5Z" fill="url(#paint0_linear_1630_2072)"/>
<path d="M7.5625 12.375C8.13204 12.375 8.59375 11.9133 8.59375 11.3438C8.59375 10.7742 8.13204 10.3125 7.5625 10.3125C6.99296 10.3125 6.53125 10.7742 6.53125 11.3438C6.53125 11.9133 6.99296 12.375 7.5625 12.375Z" fill="url(#paint1_linear_1630_2072)"/>
<path d="M11 12.375C11.5695 12.375 12.0312 11.9133 12.0312 11.3438C12.0312 10.7742 11.5695 10.3125 11 10.3125C10.4305 10.3125 9.96875 10.7742 9.96875 11.3438C9.96875 11.9133 10.4305 12.375 11 12.375Z" fill="url(#paint2_linear_1630_2072)"/>
<path d="M7.5625 15.8125C8.13204 15.8125 8.59375 15.3508 8.59375 14.7812C8.59375 14.2117 8.13204 13.75 7.5625 13.75C6.99296 13.75 6.53125 14.2117 6.53125 14.7812C6.53125 15.3508 6.99296 15.8125 7.5625 15.8125Z" fill="url(#paint3_linear_1630_2072)"/>
<path d="M14.4375 12.375C15.007 12.375 15.4688 11.9133 15.4688 11.3438C15.4688 10.7742 15.007 10.3125 14.4375 10.3125C13.868 10.3125 13.4062 10.7742 13.4062 11.3438C13.4062 11.9133 13.868 12.375 14.4375 12.375Z" fill="url(#paint4_linear_1630_2072)"/>
<path d="M14.4375 15.8125C15.007 15.8125 15.4688 15.3508 15.4688 14.7812C15.4688 14.2117 15.007 13.75 14.4375 13.75C13.868 13.75 13.4062 14.2117 13.4062 14.7812C13.4062 15.3508 13.868 15.8125 14.4375 15.8125Z" fill="url(#paint5_linear_1630_2072)"/>
<path d="M11 15.8125C11.5695 15.8125 12.0312 15.3508 12.0312 14.7812C12.0312 14.2117 11.5695 13.75 11 13.75C10.4305 13.75 9.96875 14.2117 9.96875 14.7812C9.96875 15.3508 10.4305 15.8125 11 15.8125Z" fill="url(#paint6_linear_1630_2072)"/>
<defs>
<linearGradient id="paint0_linear_1630_2072" x1="19.5925" y1="1.375" x2="-0.203657" y2="4.88877" gradientUnits="userSpaceOnUse">
<stop stop-color="#DCAD81"/>
<stop offset="0.25" stop-color="#D8A97C"/>
<stop offset="0.5" stop-color="#FFD2A4"/>
<stop offset="0.75" stop-color="#D8A97C"/>
<stop offset="1" stop-color="#DCAD81"/>
</linearGradient>
<linearGradient id="paint1_linear_1630_2072" x1="8.59375" y1="10.3125" x2="6.22698" y2="10.7578" gradientUnits="userSpaceOnUse">
<stop stop-color="#DCAD81"/>
<stop offset="0.25" stop-color="#D8A97C"/>
<stop offset="0.5" stop-color="#FFD2A4"/>
<stop offset="0.75" stop-color="#D8A97C"/>
<stop offset="1" stop-color="#DCAD81"/>
</linearGradient>
<linearGradient id="paint2_linear_1630_2072" x1="12.0312" y1="10.3125" x2="9.66448" y2="10.7578" gradientUnits="userSpaceOnUse">
<stop stop-color="#DCAD81"/>
<stop offset="0.25" stop-color="#D8A97C"/>
<stop offset="0.5" stop-color="#FFD2A4"/>
<stop offset="0.75" stop-color="#D8A97C"/>
<stop offset="1" stop-color="#DCAD81"/>
</linearGradient>
<linearGradient id="paint3_linear_1630_2072" x1="8.59375" y1="13.75" x2="6.22698" y2="14.1953" gradientUnits="userSpaceOnUse">
<stop stop-color="#DCAD81"/>
<stop offset="0.25" stop-color="#D8A97C"/>
<stop offset="0.5" stop-color="#FFD2A4"/>
<stop offset="0.75" stop-color="#D8A97C"/>
<stop offset="1" stop-color="#DCAD81"/>
</linearGradient>
<linearGradient id="paint4_linear_1630_2072" x1="15.4687" y1="10.3125" x2="13.102" y2="10.7578" gradientUnits="userSpaceOnUse">
<stop stop-color="#DCAD81"/>
<stop offset="0.25" stop-color="#D8A97C"/>
<stop offset="0.5" stop-color="#FFD2A4"/>
<stop offset="0.75" stop-color="#D8A97C"/>
<stop offset="1" stop-color="#DCAD81"/>
</linearGradient>
<linearGradient id="paint5_linear_1630_2072" x1="15.4687" y1="13.75" x2="13.102" y2="14.1953" gradientUnits="userSpaceOnUse">
<stop stop-color="#DCAD81"/>
<stop offset="0.25" stop-color="#D8A97C"/>
<stop offset="0.5" stop-color="#FFD2A4"/>
<stop offset="0.75" stop-color="#D8A97C"/>
<stop offset="1" stop-color="#DCAD81"/>
</linearGradient>
<linearGradient id="paint6_linear_1630_2072" x1="12.0312" y1="13.75" x2="9.66448" y2="14.1953" gradientUnits="userSpaceOnUse">
<stop stop-color="#DCAD81"/>
<stop offset="0.25" stop-color="#D8A97C"/>
<stop offset="0.5" stop-color="#FFD2A4"/>
<stop offset="0.75" stop-color="#D8A97C"/>
<stop offset="1" stop-color="#DCAD81"/>
</linearGradient>
</defs>
</svg>
