<svg width="19" height="18" viewBox="0 0 19 18" fill="none" xmlns="http://www.w3.org/2000/svg">
<path d="M17.7803 8.46053L12.5302 3.21053C12.3888 3.07392 12.1993 2.99832 12.0027 3.00003C11.8061 3.00174 11.6179 3.08061 11.4789 3.21967C11.3398 3.35873 11.261 3.54684 11.2592 3.74348C11.2575 3.94013 11.3331 4.12958 11.4698 4.27103L15.4395 8.24078H2.25C2.05109 8.24078 1.86032 8.3198 1.71967 8.46045C1.57902 8.60111 1.5 8.79187 1.5 8.99078C1.5 9.1897 1.57902 9.38046 1.71967 9.52111C1.86032 9.66177 2.05109 9.74078 2.25 9.74078H15.4395L11.4698 13.7105C11.3981 13.7797 11.341 13.8625 11.3017 13.954C11.2624 14.0455 11.2417 14.1439 11.2408 14.2435C11.2399 14.3431 11.2589 14.4418 11.2966 14.534C11.3343 14.6262 11.39 14.7099 11.4605 14.7803C11.5309 14.8507 11.6146 14.9064 11.7068 14.9442C11.799 14.9819 11.8977 15.0008 11.9973 15C12.0969 14.9991 12.1953 14.9784 12.2868 14.9391C12.3783 14.8998 12.4611 14.8427 12.5302 14.771L17.7803 9.52103C17.9209 9.38039 17.9998 9.18966 17.9998 8.99078C17.9998 8.79191 17.9209 8.60118 17.7803 8.46053Z" fill="black"/>
</svg>
