<svg width="92" height="12" viewBox="0 0 92 12" fill="none" xmlns="http://www.w3.org/2000/svg">
<path d="M47.1307 11.0392C47.0256 11.0077 46.7102 11.0077 46.5262 11.0549C46.4736 11.1179 46.6313 11.1336 46.6839 11.1809C46.6313 11.1966 46.5787 11.2281 46.4736 11.2124C46.2633 11.1494 46.2107 10.9762 46.237 11.0077C46.0267 11.0234 45.6062 10.9919 45.3696 10.9289L45.4747 10.8974L45.0805 10.8817C44.9753 11.1336 44.3445 10.8502 44.1342 11.0864L43.8713 10.9604L43.7662 10.9919C43.7399 11.1022 44.0553 11.1022 44.2131 11.1651C43.7925 11.3384 43.2931 11.1179 42.9251 11.1651C42.8988 10.9762 43.3982 11.1022 43.5822 10.9919L43.0039 10.9762C42.4782 11.2596 42.3994 10.7242 42.2416 10.8659L42.3205 10.9132L42.1102 10.9919C41.4531 11.0864 40.6908 11.0707 40.244 10.9604L40.4542 10.8817C40.244 10.8817 40.0337 10.8659 39.8497 10.8974L40.1125 11.0234L39.4028 11.1179C39.7445 11.0549 40.06 11.1179 40.2702 11.1966C40.2965 11.2439 40.1914 11.2596 40.1388 11.2754C40.06 11.1966 39.8234 11.2439 39.6657 11.2124L39.9285 11.3384C39.692 11.3699 39.4554 11.3541 39.2451 11.3069L39.4291 11.3856C40.244 11.5273 41.0062 11.2439 41.5319 11.2596C41.8737 11.3069 42.3205 11.3541 42.4519 11.4958L42.3468 11.5273L43.3193 11.5588V11.6061L43.8976 11.6218L43.6348 11.5273C44.3445 11.2911 44.8702 11.6376 45.6062 11.5588C46.4999 11.4014 47.2622 11.5746 48.2084 11.4486C48.2873 11.5273 48.2873 11.6691 48.6553 11.6218L48.3924 11.5273C48.6816 11.5431 48.9707 11.3856 49.2073 11.4801L48.997 11.5588C48.9444 11.5903 49.0233 11.6218 49.0758 11.6376C49.365 11.5746 49.917 11.2439 50.1798 11.5588L49.9695 11.6376L50.0484 11.6848C50.1535 11.6218 50.3375 11.6218 50.469 11.5746C50.837 11.5273 51.7569 11.5431 51.4941 11.7793C51.9147 11.6061 52.0198 11.6691 52.4141 11.6533L51.6781 11.5116C52.2038 11.2911 52.3878 11.6848 52.8346 11.5903L52.7032 11.6691C53.3341 11.5588 54.2541 11.5273 54.7272 11.4643C55.0689 11.6533 55.5158 11.2911 55.6997 11.5431C56.6986 11.1966 57.2506 11.6376 58.3283 11.6061V11.6533C58.5123 11.4958 58.9854 11.6376 59.1957 11.7321C59.2483 11.6691 59.0906 11.6533 59.038 11.6061L59.1431 11.5746C59.4323 11.5588 59.9054 11.6376 59.6951 11.7163C60.142 11.5903 60.1683 11.6376 60.878 11.6848C60.9305 11.6376 60.8254 11.5431 61.0357 11.5273C61.062 11.7478 61.614 11.6533 61.9819 11.6376L61.7191 11.5116C61.7979 11.4643 61.9031 11.4801 62.0345 11.4801C62.4025 11.7478 63.6116 11.5588 64.2688 11.6061C64.2162 11.5588 64.0059 11.4801 64.2162 11.4486C65.0048 11.4643 65.215 11.4329 65.9773 11.4801C66.3979 11.6218 66.7922 11.5116 67.3179 11.5746C67.4493 11.5431 67.5019 11.4171 67.7384 11.4643C67.8699 11.4958 67.8173 11.5431 67.791 11.5903L68.1064 11.4801C68.1853 11.4171 68.3693 11.4643 68.5007 11.4486C68.6059 11.4328 68.711 11.4958 68.6584 11.5431C68.895 11.4486 69.2104 11.5273 69.5521 11.4958L69.5784 11.4171C70.1304 11.4643 71.0767 11.4171 71.839 11.4171C72.5224 11.2596 73.1532 11.4958 73.7315 11.3226L73.7578 11.2439C74.2835 11.2911 74.4675 11.1336 74.9406 11.2124L74.7303 11.2911C75.1772 11.3069 75.7555 11.1494 76.0972 11.3384C75.9658 11.1651 76.5966 11.2911 76.8332 11.1966C76.8857 11.1494 76.4652 11.2281 76.5703 11.1022C76.8069 10.9762 77.3063 11.0392 77.5692 11.1022L77.464 11.1336L79.5143 11.1651C79.12 11.0707 78.4629 11.1336 78.0686 11.0392C78.6206 11.0392 79.2777 10.9762 79.7508 11.0234L79.9611 10.9447C80.1977 10.9604 80.4868 10.9289 80.6183 11.0077L80.408 11.0864C80.6708 11.1022 81.0125 11.1179 81.1177 11.0392C81.0125 11.0549 80.9863 11.0077 80.9337 10.9919L81.2491 10.8817C81.5645 10.8817 81.3805 11.0549 81.696 11.0549C82.0902 10.8817 81.3543 11.0392 81.4594 10.8817C83.8776 11.0077 86.769 10.8502 89.1347 10.9289C89.6079 10.5982 90.5541 10.8344 91.001 10.5982C90.7907 10.6612 90.4227 10.6927 90.2124 10.614C90.7381 10.5037 90.4753 10.4093 90.9221 10.2833C90.5804 10.236 90.3438 10.362 90.1598 10.173C89.5553 10.4093 89.2136 10.1258 88.6879 10.1573L89.3187 9.98408C88.977 9.99982 88.5827 10.1258 88.3199 10.0628L88.3462 9.98408C88.0044 9.77936 87.7153 9.65337 87.1107 9.85809C87.0319 9.81085 86.8742 9.76361 86.953 9.68487C86.1908 9.46441 85.8753 10.0156 85.0605 9.73211C84.3245 9.59039 83.5359 9.85809 82.7999 9.73211V9.76361C83.5622 9.90534 84.3508 9.73211 84.8765 10.0471L84.6662 10.1258C82.9577 9.7951 81.7222 10.4722 80.0137 10.5195C79.0674 10.4722 77.9372 10.6455 76.9646 10.5352C77.1749 10.5037 76.9646 10.3305 77.3063 10.3463C77.3852 10.7085 77.648 10.1888 78.2 10.299C78.5943 10.362 79.3828 10.425 79.304 10.2518C79.4354 10.3305 79.7246 10.2675 79.8034 10.236C79.5143 10.1258 79.1463 10.236 78.8309 10.236C77.832 10.0628 76.728 10.425 75.8606 10.2518C75.0721 10.4093 74.1258 10.3148 73.3372 10.488C73.1269 10.4722 72.9692 10.3148 72.7589 10.4723C72.1807 10.3463 71.5235 10.4565 71.1818 10.488L70.8401 10.362C70.0778 10.362 69.3156 10.5195 68.6321 10.488L68.6584 10.4408L68.159 10.425L68.1327 10.5037C67.791 10.4722 67.0813 10.5825 67.3179 10.2675C67.2916 10.4093 66.871 10.4565 66.9236 10.5825C66.8185 10.4565 66.6345 10.551 66.4242 10.5667C65.8196 10.6612 64.5053 10.6297 63.9796 10.5195L63.9533 10.5667C63.7168 10.5982 63.3488 10.7557 63.2699 10.5825C62.9545 10.7872 63.7431 10.6927 63.6905 10.8344C63.5854 10.8502 63.5065 10.9289 63.3751 10.8974C62.6128 10.8502 61.43 11.0549 60.7465 10.8029C61.4562 10.7085 62.5077 10.7872 63.0334 10.6927L62.6654 10.5982C61.9557 10.6927 60.9831 10.7872 60.3785 10.7085C60.142 10.6455 59.6688 10.6297 59.222 10.6612C59.0643 10.4722 58.4071 10.6612 58.1443 10.6297C57.9077 10.677 58.0654 10.8974 58.1706 10.8344L58.3809 10.7557C58.7751 10.9919 59.2483 10.7085 59.7477 10.7715C60.1157 10.8344 59.774 10.8187 59.9843 10.9447L58.3809 11.0077C57.8814 11.0077 57.6449 10.9919 57.2769 11.0549C57.1192 11.0549 57.0929 10.9919 57.014 10.9604C57.1192 10.8974 57.1454 10.8187 57.3557 10.7715C56.9089 10.614 56.6723 10.8187 56.1992 10.7242L56.278 10.7715L55.9626 10.8817C55.6735 10.9919 54.5432 10.8974 54.8586 10.9289L54.806 11.0864C53.9912 11.1336 53.2289 11.0392 52.5455 11.0864C51.5729 11.0549 50.8895 11.1809 50.0221 10.9919C50.101 10.9604 50.2587 10.9447 50.2587 10.8817L51.5467 10.8502C51.7832 11.0392 52.3089 10.8974 52.5192 10.8502C52.2038 10.7085 51.7832 10.9132 51.4678 10.7715C51.0735 10.9132 50.6267 10.7715 50.3113 10.6927L50.0747 10.8502C49.917 10.6297 49.0758 10.6927 48.9181 10.7242C49.181 10.8344 49.6804 10.6455 49.8644 10.8344L49.0496 10.9289C49.1284 11.1179 49.549 10.8659 49.4964 11.0707C48.9707 11.0234 48.6816 11.1494 48.1296 11.0234L48.2347 10.9919L47.3673 10.9132C47.341 10.8659 47.4199 10.8502 47.4987 10.8344L46.789 10.8817C46.9467 10.8974 47.1833 10.8659 47.2621 10.9447C47.1307 11.0077 46.9204 10.9604 46.7627 10.9604L47.3147 11.0549L47.1307 11.0392ZM43.8976 11.3226V11.3699L43.2142 11.3384L43.2405 11.3069L43.8976 11.3226ZM50.5215 11.5273V11.5746L50.1273 11.5588L50.1535 11.5116L50.5215 11.5273ZM42.4519 11.1809L42.4782 11.1022L42.7674 11.1179C42.7936 11.1651 42.6885 11.1809 42.6359 11.1966L42.4519 11.1809ZM44.4233 11.1809V11.1336L44.9228 11.1494C44.8176 11.2281 44.6073 11.1651 44.4233 11.1809ZM51.2575 11.3856C51.1787 11.3856 51.0735 11.3699 50.9684 11.3699C50.5741 11.3699 50.1535 11.4958 49.7067 11.3699C50.0747 11.3069 50.6004 11.3384 50.9684 11.3699C51.0735 11.3699 51.1524 11.3699 51.2575 11.3856ZM76.2812 10.4093C76.5966 10.488 76.6492 10.299 76.8857 10.3463C76.8595 10.425 76.6492 10.4408 76.544 10.488C76.3863 10.5195 76.36 10.4408 76.2812 10.4093ZM64.6631 10.677L64.5842 10.6297L65.1625 10.6455C64.7156 10.7242 64.7945 10.7715 64.3476 10.7715C64.4528 10.7242 64.6893 10.7715 64.6631 10.677ZM73.0744 11.2281L73.6789 11.1651C73.6789 11.3069 73.3109 11.1966 73.1532 11.2596L73.0744 11.2281ZM56.4357 11.1809L56.7512 11.1494C56.6986 11.1651 56.6197 11.1809 56.6197 11.2281C56.5409 11.2281 56.4883 11.1966 56.4357 11.1809ZM53.5706 11.2281C53.6758 11.2911 53.8598 11.3541 53.9386 11.2754C53.9123 11.3541 53.5969 11.2911 53.4392 11.2911C53.4918 11.2911 53.5706 11.2754 53.5706 11.2281C53.4129 11.1336 53.4655 11.1809 53.5706 11.2281Z" fill="#AA8453"/>
<path d="M45.4749 11.6543H45.6589C45.7115 11.6228 45.6327 11.5913 45.5801 11.5756C45.5275 11.6071 45.4487 11.6228 45.4749 11.6543Z" fill="#AA8453"/>
<path d="M8.33301 3.81042C8.46443 3.81042 8.54329 3.82617 8.64843 3.82617C8.51701 3.81042 8.41186 3.79468 8.33301 3.81042Z" fill="#AA8453"/>
<path d="M32.1213 4.07984C32.0425 4.09558 31.9636 4.09558 31.8848 4.11133C31.9636 4.11133 32.0425 4.11133 32.1213 4.07984Z" fill="#AA8453"/>
<path d="M10.4893 7.98413C10.5155 7.99988 10.5681 8.01562 10.6207 8.01562L10.4893 7.98413Z" fill="#AA8453"/>
<path d="M13.4851 8.3457V8.29846L13.0908 8.28271V8.32995C13.2485 8.3457 13.4062 8.3457 13.4851 8.3457Z" fill="#AA8453"/>
<path d="M31.0967 4.07823C31.4121 4.12547 31.6224 4.12547 31.8852 4.10972C31.6224 4.09397 31.307 3.98374 31.0967 4.07823Z" fill="#AA8453"/>
<path d="M3.75977 7.59081L3.91748 7.7168C3.94376 7.66955 3.91748 7.62231 4.0489 7.60656C3.91748 7.59081 3.75977 7.62231 3.75977 7.59081Z" fill="#AA8453"/>
<path d="M15.8516 8.59811C16.1407 8.58236 16.0356 8.39339 16.3773 8.45638C16.4299 8.47213 16.4824 8.50362 16.4561 8.53512L16.8767 8.42489L17.0344 8.51937C17.1396 8.53512 17.1921 8.50362 17.2447 8.48788C17.6653 8.47213 18.0858 8.42489 18.2961 8.56661V8.51937C18.191 8.53512 18.1647 8.48788 18.1121 8.47213L18.3224 8.39339C18.4275 8.37764 18.4538 8.42488 18.5064 8.44063C18.7167 8.53512 18.9795 8.40914 19.2161 8.39339C19.4527 8.47213 19.111 8.51937 19.0584 8.58236L19.7418 8.61385C19.295 8.53512 19.8995 8.34615 19.7418 8.25166C20.0309 8.25166 19.7944 8.37764 19.9784 8.42489C20.4515 8.29891 20.4252 8.39339 20.8984 8.2989C21.0298 8.39339 21.6081 8.2989 21.4241 8.47213C21.7395 8.47213 22.0024 8.51937 22.1601 8.61385L21.3715 8.6296C21.7921 8.69259 22.3703 8.80283 23.0275 8.69259C23.08 8.73984 23.1852 8.73984 23.3166 8.73984L23.0538 8.64535C23.1852 8.58236 23.3692 8.56661 23.5532 8.58236C23.8423 8.91306 24.7623 8.72409 24.9726 8.78708L24.8937 8.73984L24.9989 8.70834C25.288 8.89731 25.6297 8.72409 25.9452 8.70834C25.7612 8.70834 25.6034 8.69259 25.5246 8.61385C25.7612 8.50362 26.024 8.6296 26.1291 8.59811C26.4183 8.55086 26.6811 8.69259 26.9703 8.70834C26.9177 8.72409 26.8651 8.75559 26.76 8.73984L27.7326 8.81858L27.7063 8.86582C27.9428 8.9918 27.9691 8.85007 28.2057 8.80283C28.3634 8.81857 28.6 8.78708 28.6788 8.86582C28.6263 8.88156 28.5474 8.89731 28.5474 8.94455C28.6788 8.92881 28.8628 8.9918 28.9417 8.91306C29.3885 8.88156 29.6777 8.85007 29.9931 8.9918L29.7828 9.07053C30.5451 9.13352 30.7291 8.70834 31.3336 8.80283C31.5702 8.70834 31.7805 8.55086 31.7279 8.45638C32.0696 8.47213 32.1485 8.45638 32.3851 8.51937C32.1222 8.56661 32.3325 8.6296 32.1485 8.67684C32.5691 8.80282 33.1211 9.16502 33.8045 8.9918C33.6993 8.97605 33.2788 8.91306 33.0685 8.88157C33.489 8.81857 34.225 8.75559 34.6193 8.6611L34.1462 8.59811C34.1199 8.53512 34.3039 8.51937 34.3827 8.48788C34.9873 8.55087 35.9336 8.44063 36.1964 8.67684L36.0913 8.70834C35.9336 8.6296 35.2765 8.61386 35.4079 8.72409C35.4867 8.78708 35.8022 8.78708 35.6444 8.89731C36.2753 8.85007 36.7484 8.91306 37.3004 8.91306V8.9603L38.273 8.9918L37.353 9.08628C38.1678 9.02329 38.6935 9.27525 39.1667 8.9603C39.4295 8.97605 39.7712 8.94455 39.929 9.02329L39.2193 9.08628C39.4558 9.19651 39.7975 9.11778 40.0867 9.10203C40.0341 9.07054 39.9027 9.03904 39.9552 8.9918H40.8489C41.5324 8.81857 42.7678 9.30675 42.7678 8.81858C42.9518 8.80283 43.0306 8.86581 43.1358 8.91306C43.0569 9.02329 43.1883 9.14927 42.7678 9.14927C43.5301 9.19651 44.634 9.19651 45.3963 9.24376L45.7117 9.18077C46.0009 9.35399 46.7631 9.22801 46.9209 9.43273L46.7106 9.51147C46.8946 9.54296 47.1049 9.6532 47.2626 9.60595C47.2363 9.49572 47.6831 9.55871 47.4203 9.44848C47.6568 9.27526 47.946 9.46422 48.2088 9.47997C48.0511 9.52721 48.0774 9.68469 47.7883 9.6217C48.0248 9.73193 48.3928 9.5902 48.6294 9.77917C48.8923 9.6217 48.2351 9.40124 48.3928 9.291C48.9448 9.27526 49.4968 9.07053 50.0751 9.22801C50.8899 9.10203 51.7836 9.40123 52.7825 9.40123L53.1242 9.25951C53.5448 9.24376 53.8339 9.33824 54.1756 9.38548C54.0442 9.49572 53.4396 9.47997 53.3608 9.47997C53.2031 9.54296 53.3345 9.65319 53.0716 9.63745C53.3871 9.68469 53.7288 9.77917 53.9916 9.70044C54.3859 9.73193 55.3847 9.71618 55.5425 9.79492L55.4899 9.66894L55.3847 9.70044C55.2796 9.70044 55.1482 9.70044 55.0956 9.65319C55.1482 9.63745 55.2007 9.60595 55.3059 9.6217L55.227 9.57446C55.2007 9.51147 55.3847 9.49572 55.4636 9.46422C55.9105 9.51146 56.4362 9.40123 56.6464 9.57446L56.9356 9.47997C57.5664 9.5902 58.7756 9.18077 58.6704 9.6217C59.2224 9.47997 59.3275 9.73193 59.9321 9.66894L59.8795 9.54296C59.5378 9.51146 59.5378 9.57446 59.275 9.60595C59.1961 9.54296 59.0121 9.51147 59.0384 9.43273C60.1161 9.3225 61.2201 9.3225 62.4029 9.40123C62.3766 9.44848 62.4029 9.49572 62.2715 9.51147C62.9549 9.55871 63.5069 9.70044 64.1378 9.49572C63.9538 9.51147 63.8749 9.44848 63.7698 9.40123C64.2692 9.33824 64.4795 9.41698 64.9263 9.47997C64.9263 9.41698 65.084 9.40124 65.1629 9.36974C65.2155 9.43273 65.3206 9.41698 65.452 9.41698C65.5835 9.18077 66.0303 9.43273 66.1617 9.36974C66.4509 9.40124 66.7926 9.16502 66.9503 9.35399C67.1606 9.27525 67.4234 9.38549 67.3709 9.24376C68.1331 9.40123 68.58 9.24376 69.5263 9.27525C69.8154 9.18077 70.2885 9.33824 70.5251 9.19652C70.6565 9.38549 71.1297 9.21226 71.3137 9.22801C71.7079 9.21226 72.0759 9.13353 72.3914 9.27525L72.4177 9.14927H72.5228C72.6017 9.07053 73.0748 8.89731 73.3639 9.02329L73.0222 9.21226C73.2325 9.19652 73.7845 9.30675 74.0211 9.16502C74.0999 9.00754 73.6268 9.13352 73.5742 8.9918C74.7833 8.89731 76.1239 8.80283 77.5433 8.89731L77.0176 9.00754L77.0964 9.05479L77.3067 8.97605C77.6484 9.00755 77.9639 8.89731 78.1741 9.05479L77.7536 9.11778C78.7261 9.13353 79.9353 9.14927 80.4084 8.81858C80.8027 8.86582 81.5124 8.77133 81.5387 9.02329C80.8815 9.02329 80.9341 9.291 80.9078 9.44848C81.1707 9.54296 82.0118 9.49572 81.7227 9.71618L82.4324 9.66894L82.1695 9.54296C81.9067 9.43273 82.4061 9.38548 82.5375 9.30675L82.2747 9.18077C82.8004 8.92881 82.8529 9.38549 83.3786 9.13353C83.6678 9.11778 83.8255 9.19651 84.0358 9.24376C83.9832 9.291 84.0884 9.38549 83.8781 9.40123L84.2724 9.41698C84.3249 9.3225 84.2461 9.19651 84.4563 9.14927C84.5615 9.14927 84.6929 9.14927 84.7455 9.19652C84.6666 9.22801 84.5089 9.24376 84.5089 9.30675C84.7192 9.291 84.9295 9.2595 85.1398 9.16502C85.0346 9.16502 84.9032 9.16502 84.8506 9.11778C84.9032 9.10203 84.9558 9.07053 85.0609 9.08628C85.2975 8.91306 84.8243 8.64535 85.3238 8.48788C84.9032 8.40914 85.534 8.09419 84.982 8.0312C85.718 7.77924 86.3752 7.95246 87.2163 7.82648C87.7946 7.85797 88.8986 7.65325 88.7146 8.07844C89.3191 7.63751 90.7385 7.88947 91.3957 7.7005C91.0277 7.7005 91.3168 7.54302 91.2642 7.44854C91.054 7.27531 90.6597 7.24382 90.3705 7.13358C90.0551 6.85013 91.2117 6.64541 90.1866 6.48793C90.6071 6.14149 89.4243 5.92102 89.4768 5.57458C89.0563 5.60607 89.2403 5.30687 88.846 5.43285C88.7671 5.18089 88.0049 5.4171 87.9523 5.16514C86.7432 5.16514 85.3238 5.46434 84.0621 5.30687L84.1409 5.35411L83.3524 5.36986C83.2735 5.4171 83.1684 5.40135 83.0369 5.40135C82.6689 5.29112 82.6164 5.36986 82.3272 5.44859L82.2484 5.40135C82.2221 5.35411 82.3272 5.33836 82.3798 5.32262C82.0381 5.27537 81.7752 5.35411 81.4861 5.36986C81.5912 5.36986 81.7227 5.36986 81.7752 5.4171L81.6701 5.44859C81.4861 5.43285 81.197 5.46434 81.0918 5.3856L81.197 5.35411L80.8553 5.13364C81.6701 5.0549 82.6952 5.10215 83.4312 5.07065C85.2975 4.94467 87.4003 5.13365 89.1877 4.88169C89.766 4.64547 89.214 4.26753 89.6346 4.04706L89.0826 3.90533L89.8186 3.76361L88.9511 3.70062L88.7409 3.77936C87.558 3.40141 85.8495 3.32267 84.4826 3.18095C83.1684 3.27543 82.0644 3.13371 80.8027 3.29118C78.5684 3.05497 75.6245 3.33842 73.2588 3.4644C72.6542 3.44866 71.6554 3.54314 71.156 3.59038C70.9457 3.32267 70.42 3.76361 70.0783 3.59038C68.9743 3.76361 67.8966 3.55889 66.9503 3.84235C66.8452 3.81085 66.8714 3.7636 66.8977 3.71636C66.1092 3.70061 65.6886 3.8266 64.9263 3.68487C64.6109 3.81085 64.2692 3.70062 63.9538 3.68487C63.6909 3.74786 63.2178 3.85809 63.0601 3.73211C62.2189 3.76361 61.6669 3.71636 60.931 3.88959C60.7995 3.81085 60.6155 3.76361 60.379 3.74786C59.2487 3.99982 58.0133 3.57463 56.9619 3.95258C56.8567 3.7951 56.331 3.90533 56.1207 3.7951C55.3059 3.90533 54.5962 3.7951 53.9128 3.95258C52.9139 3.55889 51.7836 4.06281 50.706 3.8266C50.2854 3.90533 49.7071 3.74786 49.3128 3.88959C49.234 3.85809 49.1814 3.7951 49.05 3.7951C48.8397 3.82659 48.5506 3.85809 48.6031 3.93683C48.498 3.8266 48.2088 3.76361 47.8409 3.8266C47.2889 3.68487 46.2637 3.81085 45.554 3.90533L45.4752 3.85809L45.6854 3.77936C45.4489 3.71637 45.3963 3.84234 45.2649 3.88959C44.7655 3.68487 43.9769 3.87384 43.4512 3.74786C43.0306 3.99982 42.8466 3.77935 42.3735 3.71636L42.3472 3.7951C42.2946 3.81085 42.2421 3.84234 42.1369 3.8266L42.7941 3.88959C42.5312 3.90533 42.2946 3.98407 41.9792 3.93683C41.8215 3.88959 41.7164 3.77935 41.8478 3.73211C41.2432 3.87384 40.6649 3.70061 40.1655 3.7951L40.1918 3.74786C39.6661 3.71636 39.0615 3.70062 38.7724 3.85809C37.9838 3.73211 37.0639 3.70061 36.065 3.71636C35.7233 3.7951 35.2239 3.85809 34.8822 3.74786C34.3302 3.60613 33.489 3.57464 32.5428 3.66912L33.0948 3.81085C33.1473 3.88959 32.9633 3.92108 32.8582 3.96832C32.6216 3.90533 32.2799 3.90534 32.1222 3.77936C32.1748 3.73211 32.5165 3.65338 32.2799 3.62188C31.6754 3.60613 31.0971 3.66912 30.5714 3.71636C30.7291 3.7636 30.7028 3.8266 30.8079 3.88959C30.5714 3.8266 30.1245 4.14155 30.2297 3.87384C29.9931 3.77935 29.6777 3.93683 29.4674 3.96832C30.1245 3.99982 30.3348 4.09431 30.9919 3.93683C31.4125 3.98407 31.9908 3.81085 32.2274 4.06281C32.2011 4.09431 32.1748 4.1258 32.1222 4.14155C32.1748 4.1258 32.2274 4.1258 32.3062 4.11005C32.3851 4.29902 32.7005 4.23603 32.9108 4.37776C31.8068 4.47225 30.9131 4.22029 29.9405 4.14155L30.0982 4.23603C30.1245 4.28328 30.0457 4.29902 29.9931 4.31477C29.4674 4.44075 29.0468 4.17305 28.4685 4.17305L28.4423 4.25178C28.3634 4.31477 28.1794 4.26753 28.048 4.28328C27.9166 4.1258 27.1806 4.20454 26.8914 4.1573C27.1017 3.93683 27.68 4.03132 27.9691 3.8266C28.4423 3.7951 28.7314 3.96832 29.152 3.8266L29.0731 3.77936L28.968 3.81085C28.5737 3.7951 28.1531 3.62188 28.0743 3.4959C27.7588 3.51164 28.232 3.70061 27.7326 3.63762C27.68 3.62188 27.6011 3.59038 27.6537 3.55889L27.5486 3.59038C27.1806 3.7951 26.944 3.4959 26.8126 3.44866C26.6811 3.54314 26.5234 3.38566 26.4971 3.51165L26.8126 3.48015L26.944 3.68487C26.2343 3.92108 25.2092 3.65337 24.6835 3.63762L24.8937 3.55889C24.9463 3.52739 24.8675 3.4959 24.8149 3.48015L24.7097 3.51165C24.4995 3.29118 23.6846 3.35417 23.3692 3.38567L24.184 3.62188L23.7372 3.81085L23.5795 3.71636C23.3166 3.73211 23.2903 3.77936 23.1326 3.85809C22.8172 3.85809 22.5543 3.81085 22.3966 3.71636L23.0275 3.62188C22.7646 3.62188 22.3703 3.55889 22.2389 3.63762L22.2652 3.92108C22.4229 3.95258 22.5543 3.88959 22.6858 3.85809C22.7909 3.90534 22.7909 3.96832 22.8435 4.03131C22.1601 4.14155 21.5818 4.07856 20.8721 3.99982C20.7407 3.90534 21.2138 3.85809 21.0298 3.84235C21.0561 3.88959 20.9509 3.90534 20.8984 3.92108L20.8195 3.87384L20.7932 3.99982L19.6104 3.95258C19.8995 3.93683 19.9258 3.81085 20.0835 3.73211C19.479 3.96832 18.6115 3.90534 17.9544 3.93683C18.1121 3.93683 18.1384 3.99982 18.2173 4.03131L18.1121 4.06281C17.087 3.66912 16.4299 3.98407 15.2207 3.84235L14.879 3.71636C14.5636 3.54314 14.4847 3.81085 14.2482 3.81085C14.3533 3.81085 14.4847 3.81085 14.5373 3.85809C14.4585 3.92108 14.2745 3.87384 14.143 3.88959C14.0905 3.84234 13.9327 3.8266 13.9853 3.76361L13.223 3.70062C12.9602 3.71637 12.6973 3.85809 12.7499 3.92108C12.2768 3.93683 11.9613 3.84235 11.5934 3.84235C11.5671 3.7951 11.6722 3.77936 11.7248 3.76361L10.7522 3.68487L10.9625 3.60613C10.8836 3.44866 10.5945 3.65337 10.6208 3.48015C11.6196 3.4644 12.3556 3.11796 13.2493 3.29118C13.3808 3.1652 12.6973 3.19669 13.1179 3.08646L12.9339 3.07072L12.9076 3.19669C11.7248 3.32267 11.6459 3.32267 10.3317 3.25968C10.3842 3.21244 10.3579 3.03922 9.98994 3.08646C9.80595 3.1337 9.85852 3.22819 9.72709 3.27543C10.0688 3.32267 10.5682 3.24394 10.7785 3.40141L10.6734 3.43291C9.98994 3.4959 9.22767 3.33842 8.88596 3.4959C8.78082 3.29118 8.46539 3.54314 8.22883 3.43291C8.2814 3.41716 8.36025 3.40141 8.36025 3.35417C8.01854 3.48015 7.51912 3.43291 7.3877 3.63762C7.22998 3.57463 7.12484 3.66912 7.0197 3.59038L7.36141 3.48015C7.25627 3.4644 7.2037 3.4959 7.15113 3.51165L6.88827 3.38567C6.36257 3.29118 6.31 3.51165 6.25743 3.52739C6.49399 3.52739 6.8357 3.32267 6.94084 3.51165L6.62542 3.57464C6.94084 3.65337 7.28255 3.63763 7.46655 3.73211C7.41398 3.90533 7.22998 3.66912 7.15113 3.7951C7.38769 3.81085 7.67683 3.77936 7.83455 3.85809L7.75569 3.81085L7.99226 3.66912C8.33397 3.63763 8.93853 3.60613 9.14881 3.74786C9.04367 3.7951 8.93853 3.81085 8.83339 3.81085C8.9911 3.8266 9.12253 3.8266 9.30653 3.85809V3.90533L9.72709 3.84235C10.2528 3.93683 11.0939 3.87384 11.3042 4.14155C11.0151 4.25178 10.7785 4.22028 10.4105 4.18879L10.8574 4.36201L11.0676 4.28328C11.3568 4.36201 11.9613 4.36202 12.2768 4.488C11.8036 4.56673 10.7522 4.37776 10.5157 4.425C10.6996 4.64547 11.1728 4.37776 11.4619 4.53524V4.58248H11.5671V4.53524C11.6196 4.55098 11.6722 4.58248 11.6459 4.61398C12.0402 4.51949 12.3556 4.66122 12.6973 4.69271C13.3019 4.83444 13.8276 4.66122 14.327 4.83444C14.3796 4.7872 14.3007 4.69271 14.4847 4.67696C14.6162 4.94467 15.1682 4.67697 15.2996 4.86594C15.5362 4.86594 15.9304 4.70846 16.1144 4.77145L15.9567 4.67696C16.2721 4.61397 16.7979 4.67696 17.0344 4.67696C16.8767 4.77145 17.1921 4.80295 17.271 4.85019L16.8767 4.88169C17.2184 4.91318 17.7441 5.0549 18.2173 4.97617C17.8756 4.85019 17.3761 5.00766 17.4024 4.73995C17.6653 4.80294 18.191 4.48799 18.0858 4.77145C18.5853 4.62972 18.6641 4.96042 18.9532 4.80295C19.0321 4.86594 19.3475 4.86593 19.1898 4.97617C19.0321 5.03916 18.7955 4.99192 18.5853 4.99192L18.559 5.1179C17.8755 5.22813 16.8241 5.13364 16.351 5.24388C17.4813 5.29112 18.8744 5.21238 19.8732 5.00766C20.3727 5.18089 20.8984 5.07066 21.5029 5.19664L21.3978 5.22813L22.2652 5.25963C22.6069 5.27537 22.5018 5.46434 22.4755 5.51159L21.7921 5.48009C21.2664 5.57458 20.6355 5.38561 19.9521 5.4171C19.7155 5.40135 19.5578 5.62182 19.3475 5.48009C18.8744 5.62182 17.7967 5.44859 17.3761 5.52733C17.2447 5.90527 16.4824 5.43285 15.799 5.54308C15.8779 5.60607 16.0619 5.65331 16.0356 5.7163C15.7727 5.7478 15.615 5.79504 15.3522 5.73205C15.4047 5.7478 15.4836 5.7793 15.431 5.81079C15.6676 5.76355 16.167 5.76355 16.1933 5.87378V5.82654C16.7453 5.81079 17.7441 5.76355 18.0333 5.96827L17.9281 5.99976C17.5338 5.92102 17.8756 6.14149 17.6916 6.15723C17.5601 6.14149 17.3498 6.17298 17.3236 6.10999C17.2973 6.06275 17.3761 6.047 17.455 6.03126C17.087 5.95252 16.719 6.15724 16.4824 5.95252L16.4561 6.03126H15.4573C15.0104 6.03126 14.9842 5.77929 15.063 5.70056L14.6687 5.68481L14.8264 5.81079L14.2219 5.82654C14.2219 5.88953 14.5373 5.96827 14.2482 6.03126C13.8802 6.18873 13.5122 6.01551 13.1705 6.03126C13.3545 6.01551 13.2756 5.92102 13.3282 5.87378C13.2756 5.90528 13.1968 5.88953 13.1179 5.87378C13.1442 5.88953 13.1705 5.88953 13.223 5.90528C13.2493 5.95252 13.1442 5.96827 13.0916 5.98401C12.4345 5.99976 11.9088 5.99976 11.3305 5.95252C11.6722 5.96827 11.7248 5.81079 11.9613 5.77929C11.8036 5.76355 11.5671 5.79504 11.4882 5.7163C11.5934 5.55883 11.7773 5.70056 12.0139 5.62182L11.2254 5.59033L11.7248 5.85803C11.6459 5.92102 11.1728 5.85803 11.3305 5.88953L11.4094 5.93677L10.9888 5.99976C10.9099 5.95252 10.7522 5.90528 10.8311 5.82654L10.0425 5.79504C10.1214 5.99976 10.5419 5.84229 10.8048 5.90528V5.95252C10.8048 6.12574 10.0951 6.09424 9.67452 6.0785C9.93737 5.95252 9.33281 5.82654 9.25395 5.85803L9.51681 5.98401C9.14881 6.09425 8.72825 6.26747 8.70196 6.36196C8.2814 6.17298 8.07111 6.62966 7.7294 6.36196C7.28255 6.42495 6.75685 6.36195 6.38885 6.26747C6.46771 6.23597 6.62542 6.22022 6.62542 6.15723H6.44142C6.44142 6.31471 5.96829 6.15724 5.91571 6.25172L5.99457 6.29897C5.758 6.44069 5.49515 6.15724 5.39001 6.36196C5.25858 6.34621 5.0483 6.3777 5.02201 6.31471L5.2323 6.23597L5.15344 6.18873C4.89059 6.22023 4.54888 6.0785 4.57516 6.12574L4.94316 6.22023C4.49631 6.42495 4.25974 6.11 3.7866 6.14149C3.81289 6.33046 4.78545 6.29896 4.36488 6.51943C4.07574 6.47219 3.81289 6.4092 3.57632 6.48793L4.62773 6.56667C4.65402 6.50368 4.44374 6.44069 4.6803 6.36196L4.8643 6.45644C5.83686 6.42495 5.62658 6.55093 6.49399 6.59817V6.62966C5.88943 6.66116 5.15344 6.62966 4.6803 6.72415C5.07458 6.92887 5.67915 6.59817 6.15228 6.7399C4.81173 7.3698 4.10203 6.34621 2.68262 6.85013C2.91919 6.81864 2.99804 6.91312 3.15575 6.94461L2.76147 6.97611C2.86661 7.18083 3.44489 6.96036 3.6026 7.08634C3.70775 7.19658 4.20717 7.0706 4.1546 7.22807C4.81173 7.14933 4.52259 7.40129 4.96944 7.46428C4.89059 7.65326 4.41745 7.48003 4.23345 7.63751C4.23345 7.57452 4.1546 7.55877 4.07574 7.55877C4.23345 7.59027 4.10203 7.669 4.12831 7.71625C4.49631 7.76349 4.33859 7.65325 4.44374 7.60601C4.54888 7.60601 4.6803 7.60601 4.73287 7.65325L4.62773 7.68475C4.75916 7.7005 4.96944 7.669 4.99573 7.73199L5.2323 7.62176C5.12716 7.62176 4.99573 7.62176 4.94316 7.57451L5.15344 7.49578C5.46886 7.57451 5.96829 7.54302 6.17857 7.7005C6.20485 7.65326 6.17857 7.60601 6.31 7.59026C6.49399 7.669 6.57285 7.73199 6.54656 7.79498H5.54772L6.59913 7.87372C6.59913 7.82648 6.59913 7.77923 6.73056 7.76349C6.70428 7.9997 7.44027 7.65326 7.25627 7.93671L7.65055 7.95246C7.67683 7.90522 7.65055 7.85797 7.78198 7.84223C7.88712 8.15718 8.85967 7.95246 9.28024 8.09419C9.28024 8.04694 9.28024 7.9997 9.41167 7.98395C9.8848 8.06269 9.98994 7.90522 9.96366 7.79498C10.1477 7.81073 10.4368 7.77924 10.5419 7.85797C10.4894 7.87372 10.4368 7.90521 10.3317 7.88947L10.4631 7.92096C10.4368 7.90522 10.4368 7.90521 10.4105 7.90521L11.0414 7.76349C11.0939 7.77923 11.1728 7.81073 11.1202 7.84223H11.3042C11.0939 8.14143 11.9876 7.93671 12.4082 8.07844C12.4608 8.18867 12.7762 8.23592 13.039 8.26741C12.5659 8.23592 12.4345 7.98395 12.5659 7.84223C13.223 7.81073 12.8813 8.09419 13.4596 8.10994L13.0916 7.98395C13.5648 7.95246 14.3007 7.93671 14.6425 8.07844L14.5373 8.10994L14.879 8.28315L14.3796 8.34615C14.695 8.3619 15.0893 8.34615 15.2207 8.50362L15.3522 8.39339C15.6676 8.42488 15.7202 8.55086 15.8516 8.59811ZM33.9885 8.53512V8.56661L33.5942 8.55087L33.6205 8.50362L33.9885 8.53512ZM36.3016 8.78708L36.0124 8.77133L36.4067 8.73984L36.3016 8.78708ZM53.0191 9.14927V9.19652L52.6248 9.18077V9.13353L53.0191 9.14927ZM61.7984 3.84235L62.1138 3.81085L61.9035 3.84235H61.7984ZM54.9642 3.99982L54.9905 3.95258L55.3847 3.96832L55.3585 3.99982H54.9642ZM31.5176 3.70062L31.9119 3.66912L31.8068 3.70062H31.5176ZM36.3541 4.36201C36.3016 4.33052 36.433 4.18879 36.7747 4.25178L36.3541 4.36201ZM37.1427 4.26753C37.5633 4.20454 37.7998 4.26753 38.1416 4.26753C37.7736 4.28327 37.4844 4.40925 37.1427 4.26753ZM43.714 4.425C43.6615 4.44075 43.6089 4.42501 43.5826 4.40926L43.3461 4.37776C43.5038 4.20454 43.4775 4.34627 43.5826 4.40926L43.714 4.425ZM43.9243 4.39351L43.8718 4.26753L44.5289 4.29902C44.2135 4.31477 44.3449 4.47225 43.9243 4.39351ZM46.658 4.40926C47.0786 4.47225 46.7631 4.29902 46.9997 4.29902L48.6557 4.36201L47.762 4.40926C47.4203 4.29903 47.1049 4.50374 46.658 4.40926ZM45.186 4.39351C45.0809 4.39351 45.0546 4.37776 45.002 4.34626H44.818L44.9232 4.31477C44.9495 4.33052 44.9757 4.34627 45.002 4.36201H45.2123L45.186 4.39351ZM74.3102 5.46434C73.9422 5.40135 73.4428 5.51158 72.9434 5.44859C72.9171 5.3856 73.1011 5.36986 73.1799 5.33836L73.2325 5.46434C73.5479 5.40135 74.0736 5.29112 74.3102 5.46434ZM75.0988 5.35411L75.5456 5.30687C75.4668 5.43285 75.2828 5.35411 75.0988 5.35411ZM49.0237 4.4565C48.9711 4.44075 48.9448 4.39351 48.8397 4.40926L49.1551 4.34626C49.0237 4.36201 49.0237 4.40926 49.0237 4.4565ZM46.0009 4.31477L45.5014 4.29902C45.7117 4.25178 45.8694 4.25178 46.0009 4.23603V4.31477ZM43.2935 4.17305L43.0043 4.1573L43.9243 4.06281C44.082 4.22029 43.4775 4.09431 43.2935 4.17305ZM48.6031 4.1573L48.8923 4.20454L48.6031 4.23603V4.1573ZM80.2507 5.40135C79.8301 5.40135 79.7776 5.27537 79.3833 5.36986L79.1467 5.19664C79.541 5.27537 79.909 5.29112 80.2244 5.24388C80.2507 5.19663 80.277 5.14939 80.1718 5.1179L80.5661 5.0864C80.461 5.22813 80.2244 5.32262 80.2507 5.40135ZM62.1664 4.29902C62.1926 4.34627 62.1138 4.36201 62.0349 4.37776C61.8772 4.37776 61.8509 4.31477 61.7721 4.28328L62.1664 4.29902ZM58.6441 4.20454C59.3275 4.25178 59.5641 4.37776 60.2212 4.22029C59.9321 4.34627 59.3801 4.33052 58.9858 4.40926L58.6967 4.39351C58.9858 4.34627 58.5916 4.28328 58.6441 4.20454ZM46.4477 3.84235C46.6054 3.84235 46.7369 3.92108 46.7106 3.96832C46.6054 3.96832 46.474 3.96833 46.4214 3.92108L46.4477 3.84235ZM43.3723 3.93683C43.4249 3.90534 43.3461 3.87384 43.2935 3.85809C43.4249 3.76361 43.5826 3.87384 43.6615 3.90533V3.95258L43.3723 3.93683ZM53.3082 4.29902C53.5448 4.28328 53.8602 4.36202 54.0179 4.25178L55.3322 4.425C54.5699 4.44075 53.939 4.36201 53.3082 4.29902ZM34.225 3.8266C34.3565 3.8266 34.5142 3.8266 34.6982 3.81085C34.6456 3.81085 34.593 3.8266 34.5142 3.84235L34.225 3.8266ZM34.8559 3.81085C35.2765 3.7951 35.7233 3.77936 36.1176 3.85809C35.7496 3.99982 35.329 3.81085 34.8559 3.81085ZM37.2741 3.87384L38.5358 3.92108V3.96832L37.2741 3.92108V3.87384ZM39.9552 4.07856C39.9552 4.09431 39.9552 4.09431 39.9552 4.07856C40.113 4.09431 40.3495 4.09431 40.3758 4.01557C40.4284 3.96833 40.297 3.93683 40.2444 3.90533C40.2181 3.90533 40.2181 3.90533 40.1918 3.88959C39.745 3.96832 39.4821 3.87384 38.9564 3.87384L38.9827 3.7951C39.4032 3.88959 39.8238 3.85809 40.1918 3.88959H40.2181C40.2181 3.88959 40.2444 3.88959 40.2444 3.90533C40.3232 3.92108 40.4284 3.92108 40.5072 3.93683C40.7175 3.93683 40.9541 3.98407 41.1118 3.92108C41.0329 3.98407 41.1644 4.03132 41.2695 4.09431C41.4535 3.93683 41.7164 4.1258 41.7689 4.07856C41.7689 4.1258 41.7164 4.17304 41.8215 4.20454C42.1895 4.23603 41.9266 3.99982 42.3472 4.11005L42.0318 4.17305L42.1895 4.29902C41.9529 4.34627 41.6375 4.15729 41.3221 4.26753L41.4798 4.39351C41.0067 4.37776 40.9804 4.09431 40.3495 4.23603C40.3232 4.425 40.1918 4.29902 39.8238 4.37776L39.0353 4.39351C39.0353 4.26753 40.0867 4.31477 39.9552 4.07856C39.745 4.06281 39.8238 4.07856 39.9552 4.07856ZM36.9061 4.09431C36.7747 4.11005 36.5907 4.04706 36.5119 4.1258L36.3541 4.03131L36.9061 4.09431ZM37.2216 4.06281L37.6158 4.07856V4.1258L37.2216 4.11005V4.06281ZM34.1988 4.23603L33.7782 4.29902L33.8045 4.22029C33.7256 4.14155 33.5153 4.22029 33.4102 4.25178L33.1736 4.07856C33.1211 4.09431 33.0422 4.11005 33.0422 4.1573L32.7531 4.14155C32.8056 4.1258 32.9108 4.11005 32.8845 4.06281L32.8056 4.01557L33.489 3.99982L33.5153 3.92108C33.6993 3.95258 33.8045 3.88959 33.9359 3.85809C33.8833 3.95258 33.2788 4.03131 33.7519 4.1258C34.3302 4.03131 34.6456 4.22029 35.0925 4.25178C34.777 4.40926 34.593 4.18879 34.2776 4.34626L34.1988 4.23603ZM24.0263 4.06281C24.0789 4.03132 24 3.99982 23.9475 3.98407C24.1052 4.01557 24.2366 3.95258 24.368 3.92108V3.87384L23.8949 3.85809C24.2366 3.76361 24.7623 3.88959 25.0252 4.01557C24.7623 4.03132 24.3943 4.11005 24.0263 4.06281ZM65.5835 5.66906L65.5046 5.62182C66.3194 5.62182 66.8452 5.55883 67.5811 5.62182C66.924 5.63757 66.3195 5.7478 65.5835 5.66906ZM14.7213 3.84235V3.81085L15.5099 3.84235V3.87384L14.7213 3.84235ZM17.639 4.34626L18.1121 4.36201L18.0858 4.44075C17.8493 4.47225 17.7967 4.37776 17.639 4.34626C17.5601 4.425 17.3498 4.48799 17.1133 4.44075L17.1396 4.31477L17.639 4.34626ZM15.1419 4.06281V4.03131L15.5362 4.04706V4.09431L15.1419 4.06281ZM58.5916 5.70056L57.6979 5.7478C58.0133 5.60607 58.2761 5.7163 58.5916 5.70056ZM14.2745 4.06281C14.695 4.23603 15.2207 4.11005 15.6413 4.23603C15.6676 4.23603 15.6676 4.23603 15.6939 4.23603L15.7727 4.28328C15.7202 4.26753 15.6939 4.25178 15.6413 4.23603C15.4573 4.23603 15.4573 4.33052 15.3522 4.37776L15.5362 4.47225L15.247 4.4565C15.431 4.31477 14.9842 4.34627 14.9053 4.28328L15.0104 4.25178C14.8527 4.06281 14.511 4.25178 14.2219 4.22029L14.2745 4.06281ZM14.2745 4.34626L14.6425 4.39351L14.3533 4.37776L14.2745 4.34626ZM13.3282 4.28328C13.1179 4.31477 13.0128 4.22028 12.9602 4.18879L12.8813 4.14155C13.0653 4.14155 13.4859 4.14155 13.3282 4.28328ZM11.2516 4.23603L11.5671 4.20454L11.3042 4.07856L11.6985 4.09431C11.5934 4.25178 11.9351 4.25178 12.1716 4.28328C11.8825 4.25178 11.4882 4.44075 11.2516 4.23603ZM35.5393 6.01551L35.4604 5.96827L35.9599 5.95252C35.9336 6.01551 35.697 5.98401 35.5393 6.01551ZM40.3758 5.99976V6.03126L39.5872 5.99976L39.6135 5.95252L40.3758 5.99976ZM34.6982 5.90528C34.7507 5.96827 34.8559 5.95252 34.9873 5.95252C34.5142 5.98401 34.593 6.22022 34.0936 5.99976C33.9622 6.06275 33.7782 6.0785 33.5679 6.06275L33.489 6.01551C33.8045 5.93677 34.2513 5.87378 34.593 5.96827L34.6982 5.93677L34.4616 5.76355C34.7507 5.57457 35.3027 5.82654 35.6444 5.76355C35.4079 5.98401 34.9873 5.73205 34.6982 5.90528ZM27.312 5.59033H27.2069L27.3383 5.51159L27.312 5.59033ZM41.2169 5.85803L41.1907 5.98401L40.7175 5.96827L41.2169 5.85803ZM38.0627 5.87378L37.4844 5.85803V5.82654L38.0627 5.84228V5.87378ZM42.0055 5.81079L42.0844 5.88953C41.8215 5.87378 41.6375 5.99976 41.4009 5.90528C41.6375 5.96827 41.7689 5.79504 42.0055 5.81079ZM37.1164 5.66906L37.0376 5.62182H38.2204L37.1164 5.66906ZM42.2684 5.90528C42.3735 5.92102 42.4261 5.88953 42.4786 5.87378L42.8466 5.88953C42.6101 5.88953 42.5312 6.01551 42.2684 5.90528ZM13.1179 4.58248L13.1442 4.50374C13.0916 4.53524 14.2219 4.64547 14.6162 4.55099C14.3007 4.69271 13.5122 4.58248 13.1179 4.58248ZM15.4573 4.67696L15.247 4.70846C15.2996 4.64547 15.1419 4.62972 15.0893 4.58248L15.4573 4.67696ZM90.2917 7.3383C90.5808 7.65325 89.6083 7.6375 89.1089 7.65325L86.8746 7.57451C86.822 7.59026 86.7957 7.59026 86.7432 7.60601L86.6643 7.55877L86.8746 7.57451C87.4003 7.43279 88.1363 7.63751 88.6883 7.43279C89.0563 7.51153 89.3191 7.48003 89.6609 7.51153L90.2917 7.3383ZM24.736 5.10215C24.6046 5.10215 24.4732 5.1179 24.2892 5.1179C24.368 4.97617 24.5257 5.0864 24.736 5.10215ZM26.944 5.18089L27.2331 5.19664L27.2069 5.24388L26.9177 5.22813L26.944 5.18089ZM19.8995 5.00766C20.0835 4.89743 20.3464 4.92893 20.6092 4.92893C20.3727 4.96042 20.1887 5.05491 19.8995 5.00766ZM36.3541 5.60607L36.249 5.63757L36.5119 5.76355C36.3279 5.82654 36.0387 5.77929 35.8284 5.77929C36.249 5.77929 35.8022 5.48009 36.3541 5.60607ZM30.3611 5.59033L29.8617 5.57458L29.888 5.44859C30.1245 5.57457 30.3611 5.38561 30.3611 5.59033ZM23.8686 5.51159L23.6583 5.59033C23.6058 5.54308 23.5006 5.54308 23.3692 5.54308L23.3166 5.3856C23.5006 5.40135 23.6846 5.38561 23.816 5.32262L23.7372 5.27537C24 5.24388 24 5.36986 24.0789 5.40135C24.7097 5.30687 25.0252 5.68481 25.4457 5.4171L25.4194 5.54308L25.3406 5.49584L25.104 5.65332C24.8149 5.4171 24.368 5.48009 23.8686 5.51159ZM25.7612 5.49584C25.9977 5.32262 26.1291 5.54308 26.4446 5.48009L26.1291 5.55883C26.2869 5.59032 26.1554 5.66906 26.1817 5.7163C26.1817 5.52733 25.4194 5.73205 25.7612 5.49584ZM33.1999 5.93677C33.1473 6.06275 33.0422 6.0785 32.8319 6.20448C32.6216 6.01551 32.1748 6.20448 31.7805 6.12574C31.8331 6.09425 31.7542 6.06275 31.7016 6.047C31.9119 6.17298 32.7268 5.84228 33.1999 5.93677ZM31.3336 5.93677L31.3074 6.06275L31.0182 6.047C31.1234 5.96827 31.0708 5.96826 31.3336 5.93677ZM23.4218 5.73205C23.5006 5.68481 23.8423 5.7478 24 5.79504L23.4218 5.73205ZM21.3452 5.73205L21.3715 5.7478C21.5555 5.73205 21.8184 5.70056 21.9235 5.7163C21.7395 5.7163 21.5292 5.82654 21.3715 5.7478C21.2138 5.76355 21.1612 5.7793 21.3452 5.73205ZM25.1566 5.84228L25.0777 5.79504H25.288C25.2354 5.85803 25.3932 5.87378 25.4457 5.92102L25.5509 5.88953C25.4194 6.09425 25.3406 5.81079 25.1566 5.84228ZM40.2444 7.0706L39.8501 7.05485L40.2707 6.99186L40.2444 7.0706ZM30.9919 6.42494C31.0182 6.42494 31.0445 6.42495 31.0445 6.44069L31.4651 6.51943C31.2548 6.53518 31.1759 6.47219 31.0445 6.44069L30.9919 6.42494L30.7817 6.48793L30.8605 6.53518C30.6502 6.51943 30.4137 6.50368 30.2559 6.59817L30.7028 6.3777L30.9919 6.42494ZM29.6514 6.33046C29.7828 6.31471 29.7828 6.26747 29.7828 6.22023H29.9668C29.8091 6.3777 30.3085 6.31471 30.4137 6.39345C29.0468 6.81863 28.048 6.25172 26.7863 6.34621C26.6023 6.39345 26.3394 6.51943 26.0766 6.39345C26.2343 6.4092 26.2869 6.34621 26.392 6.33046C26.3394 6.28322 26.2343 6.28322 26.1029 6.28322C26.1554 6.25172 26.0766 6.22023 26.024 6.20448C25.472 6.26747 26.1817 6.47219 25.5509 6.47219L25.7612 6.39345L25.4983 6.26747C25.84 6.22023 26.1029 6.06275 26.5234 6.14149L26.9703 6.31471L27.1806 6.23597L27.1017 6.18873C27.2068 6.18873 27.3383 6.18873 27.3908 6.23597L27.7326 6.12574C28.4423 6.29896 29.0994 6.03125 29.6514 6.33046ZM16.2459 5.7163C16.3247 5.66906 16.6664 5.73205 16.8241 5.77929C16.6139 5.7478 16.351 5.79504 16.2459 5.7163ZM18.4538 5.87378V5.84228L19.0321 5.85803V5.88953L18.4538 5.87378ZM19.4264 5.90528V5.85803L19.9258 5.87378V5.92102L19.4264 5.90528ZM21.5555 6.03126L21.5818 5.98401L21.8709 5.99976L21.8446 6.047L21.5555 6.03126ZM22.4492 5.98401L23.1326 6.01551L22.9223 6.09424L22.4492 5.98401ZM24.4995 6.06275L25.5772 6.09424C25.3406 6.0785 25.1303 6.12574 24.9463 6.18873L25.104 6.26747L24.4732 6.28322C24.4469 6.29896 24.4469 6.31471 24.4206 6.33046C24.4469 6.36195 24.5257 6.3777 24.5783 6.4092H24.4732C24.4206 6.39345 24.4206 6.36195 24.4206 6.33046C24.3943 6.31471 24.3943 6.29896 24.3943 6.28322H24.4469C24.6309 6.17298 25.0777 6.06275 24.4995 6.06275ZM21.1349 6.14149C21.0561 6.14149 21.0035 6.15724 20.9246 6.17298C21.0035 6.14149 21.0561 6.12574 21.1349 6.14149C21.5292 6.12574 22.0286 6.25172 22.3178 6.17298L22.6858 6.22023C22.3703 6.4092 21.6344 6.29896 21.3978 6.25172C21.3978 6.20448 21.2664 6.14149 21.1349 6.14149ZM19.7418 6.20448L20.1098 6.25172C20.0047 6.25172 19.8995 6.23597 19.8207 6.28322C19.847 6.25172 19.7681 6.22023 19.7418 6.20448ZM17.8493 6.22023C18.0595 6.14149 18.3224 6.25172 18.5064 6.28322L17.9018 6.29897C17.9807 6.25172 17.9018 6.23598 17.8493 6.22023ZM19.7155 6.56667C19.5841 6.62966 19.4001 6.59817 19.2161 6.58242C19.1635 6.59817 19.1372 6.59817 19.1372 6.58242C19.1635 6.58242 19.1898 6.58242 19.2161 6.58242C19.3475 6.55093 19.5841 6.45644 19.7155 6.56667ZM15.5624 6.33046L15.4573 6.36196L15.7202 6.48793C15.5362 6.47219 15.247 6.50368 15.1419 6.42494C15.247 6.42494 15.3522 6.44069 15.4573 6.39345L15.2733 6.29897L15.5624 6.33046ZM11.3568 6.17298L10.9625 6.15723C11.0414 6.10999 11.1465 6.12574 11.2779 6.12574L11.3568 6.17298H11.5408L11.4356 6.20448L11.3568 6.17298ZM11.8299 6.31471V6.26747C12.3293 6.28322 12.8025 6.14149 13.3019 6.31471C13.6436 6.17298 14.4847 6.29897 14.879 6.29897L14.6687 6.3777L14.5899 6.33046C13.7487 6.45644 12.7236 6.31471 11.8299 6.31471ZM9.56938 6.26747L9.04367 6.31471C9.22767 6.26747 9.41167 6.17298 9.56938 6.26747ZM9.75338 6.28322L10.4105 6.34621V6.39345L9.75338 6.28322ZM16.0356 6.39345C16.3773 6.36195 16.535 6.48794 16.7716 6.53518L16.903 6.42494C16.8767 6.48793 16.8241 6.59817 17.0607 6.59817C16.4824 6.72415 16.5087 6.4092 16.0356 6.39345ZM8.72825 6.44069L9.98994 6.51943C10.0162 6.56667 9.93737 6.58242 9.85852 6.59817C9.67452 6.50368 8.96482 6.61392 8.72825 6.44069ZM10.2528 6.58242C10.2002 6.50368 10.7785 6.61391 11.0151 6.64541L10.2528 6.58242ZM7.65055 6.77139L8.04483 6.7399L7.93969 6.77139H7.65055ZM9.67452 6.88162V6.85013L10.2528 6.86587V6.91312L9.67452 6.88162ZM52.5459 8.73984V8.69259L52.9402 8.70834V8.73984H52.5459ZM6.94084 7.49578V7.52727L6.54656 7.51153V7.46428L6.94084 7.49578ZM8.30768 7.14933L8.59682 7.16508V7.21232L8.30768 7.19657V7.14933ZM3.81289 7.0706L3.83917 7.0391L4.23345 7.05485V7.08634L3.81289 7.0706ZM49.3917 8.73984L49.418 8.70834L49.8123 8.72409L49.786 8.75558L49.3917 8.73984ZM53.4133 8.80283C53.7288 8.81857 54.123 8.80283 54.2545 8.9603L54.0442 9.03904L53.9916 8.91306C53.6499 8.97605 53.5448 9.02329 53.1768 9.03904C53.1242 8.94456 53.0716 8.81857 53.4133 8.80283ZM42.9255 8.6611L41.8215 8.70834L41.5324 8.6611H42.9255ZM40.9541 8.6296L41.3484 8.64535V8.67684L40.9541 8.6611V8.6296ZM4.96944 7.46428L4.99573 7.3383L5.96829 7.41704C5.81057 7.41704 5.60029 7.3698 5.46886 7.43279C5.41629 7.46428 5.49515 7.49578 5.54772 7.51153H5.73172C5.39001 7.669 5.36372 7.29106 4.96944 7.46428ZM8.91225 7.77924C8.8071 7.77924 8.67568 7.76349 8.59682 7.81073C8.54425 7.84222 8.62311 7.87372 8.67568 7.88947L7.99226 7.90521L8.04483 7.74774C7.99226 7.73199 7.96597 7.73199 7.93969 7.71625C7.99226 7.73199 8.0974 7.74774 8.14997 7.71625C8.2814 7.88947 8.62311 7.7005 8.91225 7.77924ZM15.8516 8.31465L15.9567 8.28315C15.8779 8.20442 15.6413 8.25166 15.4836 8.22017C15.3522 8.23591 15.3784 8.28316 15.3522 8.3304L15.1944 8.20442C15.5887 8.07844 16.1933 8.36189 16.1933 8.12568L16.6664 8.14143C16.2984 8.34615 16.9818 8.14143 17.0081 8.26741C16.8504 8.26741 16.6401 8.22016 16.5087 8.28315V8.3304L17.1658 8.39339C16.719 8.48788 16.4036 8.26741 15.8516 8.31465Z" fill="#AA8453"/>
<path d="M49.1285 9.93767H49.0233C48.7868 9.87468 49.1548 9.81169 49.1548 9.78019C48.9708 9.82744 48.7868 9.81169 48.6816 9.7172L48.3662 9.82744C48.8131 9.84319 48.8393 9.98491 49.1285 9.93767Z" fill="#AA8453"/>
<path d="M40.2703 9.08581C40.2441 9.08581 40.2441 9.08581 40.2178 9.08581C40.2178 9.08581 40.2178 9.08581 40.2441 9.10156C40.2441 9.08581 40.2441 9.08581 40.2703 9.08581Z" fill="#AA8453"/>
<path d="M40.4545 9.05432C40.3756 9.03857 40.3231 9.05432 40.2705 9.08581C40.3231 9.08581 40.3756 9.08581 40.4282 9.10156L40.4545 9.05432Z" fill="#AA8453"/>
<path d="M33.962 8.97661C33.962 8.99217 33.9886 8.99217 33.962 8.97661V8.97661Z" fill="#AA8453"/>
<path d="M41.9792 3.63842H41.874V3.66992H41.9529L41.9792 3.63842Z" fill="#AA8453"/>
<path d="M29.4409 3.9063C29.3883 3.9063 29.3358 3.9063 29.2832 3.9063C29.3358 3.92186 29.3883 3.92186 29.4409 3.9063Z" fill="#AA8453"/>
<path d="M56.1202 9.66931C56.0676 9.7008 57.0664 9.62207 57.1716 9.74805C57.2242 9.59057 57.6973 9.74805 57.8813 9.65356C57.9601 9.62207 57.8287 9.48034 57.8024 9.57482C57.4607 9.55908 57.0139 9.7008 56.7247 9.57482L56.1202 9.66931Z" fill="#AA8453"/>
<path d="M56.7244 9.57422C56.7244 9.55847 56.6981 9.54273 56.6718 9.52698L56.6455 9.54272C56.6718 9.54272 56.6981 9.55847 56.7244 9.57422Z" fill="#AA8453"/>
<path d="M30.4135 3.73214C30.3872 3.70064 30.4661 3.66915 30.5186 3.6534C30.4135 3.66915 30.3083 3.66915 30.2295 3.6849C30.2821 3.71639 30.3083 3.74789 30.4135 3.73214Z" fill="#AA8453"/>
<path d="M88.9766 0.283398C89.0818 0.551106 90.0806 0.314892 90.5012 0.425125C90.6063 0.535358 90.2383 0.53536 90.2383 0.614098C90.7115 0.787321 91.1583 0.440874 91.5 0.377884C91.5263 0.220409 91.9994 0.110177 91.9994 -5.63264e-05C90.9217 0.157419 89.8178 0.299147 88.5823 0.236157C88.4246 0.377885 87.9778 0.440873 87.7412 0.440873C88.4246 0.598349 88.5823 0.251903 88.9766 0.283398Z" fill="#AA8453"/>
<path d="M84.0614 1.84326C85.1128 1.93775 85.954 1.79602 87.0317 1.79602C87.5837 1.79602 87.8465 1.8905 88.3197 1.76452C88.8191 1.74878 89.6339 1.68578 89.9493 1.90625C90.3962 1.81176 90.9219 1.76452 91.3162 1.63854C91.0796 1.44957 90.4225 1.32359 90.2911 1.11887C89.7654 1.19761 89.2659 1.32359 89.0819 1.55981C87.2682 1.67004 85.7963 1.60705 84.2191 1.70153C83.9826 1.79602 83.5094 1.63854 83.4043 1.79602L84.0614 1.84326Z" fill="#AA8453"/>
<path d="M90.5806 4.09413C90.5806 3.99965 90.3704 3.9524 90.2389 3.87366L90.1338 3.90516C90.2126 3.99964 90.2389 4.14137 90.5806 4.09413Z" fill="#AA8453"/>
<path d="M77.6483 2.61423C77.9637 2.69297 78.4631 2.51975 78.8048 2.66147C78.0951 2.69297 77.0174 2.94493 76.6757 2.81895L76.9385 2.91344L76.8334 2.94493C76.7283 2.94493 76.5968 2.94493 76.5443 2.89769L76.334 2.97643C77.2277 3.14965 78.0425 2.78745 78.9625 2.78745C79.1465 2.56699 79.8825 2.74021 80.1716 2.70872C80.3819 2.81895 81.0916 2.67722 81.1442 2.78745C81.1705 2.75596 81.2231 2.70872 81.2493 2.67722H81.0653C80.8551 2.5355 80.6185 2.81895 80.3819 2.64573C80.3556 2.58274 80.5396 2.56699 80.6185 2.53549C81.2756 2.61423 82.511 2.28353 82.8265 2.69297C83.063 2.70871 83.2996 2.72446 83.431 2.62998L83.7727 2.8032C84.2722 2.85044 84.2459 2.61423 84.6139 2.62998C85.0607 2.8347 85.823 2.67722 86.3224 2.81895L86.2436 2.85044C86.375 2.8347 86.927 2.86619 87.0584 2.97643C87.0321 3.05516 86.8218 3.07091 86.7167 3.1339C87.2424 3.25988 87.7418 3.41736 88.399 3.4331L88.0573 3.25988L88.1624 3.22839C87.8995 3.24414 87.7944 3.1654 87.6104 3.1339C87.7418 3.07091 87.9258 3.05516 88.1098 3.07091C88.3727 3.22839 88.951 3.29138 88.6618 3.49609C88.7407 3.41736 88.951 3.38586 89.0035 3.30713C88.4778 3.00792 87.5315 2.77171 86.7956 2.504L87.0321 2.34652C86.8218 2.26779 86.4276 2.31503 86.2961 2.15755L82.9316 2.23629C81.9328 2.25204 80.4082 2.36227 79.3305 2.42526L79.4094 2.4725C78.7785 2.72446 77.7271 2.37802 77.1225 2.504L77.438 2.4725C77.5694 2.48825 77.7271 2.53549 77.6483 2.61423Z" fill="#AA8453"/>
<path d="M81.1444 2.77282C81.1181 2.80432 81.0918 2.82007 81.0918 2.85156C81.1444 2.82007 81.1444 2.80432 81.1444 2.77282Z" fill="#AA8453"/>
<path d="M86.1113 9.47951C86.3479 9.46377 86.637 9.54251 86.821 9.43227C86.5845 9.35354 86.2428 9.38503 86.1113 9.47951Z" fill="#AA8453"/>
<path d="M88.373 0.630128L88.6359 0.724609C88.6359 0.677367 88.6359 0.630127 88.7673 0.614379L88.373 0.630128Z" fill="#AA8453"/>
<path d="M89.161 0.661378L89.1872 0.58264L88.793 0.614137C88.8981 0.629884 89.0295 0.740116 89.161 0.661378Z" fill="#AA8453"/>
<path d="M80.96 10.1895C81.144 10.1107 81.4857 10.221 81.6697 10.1422C81.4068 10.1265 81.0914 10.095 80.96 10.1895Z" fill="#AA8453"/>
<path d="M83.2992 2.77111L82.7998 2.80261L83.1941 2.81836L83.2992 2.77111Z" fill="#AA8453"/>
<path d="M83.2211 1.76388L82.7217 1.82687L83.0108 1.84261C83.0897 1.85836 83.2211 1.81112 83.2211 1.76388Z" fill="#AA8453"/>
<path d="M80.3816 10.2051V10.1578L79.9873 10.1893L80.3816 10.2051Z" fill="#AA8453"/>
<path d="M79.9346 10.0624L80.3026 10.0781L80.3289 10.0309L79.9346 10.0624Z" fill="#AA8453"/>
<path d="M82.0117 2.63086H82.2746C82.1431 2.59936 82.0643 2.61511 82.0117 2.63086Z" fill="#AA8453"/>
<path d="M81.4858 2.63121L81.6436 2.70994L81.3281 2.82018C81.9327 2.96191 81.7487 2.67845 82.0115 2.61546L81.4858 2.63121Z" fill="#AA8453"/>
<path d="M76.5966 12C76.7806 11.9685 76.9909 11.9685 77.1223 11.9055C77.0172 11.7323 76.7543 11.874 76.544 11.8898C76.5177 11.9213 76.4914 11.9685 76.5966 12Z" fill="#AA8453"/>
<path d="M75.1777 9.16589L75.4669 9.18164V9.1344L75.1777 9.11865V9.16589Z" fill="#AA8453"/>
<path d="M76.7539 2.61511L77.1482 2.63086V2.59937L76.7539 2.61511Z" fill="#AA8453"/>
<path d="M73.6787 2.80419C74.0467 2.78844 74.4673 2.81994 74.7301 2.81994C74.5461 2.85143 74.441 2.97741 74.2044 2.91442L74.441 3.11914C74.5198 3.0719 74.625 3.08764 74.7564 3.08764C74.3621 2.58372 75.7553 3.05615 76.2284 2.77269C75.7027 2.89867 75.2558 2.80419 74.7564 2.75695C75.2558 2.61522 75.5975 2.7097 76.1758 2.64671L75.8078 2.52074C75.8341 2.56798 75.7553 2.58373 75.6764 2.59947L75.5975 2.55223C75.4398 2.59947 75.0193 2.42625 74.809 2.56798C74.9141 2.55223 74.9404 2.59947 74.993 2.61522C74.3884 2.58372 74.0993 2.75695 73.6787 2.80419Z" fill="#AA8453"/>
<path d="M72.5757 2.78835C72.2866 2.63087 71.682 2.83559 71.3666 2.86709C71.6295 2.88283 71.9975 2.70961 72.1552 2.89858C71.314 2.94583 70.578 3.00882 70.2363 3.07181C70.9986 3.08755 72.0237 3.02456 72.7334 2.93008C72.5494 2.91433 72.2603 2.94582 72.1552 2.86709C72.4969 2.85134 72.7597 2.7726 73.154 2.81985C73.1014 2.72536 73.3117 2.69386 73.4169 2.63087C73.2329 2.61513 72.97 2.63087 72.7334 2.64662C72.6546 2.67812 72.7597 2.7726 72.5757 2.78835Z" fill="#AA8453"/>
<path d="M71.9966 2.40947L71.5234 2.39373L71.6023 2.44097C71.7074 2.42522 71.9703 2.47246 71.9966 2.40947Z" fill="#AA8453"/>
<path d="M70.3672 2.86682L70.446 2.91406L70.8666 2.85107L70.3672 2.86682Z" fill="#AA8453"/>
<path d="M69.2896 2.86682L69.1845 2.89831L69.6576 2.91406C69.6576 2.86682 69.6576 2.81958 69.789 2.80383C69.8679 2.83532 69.9205 2.89831 70.0519 2.89831C69.9993 2.83532 70.2096 2.80383 70.2096 2.74084C69.7102 2.67785 69.0793 2.6936 68.5273 2.75659C68.8165 2.75659 69.1056 2.78808 69.2896 2.86682Z" fill="#AA8453"/>
<path d="M68.5801 2.96094L69.0006 2.89795C68.8166 2.89795 68.5801 2.86645 68.5801 2.96094Z" fill="#AA8453"/>
<path d="M66.8445 9.385L66.529 9.4165L66.6079 9.46374L66.1348 9.47949C66.2925 9.49523 66.4239 9.55823 66.5028 9.60547C66.4502 9.51098 66.6342 9.41649 66.8445 9.385Z" fill="#AA8453"/>
<path d="M66.8704 2.74121L66.6602 2.81995L67.2384 2.8357C67.2384 2.85144 67.2647 2.85144 67.291 2.86719C67.2647 2.85144 67.2384 2.83569 67.2647 2.8042C67.107 2.7727 66.8967 2.81995 66.8704 2.74121Z" fill="#AA8453"/>
<path d="M67.3447 2.89733C67.371 2.91307 67.3973 2.92882 67.371 2.96032C67.6339 2.99181 67.8442 2.94457 68.0807 2.91308L68.0019 2.86583C67.8704 2.96032 67.6339 2.92882 67.3973 2.92882C67.3973 2.91307 67.371 2.89733 67.3447 2.89733Z" fill="#AA8453"/>
<path d="M65.3201 10.4883V10.4568L64.9521 10.441L64.9258 10.4725L65.3201 10.4883Z" fill="#AA8453"/>
<path d="M65.4259 2.96126L65.3733 2.83528C65.3207 2.85103 65.2681 2.88252 65.163 2.86678L65.2419 2.91402L65.1367 2.94551C65.6624 3.0085 66.083 3.0715 66.6087 2.96126C66.5298 2.75654 66.1881 2.86678 65.8727 2.77229L66.1356 2.89827C65.9253 2.96126 65.6624 2.96126 65.4259 2.96126Z" fill="#AA8453"/>
<path d="M65.1105 2.96011L65.0054 2.99161C64.7162 2.96011 64.6899 2.88137 64.6637 2.81838C64.5059 2.86563 64.2957 2.92861 64.2168 3.00735C64.4534 3.07034 64.9528 3.11759 65.1105 2.96011Z" fill="#AA8453"/>
<path d="M65.5568 3.13375C65.2414 3.27548 64.5054 3.118 64.3477 3.21249C64.7945 3.22824 65.3202 3.32272 65.5568 3.13375Z" fill="#AA8453"/>
<path d="M63.1383 3.00842C63.3223 3.07141 63.664 3.07141 63.664 3.18164C64.4526 2.91393 62.8755 2.97692 63.1383 3.00842Z" fill="#AA8453"/>
<path d="M60.7197 9.7168C60.93 9.63806 61.298 9.74829 61.5346 9.66956L60.746 9.6853L60.7197 9.7168Z" fill="#AA8453"/>
<path d="M62.5336 3.02319L62.0342 3.03894L62.4285 3.05469L62.5336 3.02319Z" fill="#AA8453"/>
<path d="M60.2996 10.1895L60.3258 10.1107L59.9053 10.1422L60.2996 10.1895Z" fill="#AA8453"/>
<path d="M61.4037 2.8673C61.3774 2.91454 61.3512 2.96179 61.4563 2.99329C61.3774 3.02478 61.2197 3.04053 61.2197 3.10352C61.614 3.07202 61.9031 3.08777 61.982 2.88305L61.4037 2.8673Z" fill="#AA8453"/>
<path d="M61.0877 2.97632L60.7197 2.88183L61.0614 3.00781L61.0877 2.97632Z" fill="#AA8453"/>
<path d="M60.6414 3.11833L60.2471 3.10258L60.3259 3.14982C60.4574 3.14982 60.5625 3.16557 60.6414 3.11833Z" fill="#AA8453"/>
<path d="M59.6951 2.99182L59.3271 2.89734L59.59 3.03906L59.6951 2.99182Z" fill="#AA8453"/>
<path d="M58.3809 3.11877L58.4597 3.16602C58.6437 3.16602 58.7489 3.10303 58.8803 3.05579L58.3809 3.11877Z" fill="#AA8453"/>
<path d="M57.8555 2.92956L55.9893 2.9453C56.0944 2.96105 56.5938 3.10278 56.1995 3.19727C56.9092 3.19727 57.3035 3.13428 57.9869 3.13428C58.0658 2.99255 57.6189 3.08703 57.5401 2.99255L57.8555 2.92956Z" fill="#AA8453"/>
<path d="M56.9346 3.33947L56.6454 3.32372L56.6191 3.37097L56.9083 3.38672L56.9346 3.33947Z" fill="#AA8453"/>
<path d="M54.4111 3.16577L55.0157 3.19727L55.226 3.11853L54.4111 3.16577Z" fill="#AA8453"/>
<path d="M53.8341 3.15039C54.1232 3.0874 53.8078 2.97716 53.8078 2.94567L53.5449 3.13464L53.8341 3.15039Z" fill="#AA8453"/>
<path d="M52.6768 3.07055C52.6243 3.0863 52.5454 3.10205 52.5454 3.14929C52.6506 3.14929 52.782 3.14929 52.8345 3.19653L52.3877 3.33826C52.7031 3.19653 53.0185 3.49573 53.2025 3.29102C53.1763 3.19653 53.0711 3.00756 52.6768 3.07055Z" fill="#AA8453"/>
<path d="M51.021 9.60547H51.205L50.8633 9.43224L51.021 9.60547Z" fill="#AA8453"/>
<path d="M51.9149 2.99219L52.1251 2.92919L51.2314 2.97644L51.9149 2.99219Z" fill="#AA8453"/>
<path d="M51.5727 3.14977C51.4938 3.11828 51.1258 3.13402 51.0732 3.16552L51.3361 3.26L51.231 3.2915L51.3098 3.33874C51.8355 3.35449 51.2047 3.19702 51.5727 3.14977Z" fill="#AA8453"/>
<path d="M50.3906 3.18164L50.8112 3.11865C50.6272 3.1029 50.3906 3.08716 50.3906 3.18164Z" fill="#AA8453"/>
<path d="M50.1277 2.72461V2.69311L49.7597 2.67737L49.7334 2.70886L50.1277 2.72461Z" fill="#AA8453"/>
<path d="M50.0492 3.00781C50.1018 2.94482 50.0492 2.88183 49.8915 2.88183L49.8652 2.96057C49.9704 2.94482 49.9967 2.97632 50.0492 3.00781Z" fill="#AA8453"/>
<path d="M48.1299 3.13366L48.6819 3.27539C48.6819 3.19665 48.7607 3.13366 48.8396 3.08642C48.603 3.11791 48.3927 3.18091 48.1299 3.13366Z" fill="#AA8453"/>
<path d="M47.8922 3.2909L47.4717 3.35389C47.5243 3.36963 47.5505 3.41687 47.6557 3.40113C47.7345 3.36963 47.8922 3.35389 47.8922 3.2909Z" fill="#AA8453"/>
<path d="M47.9715 2.69294C47.7875 2.59846 47.4984 2.69294 47.2881 2.70869C47.4195 2.6772 47.7087 2.81892 47.9715 2.69294Z" fill="#AA8453"/>
<path d="M45.9736 3.41785L46.2628 3.43359L46.2891 3.38635L45.9736 3.41785Z" fill="#AA8453"/>
<path d="M45.7905 2.77148L46.1059 2.66125L45.3174 2.7085L45.7905 2.77148Z" fill="#AA8453"/>
<path d="M45.5803 3.11792C45.002 3.14941 45.7906 3.16516 45.6329 3.27539C45.7906 3.25964 45.6592 3.13366 45.5803 3.11792Z" fill="#AA8453"/>
<path d="M44.8438 2.89694C44.8963 2.97568 45.1066 2.92843 45.2117 2.94418C45.3695 2.94418 45.6323 2.97568 45.6323 2.88119L44.8438 2.89694Z" fill="#AA8453"/>
<path d="M44.6858 3.13477C44.4229 3.00879 43.9498 3.07177 43.8184 3.10327L44.6858 3.13477Z" fill="#AA8453"/>
<path d="M42.1099 9.07007C42.0048 9.07007 41.9785 9.08581 41.9785 9.10156L42.1099 9.07007Z" fill="#AA8453"/>
<path d="M41.1641 9.29211L41.3481 9.38659C41.6372 9.51257 42.0841 9.57556 42.3206 9.38659C42.268 9.3236 42.0052 9.18188 42.0052 9.13464L41.9263 9.10314L41.1641 9.29211Z" fill="#AA8453"/>
<path d="M43.582 2.85144L43.9763 2.86719L44.0026 2.81995L43.582 2.85144Z" fill="#AA8453"/>
<path d="M43.1621 2.96032L43.3461 3.03906L43.9507 2.94458L43.1621 2.96032Z" fill="#AA8453"/>
<path d="M43.2402 2.67762L43.5294 2.69336L43.8448 2.66187L43.2402 2.67762Z" fill="#AA8453"/>
<path d="M41.2423 9.76355L40.6377 9.7478C40.7166 9.92102 41.0057 9.81079 41.2423 9.76355Z" fill="#AA8453"/>
<path d="M41.2422 9.76355L41.505 9.7793C41.4525 9.73205 41.3473 9.74781 41.2422 9.76355Z" fill="#AA8453"/>
<path d="M40.3756 9.57544C40.6648 9.44946 40.7436 9.66992 41.0328 9.63842C40.4545 9.55969 39.9288 9.166 39.3242 9.41796L39.6922 9.51245L39.4819 9.59118C39.7711 9.62268 40.1391 9.57544 40.3493 9.66992L40.3756 9.57544Z" fill="#AA8453"/>
<path d="M42.8987 2.81852L42.7935 2.85001C42.5569 2.73978 42.0312 3.00749 42.373 2.91301L42.9775 2.89726L42.8987 2.81852Z" fill="#AA8453"/>
<path d="M39.7705 11.6055H39.8757L40.1122 11.4952L39.7705 11.6055Z" fill="#AA8453"/>
<path d="M40.3227 9.73282L39.8232 9.74857L39.9021 9.79581C40.1124 9.84306 40.2701 9.76432 40.3227 9.73282Z" fill="#AA8453"/>
<path d="M41.6629 3.02487L41.584 2.97762L42.0835 2.91464C41.7943 2.94613 41.6892 2.85164 41.7417 2.78865C41.2949 2.78865 41.0058 3.02487 40.5852 3.02487C40.4538 2.89888 40.0069 3.11935 40.0332 2.93038L39.7441 2.91464L39.7178 3.04061C39.7966 3.07211 39.8229 3.1351 39.9806 3.1351C40.1383 3.02487 40.5063 3.05636 40.6903 3.07211C40.9269 3.29258 41.3212 3.04061 41.6629 3.02487Z" fill="#AA8453"/>
<path d="M29.4935 10.7087L29.5987 10.6772L28.9152 10.6457C28.705 10.9134 29.5461 10.8032 29.8089 10.9134L29.5987 10.9922C29.8352 11.1497 30.5449 11.0867 31.0443 11.1182C30.9655 10.9764 31.3598 11.0394 31.4912 10.9764C32.5689 11.1339 33.778 10.9134 34.9083 11.1024C34.7769 11.1182 34.4352 11.1497 34.3037 11.1654C34.7243 11.3229 35.2237 10.9134 35.5917 11.1654L35.3814 11.2441C36.0911 11.0867 36.6957 10.9764 37.4843 11.1182L37.3791 11.1497C38.1151 11.1024 38.6934 11.1654 39.3505 11.1812C38.9037 11.1654 38.5882 10.9922 38.3517 10.8662C38.0888 10.8977 37.6683 10.756 37.3791 10.7875L37.458 10.8347C37.458 10.8977 37.3003 10.9134 37.2214 10.9449V10.63H37.1163V10.6772C36.9323 10.7875 36.8008 10.63 36.7483 10.63C36.4854 10.8032 36.0386 10.8977 35.618 10.756C35.25 10.7402 34.5403 10.7087 34.698 10.8819C34.1197 10.8662 33.226 10.9764 32.5426 10.8505C32.3323 10.63 31.7803 10.9607 31.3861 10.7717L31.5701 10.8662L31.4649 10.8977C31.3072 10.8819 31.0706 10.9134 30.9918 10.8347L31.2021 10.756L31.1232 10.7087C30.8078 10.693 30.8866 10.8662 30.5975 10.8505C30.2821 10.7087 29.6512 10.9764 29.4935 10.7087ZM29.9404 10.9292C29.9929 10.9764 30.0455 11.0079 30.0981 11.0079C30.0192 11.0079 29.9404 11.0079 29.8352 11.0079C29.8615 10.9764 29.9404 10.9607 29.9404 10.9292ZM30.8866 11.0079C30.5975 11.0552 30.4135 11.0394 30.1769 11.0237C30.3872 10.9922 30.6238 10.8662 30.8866 11.0079Z" fill="#AA8453"/>
<path d="M38.6934 11.6053L38.9825 11.6211L39.1928 11.5896L38.6934 11.6053Z" fill="#AA8453"/>
<path d="M40.7178 3.25964L41.0069 3.27539V3.24389L40.7178 3.25964Z" fill="#AA8453"/>
<path d="M36.8008 10.377H36.9059L37.1162 10.2982L36.8008 10.377Z" fill="#AA8453"/>
<path d="M38.667 2.86682L38.3516 2.89831L38.6407 2.91406L38.667 2.86682Z" fill="#AA8453"/>
<path d="M37.7461 2.63074L38.0352 2.64648L38.2455 2.61499L37.7461 2.63074Z" fill="#AA8453"/>
<path d="M36.3538 2.70884C36.6167 2.56712 37.0635 2.70884 37.3527 2.63011C37.011 2.42539 36.6693 2.75609 36.1961 2.58286C36.1698 2.63011 36.1436 2.67735 36.2487 2.70884C36.1173 2.74034 36.0121 2.80333 35.8281 2.77183C35.8807 2.81908 36.0384 2.83483 35.9858 2.89782C36.2224 2.86632 36.3013 2.96081 36.459 2.9923L36.2487 3.07104L36.459 3.08678C36.5904 3.11828 36.5378 3.16552 36.5115 3.21277L37.0898 3.22852C36.1961 3.22852 36.9058 2.83482 36.3538 2.70884Z" fill="#AA8453"/>
<path d="M34.3829 10.5206L33.7783 10.5364L34.1463 10.6309C34.2252 10.5994 34.4092 10.5836 34.3829 10.5206Z" fill="#AA8453"/>
<path d="M33.5938 11.1816L33.699 11.1501L33.3047 11.1659L33.5938 11.1816Z" fill="#AA8453"/>
<path d="M35.0654 3.33955C35.2231 3.44978 35.5386 3.3238 35.67 3.3238C35.5123 3.11908 35.2757 3.38679 35.0654 3.33955Z" fill="#AA8453"/>
<path d="M32.4896 11.2595C32.3056 11.4012 32.7262 11.3697 32.8313 11.4327C32.6473 11.6217 32.0428 11.417 32.5159 11.543C32.7788 11.5115 33.0942 11.4957 33.2519 11.4012C33.0942 11.3855 32.6473 11.3855 32.4896 11.2595Z" fill="#AA8453"/>
<path d="M32.4375 11.1337L33.1735 11.2754C33.2261 11.1967 32.8318 11.2439 32.9106 11.1494L33.0158 11.1179L32.4375 11.1337Z" fill="#AA8453"/>
<path d="M34.9609 2.74011L35.3552 2.75586C35.2238 2.72436 35.0924 2.72436 34.9609 2.74011Z" fill="#AA8453"/>
<path d="M34.9609 2.73937L33.6992 2.69213C33.9095 3.02282 34.4615 2.78661 34.9609 2.73937Z" fill="#AA8453"/>
<path d="M34.8027 3.25977C34.8816 3.24402 34.9342 3.22827 34.9604 3.21252L34.8027 3.25977Z" fill="#AA8453"/>
<path d="M35.0395 3.10278L35.2497 3.02404L34.8555 3.00829C34.9343 3.07128 35.0132 3.13428 34.9343 3.19727L35.092 3.13428L35.0395 3.10278Z" fill="#AA8453"/>
<path d="M34.5935 3.32385L33.5946 3.08763V3.13488C33.7524 3.18212 33.9626 3.18212 34.0415 3.27661C33.8312 3.38684 33.8049 3.21362 33.5684 3.26086L33.6472 3.3081C33.7786 3.35535 34.1204 3.40259 34.1466 3.29236C34.1992 3.3081 34.2518 3.3396 34.2255 3.37109C34.3043 3.3396 34.5672 3.40259 34.5935 3.32385Z" fill="#AA8453"/>
<path d="M32.7259 2.97705C32.463 2.91406 32.3053 3.02429 32.1739 2.88256C31.9636 2.88256 31.7533 2.86681 31.5693 2.89831C31.911 3.04004 32.3579 3.00854 32.7259 2.97705Z" fill="#AA8453"/>
<path d="M30.3076 2.4892C31.0436 2.59943 31.9373 2.56794 32.6733 2.4892C31.9373 2.55219 31.0962 2.42621 30.3076 2.4892Z" fill="#AA8453"/>
<path d="M32.3057 2.67818C32.148 2.5837 31.8063 2.67818 31.7012 2.69393C31.9115 2.69393 32.148 2.74117 32.3057 2.67818Z" fill="#AA8453"/>
<path d="M31.7804 3.13477L31.8066 3.10327L31.4912 3.08752V3.13477H31.7804Z" fill="#AA8453"/>
<path d="M29.02 11.2924C28.9674 11.2294 28.652 11.2609 28.5469 11.2767V11.3082C28.7046 11.3082 28.9937 11.3712 29.02 11.2924Z" fill="#AA8453"/>
<path d="M28.5468 11.2754C28.468 11.291 28.4943 11.291 28.5468 11.2754V11.2754Z" fill="#AA8453"/>
<path d="M31.2281 2.67773L30.1504 2.64624L30.2555 2.67773H31.2281Z" fill="#AA8453"/>
<path d="M28.2051 11.4336H28.4942L28.5205 11.4021L28.2051 11.4336Z" fill="#AA8453"/>
<path d="M30.676 3.25977C30.8337 3.24402 31.0177 3.10229 30.8337 3.02355C30.3869 3.07079 30.8074 3.21252 30.676 3.25977Z" fill="#AA8453"/>
<path d="M28.5997 10.8034C28.2317 10.8349 28.442 10.7247 28.3368 10.6774C28.1003 10.6617 28.1003 10.7719 27.9951 10.8192C28.2054 10.8034 28.442 10.8664 28.5997 10.8034Z" fill="#AA8453"/>
<path d="M27.4695 11.2748C28.8363 11.3063 27.0226 11.0386 27.3643 10.9441C27.6009 10.9283 27.9163 10.8496 27.706 10.7551C27.3381 10.7394 26.7335 10.7394 26.3655 10.6291C26.0501 10.6291 26.5495 10.7551 26.1289 10.7394C26.1289 10.7866 26.1289 10.8339 25.9975 10.8496C25.6558 10.8811 24.8147 10.8811 24.9987 10.9283C25.7084 11.196 26.2604 10.6291 27.0489 10.9598L26.8386 11.0386C27.1803 11.0071 27.3381 11.1331 27.5746 11.1803L26.5758 11.259L27.4695 11.2748Z" fill="#AA8453"/>
<path d="M30.2812 3.11902L30.2549 3.13477C30.2812 3.13477 30.2812 3.11902 30.3075 3.11902H30.2812Z" fill="#AA8453"/>
<path d="M29.9404 3.0719L30.2821 3.11914L30.3084 3.08764L29.9404 3.0719Z" fill="#AA8453"/>
<path d="M30.2556 3.1499C30.203 3.16565 30.1768 3.1814 30.1768 3.21289L30.2556 3.1499Z" fill="#AA8453"/>
<path d="M30.1235 2.44053C29.887 2.42478 29.3875 2.56651 29.335 2.45627C29.3875 2.61375 29.9921 2.50352 30.1235 2.44053Z" fill="#AA8453"/>
<path d="M28.5467 6.39453L28.7833 6.2528C28.4941 6.18981 28.5467 6.36304 28.5467 6.39453Z" fill="#AA8453"/>
<path d="M29.1259 3.16577L29.0996 3.24451C29.1522 3.26025 29.1785 3.3075 29.2836 3.29175C29.5727 3.22876 29.231 3.19726 29.1259 3.16577Z" fill="#AA8453"/>
<path d="M29.0723 3.60718L28.7832 3.63867H28.8621L29.0723 3.60718Z" fill="#AA8453"/>
<path d="M27.6794 2.66211H27.8634L27.7057 2.48889C27.8371 2.44164 28.0211 2.41015 28.1788 2.3944C28.0737 2.37865 28.0474 2.31566 27.916 2.4259C27.8634 2.41015 27.8371 2.3629 27.732 2.37865C27.6531 2.50463 27.4691 2.56762 27.6794 2.66211Z" fill="#AA8453"/>
<path d="M26.6538 2.78663C26.9955 2.66065 26.2858 2.72364 26.207 2.61341L26.1807 2.66065C26.2332 2.73939 26.4172 2.80238 26.6538 2.78663Z" fill="#AA8453"/>
<path d="M21.319 10.4097L21.2139 10.4412C21.2927 10.5199 21.3979 10.5986 21.3453 10.6931C21.6344 10.6144 22.055 10.5514 22.3441 10.6459L22.3179 10.7719C22.3704 10.7561 22.423 10.7246 22.5281 10.7404L22.5544 10.7089C22.8698 10.5514 23.2116 10.7404 23.527 10.7404L23.3693 10.9293C24.0264 11.0238 23.6847 10.8348 23.9213 10.7404L24.2104 10.7876L23.9738 10.6144C24.0001 10.5829 23.895 10.8821 23.6321 10.7246L23.7373 10.6931C23.2641 10.5829 23.1327 10.4726 22.5807 10.6144C22.1864 10.6144 21.2664 10.5829 21.319 10.4097Z" fill="#AA8453"/>
<path d="M22.5799 10.8184L23.1845 10.8026L22.5273 10.7396C22.5536 10.7554 22.6325 10.7711 22.5799 10.8184Z" fill="#AA8453"/>
<path d="M26.4974 2.3468C26.2609 2.3783 25.7615 2.40979 25.63 2.26807C25.2357 2.44129 24.9203 2.20508 24.4472 2.26807L24.4209 2.3468C24.71 2.36255 25.3935 2.36255 25.5775 2.42554C25.8929 2.40979 26.366 2.47278 26.4974 2.3468Z" fill="#AA8453"/>
<path d="M23.8942 11.0238C23.7365 11.0238 23.4999 10.9923 23.4736 11.0868C23.6576 11.1341 23.8416 11.0553 23.8942 11.0238Z" fill="#AA8453"/>
<path d="M25.2874 3.46484C25.4189 3.43335 25.6817 3.48059 25.6029 3.35461L25.0771 3.4491L25.2874 3.46484Z" fill="#AA8453"/>
<path d="M22.4492 10.9296L22.7384 10.9453V10.8981L22.4492 10.9296Z" fill="#AA8453"/>
<path d="M22.0802 11.1191L22.1065 11.1034L21.8174 11.0719L22.0802 11.1191Z" fill="#AA8453"/>
<path d="M22.2388 11.0088L22.1074 11.1033L22.3966 11.1348L22.2388 11.0088Z" fill="#AA8453"/>
<path d="M22.8955 2.92858L23.1321 3.07031L23.4738 2.96008L22.8955 2.92858Z" fill="#AA8453"/>
<path d="M23.2112 2.81921C23.0009 2.80346 22.8169 2.67748 23.0798 2.61449C22.7644 2.63024 22.5015 2.5515 22.449 2.42552L22.5541 2.39402C22.8432 2.34678 23.0798 2.31529 23.3952 2.18931L22.8958 2.17356V2.12632L22.7381 2.31529L22.3964 2.17356C21.9758 2.15781 21.5027 2.03183 21.1084 2.17356L21.345 2.34678C21.9758 2.45702 22.3175 2.67748 22.6329 2.96094L22.7118 2.8822C22.8432 2.81921 23.0272 2.81921 23.2112 2.81921Z" fill="#AA8453"/>
<path d="M16.902 10.6924L17.0597 10.8184C17.3225 10.8026 17.4277 10.5979 17.7957 10.6766C18.2162 10.8499 18.8997 10.5507 19.4517 10.7396C19.5042 10.7239 19.9248 10.6609 19.8459 10.8026C20.1351 10.6451 21.0813 10.8814 20.8185 10.5192L20.5294 10.5034L20.6871 10.5821L20.5819 10.6136C20.4768 10.6294 20.4505 10.5821 20.3979 10.5664C20.2665 10.7554 19.5831 10.6294 19.1099 10.5979C19.4779 10.4877 20.1351 10.5664 20.2665 10.3617C19.7145 10.6294 18.4265 10.4089 17.8745 10.4404L17.7168 10.2672C17.7431 10.4877 17.3488 10.6924 17.1648 10.7711C17.0334 10.7869 16.8231 10.6294 16.902 10.6924Z" fill="#AA8453"/>
<path d="M18.4797 10.9922C18.7951 10.8505 19.5311 11.0079 19.6888 10.9134C19.2945 10.8977 18.5848 10.8505 18.2168 10.8977C18.3745 10.8977 18.4008 10.9607 18.4797 10.9922Z" fill="#AA8453"/>
<path d="M21.529 3.5271V3.4956L21.1348 3.47986V3.51135L21.2136 3.55859C21.2925 3.51135 21.3976 3.5271 21.529 3.5271Z" fill="#AA8453"/>
<path d="M3.91706 10.0168C3.94334 10.0011 3.96963 9.98535 3.99591 9.98535C3.68049 10.0168 3.39135 10.0641 3.1285 10.0326L2.99707 10.1113H4.17991L3.91706 10.0168Z" fill="#AA8453"/>
<path d="M13.6172 10.7718C13.7223 10.7246 13.9326 10.6931 13.9589 10.6301C14.248 10.5986 14.432 10.5514 14.6423 10.6616C14.5898 10.6774 14.5109 10.6931 14.5109 10.7403C14.984 10.7876 15.6149 10.6931 15.8515 10.9136L15.9566 10.8821L15.8777 10.8348H16.7714C16.272 10.8663 16.6926 10.6301 16.2457 10.6144C16.272 10.6616 16.1669 10.6774 16.1143 10.6931L15.9566 10.5986C15.904 10.6144 15.8252 10.6301 15.8252 10.6774C15.9303 10.6616 15.9566 10.7089 16.0092 10.7246L15.904 10.7561C15.7989 10.7561 15.6675 10.7561 15.6149 10.7089C15.4835 10.5829 15.0892 10.4097 15.6149 10.3467C15.0892 10.4254 14.8263 9.95297 14.4583 10.2679C13.9063 10.4569 13.2229 10.1419 12.4869 10.3152L12.4081 10.2679C12.4606 10.1892 12.6972 10.1577 12.8549 10.1262C12.5132 10.1262 12.1715 10.1262 11.8561 10.1734C11.7247 10.0947 11.6458 10.0475 11.3829 10.1577C11.2252 10.1104 11.5669 10.016 11.2252 9.98447L11.3304 9.95297C10.8047 10.1262 10.095 9.7325 9.64811 10.016C9.59554 10.0002 9.51668 9.96872 9.56925 9.93722L9.46411 9.96872C8.96469 10.079 8.38641 9.88998 7.96585 9.74825C7.72928 9.95297 7.30871 9.63802 7.07214 9.7955C6.15216 9.60652 5.15331 9.71676 4.20704 9.52779C2.55106 9.38606 1.36822 9.40181 0.132813 9.33882L1.36822 9.51204L1.13166 9.62227H1.2368C1.49965 9.68526 1.10537 9.74825 1.07909 9.77975C1.18423 9.77975 1.31565 9.7955 1.39451 9.74825L1.65736 9.87423L1.86765 9.7955C2.02536 9.77975 2.05164 9.85849 2.1305 9.88998C2.73506 9.87423 2.89277 10.0317 3.60248 9.93722L3.52362 9.88998L3.83905 9.77975L3.99676 9.87423L4.02304 9.7955C4.1019 9.74825 4.20704 9.764 4.33847 9.764C4.39104 9.81125 4.54875 9.82699 4.49618 9.88998C4.89046 9.88998 5.02189 9.88998 5.3636 9.96872L5.15331 10.0475C4.9956 9.90573 4.73275 10.2207 4.57504 9.98447C4.39104 9.98447 4.23333 9.98447 4.04933 10.016C4.15447 10.0002 4.25961 10.0317 4.36475 10.016C4.57504 10.0317 4.75903 10.1577 4.49618 10.2207L4.89046 10.1892C5.07446 10.4726 6.15216 10.0317 6.75672 10.2679L6.65158 10.2207C6.73044 10.1419 6.91443 10.2049 7.04586 10.1892C7.151 10.0632 6.49387 10.0947 6.91443 9.98447C7.25614 10.016 7.41385 10.1104 7.41385 10.2522C7.30871 10.2679 7.22986 10.3467 7.09843 10.3152C7.151 10.3309 7.20357 10.3624 7.17729 10.3939C7.62414 10.1577 8.09727 10.3467 8.57041 10.3309L8.59669 10.2522L7.91328 10.2207C7.83442 10.1734 7.67671 10.1262 7.75556 10.0475C8.59669 9.88998 8.96469 10.2679 9.75325 10.2364L9.72696 10.2679C10.0424 10.3467 10.2001 10.7089 10.463 10.4096L10.0424 10.1892L10.1475 10.1577C10.2527 10.1577 10.3841 10.1577 10.4367 10.2049L10.5681 10.0947L11.5932 10.2994C11.5407 10.3624 11.2778 10.4411 11.4355 10.4884L11.5407 10.4569L11.6195 10.5041L11.9612 10.3939C12.0664 10.5199 12.2504 10.4254 12.4344 10.4096C12.7235 10.3309 13.7223 10.2837 14.3006 10.3939C14.0115 10.4411 13.6698 10.6144 13.3806 10.4884L13.7223 10.6144C13.3806 10.7561 12.7235 10.5986 12.4344 10.6931C12.5395 10.6931 12.6709 10.6931 12.7235 10.7403C12.5921 10.8191 12.4869 10.8978 12.3555 10.9766C12.7761 10.9766 13.1178 10.6774 13.6172 10.7718ZM15.3257 10.6774L14.9315 10.6616L14.8526 10.6144L15.3257 10.6774ZM1.9465 9.70101L2.41964 9.71676C2.34078 9.88998 2.18307 9.65377 1.99907 9.77975C2.05164 9.74825 1.97279 9.71676 1.9465 9.70101ZM2.78763 9.81124L2.44592 9.63802C2.60364 9.62227 2.86649 9.54354 3.15563 9.59078C3.15563 9.62227 3.18191 9.63802 3.18191 9.66952C3.28705 9.66952 3.41848 9.68526 3.54991 9.70101C3.68133 9.68526 3.78648 9.68526 3.9179 9.70101C3.78648 9.71676 3.68133 9.70101 3.54991 9.70101C3.3922 9.71676 3.26077 9.73251 3.18191 9.66952C2.99792 9.63802 2.86649 9.66952 2.78763 9.81124ZM6.54644 10.0632C6.36244 9.92148 5.94187 9.98447 5.60017 9.95297C5.96816 9.87423 6.38873 9.96872 6.54644 10.0632Z" fill="#AA8453"/>
<path d="M16.0874 11.1016L16.1137 11.0543L15.9297 10.9756L16.0874 11.1016Z" fill="#AA8453"/>
<path d="M17.9277 2.03145C18.0066 2.09444 18.2957 2.0472 18.4272 2.0157C18.1906 1.99996 18.0592 1.95271 17.9277 2.03145Z" fill="#AA8453"/>
<path d="M17.2969 2.20382C17.5072 2.25106 17.7174 2.21956 18.0066 2.15657C17.6649 2.03059 17.6386 2.17232 17.2969 2.20382Z" fill="#AA8453"/>
<path d="M17.3491 1.99978L16.692 1.93679L16.876 2.01553L16.5605 2.07852L16.8497 2.09427C17.0337 2.11002 17.428 2.15726 17.3491 1.99978Z" fill="#AA8453"/>
<path d="M16.377 3.30786C16.4558 3.33936 16.5084 3.40234 16.6398 3.40234C16.6398 3.32361 16.4558 3.27637 16.4032 3.19763L16.377 3.30786Z" fill="#AA8453"/>
<path d="M15.4307 5.40234L15.7198 5.37085C15.5884 5.33935 15.4832 5.27636 15.4307 5.40234Z" fill="#AA8453"/>
<path d="M15.9563 5.33799L15.7197 5.36949C15.7986 5.38523 15.8774 5.38524 15.9563 5.33799Z" fill="#AA8453"/>
<path d="M15.6153 5.11816C15.8256 5.08667 15.6153 5.00793 15.5627 4.96069C15.4576 5.07092 15.6153 5.18115 15.6679 5.24414L15.773 5.21264L15.6153 5.11816Z" fill="#AA8453"/>
<path d="M15.6151 5.52794C15.1945 5.55943 15.4048 5.30747 14.9842 5.33897V5.38621H15.0894C15.3522 5.46495 14.9316 5.49644 14.9316 5.57518C15.0894 5.52794 15.5888 5.76415 15.6151 5.52794Z" fill="#AA8453"/>
<path d="M16.1927 1.88989L15.9824 1.96863L16.2716 1.98438C16.3241 1.92138 16.2453 1.90564 16.1927 1.88989Z" fill="#AA8453"/>
<path d="M14.0636 8.36324L13.7744 8.34749C13.827 8.41048 13.9321 8.39473 14.0636 8.39473V8.36324Z" fill="#AA8453"/>
<path d="M14.6162 5.52724C14.6688 5.32252 14.3533 5.44851 14.0905 5.33827C13.7225 5.33827 13.5911 5.44851 13.3545 5.5115C13.7488 5.52724 14.2482 5.59023 14.6162 5.52724Z" fill="#AA8453"/>
<path d="M15.1674 1.8277L14.3789 1.73322C14.3526 1.95369 14.8783 1.84345 15.1674 1.8277Z" fill="#AA8453"/>
<path d="M15.168 1.828L15.3257 1.84375C15.2994 1.828 15.2468 1.828 15.168 1.828Z" fill="#AA8453"/>
<path d="M14.9047 1.95333L14.4053 2.01632L14.6944 2.03207C14.7996 2.04781 14.931 2.00057 14.9047 1.95333Z" fill="#AA8453"/>
<path d="M12.25 5.19714C12.3814 5.29162 12.6443 5.22863 12.802 5.21288C12.7757 5.19713 12.7494 5.18139 12.7494 5.16564C12.5917 5.18139 12.3026 5.13415 12.25 5.19714Z" fill="#AA8453"/>
<path d="M12.9342 5.24414C12.9079 5.22839 12.8553 5.22839 12.8027 5.22839C12.8553 5.24414 12.9079 5.24414 12.9342 5.24414Z" fill="#AA8453"/>
<path d="M13.2227 5.24365C13.1176 5.2279 13.0124 5.24365 12.9336 5.24365C12.9599 5.2594 12.9862 5.27515 12.9862 5.30664L13.2227 5.24365Z" fill="#AA8453"/>
<path d="M13.6429 3.55859L13.4589 3.47986L13.4326 3.55859H13.6429Z" fill="#AA8453"/>
<path d="M10.83 10.2679L10.8037 10.3467C10.9351 10.3624 11.0928 10.5041 11.1717 10.3939C10.8563 10.4412 10.9614 10.2679 10.83 10.2679Z" fill="#AA8453"/>
<path d="M13.4067 1.70191L13.3016 1.73341L13.0387 1.60742C12.881 1.62317 12.7233 1.62317 12.6182 1.67041C12.7759 1.74915 12.881 1.84364 13.1702 1.81214C13.249 1.78065 13.4067 1.7649 13.4067 1.70191Z" fill="#AA8453"/>
<path d="M12.3024 5.40283L11.5138 5.37133V5.41858C11.4087 5.27685 11.1721 5.38709 10.9355 5.35559C11.3824 5.41858 11.8555 5.46582 12.2761 5.45007L12.3024 5.40283Z" fill="#AA8453"/>
<path d="M12.0664 2.17334V2.22058L12.4607 2.23633V2.18909L12.0664 2.17334Z" fill="#AA8453"/>
<path d="M12.4082 0.739864V0.771361L12.6973 0.787109V0.755612L12.4082 0.739864Z" fill="#AA8453"/>
<path d="M11.3035 1.46423L10.9355 1.52722L11.2773 1.54297L11.3035 1.46423Z" fill="#AA8453"/>
<path d="M10.7257 1.40149C10.3577 1.48023 10.2 1.38574 9.83203 1.44873L10.8572 1.51172C10.8046 1.48022 10.6994 1.44873 10.7257 1.40149Z" fill="#AA8453"/>
<path d="M8.25433 4.37891L8.35947 4.34741C8.25433 4.36316 8.22805 4.31592 8.17548 4.30017C8.35947 4.15844 8.70118 4.26868 8.99032 4.25293C9.30575 4.42615 9.54231 4.30017 9.88402 4.25293C9.93659 4.26868 9.98916 4.30017 9.96288 4.33167L10.3572 4.34741C10.2783 4.30017 9.96288 4.28442 10.1206 4.17419C9.88402 4.14269 9.67374 4.18993 9.59488 4.26867C9.41089 4.23718 9.5686 4.15844 9.54231 4.1112L9.25317 4.09545C9.27946 4.14269 9.17432 4.15844 9.12175 4.17419C8.75375 4.03246 8.28062 4.22143 7.96519 4.12694C8.14919 4.09545 8.09662 3.98522 8.22805 3.93798C6.99264 4.09545 6.04636 3.7805 4.62695 3.81199L5.67837 3.89073C5.4418 3.90648 5.2578 3.98522 4.96866 3.93798C5.54694 3.98522 5.96751 4.00097 6.7035 4.0797V4.12694C6.86121 4.17419 7.17663 4.22143 7.38691 4.1112C7.51834 4.14269 7.46577 4.18994 7.43949 4.23718C7.80748 4.18994 8.01776 4.30017 8.25433 4.37891Z" fill="#AA8453"/>
<path d="M10.7519 2.69225L10.4627 2.67651L10.4102 2.83398C10.5153 2.78674 10.7256 2.75524 10.7519 2.69225Z" fill="#AA8453"/>
<path d="M8.62305 5.79456L8.7019 5.8418C8.72819 5.8103 8.7019 5.79456 8.62305 5.79456Z" fill="#AA8453"/>
<path d="M8.62312 5.79516C8.51798 5.79516 8.33398 5.81091 8.20255 5.77941C8.22884 5.82665 8.17627 5.8739 8.01855 5.88965C8.09741 6.04712 8.59683 5.77941 8.57055 5.98413L9.25397 6.01562L8.49169 5.90539C8.51798 5.85815 8.51798 5.82666 8.62312 5.79516Z" fill="#AA8453"/>
<path d="M8.07129 5.68481C8.07129 5.73205 8.12386 5.76355 8.20272 5.7793C8.17643 5.7478 8.12386 5.70056 8.07129 5.68481Z" fill="#AA8453"/>
<path d="M9.12157 4.48828L9.14786 4.40954C8.96386 4.50403 8.83243 4.3623 8.67472 4.34655L8.64844 4.42529C8.72729 4.50402 8.96386 4.45679 9.12157 4.48828Z" fill="#AA8453"/>
<path d="M9.48993 1.6375L9.01679 1.54301L9.25336 1.43277C8.96422 1.40128 8.78022 1.54301 8.43851 1.48002C7.75509 1.32254 7.15053 1.36979 6.44083 1.21231C6.25683 1.29105 5.99397 1.19656 5.83626 1.2753C5.38941 1.08633 4.31171 1.2438 4.154 0.976096C4.44314 0.865863 4.60085 1.05484 4.94256 1.00759C4.78485 0.928855 4.18029 0.96035 4.41685 0.834369C4.25914 0.724136 4.07514 0.89736 3.94372 0.77138C3.57572 0.613904 3.57572 0.991847 3.12887 0.865866L3.47058 1.00759L3.0763 1.03909C2.81345 1.08633 2.57688 1.07058 2.62945 1.18082H2.81345L2.73459 1.13357L2.83973 1.10208C3.12887 1.36979 3.89115 0.913107 4.18029 1.22806C4.28543 1.21231 4.36428 1.13357 4.49571 1.16507C4.54828 1.18082 4.60085 1.21231 4.57457 1.24381C4.88999 1.25955 5.38941 1.14932 5.52084 1.35404C6.4934 1.29105 7.54481 1.6375 8.33337 1.49577L8.59622 1.62175C8.88536 1.36979 9.14822 1.74773 9.48993 1.6375Z" fill="#AA8453"/>
<path d="M6.33568 0.961052L6.20425 1.07129C6.04654 1.07129 5.96769 0.976803 5.86255 0.92956C5.78369 0.961055 5.62598 0.9768 5.62598 1.03979C5.78369 1.02404 5.80997 1.10278 5.88883 1.13428C5.88883 1.08703 5.88883 1.03979 6.02026 1.02405C5.99397 1.13428 6.3094 1.13428 6.46711 1.19727L6.88767 1.13428C6.25682 1.18152 6.72996 1.02404 6.33568 0.961052Z" fill="#AA8453"/>
<path d="M8.93848 0.487787V0.535033L9.51675 0.550781V0.503536L8.93848 0.487787Z" fill="#AA8453"/>
<path d="M6.02001 9.52734L6.0463 9.44861L5.54688 9.5116L6.02001 9.52734Z" fill="#AA8453"/>
<path d="M8.09652 1.30664C8.33308 1.27515 8.1228 1.18066 8.04395 1.14917L8.09652 1.30664Z" fill="#AA8453"/>
<path d="M7.36083 2.85156V2.80432L6.57227 2.77282V2.82007L7.36083 2.85156Z" fill="#AA8453"/>
<path d="M6.91446 4.28447L6.41504 4.26873V4.31597C6.57275 4.30022 6.88818 4.34746 6.91446 4.28447Z" fill="#AA8453"/>
<path d="M5.20564 3.4486C5.17935 3.38561 5.36335 3.36986 5.44221 3.33836L4.75879 3.30687L5.73135 3.66906C5.96792 3.70056 6.28334 3.63757 6.38848 3.7793L6.83533 3.63756C6.23077 3.68481 5.57364 3.63757 5.20564 3.4486Z" fill="#AA8453"/>
<path d="M4.67961 8.78857L4.65332 8.83581L5.2316 8.85156L5.25788 8.82007L4.67961 8.78857Z" fill="#AA8453"/>
<path d="M3.8916 2.58203C3.8916 2.56628 3.8916 2.53479 3.91816 2.51904C3.8916 2.51904 3.8916 2.55054 3.8916 2.58203Z" fill="#AA8453"/>
<path d="M4.10127 3.16503L4.36412 3.29102L4.39041 3.16503C4.62698 3.07055 4.83726 3.25952 5.07383 3.14929L4.70583 3.10204L4.91612 3.02331H4.73212C4.49555 2.97606 3.99613 2.92882 4.20641 2.7556C3.91727 2.77135 3.8647 2.64536 3.8647 2.56663C3.83842 2.58237 3.81213 2.59812 3.75956 2.61387C3.73327 2.73985 4.39041 2.81859 3.96984 2.94457C4.20641 2.94457 4.36412 3.00756 4.52184 3.03905L4.10127 3.16503Z" fill="#AA8453"/>
<path d="M2.12988 10.0624L2.41902 10.0781C2.47159 10.0624 2.55045 10.0466 2.55045 9.99939C2.39274 10.0624 2.28759 9.96789 2.12988 10.0624Z" fill="#AA8453"/>
<path d="M3.75977 3.99988L4.0489 4.01562L4.15405 3.98413L3.75977 3.99988Z" fill="#AA8453"/>
<path d="M3.26074 5.95264L3.54988 6.01562L3.26074 5.92114V5.95264Z" fill="#AA8453"/>
<path d="M4.81152 0.141476V0.188717C4.89038 0.220212 4.94295 0.283203 5.07438 0.283203L5.10066 0.157225L4.81152 0.141476Z" fill="#AA8453"/>
<path d="M3.91746 3.11877L3.94375 3.04004C3.57575 3.10303 3.1289 3.02429 2.81348 3.16602C3.3129 3.16602 3.4969 3.05578 3.91746 3.11877Z" fill="#AA8453"/>
<path d="M3.892 3.245L3.41886 3.18201L3.39258 3.26075C3.49772 3.30799 3.83943 3.35523 3.892 3.245Z" fill="#AA8453"/>
<path d="M1.86719 6.96045V6.99195L2.44546 7.02344L2.47175 6.9762L1.86719 6.96045Z" fill="#AA8453"/>
<path d="M4.31135 0.204565C4.17993 0.188817 4.07479 0.125826 3.94336 0.110079C4.0485 0.157321 4.12736 0.220313 4.31135 0.204565Z" fill="#AA8453"/>
<path d="M3.70703 0.173828L3.91731 0.0950903C3.86474 0.0950903 3.78589 0.0950922 3.70703 0.126587V0.173828Z" fill="#AA8453"/>
<path d="M0.631825 9.81184L0.342686 9.7646L0.316401 9.84333C0.237545 9.89058 0.132403 9.87483 0.000976563 9.87483C0.211259 10.0008 0.474113 9.78034 0.631825 9.81184Z" fill="#AA8453"/>
<path d="M2.15617 3.10315L2.12988 3.13464L2.52416 3.15039L2.55045 3.11889L2.15617 3.10315Z" fill="#AA8453"/>
</svg>
