<svg width="82" height="82" viewBox="0 0 82 82" fill="none" xmlns="http://www.w3.org/2000/svg">
<path d="M63.2944 80.4586H18.7049C9.22559 80.4586 1.54102 72.774 1.54102 63.2947V18.7052C1.54102 9.22583 9.22559 1.54126 18.7049 1.54126H63.2944C72.7737 1.54126 80.4583 9.22583 80.4583 18.7052V63.2947C80.4583 72.774 72.7737 80.4586 63.2944 80.4586Z" fill="black"/>
<mask id="mask0_4008_26502" style="mask-type:luminance" maskUnits="userSpaceOnUse" x="1" y="1" width="80" height="80">
<path d="M63.2944 80.4586H18.7049C9.22559 80.4586 1.54102 72.774 1.54102 63.2947V18.7052C1.54102 9.22583 9.22559 1.54126 18.7049 1.54126H63.2944C72.7737 1.54126 80.4583 9.22583 80.4583 18.7052V63.2947C80.4583 72.774 72.7737 80.4586 63.2944 80.4586Z" fill="white"/>
</mask>
<g mask="url(#mask0_4008_26502)">
<path d="M63.2944 80.4586H18.7049C9.22559 80.4586 1.54102 72.774 1.54102 63.2947V18.7052C1.54102 9.22583 9.22559 1.54126 18.7049 1.54126H63.2944C72.7737 1.54126 80.4583 9.22583 80.4583 18.7052V63.2947C80.4583 72.774 72.7737 80.4586 63.2944 80.4586Z" fill="#00B771"/>
</g>
<mask id="mask1_4008_26502" style="mask-type:luminance" maskUnits="userSpaceOnUse" x="1" y="1" width="80" height="80">
<path d="M63.2944 80.4586H18.7049C9.22559 80.4586 1.54102 72.774 1.54102 63.2947V18.7052C1.54102 9.22583 9.22559 1.54126 18.7049 1.54126H63.2944C72.7737 1.54126 80.4583 9.22583 80.4583 18.7052V63.2947C80.4583 72.774 72.7737 80.4586 63.2944 80.4586Z" fill="white"/>
</mask>
<g mask="url(#mask1_4008_26502)">
<path d="M62.095 52.4534V61.4006C62.095 62.0085 61.6005 62.4999 60.9871 62.4999H56.556C46.793 62.4999 37.6134 58.7261 30.7081 51.8744C23.8028 45.0228 20 35.9146 20 26.2269V21.831C20 21.2225 20.4945 20.7317 21.1079 20.7317H29.9849C31.1372 20.7317 32.1341 21.4648 32.4591 22.5419L34.7631 32.0754C34.8074 32.2614 34.8028 32.4557 34.7498 32.6394C34.6967 32.823 34.597 32.9899 34.4604 33.1236L31.5725 35.9227C31.2999 36.1833 31.1157 36.5227 31.0455 36.8932C30.9753 37.2638 31.0227 37.647 31.181 37.9893C31.8043 39.2995 32.5252 40.561 33.3376 41.7632C34.3464 43.2374 35.4912 44.6138 36.757 45.8743C38.0292 47.1319 39.4163 48.2678 40.9001 49.2671C42.1129 50.0784 43.387 50.7939 44.711 51.4071C45.0548 51.564 45.4386 51.6109 45.8101 51.5414C46.1816 51.4719 46.5225 51.2893 46.7863 51.0187L50.0946 47.6696C50.2357 47.5256 50.4135 47.4228 50.6088 47.3724C50.804 47.322 51.0093 47.3258 51.2025 47.3835L60.4044 50.0433C60.8981 50.2251 61.3245 50.5533 61.6266 50.984C61.9287 51.4146 62.0921 51.9273 62.095 52.4534Z" fill="white"/>
</g>
</svg>
