<svg width="18" height="18" viewBox="0 0 18 18" fill="none" xmlns="http://www.w3.org/2000/svg">
<path d="M7.37622 14.5323L7.22467 14.2742C6.08804 12.3376 3.06439 8.2235 3.034 8.18217L2.94531 8.06167L4.08257 6.93795L7.33766 9.2109C9.37779 6.57428 11.2783 4.75971 12.5216 3.69626C13.8951 2.52145 14.7647 1.99571 14.8008 1.9739L14.842 1.94922H16.8462L16.5068 2.25155C12.2207 6.06911 7.57083 14.1906 7.52434 14.2722L7.37622 14.5323Z" fill="#666666"/>
<path d="M7.37689 4.1366C7.52895 4.1366 7.65222 4.01333 7.65222 3.86127C7.65222 3.70921 7.52895 3.58594 7.37689 3.58594C7.22483 3.58594 7.10156 3.70921 7.10156 3.86127C7.10156 4.01333 7.22483 4.1366 7.37689 4.1366Z" fill="#666666"/>
<path d="M7.37689 16.0468C7.52895 16.0468 7.65222 15.9235 7.65222 15.7714C7.65222 15.6194 7.52895 15.4961 7.37689 15.4961C7.22483 15.4961 7.10156 15.6194 7.10156 15.7714C7.10156 15.9235 7.22483 16.0468 7.37689 16.0468Z" fill="#666666"/>
<path d="M1.42767 10.0917C1.57974 10.0917 1.70301 9.96841 1.70301 9.81635C1.70301 9.66428 1.57974 9.54102 1.42767 9.54102C1.27561 9.54102 1.15234 9.66428 1.15234 9.81635C1.15234 9.96841 1.27561 10.0917 1.42767 10.0917Z" fill="#666666"/>
<path d="M13.3261 10.0917C13.4782 10.0917 13.6014 9.96841 13.6014 9.81635C13.6014 9.66428 13.4782 9.54102 13.3261 9.54102C13.1741 9.54102 13.0508 9.66428 13.0508 9.81635C13.0508 9.96841 13.1741 10.0917 13.3261 10.0917Z" fill="#666666"/>
<path d="M3.16596 14.3046C3.31802 14.3046 3.44129 14.1813 3.44129 14.0292C3.44129 13.8772 3.31802 13.7539 3.16596 13.7539C3.01389 13.7539 2.89062 13.8772 2.89062 14.0292C2.89062 14.1813 3.01389 14.3046 3.16596 14.3046Z" fill="#666666"/>
<path d="M3.16986 5.8866C3.32192 5.8866 3.44519 5.76333 3.44519 5.61127C3.44519 5.45921 3.32192 5.33594 3.16986 5.33594C3.0178 5.33594 2.89453 5.45921 2.89453 5.61127C2.89453 5.76333 3.0178 5.8866 3.16986 5.8866Z" fill="#666666"/>
<path d="M11.5839 14.2987C11.736 14.2987 11.8593 14.1754 11.8593 14.0234C11.8593 13.8713 11.736 13.748 11.5839 13.748C11.4319 13.748 11.3086 13.8713 11.3086 14.0234C11.3086 14.1754 11.4319 14.2987 11.5839 14.2987Z" fill="#666666"/>
<path d="M2.21869 7.11316C2.37075 7.11316 2.49402 6.98989 2.49402 6.83783C2.49402 6.68577 2.37075 6.5625 2.21869 6.5625C2.06663 6.5625 1.94336 6.68577 1.94336 6.83783C1.94336 6.98989 2.06663 7.11316 2.21869 7.11316Z" fill="#666666"/>
<path d="M12.5331 13.0702C12.6852 13.0702 12.8085 12.9469 12.8085 12.7949C12.8085 12.6428 12.6852 12.5195 12.5331 12.5195C12.3811 12.5195 12.2578 12.6428 12.2578 12.7949C12.2578 12.9469 12.3811 13.0702 12.5331 13.0702Z" fill="#666666"/>
<path d="M4.40228 15.244C4.55434 15.244 4.67761 15.1208 4.67761 14.9687C4.67761 14.8166 4.55434 14.6934 4.40228 14.6934C4.25022 14.6934 4.12695 14.8166 4.12695 14.9687C4.12695 15.1208 4.25022 15.244 4.40228 15.244Z" fill="#666666"/>
<path d="M5.83588 4.33972C5.98794 4.33972 6.11121 4.21645 6.11121 4.06439C6.11121 3.91233 5.98794 3.78906 5.83588 3.78906C5.68382 3.78906 5.56055 3.91233 5.56055 4.06439C5.56055 4.21645 5.68382 4.33972 5.83588 4.33972Z" fill="#666666"/>
<path d="M8.91791 15.8436C9.06997 15.8436 9.19324 15.7204 9.19324 15.5683C9.19324 15.4162 9.06997 15.293 8.91791 15.293C8.76585 15.293 8.64258 15.4162 8.64258 15.5683C8.64258 15.7204 8.76585 15.8436 8.91791 15.8436Z" fill="#666666"/>
<path d="M1.6308 11.6327C1.78286 11.6327 1.90613 11.5094 1.90613 11.3574C1.90613 11.2053 1.78286 11.082 1.6308 11.082C1.47874 11.082 1.35547 11.2053 1.35547 11.3574C1.35547 11.5094 1.47874 11.6327 1.6308 11.6327Z" fill="#666666"/>
<path d="M13.123 8.55261C13.275 8.55261 13.3983 8.42935 13.3983 8.27728C13.3983 8.12522 13.275 8.00195 13.123 8.00195C12.9709 8.00195 12.8477 8.12522 12.8477 8.27728C12.8477 8.42935 12.9709 8.55261 13.123 8.55261Z" fill="#666666"/>
<path d="M2.21869 13.0702C2.37075 13.0702 2.49402 12.9469 2.49402 12.7949C2.49402 12.6428 2.37075 12.5195 2.21869 12.5195C2.06663 12.5195 1.94336 12.6428 1.94336 12.7949C1.94336 12.9469 2.06663 13.0702 2.21869 13.0702Z" fill="#666666"/>
<path d="M10.3515 15.244C10.5036 15.244 10.6268 15.1208 10.6268 14.9687C10.6268 14.8166 10.5036 14.6934 10.3515 14.6934C10.1994 14.6934 10.0762 14.8166 10.0762 14.9687C10.0762 15.1208 10.1994 15.244 10.3515 15.244Z" fill="#666666"/>
<path d="M4.40228 4.94129C4.55434 4.94129 4.67761 4.81802 4.67761 4.66596C4.67761 4.51389 4.55434 4.39062 4.40228 4.39062C4.25022 4.39062 4.12695 4.51389 4.12695 4.66596C4.12695 4.81802 4.25022 4.94129 4.40228 4.94129Z" fill="#666666"/>
<path d="M8.91791 4.33972C9.06997 4.33972 9.19324 4.21645 9.19324 4.06439C9.19324 3.91233 9.06997 3.78906 8.91791 3.78906C8.76585 3.78906 8.64258 3.91233 8.64258 4.06439C8.64258 4.21645 8.76585 4.33972 8.91791 4.33972Z" fill="#666666"/>
<path d="M5.83588 15.8436C5.98794 15.8436 6.11121 15.7204 6.11121 15.5683C6.11121 15.4162 5.98794 15.293 5.83588 15.293C5.68382 15.293 5.56055 15.4162 5.56055 15.5683C5.56055 15.7204 5.68382 15.8436 5.83588 15.8436Z" fill="#666666"/>
<path d="M13.123 11.6327C13.275 11.6327 13.3983 11.5094 13.3983 11.3574C13.3983 11.2053 13.275 11.082 13.123 11.082C12.9709 11.082 12.8477 11.2053 12.8477 11.3574C12.8477 11.5094 12.9709 11.6327 13.123 11.6327Z" fill="#666666"/>
<path d="M1.6308 8.55261C1.78286 8.55261 1.90613 8.42935 1.90613 8.27728C1.90613 8.12522 1.78286 8.00195 1.6308 8.00195C1.47874 8.00195 1.35547 8.12522 1.35547 8.27728C1.35547 8.42935 1.47874 8.55261 1.6308 8.55261Z" fill="#666666"/>
</svg>
