<svg width="28" height="28" viewBox="0 0 28 28" fill="none" xmlns="http://www.w3.org/2000/svg">
<path d="M11.4746 22.6088L11.2388 22.2073C9.47072 19.1948 4.76726 12.7951 4.71998 12.7309L4.58203 12.5434L6.35109 10.7954L11.4146 14.3311C14.5881 10.2297 17.5445 7.40703 19.4785 5.75277C21.615 3.92529 22.9677 3.10747 23.024 3.07355L23.0879 3.03516H26.2056L25.6777 3.50545C19.0104 9.44387 11.7773 22.0773 11.705 22.2043L11.4746 22.6088Z" fill="url(#paint0_linear_931_20393)"/>
<path d="M11.4752 6.43862C11.7117 6.43862 11.9035 6.24686 11.9035 6.01032C11.9035 5.77378 11.7117 5.58203 11.4752 5.58203C11.2386 5.58203 11.0469 5.77378 11.0469 6.01032C11.0469 6.24686 11.2386 6.43862 11.4752 6.43862Z" fill="url(#paint1_linear_931_20393)"/>
<path d="M11.4752 24.966C11.7117 24.966 11.9035 24.7742 11.9035 24.5377C11.9035 24.3011 11.7117 24.1094 11.4752 24.1094C11.2386 24.1094 11.0469 24.3011 11.0469 24.5377C11.0469 24.7742 11.2386 24.966 11.4752 24.966Z" fill="url(#paint2_linear_931_20393)"/>
<path d="M2.22126 15.7023C2.4578 15.7023 2.64955 15.5105 2.64955 15.274C2.64955 15.0375 2.4578 14.8457 2.22126 14.8457C1.98472 14.8457 1.79297 15.0375 1.79297 15.274C1.79297 15.5105 1.98472 15.7023 2.22126 15.7023Z" fill="url(#paint3_linear_931_20393)"/>
<path d="M20.7291 15.7023C20.9656 15.7023 21.1574 15.5105 21.1574 15.274C21.1574 15.0375 20.9656 14.8457 20.7291 14.8457C20.4925 14.8457 20.3008 15.0375 20.3008 15.274C20.3008 15.5105 20.4925 15.7023 20.7291 15.7023Z" fill="url(#paint4_linear_931_20393)"/>
<path d="M4.92439 22.2531C5.16093 22.2531 5.35268 22.0613 5.35268 21.8248C5.35268 21.5882 5.16093 21.3965 4.92439 21.3965C4.68785 21.3965 4.49609 21.5882 4.49609 21.8248C4.49609 22.0613 4.68785 22.2531 4.92439 22.2531Z" fill="url(#paint5_linear_931_20393)"/>
<path d="M4.9322 9.15932C5.16874 9.15932 5.36049 8.96757 5.36049 8.73103C5.36049 8.49449 5.16874 8.30273 4.9322 8.30273C4.69566 8.30273 4.50391 8.49449 4.50391 8.73103C4.50391 8.96757 4.69566 9.15932 4.9322 9.15932Z" fill="url(#paint6_linear_931_20393)"/>
<path d="M18.0181 22.2472C18.2547 22.2472 18.4464 22.0555 18.4464 21.8189C18.4464 21.5824 18.2547 21.3906 18.0181 21.3906C17.7816 21.3906 17.5898 21.5824 17.5898 21.8189C17.5898 22.0555 17.7816 22.2472 18.0181 22.2472Z" fill="url(#paint7_linear_931_20393)"/>
<path d="M3.45173 11.0714C3.68827 11.0714 3.88002 10.8797 3.88002 10.6431C3.88002 10.4066 3.68827 10.2148 3.45173 10.2148C3.21519 10.2148 3.02344 10.4066 3.02344 10.6431C3.02344 10.8797 3.21519 11.0714 3.45173 11.0714Z" fill="url(#paint8_linear_931_20393)"/>
<path d="M19.4986 20.3351C19.7351 20.3351 19.9269 20.1433 19.9269 19.9068C19.9269 19.6703 19.7351 19.4785 19.4986 19.4785C19.2621 19.4785 19.0703 19.6703 19.0703 19.9068C19.0703 20.1433 19.2621 20.3351 19.4986 20.3351Z" fill="url(#paint9_linear_931_20393)"/>
<path d="M6.84821 23.716C7.08475 23.716 7.27651 23.5242 7.27651 23.2877C7.27651 23.0511 7.08475 22.8594 6.84821 22.8594C6.61168 22.8594 6.41992 23.0511 6.41992 23.2877C6.41992 23.5242 6.61168 23.716 6.84821 23.716Z" fill="url(#paint10_linear_931_20393)"/>
<path d="M9.07673 6.75502C9.31327 6.75502 9.50502 6.56327 9.50502 6.32673C9.50502 6.09019 9.31327 5.89844 9.07673 5.89844C8.84019 5.89844 8.64844 6.09019 8.64844 6.32673C8.64844 6.56327 8.84019 6.75502 9.07673 6.75502Z" fill="url(#paint11_linear_931_20393)"/>
<path d="M13.8736 24.6515C14.1101 24.6515 14.3019 24.4598 14.3019 24.2232C14.3019 23.9867 14.1101 23.7949 13.8736 23.7949C13.6371 23.7949 13.4453 23.9867 13.4453 24.2232C13.4453 24.4598 13.6371 24.6515 13.8736 24.6515Z" fill="url(#paint12_linear_931_20393)"/>
<path d="M2.53571 18.0988C2.77225 18.0988 2.96401 17.907 2.96401 17.6705C2.96401 17.4339 2.77225 17.2422 2.53571 17.2422C2.29918 17.2422 2.10742 17.4339 2.10742 17.6705C2.10742 17.907 2.29918 18.0988 2.53571 18.0988Z" fill="url(#paint13_linear_931_20393)"/>
<path d="M20.4146 13.3078C20.6512 13.3078 20.8429 13.116 20.8429 12.8795C20.8429 12.6429 20.6512 12.4512 20.4146 12.4512C20.1781 12.4512 19.9863 12.6429 19.9863 12.8795C19.9863 13.116 20.1781 13.3078 20.4146 13.3078Z" fill="url(#paint14_linear_931_20393)"/>
<path d="M3.45173 20.3351C3.68827 20.3351 3.88002 20.1433 3.88002 19.9068C3.88002 19.6703 3.68827 19.4785 3.45173 19.4785C3.21519 19.4785 3.02344 19.6703 3.02344 19.9068C3.02344 20.1433 3.21519 20.3351 3.45173 20.3351Z" fill="url(#paint15_linear_931_20393)"/>
<path d="M16.1021 23.716C16.3387 23.716 16.5304 23.5242 16.5304 23.2877C16.5304 23.0511 16.3387 22.8594 16.1021 22.8594C15.8656 22.8594 15.6738 23.0511 15.6738 23.2877C15.6738 23.5242 15.8656 23.716 16.1021 23.716Z" fill="url(#paint16_linear_931_20393)"/>
<path d="M6.84821 7.68862C7.08475 7.68862 7.27651 7.49686 7.27651 7.26032C7.27651 7.02378 7.08475 6.83203 6.84821 6.83203C6.61168 6.83203 6.41992 7.02378 6.41992 7.26032C6.41992 7.49686 6.61168 7.68862 6.84821 7.68862Z" fill="url(#paint17_linear_931_20393)"/>
<path d="M13.8736 6.75502C14.1101 6.75502 14.3019 6.56327 14.3019 6.32673C14.3019 6.09019 14.1101 5.89844 13.8736 5.89844C13.6371 5.89844 13.4453 6.09019 13.4453 6.32673C13.4453 6.56327 13.6371 6.75502 13.8736 6.75502Z" fill="url(#paint18_linear_931_20393)"/>
<path d="M9.07673 24.6515C9.31327 24.6515 9.50502 24.4598 9.50502 24.2232C9.50502 23.9867 9.31327 23.7949 9.07673 23.7949C8.84019 23.7949 8.64844 23.9867 8.64844 24.2232C8.64844 24.4598 8.84019 24.6515 9.07673 24.6515Z" fill="url(#paint19_linear_931_20393)"/>
<path d="M20.4146 18.0988C20.6512 18.0988 20.8429 17.907 20.8429 17.6705C20.8429 17.4339 20.6512 17.2422 20.4146 17.2422C20.1781 17.2422 19.9863 17.4339 19.9863 17.6705C19.9863 17.907 20.1781 18.0988 20.4146 18.0988Z" fill="url(#paint20_linear_931_20393)"/>
<path d="M2.53571 13.3078C2.77225 13.3078 2.96401 13.116 2.96401 12.8795C2.96401 12.6429 2.77225 12.4512 2.53571 12.4512C2.29918 12.4512 2.10742 12.6429 2.10742 12.8795C2.10742 13.116 2.29918 13.3078 2.53571 13.3078Z" fill="url(#paint21_linear_931_20393)"/>
<defs>
<linearGradient id="paint0_linear_931_20393" x1="26.2056" y1="3.03516" x2="1.57758" y2="8.15423" gradientUnits="userSpaceOnUse">
<stop stop-color="#DCAD81"/>
<stop offset="0.25" stop-color="#D8A97C"/>
<stop offset="0.5" stop-color="#FFD2A4"/>
<stop offset="0.75" stop-color="#D8A97C"/>
<stop offset="1" stop-color="#DCAD81"/>
</linearGradient>
<linearGradient id="paint1_linear_931_20393" x1="11.9035" y1="5.58203" x2="10.9205" y2="5.76697" gradientUnits="userSpaceOnUse">
<stop stop-color="#DCAD81"/>
<stop offset="0.25" stop-color="#D8A97C"/>
<stop offset="0.5" stop-color="#FFD2A4"/>
<stop offset="0.75" stop-color="#D8A97C"/>
<stop offset="1" stop-color="#DCAD81"/>
</linearGradient>
<linearGradient id="paint2_linear_931_20393" x1="11.9035" y1="24.1094" x2="10.9205" y2="24.2943" gradientUnits="userSpaceOnUse">
<stop stop-color="#DCAD81"/>
<stop offset="0.25" stop-color="#D8A97C"/>
<stop offset="0.5" stop-color="#FFD2A4"/>
<stop offset="0.75" stop-color="#D8A97C"/>
<stop offset="1" stop-color="#DCAD81"/>
</linearGradient>
<linearGradient id="paint3_linear_931_20393" x1="2.64955" y1="14.8457" x2="1.6666" y2="15.0306" gradientUnits="userSpaceOnUse">
<stop stop-color="#DCAD81"/>
<stop offset="0.25" stop-color="#D8A97C"/>
<stop offset="0.5" stop-color="#FFD2A4"/>
<stop offset="0.75" stop-color="#D8A97C"/>
<stop offset="1" stop-color="#DCAD81"/>
</linearGradient>
<linearGradient id="paint4_linear_931_20393" x1="21.1574" y1="14.8457" x2="20.1744" y2="15.0306" gradientUnits="userSpaceOnUse">
<stop stop-color="#DCAD81"/>
<stop offset="0.25" stop-color="#D8A97C"/>
<stop offset="0.5" stop-color="#FFD2A4"/>
<stop offset="0.75" stop-color="#D8A97C"/>
<stop offset="1" stop-color="#DCAD81"/>
</linearGradient>
<linearGradient id="paint5_linear_931_20393" x1="5.35268" y1="21.3965" x2="4.36972" y2="21.5814" gradientUnits="userSpaceOnUse">
<stop stop-color="#DCAD81"/>
<stop offset="0.25" stop-color="#D8A97C"/>
<stop offset="0.5" stop-color="#FFD2A4"/>
<stop offset="0.75" stop-color="#D8A97C"/>
<stop offset="1" stop-color="#DCAD81"/>
</linearGradient>
<linearGradient id="paint6_linear_931_20393" x1="5.36049" y1="8.30273" x2="4.37754" y2="8.48768" gradientUnits="userSpaceOnUse">
<stop stop-color="#DCAD81"/>
<stop offset="0.25" stop-color="#D8A97C"/>
<stop offset="0.5" stop-color="#FFD2A4"/>
<stop offset="0.75" stop-color="#D8A97C"/>
<stop offset="1" stop-color="#DCAD81"/>
</linearGradient>
<linearGradient id="paint7_linear_931_20393" x1="18.4464" y1="21.3906" x2="17.4635" y2="21.5756" gradientUnits="userSpaceOnUse">
<stop stop-color="#DCAD81"/>
<stop offset="0.25" stop-color="#D8A97C"/>
<stop offset="0.5" stop-color="#FFD2A4"/>
<stop offset="0.75" stop-color="#D8A97C"/>
<stop offset="1" stop-color="#DCAD81"/>
</linearGradient>
<linearGradient id="paint8_linear_931_20393" x1="3.88002" y1="10.2148" x2="2.89707" y2="10.3998" gradientUnits="userSpaceOnUse">
<stop stop-color="#DCAD81"/>
<stop offset="0.25" stop-color="#D8A97C"/>
<stop offset="0.5" stop-color="#FFD2A4"/>
<stop offset="0.75" stop-color="#D8A97C"/>
<stop offset="1" stop-color="#DCAD81"/>
</linearGradient>
<linearGradient id="paint9_linear_931_20393" x1="19.9269" y1="19.4785" x2="18.9439" y2="19.6635" gradientUnits="userSpaceOnUse">
<stop stop-color="#DCAD81"/>
<stop offset="0.25" stop-color="#D8A97C"/>
<stop offset="0.5" stop-color="#FFD2A4"/>
<stop offset="0.75" stop-color="#D8A97C"/>
<stop offset="1" stop-color="#DCAD81"/>
</linearGradient>
<linearGradient id="paint10_linear_931_20393" x1="7.27651" y1="22.8594" x2="6.29355" y2="23.0443" gradientUnits="userSpaceOnUse">
<stop stop-color="#DCAD81"/>
<stop offset="0.25" stop-color="#D8A97C"/>
<stop offset="0.5" stop-color="#FFD2A4"/>
<stop offset="0.75" stop-color="#D8A97C"/>
<stop offset="1" stop-color="#DCAD81"/>
</linearGradient>
<linearGradient id="paint11_linear_931_20393" x1="9.50502" y1="5.89844" x2="8.52207" y2="6.08338" gradientUnits="userSpaceOnUse">
<stop stop-color="#DCAD81"/>
<stop offset="0.25" stop-color="#D8A97C"/>
<stop offset="0.5" stop-color="#FFD2A4"/>
<stop offset="0.75" stop-color="#D8A97C"/>
<stop offset="1" stop-color="#DCAD81"/>
</linearGradient>
<linearGradient id="paint12_linear_931_20393" x1="14.3019" y1="23.7949" x2="13.3189" y2="23.9799" gradientUnits="userSpaceOnUse">
<stop stop-color="#DCAD81"/>
<stop offset="0.25" stop-color="#D8A97C"/>
<stop offset="0.5" stop-color="#FFD2A4"/>
<stop offset="0.75" stop-color="#D8A97C"/>
<stop offset="1" stop-color="#DCAD81"/>
</linearGradient>
<linearGradient id="paint13_linear_931_20393" x1="2.96401" y1="17.2422" x2="1.98105" y2="17.4271" gradientUnits="userSpaceOnUse">
<stop stop-color="#DCAD81"/>
<stop offset="0.25" stop-color="#D8A97C"/>
<stop offset="0.5" stop-color="#FFD2A4"/>
<stop offset="0.75" stop-color="#D8A97C"/>
<stop offset="1" stop-color="#DCAD81"/>
</linearGradient>
<linearGradient id="paint14_linear_931_20393" x1="20.8429" y1="12.4512" x2="19.86" y2="12.6361" gradientUnits="userSpaceOnUse">
<stop stop-color="#DCAD81"/>
<stop offset="0.25" stop-color="#D8A97C"/>
<stop offset="0.5" stop-color="#FFD2A4"/>
<stop offset="0.75" stop-color="#D8A97C"/>
<stop offset="1" stop-color="#DCAD81"/>
</linearGradient>
<linearGradient id="paint15_linear_931_20393" x1="3.88002" y1="19.4785" x2="2.89707" y2="19.6635" gradientUnits="userSpaceOnUse">
<stop stop-color="#DCAD81"/>
<stop offset="0.25" stop-color="#D8A97C"/>
<stop offset="0.5" stop-color="#FFD2A4"/>
<stop offset="0.75" stop-color="#D8A97C"/>
<stop offset="1" stop-color="#DCAD81"/>
</linearGradient>
<linearGradient id="paint16_linear_931_20393" x1="16.5304" y1="22.8594" x2="15.5475" y2="23.0443" gradientUnits="userSpaceOnUse">
<stop stop-color="#DCAD81"/>
<stop offset="0.25" stop-color="#D8A97C"/>
<stop offset="0.5" stop-color="#FFD2A4"/>
<stop offset="0.75" stop-color="#D8A97C"/>
<stop offset="1" stop-color="#DCAD81"/>
</linearGradient>
<linearGradient id="paint17_linear_931_20393" x1="7.27651" y1="6.83203" x2="6.29355" y2="7.01697" gradientUnits="userSpaceOnUse">
<stop stop-color="#DCAD81"/>
<stop offset="0.25" stop-color="#D8A97C"/>
<stop offset="0.5" stop-color="#FFD2A4"/>
<stop offset="0.75" stop-color="#D8A97C"/>
<stop offset="1" stop-color="#DCAD81"/>
</linearGradient>
<linearGradient id="paint18_linear_931_20393" x1="14.3019" y1="5.89844" x2="13.3189" y2="6.08338" gradientUnits="userSpaceOnUse">
<stop stop-color="#DCAD81"/>
<stop offset="0.25" stop-color="#D8A97C"/>
<stop offset="0.5" stop-color="#FFD2A4"/>
<stop offset="0.75" stop-color="#D8A97C"/>
<stop offset="1" stop-color="#DCAD81"/>
</linearGradient>
<linearGradient id="paint19_linear_931_20393" x1="9.50502" y1="23.7949" x2="8.52207" y2="23.9799" gradientUnits="userSpaceOnUse">
<stop stop-color="#DCAD81"/>
<stop offset="0.25" stop-color="#D8A97C"/>
<stop offset="0.5" stop-color="#FFD2A4"/>
<stop offset="0.75" stop-color="#D8A97C"/>
<stop offset="1" stop-color="#DCAD81"/>
</linearGradient>
<linearGradient id="paint20_linear_931_20393" x1="20.8429" y1="17.2422" x2="19.86" y2="17.4271" gradientUnits="userSpaceOnUse">
<stop stop-color="#DCAD81"/>
<stop offset="0.25" stop-color="#D8A97C"/>
<stop offset="0.5" stop-color="#FFD2A4"/>
<stop offset="0.75" stop-color="#D8A97C"/>
<stop offset="1" stop-color="#DCAD81"/>
</linearGradient>
<linearGradient id="paint21_linear_931_20393" x1="2.96401" y1="12.4512" x2="1.98105" y2="12.6361" gradientUnits="userSpaceOnUse">
<stop stop-color="#DCAD81"/>
<stop offset="0.25" stop-color="#D8A97C"/>
<stop offset="0.5" stop-color="#FFD2A4"/>
<stop offset="0.75" stop-color="#D8A97C"/>
<stop offset="1" stop-color="#DCAD81"/>
</linearGradient>
</defs>
</svg>
