<svg width="44" height="44" viewBox="0 0 44 44" fill="none" xmlns="http://www.w3.org/2000/svg">
<path d="M22.0843 3.43752C21.6091 3.43409 21.2215 3.81651 21.2181 4.29088C21.2146 4.76526 21.5962 5.15284 22.0714 5.15627C22.5458 5.15971 22.9334 4.77815 22.9368 4.30377C22.9402 3.8294 22.5587 3.44182 22.0843 3.43752ZM22.0452 8.59369C18.7271 8.57014 16.0096 11.247 15.9845 14.5641C15.9595 17.881 18.6379 20.5998 21.955 20.6248L22.001 20.6249C25.297 20.6249 27.9907 17.9561 28.0156 14.6543C28.0406 11.3376 25.3624 8.61869 22.0452 8.59369ZM22.0009 18.9063L21.9679 18.9061C19.5985 18.8882 17.6853 16.9462 17.7032 14.577C17.721 12.2184 19.645 10.3122 21.9993 10.3122L22.0323 10.3124C24.4017 10.3302 26.3148 12.2722 26.297 14.6415C26.2791 17 24.3552 18.9063 22.0009 18.9063ZM25.7496 4.08927C25.3026 3.93063 24.8111 4.16481 24.6525 4.6122C24.4939 5.05959 24.7281 5.55073 25.1754 5.70937C28.9607 7.05094 31.4834 10.6561 31.4531 14.6803C31.4496 15.1548 31.8314 15.5425 32.3061 15.5461H32.3127C32.7841 15.5461 33.1683 15.1656 33.1719 14.6932C33.2076 9.9368 30.2248 5.67542 25.7496 4.08927Z" fill="url(#paint0_linear_931_20734)"/>
<path d="M27.2732 32.3505C32.9891 24.9929 36.5613 21.1563 36.6095 14.7192C36.67 6.6202 30.0974 0 21.9989 0C13.9951 0 7.45196 6.48209 7.39112 14.5001C7.34196 21.1117 10.9805 24.9431 16.7359 32.3493C11.0103 33.2049 7.39112 35.3548 7.39112 37.9844C7.39112 39.7458 9.01929 41.3265 11.9758 42.4351C14.6668 43.4442 18.2269 43.9999 22.0003 43.9999C25.7738 43.9999 29.3339 43.4442 32.0248 42.4351C34.9813 41.3264 36.6095 39.7458 36.6095 37.9843C36.6095 35.3561 32.9937 33.2068 27.2732 32.3505ZM9.10978 14.513C9.16341 7.43789 14.9363 1.71875 21.9991 1.71875C29.1456 1.71875 34.9441 7.56147 34.8909 14.7064C34.8451 20.8195 31.0568 24.5867 25.0088 32.4709C23.93 33.8765 22.9394 35.2054 22.0016 36.5054C21.0666 35.2046 20.0957 33.8995 19.0008 32.4704C12.7027 24.2561 9.0632 20.7736 9.10978 14.513ZM22.0003 42.2812C14.6225 42.2812 9.10978 40.0128 9.10978 37.9844C9.10978 36.4801 12.4053 34.5799 17.9464 33.9219C19.1713 35.529 20.2451 36.989 21.2984 38.4802C21.3777 38.5925 21.4827 38.6841 21.6047 38.7473C21.7267 38.8106 21.8621 38.8436 21.9995 38.8438H22.0003C22.1376 38.8437 22.2729 38.8108 22.3949 38.7478C22.5169 38.6847 22.622 38.5934 22.7014 38.4813C23.7447 37.0096 24.8479 35.5135 26.0623 33.9228C31.5982 34.5815 34.8909 36.4812 34.8909 37.9845C34.8908 40.0128 29.3781 42.2812 22.0003 42.2812Z" fill="url(#paint1_linear_931_20734)"/>
<defs>
<linearGradient id="paint0_linear_931_20734" x1="33.1722" y1="3.4375" x2="13.4487" y2="7.14856" gradientUnits="userSpaceOnUse">
<stop stop-color="#DCAD81"/>
<stop offset="0.25" stop-color="#D8A97C"/>
<stop offset="0.5" stop-color="#FFD2A4"/>
<stop offset="0.75" stop-color="#D8A97C"/>
<stop offset="1" stop-color="#DCAD81"/>
</linearGradient>
<linearGradient id="paint1_linear_931_20734" x1="36.6099" y1="5.2452e-06" x2="2.42666" y2="4.27108" gradientUnits="userSpaceOnUse">
<stop stop-color="#DCAD81"/>
<stop offset="0.25" stop-color="#D8A97C"/>
<stop offset="0.5" stop-color="#FFD2A4"/>
<stop offset="0.75" stop-color="#D8A97C"/>
<stop offset="1" stop-color="#DCAD81"/>
</linearGradient>
</defs>
</svg>
