<svg width="73" height="67" viewBox="0 0 73 67" fill="none" xmlns="http://www.w3.org/2000/svg">
<path d="M51.9964 43.9291L40.7723 49.9935C40.3429 50.2255 39.9078 50.404 39.4593 50.5304C39.6015 50.2643 39.7144 49.9856 39.7965 49.6985C40.3929 47.6332 39.0724 45.4777 36.7901 44.7915C36.7404 44.7765 36.6896 44.7647 36.6381 44.7561C33.4264 44.2187 30.25 43.1535 27.6977 42.2976C26.8073 41.999 25.9662 41.7169 25.2497 41.5014C22.3142 40.618 19.6763 41.7033 17.4824 42.8814L9.27626 47.2887L8.57117 46.133C7.80687 44.8806 6.08654 44.4383 4.73661 45.147L1.58753 46.8004C0.2373 47.5091 -0.239626 49.1048 0.524675 50.3574L9.78323 65.533C10.1526 66.1382 10.7554 66.5742 11.4809 66.7609C11.7319 66.8253 11.9864 66.8573 12.2397 66.8573C12.7185 66.8573 13.1911 66.743 13.6178 66.5189L16.767 64.8655C18.1173 64.1565 18.594 62.5608 17.8297 61.3085L16.9558 59.8761L18.6583 58.9644L32.968 62.5211C33.7757 62.7219 34.5793 62.8216 35.3698 62.8216C36.9688 62.8216 38.5136 62.4131 39.926 61.6066L60.295 49.9718C62.2247 48.8697 62.8399 46.0974 61.5861 44.1553C60.9788 43.2149 58.4924 40.4197 51.9964 43.9291ZM15.6232 62.9908L12.474 64.6443C12.2425 64.7658 11.9355 64.6872 11.8041 64.4721L2.54573 49.2966C2.41453 49.0815 2.49943 48.797 2.73122 48.6753L5.88045 47.022C5.95282 46.9841 6.03453 46.9644 6.1176 46.9646C6.29046 46.9646 6.461 47.0479 6.55026 47.1943L15.8088 62.3697C15.94 62.5845 15.8551 62.8691 15.6232 62.9908ZM59.0775 48.1376L38.7085 59.7723C37.1332 60.6718 35.4039 60.8965 33.5692 60.4403L18.7949 56.7679C18.6476 56.7313 18.494 56.722 18.3429 56.7405C18.1917 56.7589 18.0459 56.8048 17.9139 56.8755L15.8122 58.0011L10.4204 49.1635L18.6464 44.7455C20.4853 43.7579 22.4717 42.9299 24.5336 43.5503C25.2137 43.7548 25.999 44.0182 26.9085 44.3232C29.5208 45.1993 32.7667 46.2878 36.1409 46.8615C37.2238 47.2181 37.8291 48.1871 37.5535 49.1409C37.1905 50.3973 36.0516 50.5532 35.1432 50.4576C33.4998 50.1436 31.9349 49.7293 30.2792 49.2908C29.49 49.0817 28.6742 48.8657 27.835 48.657C27.5376 48.583 27.2206 48.6217 26.9539 48.7646C26.6873 48.9074 26.4927 49.1427 26.413 49.4186C26.3333 49.6945 26.375 49.9885 26.529 50.2359C26.6829 50.4833 26.9365 50.6638 27.234 50.7378C28.0548 50.9417 28.8614 51.1554 29.6414 51.3621C31.3577 51.8167 32.9787 52.2462 34.7274 52.5778C34.7349 52.5793 34.7423 52.5797 34.7499 52.5811C34.7579 52.5824 34.7656 52.5846 34.7735 52.5858L36.1696 52.7962C38.2971 53.1118 40.1845 52.8039 41.9411 51.8548L53.1652 45.7905C56.3079 44.0927 58.7111 43.8949 59.5937 45.262C60.1966 46.1961 59.9361 47.6472 59.0775 48.1376ZM6.71282 49.8194C6.73468 49.9552 6.72745 50.0936 6.69153 50.2267C6.65562 50.3599 6.59173 50.4851 6.50353 50.5953C6.41533 50.7055 6.30455 50.7985 6.17754 50.8689C6.05053 50.9393 5.9098 50.9857 5.7634 51.0056C5.617 51.0254 5.46781 51.0183 5.3244 50.9846C5.18098 50.9508 5.04615 50.8912 4.92764 50.809C4.80912 50.7268 4.70926 50.6238 4.63376 50.5057C4.55827 50.3877 4.50863 50.257 4.48769 50.1211C4.44558 49.8479 4.52197 49.5702 4.70013 49.3491C4.87829 49.128 5.14368 48.9814 5.43814 48.9415C5.7326 48.9016 6.03212 48.9715 6.27105 49.1361C6.50998 49.3007 6.66884 49.5464 6.71282 49.8194ZM32.2895 14.5993C31.7439 14.5983 31.212 14.7581 30.7706 15.0556C30.3291 15.3531 30.001 15.773 29.8334 16.2547C29.6635 16.7365 29.6631 17.256 29.8325 17.738C30.0019 18.22 30.3321 18.6396 30.7755 18.9359L35.1962 21.9033C35.2968 21.9709 35.3297 22.0646 35.291 22.1742L33.5946 26.9854C33.4237 27.4669 33.4224 27.9863 33.5908 28.4686C33.7593 28.9508 34.0887 29.3709 34.5314 29.668C34.9723 29.9662 35.5038 30.1269 36.0494 30.1271C36.583 30.1271 37.1165 29.9731 37.5714 29.6653L41.9798 26.6822C42.0803 26.6142 42.1865 26.6145 42.2866 26.6822L46.695 29.6653C47.1358 29.9649 47.6681 30.1267 48.2146 30.1271C48.7612 30.1276 49.2937 29.9667 49.7352 29.6679C50.1779 29.3707 50.5072 28.9506 50.6755 28.4683C50.8438 27.986 50.8425 27.4666 50.6716 26.9851L48.9754 22.1742C48.9368 22.0646 48.9696 21.971 49.0702 21.9034L53.4908 18.9361C53.9342 18.6397 54.2646 18.2202 54.434 17.7382C54.6033 17.2562 54.603 16.7366 54.433 16.2548C54.2655 15.7731 53.9373 15.3532 53.4959 15.0557C53.0545 14.7582 52.5226 14.5985 51.977 14.5995H51.9719L46.5151 14.6092H46.5144C46.3904 14.6092 46.3051 14.5514 46.2669 14.4418L44.5906 9.62482C44.4238 9.14202 44.0957 8.72097 43.6538 8.42258C43.2119 8.1242 42.6792 7.96395 42.1327 7.96503C41.5862 7.9641 41.0535 8.1244 40.6118 8.42277C40.17 8.72114 39.8419 9.14211 39.675 9.62482L37.999 14.4418C37.9606 14.5513 37.875 14.6092 37.7512 14.6092H37.7505L32.2938 14.5995L32.2895 14.5993ZM37.7518 16.7633C38.8765 16.7633 39.8637 16.0969 40.2096 15.1037L41.8858 10.2867C41.9239 10.1772 42.0097 10.1192 42.1335 10.1192C42.2575 10.1192 42.3431 10.177 42.3813 10.2864L44.0576 15.1034C44.2242 15.5863 44.5522 16.0075 44.9941 16.3059C45.4359 16.6044 45.9687 16.7646 46.5153 16.7635H46.5204L51.9771 16.7538H51.9779C52.1015 16.7538 52.1869 16.8115 52.2252 16.9207C52.2635 17.03 52.2307 17.1235 52.1303 17.1909L47.7098 20.1583C47.2655 20.455 46.9347 20.8753 46.7655 21.3583C46.5963 21.8413 46.5975 22.3617 46.769 22.844L48.4651 27.6547C48.5038 27.7641 48.471 27.8577 48.3709 27.9253C48.2707 27.993 48.1645 27.9926 48.0643 27.925L43.656 24.942C43.2145 24.6419 42.6814 24.48 42.134 24.48C41.5866 24.48 41.0534 24.6419 40.6119 24.942L36.2034 27.9251C36.1034 27.993 35.9972 27.9929 35.8969 27.9253C35.7968 27.8577 35.764 27.7641 35.8026 27.6549L37.4988 22.844C37.6701 22.3617 37.6713 21.8414 37.5022 21.3585C37.3331 20.8756 37.0025 20.4552 36.5583 20.1584L32.1377 17.1909C32.0372 17.1236 32.0043 17.03 32.0427 16.9204C32.0811 16.8113 32.1665 16.7536 32.2901 16.7536H32.2908L37.7474 16.7633H37.7518ZM40.9723 5.09797V1.15423C40.9723 0.868572 41.0946 0.594611 41.3124 0.392619C41.5301 0.190626 41.8254 0.0771484 42.1334 0.0771484C42.4413 0.0771484 42.7367 0.190626 42.9544 0.392619C43.1722 0.594611 43.2945 0.868572 43.2945 1.15423V5.09797C43.2945 5.38363 43.1722 5.65759 42.9544 5.85959C42.7367 6.06158 42.4413 6.17506 42.1334 6.17506C41.8254 6.17506 41.5301 6.06158 41.3124 5.85959C41.0946 5.65759 40.9723 5.38363 40.9723 5.09797ZM51.9456 9.94525C51.7279 9.74326 51.6056 9.46932 51.6056 9.18369C51.6056 8.89805 51.7279 8.62411 51.9456 8.42212L54.9519 5.63342C55.0595 5.5324 55.1875 5.45211 55.3287 5.39717C55.4698 5.34223 55.6213 5.31372 55.7744 5.31328C55.9274 5.31284 56.0791 5.34049 56.2206 5.39462C56.3621 5.44875 56.4907 5.52831 56.5989 5.62871C56.7072 5.72911 56.7929 5.84838 56.8513 5.97964C56.9097 6.11091 56.9395 6.25159 56.939 6.39358C56.9386 6.53557 56.9079 6.67608 56.8487 6.80702C56.7894 6.93796 56.7029 7.05675 56.594 7.15655L53.5877 9.94525C53.48 10.0454 53.3521 10.1248 53.2111 10.179C53.0702 10.2331 52.9192 10.2609 52.7667 10.2607C52.6142 10.2609 52.4631 10.2332 52.3222 10.179C52.1813 10.1249 52.0533 10.0454 51.9456 9.94525ZM27.673 7.15668C27.5642 7.05688 27.4776 6.9381 27.4184 6.80716C27.3592 6.67622 27.3285 6.53571 27.328 6.39372C27.3276 6.25172 27.3574 6.11104 27.4157 5.97978C27.4741 5.84851 27.5599 5.72925 27.6681 5.62885C27.7764 5.52845 27.9049 5.44889 28.0465 5.39476C28.188 5.34062 28.3396 5.31298 28.4927 5.31342C28.6458 5.31385 28.7972 5.34236 28.9384 5.3973C29.0795 5.45225 29.2076 5.53253 29.3151 5.63355L32.3214 8.42226C32.4303 8.52205 32.5168 8.64084 32.5761 8.77178C32.6353 8.90272 32.666 9.04323 32.6665 9.18522C32.6669 9.32722 32.6371 9.46789 32.5787 9.59916C32.5204 9.73043 32.4346 9.84969 32.3263 9.95009C32.2181 10.0505 32.0895 10.13 31.948 10.1842C31.8065 10.2383 31.6548 10.266 31.5018 10.2655C31.3487 10.2651 31.1972 10.2366 31.0561 10.1816C30.9149 10.1267 30.7869 10.0464 30.6793 9.94539L27.673 7.15668ZM72.0369 26.0813C71.8904 25.6596 71.6032 25.2919 71.2167 25.0314C70.8303 24.7708 70.3647 24.6309 69.887 24.6318H69.8822L65.7038 24.6392L64.4203 20.9506C64.2743 20.5279 63.987 20.1593 63.6002 19.8981C63.2133 19.6368 62.7469 19.4965 62.2684 19.4975C61.7899 19.4966 61.3236 19.6369 60.9367 19.8982C60.5499 20.1594 60.2627 20.528 60.1167 20.9506L58.8331 24.6392L54.6548 24.6318H54.6502C54.1724 24.631 53.7068 24.7709 53.3203 25.0314C52.9338 25.2919 52.6466 25.6596 52.4999 26.0813C52.3512 26.5032 52.3509 26.958 52.4992 27.3799C52.6475 27.8019 52.9367 28.1692 53.3249 28.4287L56.71 30.7009L55.4113 34.3848C55.2616 34.8064 55.2603 35.2612 55.4077 35.6835C55.5551 36.1058 55.8435 36.4736 56.2312 36.7338C56.6172 36.9949 57.0826 37.1357 57.5603 37.1358C58.0275 37.1358 58.4947 37.001 58.893 36.7315L62.2686 34.4473L65.6444 36.7315C66.0304 36.9938 66.4964 37.1354 66.9749 37.1359C67.4534 37.1363 67.9196 36.9955 68.3061 36.7338C68.6937 36.4736 68.9821 36.1058 69.1294 35.6835C69.2768 35.2613 69.2756 34.8065 69.126 34.3849L67.8273 30.701L71.2122 28.4288C71.6004 28.1693 71.8895 27.802 72.0378 27.38C72.186 26.958 72.1857 26.5031 72.0369 26.0813ZM66.4298 28.9799C66.0407 29.2396 65.7511 29.6076 65.603 30.0305C65.4548 30.4533 65.4559 30.909 65.606 31.3313L66.8598 34.8878L63.601 32.6826C63.2145 32.4198 62.7477 32.2781 62.2684 32.2781C61.7892 32.2781 61.3224 32.4198 60.9358 32.6826L57.677 34.8878L58.9309 31.3311C59.0809 30.9089 59.0819 30.4533 58.9338 30.0306C58.7856 29.6078 58.4961 29.2398 58.1072 28.98L54.8391 26.7864L58.873 26.7935H58.8773C59.8619 26.7935 60.7264 26.21 61.0292 25.3404L62.2684 21.7794L63.5074 25.3405C63.6534 25.7633 63.9406 26.1319 64.3275 26.3931C64.7143 26.6544 65.1807 26.7947 65.6592 26.7937H65.6636L69.6974 26.7865L66.4298 28.9799ZM12.9831 28.4287L16.3682 30.7009L15.0695 34.3848C14.9198 34.8064 14.9185 35.2612 15.0659 35.6835C15.2133 36.1058 15.5017 36.4736 15.8894 36.7338C16.2754 36.995 16.7408 37.1358 17.2185 37.1359C17.6858 37.1359 18.1528 37.0012 18.5511 36.7315L21.9269 34.4473L25.3026 36.7315C25.6886 36.9938 26.1546 37.1354 26.6331 37.1359C27.1116 37.1363 27.5778 36.9955 27.9643 36.7338C28.3519 36.4736 28.6403 36.1058 28.7877 35.6835C28.935 35.2613 28.9338 34.8065 28.7842 34.3849L27.4855 30.701L30.8705 28.4288C31.2587 28.1693 31.5479 27.802 31.6962 27.38C31.8445 26.9579 31.8443 26.5031 31.6956 26.0812C31.5488 25.6595 31.2616 25.292 30.8751 25.0315C30.4887 24.7711 30.0231 24.6311 29.5455 24.632H29.5407L25.3623 24.6394L24.0788 20.9508C23.9328 20.5281 23.6455 20.1594 23.2587 19.8982C22.8718 19.637 22.4054 19.4967 21.9269 19.4976C21.4484 19.4968 20.9821 19.6371 20.5952 19.8983C20.2084 20.1595 19.9212 20.5281 19.7752 20.9508L18.4916 24.6394L14.3134 24.632H14.3088C13.8311 24.6311 13.3654 24.771 12.9789 25.0315C12.5924 25.292 12.3051 25.6597 12.1584 26.0814C12.0096 26.5032 12.0093 26.958 12.1575 27.38C12.3058 27.802 12.5949 28.1692 12.9831 28.4287ZM18.5313 26.7935H18.5357C19.0142 26.7946 19.4807 26.6543 19.8675 26.3931C20.2544 26.1318 20.5416 25.7631 20.6875 25.3404L21.9267 21.7794L23.1658 25.3405C23.3118 25.7633 23.599 26.1319 23.9858 26.3931C24.3727 26.6544 24.8391 26.7947 25.3176 26.7937H25.3219L29.3558 26.7865L26.0877 28.9801C25.6988 29.2399 25.4092 29.6079 25.2611 30.0308C25.113 30.4536 25.1141 30.9092 25.2642 31.3314L26.518 34.8879L23.2592 32.6828C22.8607 32.4131 22.3936 32.2782 21.9266 32.2782C21.4595 32.2782 20.9925 32.4131 20.5939 32.6828L17.3351 34.8879L18.589 31.3314C18.7389 30.9092 18.7399 30.4536 18.5918 30.0308C18.4437 29.608 18.1542 29.24 17.7653 28.9803L14.4972 26.7867L18.5313 26.7935Z" fill="url(#paint0_linear_2531_1216)"/>
<defs>
<linearGradient id="paint0_linear_2531_1216" x1="24.1473" y1="0.0771479" x2="70.3702" y2="9.28389" gradientUnits="userSpaceOnUse">
<stop stop-color="#C3942F"/>
<stop offset="0.234" stop-color="#D89C27"/>
<stop offset="0.449" stop-color="#E7DC96"/>
<stop offset="0.669" stop-color="#DFC86F"/>
<stop offset="0.849" stop-color="#D89C27"/>
<stop offset="1" stop-color="#C99C30"/>
</linearGradient>
</defs>
</svg>
