<svg width="44" height="44" viewBox="0 0 44 44" fill="none" xmlns="http://www.w3.org/2000/svg">
<path d="M11.2204 1.11719C9.95794 1.11719 8.9688 1.85255 8.9688 2.79134V4.63246H4.84268C4.11852 4.6333 3.42427 4.92135 2.91222 5.43341C2.40017 5.94548 2.11215 6.63974 2.11133 7.3639V40.1539C2.11249 40.8777 2.4007 41.5715 2.91275 42.0831C3.4248 42.5947 4.11886 42.8823 4.84268 42.8828H39.1601C39.8836 42.882 40.5773 42.5942 41.0889 42.0826C41.6005 41.571 41.8882 40.8774 41.889 40.1539V7.3639C41.8885 6.64006 41.601 5.94598 41.0894 5.43391C40.5778 4.92185 39.8839 4.63362 39.1601 4.63246H35.0314V2.79134C35.0314 1.85255 34.0431 1.11719 32.7823 1.11719C31.5198 1.11719 30.5308 1.85255 30.5308 2.79134V4.63246H24.2518V2.79134C24.2518 1.85255 23.2627 1.11719 22.0002 1.11719C20.7377 1.11719 19.7486 1.85255 19.7486 2.79134V4.63246H13.4718V2.79134C13.4718 1.85255 12.4829 1.11719 11.2204 1.11719ZM10.3438 2.80156C10.3854 2.7115 10.7014 2.49219 11.2204 2.49219C11.7393 2.49219 12.0552 2.7115 12.0969 2.80156V4.63246H10.3438V2.80156ZM3.48598 13.2258H40.514V33.6832H35.3892C35.2069 33.6832 35.032 33.7556 34.9031 33.8846C34.7742 34.0135 34.7017 34.1884 34.7017 34.3707V39.4958H4.84268C4.48301 39.4954 4.13819 39.3523 3.8839 39.0979C3.62961 38.8436 3.48662 38.4987 3.48633 38.1391L3.48598 13.2258ZM39.5415 35.0582L36.0767 38.5233V35.058L39.5415 35.0582ZM39.1601 41.5078H4.84268C4.55092 41.5076 4.26697 41.4135 4.03286 41.2394C3.79875 41.0653 3.62691 40.8204 3.54279 40.541C3.94171 40.7578 4.38864 40.8711 4.84268 40.8706H35.3892C35.5716 40.8705 35.7465 40.7981 35.8755 40.6692L40.5143 36.0303V40.1539C40.5139 40.5129 40.3711 40.8571 40.1172 41.1109C39.8633 41.3647 39.5191 41.5075 39.1601 41.5078ZM31.9059 2.80156C31.9468 2.71176 32.2624 2.49262 32.7824 2.49262C33.301 2.49262 33.616 2.71176 33.6565 2.80148V4.63246H31.9059L31.9059 2.80156ZM21.1236 2.80156C21.1653 2.71159 21.4812 2.49219 22.0002 2.49219C22.5192 2.49219 22.835 2.7115 22.8768 2.80156V4.63246H21.1236V2.80156ZM22.0002 8.92117C22.1825 8.92117 22.3574 8.84874 22.4863 8.71981C22.6153 8.59088 22.6877 8.41601 22.6877 8.23367C22.6877 8.05134 22.6153 7.87647 22.4863 7.74754C22.3574 7.6186 22.1825 7.54617 22.0002 7.54617C21.4832 7.54617 21.1666 7.32652 21.1236 7.23594V6.00746H30.5309V7.24694C30.5309 8.18572 31.5198 8.92109 32.7824 8.92109C32.9648 8.92109 33.1396 8.84865 33.2686 8.71972C33.3975 8.59079 33.4699 8.41592 33.4699 8.23359C33.4699 8.05125 33.3975 7.87638 33.2686 7.74745C33.1396 7.61852 32.9648 7.54609 32.7824 7.54609C32.2643 7.54609 31.9481 7.3266 31.9059 7.23628V6.00737H39.1601C39.5194 6.0081 39.8637 6.15133 40.1176 6.40562C40.3714 6.65992 40.514 7.00452 40.514 7.36381V11.8508H3.48633V7.3639C3.48669 7.00428 3.62971 6.65948 3.88399 6.40518C4.13828 6.15088 4.48306 6.00785 4.84268 6.00746H8.96897V7.24694C8.96897 8.18572 9.95794 8.92109 11.2205 8.92109C11.4029 8.92109 11.5777 8.84865 11.7067 8.71972C11.8356 8.59079 11.908 8.41592 11.908 8.23359C11.908 8.05125 11.8356 7.87638 11.7067 7.74745C11.5777 7.61852 11.4029 7.54609 11.2205 7.54609C10.7035 7.54609 10.3869 7.32643 10.344 7.23585V6.00746H19.7486V7.24694C19.7486 8.18572 20.7377 8.92117 22.0002 8.92117ZM16.2778 21.4037H19.776C19.9584 21.4037 20.1332 21.3312 20.2622 21.2023C20.3911 21.0734 20.4635 20.8985 20.4635 20.7162V17.6296C20.4635 17.4473 20.3911 17.2724 20.2622 17.1435C20.1332 17.0146 19.9584 16.9421 19.776 16.9421H16.2778C16.0954 16.9421 15.9206 17.0146 15.7916 17.1435C15.6627 17.2724 15.5903 17.4473 15.5903 17.6296V20.7162C15.5903 20.8985 15.6627 21.0734 15.7916 21.2023C15.9206 21.3312 16.0954 21.4037 16.2778 21.4037ZM16.9653 18.3171H19.0885V20.0287H16.9653V18.3171ZM24.2243 21.4037H27.7225C27.9048 21.4037 28.0797 21.3312 28.2086 21.2023C28.3376 21.0734 28.41 20.8985 28.41 20.7162V17.6296C28.41 17.4473 28.3376 17.2724 28.2086 17.1435C28.0797 17.0146 27.9048 16.9421 27.7225 16.9421H24.2243C24.042 16.9421 23.8671 17.0146 23.7382 17.1435C23.6093 17.2724 23.5368 17.4473 23.5368 17.6296V20.7162C23.5368 20.8985 23.6093 21.0734 23.7382 21.2023C23.8671 21.3312 24.042 21.4037 24.2243 21.4037ZM24.9118 18.3171H27.035V20.0287H24.9118V18.3171ZM8.33123 28.9556H11.8318C12.0141 28.9556 12.189 28.8832 12.3179 28.7542C12.4469 28.6253 12.5193 28.4504 12.5193 28.2681V25.184C12.5193 25.0016 12.4469 24.8268 12.3179 24.6978C12.189 24.5689 12.0141 24.4965 11.8318 24.4965H8.33123C8.14889 24.4965 7.97402 24.5689 7.84509 24.6978C7.71616 24.8268 7.64373 25.0016 7.64373 25.184V28.2681C7.64373 28.4504 7.71616 28.6253 7.84509 28.7542C7.97402 28.8832 8.14889 28.9556 8.33123 28.9556ZM9.01873 25.8715H11.1443V27.5806H9.01873V25.8715ZM16.2778 28.9556H19.776C19.9584 28.9556 20.1332 28.8832 20.2622 28.7542C20.3911 28.6253 20.4635 28.4504 20.4635 28.2681V25.184C20.4635 25.0016 20.3911 24.8268 20.2622 24.6978C20.1332 24.5689 19.9584 24.4965 19.776 24.4965H16.2778C16.0954 24.4965 15.9206 24.5689 15.7916 24.6978C15.6627 24.8268 15.5903 25.0016 15.5903 25.184V28.2681C15.5903 28.4504 15.6627 28.6253 15.7916 28.7542C15.9206 28.8832 16.0954 28.9556 16.2778 28.9556ZM16.9653 25.8715H19.0885V27.5806H16.9653V25.8715ZM24.2243 28.9556H27.7225C27.9048 28.9556 28.0797 28.8832 28.2086 28.7542C28.3376 28.6253 28.41 28.4504 28.41 28.2681V25.184C28.41 25.0016 28.3376 24.8268 28.2086 24.6978C28.0797 24.5689 27.9048 24.4965 27.7225 24.4965H24.2243C24.042 24.4965 23.8671 24.5689 23.7382 24.6978C23.6093 24.8268 23.5368 25.0016 23.5368 25.184V28.2681C23.5368 28.4504 23.6093 28.6253 23.7382 28.7542C23.8671 28.8832 24.042 28.9556 24.2243 28.9556ZM24.9118 25.8715H27.035V27.5806H24.9118V25.8715ZM8.33123 36.5075H11.8318C12.0141 36.5075 12.189 36.4351 12.3179 36.3062C12.4469 36.1772 12.5193 36.0024 12.5193 35.82V32.7359C12.5193 32.5536 12.4469 32.3787 12.3179 32.2498C12.189 32.1208 12.0141 32.0484 11.8318 32.0484H8.33123C8.14889 32.0484 7.97402 32.1208 7.84509 32.2498C7.71616 32.3787 7.64373 32.5536 7.64373 32.7359V35.82C7.64373 36.0024 7.71616 36.1772 7.84509 36.3062C7.97402 36.4351 8.14889 36.5075 8.33123 36.5075ZM9.01873 33.4234H11.1443V35.1325H9.01873V33.4234ZM16.2778 36.5075H19.776C19.9584 36.5075 20.1332 36.4351 20.2622 36.3062C20.3911 36.1772 20.4635 36.0024 20.4635 35.82V32.7359C20.4635 32.5536 20.3911 32.3787 20.2622 32.2498C20.1332 32.1208 19.9584 32.0484 19.776 32.0484H16.2778C16.0954 32.0484 15.9206 32.1208 15.7916 32.2498C15.6627 32.3787 15.5903 32.5536 15.5903 32.7359V35.82C15.5903 36.0024 15.6627 36.1772 15.7916 36.3062C15.9206 36.4351 16.0954 36.5075 16.2778 36.5075ZM16.9653 33.4234H19.0885V35.1325H16.9653V33.4234ZM8.33123 21.4037H11.8318C12.0141 21.4037 12.189 21.3312 12.3179 21.2023C12.4469 21.0734 12.5193 20.8985 12.5193 20.7162V17.6296C12.5193 17.4473 12.4469 17.2724 12.3179 17.1435C12.189 17.0146 12.0141 16.9421 11.8318 16.9421H8.33123C8.14889 16.9421 7.97402 17.0146 7.84509 17.1435C7.71616 17.2724 7.64373 17.4473 7.64373 17.6296V20.7162C7.64373 20.8985 7.71616 21.0734 7.84509 21.2023C7.97402 21.3312 8.14889 21.4037 8.33123 21.4037ZM9.01873 18.3171H11.1443V20.0287H9.01873V18.3171ZM35.6691 24.4965H32.1709C31.9886 24.4965 31.8137 24.5689 31.6848 24.6978C31.5558 24.8268 31.4834 25.0016 31.4834 25.184V28.2681C31.4834 28.4504 31.5558 28.6253 31.6848 28.7542C31.8137 28.8832 31.9886 28.9556 32.1709 28.9556H35.6691C35.8515 28.9556 36.0264 28.8832 36.1553 28.7542C36.2842 28.6253 36.3566 28.4504 36.3566 28.2681V25.184C36.3566 25.0016 36.2842 24.8268 36.1553 24.6978C36.0264 24.5689 35.8515 24.4965 35.6691 24.4965ZM34.9816 27.5806H32.8584V25.8715H34.9816V27.5806ZM24.2243 36.5075H27.7225C27.9048 36.5075 28.0797 36.4351 28.2086 36.3062C28.3376 36.1772 28.41 36.0024 28.41 35.82V32.7359C28.41 32.5536 28.3376 32.3787 28.2086 32.2498C28.0797 32.1208 27.9048 32.0484 27.7225 32.0484H24.2243C24.042 32.0484 23.8671 32.1208 23.7382 32.2498C23.6093 32.3787 23.5368 32.5536 23.5368 32.7359V35.82C23.5368 36.0024 23.6093 36.1772 23.7382 36.3062C23.8671 36.4351 24.042 36.5075 24.2243 36.5075ZM24.9118 33.4234H27.035V35.1325H24.9118V33.4234ZM31.5892 19.6059C31.5246 19.5424 31.4732 19.4667 31.4379 19.3833C31.4027 19.2999 31.3842 19.2103 31.3837 19.1197C31.3832 19.0291 31.4005 18.9394 31.4348 18.8555C31.4691 18.7717 31.5196 18.6954 31.5834 18.6312C31.6472 18.5669 31.7231 18.5159 31.8067 18.481C31.8903 18.4462 31.98 18.4282 32.0706 18.4282C32.1612 18.4281 32.2509 18.4459 32.3345 18.4806C32.4182 18.5153 32.4942 18.5662 32.5581 18.6303L33.4428 19.5088L35.242 17.3828C35.3597 17.2436 35.528 17.1569 35.7097 17.1418C35.8914 17.1267 36.0717 17.1844 36.2109 17.3021C36.3501 17.4199 36.4368 17.5882 36.4519 17.7699C36.4671 17.9516 36.4094 18.1319 36.2916 18.2711L34.0114 20.9654C33.9501 21.0379 33.8743 21.0969 33.789 21.1387C33.7037 21.1805 33.6107 21.2041 33.5158 21.2082C33.5059 21.2082 33.496 21.2088 33.4862 21.2088C33.3046 21.2088 33.1304 21.137 33.0016 21.0091L31.5892 19.6059Z" fill="url(#paint0_linear_931_20712)"/>
<defs>
<linearGradient id="paint0_linear_931_20712" x1="41.889" y1="1.11719" x2="-3.90245" y2="9.32281" gradientUnits="userSpaceOnUse">
<stop stop-color="#DCAD81"/>
<stop offset="0.25" stop-color="#D8A97C"/>
<stop offset="0.5" stop-color="#FFD2A4"/>
<stop offset="0.75" stop-color="#D8A97C"/>
<stop offset="1" stop-color="#DCAD81"/>
</linearGradient>
</defs>
</svg>
