<svg width="44" height="44" viewBox="0 0 44 44" fill="none" xmlns="http://www.w3.org/2000/svg">
<path d="M31.38 28.6781L24.7341 32.549C24.4799 32.6971 24.2223 32.811 23.9568 32.8917C24.0409 32.7218 24.1078 32.544 24.1564 32.3607C24.5095 31.0424 23.7276 29.6666 22.3763 29.2285C22.3468 29.219 22.3168 29.2115 22.2863 29.2059C20.3846 28.863 18.5038 28.183 16.9926 27.6367C16.4654 27.4461 15.9674 27.2661 15.5431 27.1285C13.805 26.5647 12.2431 27.2574 10.9441 28.0094L6.08519 30.8225L5.66771 30.0848C5.21516 29.2854 4.19654 29.0031 3.39724 29.4555L1.53265 30.5108C0.733177 30.9632 0.450787 31.9817 0.903334 32.7813L6.38537 42.4678C6.60408 42.8541 6.96098 43.1325 7.39058 43.2516C7.53917 43.2927 7.6899 43.3131 7.83986 43.3131C8.12337 43.3131 8.40319 43.2401 8.65584 43.0971L10.5205 42.0417C11.32 41.5892 11.6023 40.5707 11.1497 39.7714L10.6323 38.8571L11.6404 38.2751L20.1132 40.5453C20.5914 40.6735 21.0673 40.7371 21.5353 40.7371C22.4821 40.7371 23.3968 40.4764 24.233 39.9616L36.2937 32.5352C37.4362 31.8317 37.8005 30.0621 37.0581 28.8225C36.6985 28.2222 35.2263 26.4381 31.38 28.6781ZM9.84324 40.8451L7.97857 41.9005C7.8415 41.9781 7.65974 41.928 7.58197 41.7906L2.10001 32.1042C2.02233 31.9669 2.0726 31.7853 2.20984 31.7076L4.07451 30.6523C4.11737 30.6281 4.16575 30.6155 4.21494 30.6157C4.31729 30.6157 4.41826 30.6689 4.47111 30.7623L9.95315 40.4487C10.0308 40.5858 9.98057 40.7675 9.84324 40.8451ZM35.5728 31.3644L23.5122 38.7908C22.5794 39.365 21.5555 39.5084 20.4692 39.2171L11.7212 36.8731C11.634 36.8498 11.5431 36.8438 11.4536 36.8556C11.3641 36.8673 11.2778 36.8966 11.1996 36.9418L9.95513 37.6602L6.76264 32.0192L11.6333 29.1992C12.7221 28.5688 13.8983 28.0403 15.1191 28.4363C15.5218 28.5668 15.9868 28.735 16.5253 28.9297C18.0721 29.4888 19.994 30.1837 21.9919 30.5498C22.6331 30.7775 22.9915 31.396 22.8283 32.0048C22.6134 32.8067 21.939 32.9062 21.4011 32.8452C20.4281 32.6448 19.5015 32.3804 18.5211 32.1005C18.0539 31.967 17.5708 31.8291 17.0739 31.6959C16.8978 31.6487 16.7102 31.6734 16.5522 31.7646C16.3943 31.8558 16.2791 32.0059 16.2319 32.182C16.1847 32.3582 16.2094 32.5458 16.3006 32.7037C16.3918 32.8616 16.5419 32.9769 16.7181 33.0241C17.204 33.1543 17.6817 33.2906 18.1435 33.4226C19.1597 33.7128 20.1196 33.9869 21.1549 34.1986C21.1594 34.1995 21.1638 34.1998 21.1683 34.2006C21.173 34.2015 21.1775 34.2029 21.1823 34.2036L22.0089 34.338C23.2686 34.5394 24.3861 34.3429 25.4262 33.7371L32.0721 29.8662C33.9329 28.7825 35.3558 28.6563 35.8784 29.5289C36.2354 30.1251 36.0812 31.0514 35.5728 31.3644ZM4.56736 32.4379C4.58031 32.5245 4.57603 32.6129 4.55476 32.6979C4.5335 32.7828 4.49567 32.8628 4.44344 32.9331C4.39122 33.0035 4.32563 33.0628 4.25043 33.1077C4.17522 33.1527 4.09189 33.1823 4.00521 33.195C3.91852 33.2077 3.83019 33.2031 3.74527 33.1816C3.66036 33.1601 3.58052 33.122 3.51035 33.0695C3.44018 33.0171 3.38105 32.9513 3.33635 32.876C3.29165 32.8006 3.26225 32.7172 3.24986 32.6305C3.22492 32.456 3.27015 32.2788 3.37564 32.1377C3.48113 31.9966 3.63827 31.903 3.81262 31.8775C3.98697 31.852 4.16432 31.8967 4.30579 32.0017C4.44727 32.1068 4.54133 32.2636 4.56736 32.4379ZM19.7114 9.95698C19.3884 9.95633 19.0734 10.0583 18.8121 10.2482C18.5507 10.4381 18.3564 10.7061 18.2572 11.0136C18.1566 11.3211 18.1564 11.6527 18.2566 11.9604C18.3569 12.2681 18.5525 12.5359 18.815 12.725L21.4325 14.6191C21.4921 14.6622 21.5116 14.722 21.4886 14.792L20.4842 17.863C20.383 18.1703 20.3823 18.5019 20.482 18.8097C20.5817 19.1175 20.7768 19.3856 21.0389 19.5753C21.3 19.7656 21.6147 19.8682 21.9377 19.8683C22.2536 19.8683 22.5696 19.77 22.8389 19.5736L25.4491 17.6694C25.5086 17.626 25.5715 17.6262 25.6308 17.6694L28.241 19.5736C28.5021 19.7648 28.8172 19.868 29.1408 19.8683C29.4644 19.8686 29.7797 19.766 30.0411 19.5752C30.3032 19.3855 30.4982 19.1173 30.5979 18.8095C30.6976 18.5017 30.6968 18.1701 30.5956 17.8628L29.5912 14.792C29.5684 14.722 29.5878 14.6623 29.6474 14.6192L32.2649 12.7251C32.5274 12.536 32.723 12.2682 32.8233 11.9605C32.9236 11.6528 32.9234 11.3212 32.8228 11.0137C32.7235 10.7062 32.5292 10.4382 32.2679 10.2483C32.0065 10.0584 31.6916 9.95642 31.3685 9.95706H31.3655L28.1345 9.96325H28.1341C28.0607 9.96325 28.0102 9.92638 27.9876 9.85643L26.995 6.78176C26.8962 6.47359 26.702 6.20483 26.4403 6.01437C26.1787 5.82392 25.8633 5.72163 25.5396 5.72232C25.2161 5.72172 24.9007 5.82404 24.6391 6.01449C24.3775 6.20494 24.1833 6.47364 24.0845 6.78176L23.0921 9.85643C23.0694 9.9263 23.0187 9.96325 22.9454 9.96325H22.9449L19.714 9.95706L19.7114 9.95698ZM22.9457 11.3383C23.6116 11.3383 24.1962 10.9129 24.401 10.2789L25.3935 7.20423C25.4161 7.13436 25.4668 7.09732 25.5402 7.09732C25.6135 7.09732 25.6642 7.13419 25.6868 7.20405L26.6794 10.2787C26.7781 10.587 26.9723 10.8558 27.2339 11.0463C27.4955 11.2368 27.811 11.3391 28.1346 11.3383H28.1376L31.3686 11.3321H31.369C31.4423 11.3321 31.4928 11.369 31.5155 11.4387C31.5382 11.5085 31.5187 11.5681 31.4593 11.6112L28.8419 13.5052C28.5788 13.6946 28.383 13.9629 28.2828 14.2712C28.1826 14.5795 28.1833 14.9117 28.2848 15.2195L29.2891 18.2902C29.312 18.36 29.2926 18.4198 29.2333 18.4629C29.174 18.5061 29.1111 18.5059 29.0518 18.4627L26.4416 16.5587C26.1802 16.3671 25.8645 16.2638 25.5404 16.2638C25.2163 16.2638 24.9006 16.3671 24.6392 16.5587L22.0289 18.4628C21.9697 18.5061 21.9068 18.506 21.8474 18.4629C21.7881 18.4198 21.7687 18.36 21.7916 18.2903L22.7959 15.2195C22.8974 14.9117 22.8981 14.5796 22.7979 14.2713C22.6978 13.9631 22.502 13.6948 22.239 13.5053L19.6216 11.6112C19.5621 11.5682 19.5426 11.5085 19.5653 11.4385C19.588 11.3688 19.6387 11.3321 19.7118 11.3321H19.7122L22.9431 11.3383H22.9457ZM24.8526 3.89228V1.375C24.8526 1.19266 24.925 1.0178 25.0539 0.888864C25.1829 0.759933 25.3577 0.6875 25.5401 0.6875C25.7224 0.6875 25.8973 0.759933 26.0262 0.888864C26.1551 1.0178 26.2276 1.19266 26.2276 1.375V3.89228C26.2276 4.07462 26.1551 4.24949 26.0262 4.37842C25.8973 4.50735 25.7224 4.57978 25.5401 4.57978C25.3577 4.57978 25.1829 4.50735 25.0539 4.37842C24.925 4.24949 24.8526 4.07462 24.8526 3.89228ZM31.35 6.98629C31.221 6.85736 31.1486 6.6825 31.1486 6.50018C31.1486 6.31786 31.221 6.14301 31.35 6.01408L33.13 4.23405C33.1937 4.16958 33.2695 4.11833 33.3531 4.08326C33.4366 4.04819 33.5263 4.02999 33.617 4.02971C33.7076 4.02943 33.7974 4.04708 33.8812 4.08163C33.965 4.11618 34.0411 4.16697 34.1052 4.23105C34.1693 4.29514 34.2201 4.37126 34.2546 4.45505C34.2892 4.53884 34.3069 4.62863 34.3066 4.71926C34.3063 4.8099 34.2881 4.89959 34.2531 4.98316C34.218 5.06674 34.1668 5.14256 34.1023 5.20627L32.3223 6.98629C32.2585 7.05022 32.1827 7.10092 32.0993 7.13547C32.0158 7.17003 31.9264 7.18776 31.8361 7.18764C31.7458 7.18778 31.6564 7.17007 31.5729 7.13551C31.4895 7.10096 31.4137 7.05024 31.35 6.98629ZM16.978 5.20635C16.9136 5.14265 16.8623 5.06683 16.8273 4.98325C16.7922 4.89967 16.774 4.80999 16.7737 4.71935C16.7735 4.62872 16.7911 4.53892 16.8257 4.45514C16.8602 4.37135 16.911 4.29522 16.9751 4.23114C17.0392 4.16705 17.1153 4.11627 17.1991 4.08172C17.2829 4.04716 17.3727 4.02952 17.4633 4.0298C17.554 4.03008 17.6437 4.04827 17.7272 4.08334C17.8108 4.11841 17.8866 4.16966 17.9503 4.23414L19.7304 6.01416C19.7948 6.07787 19.8461 6.15369 19.8811 6.23726C19.9162 6.32084 19.9344 6.41053 19.9346 6.50116C19.9349 6.5918 19.9173 6.68159 19.8827 6.76538C19.8481 6.84917 19.7974 6.92529 19.7333 6.98938C19.6692 7.05346 19.593 7.10424 19.5093 7.1388C19.4255 7.17335 19.3357 7.191 19.245 7.19072C19.1544 7.19044 19.0647 7.17224 18.9811 7.13717C18.8976 7.1021 18.8217 7.05085 18.7581 6.98637L16.978 5.20635ZM43.2461 17.2859C43.1593 17.0167 42.9893 16.782 42.7605 16.6157C42.5317 16.4494 42.256 16.3601 41.9731 16.3607H41.9703L39.4962 16.3654L38.7363 14.011C38.6498 13.7412 38.4797 13.5059 38.2507 13.3391C38.0216 13.1724 37.7454 13.0829 37.4621 13.0835C37.1788 13.0829 36.9027 13.1725 36.6736 13.3392C36.4446 13.506 36.2746 13.7412 36.1881 14.011L35.428 16.3654L32.9541 16.3607H32.9513C32.6685 16.3601 32.3927 16.4495 32.1639 16.6157C31.9351 16.782 31.765 17.0167 31.6782 17.2859C31.5901 17.5552 31.5899 17.8455 31.6777 18.1148C31.7656 18.3842 31.9368 18.6186 32.1666 18.7842L34.1709 20.2346L33.402 22.586C33.3133 22.8551 33.3126 23.1454 33.3999 23.415C33.4871 23.6845 33.6579 23.9193 33.8874 24.0854C34.116 24.252 34.3916 24.3419 34.6744 24.342C34.9511 24.342 35.2277 24.2559 35.4635 24.0839L37.4623 22.6259L39.4611 24.0839C39.6896 24.2513 39.9655 24.3417 40.2488 24.342C40.5322 24.3423 40.8082 24.2524 41.0371 24.0854C41.2666 23.9193 41.4373 23.6845 41.5246 23.415C41.6118 23.1455 41.6111 22.8552 41.5226 22.5861L40.7536 20.2347L42.7578 18.7843C42.9876 18.6187 43.1588 18.3842 43.2466 18.1148C43.3344 17.8455 43.3342 17.5552 43.2461 17.2859ZM39.9261 19.136C39.6957 19.3018 39.5242 19.5367 39.4365 19.8067C39.3488 20.0766 39.3494 20.3674 39.4383 20.6369L40.1807 22.9071L38.2512 21.4995C38.0223 21.3317 37.7459 21.2413 37.4621 21.2413C37.1784 21.2413 36.902 21.3317 36.6731 21.4995L34.7435 22.9071L35.486 20.6369C35.5748 20.3674 35.5754 20.0766 35.4877 19.8067C35.4 19.5368 35.2285 19.3019 34.9983 19.1361L33.0632 17.736L35.4517 17.7405H35.4542C36.0372 17.7405 36.5491 17.3681 36.7284 16.813L37.4621 14.54L38.1957 16.8131C38.2822 17.0829 38.4522 17.3182 38.6813 17.4849C38.9104 17.6517 39.1865 17.7412 39.4698 17.7406H39.4724L41.8609 17.736L39.9261 19.136ZM8.28004 18.7842L10.2844 20.2346L9.51539 22.586C9.42674 22.8551 9.426 23.1454 9.51328 23.415C9.60055 23.6845 9.77131 23.9193 10.0008 24.0854C10.2294 24.2521 10.505 24.3419 10.7879 24.3421C11.0645 24.3421 11.341 24.256 11.5769 24.0839L13.5757 22.6259L15.5745 24.0839C15.803 24.2513 16.0789 24.3417 16.3623 24.342C16.6456 24.3423 16.9216 24.2524 17.1505 24.0854C17.38 23.9193 17.5507 23.6845 17.638 23.415C17.7253 23.1455 17.7246 22.8552 17.636 22.5861L16.867 20.2347L18.8712 18.7843C19.1011 18.6187 19.2723 18.3842 19.3602 18.1148C19.448 17.8454 19.4479 17.5551 19.3598 17.2858C19.2729 17.0167 19.1028 16.7821 18.874 16.6158C18.6452 16.4496 18.3695 16.3603 18.0867 16.3608H18.0839L15.6098 16.3655L14.8499 14.0111C14.7634 13.7413 14.5933 13.506 14.3642 13.3392C14.1352 13.1725 13.859 13.0829 13.5757 13.0836C13.2924 13.083 13.0163 13.1726 12.7872 13.3393C12.5582 13.506 12.3881 13.7413 12.3017 14.0111L11.5416 16.3655L9.06774 16.3608H9.06499C8.78212 16.3602 8.50638 16.4495 8.27754 16.6158C8.0487 16.7821 7.87859 17.0168 7.79174 17.286C7.70361 17.5552 7.70342 17.8455 7.7912 18.1148C7.87899 18.3842 8.05019 18.6186 8.28004 18.7842ZM11.5652 17.7405H11.5677C11.8511 17.7412 12.1273 17.6517 12.3563 17.4849C12.5854 17.3181 12.7554 17.0828 12.8419 16.813L13.5756 14.54L14.3092 16.8131C14.3957 17.0829 14.5657 17.3182 14.7948 17.4849C15.0239 17.6517 15.3 17.7412 15.5833 17.7406H15.5859L17.9744 17.736L16.0393 19.1362C15.809 19.302 15.6376 19.5369 15.5499 19.8068C15.4622 20.0767 15.4629 20.3675 15.5517 20.637L16.2941 22.9072L14.3646 21.4996C14.1286 21.3275 13.8521 21.2413 13.5755 21.2413C13.299 21.2413 13.0224 21.3275 12.7864 21.4996L10.8569 22.9072L11.5993 20.637C11.6881 20.3675 11.6887 20.0767 11.601 19.8069C11.5133 19.537 11.3419 19.3021 11.1116 19.1363L9.17654 17.7361L11.5652 17.7405Z" fill="url(#paint0_linear_931_20724)"/>
<defs>
<linearGradient id="paint0_linear_931_20724" x1="43.3123" y1="0.687505" x2="-5.60087" y2="9.89038" gradientUnits="userSpaceOnUse">
<stop stop-color="#DCAD81"/>
<stop offset="0.25" stop-color="#D8A97C"/>
<stop offset="0.5" stop-color="#FFD2A4"/>
<stop offset="0.75" stop-color="#D8A97C"/>
<stop offset="1" stop-color="#DCAD81"/>
</linearGradient>
</defs>
</svg>
