	<svg width="76" height="76" viewBox="0 0 76 76" fill="none" xmlns="http://www.w3.org/2000/svg">
	<path d="M19.7943 2.73145C17.6622 2.73145 15.9917 3.9734 15.9917 5.5589V8.66835H9.02311C7.80009 8.66977 6.62757 9.15625 5.76278 10.0211C4.89798 10.8859 4.41154 12.0584 4.41016 13.2814V68.6601C4.41212 69.8825 4.89888 71.0543 5.76367 71.9183C6.62846 72.7823 7.80065 73.2681 9.02311 73.2689H66.9814C68.2033 73.2676 69.3748 72.7815 70.2389 71.9175C71.1029 71.0535 71.5889 69.882 71.5903 68.6601V13.2814C71.5895 12.059 71.1037 10.8867 70.2397 10.0219C69.3757 9.1571 68.2039 8.67031 66.9814 8.66835H60.0085V5.5589C60.0085 3.9734 58.3394 2.73145 56.2101 2.73145C54.0778 2.73145 52.4074 3.9734 52.4074 5.5589V8.66835H41.8029V5.5589C41.8029 3.9734 40.1325 2.73145 38.0002 2.73145C35.868 2.73145 34.1976 3.9734 34.1976 5.5589V8.66835H23.5966V5.5589C23.5968 3.9734 21.9265 2.73145 19.7943 2.73145ZM18.3139 5.57617C18.3841 5.42406 18.9178 5.05367 19.7943 5.05367C20.6708 5.05367 21.2043 5.42406 21.2747 5.57617V8.66835H18.3139V5.57617ZM6.7318 23.1815H69.2681V57.7318H60.6129C60.3049 57.7318 60.0096 57.8542 59.7918 58.0719C59.5741 58.2897 59.4518 58.585 59.4518 58.8929V67.5486H9.02311C8.41567 67.5479 7.8333 67.3063 7.40383 66.8767C6.97436 66.4471 6.73288 65.8647 6.73238 65.2573L6.7318 23.1815ZM67.6255 60.0541L61.774 65.9062V60.0538L67.6255 60.0541ZM66.9814 70.9467H9.02311C8.53035 70.9464 8.05079 70.7874 7.65541 70.4934C7.26002 70.1993 6.96981 69.7857 6.82773 69.3139C7.50147 69.6801 8.25629 69.8715 9.02311 69.8705H60.6129C60.9208 69.8704 61.2162 69.7481 61.4341 69.5305L69.2685 61.6959V68.6601C69.2678 69.2664 69.0266 69.8477 68.5978 70.2764C68.1691 70.7051 67.5877 70.9461 66.9814 70.9467ZM54.7298 5.57617C54.799 5.4245 55.332 5.05439 56.2102 5.05439C57.086 5.05439 57.6181 5.4245 57.6864 5.57602V8.66835H54.73L54.7298 5.57617ZM36.5198 5.57617C36.5902 5.42421 37.1237 5.05367 38.0002 5.05367C38.8767 5.05367 39.4101 5.42406 39.4806 5.57617V8.66835H36.5198V5.57617ZM38.0002 15.9115C38.3082 15.9115 38.6035 15.7892 38.8213 15.5714C39.039 15.3537 39.1613 15.0583 39.1613 14.7504C39.1613 14.4425 39.039 14.1471 38.8213 13.9294C38.6035 13.7116 38.3082 13.5893 38.0002 13.5893C37.1271 13.5893 36.5924 13.2183 36.5198 13.0653V10.9906H52.4076V13.0839C52.4076 14.6694 54.0778 15.9114 56.2102 15.9114C56.5182 15.9114 56.8135 15.789 57.0313 15.5713C57.249 15.3535 57.3713 15.0582 57.3713 14.7503C57.3713 14.4423 57.249 14.147 57.0313 13.9292C56.8135 13.7115 56.5182 13.5891 56.2102 13.5891C55.3352 13.5891 54.8011 13.2185 54.7298 13.0659V10.9904H66.9814C67.5882 10.9917 68.1698 11.2335 68.5985 11.663C69.0271 12.0925 69.268 12.6745 69.2681 13.2813V20.8593H6.73238V13.2814C6.73299 12.6741 6.97453 12.0918 7.40399 11.6623C7.83344 11.2328 8.41574 10.9912 9.02311 10.9906H15.9919V13.0839C15.9919 14.6694 17.6622 15.9114 19.7946 15.9114C20.1025 15.9114 20.3979 15.789 20.6156 15.5713C20.8334 15.3535 20.9557 15.0582 20.9557 14.7503C20.9557 14.4423 20.8334 14.147 20.6156 13.9292C20.3979 13.7115 20.1025 13.5891 19.7946 13.5891C18.9214 13.5891 18.3867 13.2182 18.3142 13.0652V10.9906H34.1976V13.0839C34.1976 14.6694 35.868 15.9115 38.0002 15.9115ZM28.3357 36.9931H34.2439C34.5518 36.9931 34.8472 36.8707 35.0649 36.653C35.2827 36.4352 35.405 36.1399 35.405 35.832V30.6192C35.405 30.3112 35.2827 30.0159 35.0649 29.7981C34.8472 29.5804 34.5518 29.458 34.2439 29.458H28.3357C28.0278 29.458 27.7324 29.5804 27.5147 29.7981C27.2969 30.0159 27.1746 30.3112 27.1746 30.6192V35.832C27.1746 36.1399 27.2969 36.4352 27.5147 36.653C27.7324 36.8707 28.0278 36.9931 28.3357 36.9931ZM29.4968 31.7803H33.0828V34.6709H29.4968V31.7803ZM41.7566 36.9931H47.6646C47.9725 36.9931 48.2679 36.8707 48.4856 36.653C48.7034 36.4352 48.8257 36.1399 48.8257 35.832V30.6192C48.8257 30.3112 48.7034 30.0159 48.4856 29.7981C48.2679 29.5804 47.9725 29.458 47.6646 29.458H41.7566C41.4486 29.458 41.1533 29.5804 40.9355 29.7981C40.7178 30.0159 40.5955 30.3112 40.5955 30.6192V35.832C40.5955 36.1399 40.7178 36.4352 40.9355 36.653C41.1533 36.8707 41.4486 36.9931 41.7566 36.9931ZM42.9177 31.7803H46.5035V34.6709H42.9177V31.7803ZM14.9149 49.7474H20.827C21.1349 49.7474 21.4302 49.6251 21.648 49.4074C21.8657 49.1896 21.9881 48.8943 21.9881 48.5863V43.3776C21.9881 43.0696 21.8657 42.7743 21.648 42.5566C21.4302 42.3388 21.1349 42.2165 20.827 42.2165H14.9149C14.6069 42.2165 14.3116 42.3388 14.0938 42.5566C13.8761 42.7743 13.7538 43.0696 13.7538 43.3776V48.5863C13.7538 48.8943 13.8761 49.1896 14.0938 49.4074C14.3116 49.6251 14.6069 49.7474 14.9149 49.7474ZM16.076 44.5387H19.6658V47.4252H16.076V44.5387ZM28.3357 49.7474H34.2439C34.5518 49.7474 34.8472 49.6251 35.0649 49.4074C35.2827 49.1896 35.405 48.8943 35.405 48.5863V43.3776C35.405 43.0696 35.2827 42.7743 35.0649 42.5566C34.8472 42.3388 34.5518 42.2165 34.2439 42.2165H28.3357C28.0278 42.2165 27.7324 42.3388 27.5147 42.5566C27.2969 42.7743 27.1746 43.0696 27.1746 43.3776V48.5863C27.1746 48.8943 27.2969 49.1896 27.5147 49.4074C27.7324 49.6251 28.0278 49.7474 28.3357 49.7474ZM29.4968 44.5387H33.0828V47.4252H29.4968V44.5387ZM41.7566 49.7474H47.6646C47.9725 49.7474 48.2679 49.6251 48.4856 49.4074C48.7034 49.1896 48.8257 48.8943 48.8257 48.5863V43.3776C48.8257 43.0696 48.7034 42.7743 48.4856 42.5566C48.2679 42.3388 47.9725 42.2165 47.6646 42.2165H41.7566C41.4486 42.2165 41.1533 42.3388 40.9355 42.5566C40.7178 42.7743 40.5955 43.0696 40.5955 43.3776V48.5863C40.5955 48.8943 40.7178 49.1896 40.9355 49.4074C41.1533 49.6251 41.4486 49.7474 41.7566 49.7474ZM42.9177 44.5387H46.5035V47.4252H42.9177V44.5387ZM14.9149 62.5018H20.827C21.1349 62.5018 21.4302 62.3795 21.648 62.1617C21.8657 61.944 21.9881 61.6487 21.9881 61.3407V56.132C21.9881 55.824 21.8657 55.5287 21.648 55.3109C21.4302 55.0932 21.1349 54.9709 20.827 54.9709H14.9149C14.6069 54.9709 14.3116 55.0932 14.0938 55.3109C13.8761 55.5287 13.7538 55.824 13.7538 56.132V61.3407C13.7538 61.6487 13.8761 61.944 14.0938 62.1617C14.3116 62.3795 14.6069 62.5018 14.9149 62.5018ZM16.076 57.2931H19.6658V60.1796H16.076V57.2931ZM28.3357 62.5018H34.2439C34.5518 62.5018 34.8472 62.3795 35.0649 62.1617C35.2827 61.944 35.405 61.6487 35.405 61.3407V56.132C35.405 55.824 35.2827 55.5287 35.0649 55.3109C34.8472 55.0932 34.5518 54.9709 34.2439 54.9709H28.3357C28.0278 54.9709 27.7324 55.0932 27.5147 55.3109C27.2969 55.5287 27.1746 55.824 27.1746 56.132V61.3407C27.1746 61.6487 27.2969 61.944 27.5147 62.1617C27.7324 62.3795 28.0278 62.5018 28.3357 62.5018ZM29.4968 57.2931H33.0828V60.1796H29.4968V57.2931ZM14.9149 36.9931H20.827C21.1349 36.9931 21.4302 36.8707 21.648 36.653C21.8657 36.4352 21.9881 36.1399 21.9881 35.832V30.6192C21.9881 30.3112 21.8657 30.0159 21.648 29.7981C21.4302 29.5804 21.1349 29.458 20.827 29.458H14.9149C14.6069 29.458 14.3116 29.5804 14.0938 29.7981C13.8761 30.0159 13.7538 30.3112 13.7538 30.6192V35.832C13.7538 36.1399 13.8761 36.4352 14.0938 36.653C14.3116 36.8707 14.6069 36.9931 14.9149 36.9931ZM16.076 31.7803H19.6658V34.6709H16.076V31.7803ZM61.0856 42.2165H55.1774C54.8695 42.2165 54.5741 42.3388 54.3564 42.5566C54.1386 42.7743 54.0163 43.0696 54.0163 43.3776V48.5863C54.0163 48.8943 54.1386 49.1896 54.3564 49.4074C54.5741 49.6251 54.8695 49.7474 55.1774 49.7474H61.0856C61.3935 49.7474 61.6889 49.6251 61.9066 49.4074C62.1244 49.1896 62.2467 48.8943 62.2467 48.5863V43.3776C62.2467 43.0696 62.1244 42.7743 61.9066 42.5566C61.6889 42.3388 61.3935 42.2165 61.0856 42.2165ZM59.9245 47.4252H56.3385V44.5387H59.9245V47.4252ZM41.7566 62.5018H47.6646C47.9725 62.5018 48.2679 62.3795 48.4856 62.1617C48.7034 61.944 48.8257 61.6487 48.8257 61.3407V56.132C48.8257 55.824 48.7034 55.5287 48.4856 55.3109C48.2679 55.0932 47.9725 54.9709 47.6646 54.9709H41.7566C41.4486 54.9709 41.1533 55.0932 40.9355 55.3109C40.7178 55.5287 40.5955 55.824 40.5955 56.132V61.3407C40.5955 61.6487 40.7178 61.944 40.9355 62.1617C41.1533 62.3795 41.4486 62.5018 41.7566 62.5018ZM42.9177 57.2931H46.5035V60.1796H42.9177V57.2931ZM54.195 33.9568C54.0859 33.8495 53.9991 33.7218 53.9395 33.5809C53.88 33.44 53.8489 33.2887 53.848 33.1357C53.8471 32.9828 53.8764 32.8311 53.9343 32.6895C53.9921 32.5479 54.0774 32.4192 54.1852 32.3106C54.293 32.2021 54.4212 32.1159 54.5624 32.0571C54.7036 31.9982 54.855 31.9679 55.008 31.9677C55.161 31.9676 55.3125 31.9977 55.4538 32.0563C55.5951 32.1149 55.7234 32.2008 55.8314 32.3092L57.3255 33.7929L60.3641 30.2023C60.563 29.9672 60.8472 29.8208 61.1541 29.7953C61.461 29.7697 61.7655 29.8671 62.0005 30.066C62.2356 30.265 62.382 30.5491 62.4076 30.856C62.4332 31.1629 62.3358 31.4674 62.1368 31.7025L58.2859 36.2529C58.1822 36.3753 58.0544 36.475 57.9103 36.5455C57.7662 36.6161 57.6091 36.6561 57.4488 36.6629C57.4321 36.6629 57.4153 36.6639 57.3988 36.6639C57.0922 36.6639 56.798 36.5427 56.5805 36.3266L54.195 33.9568Z" fill="url(#paint0_linear_2531_1204)"/>
	<defs>
	<linearGradient id="paint0_linear_2531_1204" x1="26.7951" y1="2.73144" x2="70.2948" y2="10.3863" gradientUnits="userSpaceOnUse">
	<stop stop-color="#C3942F"/>
	<stop offset="0.234" stop-color="#D89C27"/>
	<stop offset="0.449" stop-color="#E7DC96"/>
	<stop offset="0.669" stop-color="#DFC86F"/>
	<stop offset="0.849" stop-color="#D89C27"/>
	<stop offset="1" stop-color="#C99C30"/>
	</linearGradient>
	</defs>
	</svg>
