<svg width="75" height="75" viewBox="0 0 75 75" fill="none" xmlns="http://www.w3.org/2000/svg">
<g clip-path="url(#clip0_2531_1226)">
<path d="M37.2982 5.8057C36.4956 5.7999 35.841 6.44577 35.8352 7.24693C35.8294 8.0481 36.4738 8.70268 37.2764 8.70848C38.0776 8.71429 38.7322 8.06987 38.738 7.2687C38.7438 6.46754 38.0994 5.81296 37.2982 5.8057ZM37.2322 14.5139C31.6282 14.4741 27.0388 18.9951 26.9964 24.5973C26.9542 30.1992 31.4776 34.7908 37.0798 34.833L37.1576 34.8333C42.7241 34.8333 47.2734 30.3259 47.3155 24.7497C47.3578 19.148 42.8345 14.5561 37.2322 14.5139ZM37.1573 31.9307L37.1015 31.9304C33.0999 31.9002 29.8688 28.6204 29.899 24.619C29.9291 20.6357 33.1784 17.4162 37.1547 17.4162L37.2104 17.4165C41.212 17.4467 44.4431 20.7266 44.4129 24.7279C44.3827 28.7112 41.1335 31.9307 37.1573 31.9307ZM43.4885 6.90644C42.7335 6.63851 41.9035 7.03401 41.6355 7.78961C41.3678 8.5452 41.7633 9.37467 42.5187 9.64259C48.9116 11.9084 53.1722 17.9971 53.1211 24.7935C53.1151 25.595 53.76 26.2497 54.5616 26.2558H54.5728C55.369 26.2558 56.0178 25.6131 56.0239 24.8153C56.0842 16.7823 51.0466 9.58526 43.4885 6.90644Z" fill="url(#paint0_linear_2531_1226)"/>
<path d="M46.0599 54.6364C55.7135 42.2103 61.7465 35.7306 61.8279 24.8591C61.9301 11.1808 50.8296 0 37.1523 0C23.6346 0 12.5841 10.9475 12.4813 24.489C12.3983 35.6553 18.5433 42.1261 28.2636 54.6343C18.5937 56.0793 12.4813 59.7103 12.4813 64.1514C12.4813 67.1263 15.2311 69.7958 20.2243 71.6681C24.769 73.3724 30.7817 74.311 37.1546 74.311C43.5275 74.311 49.5402 73.3724 54.0849 71.6681C59.0781 69.7957 61.8279 67.1262 61.8279 64.1512C61.8279 59.7126 55.7212 56.0825 46.0599 54.6364ZM15.3839 24.5109C15.4745 12.5618 25.2242 2.90278 37.1526 2.90278C49.2222 2.90278 59.0153 12.7705 58.9253 24.8375C58.8481 35.1618 52.4501 41.5242 42.2356 54.8397C40.4137 57.2136 38.7406 59.458 37.1568 61.6535C35.5777 59.4567 33.9379 57.2525 32.0887 54.8388C21.452 40.9659 15.3053 35.0843 15.3839 24.5109ZM37.1546 71.4083C24.6943 71.4083 15.3839 67.5771 15.3839 64.1514C15.3839 61.6109 20.9497 58.4016 30.308 57.2902C32.3766 60.0045 34.1903 62.4704 35.9691 64.9888C36.103 65.1784 36.2804 65.3331 36.4865 65.4399C36.6925 65.5468 36.9212 65.6026 37.1533 65.6028H37.1546C37.3865 65.6028 37.615 65.5472 37.8211 65.4407C38.0271 65.3342 38.2046 65.1799 38.3387 64.9907C40.1006 62.5051 41.9639 59.9784 44.0149 57.2918C53.3645 58.4043 58.9253 61.6126 58.9253 64.1515C58.9252 67.5771 49.6149 71.4083 37.1546 71.4083Z" fill="url(#paint1_linear_2531_1226)"/>
</g>
<defs>
<linearGradient id="paint0_linear_2531_1226" x1="36.6686" y1="5.80566" x2="55.407" y2="9.26804" gradientUnits="userSpaceOnUse">
<stop stop-color="#C3942F"/>
<stop offset="0.234" stop-color="#D89C27"/>
<stop offset="0.449" stop-color="#E7DC96"/>
<stop offset="0.669" stop-color="#DFC86F"/>
<stop offset="0.849" stop-color="#D89C27"/>
<stop offset="1" stop-color="#C99C30"/>
</linearGradient>
<linearGradient id="paint1_linear_2531_1226" x1="28.9237" y1="-6.06967e-07" x2="61.3779" y2="3.98219" gradientUnits="userSpaceOnUse">
<stop stop-color="#C3942F"/>
<stop offset="0.234" stop-color="#D89C27"/>
<stop offset="0.449" stop-color="#E7DC96"/>
<stop offset="0.669" stop-color="#DFC86F"/>
<stop offset="0.849" stop-color="#D89C27"/>
<stop offset="1" stop-color="#C99C30"/>
</linearGradient>
<clipPath id="clip0_2531_1226">
<rect width="74.3111" height="74.3111" fill="white"/>
</clipPath>
</defs>
</svg>
