<svg width="95" height="70" viewBox="0 0 95 70" fill="none" xmlns="http://www.w3.org/2000/svg">
<path d="M21.5921 27.9158C20.536 27.9158 19.5225 28.0748 18.5137 28.2198C18.8405 27.1349 19.1768 26.0314 19.7166 25.0401C20.2565 23.5999 21.0995 22.3514 21.9378 21.0935C22.6387 19.7328 23.8748 18.8116 24.7841 17.6473C25.736 16.5157 27.0336 15.7629 28.0613 14.823C29.0701 13.841 30.3914 13.35 31.4427 12.658C32.5415 12.0361 33.4981 11.3487 34.5211 11.0214L37.0737 9.9833L39.3185 9.06212L37.0216 0L34.1943 0.673345C33.2897 0.897794 32.1863 1.15965 30.9313 1.47294C29.6478 1.70674 28.2792 2.34736 26.7542 2.93186C25.2482 3.59586 23.5054 4.04476 21.8857 5.11089C20.2565 6.13026 18.3764 6.98129 16.7188 8.34669C15.1133 9.75417 13.1764 10.9746 11.7461 12.7655C10.1833 14.4395 8.63937 16.1977 7.44118 18.1991C6.05356 20.1069 5.11112 22.2017 4.11658 24.2732C3.21675 26.3447 2.49216 28.4629 1.90017 30.5204C0.777765 34.6446 0.275759 38.5631 0.0815866 41.9158C-0.0794341 45.2732 0.015284 48.0648 0.214192 50.0848C0.28523 51.0387 0.417836 51.9646 0.512554 52.6052L0.630951 53.3908L0.754085 53.3627C1.59642 57.2477 3.5355 60.8178 6.34701 63.6602C9.15853 66.5025 12.7276 68.5008 16.6413 69.424C20.5551 70.3472 24.6536 70.1576 28.4627 68.877C32.2718 67.5964 35.6359 65.2772 38.1659 62.1877C40.6958 59.0982 42.2882 55.3646 42.7588 51.4189C43.2294 47.4731 42.559 43.4765 40.8252 39.8912C39.0914 36.3059 36.3649 33.2786 32.9613 31.1593C29.5577 29.0401 25.6159 27.9156 21.5921 27.9158ZM73.687 27.9158C72.6309 27.9158 71.6174 28.0748 70.6087 28.2198C70.9354 27.1349 71.2717 26.0314 71.8116 25.0401C72.3515 23.5999 73.1945 22.3514 74.0327 21.0935C74.7336 19.7328 75.9697 18.8116 76.879 17.6473C77.8309 16.5157 79.1285 15.7629 80.1562 14.823C81.165 13.841 82.4863 13.35 83.5377 12.658C84.6364 12.0361 85.5931 11.3487 86.616 11.0214L89.1687 9.9833L91.4135 9.06212L89.1166 0L86.2892 0.673345C85.3847 0.897794 84.2812 1.15965 83.0262 1.47294C81.7428 1.70674 80.3741 2.34736 78.8491 2.93186C77.3479 3.60053 75.6003 4.04475 73.9806 5.11556C72.3515 6.13494 70.4713 6.98597 68.8138 8.35137C67.2083 9.75885 65.2713 10.9793 63.8411 12.7655C62.2782 14.4395 60.7343 16.1977 59.5361 18.1991C58.1485 20.1069 57.2061 22.2017 56.2115 24.2732C55.3117 26.3447 54.5871 28.4629 53.9951 30.5204C52.8727 34.6446 52.3707 38.5631 52.1765 41.9158C52.0155 45.2732 52.1102 48.0648 52.3091 50.0848C52.3802 51.0387 52.5128 51.9646 52.6075 52.6052L52.7259 53.3908L52.849 53.3627C53.6914 57.2477 55.6304 60.8178 58.442 63.6602C61.2535 66.5025 64.8225 68.5008 68.7363 69.424C72.65 70.3472 76.7485 70.1576 80.5576 68.877C84.3668 67.5964 87.7309 65.2772 90.2608 62.1877C92.7907 59.0982 94.3831 55.3646 94.8537 51.4189C95.3243 47.4731 94.654 43.4765 92.9201 39.8912C91.1863 36.3059 88.4599 33.2786 85.0563 31.1593C81.6526 29.0401 77.7109 27.9156 73.687 27.9158Z" fill="black"/>
</svg>
