<svg width="376" height="148" viewBox="0 0 376 148" fill="none" xmlns="http://www.w3.org/2000/svg">
<path d="M355.682 0.938213C370.861 4.60363 380.098 20.3016 373.443 34.4282C359.981 63.0068 338.905 88.1892 311.968 107.531C276.891 132.717 233.818 146.604 189.374 147.056C144.93 147.507 101.578 134.499 65.9848 110.032C38.6521 91.2426 17.0581 66.495 3.0043 38.1974C-3.94261 24.2097 4.97103 8.32204 20.0747 4.34777C34.3036 0.603656 48.7136 8.94236 55.8031 21.835C66.0097 40.3962 80.7757 56.651 99.079 69.2331C124.973 87.0333 156.512 96.4969 188.845 96.1682C221.178 95.8394 252.514 85.7366 278.032 67.4137C296.065 54.4657 310.487 37.9197 320.306 19.1614C327.132 6.12048 341.374 -2.51682 355.682 0.938213Z" fill="#D89C27" fill-opacity="0.6"/>
</svg>
