<svg width="174" height="173" viewBox="0 0 174 173" fill="none" xmlns="http://www.w3.org/2000/svg">
<path d="M93.6888 18.6859C92.6359 18.5876 91.7256 18.2958 90.9578 17.8104C90.2038 17.3262 89.6363 16.694 89.2553 15.9136C88.8893 15.1209 88.7525 14.2391 88.8449 13.2685L89.7351 3.91714C89.7416 3.84878 89.7674 3.79601 89.8123 3.75882C89.8722 3.70924 89.9363 3.68764 90.0047 3.69402L92.4045 3.91792C92.4728 3.9243 92.5249 3.95674 92.5608 4.01526C92.6115 4.06138 92.6337 4.11861 92.6272 4.18697L91.735 13.5588C91.6661 14.2834 91.8289 14.8917 92.2235 15.3837C92.6331 15.8633 93.2002 16.1369 93.925 16.2045C94.6497 16.2721 95.2517 16.1076 95.7309 15.7109C96.2251 15.3018 96.5066 14.735 96.5756 14.0104L97.4678 4.6386C97.4743 4.57024 97.5 4.51747 97.5449 4.48028C97.6048 4.4307 97.6689 4.4091 97.7373 4.41548L100.137 4.63938C100.205 4.64576 100.258 4.6782 100.293 4.73672C100.344 4.78283 100.366 4.84007 100.36 4.90843L99.4696 14.2598C99.3772 15.2304 99.0696 16.0707 98.5468 16.7805C98.0389 17.478 97.3621 17.9941 96.5163 18.329C95.6842 18.6651 94.7416 18.7841 93.6888 18.6859Z" fill="white"/>
<path d="M101.243 19.6493C101.176 19.6343 101.12 19.6008 101.076 19.5487C101.048 19.4862 101.042 19.4215 101.057 19.3545L104.14 5.77446C104.155 5.7075 104.187 5.6584 104.237 5.62717C104.302 5.58553 104.369 5.57217 104.436 5.58708L106.788 6.11057C106.855 6.12549 106.903 6.1642 106.931 6.22672C106.976 6.27883 106.99 6.33837 106.975 6.40533L103.892 19.9854C103.877 20.0523 103.836 20.1066 103.77 20.1483C103.721 20.1795 103.663 20.1877 103.596 20.1727L101.243 19.6493Z" fill="white"/>
<path d="M113.936 14.3687C113.915 14.4341 113.87 14.4846 113.801 14.5204C113.749 14.5472 113.69 14.5503 113.625 14.5297L111.739 13.9348C111.674 13.9141 111.63 13.9365 111.609 14.0018L110.271 18.159C110.132 18.5905 110.115 18.9376 110.217 19.2005C110.334 19.4675 110.588 19.6629 110.981 19.7869L111.629 19.9914C111.695 20.012 111.739 20.0547 111.761 20.1194C111.801 20.1751 111.81 20.2357 111.789 20.3011L111.19 22.164C111.143 22.3078 111.037 22.3679 110.872 22.3445C110.313 22.1972 109.916 22.0863 109.681 22.0119C108.593 21.669 107.838 21.2364 107.415 20.7141C106.996 20.1786 106.939 19.4121 107.246 18.4144L108.937 13.1591C108.958 13.0937 108.936 13.0507 108.871 13.03L107.751 12.6768C107.685 12.6562 107.633 12.618 107.593 12.5622C107.571 12.4975 107.57 12.4325 107.591 12.3671L108.153 10.6219C108.174 10.5565 108.21 10.5104 108.262 10.4836C108.331 10.4478 108.399 10.4403 108.464 10.4609L109.584 10.8142C109.649 10.8348 109.693 10.8125 109.714 10.7471L110.465 8.41356C110.486 8.34819 110.522 8.3021 110.574 8.27527C110.643 8.23951 110.711 8.23195 110.776 8.25261L112.976 8.94665C113.042 8.96731 113.086 9.00998 113.108 9.07466C113.148 9.13041 113.157 9.19096 113.136 9.25633L112.385 11.5899C112.364 11.6552 112.387 11.6982 112.452 11.7189L114.338 12.3138C114.404 12.3344 114.448 12.3771 114.47 12.4418C114.51 12.4975 114.519 12.5581 114.498 12.6235L113.936 14.3687Z" fill="white"/>
<path d="M118.422 12.6983C117.991 12.5186 117.689 12.229 117.516 11.8294C117.361 11.4225 117.374 11.0042 117.557 10.5745C117.745 10.1322 118.038 9.83017 118.435 9.6684C118.832 9.50664 119.253 9.51823 119.696 9.70319C120.14 9.88815 120.442 10.1778 120.603 10.5721C120.763 10.9663 120.749 11.3846 120.561 11.827C120.379 12.2566 120.08 12.556 119.664 12.7252C119.267 12.8869 118.853 12.878 118.422 12.6983ZM112.669 23.0657C112.606 23.0393 112.557 22.9966 112.522 22.9375C112.506 22.8711 112.511 22.8063 112.538 22.7431L116.497 13.4356C116.524 13.3724 116.564 13.3297 116.618 13.3077C116.691 13.2783 116.758 13.2768 116.822 13.3032L119.046 14.2306C119.11 14.2571 119.15 14.3035 119.166 14.3699C119.201 14.4289 119.205 14.49 119.178 14.5532L115.219 23.8608C115.192 23.924 115.142 23.9703 115.07 23.9997C115.016 24.0218 114.957 24.0196 114.894 23.9932L112.669 23.0657Z" fill="white"/>
<path d="M133.054 21.7732C133.966 22.3349 134.508 23.0475 134.679 23.9109C134.85 24.7743 134.625 25.7002 134.004 26.6886L130.376 32.462C130.34 32.5201 130.283 32.558 130.207 32.5757C130.15 32.589 130.093 32.5777 130.034 32.5416L127.982 31.2777C127.924 31.2417 127.882 31.1919 127.857 31.1282C127.851 31.0601 127.867 30.9969 127.903 30.9388L131.191 25.7061C131.491 25.2294 131.605 24.7758 131.535 24.3455C131.465 23.9152 131.225 23.574 130.816 23.322C130.407 23.0699 129.986 23.0042 129.553 23.1248C129.121 23.2455 128.758 23.5383 128.466 24.0035L125.167 29.2536C125.13 29.3117 125.074 29.3496 124.998 29.3673C124.941 29.3806 124.883 29.3692 124.825 29.3332L122.79 28.0801C122.732 28.0441 122.69 27.9943 122.665 27.9306C122.659 27.8625 122.675 27.7993 122.711 27.7412L125.999 22.5085C126.292 22.0434 126.397 21.5921 126.315 21.1546C126.24 20.7054 125.998 20.3548 125.589 20.1027C125.215 19.8723 124.83 19.7883 124.434 19.8508C124.049 19.9205 123.709 20.1386 123.414 20.5052L119.94 26.0344C119.903 26.0925 119.847 26.1304 119.771 26.1481C119.714 26.1614 119.656 26.15 119.598 26.114L117.546 24.8501C117.487 24.8141 117.445 24.7642 117.421 24.7006C117.415 24.6324 117.43 24.5693 117.467 24.5112L122.837 15.9645C122.874 15.9063 122.92 15.8706 122.977 15.8574C123.053 15.8397 123.121 15.8488 123.179 15.8848L125.231 17.1487C125.29 17.1847 125.322 17.2368 125.328 17.3049C125.353 17.3686 125.347 17.4295 125.31 17.4877L124.883 18.1679C124.861 18.2028 124.858 18.2333 124.874 18.2593C124.89 18.2853 124.921 18.2881 124.966 18.2676C125.891 17.8536 126.857 17.9562 127.862 18.5756C128.447 18.9357 128.879 19.3711 129.158 19.8817C129.449 20.3996 129.569 20.9573 129.518 21.5548C129.509 21.6462 129.55 21.6714 129.641 21.6304C130.198 21.3121 130.765 21.1699 131.344 21.2038C131.935 21.2449 132.505 21.4347 133.054 21.7732Z" fill="white"/>
<path d="M141.508 28.7717C142.164 29.3766 142.642 30.0314 142.941 30.7361C143.249 31.4308 143.361 32.1036 143.277 32.7544C143.203 33.4145 142.94 33.9847 142.489 34.465L137.705 39.553C137.658 39.603 137.596 39.6295 137.518 39.6323C137.459 39.6344 137.405 39.6121 137.354 39.5656L135.582 37.9324C135.531 37.8859 135.5 37.829 135.488 37.7618C135.495 37.6938 135.522 37.6348 135.569 37.5848L136.035 37.0895C136.063 37.0595 136.072 37.0302 136.061 37.0016C136.05 36.9729 136.021 36.9643 135.972 36.9757C135.031 37.1352 134.09 36.7822 133.151 35.9168C132.363 35.1909 131.906 34.4145 131.778 33.5876C131.651 32.7607 131.935 31.977 132.631 31.2366C133.356 30.4661 134.188 30.122 135.129 30.2043C136.078 30.2766 137.058 30.778 138.068 31.7086L139.614 33.1324C139.664 33.1789 139.713 33.1772 139.76 33.1272L140.07 32.797C140.381 32.4668 140.52 32.1186 140.487 31.7523C140.464 31.3761 140.25 31.0019 139.846 30.6296C139.533 30.3411 139.219 30.1542 138.903 30.0689C138.598 29.9928 138.32 30.0269 138.072 30.1712C137.938 30.2534 137.825 30.2429 137.734 30.1398L136.126 28.2107C136.024 28.079 136.011 27.9828 136.087 27.922C136.522 27.539 137.046 27.3123 137.659 27.242C138.282 27.181 138.925 27.2787 139.588 27.5353C140.262 27.8012 140.902 28.2133 141.508 28.7717ZM135.208 34.8713C135.642 35.2714 136.119 35.496 136.639 35.5451C137.158 35.5941 137.587 35.4385 137.926 35.0783L138.433 34.538C138.481 34.488 138.479 34.4397 138.428 34.3932L137.338 33.3881C136.883 32.9694 136.445 32.724 136.022 32.6522C135.61 32.5896 135.258 32.7135 134.966 33.0236C134.712 33.2938 134.606 33.5973 134.647 33.9342C134.698 34.2612 134.885 34.5735 135.208 34.8713Z" fill="white"/>
<path d="M148.746 39.9101C148.693 39.9539 148.628 39.9724 148.55 39.9656C148.491 39.9605 148.44 39.9317 148.396 39.8793L147.118 38.3702C147.073 38.3178 147.025 38.3136 146.972 38.3574L143.611 41.1468C143.263 41.4362 143.062 41.7193 143.008 41.9959C142.963 42.2829 143.074 42.5836 143.34 42.898L143.779 43.4168C143.824 43.4692 143.838 43.5287 143.823 43.5952C143.826 43.6634 143.802 43.7195 143.749 43.7633L142.243 45.0133C142.127 45.1098 142.005 45.1039 141.877 44.9957C141.483 44.5731 141.207 44.2674 141.047 44.0788C140.31 43.209 139.903 42.4408 139.824 41.7743C139.756 41.099 140.119 40.4228 140.913 39.7457L145.161 36.2195C145.214 36.1757 145.218 36.1275 145.174 36.0751L144.415 35.1791C144.371 35.1267 144.347 35.0664 144.343 34.9982C144.358 34.9316 144.393 34.8765 144.445 34.8326L145.856 33.6616C145.909 33.6177 145.965 33.5984 146.023 33.6035C146.101 33.6103 146.162 33.6399 146.206 33.6923L146.965 34.5884C147.009 34.6408 147.058 34.645 147.111 34.6012L148.997 33.0354C149.05 32.9916 149.105 32.9722 149.164 32.9773C149.242 32.9842 149.303 33.0138 149.347 33.0662L150.838 34.8268C150.883 34.8792 150.897 34.9387 150.881 35.0052C150.885 35.0734 150.861 35.1295 150.808 35.1733L148.921 36.7391C148.869 36.7829 148.864 36.831 148.909 36.8834L150.187 38.3925C150.231 38.4449 150.246 38.5044 150.23 38.5709C150.234 38.6392 150.209 38.6952 150.156 38.7391L148.746 39.9101Z" fill="white"/>
<path d="M153.265 50.4844C152.869 50.8337 152.392 51.1701 151.832 51.4937C151.686 51.5706 151.568 51.54 151.478 51.4018L148.011 46.0631C147.967 45.994 147.923 45.9894 147.88 46.0493C147.67 46.2313 147.48 46.4421 147.308 46.6817C146.854 47.3941 146.926 48.2111 147.524 49.1325C148.014 49.8623 148.693 50.2523 149.561 50.3024C149.66 50.3042 149.729 50.3339 149.766 50.3915C149.788 50.4261 149.791 50.4811 149.775 50.5567L149.349 52.5859C149.328 52.6804 149.295 52.7424 149.248 52.7719C149.225 52.7866 149.164 52.7931 149.065 52.7912C148.343 52.7134 147.654 52.4599 146.999 52.0305C146.355 51.5938 145.801 51.0184 145.337 50.3042C144.694 49.3137 144.374 48.3291 144.377 47.3504C144.388 46.3833 144.701 45.4919 145.318 44.6763C145.74 44.0657 146.421 43.4618 147.359 42.8646C147.996 42.459 148.614 42.1878 149.213 42.0509C150.208 41.7923 151.162 41.8364 152.074 42.1833C152.995 42.5416 153.75 43.1758 154.341 44.0857C155.089 45.2375 155.352 46.3728 155.128 47.4916C154.913 48.6218 154.291 49.6195 153.265 50.4844ZM152.232 45.4523C151.761 44.7267 151.109 44.4662 150.276 44.6709C150.095 44.7207 149.884 44.7983 149.641 44.9039C149.583 44.9407 149.573 44.988 149.61 45.0456L151.551 48.0345C151.596 48.1036 151.64 48.1082 151.683 48.0483C151.982 47.7769 152.125 47.6449 152.113 47.6523C152.394 47.3274 152.541 46.9735 152.554 46.5906C152.586 46.2119 152.479 45.8324 152.232 45.4523Z" fill="white"/>
<path d="M149.908 58.7793C149.526 57.9424 149.311 57.1584 149.263 56.4272C149.216 55.696 149.326 55.0601 149.592 54.5194C149.864 53.9913 150.269 53.6065 150.808 53.3651L150.996 53.2808C151.059 53.2528 151.117 53.249 151.172 53.2697C151.245 53.2972 151.296 53.3421 151.324 53.4046L152.275 55.4842C152.304 55.5467 152.301 55.6079 152.268 55.6678C152.254 55.7346 152.215 55.782 152.152 55.8101L152.133 55.8185C151.858 55.9421 151.688 56.1986 151.625 56.5882C151.579 56.9847 151.662 57.414 151.874 57.8762C152.068 58.3008 152.306 58.6078 152.589 58.7971C152.884 58.9808 153.157 59.0165 153.408 58.9042C153.634 58.8031 153.751 58.6149 153.761 58.3396C153.772 58.0642 153.722 57.6424 153.613 57.0742C153.495 56.4197 153.428 55.893 153.412 55.494C153.322 54.5711 153.37 53.7825 153.554 53.1282C153.738 52.4739 154.206 51.9783 154.958 51.6414C155.885 51.2259 156.781 51.2534 157.646 51.7239C158.528 52.2013 159.241 53.0332 159.783 54.2198C160.148 55.0192 160.337 55.7776 160.347 56.4951C160.371 57.2069 160.225 57.8291 159.91 58.3616C159.6 58.9065 159.151 59.311 158.562 59.5749C158.499 59.603 158.431 59.6033 158.358 59.5758C158.303 59.5551 158.262 59.5136 158.233 59.4511L157.317 57.4464C157.288 57.384 157.281 57.3194 157.296 57.2526C157.329 57.1926 157.377 57.1486 157.44 57.1206C157.715 56.997 157.882 56.7495 157.938 56.378C158.001 56.019 157.926 55.6084 157.715 55.1463C157.527 54.7341 157.297 54.4306 157.027 54.2356C156.757 54.0407 156.49 54.0022 156.227 54.1201C155.976 54.2324 155.845 54.4416 155.834 54.7475C155.829 55.066 155.894 55.5558 156.03 56.2171C156.055 56.3714 156.083 56.5472 156.113 56.7445C156.155 56.9362 156.191 57.146 156.219 57.3739C156.361 58.3786 156.343 59.2297 156.163 59.9271C155.984 60.6245 155.499 61.1501 154.71 61.5038C153.782 61.9193 152.887 61.8765 152.024 61.3754C151.179 60.8812 150.473 60.0158 149.908 58.7793Z" fill="white"/>
<path d="M154.328 72.4787C154.097 71.4047 154.062 70.4295 154.224 69.553C154.4 68.6737 154.756 67.9457 155.292 67.3692C155.844 66.8033 156.543 66.4308 157.39 66.2519L157.833 66.1581C157.9 66.1439 157.958 66.1527 158.007 66.1844C158.073 66.2268 158.113 66.2815 158.127 66.3486L158.622 68.6442C158.637 68.7113 158.621 68.7707 158.576 68.8224C158.548 68.8846 158.5 68.9228 158.433 68.937L158.13 69.0009C157.593 69.1145 157.189 69.4595 156.92 70.0357C156.665 70.6091 156.628 71.3187 156.811 72.1645C156.964 72.876 157.226 73.375 157.597 73.6615C157.981 73.9452 158.395 74.0402 158.839 73.9465C159.161 73.8783 159.407 73.7141 159.575 73.4538C159.758 73.1907 159.889 72.8542 159.969 72.4442C160.065 72.0448 160.174 71.4112 160.296 70.5432C160.411 69.5784 160.562 68.7465 160.748 68.0473C160.938 67.3616 161.261 66.7457 161.72 66.1997C162.194 65.6642 162.841 65.3098 163.661 65.1366C164.467 64.9661 165.217 65.0251 165.912 65.3134C166.606 65.6017 167.194 66.081 167.676 66.7511C168.158 67.4213 168.503 68.2397 168.711 69.2063C168.931 70.2265 168.945 71.171 168.754 72.0398C168.565 72.922 168.189 73.6541 167.626 74.2363C167.079 74.8291 166.376 75.2164 165.516 75.3982L165.214 75.4622C165.147 75.4764 165.08 75.4623 165.015 75.42C164.966 75.3882 164.934 75.3388 164.92 75.2716L164.42 72.9559C164.406 72.8888 164.413 72.8241 164.442 72.7619C164.487 72.7103 164.543 72.6773 164.61 72.6631L164.771 72.629C165.336 72.5097 165.762 72.174 166.05 71.6217C166.355 71.0801 166.42 70.4065 166.247 69.601C166.11 68.9701 165.869 68.5018 165.522 68.1961C165.178 67.9039 164.771 67.8075 164.301 67.9069C163.965 67.9779 163.704 68.1383 163.519 68.3879C163.337 68.651 163.196 69.0038 163.094 69.4463C163.009 69.8994 162.905 70.5882 162.781 71.5127C162.638 72.5397 162.489 73.3501 162.336 73.9439C162.186 74.5511 161.889 75.1264 161.444 75.6696C161.016 76.2234 160.378 76.5897 159.532 76.7687C158.269 77.0357 157.168 76.7842 156.229 76.0142C155.304 75.2413 154.67 74.0628 154.328 72.4787Z" fill="white"/>
<path d="M166.684 90.5338C166.691 91.605 166.374 92.4447 165.732 93.0528C165.09 93.661 164.186 93.9687 163.018 93.9758L156.2 94.0172C156.131 94.0177 156.069 93.9906 156.014 93.936C155.972 93.895 155.952 93.8402 155.951 93.7716L155.936 91.3614C155.936 91.2927 155.956 91.2308 155.997 91.1756C156.051 91.1341 156.113 91.1131 156.182 91.1127L162.362 91.0751C162.925 91.0717 163.37 90.9248 163.698 90.6344C164.026 90.344 164.188 89.9584 164.185 89.4778C164.182 88.9971 164.015 88.6067 163.684 88.3066C163.352 88.0065 162.912 87.8581 162.362 87.8614L156.162 87.8992C156.093 87.8996 156.031 87.8725 155.976 87.8179C155.935 87.7769 155.914 87.7221 155.913 87.6535L155.898 85.2639C155.898 85.1953 155.918 85.1333 155.959 85.0781C156.014 85.0366 156.075 85.0156 156.144 85.0152L162.324 84.9776C162.873 84.9743 163.312 84.8205 163.639 84.5164C163.981 84.2122 164.15 83.8198 164.147 83.3391C164.144 82.8996 164.012 82.5296 163.749 82.2291C163.486 81.9423 163.121 81.7728 162.654 81.7208L156.124 81.7605C156.055 81.7609 155.993 81.7338 155.938 81.6792C155.896 81.6383 155.875 81.5835 155.875 81.5148L155.86 79.1046C155.86 79.036 155.88 78.974 155.921 78.9189C155.975 78.8773 156.037 78.8564 156.106 78.8559L166.2 78.7945C166.268 78.7941 166.323 78.8144 166.365 78.8553C166.42 78.9099 166.448 78.9716 166.448 79.0402L166.463 81.4504C166.464 81.519 166.437 81.5741 166.382 81.6157C166.341 81.6709 166.286 81.6987 166.218 81.6991L165.414 81.704C165.373 81.7042 165.346 81.7181 165.332 81.7457C165.318 81.7732 165.332 81.8006 165.374 81.8278C166.215 82.3858 166.639 83.2553 166.647 84.4363C166.651 85.123 166.51 85.7212 166.225 86.2311C165.94 86.7547 165.53 87.1555 164.997 87.4334C164.914 87.4751 164.915 87.5232 164.997 87.5776C165.562 87.8763 165.984 88.2789 166.262 88.7853C166.539 89.3055 166.68 89.8883 166.684 90.5338Z" fill="white"/>
<path d="M166.742 98.4481C166.812 97.9866 167.021 97.6221 167.368 97.3548C167.726 97.1031 168.136 97.012 168.598 97.0813C169.073 97.1528 169.437 97.3603 169.69 97.7038C169.943 98.0474 170.033 98.4567 169.96 98.9318C169.887 99.4069 169.679 99.7713 169.334 100.025C168.99 100.279 168.58 100.37 168.104 100.299C167.643 100.229 167.279 100.015 167.015 99.6557C166.762 99.3122 166.671 98.9096 166.742 98.4481ZM155.277 95.4753C155.287 95.4074 155.317 95.3494 155.366 95.3012C155.426 95.2687 155.491 95.2575 155.559 95.2677L165.561 96.7708C165.629 96.781 165.68 96.8095 165.714 96.8564C165.76 96.9188 165.778 96.984 165.768 97.0519L165.403 99.4342C165.392 99.5021 165.357 99.5523 165.296 99.5849C165.247 99.6331 165.189 99.6521 165.121 99.6419L155.118 98.1388C155.05 98.1286 154.993 98.0922 154.947 98.0298C154.913 97.9829 154.901 97.9256 154.911 97.8577L155.277 95.4753Z" fill="white"/>
<path d="M154.419 100.337C154.434 100.27 154.468 100.214 154.52 100.17C154.583 100.142 154.648 100.135 154.715 100.15L168.308 103.174C168.375 103.188 168.424 103.221 168.455 103.27C168.497 103.335 168.51 103.401 168.495 103.468L167.961 105.819C167.946 105.886 167.907 105.933 167.845 105.962C167.792 106.006 167.732 106.021 167.665 106.006L154.072 102.982C154.005 102.968 153.951 102.927 153.909 102.862C153.878 102.813 153.87 102.755 153.885 102.688L154.419 100.337Z" fill="white"/>
<path d="M156.411 115.568C155.89 115.477 155.329 115.314 154.727 115.079C154.576 115.012 154.527 114.902 154.581 114.746L156.682 108.737C156.709 108.659 156.685 108.622 156.611 108.626C156.338 108.576 156.053 108.558 155.757 108.573C154.912 108.661 154.308 109.223 153.945 110.26C153.668 111.094 153.777 111.865 154.272 112.571C154.332 112.65 154.351 112.722 154.328 112.787C154.314 112.825 154.273 112.862 154.202 112.896L152.329 113.822C152.242 113.865 152.172 113.877 152.12 113.859C152.094 113.85 152.051 113.807 151.991 113.728C151.608 113.118 151.385 112.424 151.322 111.648C151.272 110.876 151.387 110.088 151.668 109.284C152.057 108.169 152.642 107.31 153.42 106.705C154.194 106.114 155.095 105.805 156.122 105.78C156.867 105.73 157.765 105.886 158.818 106.246C159.532 106.491 160.128 106.804 160.606 107.185C161.424 107.799 161.977 108.569 162.265 109.495C162.548 110.434 162.51 111.416 162.152 112.44C161.699 113.736 160.96 114.644 159.934 115.164C158.904 115.697 157.73 115.832 156.411 115.568ZM159.768 111.645C160.053 110.828 159.858 110.159 159.182 109.637C159.031 109.527 158.839 109.411 158.606 109.287C158.541 109.265 158.497 109.286 158.474 109.351L157.299 112.715C157.272 112.793 157.295 112.83 157.369 112.827C157.768 112.891 157.962 112.921 157.949 112.916C158.379 112.933 158.751 112.828 159.063 112.601C159.383 112.391 159.618 112.073 159.768 111.645Z" fill="white"/>
<path d="M147.806 118.523C147.842 118.465 147.893 118.424 147.957 118.399C148.026 118.393 148.089 118.408 148.148 118.444L159.985 125.779C160.044 125.815 160.079 125.861 160.092 125.918C160.11 125.993 160.1 126.06 160.063 126.118L157.311 130.471C156.761 131.342 156.123 132.004 155.397 132.459C154.675 132.933 153.92 133.176 153.132 133.189C152.344 133.201 151.583 132.98 150.847 132.524L146.014 129.529C145.279 129.074 144.744 128.492 144.412 127.785C144.079 127.078 143.964 126.296 144.067 125.439C144.174 124.601 144.503 123.747 145.054 122.876L147.806 118.523ZM148.592 122.136C148.534 122.1 148.486 122.111 148.449 122.169L147.117 124.276C146.78 124.81 146.689 125.352 146.846 125.901C146.995 126.462 147.369 126.936 147.969 127.324L151.997 129.819C152.604 130.195 153.194 130.327 153.769 130.215C154.337 130.114 154.796 129.785 155.149 129.228L156.47 127.138C156.506 127.08 156.495 127.033 156.437 126.997L148.592 122.136Z" fill="white"/>
<path d="M139.796 139.538C139.349 139.255 138.891 138.891 138.424 138.445C138.309 138.326 138.307 138.205 138.417 138.083L142.659 133.337C142.714 133.276 142.707 133.233 142.637 133.208C142.403 133.057 142.146 132.933 141.866 132.834C141.049 132.593 140.275 132.882 139.543 133.701C138.967 134.366 138.774 135.118 138.962 135.958C138.987 136.054 138.977 136.127 138.931 136.178C138.904 136.209 138.851 136.227 138.773 136.231L136.685 136.373C136.587 136.379 136.518 136.364 136.477 136.328C136.456 136.31 136.433 136.253 136.407 136.158C136.286 135.449 136.345 134.724 136.583 133.983C136.832 133.252 137.24 132.569 137.807 131.934C138.594 131.054 139.464 130.483 140.416 130.221C141.359 129.97 142.311 130.028 143.272 130.396C143.981 130.633 144.753 131.118 145.59 131.852C146.158 132.349 146.59 132.865 146.887 133.399C147.41 134.277 147.627 135.198 147.539 136.161C147.442 137.135 147.032 138.027 146.309 138.836C145.394 139.859 144.362 140.416 143.214 140.505C142.056 140.605 140.917 140.282 139.796 139.538ZM144.405 137.195C144.982 136.55 145.057 135.858 144.63 135.119C144.533 134.96 144.4 134.78 144.231 134.577C144.179 134.532 144.13 134.535 144.085 134.586L141.709 137.243C141.654 137.304 141.662 137.347 141.732 137.372C142.077 137.584 142.245 137.685 142.234 137.676C142.627 137.855 143.011 137.899 143.387 137.809C143.763 137.737 144.103 137.533 144.405 137.195Z" fill="white"/>
<path d="M130.804 138.544C131.51 137.954 132.211 137.538 132.907 137.296C133.603 137.054 134.251 136.987 134.849 137.096C135.436 137.213 135.921 137.497 136.305 137.946L136.438 138.103C136.483 138.155 136.503 138.21 136.498 138.268C136.491 138.345 136.462 138.405 136.409 138.45L134.655 139.916C134.602 139.96 134.542 139.974 134.475 139.959C134.406 139.963 134.349 139.939 134.305 139.887L134.291 139.871C134.095 139.641 133.8 139.548 133.404 139.592C133.007 139.656 132.613 139.851 132.224 140.176C131.865 140.476 131.634 140.786 131.528 141.107C131.432 141.438 131.473 141.708 131.651 141.917C131.811 142.105 132.026 142.167 132.296 142.103C132.566 142.038 132.962 141.878 133.483 141.621C134.085 141.332 134.577 141.127 134.96 141.004C135.83 140.67 136.608 140.503 137.294 140.502C137.979 140.502 138.589 140.815 139.124 141.442C139.784 142.215 140.005 143.078 139.787 144.029C139.568 145 138.958 145.903 137.957 146.74C137.283 147.304 136.599 147.687 135.907 147.891C135.223 148.105 134.579 148.133 133.975 147.975C133.361 147.826 132.844 147.506 132.425 147.015C132.381 146.963 132.362 146.898 132.368 146.821C132.373 146.764 132.402 146.713 132.455 146.669L134.146 145.255C134.198 145.211 134.259 145.187 134.328 145.183C134.395 145.198 134.451 145.232 134.496 145.285C134.692 145.514 134.978 145.606 135.354 145.561C135.719 145.524 136.097 145.342 136.487 145.016C136.835 144.725 137.066 144.425 137.18 144.115C137.294 143.804 137.258 143.539 137.071 143.32C136.892 143.111 136.653 143.042 136.354 143.114C136.043 143.194 135.586 143.389 134.982 143.696C134.84 143.762 134.677 143.836 134.494 143.917C134.319 144.009 134.126 144.099 133.913 144.188C132.977 144.594 132.147 144.805 131.421 144.822C130.694 144.838 130.051 144.517 129.489 143.859C128.83 143.085 128.624 142.22 128.871 141.261C129.117 140.322 129.761 139.416 130.804 138.544Z" fill="white"/>
<path d="M132.009 152.456C132.397 152.197 132.808 152.104 133.241 152.177C133.67 152.27 134.016 152.509 134.28 152.895C134.551 153.292 134.646 153.699 134.565 154.117C134.485 154.534 134.245 154.877 133.845 155.144C133.446 155.411 133.035 155.504 132.614 155.423C132.192 155.342 131.846 155.103 131.575 154.706C131.312 154.32 131.222 153.909 131.306 153.472C131.387 153.055 131.621 152.716 132.009 152.456ZM126.39 142.039C126.447 142.001 126.51 141.983 126.579 141.987C126.644 142.009 126.696 142.049 126.735 142.105L132.44 150.458C132.479 150.514 132.493 150.571 132.482 150.628C132.467 150.704 132.431 150.761 132.374 150.799L130.371 152.14C130.314 152.178 130.253 152.186 130.188 152.164C130.119 152.16 130.065 152.13 130.027 152.073L124.322 143.721C124.283 143.665 124.271 143.598 124.285 143.522C124.296 143.465 124.33 143.418 124.388 143.38L126.39 142.039Z" fill="white"/>
<path d="M121.464 156.831C121.496 156.892 121.503 156.95 121.486 157.005C121.463 157.079 121.42 157.132 121.359 157.163L119.217 158.267C119.156 158.299 119.094 158.3 119.032 158.27C118.964 158.259 118.914 158.223 118.882 158.162L114.51 149.848C113.673 148.255 113.54 146.88 114.109 145.721C114.667 144.568 115.672 143.618 117.125 142.869C117.552 142.649 118.044 142.434 118.601 142.224C118.73 142.173 118.832 142.221 118.909 142.367L119.823 144.282C119.906 144.441 119.856 144.551 119.672 144.615C119.194 144.769 118.772 144.94 118.406 145.129C117.625 145.531 117.116 146.01 116.88 146.564C116.632 147.124 116.706 147.782 117.102 148.535C117.121 148.572 117.143 148.584 117.167 148.571C117.198 148.571 117.219 148.552 117.231 148.515C117.433 147.778 117.979 147.179 118.871 146.72C119.664 146.311 120.496 146.122 121.365 146.153C122.229 146.202 123.025 146.58 123.753 147.286C124.23 147.751 124.702 148.427 125.169 149.314C125.667 150.262 125.963 151.091 126.056 151.8C126.19 152.673 126.07 153.492 125.696 154.256C125.322 155.021 124.732 155.611 123.926 156.026C122.987 156.51 122.119 156.602 121.325 156.301C121.288 156.289 121.257 156.289 121.232 156.302C121.214 156.327 121.215 156.357 121.234 156.394L121.464 156.831ZM118.514 150.866C118.608 151.281 118.821 151.805 119.154 152.437C119.352 152.814 119.517 153.099 119.65 153.293C119.784 153.487 119.929 153.66 120.085 153.811C120.368 154.082 120.688 154.249 121.047 154.312C121.412 154.386 121.784 154.326 122.162 154.131C122.528 153.942 122.785 153.678 122.933 153.34C123.087 153.013 123.139 152.654 123.088 152.263C123.068 151.81 122.894 151.274 122.568 150.654C122.21 149.973 121.881 149.525 121.582 149.309C121.299 149.037 120.969 148.867 120.592 148.799C120.209 148.749 119.828 148.822 119.45 149.017C119.059 149.218 118.787 149.482 118.633 149.809C118.485 150.148 118.445 150.5 118.514 150.866Z" fill="white"/>
<path d="M111.042 161.345C109.999 161.69 109.05 161.65 108.196 161.225C107.342 160.799 106.73 160.04 106.36 158.947L104.195 152.546C104.173 152.481 104.179 152.414 104.214 152.345C104.24 152.293 104.285 152.256 104.35 152.234L106.638 151.476C106.703 151.454 106.769 151.454 106.834 151.476C106.891 151.515 106.93 151.567 106.952 151.632L108.926 157.467C109.102 157.987 109.395 158.36 109.804 158.586C110.201 158.816 110.641 158.852 111.123 158.692C111.605 158.532 111.942 158.239 112.131 157.815C112.308 157.395 112.308 156.924 112.132 156.404L110.159 150.569C110.137 150.504 110.143 150.437 110.178 150.368C110.203 150.316 110.249 150.279 110.314 150.257L112.602 149.499C112.667 149.477 112.732 149.477 112.798 149.499C112.854 149.538 112.894 149.59 112.916 149.655L116.15 159.217C116.172 159.282 116.17 159.34 116.144 159.392C116.11 159.462 116.06 159.507 115.995 159.529L113.707 160.287C113.642 160.309 113.581 160.3 113.524 160.261C113.459 160.239 113.415 160.196 113.393 160.131L113.162 159.448C113.149 159.409 113.127 159.387 113.097 159.383C113.066 159.379 113.049 159.391 113.045 159.422C112.765 160.354 112.098 160.994 111.042 161.345Z" fill="white"/>
<path d="M99.5246 158.086C99.5927 158.078 99.6567 158.09 99.7165 158.124C99.7645 158.173 99.7929 158.232 99.8018 158.3L100.061 160.281C100.069 160.35 100.056 160.407 100.021 160.453C99.9732 160.514 99.9155 160.549 99.8474 160.558L93.1657 161.413C93.0976 161.422 93.0395 161.402 92.9916 161.352C92.9317 161.319 92.8974 161.268 92.8885 161.199L92.6297 159.218C92.6208 159.15 92.6401 159.085 92.6874 159.024C92.723 158.978 92.7748 158.95 92.8429 158.942L99.5246 158.086Z" fill="white"/>
<path d="M81.2769 153.829C82.331 153.913 83.2452 154.193 84.0194 154.668C84.78 155.142 85.356 155.766 85.7475 156.542C86.1242 157.33 86.2729 158.209 86.1937 159.181L85.4305 168.544C85.425 168.612 85.4 168.665 85.3555 168.703C85.2963 168.753 85.2325 168.776 85.164 168.77L82.7615 168.579C82.693 168.573 82.6405 168.541 82.6039 168.483C82.5525 168.438 82.5296 168.381 82.5352 168.312L83.3 158.929C83.3592 158.204 83.1881 157.598 82.7868 157.111C82.3708 156.637 81.8 156.371 81.0744 156.313C80.3489 156.255 79.7492 156.428 79.2754 156.831C78.7869 157.246 78.513 157.817 78.4539 158.542L77.689 167.925C77.6834 167.994 77.6584 168.047 77.614 168.085C77.5548 168.135 77.491 168.157 77.4225 168.152L75.02 167.96C74.9515 167.955 74.899 167.923 74.8624 167.865C74.811 167.819 74.7881 167.762 74.7936 167.694L75.5568 158.331C75.636 157.36 75.9322 156.515 76.4453 155.799C76.9437 155.094 77.6134 154.569 78.4546 154.223C79.282 153.876 80.2228 153.744 81.2769 153.829Z" fill="white"/>
<path d="M73.7205 152.966C73.7877 152.98 73.8439 153.013 73.8891 153.064C73.918 153.127 73.9254 153.191 73.9111 153.258L71.0164 166.88C71.0021 166.947 70.9705 166.996 70.9216 167.028C70.8564 167.071 70.7902 167.085 70.723 167.071L68.3634 166.58C68.2962 166.566 68.2481 166.528 68.2192 166.466C68.174 166.414 68.1585 166.355 68.1728 166.288L71.0675 152.666C71.0818 152.599 71.1215 152.544 71.1867 152.502C71.2356 152.47 71.2937 152.461 71.3609 152.475L73.7205 152.966Z" fill="white"/>
<path d="M61.0907 158.417C61.1108 158.351 61.1553 158.3 61.224 158.263C61.2755 158.236 61.3342 158.232 61.3999 158.252L63.2938 158.821C63.3595 158.841 63.4025 158.818 63.4226 158.752L64.7034 154.577C64.8363 154.144 64.8495 153.796 64.743 153.535C64.6233 153.27 64.3662 153.078 63.9717 152.959L63.3206 152.763C63.2549 152.743 63.2103 152.701 63.187 152.637C63.1465 152.582 63.1363 152.521 63.1564 152.456L63.7304 150.585C63.7747 150.44 63.8798 150.379 64.0456 150.4C64.6061 150.54 65.0046 150.645 65.2414 150.716C66.333 151.045 67.094 151.467 67.5245 151.984C67.9509 152.513 68.0177 153.279 67.7247 154.281L66.1056 159.559C66.0855 159.625 66.1083 159.667 66.174 159.687L67.2985 160.025C67.3643 160.045 67.4174 160.082 67.4579 160.138C67.4813 160.202 67.4829 160.267 67.4627 160.333L66.925 162.085C66.9049 162.151 66.8691 162.198 66.8175 162.225C66.7488 162.262 66.6816 162.27 66.6158 162.251L65.4913 161.912C65.4256 161.893 65.3826 161.916 65.3625 161.981L64.6435 164.325C64.6234 164.391 64.5876 164.437 64.536 164.465C64.4673 164.501 64.4001 164.51 64.3343 164.49L62.1248 163.826C62.0591 163.806 62.0145 163.764 61.9912 163.7C61.9506 163.644 61.9404 163.584 61.9606 163.518L62.6795 161.175C62.6997 161.109 62.6769 161.066 62.6111 161.047L60.7172 160.477C60.6515 160.457 60.6069 160.415 60.5836 160.351C60.5431 160.296 60.5329 160.235 60.553 160.17L61.0907 158.417Z" fill="white"/>
<path d="M56.6195 160.147C57.0528 160.32 57.3588 160.606 57.5375 161.003C57.6982 161.408 57.6901 161.827 57.5132 162.259C57.331 162.704 57.0425 163.01 56.6476 163.177C56.2528 163.344 55.8323 163.338 55.3862 163.159C54.9401 162.98 54.6341 162.694 54.4682 162.302C54.3023 161.91 54.3104 161.491 54.4925 161.047C54.6694 160.614 54.9643 160.311 55.3772 160.136C55.772 159.969 56.1861 159.973 56.6195 160.147ZM62.2314 149.702C62.2952 149.728 62.3447 149.77 62.3801 149.829C62.3975 149.895 62.3932 149.96 62.3672 150.023L58.5346 159.384C58.5086 159.447 58.4686 159.49 58.4148 159.513C58.343 159.543 58.2752 159.546 58.2115 159.52L55.9747 158.623C55.911 158.597 55.8704 158.551 55.853 158.485C55.8176 158.426 55.8129 158.365 55.8389 158.302L59.6715 148.941C59.6976 148.878 59.7465 148.831 59.8183 148.801C59.8721 148.778 59.9309 148.779 59.9946 148.805L62.2314 149.702Z" fill="white"/>
<path d="M41.8672 151.271C40.9477 150.722 40.3966 150.016 40.2139 149.155C40.0312 148.294 40.2437 147.365 40.8513 146.369L44.4009 140.547C44.4367 140.488 44.4924 140.449 44.5682 140.431C44.625 140.417 44.6829 140.427 44.7418 140.463L46.8107 141.699C46.8697 141.734 46.912 141.783 46.9377 141.847C46.9445 141.915 46.93 141.978 46.8943 142.037L43.6771 147.313C43.384 147.794 43.2754 148.249 43.3514 148.679C43.4274 149.108 43.6717 149.446 44.0843 149.692C44.4969 149.939 44.9187 149.999 45.3496 149.873C45.7806 149.746 46.139 149.448 46.425 148.979L49.6528 143.685C49.6886 143.627 49.7443 143.588 49.8201 143.569C49.8769 143.555 49.9348 143.566 49.9937 143.601L52.045 144.827C52.1039 144.862 52.1463 144.911 52.172 144.975C52.1787 145.043 52.1643 145.106 52.1285 145.165L48.9114 150.441C48.6254 150.91 48.5263 151.363 48.6141 151.799C48.6947 152.247 48.9413 152.595 49.3539 152.841C49.7312 153.067 50.1174 153.146 50.5126 153.078C50.896 153.003 51.2328 152.78 51.523 152.41L54.9225 146.834C54.9582 146.776 55.014 146.737 55.0897 146.718C55.1465 146.704 55.2044 146.715 55.2634 146.75L57.3323 147.986C57.3912 148.021 57.4336 148.071 57.4593 148.134C57.466 148.202 57.4516 148.265 57.4158 148.324L52.1612 156.943C52.1254 157.001 52.0791 157.038 52.0223 157.052C51.9466 157.07 51.8792 157.062 51.8203 157.027L49.7513 155.79C49.6924 155.755 49.6595 155.704 49.6528 155.636C49.6271 155.572 49.6321 155.511 49.6678 155.453L50.0861 154.767C50.1075 154.731 50.11 154.701 50.0936 154.675C50.0772 154.649 50.0464 154.647 50.0014 154.668C49.082 155.095 48.1153 155.005 47.1015 154.399C46.512 154.047 46.0743 153.617 45.7882 153.11C45.4904 152.596 45.363 152.04 45.406 151.442C45.4135 151.351 45.3723 151.326 45.2822 151.368C44.7298 151.694 44.1639 151.844 43.5848 151.818C42.9938 151.784 42.4213 151.602 41.8672 151.271Z" fill="white"/>
<path d="M33.3264 144.384C32.6619 143.788 32.1755 143.139 31.8674 142.439C31.55 141.748 31.4289 141.077 31.5043 140.425C31.5694 139.764 31.8245 139.19 32.2695 138.704L36.9842 133.552C37.0305 133.502 37.0927 133.474 37.1707 133.47C37.2292 133.468 37.284 133.489 37.3351 133.535L39.1293 135.144C39.1804 135.19 39.2125 135.247 39.2256 135.314C39.2192 135.382 39.1928 135.441 39.1464 135.492L38.6875 135.993C38.6597 136.024 38.6513 136.053 38.6625 136.081C38.6737 136.11 38.7034 136.118 38.7517 136.106C39.691 135.934 40.636 136.274 41.5868 137.127C42.3842 137.842 42.8521 138.613 42.9905 139.438C43.1289 140.263 42.8551 141.05 42.169 141.8C41.455 142.58 40.6273 142.935 39.6859 142.866C38.7351 142.806 37.7486 142.318 36.7263 141.401L35.1621 139.998C35.111 139.952 35.0622 139.954 35.0159 140.005L34.7099 140.339C34.4039 140.674 34.2698 141.024 34.3073 141.39C34.3356 141.765 34.5543 142.137 34.9632 142.504C35.2801 142.788 35.5969 142.971 35.9136 143.052C36.22 143.124 36.4967 143.086 36.7434 142.938C36.8761 142.854 36.9889 142.863 37.0819 142.965L38.7149 144.873C38.819 145.003 38.8335 145.099 38.7584 145.161C38.3281 145.549 37.8071 145.783 37.1954 145.862C36.5734 145.931 35.929 145.842 35.2621 145.594C34.585 145.337 33.9398 144.934 33.3264 144.384ZM39.5438 138.2C39.1042 137.806 38.6244 137.588 38.1045 137.546C37.5845 137.503 37.1576 137.665 36.8239 138.029L36.3232 138.577C36.2768 138.627 36.2792 138.675 36.3303 138.721L37.4344 139.712C37.8945 140.124 38.3362 140.364 38.7597 140.43C39.1729 140.487 39.5232 140.358 39.8106 140.044C40.0609 139.771 40.1632 139.466 40.1173 139.13C40.0621 138.803 39.8709 138.494 39.5438 138.2Z" fill="white"/>
<path d="M25.9356 133.34C25.9878 133.296 26.0528 133.276 26.1307 133.282C26.1891 133.287 26.2408 133.315 26.2859 133.366L27.5842 134.858C27.6292 134.91 27.6779 134.914 27.7301 134.869L31.0528 132.035C31.3976 131.741 31.595 131.455 31.645 131.178C31.686 130.89 31.5712 130.591 31.3008 130.28L30.8545 129.767C30.8094 129.716 30.7942 129.656 30.809 129.59C30.8043 129.522 30.828 129.465 30.8803 129.421L32.3692 128.151C32.4842 128.053 32.6062 128.057 32.7353 128.163C33.1348 128.581 33.4157 128.882 33.578 129.069C34.3263 129.929 34.7442 130.691 34.8317 131.357C34.9088 132.031 34.5548 132.712 33.7697 133.4L29.5693 136.982C29.5171 137.027 29.5135 137.075 29.5586 137.127L30.3294 138.013C30.3745 138.065 30.3994 138.125 30.4041 138.193C30.3894 138.259 30.3559 138.315 30.3036 138.36L28.9087 139.549C28.8565 139.594 28.8012 139.614 28.7428 139.61C28.6649 139.604 28.6034 139.575 28.5584 139.523L27.7875 138.638C27.7425 138.586 27.6938 138.582 27.6415 138.627L25.7765 140.218C25.7242 140.262 25.6689 140.282 25.6105 140.278C25.5326 140.272 25.4712 140.243 25.4261 140.192L23.9115 138.451C23.8664 138.399 23.8512 138.34 23.866 138.273C23.8613 138.205 23.885 138.149 23.9373 138.104L25.8024 136.513C25.8546 136.469 25.8582 136.421 25.8131 136.369L24.5149 134.877C24.4698 134.825 24.4546 134.766 24.4694 134.699C24.4646 134.631 24.4884 134.575 24.5406 134.53L25.9356 133.34Z" fill="white"/>
<path d="M21.2719 122.825C21.6626 122.47 22.1355 122.128 22.6906 121.797C22.8361 121.718 22.9546 121.747 23.0462 121.884L26.5844 127.175C26.6302 127.244 26.6741 127.248 26.7163 127.187C26.9231 127.003 27.1109 126.789 27.2795 126.547C27.7243 125.829 27.6414 125.013 27.0307 124.1C26.5306 123.377 25.8465 122.996 24.9783 122.957C24.8788 122.957 24.81 122.928 24.7718 122.871C24.7489 122.837 24.7452 122.782 24.7606 122.706L25.1595 120.671C25.1787 120.577 25.2114 120.514 25.2573 120.484C25.2803 120.469 25.3415 120.462 25.4409 120.462C26.1638 120.53 26.8558 120.775 27.5169 121.195C28.1666 121.623 28.728 122.191 29.2013 122.899C29.8578 123.881 30.191 124.861 30.2011 125.839C30.2035 126.807 29.9019 127.702 29.2963 128.526C28.8823 129.142 28.2101 129.755 27.2797 130.365C26.6479 130.779 26.0336 131.058 25.4366 131.203C24.4455 131.475 23.4912 131.444 22.5736 131.109C21.6485 130.763 20.8844 130.139 20.2813 129.237C19.518 128.096 19.2404 126.964 19.4486 125.842C19.6492 124.709 20.2569 123.704 21.2719 122.825ZM22.3719 127.842C22.8528 128.562 23.5084 128.813 24.3388 128.598C24.5187 128.545 24.7292 128.465 24.9703 128.356C25.0278 128.319 25.0374 128.271 24.9992 128.214L23.0183 125.252C22.9725 125.183 22.9285 125.179 22.8864 125.24C22.5914 125.515 22.4497 125.649 22.4612 125.641C22.1853 125.97 22.0432 126.326 22.035 126.709C22.0077 127.088 22.12 127.466 22.3719 127.842Z" fill="white"/>
<path d="M24.5179 114.492C24.9119 115.323 25.1375 116.104 25.1949 116.835C25.2522 117.565 25.1514 118.203 24.8926 118.747C24.6278 119.279 24.2277 119.669 23.692 119.917L23.5052 120.004C23.4429 120.033 23.3843 120.038 23.3293 120.018C23.2559 119.991 23.2046 119.947 23.1752 119.885L22.1961 117.819C22.1667 117.756 22.1681 117.695 22.2003 117.635C22.2142 117.568 22.2522 117.52 22.3145 117.491L22.3332 117.482C22.6072 117.355 22.7733 117.096 22.8315 116.706C22.8713 116.309 22.7825 115.881 22.5649 115.422C22.365 115 22.1223 114.696 21.8369 114.51C21.5391 114.331 21.2656 114.299 21.0165 114.414C20.7922 114.519 20.677 114.708 20.6708 114.984C20.6645 115.259 20.7196 115.68 20.8361 116.247C20.963 116.9 21.0373 117.425 21.0591 117.824C21.1614 118.746 21.1249 119.535 20.9498 120.192C20.7746 120.848 20.3134 121.35 19.566 121.697C18.6443 122.125 17.748 122.11 16.8773 121.651C15.9882 121.186 15.2643 120.364 14.7057 119.185C14.3294 118.39 14.1309 117.634 14.1103 116.917C14.0771 116.206 14.2146 115.582 14.5226 115.045C14.8247 114.496 15.2684 114.086 15.8539 113.814C15.9161 113.785 15.984 113.784 16.0573 113.81C16.1123 113.83 16.1545 113.871 16.1839 113.933L17.1276 115.925C17.157 115.987 17.1648 116.052 17.151 116.119C17.1188 116.179 17.0716 116.224 17.0093 116.252C16.7353 116.38 16.5724 116.629 16.5208 117.002C16.4634 117.361 16.5434 117.771 16.761 118.23C16.955 118.64 17.1885 118.94 17.4614 119.131C17.7344 119.323 18.0017 119.357 18.2632 119.236C18.5124 119.12 18.6404 118.909 18.6474 118.603C18.6484 118.285 18.5764 117.796 18.4311 117.137C18.4038 116.983 18.3739 116.807 18.3414 116.611C18.2965 116.419 18.2581 116.21 18.2263 115.983C18.0704 114.98 18.0774 114.129 18.2474 113.429C18.4173 112.729 18.8947 112.197 19.6794 111.833C20.6012 111.405 21.4971 111.436 22.3671 111.925C23.2189 112.408 23.9358 113.263 24.5179 114.492Z" fill="white"/>
<path d="M19.914 100.862C20.1605 101.933 20.2087 102.908 20.0587 103.786C19.8953 104.668 19.5496 105.4 19.0216 105.984C18.4772 106.557 17.783 106.939 16.939 107.13L16.4969 107.23C16.4299 107.245 16.3717 107.237 16.3223 107.206C16.2564 107.164 16.2157 107.11 16.2003 107.043L15.6734 104.755C15.658 104.688 15.6725 104.628 15.7168 104.576C15.7447 104.513 15.7921 104.474 15.8591 104.459L16.1605 104.391C16.6964 104.27 17.0948 103.92 17.3559 103.34C17.6036 102.763 17.6304 102.053 17.4363 101.21C17.273 100.501 17.0039 100.006 16.6291 99.7241C16.2408 99.4457 15.8257 99.3563 15.3836 99.4561C15.0621 99.5286 14.8188 99.6962 14.6538 99.9587C14.4753 100.224 14.3489 100.562 14.2744 100.973C14.1834 101.374 14.083 102.009 13.9732 102.879C13.8715 103.845 13.7323 104.679 13.5556 105.38C13.3759 106.069 13.0606 106.689 12.61 107.241C12.1429 107.783 11.5007 108.146 10.6835 108.33C9.87972 108.512 9.12865 108.463 8.43029 108.184C7.73192 107.905 7.13725 107.434 6.64626 106.771C6.15527 106.107 5.79885 105.293 5.577 104.33C5.34282 103.313 5.31568 102.369 5.49559 101.497C5.67241 100.613 6.0382 99.8755 6.59295 99.2858C7.13121 98.6856 7.82903 98.2888 8.68641 98.0953L8.98783 98.0273C9.05481 98.0122 9.12126 98.0254 9.18717 98.0668C9.2366 98.0979 9.26902 98.1469 9.28443 98.2138L9.81596 100.522C9.83136 100.589 9.82513 100.654 9.79727 100.717C9.75293 100.769 9.69726 100.803 9.63028 100.818L9.46952 100.854C8.90687 100.981 8.48522 101.322 8.20457 101.879C7.90744 102.424 7.85131 103.099 8.03619 103.902C8.18101 104.531 8.42899 104.996 8.78011 105.296C9.12816 105.584 9.53662 105.675 10.0055 105.569C10.3404 105.493 10.5986 105.33 10.7801 105.077C10.9586 104.812 11.0954 104.457 11.1905 104.013C11.2691 103.559 11.3639 102.869 11.4748 101.943C11.6043 100.914 11.7414 100.102 11.8861 99.5062C12.0277 98.897 12.3171 98.3179 12.7544 97.7687C13.1752 97.2091 13.8075 96.8341 14.6515 96.6437C15.9108 96.3595 17.0151 96.596 17.9646 97.3532C18.9006 98.1134 19.5504 99.2831 19.914 100.862Z" fill="white"/>
<path d="M7.30794 82.9783C7.28671 81.9073 7.59279 81.0634 8.22616 80.4468C8.85953 79.8301 9.75977 79.5104 10.9269 79.4877L17.7442 79.3553C17.8129 79.354 17.8752 79.3802 17.9312 79.4341C17.9732 79.4745 17.9949 79.529 17.9963 79.5976L18.044 82.0074C18.0454 82.076 18.026 82.1382 17.9859 82.1939C17.9318 82.2362 17.8704 82.258 17.8018 82.2593L11.6229 82.3793C11.06 82.3903 10.6166 82.5431 10.2927 82.8379C9.96892 83.1326 9.81177 83.5203 9.8213 84.0008C9.83082 84.4814 10.0033 84.8695 10.3389 85.1652C10.6744 85.4609 11.1168 85.6034 11.666 85.5927L17.8654 85.4723C17.9341 85.471 17.9964 85.4972 18.0524 85.5511C18.0944 85.5915 18.1161 85.646 18.1175 85.7146L18.1648 88.1038C18.1662 88.1724 18.1468 88.2346 18.1067 88.2903C18.0526 88.3326 17.9912 88.3544 17.9226 88.3557L11.7437 88.4757C11.1945 88.4864 10.7581 88.646 10.4346 88.9545C10.0973 89.2632 9.93341 89.6579 9.94294 90.1384C9.95165 90.5778 10.0894 90.946 10.3563 91.243C10.6229 91.5263 10.9902 91.6909 11.4581 91.7367L17.9871 91.6099C18.0557 91.6086 18.1181 91.6348 18.1741 91.6887C18.2161 91.7291 18.2378 91.7836 18.2391 91.8522L18.2869 94.262C18.2882 94.3306 18.2689 94.3928 18.2288 94.4485C18.1747 94.4908 18.1133 94.5126 18.0446 94.5139L7.95253 94.71C7.88388 94.7113 7.82855 94.6918 7.78654 94.6514C7.73053 94.5975 7.70184 94.5363 7.70048 94.4676L7.65272 92.0579C7.65136 91.9892 7.67774 91.9338 7.73184 91.8915C7.77195 91.8358 7.82633 91.8073 7.89498 91.8059L8.69823 91.7903C8.73942 91.7895 8.76661 91.7753 8.7798 91.7475C8.79298 91.7198 8.77871 91.6926 8.73697 91.6659C7.88824 91.1193 7.45217 90.2555 7.42877 89.0747C7.41516 88.3881 7.5475 87.788 7.82577 87.2744C8.10378 86.747 8.50781 86.3409 9.03786 86.0558C9.11943 86.0131 9.11848 85.965 9.03501 85.9117C8.46606 85.6205 8.03924 85.2236 7.75456 84.7209C7.4696 84.2045 7.32073 83.6236 7.30794 82.9783Z" fill="white"/>
<path d="M7.14491 75.0413C7.08039 75.5037 6.87664 75.8709 6.53365 76.1428C6.17895 76.3992 5.77028 76.4958 5.30765 76.4326C4.83142 76.3675 4.4645 76.1648 4.2069 75.8246C3.9493 75.4845 3.8537 75.0764 3.92012 74.6003C3.98653 74.1243 4.19029 73.7571 4.53138 73.4988C4.87247 73.2405 5.28114 73.1439 5.75738 73.209C6.22 73.2723 6.58597 73.4817 6.85528 73.8373C7.11289 74.1775 7.20943 74.5788 7.14491 75.0413ZM18.6487 77.8617C18.6392 77.9297 18.6103 77.9881 18.5619 78.037C18.5017 78.0703 18.4377 78.0824 18.3696 78.0731L8.34827 76.7028C8.28024 76.6935 8.22866 76.6656 8.19353 76.6193C8.14669 76.5574 8.12802 76.4925 8.1375 76.4245L8.47053 74.0374C8.48001 73.9694 8.51482 73.9187 8.57494 73.8853C8.62335 73.8365 8.68157 73.8167 8.7496 73.8261L18.771 75.1963C18.839 75.2056 18.8964 75.2412 18.9433 75.303C18.9784 75.3494 18.9912 75.4066 18.9817 75.4746L18.6487 77.8617Z" fill="white"/>
<path d="M19.4351 73.0064C19.4208 73.0736 19.3878 73.1299 19.3361 73.1752C19.2737 73.2043 19.2089 73.2119 19.1417 73.1979L5.5085 70.3593C5.44128 70.3453 5.39178 70.3139 5.36 70.2652C5.31764 70.2003 5.30359 70.1342 5.31786 70.0671L5.8187 67.7095C5.83297 67.6423 5.87127 67.5942 5.93362 67.5651C5.98537 67.5197 6.04485 67.5041 6.11208 67.5181L19.7453 70.3567C19.8125 70.3707 19.8673 70.4101 19.9097 70.4751C19.9415 70.5238 19.9502 70.5817 19.9359 70.6489L19.4351 73.0064Z" fill="white"/>
<path d="M17.2383 57.789C17.7603 57.8733 18.3237 58.029 18.9284 58.256C19.0806 58.3203 19.1307 58.4306 19.0784 58.5869L17.0606 64.624C17.0345 64.7022 17.0584 64.7389 17.1324 64.7343C17.4065 64.7807 17.6914 64.7946 17.9873 64.7759C18.8313 64.6766 19.4275 64.106 19.7757 63.064C20.0413 62.2261 19.9218 61.4572 19.4173 60.7572C19.3564 60.6795 19.3368 60.608 19.3586 60.5429C19.3717 60.5038 19.413 60.4668 19.4826 60.4318L21.3427 59.4804C21.4297 59.4367 21.4994 59.4233 21.5516 59.4404C21.5777 59.449 21.6212 59.4921 21.682 59.5699C22.0735 60.175 22.3061 60.8654 22.3799 61.641C22.4406 62.4124 22.336 63.2018 22.0661 64.0094C21.6917 65.1295 21.1194 65.997 20.3493 66.6118C19.5834 67.2135 18.6871 67.5341 17.6604 67.5735C16.9164 67.6332 16.0159 67.49 14.9587 67.1437C14.2409 66.9085 13.6406 66.6035 13.1578 66.2285C12.3313 65.6254 11.768 64.8629 11.4681 63.9409C11.1724 63.0059 11.1965 62.0239 11.5405 60.9949C11.9758 59.6924 12.7026 58.7744 13.7207 58.2408C14.7432 57.6943 15.9157 57.5437 17.2383 57.789ZM13.9353 61.7577C13.6611 62.5783 13.8654 63.245 14.5483 63.7577C14.7006 63.8654 14.8942 63.9794 15.1291 64.0997C15.1943 64.1211 15.2378 64.0992 15.2596 64.0341L16.3893 60.6541C16.4154 60.5759 16.3915 60.5392 16.3175 60.5438C15.9173 60.485 15.7237 60.4577 15.7367 60.462C15.306 60.4509 14.9362 60.561 14.6273 60.7922C14.3096 61.006 14.079 61.3279 13.9353 61.7577Z" fill="white"/>
<path d="M25.7988 54.7205C25.7629 54.779 25.7129 54.8211 25.6489 54.8467C25.5803 54.8535 25.5165 54.8392 25.4577 54.8039L13.523 47.6284C13.4642 47.5931 13.4279 47.5472 13.4141 47.4908C13.3957 47.4157 13.4045 47.3489 13.4404 47.2904L16.1333 42.9005C16.6719 42.0225 17.3011 41.3513 18.021 40.8868C18.7364 40.4035 19.4878 40.1503 20.2754 40.127C21.0629 40.1038 21.8275 40.3151 22.569 40.7609L27.4417 43.6905C28.1832 44.1363 28.7251 44.7105 29.0675 45.4131C29.4098 46.1156 29.5352 46.8961 29.4437 47.7544C29.3476 48.5939 29.0302 49.4527 28.4917 50.3306L25.7988 54.7205ZM24.9638 51.1179C25.0226 51.1533 25.07 51.1417 25.1059 51.0832L26.4093 48.9585C26.7396 48.42 26.8229 47.8772 26.6591 47.33C26.5024 46.7712 26.1217 46.3019 25.5169 45.9223L21.4563 43.4809C20.8442 43.1129 20.2516 42.989 19.6785 43.1091C19.1126 43.2175 18.6573 43.5527 18.3126 44.1146L17.02 46.2217C16.9841 46.2803 16.9956 46.3272 17.0544 46.3626L24.9638 51.1179Z" fill="white"/>
<path d="M33.5286 33.5997C33.9797 33.8762 34.4419 34.2342 34.915 34.6738C35.0313 34.7911 35.0354 34.9119 34.9273 35.0362L30.7488 39.8382C30.6948 39.9003 30.7028 39.9433 30.7731 39.9672C31.0092 40.1143 31.2677 40.2356 31.5488 40.3309C32.3684 40.5606 33.1388 40.261 33.86 39.4322C34.4265 38.7602 34.61 38.0053 34.4107 37.1675C34.384 37.0726 34.3932 36.9993 34.4383 36.9475C34.4654 36.9164 34.5178 36.8979 34.5957 36.8921L36.6821 36.7223C36.7795 36.7151 36.849 36.7293 36.8908 36.7649C36.9117 36.7827 36.9355 36.8391 36.9621 36.934C37.0931 37.6413 37.0443 38.3668 36.8159 39.1105C36.577 39.8453 36.1781 40.5338 35.6191 41.1762C34.8438 42.0671 33.982 42.6497 33.0336 42.9237C32.0942 43.1874 31.1415 43.1421 30.1757 42.7876C29.4639 42.5596 28.6848 42.0847 27.8384 41.3629C27.2637 40.8727 26.8245 40.3628 26.5209 39.8331C25.9863 38.9621 25.7565 38.0442 25.8315 37.0794C25.9155 36.1042 26.3136 35.2074 27.0258 34.3889C27.9273 33.3529 28.9515 32.7825 30.0985 32.6778C31.2544 32.5626 32.3978 32.87 33.5286 33.5997ZM28.9515 36.0042C28.3836 36.6569 28.3177 37.3497 28.7539 38.0827C28.8537 38.24 28.9894 38.4189 29.1609 38.6193C29.2131 38.6638 29.2618 38.6602 29.3068 38.6084L31.6462 35.9199C31.7003 35.8577 31.6922 35.8147 31.6219 35.7909C31.2738 35.5843 31.105 35.4854 31.1154 35.4943C30.7208 35.3202 30.3363 35.281 29.9617 35.3767C29.5858 35.4531 29.249 35.6623 28.9515 36.0042Z" fill="white"/>
<path d="M42.5296 34.4779C41.8317 35.0775 41.1362 35.5028 40.4434 35.754C39.7505 36.0052 39.1043 36.0805 38.5049 35.9799C37.9158 35.8704 37.4267 35.5936 37.0375 35.1494L36.9017 34.9945C36.8565 34.9429 36.8359 34.8881 36.84 34.8303C36.8454 34.7532 36.8742 34.6923 36.9263 34.6475L38.6608 33.1576C38.7129 33.1129 38.7727 33.0977 38.8402 33.1122C38.909 33.1074 38.966 33.1308 39.0113 33.1824L39.0249 33.1979C39.224 33.4252 39.521 33.514 39.9159 33.4645C40.3121 33.3957 40.7029 33.1958 41.0884 32.8647C41.4426 32.5604 41.6702 32.2472 41.7713 31.925C41.8634 31.5925 41.8189 31.323 41.6378 31.1164C41.4749 30.9305 41.2589 30.8716 40.99 30.9397C40.721 31.0078 40.3277 31.1737 39.81 31.4373C39.2118 31.7339 38.7222 31.9463 38.3414 32.0743C37.4755 32.4198 36.6998 32.5973 36.0143 32.6068C35.3288 32.6164 34.7144 32.3113 34.1713 31.6916C33.5015 30.9273 33.2689 30.0681 33.4735 29.1139C33.6794 28.1404 34.2772 27.2287 35.2669 26.3786C35.9337 25.8058 36.6121 25.4132 37.3022 25.2005C37.9833 24.9776 38.6267 24.9408 39.2325 25.0903C39.8487 25.2308 40.3695 25.5438 40.7949 26.0292C40.8402 26.0809 40.8601 26.1453 40.8546 26.2224C40.8505 26.2802 40.8224 26.3315 40.7704 26.3762L39.0983 27.8125C39.0462 27.8572 38.9858 27.882 38.9169 27.8868C38.8495 27.8723 38.7931 27.8393 38.7479 27.7876C38.5487 27.5604 38.2615 27.4722 37.8861 27.5231C37.5211 27.5651 37.1459 27.7516 36.7605 28.0827C36.4167 28.378 36.1897 28.6816 36.0796 28.9934C35.9694 29.3053 36.0094 29.5697 36.1995 29.7866C36.3805 29.9931 36.6204 30.0586 36.9193 29.9829C37.2286 29.8982 37.6831 29.698 38.2827 29.382C38.4244 29.3146 38.5863 29.2389 38.7684 29.1549C38.9414 29.0606 39.1339 28.9677 39.3458 28.8762C40.2755 28.4577 41.1033 28.2355 41.8292 28.2094C42.555 28.1833 43.203 28.4956 43.7733 29.1463C44.4431 29.9106 44.6608 30.7736 44.4263 31.7354C44.1932 32.6778 43.561 33.592 42.5296 34.4779Z" fill="white"/>
<path d="M41.1336 20.5855C40.7491 20.8505 40.3399 20.949 39.906 20.881C39.4756 20.7941 39.1261 20.5596 38.8575 20.1777C38.5811 19.7844 38.4803 19.3785 38.5553 18.96C38.6303 18.5414 38.8657 18.1957 39.2615 17.9229C39.6573 17.6502 40.0665 17.5517 40.4891 17.6274C40.9116 17.7031 41.2611 17.9376 41.5376 18.3308C41.8062 18.7128 41.9012 19.1226 41.8228 19.5602C41.7478 19.9788 41.5181 20.3206 41.1336 20.5855ZM46.893 30.926C46.8365 30.965 46.7737 30.9832 46.7048 30.9806C46.6393 30.9591 46.5868 30.9202 46.5473 30.864L40.7298 22.5899C40.6903 22.5337 40.6757 22.4771 40.6859 22.42C40.6995 22.3439 40.7346 22.2864 40.7912 22.2474L42.7758 20.8798C42.8323 20.8408 42.8934 20.8321 42.9589 20.8537C43.0278 20.8562 43.082 20.8856 43.1215 20.9417L48.939 29.2159C48.9785 29.2721 48.9914 29.3382 48.9778 29.4143C48.9676 29.4714 48.9342 29.5194 48.8776 29.5584L46.893 30.926Z" fill="white"/>
<path d="M51.6198 16.0678C51.587 16.0075 51.5789 15.9496 51.5956 15.894C51.6179 15.8199 51.6593 15.7667 51.7199 15.7344L53.8473 14.6016C53.9079 14.5693 53.9695 14.5677 54.0321 14.5966C54.1003 14.6069 54.1508 14.6423 54.1835 14.7026L58.668 22.9567C59.5268 24.5375 59.6792 25.9111 59.1251 27.0774C58.5831 28.2373 57.5909 29.2013 56.1484 29.9695C55.7241 30.1954 55.235 30.4169 54.6809 30.6342C54.5532 30.6866 54.4499 30.6405 54.3713 30.4957L53.4311 28.5925C53.3458 28.4357 53.3946 28.3241 53.5774 28.2579C54.0532 28.0979 54.4729 27.9211 54.8365 27.7275C55.6123 27.3143 56.1145 26.8291 56.3431 26.2718C56.5838 25.708 56.5009 25.052 56.0944 24.3038C56.0747 24.2676 56.0527 24.256 56.0285 24.2689C55.9977 24.2697 55.9767 24.2886 55.9656 24.3257C55.7738 25.0657 55.2354 25.6714 54.3505 26.1426C53.5626 26.5621 52.7337 26.7624 51.8637 26.7433C50.9993 26.7057 50.1983 26.3388 49.4605 25.6425C48.9771 25.1843 48.4961 24.5147 48.0175 23.6337C47.5061 22.6925 47.1989 21.8681 47.0959 21.1606C46.9505 20.289 47.0596 19.4685 47.4231 18.6993C47.7866 17.9301 48.3684 17.3324 49.1684 16.9064C50.1018 16.4094 50.9678 16.3061 51.7664 16.5966C51.8037 16.6078 51.8345 16.6069 51.8588 16.594C51.8764 16.5691 51.8755 16.5385 51.8558 16.5023L51.6198 16.0678ZM54.6508 21.9919C54.5511 21.5783 54.3308 21.0577 53.9898 20.4302C53.7866 20.0561 53.6171 19.7729 53.4814 19.5807C53.3457 19.3885 53.1984 19.218 53.0394 19.0692C52.7533 18.8015 52.4305 18.6389 52.0711 18.5814C51.7051 18.5118 51.3342 18.577 50.9584 18.7771C50.5947 18.9708 50.3414 19.2379 50.1983 19.5786C50.0486 19.9073 50.0017 20.2668 50.0575 20.6571C50.0844 21.1095 50.2651 21.6434 50.5995 22.2589C50.9666 22.9346 51.3016 23.3786 51.6044 23.5908C51.8905 23.8585 52.2227 24.0239 52.6008 24.0871C52.9845 24.1317 53.3642 24.0539 53.74 23.8538C54.1279 23.6473 54.3967 23.3797 54.5464 23.0511C54.6895 22.7104 54.7243 22.3573 54.6508 21.9919Z" fill="white"/>
<path d="M61.9841 11.4142C63.0222 11.0545 63.9713 11.0817 64.8315 11.4958C65.6916 11.91 66.314 12.6608 66.6985 13.7485L68.9507 20.1188C68.9736 20.1836 68.9683 20.2508 68.9347 20.3206C68.9095 20.3729 68.8644 20.4104 68.7996 20.4328L66.5222 21.222C66.4573 21.2445 66.3921 21.2453 66.3264 21.2244C66.2692 21.1861 66.2291 21.1346 66.2062 21.0699L64.1531 15.2627C63.97 14.7448 63.672 14.3757 63.2591 14.1554C62.8592 13.9306 62.4192 13.9014 61.939 14.0678C61.4589 14.2342 61.1268 14.5309 60.9428 14.958C60.7718 15.3807 60.7778 15.8509 60.9609 16.3689L63.0141 22.176C63.0369 22.2407 63.0316 22.308 62.998 22.3778C62.9728 22.4301 62.9278 22.4675 62.8629 22.49L60.5855 23.2791C60.5207 23.3016 60.4554 23.3024 60.3898 23.2816C60.3325 23.2433 60.2925 23.1918 60.2696 23.127L56.9049 13.6103C56.882 13.5456 56.8832 13.487 56.9084 13.4347C56.942 13.3649 56.9912 13.3188 57.0561 13.2963L59.3334 12.5072C59.3983 12.4847 59.4594 12.4926 59.5166 12.5309C59.5823 12.5517 59.6265 12.5945 59.6494 12.6593L59.8897 13.339C59.9035 13.3779 59.9256 13.3993 59.9561 13.4032C59.9867 13.4072 60.0038 13.394 60.0077 13.3636C60.2742 12.4282 60.933 11.7785 61.9841 11.4142Z" fill="white"/>
<path d="M73.5487 14.5179C73.4808 14.5275 73.4166 14.5158 73.3563 14.4827C73.3077 14.4341 73.2785 14.3758 73.2687 14.3079L72.9831 12.3302C72.9733 12.2622 72.9858 12.205 73.0208 12.1584C73.0673 12.0964 73.1246 12.0605 73.1925 12.0509L79.8623 11.107C79.9303 11.0974 79.9886 11.1169 80.0372 11.1655C80.0975 11.1986 80.1326 11.2491 80.1424 11.3171L80.4279 13.2948C80.4377 13.3627 80.4194 13.4277 80.3728 13.4898C80.3379 13.5364 80.2865 13.5644 80.2185 13.5741L73.5487 14.5179Z" fill="white"/>
</svg>
