<svg width="175" height="175" viewBox="0 0 175 175" fill="none" xmlns="http://www.w3.org/2000/svg">
<path d="M94.6252 18.6935C93.5724 18.5943 92.6619 18.3016 91.8939 17.8154C91.1395 17.3305 90.5716 16.6976 90.1899 15.9167C89.8233 15.1235 89.6857 14.2415 89.7772 13.2707L90.6586 3.91855C90.665 3.85019 90.6907 3.79743 90.7355 3.76028C90.7954 3.71074 90.8595 3.6892 90.9279 3.69564L93.3274 3.92178C93.3958 3.92822 93.4479 3.96072 93.4838 4.01928C93.5346 4.06545 93.5568 4.12272 93.5503 4.19108L92.667 13.5638C92.5987 14.2884 92.7621 14.897 93.1571 15.3894C93.5671 15.8694 94.1344 16.1436 94.859 16.2119C95.5837 16.2802 96.1854 16.1162 96.6642 15.7199C97.1579 15.3112 97.4389 14.7446 97.5072 14.0199L98.3905 4.64723C98.3969 4.57887 98.4226 4.52611 98.4675 4.48896C98.5273 4.43942 98.5914 4.41788 98.6598 4.42432L101.059 4.65046C101.128 4.6569 101.18 4.6894 101.216 4.74796C101.267 4.79413 101.289 4.8514 101.282 4.91976L100.401 14.2719C100.309 15.2427 100.003 16.0828 99.4806 16.7923C98.9735 17.4894 98.2972 18.005 97.4519 18.3392C96.6202 18.6746 95.678 18.7927 94.6252 18.6935Z" fill="#222222"/>
<path d="M102.2 19.6791C102.134 19.6641 102.078 19.6304 102.033 19.5782C102.005 19.5155 101.998 19.4507 102.014 19.3837L105.067 5.79707C105.082 5.73008 105.114 5.681 105.164 5.64983C105.229 5.60828 105.296 5.59504 105.363 5.6101L107.714 6.13862C107.781 6.15368 107.829 6.19252 107.857 6.25515C107.901 6.30739 107.916 6.36701 107.901 6.43401L104.847 20.0207C104.832 20.0877 104.792 20.1419 104.726 20.1835C104.677 20.2147 104.619 20.2227 104.552 20.2076L102.2 19.6791Z" fill="#222222"/>
<path d="M114.877 14.4301C114.856 14.4955 114.811 14.546 114.742 14.5817C114.69 14.6085 114.631 14.6114 114.566 14.5906L112.682 13.9902C112.616 13.9694 112.573 13.9917 112.552 14.0571L111.226 18.2182C111.089 18.65 111.072 18.9977 111.175 19.2612C111.292 19.529 111.546 19.7254 111.939 19.8505L112.587 20.0568C112.652 20.0777 112.696 20.1205 112.719 20.1854C112.758 20.2413 112.768 20.302 112.747 20.3674L112.153 22.232C112.107 22.376 112.001 22.436 111.836 22.4122C111.278 22.2632 110.881 22.1512 110.646 22.0762C109.56 21.7302 108.805 21.295 108.381 20.7708C107.961 20.2335 107.903 19.4655 108.207 18.4669L109.883 13.2066C109.904 13.1412 109.881 13.098 109.816 13.0772L108.697 12.7207C108.632 12.6999 108.579 12.6615 108.539 12.6056C108.517 12.5407 108.516 12.4756 108.537 12.4101L109.093 10.6633C109.114 10.5978 109.15 10.5518 109.202 10.525C109.271 10.4893 109.338 10.4819 109.404 10.5028L110.523 10.8592C110.588 10.8801 110.631 10.8578 110.652 10.7924L111.396 8.45665C111.417 8.39123 111.453 8.34514 111.505 8.31839C111.574 8.28273 111.641 8.27532 111.707 8.29616L113.905 8.99657C113.971 9.01742 114.015 9.06026 114.037 9.12511C114.077 9.18105 114.086 9.24172 114.066 9.30715L113.321 11.6429C113.301 11.7083 113.323 11.7514 113.388 11.7723L115.273 12.3726C115.338 12.3935 115.382 12.4363 115.405 12.5012C115.444 12.5571 115.454 12.6178 115.433 12.6832L114.877 14.4301Z" fill="#222222"/>
<path d="M119.357 12.7753C118.927 12.5941 118.625 12.303 118.451 11.9019C118.295 11.4936 118.308 11.0742 118.489 10.6439C118.676 10.2009 118.967 9.8988 119.362 9.7376C119.758 9.57641 120.177 9.58909 120.62 9.77563C121.063 9.96218 121.365 10.2533 121.527 10.649C121.688 11.0447 121.675 11.4641 121.489 11.9071C121.307 12.3374 121.01 12.6368 120.596 12.8053C120.201 12.9665 119.788 12.9565 119.357 12.7753ZM113.645 23.1552C113.582 23.1286 113.533 23.0856 113.498 23.0263C113.482 22.9597 113.487 22.8947 113.513 22.8315L117.439 13.5097C117.465 13.4464 117.506 13.4038 117.56 13.3818C117.631 13.3525 117.699 13.3511 117.762 13.3778L119.984 14.3132C120.047 14.3398 120.087 14.3865 120.104 14.4531C120.138 14.5124 120.142 14.5737 120.116 14.6369L116.19 23.9587C116.163 24.022 116.114 24.0683 116.042 24.0976C115.988 24.1196 115.93 24.1173 115.866 24.0906L113.645 23.1552Z" fill="#222222"/>
<path d="M133.972 21.9284C134.881 22.4942 135.422 23.2108 135.594 24.078C135.766 24.9453 135.544 25.8745 134.928 26.8657L131.326 32.6554C131.289 32.7137 131.233 32.7517 131.158 32.7693C131.101 32.7825 131.044 32.771 130.985 32.7347L128.939 31.4616C128.88 31.4253 128.839 31.3752 128.814 31.3112C128.808 31.2428 128.823 31.1794 128.859 31.1211L132.124 25.8737C132.421 25.3956 132.535 24.9404 132.464 24.5082C132.393 24.076 132.154 23.7329 131.745 23.479C131.337 23.2251 130.918 23.1583 130.487 23.2786C130.057 23.3989 129.696 23.6922 129.406 24.1587L126.131 29.4236C126.094 29.4819 126.039 29.5199 125.963 29.5375C125.906 29.5507 125.849 29.5392 125.79 29.5029L123.761 28.2407C123.703 28.2044 123.661 28.1543 123.636 28.0903C123.631 28.0219 123.646 27.9585 123.682 27.9002L126.946 22.6527C127.237 22.1863 127.34 21.7333 127.258 21.2939C127.183 20.8428 126.941 20.4903 126.533 20.2364C126.16 20.0042 125.776 19.9191 125.382 19.9811C124.999 20.0503 124.661 20.2686 124.368 20.6361L120.918 26.1809C120.882 26.2392 120.826 26.2772 120.75 26.2948C120.694 26.308 120.636 26.2965 120.578 26.2602L118.531 24.9871C118.473 24.9508 118.431 24.9007 118.407 24.8367C118.401 24.7683 118.416 24.7049 118.452 24.6466L123.784 16.0758C123.82 16.0175 123.867 15.9817 123.923 15.9685C123.999 15.9509 124.066 15.9602 124.124 15.9965L126.171 17.2696C126.229 17.3059 126.261 17.3582 126.267 17.4266C126.292 17.4906 126.286 17.5518 126.25 17.6101L125.826 18.2922C125.804 18.3272 125.801 18.3578 125.817 18.384C125.833 18.4101 125.864 18.413 125.909 18.3925C126.83 17.9786 127.791 18.0836 128.794 18.7075C129.377 19.0702 129.808 19.5082 130.087 20.0215C130.378 20.542 130.499 21.1022 130.449 21.7021C130.441 21.7938 130.481 21.8192 130.572 21.7783C131.125 21.4598 131.691 21.3181 132.267 21.3533C132.855 21.3957 133.424 21.5874 133.972 21.9284Z" fill="#222222"/>
<path d="M142.434 29.0171C143.088 29.6253 143.563 30.2836 143.861 30.992C144.168 31.6903 144.279 32.3665 144.196 33.0205C144.123 33.6839 143.861 34.2569 143.412 34.7394L138.654 39.8514C138.608 39.9016 138.545 39.9282 138.468 39.931C138.41 39.933 138.355 39.9107 138.305 39.8639L136.541 38.2219C136.491 38.1751 136.459 38.1179 136.447 38.0503C136.454 37.982 136.481 37.9228 136.528 37.8725L136.991 37.3749C137.019 37.3447 137.028 37.3153 137.017 37.2865C137.007 37.2577 136.977 37.2491 136.929 37.2605C135.992 37.4205 135.056 37.0654 134.121 36.1952C133.337 35.4654 132.882 34.685 132.755 33.8538C132.628 33.0227 132.91 32.2352 133.603 31.4913C134.323 30.7172 135.151 30.3717 136.087 30.4547C137.032 30.5277 138.008 31.032 139.013 31.9676L140.551 33.3991C140.601 33.4459 140.65 33.4442 140.697 33.3939L141.005 33.0622C141.314 32.7304 141.452 32.3805 141.419 32.0124C141.396 31.6343 141.184 31.2581 140.781 30.8838C140.47 30.5938 140.157 30.4058 139.843 30.3199C139.539 30.2434 139.263 30.2775 139.016 30.4225C138.883 30.505 138.771 30.4944 138.679 30.3908L137.079 28.4514C136.977 28.319 136.964 28.2223 137.04 28.1613C137.473 27.7765 137.994 27.5488 138.604 27.4784C139.224 27.4172 139.864 27.5157 140.524 27.7738C141.194 28.0413 141.831 28.4557 142.434 29.0171ZM136.168 35.1452C136.6 35.5475 137.075 35.7734 137.592 35.8229C138.108 35.8724 138.535 35.7161 138.872 35.3542L139.377 34.8114C139.424 34.7611 139.422 34.7126 139.372 34.6658L138.286 33.6553C137.834 33.2343 137.398 32.9876 136.977 32.9152C136.567 32.8522 136.217 32.9765 135.926 33.2882C135.674 33.5596 135.568 33.8646 135.61 34.2032C135.66 34.5318 135.846 34.8458 136.168 35.1452Z" fill="#222222"/>
<path d="M149.667 40.256C149.614 40.3001 149.549 40.3188 149.472 40.312C149.414 40.3069 149.363 40.278 149.318 40.2254L148.048 38.71C148.004 38.6574 147.955 38.6531 147.903 38.6973L144.556 41.5032C144.209 41.7944 144.008 42.079 143.955 42.3569C143.91 42.6455 144.02 42.9476 144.285 43.2633L144.721 43.7842C144.765 43.8368 144.78 43.8966 144.764 43.9634C144.768 44.032 144.743 44.0883 144.691 44.1324L143.191 45.3898C143.075 45.4869 142.954 45.4811 142.827 45.3725C142.435 44.9481 142.16 44.6412 142.001 44.4518C141.269 43.5783 140.864 42.8068 140.786 42.137C140.719 41.4585 141.081 40.7787 141.872 40.0976L146.103 36.5504C146.155 36.5063 146.16 36.4579 146.115 36.4053L145.361 35.5056C145.317 35.4529 145.293 35.3923 145.289 35.3238C145.305 35.2569 145.339 35.2014 145.392 35.1573L146.797 33.9793C146.849 33.9352 146.904 33.9157 146.962 33.9208C147.04 33.9276 147.101 33.9573 147.145 34.0099L147.899 34.9097C147.943 34.9623 147.992 34.9666 148.044 34.9225L149.923 33.3474C149.975 33.3033 150.031 33.2838 150.089 33.2889C150.166 33.2957 150.227 33.3254 150.271 33.378L151.753 35.146C151.798 35.1986 151.812 35.2584 151.796 35.3252C151.8 35.3938 151.775 35.4501 151.723 35.4942L149.844 37.0693C149.792 37.1134 149.787 37.1618 149.832 37.2144L151.102 38.7298C151.146 38.7824 151.161 38.8421 151.145 38.909C151.149 38.9776 151.124 39.0339 151.072 39.078L149.667 40.256Z" fill="#222222"/>
<path d="M154.173 50.9134C153.779 51.2649 153.302 51.6036 152.745 51.9295C152.599 52.0071 152.481 51.9766 152.392 51.838L148.95 46.4835C148.905 46.4141 148.862 46.4096 148.819 46.4698C148.61 46.653 148.42 46.8651 148.248 47.106C147.794 47.8223 147.864 48.6425 148.458 49.5667C148.945 50.2986 149.621 50.6889 150.485 50.7376C150.584 50.7392 150.652 50.7689 150.689 50.8267C150.711 50.8614 150.714 50.9166 150.697 50.9926L150.269 53.0311C150.249 53.126 150.215 53.1883 150.169 53.218C150.146 53.2328 150.085 53.2394 149.986 53.2378C149.267 53.161 148.582 52.9077 147.93 52.4778C147.29 52.0405 146.739 51.4637 146.279 50.7474C145.64 49.7539 145.323 48.7658 145.328 47.783C145.341 46.8118 145.655 45.9161 146.27 45.0959C146.692 44.482 147.371 43.8743 148.306 43.2728C148.942 42.8643 149.558 42.5908 150.154 42.4522C151.145 42.1906 152.095 42.2331 153.003 42.5797C153.919 42.9378 154.671 43.5732 155.257 44.4859C156 45.6411 156.259 46.7806 156.035 47.9045C155.818 49.0399 155.197 50.0429 154.173 50.9134ZM153.154 45.8622C152.687 45.1344 152.038 44.874 151.208 45.0811C151.028 45.1315 150.817 45.2099 150.575 45.3163C150.517 45.3534 150.507 45.4009 150.544 45.4586L152.471 48.4565C152.516 48.5258 152.559 48.5303 152.602 48.4701C152.9 48.197 153.043 48.0641 153.032 48.0715C153.312 47.7448 153.458 47.3891 153.473 47.0046C153.506 46.6242 153.4 46.2434 153.154 45.8622Z" fill="#222222"/>
<path d="M150.838 59.3205C150.459 58.4822 150.246 57.6965 150.201 56.9633C150.155 56.2301 150.266 55.5921 150.533 55.0493C150.806 54.519 151.211 54.1321 151.749 53.8886L151.937 53.8037C151.999 53.7753 152.058 53.7715 152.112 53.792C152.185 53.8194 152.235 53.8644 152.264 53.927L153.206 56.0102C153.235 56.0727 153.232 56.1341 153.199 56.1943C153.184 56.2613 153.146 56.309 153.083 56.3373L153.064 56.3458C152.789 56.4704 152.619 56.7281 152.555 57.119C152.509 57.5167 152.591 57.947 152.8 58.41C152.993 58.8354 153.23 59.1426 153.511 59.3318C153.805 59.5152 154.077 59.5504 154.328 59.4371C154.553 59.3352 154.671 59.1462 154.681 58.87C154.692 58.5938 154.644 58.1709 154.537 57.6013C154.421 56.9453 154.355 56.4173 154.34 56.0172C154.253 55.0919 154.302 54.3009 154.487 53.6442C154.672 52.9876 155.14 52.4894 155.891 52.1497C156.817 51.7307 157.71 51.7561 158.571 52.2258C159.45 52.7023 160.158 53.5349 160.696 54.7235C161.059 55.5243 161.244 56.2844 161.253 57.0039C161.275 57.7177 161.128 58.342 160.812 58.8768C160.502 59.4241 160.053 59.8308 159.465 60.0969C159.402 60.1253 159.335 60.1257 159.262 60.0983C159.208 60.0778 159.166 60.0362 159.138 59.9737L158.229 57.9655C158.201 57.9029 158.194 57.8382 158.209 57.7711C158.242 57.7109 158.29 57.6667 158.352 57.6384C158.628 57.5138 158.794 57.2652 158.851 56.8925C158.915 56.5323 158.841 56.1207 158.632 55.6578C158.445 55.2449 158.217 54.941 157.948 54.7462C157.679 54.5514 157.413 54.5135 157.15 54.6324C156.9 54.7456 156.769 54.9557 156.757 55.2625C156.751 55.5819 156.815 56.073 156.949 56.7359C156.974 56.8905 157.001 57.0667 157.03 57.2645C157.072 57.4567 157.107 57.667 157.135 57.8955C157.274 58.9027 157.253 59.7563 157.072 60.4561C156.892 61.1559 156.407 61.6842 155.619 62.0409C154.693 62.4599 153.8 62.4192 152.941 61.9188C152.099 61.4253 151.398 60.5592 150.838 59.3205Z" fill="#222222"/>
<path d="M155.244 73.1495C155.014 72.075 154.981 71.0991 155.145 70.2215C155.322 69.3411 155.679 68.6119 156.215 68.0339C156.768 67.4665 157.468 67.0924 158.314 66.9117L158.757 66.8171C158.824 66.8027 158.882 66.8114 158.931 66.8431C158.996 66.8853 159.036 66.94 159.051 67.0072L159.541 69.3038C159.555 69.3709 159.54 69.4304 159.495 69.4822C159.466 69.5445 159.418 69.5828 159.351 69.5972L159.049 69.6617C158.511 69.7764 158.108 70.1224 157.838 70.6996C157.581 71.274 157.544 71.9843 157.724 72.8304C157.876 73.5422 158.137 74.0411 158.507 74.3272C158.891 74.6105 159.304 74.7048 159.747 74.6101C160.07 74.5413 160.315 74.3765 160.484 74.1157C160.667 73.852 160.798 73.515 160.879 73.1045C160.976 72.7046 161.087 72.0702 161.21 71.2013C161.327 70.2354 161.479 69.4025 161.666 68.7024C161.857 68.0158 162.182 67.3988 162.64 66.8514C163.116 66.3146 163.763 65.9587 164.582 65.7838C165.388 65.6117 166.137 65.6693 166.831 65.9566C167.524 66.2438 168.111 66.7224 168.591 67.3922C169.071 68.0621 169.414 68.8805 169.621 69.8475C169.839 70.8682 169.851 71.8135 169.657 72.6833C169.467 73.5666 169.09 74.3001 168.527 74.8839C167.979 75.4782 167.276 75.8671 166.416 76.0507L166.114 76.1152C166.047 76.1295 165.981 76.1156 165.916 76.0733C165.867 76.0416 165.835 75.9922 165.821 75.9251L165.326 73.6083C165.312 73.5412 165.319 73.4764 165.348 73.4141C165.393 73.3623 165.449 73.3293 165.516 73.3149L165.677 73.2805C166.242 73.1601 166.668 72.8232 166.957 72.27C167.263 71.7273 167.329 71.053 167.157 70.2472C167.022 69.616 166.782 69.1477 166.436 68.8425C166.093 68.5506 165.686 68.4549 165.216 68.5553C164.88 68.627 164.62 68.7879 164.434 69.0382C164.252 69.3018 164.11 69.6552 164.008 70.0982C163.922 70.5519 163.817 71.2414 163.691 72.167C163.546 73.1951 163.396 74.0065 163.242 74.601C163.091 75.2091 162.793 75.7853 162.347 76.3298C161.918 76.8849 161.281 77.2528 160.435 77.4334C159.172 77.7031 158.073 77.4534 157.136 76.6844C156.213 75.9126 155.582 74.7343 155.244 73.1495Z" fill="#222222"/>
<path d="M167.602 91.3194C167.608 92.3906 167.291 93.2303 166.649 93.8385C166.007 94.4467 165.103 94.7544 163.935 94.7616L157.117 94.8035C157.048 94.8039 156.986 94.7768 156.931 94.7222C156.889 94.6813 156.869 94.6265 156.868 94.5578L156.853 92.1477C156.853 92.079 156.873 92.0171 156.914 91.9619C156.969 91.9204 157.03 91.8994 157.099 91.899L163.279 91.861C163.842 91.8575 164.287 91.7106 164.615 91.4202C164.943 91.1297 165.105 90.7442 165.102 90.2635C165.1 89.7829 164.932 89.3925 164.601 89.0924C164.269 88.7923 163.829 88.6439 163.28 88.6473L157.079 88.6854C157.011 88.6858 156.949 88.6588 156.893 88.6042C156.852 88.5632 156.831 88.5084 156.831 88.4397L156.816 86.0502C156.815 85.9815 156.836 85.9196 156.876 85.8644C156.931 85.8229 156.993 85.8019 157.061 85.8015L163.241 85.7635C163.791 85.7601 164.229 85.6064 164.557 85.3022C164.898 84.998 165.068 84.6055 165.065 84.1249C165.062 83.6854 164.929 83.3154 164.667 83.0149C164.404 82.7281 164.039 82.5587 163.572 82.5066L157.041 82.5467C156.973 82.5472 156.911 82.5201 156.856 82.4655C156.814 82.4245 156.793 82.3697 156.793 82.3011L156.778 79.8909C156.778 79.8222 156.798 79.7603 156.839 79.7051C156.893 79.6636 156.955 79.6426 157.024 79.6422L167.117 79.5802C167.186 79.5797 167.241 79.6 167.283 79.6409C167.338 79.6955 167.366 79.7572 167.366 79.8258L167.381 82.236C167.381 82.3047 167.354 82.3598 167.3 82.4013C167.259 82.4565 167.204 82.4843 167.135 82.4847L166.332 82.4896C166.291 82.4899 166.263 82.5038 166.25 82.5313C166.236 82.5589 166.25 82.5863 166.291 82.6135C167.133 83.1714 167.557 84.0409 167.564 85.2219C167.568 85.9086 167.428 86.5068 167.143 87.0167C166.857 87.5404 166.448 87.9412 165.914 88.2191C165.832 88.2608 165.832 88.3089 165.915 88.3633C166.48 88.662 166.901 89.0645 167.179 89.571C167.457 90.0911 167.598 90.674 167.602 91.3194Z" fill="#222222"/>
<path d="M167.665 99.4181C167.735 98.9565 167.943 98.5922 168.289 98.3252C168.647 98.0739 169.056 97.9833 169.518 98.0534C169.993 98.1255 170.358 98.3336 170.611 98.6776C170.864 99.0217 170.955 99.4313 170.883 99.9066C170.811 100.382 170.603 100.746 170.259 100.999C169.915 101.253 169.505 101.343 169.03 101.271C168.568 101.201 168.205 100.986 167.94 100.627C167.686 100.283 167.595 99.8797 167.665 99.4181ZM156.201 96.4277C156.211 96.3599 156.241 96.3018 156.29 96.2537C156.35 96.2212 156.414 96.2101 156.482 96.2204L166.482 97.7384C166.55 97.7487 166.601 97.7773 166.636 97.8242C166.682 97.8868 166.7 97.952 166.69 98.0199L166.328 100.403C166.318 100.471 166.282 100.521 166.222 100.553C166.173 100.601 166.114 100.62 166.046 100.61L156.046 99.0921C155.978 99.0818 155.921 99.0454 155.875 98.9829C155.841 98.9359 155.829 98.8785 155.839 98.8107L156.201 96.4277Z" fill="#222222"/>
<path d="M155.35 101.341C155.365 101.274 155.399 101.219 155.451 101.174C155.514 101.146 155.578 101.139 155.645 101.154L169.232 104.207C169.299 104.222 169.348 104.254 169.379 104.304C169.421 104.369 169.434 104.435 169.419 104.502L168.891 106.854C168.876 106.921 168.837 106.969 168.774 106.997C168.722 107.041 168.662 107.056 168.595 107.041L155.009 103.988C154.942 103.973 154.887 103.933 154.846 103.867C154.815 103.818 154.807 103.76 154.822 103.693L155.35 101.341Z" fill="#222222"/>
<path d="M157.373 116.652C156.853 116.559 156.292 116.394 155.691 116.157C155.54 116.09 155.491 115.979 155.545 115.823L157.627 109.808C157.654 109.73 157.63 109.693 157.556 109.696C157.283 109.645 156.999 109.627 156.703 109.641C155.86 109.727 155.259 110.289 154.899 111.327C154.625 112.162 154.736 112.934 155.231 113.644C155.291 113.722 155.31 113.794 155.287 113.859C155.274 113.898 155.232 113.935 155.162 113.969L153.295 114.892C153.208 114.934 153.138 114.947 153.086 114.929C153.06 114.92 153.017 114.876 152.958 114.797C152.574 114.185 152.349 113.489 152.284 112.711C152.232 111.937 152.345 111.148 152.624 110.344C153.01 109.227 153.591 108.368 154.366 107.764C155.138 107.173 156.036 106.867 157.061 106.843C157.804 106.795 158.701 106.953 159.753 107.317C160.466 107.564 161.062 107.879 161.54 108.262C162.358 108.88 162.912 109.653 163.201 110.581C163.486 111.522 163.451 112.506 163.096 113.531C162.647 114.829 161.911 115.737 160.889 116.255C159.862 116.786 158.69 116.919 157.373 116.652ZM160.714 112.729C160.997 111.911 160.8 111.24 160.125 110.715C159.974 110.605 159.782 110.488 159.549 110.364C159.484 110.341 159.44 110.362 159.418 110.427L158.252 113.795C158.225 113.873 158.249 113.91 158.323 113.907C158.722 113.972 158.915 114.002 158.902 113.998C159.331 114.016 159.702 113.912 160.013 113.685C160.332 113.476 160.566 113.157 160.714 112.729Z" fill="#222222"/>
<path d="M148.774 119.736C148.811 119.678 148.861 119.636 148.925 119.612C148.993 119.606 149.057 119.621 149.115 119.658L160.919 127.046C160.977 127.082 161.013 127.129 161.026 127.185C161.044 127.261 161.034 127.328 160.998 127.386L158.265 131.752C157.719 132.625 157.085 133.289 156.362 133.744C155.644 134.218 154.893 134.461 154.108 134.472C153.324 134.483 152.565 134.259 151.831 133.8L147.012 130.784C146.278 130.325 145.745 129.74 145.412 129.03C145.079 128.319 144.963 127.534 145.064 126.673C145.17 125.832 145.496 124.975 146.042 124.102L148.774 119.736ZM149.565 123.366C149.506 123.329 149.459 123.34 149.423 123.398L148.1 125.511C147.765 126.047 147.676 126.591 147.833 127.142C147.982 127.706 148.356 128.183 148.954 128.573L152.971 131.087C153.576 131.466 154.165 131.599 154.737 131.488C155.302 131.387 155.759 131.058 156.109 130.499L157.42 128.404C157.457 128.346 157.446 128.298 157.388 128.262L149.565 123.366Z" fill="#222222"/>
<path d="M140.791 140.937C140.346 140.653 139.891 140.287 139.425 139.838C139.311 139.719 139.309 139.597 139.418 139.474L143.637 134.707C143.691 134.646 143.684 134.602 143.614 134.577C143.381 134.426 143.125 134.301 142.847 134.201C142.034 133.959 141.264 134.249 140.536 135.071C139.964 135.739 139.771 136.495 139.959 137.339C139.984 137.435 139.974 137.509 139.929 137.56C139.901 137.591 139.849 137.609 139.771 137.614L137.693 137.755C137.596 137.761 137.527 137.746 137.486 137.709C137.465 137.691 137.443 137.634 137.417 137.538C137.296 136.826 137.354 136.097 137.59 135.353C137.838 134.618 138.243 133.932 138.808 133.294C139.59 132.41 140.455 131.837 141.402 131.575C142.341 131.323 143.288 131.382 144.244 131.752C144.95 131.991 145.719 132.479 146.552 133.216C147.117 133.717 147.548 134.235 147.843 134.772C148.364 135.655 148.581 136.58 148.494 137.549C148.398 138.527 147.991 139.423 147.272 140.235C146.362 141.264 145.335 141.823 144.193 141.912C143.041 142.011 141.907 141.686 140.791 140.937ZM145.376 138.585C145.95 137.937 146.024 137.242 145.599 136.499C145.502 136.34 145.369 136.158 145.201 135.955C145.15 135.909 145.101 135.912 145.056 135.963L142.694 138.632C142.639 138.694 142.647 138.737 142.716 138.762C143.06 138.975 143.227 139.076 143.216 139.067C143.607 139.248 143.989 139.292 144.363 139.202C144.738 139.13 145.076 138.925 145.376 138.585Z" fill="#222222"/>
<path d="M131.808 140.011C132.511 139.417 133.209 138.998 133.902 138.755C134.595 138.511 135.239 138.444 135.834 138.552C136.418 138.67 136.901 138.954 137.282 139.405L137.415 139.563C137.459 139.615 137.479 139.671 137.474 139.729C137.467 139.806 137.438 139.867 137.385 139.911L135.638 141.386C135.586 141.431 135.526 141.445 135.459 141.43C135.391 141.434 135.334 141.41 135.29 141.357L135.277 141.341C135.082 141.11 134.788 141.017 134.394 141.062C133.999 141.126 133.607 141.322 133.219 141.65C132.862 141.951 132.631 142.263 132.526 142.586C132.43 142.919 132.47 143.19 132.647 143.4C132.807 143.589 133.021 143.651 133.289 143.586C133.558 143.521 133.952 143.359 134.471 143.101C135.07 142.81 135.56 142.603 135.941 142.479C136.807 142.143 137.582 141.974 138.264 141.973C138.946 141.972 139.553 142.287 140.085 142.916C140.74 143.693 140.96 144.559 140.743 145.515C140.524 146.491 139.916 147.4 138.919 148.241C138.248 148.808 137.567 149.194 136.877 149.399C136.197 149.615 135.556 149.644 134.955 149.486C134.344 149.337 133.83 149.016 133.414 148.522C133.37 148.47 133.351 148.405 133.357 148.328C133.362 148.27 133.391 148.218 133.443 148.174L135.127 146.752C135.18 146.708 135.24 146.684 135.309 146.68C135.376 146.695 135.431 146.729 135.476 146.781C135.671 147.012 135.955 147.104 136.329 147.058C136.693 147.021 137.069 146.838 137.457 146.51C137.804 146.218 138.034 145.915 138.148 145.603C138.262 145.291 138.226 145.025 138.04 144.805C137.863 144.595 137.625 144.526 137.326 144.599C137.017 144.68 136.562 144.875 135.961 145.185C135.819 145.251 135.657 145.325 135.475 145.407C135.301 145.5 135.108 145.591 134.896 145.68C133.965 146.089 133.138 146.302 132.416 146.319C131.693 146.336 131.053 146.014 130.494 145.353C129.839 144.576 129.634 143.706 129.881 142.743C130.127 141.799 130.769 140.888 131.808 140.011Z" fill="#222222"/>
<path d="M132.96 154.026C133.347 153.765 133.756 153.671 134.187 153.744C134.614 153.837 134.958 154.076 135.22 154.463C135.489 154.861 135.583 155.27 135.502 155.689C135.421 156.109 135.182 156.453 134.783 156.723C134.385 156.992 133.976 157.086 133.557 157.005C133.137 156.924 132.793 156.684 132.524 156.286C132.262 155.899 132.174 155.487 132.258 155.048C132.339 154.629 132.573 154.288 132.96 154.026ZM127.383 143.573C127.44 143.535 127.503 143.517 127.572 143.521C127.637 143.543 127.688 143.583 127.727 143.639L133.393 152.018C133.431 152.075 133.445 152.132 133.434 152.189C133.419 152.266 133.383 152.323 133.326 152.361L131.33 153.712C131.273 153.75 131.212 153.758 131.147 153.736C131.079 153.732 131.025 153.702 130.987 153.645L125.321 145.267C125.282 145.21 125.27 145.143 125.285 145.067C125.296 145.01 125.33 144.962 125.387 144.923L127.383 143.573Z" fill="#222222"/>
<path d="M122.426 158.462C122.458 158.523 122.465 158.581 122.448 158.637C122.424 158.711 122.382 158.764 122.321 158.796L120.183 159.909C120.122 159.94 120.061 159.941 119.999 159.912C119.931 159.9 119.882 159.864 119.85 159.803L115.512 151.471C114.682 149.875 114.552 148.495 115.122 147.331C115.681 146.174 116.685 145.217 118.135 144.463C118.561 144.241 119.052 144.024 119.608 143.812C119.736 143.761 119.838 143.808 119.914 143.955L120.821 145.875C120.903 146.033 120.853 146.144 120.669 146.209C120.193 146.364 119.772 146.537 119.406 146.727C118.627 147.133 118.119 147.614 117.882 148.171C117.633 148.734 117.705 149.393 118.098 150.148C118.117 150.185 118.139 150.197 118.163 150.184C118.194 150.184 118.215 150.165 118.227 150.128C118.43 149.387 118.976 148.786 119.865 148.323C120.657 147.911 121.486 147.719 122.353 147.748C123.214 147.795 124.006 148.172 124.73 148.879C125.205 149.344 125.673 150.022 126.136 150.911C126.631 151.861 126.924 152.692 127.015 153.403C127.146 154.279 127.024 155.101 126.65 155.869C126.276 156.637 125.686 157.23 124.882 157.648C123.944 158.137 123.08 158.23 122.289 157.93C122.252 157.918 122.221 157.919 122.196 157.932C122.178 157.956 122.179 157.987 122.198 158.024L122.426 158.462ZM119.5 152.484C119.593 152.9 119.804 153.425 120.134 154.059C120.331 154.436 120.495 154.722 120.627 154.917C120.759 155.111 120.903 155.284 121.059 155.435C121.34 155.707 121.659 155.873 122.017 155.935C122.38 156.009 122.751 155.948 123.128 155.751C123.494 155.561 123.751 155.296 123.899 154.955C124.053 154.627 124.105 154.267 124.056 153.875C124.036 153.421 123.865 152.883 123.541 152.262C123.186 151.579 122.86 151.13 122.561 150.914C122.28 150.642 121.952 150.472 121.576 150.405C121.195 150.356 120.815 150.429 120.437 150.626C120.047 150.829 119.775 151.094 119.621 151.423C119.473 151.763 119.433 152.117 119.5 152.484Z" fill="#222222"/>
<path d="M111.987 163.033C110.945 163.382 109.998 163.344 109.147 162.92C108.295 162.495 107.686 161.736 107.319 160.642L105.174 154.235C105.152 154.17 105.158 154.103 105.193 154.033C105.219 153.981 105.265 153.944 105.33 153.922L107.615 153.157C107.68 153.135 107.745 153.135 107.811 153.157C107.867 153.196 107.906 153.248 107.928 153.313L109.884 159.154C110.058 159.674 110.35 160.047 110.758 160.273C111.154 160.502 111.593 160.537 112.075 160.375C112.556 160.214 112.893 159.92 113.083 159.494C113.26 159.073 113.262 158.602 113.088 158.081L111.132 152.24C111.11 152.175 111.116 152.108 111.151 152.038C111.177 151.986 111.222 151.949 111.288 151.927L113.573 151.162C113.638 151.14 113.703 151.14 113.768 151.162C113.825 151.201 113.864 151.253 113.886 151.318L117.091 160.889C117.113 160.954 117.111 161.013 117.085 161.065C117.05 161.135 117 161.18 116.935 161.202L114.65 161.968C114.585 161.989 114.524 161.981 114.467 161.942C114.402 161.92 114.359 161.877 114.337 161.812L114.108 161.128C114.095 161.089 114.073 161.067 114.043 161.063C114.012 161.059 113.995 161.072 113.991 161.102C113.71 162.036 113.042 162.68 111.987 163.033Z" fill="#222222"/>
<path d="M100.459 159.81C100.528 159.801 100.591 159.814 100.651 159.847C100.699 159.897 100.728 159.955 100.736 160.023L100.993 162.005C101.001 162.073 100.988 162.13 100.952 162.176C100.905 162.238 100.847 162.273 100.779 162.282L94.0985 163.146C94.0304 163.154 93.9724 163.134 93.9245 163.085C93.8647 163.051 93.8304 163 93.8216 162.932L93.5654 160.95C93.5566 160.882 93.5759 160.818 93.6233 160.756C93.6589 160.71 93.7108 160.682 93.7789 160.674L100.459 159.81Z" fill="#222222"/>
<path d="M82.1826 155.564C83.2367 155.65 84.1509 155.93 84.9254 156.406C85.6862 156.881 86.2627 157.506 86.6548 158.281C87.0321 159.07 87.1815 159.95 87.103 160.922L86.3474 170.285C86.3419 170.353 86.317 170.406 86.2726 170.444C86.2134 170.494 86.1496 170.517 86.0812 170.511L83.6788 170.317C83.6103 170.312 83.5578 170.28 83.5211 170.222C83.4697 170.177 83.4467 170.12 83.4523 170.051L84.2095 160.667C84.2681 159.942 84.0965 159.336 83.695 158.849C83.2786 158.374 82.7076 158.108 81.9821 158.049C81.2566 157.99 80.6572 158.163 80.1838 158.565C79.6956 158.98 79.4222 159.551 79.3637 160.276L78.6064 169.66C78.6009 169.729 78.5759 169.782 78.5316 169.819C78.4724 169.87 78.4086 169.892 78.3401 169.887L75.9377 169.693C75.8693 169.687 75.8167 169.655 75.7801 169.597C75.7287 169.552 75.7057 169.495 75.7112 169.426L76.4668 160.063C76.5453 159.091 76.8407 158.247 77.3532 157.531C77.8509 156.827 78.5201 156.302 79.3609 155.957C80.188 155.61 81.1286 155.479 82.1826 155.564Z" fill="#222222"/>
<path d="M74.6032 154.682C74.6704 154.696 74.7266 154.729 74.7719 154.78C74.8009 154.842 74.8083 154.907 74.7942 154.974L71.9272 168.602C71.9131 168.669 71.8816 168.718 71.8328 168.75C71.7677 168.793 71.7016 168.807 71.6344 168.793L69.2758 168.296C69.2086 168.282 69.1605 168.244 69.1315 168.182C69.0862 168.13 69.0707 168.071 69.0848 168.004L71.9518 154.376C71.9659 154.309 72.0055 154.254 72.0706 154.212C72.1194 154.18 72.1774 154.171 72.2446 154.185L74.6032 154.682Z" fill="#222222"/>
<path d="M61.989 160.101C62.0089 160.035 62.0532 159.984 62.1217 159.947C62.1731 159.92 62.2316 159.916 62.2973 159.936L64.1896 160.511C64.2553 160.531 64.2981 160.508 64.3181 160.442L65.5872 156.264C65.7189 155.83 65.7312 155.482 65.6242 155.22C65.5041 154.954 65.247 154.761 64.8527 154.641L64.2023 154.444C64.1366 154.424 64.092 154.381 64.0685 154.317C64.0279 154.261 64.0176 154.201 64.0376 154.135L64.6063 152.263C64.6502 152.118 64.755 152.057 64.9206 152.078C65.4805 152.22 65.8787 152.326 66.1153 152.398C67.2059 152.729 67.9668 153.154 68.3978 153.672C68.8248 154.204 68.8933 154.971 68.6031 155.974L66.9988 161.256C66.9788 161.322 67.0017 161.365 67.0674 161.385L68.1909 161.726C68.2566 161.746 68.3098 161.784 68.3504 161.839C68.3738 161.904 68.3756 161.969 68.3556 162.034L67.8229 163.789C67.8029 163.854 67.7672 163.901 67.7158 163.929C67.6473 163.965 67.5802 163.973 67.5145 163.953L66.391 163.612C66.3253 163.592 66.2824 163.615 66.2625 163.681L65.5501 166.026C65.5302 166.092 65.4945 166.139 65.4431 166.166C65.3746 166.203 65.3074 166.211 65.2417 166.191L63.0341 165.521C62.9684 165.501 62.9238 165.459 62.9004 165.394C62.8598 165.339 62.8495 165.278 62.8694 165.212L63.5818 162.867C63.6017 162.801 63.5788 162.758 63.5131 162.738L61.6209 162.164C61.5552 162.144 61.5106 162.101 61.4871 162.037C61.4466 161.981 61.4362 161.921 61.4562 161.855L61.989 160.101Z" fill="#222222"/>
<path d="M57.5226 161.813C57.9554 161.989 58.2614 162.276 58.4406 162.675C58.6019 163.081 58.5949 163.5 58.4195 163.933C58.2389 164.378 57.9519 164.684 57.5584 164.851C57.1649 165.017 56.7454 165.01 56.2999 164.83C55.8545 164.649 55.5485 164.362 55.382 163.969C55.2155 163.575 55.2225 163.156 55.4031 162.71C55.5785 162.278 55.8719 161.974 56.2833 161.8C56.6768 161.634 57.0899 161.638 57.5226 161.813ZM63.0947 151.358C63.1583 151.383 63.2078 151.426 63.2433 151.485C63.2608 151.551 63.2567 151.616 63.2309 151.68L59.4312 161.053C59.4054 161.117 59.3657 161.16 59.312 161.183C59.2404 161.213 59.1729 161.215 59.1092 161.19L56.8756 160.284C56.8119 160.258 56.7713 160.212 56.7538 160.146C56.7183 160.087 56.7135 160.026 56.7393 159.962L60.539 150.588C60.5648 150.525 60.6135 150.478 60.6851 150.448C60.7387 150.425 60.7974 150.426 60.861 150.452L63.0947 151.358Z" fill="#222222"/>
<path d="M42.7888 152.86C41.8717 152.306 41.3213 151.597 41.1375 150.732C40.9537 149.867 41.1634 148.935 41.7667 147.936L45.2903 142.098C45.3258 142.04 45.3812 142.001 45.4566 141.982C45.5132 141.968 45.5709 141.979 45.6297 142.014L47.6931 143.26C47.7519 143.295 47.7941 143.345 47.8199 143.409C47.8268 143.477 47.8125 143.541 47.777 143.599L44.5834 148.89C44.2924 149.372 44.1852 149.829 44.2618 150.26C44.3384 150.691 44.5824 151.031 44.994 151.28C45.4055 151.528 45.8257 151.589 46.2547 151.463C46.6837 151.337 47.0401 151.039 47.324 150.569L50.5282 145.26C50.5637 145.201 50.6192 145.163 50.6946 145.144C50.7512 145.13 50.8088 145.141 50.8676 145.176L52.9134 146.411C52.9722 146.446 53.0145 146.496 53.0402 146.56C53.0471 146.628 53.0328 146.692 52.9973 146.75L49.8037 152.041C49.5199 152.512 49.4221 152.966 49.5104 153.404C49.5917 153.854 49.838 154.203 50.2496 154.452C50.6258 154.679 51.0107 154.759 51.4042 154.692C51.7859 154.617 52.121 154.394 52.4093 154.023L55.7838 148.432C55.8193 148.374 55.8748 148.335 55.9502 148.316C56.0068 148.302 56.0644 148.313 56.1232 148.348L58.1867 149.594C58.2455 149.629 58.2877 149.679 58.3135 149.743C58.3203 149.811 58.306 149.875 58.2706 149.933L53.0544 158.575C53.0189 158.634 52.9729 158.67 52.9163 158.684C52.8409 158.703 52.7738 158.694 52.715 158.659L50.6515 157.413C50.5928 157.378 50.5599 157.326 50.553 157.258C50.5273 157.194 50.5322 157.133 50.5677 157.074L50.9828 156.386C51.0041 156.351 51.0065 156.32 50.9901 156.294C50.9737 156.268 50.9431 156.266 50.8983 156.287C49.9833 156.713 49.0203 156.621 48.0091 156.011C47.4212 155.656 46.9843 155.224 46.6983 154.714C46.4006 154.198 46.2725 153.639 46.3141 153.039C46.3214 152.947 46.2803 152.922 46.1907 152.964C45.641 153.29 45.0777 153.44 44.5008 153.412C43.9121 153.378 43.3414 153.194 42.7888 152.86Z" fill="#222222"/>
<path d="M34.2372 145.885C33.5757 145.286 33.0914 144.634 32.7845 143.93C32.4683 143.236 32.3475 142.561 32.4222 141.906C32.4866 141.242 32.7402 140.665 33.1828 140.177L37.8716 135.002C37.9177 134.951 37.9796 134.923 38.0571 134.919C38.1153 134.917 38.1699 134.938 38.2208 134.984L40.0069 136.603C40.0578 136.649 40.0898 136.705 40.1028 136.773C40.0965 136.841 40.0702 136.901 40.0241 136.952L39.5677 137.456C39.54 137.486 39.5318 137.516 39.5429 137.544C39.554 137.573 39.5836 137.581 39.6316 137.569C40.5662 137.397 41.5068 137.739 42.4533 138.597C43.2471 139.316 43.7131 140.09 43.8512 140.92C43.9893 141.749 43.7172 142.54 43.0349 143.293C42.3249 144.077 41.5014 144.433 40.5646 144.363C39.6185 144.303 38.6366 143.812 37.6188 142.889L36.0617 141.479C36.0108 141.433 35.9623 141.435 35.9162 141.486L35.6119 141.822C35.3076 142.158 35.1743 142.509 35.2118 142.877C35.2402 143.255 35.4579 143.628 35.865 143.997C36.1805 144.283 36.4958 144.466 36.811 144.548C37.116 144.621 37.3912 144.583 37.6367 144.434C37.7686 144.35 37.8809 144.359 37.9735 144.462L39.5994 146.379C39.703 146.51 39.7175 146.607 39.6428 146.669C39.2148 147.06 38.6965 147.294 38.0878 147.373C37.469 147.442 36.8277 147.352 36.164 147.103C35.4901 146.845 34.8479 146.439 34.2372 145.885ZM40.4209 139.674C39.9832 139.278 39.5057 139.058 38.9883 139.015C38.4709 138.973 38.0462 139.135 37.7143 139.501L37.2164 140.051C37.1703 140.102 37.1726 140.15 37.2235 140.196L38.3227 141.192C38.7807 141.607 39.2203 141.848 39.6417 141.915C40.0529 141.972 40.4014 141.843 40.6873 141.528C40.9362 141.253 41.0378 140.946 40.992 140.608C40.9369 140.281 40.7465 139.969 40.4209 139.674Z" fill="#222222"/>
<path d="M26.8517 134.745C26.9037 134.7 26.9684 134.681 27.0459 134.687C27.104 134.691 27.1555 134.719 27.2003 134.771L28.4911 136.269C28.5359 136.321 28.5844 136.325 28.6364 136.28L31.945 133.43C32.2883 133.134 32.485 132.847 32.5349 132.568C32.5759 132.279 32.4619 131.978 32.193 131.666L31.7493 131.151C31.7044 131.099 31.6894 131.039 31.7041 130.972C31.6995 130.904 31.7232 130.847 31.7752 130.802L33.2578 129.525C33.3722 129.426 33.4937 129.431 33.622 129.538C34.0193 129.957 34.2987 130.26 34.46 130.447C35.204 131.311 35.6193 132.077 35.7059 132.745C35.7821 133.423 35.4294 134.107 34.6476 134.799L30.465 138.403C30.413 138.447 30.4094 138.496 30.4542 138.548L31.2207 139.438C31.2655 139.49 31.2902 139.55 31.2949 139.618C31.2801 139.685 31.2468 139.741 31.1947 139.786L29.8058 140.983C29.7537 141.028 29.6987 141.048 29.6406 141.044C29.5631 141.038 29.502 141.009 29.4571 140.957L28.6907 140.067C28.6459 140.015 28.5975 140.012 28.5454 140.057L26.6883 141.657C26.6362 141.701 26.5812 141.722 26.5231 141.717C26.4456 141.712 26.3845 141.683 26.3396 141.631L24.8337 139.883C24.7889 139.831 24.7738 139.771 24.7885 139.704C24.7839 139.636 24.8076 139.579 24.8596 139.534L26.7168 137.934C26.7688 137.889 26.7724 137.841 26.7276 137.789L25.4368 136.291C25.3919 136.239 25.3769 136.179 25.3916 136.112C25.387 136.043 25.4107 135.987 25.4627 135.942L26.8517 134.745Z" fill="#222222"/>
<path d="M22.2026 124.146C22.5923 123.789 23.0638 123.444 23.6172 123.111C23.7622 123.031 23.8802 123.06 23.9712 123.198L27.4847 128.505C27.5302 128.574 27.574 128.578 27.6161 128.517C27.8224 128.331 28.0097 128.117 28.1781 127.873C28.6223 127.151 28.5412 126.332 27.9348 125.416C27.4382 124.691 26.7576 124.309 25.8931 124.272C25.7941 124.272 25.7256 124.243 25.6877 124.186C25.6649 124.152 25.6613 124.096 25.6768 124.02L26.0777 121.976C26.0971 121.881 26.1296 121.818 26.1754 121.788C26.1983 121.773 26.2593 121.765 26.3583 121.766C27.078 121.833 27.7666 122.077 28.4242 122.498C29.0703 122.927 29.6284 123.496 30.0984 124.206C30.7503 125.191 31.0804 126.175 31.0886 127.157C31.0892 128.129 30.7873 129.028 30.1828 129.857C29.7694 130.476 29.0989 131.093 28.1713 131.707C27.5415 132.124 26.9292 132.406 26.3346 132.552C25.3471 132.827 24.3969 132.798 23.4838 132.463C22.5632 132.117 21.8034 131.492 21.2046 130.587C20.4465 129.442 20.1722 128.306 20.3815 127.18C20.5833 126.041 21.1903 125.03 22.2026 124.146ZM23.2889 129.183C23.7664 129.904 24.4189 130.156 25.2461 129.938C25.4253 129.885 25.6351 129.804 25.8754 129.694C25.9326 129.656 25.9423 129.609 25.9044 129.552L23.9373 126.58C23.8918 126.511 23.848 126.507 23.8059 126.568C23.5117 126.845 23.3703 126.98 23.3818 126.972C23.1065 127.303 22.9644 127.66 22.9555 128.045C22.9276 128.426 23.0387 128.805 23.2889 129.183Z" fill="#222222"/>
<path d="M25.4249 115.703C25.8156 116.536 26.0387 117.319 26.094 118.051C26.1494 118.784 26.0473 119.423 25.7879 119.97C25.5226 120.504 25.1226 120.896 24.588 121.147L24.4015 121.234C24.3393 121.264 24.2808 121.268 24.2261 121.248C24.153 121.222 24.1019 121.178 24.0727 121.116L23.1017 119.045C23.0726 118.983 23.0741 118.922 23.1063 118.861C23.1203 118.794 23.1584 118.746 23.2205 118.717L23.2392 118.708C23.5127 118.58 23.679 118.32 23.738 117.928C23.7787 117.529 23.6911 117.1 23.4754 116.64C23.2771 116.218 23.0359 115.913 22.7518 115.728C22.4552 115.549 22.1826 115.517 21.934 115.634C21.7101 115.739 21.5948 115.93 21.5879 116.206C21.5809 116.482 21.6348 116.904 21.7496 117.472C21.8745 118.127 21.9473 118.654 21.968 119.054C22.0677 119.978 22.0294 120.769 21.8532 121.428C21.6769 122.088 21.2157 122.592 20.4697 122.942C19.5497 123.374 18.6561 123.36 17.789 122.902C16.9037 122.438 16.184 121.615 15.63 120.434C15.2567 119.638 15.0607 118.881 15.0419 118.161C15.0106 117.448 15.1492 116.822 15.4576 116.283C15.7602 115.731 16.2037 115.318 16.7881 115.044C16.8502 115.015 16.9178 115.014 16.9909 115.04C17.0457 115.06 17.0877 115.101 17.1168 115.163L18.0529 117.159C18.082 117.221 18.0896 117.285 18.0756 117.353C18.0434 117.413 17.9962 117.458 17.934 117.487C17.6605 117.616 17.4975 117.867 17.4452 118.24C17.387 118.601 17.4657 119.012 17.6815 119.472C17.874 119.882 18.106 120.183 18.3777 120.374C18.6494 120.565 18.9158 120.599 19.1769 120.477C19.4256 120.36 19.5537 120.148 19.5614 119.841C19.5633 119.522 19.4927 119.032 19.3495 118.371C19.3226 118.216 19.2933 118.041 19.2614 117.843C19.217 117.652 19.1793 117.442 19.1481 117.214C18.9952 116.208 19.0043 115.355 19.1755 114.652C19.3467 113.95 19.8239 113.415 20.6073 113.048C21.5273 112.616 22.4205 112.645 23.2868 113.134C24.1348 113.616 24.8475 114.472 25.4249 115.703Z" fill="#222222"/>
<path d="M20.8365 101.941C21.0806 103.012 21.1269 103.988 20.9753 104.867C20.8103 105.75 20.4634 106.484 19.9348 107.069C19.3898 107.644 18.6955 108.028 17.8519 108.22L17.41 108.321C17.3431 108.336 17.285 108.328 17.2356 108.297C17.1699 108.256 17.1294 108.202 17.1141 108.135L16.5922 105.845C16.5769 105.778 16.5915 105.719 16.6359 105.666C16.6639 105.604 16.7113 105.565 16.7783 105.549L17.0795 105.481C17.6151 105.359 18.0139 105.007 18.2759 104.426C18.5245 103.848 18.5527 103.138 18.3604 102.294C18.1987 101.584 17.9308 101.089 17.5569 100.808C17.1696 100.53 16.755 100.442 16.3131 100.542C15.9917 100.616 15.7484 100.784 15.583 101.047C15.4042 101.313 15.2771 101.652 15.2019 102.063C15.1103 102.464 15.0087 103.1 14.8972 103.971C14.7938 104.938 14.6531 105.773 14.4752 106.476C14.2942 107.165 13.9781 107.786 13.5267 108.34C13.059 108.883 12.4167 109.248 11.5999 109.434C10.7965 109.617 10.0462 109.57 9.34908 109.292C8.65192 109.014 8.05873 108.544 7.56951 107.881C7.08029 107.218 6.72581 106.404 6.50606 105.44C6.27411 104.422 6.24886 103.477 6.43031 102.605C6.60872 101.719 6.97562 100.98 7.531 100.389C8.06995 99.7872 8.7679 99.3887 9.62485 99.1933L9.92613 99.1247C9.99308 99.1094 10.0594 99.1224 10.1252 99.1638C10.1745 99.1948 10.2068 99.2438 10.2221 99.3107L10.7486 101.621C10.7638 101.687 10.7575 101.752 10.7295 101.815C10.6851 101.867 10.6294 101.901 10.5625 101.916L10.4018 101.953C9.83942 102.081 9.41749 102.424 9.13601 102.981C8.83808 103.528 8.78068 104.203 8.9638 105.006C9.10724 105.636 9.35407 106.101 9.70427 106.401C10.0514 106.688 10.4593 106.778 10.928 106.672C11.2627 106.595 11.521 106.431 11.7029 106.178C11.8817 105.912 12.019 105.557 12.1149 105.112C12.1944 104.657 12.2904 103.966 12.403 103.039C12.5345 102.009 12.6731 101.196 12.8188 100.599C12.9614 99.9893 13.2517 99.409 13.6897 98.8584C14.1112 98.2975 14.7437 97.9209 15.5873 97.7286C16.8459 97.4418 17.9487 97.6763 18.8958 98.4324C19.8294 99.1915 20.4763 100.361 20.8365 101.941Z" fill="#222222"/>
<path d="M8.23037 83.9465C8.20936 82.8755 8.5156 82.0316 9.14908 81.4148C9.78257 80.798 10.6829 80.4781 11.85 80.4552L18.6673 80.3215C18.7359 80.3201 18.7982 80.3464 18.8542 80.4002C18.8962 80.4406 18.9179 80.4951 18.9193 80.5638L18.9666 82.9735C18.9679 83.0422 18.9485 83.1044 18.9084 83.1601C18.8543 83.2024 18.7929 83.2242 18.7242 83.2255L12.5454 83.3468C11.9825 83.3578 11.5391 83.5107 11.2152 83.8055C10.8913 84.1003 10.7341 84.488 10.7435 84.9686C10.7529 85.4492 10.9254 85.8373 11.2608 86.1329C11.5963 86.4285 12.0387 86.5709 12.5879 86.5601L18.7873 86.4385C18.8559 86.4372 18.9183 86.4634 18.9743 86.5172C19.0163 86.5576 19.0379 86.6121 19.0393 86.6808L19.0862 89.0699C19.0875 89.1386 19.0681 89.2008 19.028 89.2565C18.9739 89.2988 18.9125 89.3206 18.8439 89.3219L12.6651 89.4432C12.1158 89.454 11.6794 89.6136 11.3558 89.9222C11.0185 90.231 10.8545 90.6257 10.8639 91.1062C10.8726 91.5456 11.0103 91.9138 11.2771 92.2107C11.5436 92.494 11.9109 92.6585 12.3788 92.7042L18.9077 92.5761C18.9764 92.5748 19.0387 92.601 19.0947 92.6549C19.1367 92.6952 19.1584 92.7498 19.1597 92.8184L19.207 95.2282C19.2083 95.2968 19.189 95.359 19.1488 95.4147C19.0947 95.457 19.0334 95.4788 18.9647 95.4802L8.87264 95.6782C8.80399 95.6795 8.74866 95.66 8.70666 95.6196C8.65066 95.5658 8.62199 95.5045 8.62064 95.4359L8.57336 93.0261C8.57201 92.9575 8.59839 92.902 8.65251 92.8598C8.69262 92.804 8.74701 92.7755 8.81566 92.7741L9.6189 92.7584C9.6601 92.7576 9.68729 92.7433 9.70048 92.7156C9.71367 92.6878 9.6994 92.6606 9.65767 92.634C8.80905 92.0875 8.37316 91.2238 8.34999 90.0429C8.33652 89.3564 8.46897 88.7563 8.74735 88.2426C9.02546 87.7152 9.42956 87.3089 9.95967 87.0238C10.0412 86.981 10.0403 86.9329 9.95684 86.8796C9.38796 86.5886 8.96122 86.1917 8.67664 85.6891C8.39179 85.1727 8.24303 84.5919 8.23037 83.9465Z" fill="#222222"/>
<path d="M8.06011 75.8245C7.99623 76.287 7.79303 76.6541 7.45052 76.9256C7.09629 77.1817 6.6879 77.2778 6.22536 77.2139C5.74921 77.1482 5.38216 76.945 5.12421 76.6043C4.86625 76.2637 4.77016 75.8553 4.83592 75.3792C4.90168 74.903 5.10488 74.536 5.44551 74.278C5.78614 74.0201 6.19452 73.924 6.67067 73.9897C7.13321 74.0536 7.49933 74.2636 7.76901 74.6197C8.02696 74.9604 8.124 75.362 8.06011 75.8245ZM19.5634 78.661C19.554 78.729 19.5251 78.7874 19.4768 78.8362C19.4168 78.8695 19.3527 78.8815 19.2847 78.8721L9.26522 77.4882C9.1972 77.4788 9.1456 77.4509 9.11042 77.4045C9.06352 77.3425 9.04477 77.2775 9.05417 77.2095L9.38392 74.822C9.39332 74.754 9.42804 74.7033 9.48809 74.67C9.53642 74.6212 9.5946 74.6015 9.66262 74.6109L19.6821 75.9948C19.7501 76.0042 19.8076 76.0398 19.8545 76.1018C19.8897 76.1482 19.9026 76.2055 19.8932 76.2735L19.5634 78.661Z" fill="#222222"/>
<path d="M20.345 73.7533C20.3308 73.8205 20.298 73.8767 20.2463 73.922C20.1841 73.951 20.1194 73.9585 20.0522 73.9443L6.42471 71.0783C6.35752 71.0641 6.308 71.0327 6.27616 70.9839C6.23371 70.9188 6.21955 70.8527 6.23368 70.7855L6.72973 68.4269C6.74386 68.3597 6.78205 68.3116 6.84428 68.2826C6.89591 68.2373 6.95532 68.2217 7.02251 68.2359L20.65 71.1019C20.7172 71.116 20.772 71.1556 20.8145 71.2207C20.8463 71.2695 20.8552 71.3275 20.841 71.3947L20.345 73.7533Z" fill="#222222"/>
<path d="M18.1156 58.4595C18.6369 58.5452 19.1997 58.7025 19.8038 58.9313C19.956 58.9961 20.0062 59.1068 19.9544 59.2632L17.9548 65.3064C17.9289 65.3846 17.9529 65.4215 18.0267 65.417C18.3004 65.4641 18.5849 65.4787 18.8801 65.4607C19.7224 65.3633 20.3162 64.7931 20.6613 63.75C20.9244 62.9113 20.8032 62.1407 20.2979 61.4383C20.237 61.3602 20.2173 61.2886 20.2388 61.2234C20.2518 61.1843 20.2929 61.1473 20.3624 61.1124L22.2168 60.1637C22.3036 60.1201 22.3731 60.1069 22.4252 60.1242C22.4513 60.1328 22.4948 60.1762 22.5558 60.2542C22.948 60.8613 23.1818 61.5535 23.2574 62.3307C23.3199 63.1036 23.2174 63.8942 22.9499 64.7026C22.5789 65.8239 22.0097 66.6915 21.2424 67.3056C20.4794 67.9066 19.5854 68.2256 18.5606 68.2626C17.8181 68.3206 16.9188 68.175 15.8627 67.8255C15.1456 67.5882 14.5456 67.2812 14.0627 66.9044C13.2363 66.2983 12.6722 65.533 12.3705 64.6086C12.0731 63.6712 12.0948 62.6875 12.4356 61.6575C12.8671 60.3537 13.5903 59.4357 14.6054 58.9037C15.6247 58.3586 16.7948 58.2105 18.1156 58.4595ZM14.8281 62.4274C14.5563 63.2488 14.7619 63.9172 15.4448 64.4325C15.5971 64.5407 15.7906 64.6554 16.0254 64.7765C16.0906 64.798 16.1339 64.7762 16.1555 64.711L17.275 61.3276C17.3009 61.2494 17.277 61.2126 17.2031 61.2171C16.8035 61.1571 16.6101 61.1293 16.6232 61.1336C16.1932 61.1216 15.8243 61.231 15.5165 61.4618C15.1999 61.6753 14.9705 61.9972 14.8281 62.4274Z" fill="#222222"/>
<path d="M26.6716 55.2592C26.6359 55.3178 26.5862 55.36 26.5225 55.3855C26.4542 55.3922 26.3907 55.3778 26.332 55.3421L14.4293 48.1137C14.3707 48.0781 14.3344 48.032 14.3206 47.9754C14.3021 47.8999 14.3107 47.8328 14.3464 47.7741L17.0196 43.3723C17.5542 42.4919 18.1796 41.8193 18.8958 41.3544C19.6073 40.8707 20.3553 40.6179 21.1397 40.5962C21.9241 40.5745 22.6861 40.7882 23.4256 41.2373L28.2853 44.1885C29.0248 44.6376 29.5658 45.2152 29.9082 45.9213C30.2507 46.6273 30.3772 47.4112 30.2878 48.2727C30.1938 49.1154 29.8795 49.9769 29.3448 50.8573L26.6716 55.2592ZM25.8324 51.6405C25.8911 51.6761 25.9383 51.6646 25.9739 51.6059L27.2678 49.4754C27.5957 48.9355 27.6775 48.3906 27.5132 47.841C27.3561 47.2796 26.9758 46.8077 26.3726 46.4253L22.3229 43.9659C21.7125 43.5952 21.122 43.4696 20.5514 43.589C19.9879 43.6967 19.535 44.0322 19.1929 44.5957L17.9097 46.7086C17.8741 46.7673 17.8856 46.8144 17.9443 46.8501L25.8324 51.6405Z" fill="#222222"/>
<path d="M34.3698 33.9532C34.8189 34.2314 35.2791 34.5915 35.7502 35.0336C35.8661 35.1516 35.8703 35.273 35.7627 35.3979L31.6082 40.2206C31.5544 40.283 31.5625 40.3262 31.6325 40.3502C31.8675 40.4983 32.1249 40.6203 32.4047 40.7163C33.2204 40.9478 33.9868 40.6473 34.7038 39.8149C35.2671 39.14 35.4492 38.3815 35.2502 37.5394C35.2236 37.444 35.2327 37.3703 35.2776 37.3182C35.3044 37.287 35.3566 37.2685 35.4341 37.2628L37.5103 37.0936C37.6071 37.0864 37.6763 37.1007 37.718 37.1366C37.7388 37.1545 37.7625 37.2112 37.789 37.3066C37.9199 38.0174 37.8719 38.7465 37.6451 39.4937C37.4079 40.2319 37.0115 40.9236 36.4557 41.5687C35.6849 42.4636 34.8277 43.0483 33.8841 43.3231C32.9494 43.5874 32.0014 43.5411 31.04 43.1842C30.3316 42.9545 29.5559 42.4767 28.7131 41.7507C28.1408 41.2577 27.7034 40.7449 27.4009 40.2124C26.8683 39.3367 26.6389 38.4141 26.7128 37.4445C26.7957 36.4646 27.1912 35.5636 27.8993 34.7416C28.7956 33.7011 29.8144 33.1286 30.9557 33.0242C32.1059 32.9094 33.244 33.2191 34.3698 33.9532ZM29.8168 36.3663C29.2521 37.0218 29.1871 37.718 29.6217 38.455C29.7211 38.6131 29.8563 38.7929 30.0271 38.9944C30.0791 39.0393 30.1275 39.0357 30.1723 38.9836L32.4983 36.2835C32.5521 36.2211 32.544 36.1779 32.474 36.1539C32.1275 35.946 31.9594 35.8465 31.9698 35.8555C31.577 35.6802 31.1943 35.6405 30.8216 35.7364C30.4475 35.813 30.1126 36.0229 29.8168 36.3663Z" fill="#222222"/>
<path d="M43.3643 34.7605C42.6693 35.3635 41.977 35.7915 41.2873 36.0444C40.5977 36.2973 39.9546 36.3735 39.3582 36.2728C38.7721 36.1631 38.2855 35.8852 37.8985 35.4392L37.7635 35.2836C37.7185 35.2317 37.6981 35.1767 37.7022 35.1186C37.7077 35.0411 37.7364 34.9799 37.7882 34.9349L39.5154 33.4364C39.5672 33.3914 39.6267 33.3761 39.6938 33.3906C39.7623 33.3857 39.8191 33.4092 39.8641 33.4611L39.8776 33.4766C40.0756 33.7048 40.3711 33.7939 40.764 33.7439C41.1584 33.6745 41.5474 33.4733 41.9312 33.1403C42.2839 32.8343 42.5107 32.5193 42.6115 32.1955C42.7033 31.8612 42.6592 31.5904 42.4792 31.3829C42.3172 31.1962 42.1024 31.1372 41.8347 31.2058C41.5669 31.2745 41.1754 31.4414 40.6601 31.7067C40.0646 32.0052 39.5773 32.219 39.1982 32.3479C38.3363 32.6957 37.5643 32.8746 36.8821 32.8847C36.1999 32.8947 35.5888 32.5886 35.0488 31.9662C34.3828 31.1986 34.1519 30.3353 34.3562 29.3762C34.5618 28.3978 35.1574 27.4811 36.1428 26.626C36.8067 26.05 37.4821 25.6549 38.169 25.4408C38.8469 25.2162 39.4872 25.1788 40.0899 25.3286C40.703 25.4694 41.221 25.7836 41.644 26.2711C41.689 26.323 41.7088 26.3877 41.7033 26.4652C41.6992 26.5233 41.6712 26.5749 41.6193 26.6199L39.9545 28.0644C39.9026 28.1094 39.8424 28.1343 39.7739 28.1392C39.7068 28.1247 39.6507 28.0915 39.6057 28.0397C39.4077 27.8115 39.1219 27.7231 38.7484 27.7745C38.3851 27.8169 38.0116 28.0046 37.6278 28.3376C37.2855 28.6346 37.0594 28.9398 36.9496 29.2533C36.8398 29.5668 36.8794 29.8325 37.0684 30.0503C37.2484 30.2578 37.4871 30.3234 37.7846 30.2471C38.0924 30.1618 38.5448 29.9602 39.1417 29.6423C39.2828 29.5744 39.444 29.4982 39.6252 29.4137C39.7974 29.3188 39.989 29.2253 40.2 29.1332C41.1255 28.712 41.9494 28.4881 42.6717 28.4614C43.394 28.4347 44.0386 28.7481 44.6056 29.4016C45.2717 30.1692 45.4877 31.0363 45.2537 32.003C45.021 32.9503 44.3912 33.8695 43.3643 34.7605Z" fill="#222222"/>
<path d="M42.0224 20.764C41.6392 21.0308 41.2316 21.1304 40.7998 21.0629C40.3713 20.9762 40.0237 20.7413 39.757 20.358C39.4824 19.9635 39.3828 19.556 39.4581 19.1354C39.5335 18.7148 39.7684 18.3672 40.163 18.0926C40.5575 17.818 40.965 17.7184 41.3856 17.7938C41.8062 17.8692 42.1538 18.1041 42.4284 18.4986C42.6951 18.8818 42.7891 19.2933 42.7103 19.733C42.6349 20.1536 42.4056 20.4973 42.0224 20.764ZM47.7396 31.1411C47.6832 31.1804 47.6207 31.1988 47.5521 31.1963C47.4869 31.1748 47.4347 31.1358 47.3955 31.0795L41.6171 22.778C41.5779 22.7216 41.5634 22.6647 41.5737 22.6074C41.5874 22.5309 41.6224 22.4731 41.6788 22.4338L43.6569 21.0569C43.7133 21.0177 43.7741 21.0088 43.8393 21.0304C43.9079 21.0328 43.9618 21.0622 44.001 21.1186L49.7794 29.4201C49.8187 29.4765 49.8314 29.5429 49.8177 29.6194C49.8074 29.6767 49.7741 29.725 49.7178 29.7642L47.7396 31.1411Z" fill="#222222"/>
<path d="M52.4965 16.1843C52.464 16.1238 52.4561 16.0657 52.4729 16.0099C52.4952 15.9355 52.5366 15.882 52.5971 15.8495L54.7197 14.7078C54.7802 14.6752 54.8416 14.6734 54.9039 14.7023C54.9718 14.7125 55.022 14.7479 55.0545 14.8084L59.5043 23.0812C60.3565 24.6656 60.5051 26.0437 59.9502 27.2154C59.4074 28.3806 58.4164 29.3503 56.9771 30.1245C56.5538 30.3521 56.0658 30.5756 55.5132 30.7949C55.3858 30.8478 55.283 30.8018 55.2049 30.6566L54.2724 28.7489C54.1879 28.5917 54.2367 28.4796 54.4191 28.4128C54.8935 28.2511 55.3122 28.0727 55.675 27.8776C56.4491 27.4612 56.9506 26.9731 57.1797 26.4133C57.4209 25.8469 57.3398 25.1888 56.9365 24.439C56.9169 24.4027 56.8951 24.391 56.8709 24.4041C56.8402 24.405 56.8193 24.424 56.8081 24.4612C56.6152 25.2043 56.0773 25.8133 55.1944 26.2882C54.4082 26.7111 53.5817 26.9139 52.7148 26.8968C51.8535 26.861 51.0561 26.4947 50.3225 25.7977C49.8419 25.3389 49.3641 24.668 48.8892 23.7851C48.3818 22.8417 48.0775 22.0151 47.9765 21.3054C47.8336 20.431 47.9442 19.6074 48.3083 18.8346C48.6723 18.0619 49.2535 17.4608 50.0517 17.0314C50.983 16.5305 51.8462 16.4249 52.6414 16.7145C52.6786 16.7257 52.7093 16.7248 52.7334 16.7118C52.7511 16.6867 52.7502 16.656 52.7307 16.6197L52.4965 16.1843ZM55.5032 22.1223C55.4048 21.7074 55.1865 21.1855 54.8482 20.5565C54.6465 20.1816 54.4783 19.8978 54.3435 19.7052C54.2088 19.5126 54.0623 19.3419 53.9043 19.193C53.6198 18.925 53.2985 18.7625 52.9404 18.7056C52.5758 18.6366 52.2061 18.703 51.8311 18.9046C51.4683 19.0998 51.2152 19.3685 51.0718 19.7107C50.9219 20.0408 50.8743 20.4017 50.929 20.7933C50.9548 21.2472 51.1336 21.7826 51.4654 22.3995C51.8297 23.0768 52.1625 23.5215 52.4637 23.7337C52.7482 24.0017 53.0788 24.167 53.4555 24.2295C53.8378 24.2734 54.2164 24.1945 54.5913 23.9928C54.9784 23.7846 55.2468 23.5155 55.3967 23.1854C55.5401 22.8431 55.5756 22.4888 55.5032 22.1223Z" fill="#222222"/>
<path d="M62.8757 11.4717C63.9127 11.1088 64.8599 11.1337 65.7174 11.5465C66.5749 11.9594 67.1941 12.7102 67.5753 13.799L69.8075 20.1765C69.8302 20.2413 69.8246 20.3087 69.7909 20.3787C69.7657 20.4312 69.7206 20.4688 69.6558 20.4915L67.3809 21.2877C67.3161 21.3104 67.251 21.3114 67.1855 21.2906C67.1285 21.2524 67.0886 21.2009 67.0659 21.136L65.0311 15.3225C64.8496 14.804 64.5531 14.4349 64.1415 14.2152C63.743 13.9909 63.3039 13.9628 62.8242 14.1306C62.3446 14.2985 62.0125 14.5966 61.8278 15.025C61.656 15.4489 61.6609 15.9201 61.8424 16.4386L63.8772 22.2521C63.8999 22.317 63.8944 22.3844 63.8607 22.4544C63.8354 22.5069 63.7904 22.5444 63.7256 22.5671L61.4507 23.3634C61.3859 23.3861 61.3208 23.387 61.2553 23.3663C61.1983 23.3281 61.1584 23.2765 61.1357 23.2117L57.801 13.6845C57.7783 13.6197 57.7796 13.561 57.8049 13.5085C57.8386 13.4385 57.8879 13.3922 57.9527 13.3695L60.2275 12.5732C60.2924 12.5506 60.3533 12.5583 60.4103 12.5966C60.4758 12.6173 60.5198 12.6601 60.5425 12.7249L60.7807 13.4054C60.7943 13.4443 60.8164 13.4657 60.8468 13.4696C60.8773 13.4735 60.8945 13.4602 60.8984 13.4297C61.1667 12.4919 61.8258 11.8392 62.8757 11.4717Z" fill="#222222"/>
<path d="M74.4501 14.537C74.3821 14.5467 74.318 14.535 74.2578 14.502C74.2092 14.4535 74.1801 14.3952 74.1704 14.3272L73.8876 12.3491C73.8779 12.2812 73.8905 12.2239 73.9255 12.1772C73.9721 12.1151 74.0294 12.0792 74.0974 12.0694L80.7658 11.1163C80.8338 11.1065 80.892 11.126 80.9406 11.1745C81.0008 11.2075 81.0358 11.258 81.0455 11.326L81.3282 13.3041C81.338 13.3721 81.3195 13.4371 81.2729 13.4993C81.2379 13.5459 81.1865 13.5741 81.1185 13.5838L74.4501 14.537Z" fill="#222222"/>
</svg>
