<svg width="22" height="22" viewBox="0 0 22 22" fill="none" xmlns="http://www.w3.org/2000/svg">
<path d="M10.0269 1.76909C7.84116 1.77275 5.74597 2.64267 4.2004 4.18824C2.65483 5.73381 1.78491 7.829 1.78125 10.0148C1.78308 12.2024 2.65196 14.3 4.19753 15.8482C5.7431 17.3964 7.83932 18.2688 10.0269 18.2743C11.9671 18.2743 13.7548 17.5918 15.1683 16.4623L18.6017 19.8957C18.7757 20.0574 19.0055 20.1455 19.243 20.1413C19.4804 20.1371 19.7071 20.0411 19.8752 19.8734C20.0434 19.7057 20.14 19.4793 20.1448 19.2419C20.1496 19.0044 20.0622 18.7743 19.9009 18.6L16.4675 15.1631C17.6402 13.7047 18.2794 11.8896 18.2795 10.0182C18.2795 5.47271 14.5724 1.76909 10.0269 1.76909ZM10.0269 3.60531C13.5816 3.60531 16.4433 6.46358 16.4433 10.0148C16.4433 13.5659 13.5816 16.4415 10.0269 16.4415C6.47227 16.4415 3.61401 13.5763 3.61401 10.0217C3.61401 6.46704 6.47227 3.60531 10.0269 3.60531Z" fill="url(#paint0_linear_1624_6752)"/>
<defs>
<linearGradient id="paint0_linear_1624_6752" x1="7.9002" y1="1.76562" x2="19.7549" y2="3.95459" gradientUnits="userSpaceOnUse">
<stop stop-color="#C3942F"/>
<stop offset="0.234" stop-color="#D89C27"/>
<stop offset="0.449" stop-color="#E7DC96"/>
<stop offset="0.669" stop-color="#DFC86F"/>
<stop offset="0.849" stop-color="#D89C27"/>
<stop offset="1" stop-color="#C99C30"/>
</linearGradient>
</defs>
</svg>
