<svg width="20" height="20" viewBox="0 0 20 20" fill="none" xmlns="http://www.w3.org/2000/svg">
<path d="M9.02692 0.76909C6.84116 0.772754 4.74597 1.64267 3.2004 3.18824C1.65483 4.73381 0.784914 6.829 0.78125 9.01476C0.783077 11.2024 1.65196 13.3 3.19753 14.8482C4.7431 16.3964 6.83932 17.2688 9.02692 17.2743C10.9671 17.2743 12.7548 16.5918 14.1683 15.4623L17.6017 18.8957C17.7757 19.0574 18.0055 19.1455 18.243 19.1413C18.4804 19.1371 18.7071 19.0411 18.8752 18.8734C19.0434 18.7057 19.14 18.4793 19.1448 18.2419C19.1496 18.0044 19.0622 17.7743 18.9009 17.6L15.4675 14.1631C16.6402 12.7047 17.2794 10.8896 17.2795 9.01822C17.2795 4.47271 13.5724 0.76909 9.02692 0.76909ZM9.02692 2.60531C12.5816 2.60531 15.4433 5.46358 15.4433 9.01476C15.4433 12.5659 12.5816 15.4415 9.02692 15.4415C5.47227 15.4415 2.61401 12.5763 2.61401 9.02169C2.61401 5.46704 5.47227 2.60531 9.02692 2.60531Z" fill="black"/>
</svg>
