<svg width="217" height="168" viewBox="0 0 217 168" fill="none" xmlns="http://www.w3.org/2000/svg">
<path d="M193.995 1.05865C203.607 -1.77802 213.832 3.70803 215.353 13.614C218.84 36.3268 216.426 59.6556 208.196 81.3051C197.81 108.629 178.736 131.764 153.909 147.152C129.082 162.539 99.8771 169.328 70.786 166.472C47.7361 164.21 25.7695 155.992 6.98023 142.764C-1.2145 136.995 -1.57808 125.396 5.239 118.05C12.0661 110.693 23.5008 110.442 31.9927 115.792C44.7033 123.8 59.1656 128.796 74.2672 130.278C95.431 132.356 116.678 127.417 134.74 116.223C152.801 105.028 166.678 88.197 174.234 68.319C179.625 54.1349 181.586 38.9599 180.07 24.0137C179.057 14.0284 184.369 3.89945 193.995 1.05865Z" fill="#FBE9D0" fill-opacity="0.31"/>
</svg>
