<svg width="267" height="101" viewBox="0 0 267 101" fill="none" xmlns="http://www.w3.org/2000/svg">
<path d="M252.127 0.729761C263.03 3.26773 269.654 14.5651 264.666 24.5867C255.084 43.8358 240.266 60.801 221.403 73.8764C196.488 91.1463 165.898 100.674 134.338 100.993C102.778 101.313 71.995 92.4066 46.7253 75.6447C27.594 62.9545 12.4249 46.2939 2.44321 27.244C-2.75348 17.3262 3.63831 5.89192 14.4899 3.13282C24.453 0.599595 34.4903 6.41266 39.5938 15.3366C46.8347 27.9982 57.2876 39.0862 70.235 47.6744C88.6189 59.8688 111.013 66.3481 133.974 66.1157C156.934 65.8832 179.188 58.952 197.314 46.388C210.074 37.5431 220.29 26.2514 227.264 13.4524C232.186 4.42016 242.108 -1.60225 252.127 0.729761Z" fill="#DD7210"/>
</svg>
