<svg width="267" height="102" viewBox="0 0 267 102" fill="none" xmlns="http://www.w3.org/2000/svg">
<path d="M252.26 1.00613C263.163 3.5441 269.787 14.8414 264.798 24.8631C255.217 44.1122 240.398 61.0774 221.535 74.1528C196.621 91.4227 166.031 100.95 134.471 101.27C102.91 101.589 72.1278 92.6829 46.8581 75.921C27.7268 63.2309 12.5577 46.5702 2.57602 27.5203C-2.62067 17.6025 3.77112 6.16829 14.6227 3.40919C24.5858 0.875962 34.6231 6.68902 39.7266 15.613C46.9675 28.2746 57.4205 39.3625 70.3679 47.9508C88.7517 60.1452 111.146 66.6245 134.106 66.392C157.067 66.1596 179.321 59.2283 197.446 46.6644C210.206 37.8194 220.422 26.5278 227.397 13.7287C232.319 4.69653 242.241 -1.32589 252.26 1.00613Z" fill="#D89C27" fill-opacity="0.97"/>
</svg>
