<svg width="60" height="56" viewBox="0 0 60 56" fill="none" xmlns="http://www.w3.org/2000/svg">
<path d="M16.6049 6.74219C14.0308 6.76637 11.5414 7.66516 9.54561 9.29097C9.44131 9.3688 9.35377 9.46685 9.2882 9.57927C9.22263 9.69168 9.18038 9.81615 9.16398 9.94525C9.14757 10.0744 9.15735 10.2054 9.19272 10.3307C9.2281 10.4559 9.28834 10.5727 9.36986 10.6742C9.45138 10.7756 9.5525 10.8596 9.66719 10.9211C9.78188 10.9826 9.90779 11.0204 10.0374 11.0321C10.167 11.0439 10.2976 11.0294 10.4215 10.9896C10.5454 10.9498 10.66 10.8854 10.7585 10.8003C12.4106 9.45121 14.4721 8.70348 16.6049 8.67969C16.8618 8.67969 17.1082 8.57762 17.2899 8.39595C17.4716 8.21427 17.5736 7.96787 17.5736 7.71094C17.5736 7.45401 17.4716 7.2076 17.2899 7.02593C17.1082 6.84425 16.8618 6.74219 16.6049 6.74219Z" fill="white"/>
<path d="M57.9052 25.4441C58.8355 23.0707 59.2154 20.5171 59.0162 17.9757C58.8171 15.4342 58.044 12.971 56.7553 10.7714L57.696 10.257C58.1095 10.0312 58.4546 9.69811 58.6951 9.29284C58.9355 8.88758 59.0624 8.42505 59.0624 7.95384C59.0624 7.48262 58.9355 7.02009 58.6951 6.61483C58.4546 6.20956 58.1095 5.87651 57.696 5.65063L56.5131 5.00351C55.5627 4.4843 54.7815 3.70281 54.2627 2.75213L53.6156 1.57026C53.3894 1.15699 53.0561 0.812196 52.6508 0.572005C52.2455 0.331815 51.783 0.205078 51.3119 0.205078C50.8408 0.205078 50.3783 0.331815 49.973 0.572005C49.5677 0.812196 49.2345 1.15699 49.0082 1.57026L48.3611 2.7531C48.1998 3.04092 48.0137 3.31417 47.805 3.56976C41.7087 1.64195 35.3004 3.74026 29.9994 9.41132C22.9372 1.84345 15.1911 1.80276 9.85909 4.49976C5.31178 4.84173 2.34644 6.34038 1.29341 8.85913C0.971857 9.74227 0.842343 10.6838 0.913507 11.621C0.984671 12.5582 1.25488 13.4694 1.70609 14.2938C0.564714 17.9467 0.701383 21.8793 2.09359 25.4441C3.04612 27.7414 4.24812 29.9271 5.67797 31.9619C7.35391 34.5329 8.93684 36.9626 9.58784 39.8649C9.82558 41.1104 9.94784 42.3751 9.95306 43.6431C9.95381 45.16 10.1234 46.6722 10.4588 48.1516C11.7578 53.0981 14.6622 55.8842 18.4994 55.796C24.5415 55.6585 26.0382 49.784 27.2404 45.0691C27.9573 42.2597 28.6034 39.3069 30.0013 39.3069C31.3993 39.3069 32.0454 42.2587 32.7623 45.0691C33.9645 49.784 35.4612 55.6527 41.5023 55.796C45.3221 55.8396 48.2458 53.101 49.543 48.1516C49.8783 46.6722 50.0479 45.16 50.0487 43.6431C50.0539 42.3751 50.1761 41.1104 50.4139 39.8649C50.617 38.9888 50.9008 38.1333 51.2615 37.3094C55.1918 36.8424 57.7919 35.3922 58.7674 33.074C59.5821 31.1423 59.1607 28.7737 57.5826 26.2027C57.6863 25.9479 57.8083 25.7038 57.9052 25.4441ZM50.0603 3.68407L50.7074 2.5022C50.7669 2.39391 50.8544 2.3036 50.9607 2.2407C51.0671 2.1778 51.1884 2.14461 51.3119 2.14461C51.4355 2.14461 51.5567 2.1778 51.6631 2.2407C51.7694 2.3036 51.8569 2.39391 51.9164 2.5022L52.5635 3.68407C53.2595 4.95998 54.3077 6.00884 55.5831 6.7056L56.7669 7.35273C56.8752 7.41208 56.9656 7.49947 57.0285 7.60574C57.0915 7.712 57.1247 7.83324 57.1247 7.95674C57.1247 8.08025 57.0915 8.20148 57.0285 8.30775C56.9656 8.41401 56.8752 8.5014 56.7669 8.56076L55.5831 9.20788C54.3078 9.9039 53.2595 10.9521 52.5635 12.2275L51.9164 13.4113C51.8569 13.5196 51.7694 13.6099 51.6631 13.6728C51.5567 13.7357 51.4355 13.7689 51.3119 13.7689C51.1884 13.7689 51.0671 13.7357 50.9607 13.6728C50.8544 13.6099 50.7669 13.5196 50.7074 13.4113L50.0603 12.2294C49.365 10.9525 48.3167 9.90287 47.0407 9.20595L45.8569 8.55785C45.7485 8.49863 45.6581 8.41135 45.5952 8.30516C45.5322 8.19897 45.499 8.07778 45.499 7.95432C45.499 7.83086 45.5322 7.70967 45.5952 7.60348C45.6581 7.49729 45.7485 7.41001 45.8569 7.35079L47.0397 6.70366C48.3153 6.00758 49.3638 4.9594 50.0603 3.68407ZM3.07591 9.60991C3.38497 9.02137 3.81257 8.5032 4.33176 8.08805C4.85094 7.6729 5.45048 7.36976 6.09259 7.19773C4.78901 8.45858 3.69596 9.92023 2.85503 11.5271C2.75727 10.8785 2.83488 10.2155 3.07978 9.60701L3.07591 9.60991ZM48.5151 39.4474C48.2494 40.8085 48.1115 42.1914 48.1034 43.5782C48.1065 44.9531 47.9577 46.3241 47.6597 47.6663C47.0446 50.0213 45.3909 53.936 41.543 53.8663C36.9696 53.7588 35.7819 49.101 34.6339 44.5983C33.6991 40.9829 32.8495 37.2571 29.887 37.3714C27.1048 37.4779 26.2658 41.0526 25.361 44.5983C24.2121 49.101 23.0254 53.751 18.4519 53.8663C14.5856 53.9632 12.9504 50.0242 12.3352 47.6663C12.0372 46.3241 11.8884 44.9531 11.8915 43.5782C11.8834 42.1914 11.7456 40.8085 11.4798 39.4474C10.7533 36.204 8.99981 33.5129 7.30353 30.9098C5.94924 28.993 4.80992 26.933 3.90613 24.767C2.90859 22.1959 2.63322 19.401 3.10981 16.6847C6.91603 22.0128 15.286 27.8699 25.3417 32.1043C34.0672 35.7197 42.1979 37.663 49.109 37.4828C48.87 38.1216 48.6729 38.7752 48.519 39.4397L48.5151 39.4474ZM49.9624 35.4959C43.7624 35.9415 34.8993 34.0292 26.0895 30.3189C15.3819 25.8103 6.71453 19.5076 3.79569 14.1524C4.9393 11.0393 7.10036 8.40342 9.92884 6.6717C14.7445 3.80226 22.323 3.55426 29.1876 11.4186C30.2648 13.5653 31.4525 16.4493 36.7807 16.5055C37.0376 16.5055 37.284 16.4034 37.4657 16.2217C37.6473 16.0401 37.7494 15.7937 37.7494 15.5367C37.7494 15.2798 37.6473 15.0334 37.4657 14.8517C37.284 14.67 37.0376 14.568 36.7807 14.568C33.0025 14.568 32.0241 12.7971 31.1619 11.0262C35.6104 6.12823 40.8882 4.02604 45.9644 5.08488L44.9307 5.64966C44.5172 5.87568 44.1722 6.20884 43.9318 6.61418C43.6914 7.01952 43.5645 7.48209 43.5645 7.95335C43.5645 8.42461 43.6914 8.88719 43.9318 9.29253C44.1722 9.69787 44.5172 10.031 44.9307 10.257L46.1136 10.9042C47.0643 11.4231 47.8455 12.2046 48.364 13.1555L49.0111 14.3364C49.2371 14.75 49.5703 15.095 49.9756 15.3354C50.381 15.5758 50.8436 15.7027 51.3148 15.7027C51.7861 15.7027 52.2486 15.5758 52.654 15.3354C53.0593 15.095 53.3925 14.75 53.6185 14.3364L54.2656 13.1536C54.5104 12.7103 54.8134 12.3018 55.1666 11.9388C56.2662 13.8719 56.9203 16.0262 57.081 18.2444C57.2417 20.4626 56.9051 22.6887 56.0956 24.7602C55.1908 26.9272 54.0505 28.9881 52.6953 30.9059C51.6968 32.3787 50.7856 33.9087 49.9663 35.4881L49.9624 35.4959ZM56.9733 32.3281C56.3862 33.7231 54.7297 34.7112 52.3088 35.1975C52.92 34.1164 53.6069 33.0537 54.315 31.9677C55.0774 30.7965 55.8447 29.5943 56.5373 28.3378C56.8831 28.9347 57.1008 29.5971 57.1765 30.2828C57.2522 30.9684 57.1843 31.6623 56.9772 32.3203L56.9733 32.3281Z" fill="white"/>
<path d="M47.6534 17.9907L46.9908 17.6332C46.5303 17.3813 46.152 17.0023 45.901 16.5414L45.5387 15.8797C45.3754 15.5808 45.1345 15.3313 44.8415 15.1576C44.5485 14.9839 44.214 14.8923 43.8734 14.8926C43.5328 14.8913 43.1982 14.9818 42.9047 15.1545C42.6112 15.3272 42.3695 15.5757 42.2052 15.8739L41.8429 16.5366C41.5923 16.9994 41.2136 17.3802 40.7521 17.6332L40.0904 17.9945C39.7917 18.1578 39.5424 18.3985 39.3688 18.6914C39.1951 18.9842 39.1035 19.3184 39.1035 19.6588C39.1035 19.9993 39.1951 20.3335 39.3688 20.6263C39.5424 20.9191 39.7917 21.1598 40.0904 21.3232L40.753 21.6864C41.2139 21.9376 41.5927 22.3163 41.8438 22.7772L42.2062 23.4389C42.3693 23.7379 42.6099 23.9874 42.9028 24.1612C43.1956 24.3351 43.5299 24.4269 43.8705 24.427C44.211 24.4269 44.5453 24.3352 44.8383 24.1615C45.1313 23.9878 45.3721 23.7386 45.5357 23.4399L45.8981 22.7763C46.1495 22.3161 46.5277 21.9378 46.9879 21.6864L47.6505 21.3241C47.9492 21.1608 48.1985 20.9201 48.3721 20.6273C48.5458 20.3344 48.6374 20.0003 48.6374 19.6598C48.6374 19.3194 48.5458 18.9852 48.3721 18.6924C48.1985 18.3995 47.9492 18.1588 47.6505 17.9955L47.6534 17.9907ZM46.0618 19.9824C45.2759 20.411 44.6298 21.0567 44.2008 21.8424L43.9102 22.5041L43.5479 21.8434C43.1192 21.0572 42.4731 20.4111 41.6869 19.9824L41.0243 19.6918L41.6859 19.3295C42.4722 18.9005 43.1185 18.2545 43.5479 17.4685L43.8385 16.8059L44.2008 17.4675C44.6301 18.2533 45.276 18.8992 46.0618 19.3285L46.7244 19.6191L46.0618 19.9824Z" fill="white"/>
<path d="M7.71875 13.7656C8.25378 13.7656 8.6875 13.3319 8.6875 12.7969C8.6875 12.2618 8.25378 11.8281 7.71875 11.8281C7.18372 11.8281 6.75 12.2618 6.75 12.7969C6.75 13.3319 7.18372 13.7656 7.71875 13.7656Z" fill="white"/>
</svg>
