<svg width="19" height="19" viewBox="0 0 19 19" fill="none" xmlns="http://www.w3.org/2000/svg">
<path fill-rule="evenodd" clip-rule="evenodd" d="M9.42313 0.981445C14.0817 0.981445 17.8639 4.76368 17.8639 9.42219C17.8639 14.0807 14.0817 17.8629 9.42313 17.8629C4.76465 17.8629 0.982422 14.0807 0.982422 9.42219C0.982422 4.76368 4.76465 0.981445 9.42313 0.981445ZM9.42313 2.15922C5.41479 2.15922 2.1602 5.41381 2.1602 9.42219C2.1602 13.4306 5.41479 16.6851 9.42313 16.6851C13.4315 16.6851 16.6861 13.4306 16.6861 9.42219C16.6861 5.41381 13.4315 2.15922 9.42313 2.15922Z" fill="url(#paint0_linear_10203_5605)"/>
<path fill-rule="evenodd" clip-rule="evenodd" d="M11.7401 7.53757C11.6148 7.62308 11.4614 7.657 11.3117 7.63233C11.1621 7.60759 11.0277 7.52621 10.9365 7.40501C10.8453 7.28376 10.8044 7.13206 10.8221 6.98143C10.8399 6.83079 10.915 6.69281 11.0318 6.59612C11.459 6.275 11.989 6.08496 12.5638 6.08496C13.1385 6.08496 13.6685 6.275 14.0957 6.59612C14.1575 6.64264 14.2095 6.70088 14.2488 6.76748C14.2882 6.83409 14.314 6.90782 14.3248 6.98437C14.3356 7.06099 14.3313 7.13895 14.312 7.21386C14.2926 7.28877 14.2588 7.35914 14.2123 7.42097C14.1658 7.48275 14.1076 7.53481 14.041 7.57414C13.9743 7.61348 13.9006 7.63927 13.824 7.65011C13.7474 7.66095 13.6694 7.65653 13.5945 7.63727C13.5196 7.61796 13.4492 7.58404 13.3875 7.53757C13.1581 7.36479 12.8731 7.26274 12.5638 7.26274C12.2544 7.26274 11.9694 7.36479 11.7401 7.53757ZM5.45863 7.53757C5.33334 7.62308 5.17992 7.657 5.03026 7.63233C4.8806 7.60759 4.74621 7.52621 4.65503 7.40501C4.56384 7.28376 4.52287 7.13206 4.54063 6.98143C4.55839 6.83079 4.63351 6.69281 4.75039 6.59612C5.17754 6.275 5.70754 6.08496 6.28228 6.08496C6.85704 6.08496 7.38704 6.275 7.81416 6.59612C7.939 6.69004 8.02145 6.82973 8.04329 6.98437C8.0652 7.13907 8.02468 7.29613 7.93076 7.42097C7.83689 7.54582 7.6972 7.6282 7.5425 7.65011C7.3878 7.67196 7.2308 7.6315 7.10596 7.53757C6.87665 7.36479 6.59162 7.26274 6.28228 7.26274C5.97294 7.26274 5.6879 7.36479 5.45863 7.53757ZM5.10451 9.61829H13.7416C13.8977 9.61829 14.0475 9.68036 14.158 9.79078C14.2684 9.9012 14.3304 10.051 14.3304 10.2072C14.3304 12.9153 12.1311 15.1146 9.423 15.1146C6.71494 15.1146 4.51562 12.9153 4.51562 10.2072C4.51562 10.051 4.57766 9.9012 4.6881 9.79078C4.79854 9.68036 4.94833 9.61829 5.10451 9.61829ZM5.73973 10.7961C6.0224 12.5753 7.56529 13.9368 9.423 13.9368C11.2808 13.9368 12.8237 12.5753 13.1063 10.7961H5.73973Z" fill="url(#paint1_linear_10203_5605)"/>
<defs>
<linearGradient id="paint0_linear_10203_5605" x1="17.8622" y1="9.42571" x2="0.980724" y2="9.42571" gradientUnits="userSpaceOnUse">
<stop stop-color="#BE9644"/>
<stop offset="0.15" stop-color="#AA803C"/>
<stop offset="0.43" stop-color="#F3DC87"/>
<stop offset="0.59" stop-color="#FBEFAC"/>
<stop offset="0.73" stop-color="#F3DC87"/>
<stop offset="0.93" stop-color="#AA803C"/>
<stop offset="1" stop-color="#C49D47"/>
</linearGradient>
<linearGradient id="paint1_linear_10203_5605" x1="14.3296" y1="10.6017" x2="4.51464" y2="10.6017" gradientUnits="userSpaceOnUse">
<stop stop-color="#BE9644"/>
<stop offset="0.15" stop-color="#AA803C"/>
<stop offset="0.43" stop-color="#F3DC87"/>
<stop offset="0.59" stop-color="#FBEFAC"/>
<stop offset="0.73" stop-color="#F3DC87"/>
<stop offset="0.93" stop-color="#AA803C"/>
<stop offset="1" stop-color="#C49D47"/>
</linearGradient>
</defs>
</svg>
