<svg width="71" height="4" viewBox="0 0 71 4" fill="none" xmlns="http://www.w3.org/2000/svg">
<path d="M36.3747 3.67907C36.2936 3.66858 36.0501 3.66858 35.9081 3.68432C35.8676 3.70532 35.9893 3.71057 36.0299 3.72632C35.9893 3.73157 35.9487 3.74206 35.8676 3.73681C35.7053 3.71582 35.6647 3.65808 35.685 3.66858C35.5227 3.67383 35.1981 3.66333 35.0155 3.64233L35.0967 3.63183L34.7924 3.62658C34.7112 3.71057 34.2244 3.61609 34.0621 3.69482L33.8592 3.65283L33.7781 3.66333C33.7578 3.70007 34.0012 3.70007 34.1229 3.72107C33.7984 3.77881 33.4129 3.70532 33.1289 3.72107C33.1086 3.65808 33.4941 3.70007 33.6361 3.66333L33.1898 3.65808C32.784 3.75256 32.7232 3.57409 32.6015 3.62133L32.6623 3.63708L32.5 3.66333C31.9929 3.69482 31.4046 3.68957 31.0597 3.65283L31.222 3.62658C31.0597 3.62658 30.8974 3.62133 30.7554 3.63183L30.9583 3.67383L30.4105 3.70532C30.6743 3.68432 30.9177 3.70532 31.08 3.73156C31.1003 3.74731 31.0191 3.75256 30.9786 3.75781C30.9177 3.73156 30.7351 3.74731 30.6134 3.73681L30.8163 3.77881C30.6337 3.78931 30.4511 3.78406 30.2888 3.76831L30.4308 3.79455C31.0597 3.8418 31.648 3.74731 32.0537 3.75256C32.3175 3.76831 32.6623 3.78406 32.7638 3.8313L32.6826 3.8418L33.4332 3.85229V3.86804L33.8795 3.87329L33.6766 3.8418C34.2244 3.76306 34.6301 3.87854 35.1981 3.85229C35.8878 3.7998 36.4762 3.85754 37.2065 3.81555C37.2673 3.8418 37.2673 3.88904 37.5513 3.87329L37.3485 3.8418C37.5716 3.84704 37.7948 3.79455 37.9773 3.82605L37.815 3.85229C37.7745 3.86279 37.8353 3.87329 37.8759 3.87854C38.0991 3.85754 38.5251 3.74731 38.7279 3.85229L38.5656 3.87854L38.6265 3.89429C38.7076 3.87329 38.8497 3.87329 38.9511 3.85754C39.2351 3.8418 39.9451 3.84704 39.7423 3.92578C40.0668 3.86804 40.148 3.88904 40.4523 3.88379L39.8843 3.83655C40.29 3.76306 40.432 3.89429 40.7769 3.86279L40.6754 3.88904C41.1623 3.85229 41.8723 3.8418 42.2375 3.8208C42.5012 3.88379 42.8461 3.76306 42.9881 3.84704C43.7589 3.73156 44.185 3.87854 45.0167 3.86804V3.88379C45.1587 3.8313 45.5239 3.87854 45.6861 3.91003C45.7267 3.88904 45.605 3.88379 45.5644 3.86804L45.6456 3.85754C45.8687 3.85229 46.2339 3.87854 46.0716 3.90479C46.4165 3.86279 46.4367 3.87854 46.9845 3.89429C47.025 3.87854 46.9439 3.84704 47.1062 3.8418C47.1265 3.91528 47.5525 3.88379 47.8365 3.87854L47.6336 3.83655C47.6945 3.8208 47.7756 3.82605 47.8771 3.82605C48.1611 3.91528 49.0943 3.85229 49.6014 3.86804C49.5608 3.85229 49.3985 3.82605 49.5608 3.81555C50.1694 3.8208 50.3317 3.8103 50.92 3.82605C51.2446 3.87329 51.5489 3.83655 51.9546 3.85754C52.0561 3.84705 52.0966 3.80505 52.2792 3.8208C52.3806 3.8313 52.3401 3.84704 52.3198 3.86279L52.5632 3.82605C52.6241 3.80505 52.7661 3.8208 52.8675 3.81555C52.9487 3.8103 53.0298 3.8313 52.9892 3.84704C53.1718 3.81555 53.4152 3.8418 53.679 3.8313L53.6992 3.80505C54.1253 3.8208 54.8556 3.80505 55.4439 3.80505C55.9713 3.75256 56.4582 3.8313 56.9045 3.77356L56.9248 3.74731C57.3305 3.76306 57.4725 3.71057 57.8377 3.73681L57.6754 3.76306C58.0202 3.76831 58.4665 3.71582 58.7303 3.77881C58.6288 3.72107 59.1157 3.76306 59.2983 3.73156C59.3388 3.71582 59.0143 3.74206 59.0954 3.70007C59.278 3.65808 59.6634 3.67907 59.8663 3.70007L59.7851 3.71057L61.3675 3.72107C61.0632 3.68957 60.556 3.71057 60.2517 3.67907C60.6777 3.67907 61.1849 3.65808 61.5501 3.67383L61.7123 3.64758C61.8949 3.65283 62.1181 3.64233 62.2195 3.66858L62.0572 3.69482C62.2601 3.70007 62.5238 3.70532 62.6049 3.67907C62.5238 3.68432 62.5035 3.66858 62.4629 3.66333L62.7064 3.62658C62.9498 3.62658 62.8078 3.68432 63.0512 3.68432C63.3555 3.62658 62.7875 3.67907 62.8687 3.62658C64.735 3.66858 66.9665 3.61609 68.7923 3.64233C69.1574 3.5321 69.8877 3.61084 70.2326 3.5321C70.0703 3.5531 69.7863 3.56359 69.624 3.53735C70.0297 3.50061 69.8269 3.46911 70.1718 3.42712C69.908 3.41137 69.7255 3.45336 69.5835 3.39037C69.1169 3.46911 68.8531 3.37463 68.4474 3.38513L68.9343 3.32739C68.6706 3.33263 68.3663 3.37463 68.1634 3.35363L68.1837 3.32739C67.92 3.25915 67.6968 3.21715 67.2302 3.28539C67.1694 3.26964 67.0477 3.2539 67.1085 3.22765C66.5202 3.15417 66.2768 3.33788 65.6479 3.2434C65.0799 3.19616 64.4713 3.28539 63.9033 3.2434V3.2539C64.4916 3.30114 65.1002 3.2434 65.5059 3.34838L65.3436 3.37463C64.025 3.2644 63.0715 3.49011 61.7529 3.50585C61.0226 3.49011 60.1503 3.54785 59.3997 3.5111C59.562 3.50061 59.3997 3.44286 59.6634 3.44811C59.7243 3.56884 59.9272 3.39562 60.3532 3.43237C60.6575 3.45336 61.266 3.47436 61.2052 3.41662C61.3066 3.44286 61.5298 3.42187 61.5906 3.41137C61.3675 3.37463 61.0835 3.41137 60.84 3.41137C60.0692 3.35363 59.2171 3.47436 58.5477 3.41662C57.9391 3.46911 57.2088 3.43762 56.6002 3.49536C56.4379 3.49011 56.3162 3.43762 56.1539 3.49011C55.7076 3.44811 55.2004 3.48486 54.9367 3.49536L54.673 3.45336C54.0847 3.45336 53.4964 3.50585 52.9689 3.49536L52.9892 3.47961L52.6038 3.47436L52.5835 3.5006C52.3198 3.49011 51.772 3.52685 51.9546 3.42187C51.9343 3.46911 51.6098 3.48486 51.6503 3.52685C51.5692 3.48486 51.4272 3.51635 51.2649 3.5216C50.7983 3.5531 49.784 3.5426 49.3783 3.50585L49.358 3.5216C49.1754 3.5321 48.8914 3.58459 48.8305 3.52685C48.5871 3.59509 49.1957 3.56359 49.1551 3.61084C49.074 3.61608 49.0131 3.64233 48.9117 3.63183C48.3234 3.61608 47.4105 3.68432 46.883 3.60034C47.4308 3.56884 48.2422 3.59509 48.648 3.56359L48.3639 3.5321C47.8162 3.56359 47.0656 3.59509 46.599 3.56884C46.4165 3.54785 46.0513 3.5426 45.7064 3.5531C45.5847 3.49011 45.0776 3.5531 44.8747 3.5426C44.6921 3.55835 44.8138 3.63183 44.895 3.61084L45.0573 3.58459C45.3616 3.66333 45.7267 3.56884 46.1122 3.58984C46.3962 3.61084 46.1324 3.60559 46.2947 3.64758L45.0573 3.66858C44.6718 3.66858 44.4893 3.66333 44.2052 3.68432C44.0835 3.68432 44.0632 3.66333 44.0024 3.65283C44.0835 3.63183 44.1038 3.60559 44.2661 3.58984C43.9212 3.53735 43.7387 3.60559 43.3735 3.57409L43.4344 3.58984L43.1909 3.62658C42.9678 3.66333 42.0955 3.63183 42.3389 3.64233L42.2983 3.69482C41.6695 3.71057 41.0811 3.67907 40.5537 3.69482C39.8031 3.68432 39.2757 3.72632 38.6062 3.66333C38.6671 3.65283 38.7888 3.64758 38.7888 3.62658L39.7828 3.61609C39.9654 3.67907 40.3711 3.63183 40.5334 3.61609C40.29 3.56884 39.9654 3.63708 39.722 3.58984C39.4177 3.63708 39.0728 3.58984 38.8294 3.56359L38.6468 3.61609C38.5251 3.5426 37.8759 3.56359 37.7542 3.57409C37.9571 3.61084 38.3425 3.54785 38.4845 3.61084L37.8556 3.64233C37.9165 3.70532 38.2411 3.62133 38.2005 3.68957C37.7948 3.67382 37.5716 3.71582 37.1456 3.67383L37.2267 3.66333L36.5573 3.63708C36.537 3.62133 36.5979 3.61608 36.6587 3.61084L36.111 3.62658C36.2327 3.63183 36.4153 3.62133 36.4762 3.64758C36.3747 3.66858 36.2124 3.65283 36.0907 3.65283L36.5167 3.68432L36.3747 3.67907ZM33.8795 3.77356V3.7893L33.3521 3.77881L33.3723 3.76831L33.8795 3.77356ZM38.9917 3.8418V3.85754L38.6874 3.85229L38.7076 3.83655L38.9917 3.8418ZM32.7638 3.72632L32.784 3.70007L33.0072 3.70532C33.0275 3.72107 32.9463 3.72632 32.9058 3.73156L32.7638 3.72632ZM34.2852 3.72632V3.71057L34.6707 3.71582C34.5895 3.74206 34.4272 3.72107 34.2852 3.72632ZM39.5597 3.79455C39.4988 3.79455 39.4177 3.7893 39.3365 3.7893C39.0322 3.7893 38.7076 3.8313 38.3628 3.7893C38.6468 3.76831 39.0525 3.77881 39.3365 3.7893C39.4177 3.7893 39.4785 3.7893 39.5597 3.79455ZM58.8723 3.46911C59.1157 3.49536 59.1563 3.43237 59.3389 3.44811C59.3186 3.47436 59.1563 3.47961 59.0751 3.49536C58.9534 3.50585 58.9331 3.47961 58.8723 3.46911ZM49.9057 3.55835L49.8448 3.5426L50.2911 3.54785C49.9463 3.57409 50.0071 3.58984 49.6623 3.58984C49.7434 3.57409 49.926 3.58984 49.9057 3.55835ZM56.3973 3.74206L56.8639 3.72107C56.8639 3.76831 56.5799 3.73157 56.4582 3.75256L56.3973 3.74206ZM43.5561 3.72632L43.7995 3.71582C43.7589 3.72107 43.6981 3.72632 43.6981 3.74206C43.6372 3.74206 43.5967 3.73157 43.5561 3.72632ZM41.3449 3.74206C41.426 3.76306 41.568 3.78406 41.6289 3.75781C41.6086 3.78406 41.3652 3.76306 41.2434 3.76306C41.284 3.76306 41.3449 3.75781 41.3449 3.74206C41.2232 3.71057 41.2637 3.72632 41.3449 3.74206Z" fill="white"/>
<path d="M35.0939 3.88281H35.2359C35.2764 3.87231 35.2156 3.86182 35.175 3.85657C35.1344 3.86707 35.0736 3.87231 35.0939 3.88281Z" fill="white"/>
<path d="M6.42969 1.26819C6.53112 1.26819 6.59198 1.27344 6.67312 1.27344C6.57169 1.26819 6.49055 1.26294 6.42969 1.26819Z" fill="white"/>
<path d="M24.792 1.3606C24.7311 1.36585 24.6702 1.36584 24.6094 1.37109C24.6702 1.37109 24.7311 1.37109 24.792 1.3606Z" fill="white"/>
<path d="M8.09375 2.66138C8.11404 2.66663 8.15461 2.67188 8.19518 2.67188L8.09375 2.66138Z" fill="white"/>
<path d="M10.4059 2.78125V2.7655L10.1016 2.76025V2.776C10.2233 2.78125 10.345 2.78125 10.4059 2.78125Z" fill="white"/>
<path d="M24.0039 1.36136C24.2473 1.37711 24.4096 1.37711 24.6125 1.37186C24.4096 1.36661 24.1662 1.32987 24.0039 1.36136Z" fill="white"/>
<path d="M2.90234 2.52832L3.02406 2.57031C3.04435 2.55457 3.02406 2.53882 3.12549 2.53357C3.02406 2.52832 2.90234 2.53882 2.90234 2.52832Z" fill="white"/>
<path d="M12.2338 2.86669C12.4569 2.86144 12.3758 2.79846 12.6395 2.81945C12.6801 2.8247 12.7206 2.8352 12.7004 2.8457L13.0249 2.80896L13.1467 2.84045C13.2278 2.8457 13.2684 2.8352 13.3089 2.82995C13.6335 2.8247 13.9581 2.80895 14.1204 2.8562V2.84045C14.0392 2.8457 14.019 2.82995 13.9784 2.8247L14.1407 2.79846C14.2218 2.79321 14.2421 2.80895 14.2827 2.8142C14.445 2.8457 14.6478 2.80371 14.8304 2.79846C15.013 2.8247 14.7493 2.84045 14.7087 2.86145L15.2361 2.87194C14.8913 2.8457 15.3579 2.78271 15.2361 2.75121C15.4593 2.75121 15.2767 2.79321 15.4187 2.80896C15.7839 2.76696 15.7636 2.79846 16.1287 2.76696C16.2302 2.79846 16.6765 2.76696 16.5345 2.8247C16.7779 2.8247 16.9808 2.84045 17.1025 2.87194L16.4939 2.87719C16.8185 2.89819 17.2648 2.93493 17.7719 2.89819C17.8125 2.91394 17.8937 2.91394 17.9951 2.91394L17.7922 2.88244C17.8937 2.86145 18.0357 2.8562 18.1777 2.86145C18.4008 2.97168 19.1108 2.90869 19.2731 2.92968L19.2123 2.91394L19.2934 2.90344C19.5166 2.96643 19.7803 2.90869 20.0237 2.90344C19.8817 2.90344 19.76 2.89819 19.6991 2.87194C19.8817 2.8352 20.0846 2.87719 20.1657 2.86669C20.3889 2.85095 20.5917 2.89819 20.8149 2.90344C20.7743 2.90869 20.7337 2.91919 20.6526 2.91394L21.4032 2.94018L21.3829 2.95593C21.5655 2.99792 21.5858 2.95068 21.7683 2.93493C21.8901 2.94018 22.0726 2.92968 22.1335 2.95593C22.0929 2.96118 22.0321 2.96643 22.0321 2.98217C22.1335 2.97693 22.2755 2.99792 22.3364 2.97168C22.6812 2.96118 22.9044 2.95068 23.1478 2.99792L22.9855 3.02417C23.5738 3.04516 23.7158 2.90344 24.1824 2.93493C24.365 2.90344 24.5273 2.85095 24.4867 2.81945C24.7504 2.8247 24.8113 2.81945 24.9939 2.84045C24.791 2.8562 24.9533 2.87719 24.8113 2.89294C25.1359 2.93493 25.5619 3.05566 26.0893 2.99792C26.0082 2.99267 25.6836 2.97168 25.5213 2.96118C25.8459 2.94018 26.4139 2.91919 26.7182 2.88769L26.3531 2.86669C26.3328 2.8457 26.4748 2.84045 26.5356 2.82995C27.0022 2.85095 27.7325 2.8142 27.9354 2.89294L27.8542 2.90344C27.7325 2.87719 27.2254 2.87194 27.3268 2.90869C27.3877 2.92968 27.6311 2.92968 27.5094 2.96643C27.9962 2.95068 28.3614 2.97168 28.7874 2.97168V2.98742L29.538 2.99792L28.828 3.02942C29.4569 3.00842 29.8626 3.09241 30.2277 2.98742C30.4306 2.99267 30.6943 2.98217 30.816 3.00842L30.2683 3.02942C30.4509 3.06616 30.7146 3.03991 30.9378 3.03467C30.8972 3.02417 30.7958 3.01367 30.8363 2.99792H31.5261C32.0535 2.94018 33.007 3.1029 33.007 2.94018C33.149 2.93493 33.2098 2.95593 33.291 2.97168C33.2301 3.00842 33.3316 3.05041 33.007 3.05041C33.5953 3.06616 34.4473 3.06616 35.0356 3.08191L35.279 3.06091C35.5022 3.11865 36.0905 3.07666 36.2122 3.1449L36.0499 3.17114C36.1919 3.18164 36.3542 3.21838 36.4759 3.20264C36.4556 3.16589 36.8005 3.18689 36.5977 3.15015C36.7802 3.09241 37.0034 3.15539 37.2062 3.16064C37.0845 3.17639 37.1048 3.22888 36.8817 3.20788C37.0642 3.24463 37.3482 3.19739 37.5308 3.26038C37.7337 3.20788 37.2265 3.1344 37.3482 3.09766C37.7743 3.09241 38.2003 3.02417 38.6466 3.07666C39.2754 3.03466 39.9652 3.1344 40.7361 3.1344L40.9998 3.08716C41.3244 3.08191 41.5475 3.1134 41.8112 3.12915C41.7098 3.16589 41.2432 3.16064 41.1824 3.16064C41.0606 3.18164 41.1621 3.21838 40.9592 3.21313C41.2026 3.22888 41.4664 3.26038 41.6692 3.23413C41.9735 3.24463 42.7444 3.23938 42.8661 3.26563L42.8256 3.22363L42.7444 3.23413C42.6633 3.23413 42.5618 3.23413 42.5213 3.21838C42.5618 3.21313 42.6024 3.20264 42.6836 3.20788L42.6227 3.19214C42.6024 3.17114 42.7444 3.16589 42.8053 3.15539C43.1501 3.17114 43.5559 3.1344 43.7182 3.19214L43.9413 3.16064C44.4282 3.19739 45.3613 3.06091 45.2802 3.20788C45.7062 3.16064 45.7874 3.24463 46.2539 3.22363L46.2134 3.18164C45.9496 3.17114 45.9497 3.19214 45.7468 3.20264C45.6859 3.18164 45.5439 3.17114 45.5642 3.1449C46.396 3.10815 47.248 3.10815 48.1609 3.1344C48.1406 3.15015 48.1609 3.16589 48.0594 3.17114C48.5869 3.18689 49.0129 3.23413 49.4998 3.16589C49.3578 3.17114 49.2969 3.15015 49.2158 3.1344C49.6012 3.1134 49.7635 3.13965 50.1084 3.16064C50.1084 3.13965 50.2301 3.1344 50.2909 3.1239C50.3315 3.1449 50.4126 3.13965 50.5141 3.13965C50.6155 3.06091 50.9604 3.1449 51.0618 3.1239C51.285 3.1344 51.5487 3.05566 51.6704 3.11865C51.8327 3.09241 52.0355 3.12915 51.995 3.08191C52.5833 3.1344 52.9282 3.08191 53.6585 3.09241C53.8816 3.06091 54.2468 3.1134 54.4293 3.06616C54.5308 3.12915 54.8959 3.07141 55.0379 3.07666C55.3422 3.07141 55.6262 3.04516 55.8697 3.09241L55.89 3.05041H55.9711C56.032 3.02417 56.3971 2.96643 56.6203 3.00842L56.3565 3.07141C56.5188 3.06616 56.9449 3.1029 57.1274 3.05566C57.1883 3.00317 56.8231 3.04516 56.7826 2.99792C57.7157 2.96643 58.7503 2.93493 59.8458 2.96643L59.4401 3.00317L59.5009 3.01892L59.6632 2.99267C59.9269 3.00317 60.1704 2.96643 60.3327 3.01892L60.0081 3.03991C60.7587 3.04516 61.6918 3.05041 62.057 2.94018C62.3613 2.95593 62.909 2.92443 62.9293 3.00842C62.4222 3.00842 62.4627 3.09766 62.4424 3.15015C62.6453 3.18164 63.2945 3.16589 63.0713 3.23938L63.6191 3.22363L63.4162 3.18164C63.2133 3.1449 63.5988 3.12915 63.7002 3.1029L63.4973 3.06091C63.9031 2.97693 63.9436 3.12915 64.3494 3.04516C64.5725 3.03992 64.6942 3.06616 64.8565 3.08191C64.8159 3.09765 64.8971 3.12915 64.7348 3.1344L65.0391 3.13965C65.0797 3.10815 65.0188 3.06616 65.1811 3.05041C65.2622 3.05041 65.3637 3.05041 65.4042 3.06616C65.3434 3.07666 65.2217 3.08191 65.2217 3.1029C65.384 3.09765 65.5463 3.08716 65.7085 3.05566C65.6274 3.05566 65.526 3.05566 65.4854 3.03991C65.526 3.03467 65.5665 3.02417 65.6477 3.02942C65.8303 2.97168 65.4651 2.88244 65.8506 2.82995C65.526 2.80371 66.0128 2.69872 65.5868 2.67773C66.1548 2.59374 66.662 2.65148 67.3112 2.60949C67.7575 2.61999 68.6095 2.55175 68.4675 2.69347C68.9341 2.5465 70.0295 2.63049 70.5367 2.5675C70.2527 2.5675 70.4758 2.51501 70.4353 2.48351C70.273 2.42577 69.9687 2.41527 69.7455 2.37853C69.5021 2.28405 70.3947 2.21581 69.6035 2.16332C69.9281 2.04784 69.0152 1.97435 69.0558 1.85887C68.7312 1.86937 68.8732 1.76964 68.5689 1.81163C68.5081 1.72764 67.9198 1.80638 67.8792 1.72239C66.946 1.72239 65.8505 1.82213 64.8768 1.76963L64.9377 1.78538L64.3291 1.79063C64.2682 1.80638 64.1871 1.80113 64.0856 1.80113C63.8016 1.76439 63.7611 1.79063 63.5379 1.81688L63.477 1.80113C63.4568 1.78538 63.5379 1.78013 63.5785 1.77488C63.3148 1.75914 63.1119 1.78538 62.8887 1.79063C62.9699 1.79063 63.0713 1.79063 63.1119 1.80638L63.0307 1.81688C62.8887 1.81163 62.6656 1.82213 62.5844 1.79588L62.6656 1.78538L62.4019 1.71189C63.0308 1.68565 63.8219 1.7014 64.3899 1.6909C65.8303 1.64891 67.4532 1.7119 68.8326 1.62791C69.2789 1.54917 68.8529 1.42319 69.1775 1.34971L68.7515 1.30247L69.3195 1.25522L68.6501 1.23423L68.4878 1.26047C67.5749 1.1345 66.2563 1.10825 65.2014 1.06101C64.1871 1.0925 63.335 1.04526 62.3613 1.09775C60.637 1.01902 58.3649 1.1135 56.5391 1.15549C56.0725 1.15024 55.3017 1.18174 54.9162 1.19748C54.7539 1.10825 54.3482 1.25522 54.0845 1.19748C53.2325 1.25522 52.4007 1.18699 51.6704 1.28147C51.5892 1.27097 51.6095 1.25522 51.6298 1.23948C51.0212 1.23423 50.6967 1.27622 50.1084 1.22898C49.8649 1.27097 49.6012 1.23423 49.3578 1.22898C49.1549 1.24998 48.7897 1.28672 48.668 1.24473C48.0189 1.25522 47.5928 1.23948 47.0248 1.29722C46.9234 1.27097 46.7814 1.25522 46.5988 1.24998C45.7265 1.33396 44.773 1.19223 43.9616 1.31821C43.8804 1.26572 43.4747 1.30247 43.3124 1.26572C42.6836 1.30247 42.1358 1.26572 41.6084 1.31821C40.8375 1.18699 39.9652 1.35496 39.1334 1.27622C38.8089 1.30247 38.3626 1.24997 38.0583 1.29722C37.9974 1.28672 37.9568 1.26572 37.8554 1.26572C37.6931 1.27622 37.47 1.28672 37.5105 1.31297C37.4294 1.27622 37.2062 1.25522 36.9222 1.27622C36.4962 1.22898 35.7051 1.27097 35.1573 1.30247L35.0965 1.28672L35.2588 1.26047C35.0762 1.23948 35.0356 1.28147 34.9342 1.29722C34.5487 1.22898 33.9401 1.29197 33.5344 1.24998C33.2098 1.33396 33.0678 1.26047 32.7027 1.23948L32.6824 1.26572C32.6418 1.27097 32.6012 1.28147 32.5201 1.27622L33.0273 1.29722C32.8244 1.30247 32.6418 1.32871 32.3984 1.31297C32.2767 1.29722 32.1955 1.26047 32.2969 1.24473C31.8304 1.29197 31.3841 1.23423 30.9986 1.26572L31.0189 1.24998C30.6132 1.23948 30.1466 1.23423 29.9234 1.28672C29.3149 1.24473 28.6048 1.23423 27.834 1.23948C27.5702 1.26572 27.1848 1.28672 26.9211 1.24998C26.4951 1.20273 25.8459 1.19224 25.1156 1.22373L25.5416 1.27097C25.5822 1.29722 25.4402 1.30771 25.359 1.32346C25.1764 1.30247 24.9127 1.30247 24.791 1.26047C24.8316 1.24473 25.0953 1.21848 24.9127 1.20798C24.4461 1.20273 23.9998 1.22373 23.5941 1.23948C23.7158 1.25522 23.6955 1.27622 23.7767 1.29722C23.5941 1.27622 23.2492 1.3812 23.3304 1.29197C23.1478 1.26047 22.9044 1.31296 22.7421 1.32346C23.2492 1.33396 23.4115 1.36546 23.9187 1.31297C24.2433 1.32871 24.6896 1.27097 24.8722 1.35496C24.8519 1.36546 24.8316 1.37595 24.791 1.3812C24.8316 1.37595 24.8722 1.37595 24.933 1.3707C24.9939 1.43369 25.2373 1.4127 25.3996 1.45994C24.5476 1.49143 23.8578 1.40745 23.1072 1.3812L23.229 1.4127C23.2492 1.42844 23.1884 1.43369 23.1478 1.43894C22.7421 1.48094 22.4175 1.3917 21.9712 1.3917L21.9509 1.41795C21.8901 1.43894 21.7481 1.42319 21.6466 1.42844C21.5452 1.37595 20.9772 1.4022 20.754 1.38645C20.9163 1.31296 21.3626 1.34446 21.5858 1.27622C21.9509 1.26572 22.1741 1.32346 22.4986 1.27622L22.4378 1.26047L22.3566 1.27097C22.0524 1.26572 21.7278 1.20798 21.6669 1.16599C21.4235 1.17124 21.7886 1.23423 21.4032 1.21323C21.3626 1.20798 21.3018 1.19748 21.3423 1.18699L21.2612 1.19748C20.9772 1.26572 20.7946 1.16599 20.6932 1.15024C20.5917 1.18174 20.47 1.12925 20.4497 1.17124L20.6932 1.16074L20.7946 1.22898C20.2469 1.30772 19.4557 1.21848 19.05 1.21323L19.2123 1.18699C19.2528 1.17649 19.192 1.16599 19.1514 1.16074L19.0703 1.17124C18.908 1.09775 18.2791 1.11875 18.0357 1.12925L18.6645 1.20798L18.3197 1.27097L18.1979 1.23948C17.9951 1.24473 17.9748 1.26047 17.8531 1.28672C17.6096 1.28672 17.4068 1.27097 17.2851 1.23948L17.7719 1.20798C17.5691 1.20798 17.2648 1.18699 17.1633 1.21323L17.1836 1.30772C17.3053 1.31821 17.4068 1.29722 17.5082 1.28672C17.5894 1.30247 17.5894 1.32346 17.6299 1.34446C17.1025 1.3812 16.6562 1.36021 16.1085 1.33396C16.007 1.30247 16.3722 1.28672 16.2302 1.28147C16.2505 1.29722 16.1693 1.30247 16.1287 1.30772L16.0679 1.29197L16.0476 1.33396L15.1347 1.31821C15.3579 1.31296 15.3781 1.27097 15.4999 1.24473C15.0333 1.32346 14.3638 1.30247 13.8567 1.31297C13.9784 1.31297 13.9987 1.33396 14.0595 1.34446L13.9784 1.35496C13.1872 1.22373 12.6801 1.32871 11.7469 1.28147L11.4832 1.23948C11.2397 1.18174 11.1789 1.27097 10.9963 1.27097C11.0774 1.27097 11.1789 1.27097 11.2194 1.28672C11.1586 1.30772 11.0166 1.29197 10.9152 1.29722C10.8746 1.28147 10.7529 1.27622 10.7934 1.25522L10.2051 1.23423C10.0023 1.23948 9.79941 1.28672 9.83998 1.30772C9.47482 1.31296 9.23139 1.28147 8.94738 1.28147C8.92709 1.26572 9.00824 1.26047 9.04881 1.25522L8.29822 1.22898L8.46051 1.20273C8.39965 1.15024 8.1765 1.21848 8.19679 1.16074C8.96767 1.15549 9.53568 1.04001 10.2254 1.09775C10.3268 1.05576 9.79941 1.06626 10.124 1.02951L9.98198 1.02427L9.9617 1.06626C9.04881 1.10825 8.98795 1.10825 7.97364 1.08725C8.01421 1.07151 7.99392 1.01377 7.70991 1.02951C7.56791 1.04526 7.60848 1.07676 7.50705 1.0925C7.77077 1.10825 8.15621 1.082 8.3185 1.13449L8.23736 1.14499C7.70991 1.16599 7.12161 1.1135 6.85789 1.16599C6.77674 1.09775 6.53331 1.18174 6.35073 1.14499C6.3913 1.13974 6.45216 1.1345 6.45216 1.11875C6.18844 1.16074 5.803 1.14499 5.70157 1.21323C5.57985 1.19223 5.4987 1.22373 5.41756 1.19748L5.68128 1.16074C5.60013 1.15549 5.55956 1.16599 5.51899 1.17124L5.31613 1.12925C4.9104 1.09775 4.86983 1.17124 4.82925 1.17649C5.01183 1.17649 5.27555 1.10825 5.3567 1.17124L5.11326 1.19223C5.3567 1.21848 5.62042 1.21323 5.76243 1.24473C5.72185 1.30247 5.57985 1.22373 5.51899 1.26572C5.70157 1.27097 5.92472 1.26047 6.04643 1.28672L5.98557 1.27097L6.16815 1.22373C6.43187 1.21323 6.89846 1.20273 7.06075 1.24998C6.97961 1.26572 6.89846 1.27097 6.81731 1.27097C6.93903 1.27622 7.04046 1.27622 7.18247 1.28672V1.30247L7.50705 1.28147C7.91278 1.31296 8.56194 1.29197 8.72423 1.3812C8.50108 1.41795 8.3185 1.40745 8.03449 1.39695L8.37936 1.45469L8.54165 1.42844C8.7648 1.45469 9.23139 1.45469 9.47482 1.49668C9.10967 1.52293 8.29822 1.45994 8.11564 1.47569C8.25764 1.54917 8.6228 1.45994 8.84595 1.51243V1.52818H8.92709V1.51243C8.96767 1.51768 9.00824 1.52818 8.98795 1.53868C9.29225 1.50718 9.53568 1.55442 9.79941 1.56492C10.266 1.61216 10.6717 1.55442 11.0572 1.61216C11.0977 1.59641 11.0369 1.56492 11.1789 1.55967C11.2803 1.64891 11.7063 1.55967 11.8078 1.62266C11.9903 1.62266 12.2946 1.57017 12.4366 1.59117L12.3149 1.55967C12.5583 1.53867 12.9641 1.55967 13.1467 1.55967C13.0249 1.59117 13.2684 1.60166 13.3292 1.61741L13.0249 1.62791C13.2887 1.63841 13.6944 1.68565 14.0595 1.6594C13.7958 1.61741 13.4104 1.6699 13.4307 1.58067C13.6335 1.60166 14.0392 1.49668 13.9581 1.59117C14.3435 1.54392 14.4044 1.65416 14.6276 1.60166C14.6884 1.62266 14.9318 1.62266 14.8101 1.6594C14.6884 1.6804 14.5058 1.66465 14.3435 1.66465L14.3233 1.70665C13.7958 1.74339 12.9844 1.7119 12.6192 1.74864C13.4915 1.76439 14.5667 1.73814 15.3376 1.6699C15.723 1.72764 16.1287 1.6909 16.5953 1.73289L16.5142 1.74339L17.1836 1.75389C17.4474 1.75914 17.3662 1.82213 17.3459 1.83787L16.8185 1.82738C16.4127 1.85887 15.9259 1.79588 15.3984 1.80638C15.2159 1.80113 15.0941 1.87462 14.9318 1.82738C14.5667 1.87462 13.735 1.81688 13.4104 1.84312C13.3089 1.9691 12.7206 1.81163 12.1932 1.84837C12.2541 1.86937 12.3961 1.88512 12.3758 1.90611C12.1729 1.91661 12.0512 1.93236 11.8483 1.91136C11.8889 1.91661 11.9498 1.92711 11.9092 1.93761C12.0918 1.92186 12.4772 1.92186 12.4975 1.9586V1.94286C12.9235 1.93761 13.6944 1.92186 13.9175 1.9901L13.8364 2.00059C13.5321 1.97435 13.7958 2.04784 13.6538 2.05309C13.5524 2.04784 13.3901 2.05833 13.3698 2.03734C13.3495 2.02159 13.4104 2.01634 13.4712 2.01109C13.1872 1.98485 12.9032 2.05309 12.7206 1.98485L12.7004 2.01109H11.9295C11.5846 2.01109 11.5643 1.92711 11.6252 1.90086L11.3209 1.89561L11.4426 1.93761L10.976 1.94286C10.976 1.96385 11.2194 1.9901 10.9963 2.01109C10.7123 2.06358 10.4283 2.00584 10.1646 2.01109C10.3066 2.00584 10.2457 1.97435 10.2863 1.9586C10.2457 1.9691 10.1848 1.96385 10.124 1.9586C10.1443 1.96385 10.1646 1.96385 10.2051 1.9691C10.2254 1.98485 10.1443 1.9901 10.1037 1.99535C9.59654 2.0006 9.19082 2.00059 8.74452 1.98485C9.00824 1.9901 9.04881 1.93761 9.23139 1.92711C9.10967 1.92186 8.92709 1.93236 8.86623 1.90611C8.94738 1.85362 9.08938 1.90086 9.27196 1.87462L8.66337 1.86412L9.04881 1.95335C8.98795 1.97435 8.6228 1.95335 8.74452 1.96385L8.80538 1.9796L8.48079 2.00059C8.41994 1.98485 8.29822 1.9691 8.35908 1.94286L7.75049 1.93236C7.81135 2.00059 8.13593 1.9481 8.33879 1.9691V1.98485C8.33879 2.04259 7.79106 2.03209 7.46648 2.02684C7.66934 1.98485 7.20275 1.94285 7.1419 1.95335L7.34476 1.99535C7.06075 2.03209 6.73617 2.08983 6.71588 2.12132C6.3913 2.05834 6.22901 2.21056 5.96529 2.12132C5.62042 2.14232 5.21469 2.12132 4.93069 2.08983C4.99154 2.07933 5.11326 2.07408 5.11326 2.05309H4.97126C4.97126 2.10558 4.6061 2.05309 4.56553 2.08458L4.62639 2.10033C4.44381 2.14757 4.24095 2.05309 4.1598 2.12132C4.05837 2.11608 3.89608 2.12657 3.8758 2.10558L4.03809 2.07933L3.97723 2.06358C3.77436 2.07408 3.51064 2.02684 3.53093 2.04259L3.81494 2.07408C3.47007 2.14232 3.28749 2.03734 2.92234 2.04784C2.94262 2.11083 3.69322 2.10033 3.36864 2.17382C3.14549 2.15807 2.94263 2.13707 2.76005 2.16332L3.5715 2.18956C3.59179 2.16857 3.4295 2.14757 3.61207 2.12132L3.75408 2.15282C4.50467 2.14232 4.34238 2.18431 5.01183 2.20006V2.21056C4.54525 2.22106 3.97723 2.21056 3.61207 2.24205C3.91637 2.31029 4.38295 2.20006 4.74811 2.2473C3.71351 2.45727 3.16577 2.11608 2.07031 2.28405C2.25289 2.27355 2.31375 2.30504 2.43547 2.31554L2.13117 2.32604C2.21232 2.39428 2.65862 2.32079 2.78033 2.36278C2.86148 2.39953 3.24692 2.35753 3.20635 2.41002C3.71351 2.38378 3.49036 2.46776 3.83522 2.48876C3.77436 2.55175 3.40921 2.49401 3.26721 2.5465C3.26721 2.5255 3.20635 2.52026 3.14549 2.52026C3.26721 2.53075 3.16577 2.557 3.18606 2.57275C3.47007 2.58849 3.34835 2.55175 3.4295 2.536C3.51064 2.536 3.61207 2.536 3.65265 2.55175L3.5715 2.56225C3.67293 2.5675 3.83522 2.557 3.85551 2.57799L4.03809 2.54125C3.95694 2.54125 3.85551 2.54125 3.81494 2.5255L3.97723 2.49926C4.22066 2.5255 4.6061 2.51501 4.76839 2.5675C4.78868 2.55175 4.76839 2.536 4.86983 2.53075C5.01183 2.557 5.07269 2.578 5.0524 2.59899H4.28152L5.09298 2.62524C5.09298 2.60949 5.09298 2.59374 5.19441 2.58849C5.17412 2.66723 5.74214 2.55175 5.60013 2.64623L5.90443 2.65148C5.92472 2.63574 5.90443 2.61999 6.00586 2.61474C6.08701 2.71972 6.8376 2.65148 7.16218 2.69872C7.16218 2.68298 7.16218 2.66723 7.26361 2.66198C7.62877 2.68823 7.70991 2.63574 7.68963 2.59899C7.83163 2.60424 8.05478 2.59374 8.13593 2.61999C8.09535 2.62524 8.05478 2.63573 7.97364 2.63048L8.07507 2.64098C8.05478 2.63573 8.05478 2.63573 8.03449 2.63573L8.52137 2.58849C8.56194 2.59374 8.6228 2.60424 8.58223 2.61474H8.72423C8.56194 2.71447 9.25167 2.64623 9.57626 2.69347C9.61683 2.73022 9.86026 2.74597 10.0631 2.75646C9.69797 2.74597 9.59654 2.66198 9.69797 2.61474C10.2051 2.60424 9.94141 2.69872 10.3877 2.70397L10.1037 2.66198C10.4689 2.65148 11.0369 2.64623 11.3006 2.69347L11.2194 2.70397L11.4832 2.76171L11.0977 2.78271C11.3412 2.78796 11.6455 2.78271 11.7469 2.8352L11.8483 2.79846C12.0918 2.80895 12.1323 2.85095 12.2338 2.86669ZM26.2313 2.8457V2.8562L25.927 2.85095L25.9473 2.8352L26.2313 2.8457ZM28.0165 2.92968L27.7934 2.92443L28.0977 2.91394L28.0165 2.92968ZM40.9186 3.05041V3.06616L40.6143 3.06091V3.04516L40.9186 3.05041ZM47.6943 1.28147L47.9377 1.27097L47.7754 1.28147H47.6943ZM42.4198 1.33396L42.4401 1.31821L42.7444 1.32346L42.7241 1.33396H42.4198ZM24.3244 1.23423L24.6287 1.22373L24.5476 1.23423H24.3244ZM28.0571 1.45469C28.0165 1.44419 28.118 1.39695 28.3817 1.41795L28.0571 1.45469ZM28.6657 1.42319C28.9903 1.4022 29.1729 1.42319 29.4366 1.42319C29.1526 1.42844 28.9294 1.47044 28.6657 1.42319ZM33.7373 1.47569C33.6967 1.48093 33.6561 1.47569 33.6358 1.47044L33.4533 1.45994C33.575 1.4022 33.5547 1.44944 33.6358 1.47044L33.7373 1.47569ZM33.8996 1.46519L33.859 1.42319L34.3662 1.43369C34.1227 1.43894 34.2242 1.49143 33.8996 1.46519ZM36.0093 1.47044C36.3339 1.49143 36.0905 1.43369 36.2731 1.43369L37.5511 1.45469L36.8614 1.47044C36.5977 1.43369 36.3542 1.50193 36.0093 1.47044ZM34.8733 1.46519C34.7922 1.46519 34.7719 1.45994 34.7313 1.44944H34.5893L34.6704 1.43894C34.6907 1.44419 34.711 1.44944 34.7313 1.45469H34.8936L34.8733 1.46519ZM57.3506 1.82213C57.0666 1.80113 56.6811 1.83787 56.2957 1.81688C56.2754 1.79588 56.4174 1.79063 56.4783 1.78013L56.5188 1.82213C56.7623 1.80113 57.168 1.76439 57.3506 1.82213ZM57.9592 1.78538L58.304 1.76963C58.2432 1.81163 58.1012 1.78538 57.9592 1.78538ZM37.8351 1.48618C37.7945 1.48094 37.7743 1.46519 37.6931 1.47044L37.9366 1.44944C37.8351 1.45469 37.8351 1.47044 37.8351 1.48618ZM35.5022 1.43894L35.1167 1.43369C35.279 1.41795 35.4008 1.41795 35.5022 1.4127V1.43894ZM33.4127 1.3917L33.1895 1.38645L33.8996 1.35496C34.0213 1.40745 33.5547 1.36546 33.4127 1.3917ZM37.5105 1.38645L37.7337 1.4022L37.5105 1.4127V1.38645ZM61.9353 1.80113C61.6107 1.80113 61.5701 1.75914 61.2658 1.79063L61.0833 1.73289C61.3876 1.75914 61.6716 1.76439 61.915 1.74864C61.9353 1.73289 61.9556 1.71714 61.8744 1.70665L62.1787 1.69615C62.0976 1.74339 61.915 1.77488 61.9353 1.80113ZM47.9783 1.43369C47.9986 1.44944 47.9377 1.45469 47.8769 1.45994C47.7551 1.45994 47.7349 1.43894 47.674 1.42844L47.9783 1.43369ZM45.2599 1.4022C45.7874 1.41795 45.9699 1.45994 46.4771 1.40745C46.2539 1.44944 45.8279 1.44419 45.5236 1.47044L45.3005 1.46519C45.5236 1.44944 45.2193 1.42844 45.2599 1.4022ZM35.8471 1.28147C35.9688 1.28147 36.0702 1.30771 36.0499 1.32346C35.9688 1.32346 35.8673 1.32346 35.8268 1.30772L35.8471 1.28147ZM33.4736 1.31297C33.5141 1.30247 33.4533 1.29197 33.4127 1.28672C33.5141 1.25522 33.6358 1.29197 33.6967 1.30247V1.31821L33.4736 1.31297ZM41.1418 1.43369C41.3244 1.42844 41.5678 1.45469 41.6895 1.41795L42.7038 1.47569C42.1155 1.48093 41.6287 1.45469 41.1418 1.43369ZM26.4139 1.27622C26.5153 1.27622 26.6371 1.27622 26.7791 1.27097C26.7385 1.27097 26.6979 1.27622 26.6371 1.28147L26.4139 1.27622ZM26.9008 1.27097C27.2254 1.26572 27.5702 1.26047 27.8745 1.28672C27.5905 1.33396 27.2659 1.27097 26.9008 1.27097ZM28.7671 1.29197L29.7409 1.30772V1.32346L28.7671 1.30772V1.29197ZM30.8363 1.36021C30.8363 1.36546 30.8363 1.36546 30.8363 1.36021C30.9581 1.36546 31.1406 1.36546 31.1609 1.33921C31.2015 1.32346 31.1001 1.31296 31.0595 1.30247C31.0392 1.30247 31.0392 1.30247 31.0189 1.29722C30.674 1.32346 30.4712 1.29197 30.0655 1.29197L30.0857 1.26572C30.4103 1.29722 30.7349 1.28672 31.0189 1.29722H31.0392C31.0392 1.29722 31.0595 1.29722 31.0595 1.30247C31.1203 1.30772 31.2015 1.30772 31.2623 1.31297C31.4246 1.31297 31.6072 1.32871 31.7289 1.30772C31.6681 1.32871 31.7695 1.34446 31.8507 1.36546C31.9927 1.31297 32.1955 1.37595 32.2361 1.36021C32.2361 1.37595 32.1955 1.3917 32.2767 1.4022C32.5607 1.4127 32.3578 1.33396 32.6824 1.3707L32.439 1.3917L32.5607 1.43369C32.3781 1.44944 32.1347 1.38645 31.8912 1.42319L32.0129 1.46519C31.6478 1.45994 31.6275 1.36546 31.1406 1.4127C31.1203 1.47569 31.0189 1.43369 30.7349 1.45994L30.1263 1.46519C30.1263 1.4232 30.9378 1.43894 30.8363 1.36021C30.674 1.35496 30.7349 1.36021 30.8363 1.36021ZM28.4831 1.36546C28.3817 1.37071 28.2397 1.34971 28.1788 1.37595L28.0571 1.34446L28.4831 1.36546ZM28.7266 1.35496L29.0308 1.36021V1.37595L28.7266 1.3707V1.35496ZM26.3936 1.4127L26.069 1.43369L26.0893 1.40745C26.0285 1.3812 25.8662 1.40745 25.785 1.41795L25.6025 1.36021C25.5619 1.36546 25.501 1.3707 25.501 1.38645L25.2779 1.3812C25.3184 1.37595 25.3996 1.3707 25.3793 1.35496L25.3184 1.33921L25.8459 1.33396L25.8662 1.30772C26.0082 1.31821 26.0893 1.29722 26.1908 1.28672C26.1502 1.31821 25.6836 1.34446 26.0488 1.37595C26.4951 1.34446 26.7385 1.40745 27.0834 1.41795C26.8399 1.47044 26.6979 1.39695 26.4545 1.44944L26.3936 1.4127ZM18.5428 1.35496C18.5834 1.34446 18.5225 1.33396 18.482 1.32871C18.6037 1.33921 18.7051 1.31821 18.8065 1.30772V1.29197L18.4414 1.28672C18.7051 1.25522 19.1108 1.29722 19.3137 1.33921C19.1108 1.34446 18.8268 1.3707 18.5428 1.35496ZM50.6155 1.89036L50.5546 1.87462C51.1835 1.87462 51.5893 1.85362 52.1573 1.87462C51.6501 1.87987 51.1835 1.91661 50.6155 1.89036ZM11.3615 1.28147V1.27097L11.97 1.28147V1.29197L11.3615 1.28147ZM13.6132 1.44944L13.9784 1.45469L13.9581 1.48093C13.7755 1.49143 13.735 1.45994 13.6132 1.44944C13.5524 1.47569 13.3901 1.49668 13.2075 1.48093L13.2278 1.43894L13.6132 1.44944ZM11.686 1.35496V1.34446L11.9903 1.34971V1.36546L11.686 1.35496ZM45.2193 1.90086L44.5296 1.91661C44.773 1.86937 44.9759 1.90611 45.2193 1.90086ZM11.0166 1.35496C11.3412 1.4127 11.7469 1.3707 12.0715 1.4127C12.0918 1.4127 12.0918 1.4127 12.112 1.4127L12.1729 1.42844C12.1323 1.42319 12.112 1.41795 12.0715 1.4127C11.9295 1.4127 11.9295 1.44419 11.8483 1.45994L11.9903 1.49143L11.7672 1.48618C11.9092 1.43894 11.5643 1.44944 11.5035 1.42844L11.5846 1.41795C11.4629 1.35496 11.1992 1.41795 10.976 1.40745L11.0166 1.35496ZM11.0166 1.44944L11.3006 1.46519L11.0774 1.45994L11.0166 1.44944ZM10.2863 1.42844C10.124 1.43894 10.0428 1.40745 10.0023 1.39695L9.94141 1.3812C10.0834 1.3812 10.408 1.3812 10.2863 1.42844ZM8.68366 1.4127L8.92709 1.4022L8.72423 1.36021L9.02852 1.36546C8.94738 1.41795 9.2111 1.41795 9.39368 1.42844C9.17053 1.41795 8.86623 1.48094 8.68366 1.4127ZM27.4282 2.00584L27.3674 1.9901L27.7528 1.98485C27.7325 2.00584 27.5499 1.99535 27.4282 2.00584ZM31.1609 2.00059V2.01109L30.5523 2.00059L30.5726 1.98485L31.1609 2.00059ZM26.7791 1.9691C26.8196 1.9901 26.9008 1.98485 27.0022 1.98485C26.6371 1.99535 26.6979 2.07408 26.3125 2.00059C26.2111 2.02159 26.069 2.02684 25.9068 2.02159L25.8459 2.00584C26.0893 1.9796 26.4342 1.9586 26.6979 1.9901L26.7791 1.9796L26.5965 1.92186C26.8196 1.85887 27.2457 1.94285 27.5094 1.92186C27.3268 1.99535 27.0022 1.91136 26.7791 1.9691ZM21.0786 1.86412H20.9975L21.0989 1.83787L21.0786 1.86412ZM31.8101 1.95335L31.7898 1.99535L31.4246 1.9901L31.8101 1.95335ZM29.3757 1.9586L28.9294 1.95335V1.94286L29.3757 1.9481V1.9586ZM32.4187 1.93761L32.4795 1.96385C32.2767 1.9586 32.1347 2.0006 31.9521 1.9691C32.1347 1.9901 32.2361 1.93236 32.4187 1.93761ZM28.6454 1.89036L28.5845 1.87462L29.4974 1.87462L28.6454 1.89036ZM32.6215 1.9691C32.7027 1.97435 32.7432 1.96385 32.7838 1.9586L33.0678 1.96385C32.8853 1.96385 32.8244 2.00584 32.6215 1.9691ZM10.124 1.52818L10.1443 1.50193C10.1037 1.51243 10.976 1.54917 11.2803 1.51768C11.0369 1.56492 10.4283 1.52818 10.124 1.52818ZM11.9295 1.55967L11.7672 1.57017C11.8078 1.54917 11.686 1.54392 11.6455 1.52818L11.9295 1.55967ZM69.6847 2.44677C69.9078 2.55175 69.1572 2.5465 68.7718 2.55175L67.0474 2.5255C67.0069 2.53075 66.9866 2.53075 66.946 2.536L66.8851 2.52026L67.0474 2.5255C67.4532 2.47826 68.0212 2.5465 68.4472 2.47826C68.7312 2.50451 68.9341 2.49401 69.1978 2.50451L69.6847 2.44677ZM19.0905 1.7014C18.9891 1.7014 18.8877 1.70665 18.7457 1.70665C18.8065 1.6594 18.9283 1.69615 19.0905 1.7014ZM20.7946 1.72764L21.0177 1.73289L20.9975 1.74864L20.7743 1.74339L20.7946 1.72764ZM15.3579 1.6699C15.4999 1.63316 15.7027 1.64366 15.9056 1.64366C15.723 1.65416 15.581 1.68565 15.3579 1.6699ZM28.0571 1.86937L27.976 1.87987L28.1788 1.92186C28.0368 1.94285 27.8137 1.92711 27.6514 1.92711C27.976 1.92711 27.6311 1.82737 28.0571 1.86937ZM23.4318 1.86412L23.0464 1.85887L23.0667 1.81688C23.2492 1.85887 23.4318 1.79588 23.4318 1.86412ZM18.4211 1.83787L18.2588 1.86412C18.2182 1.84837 18.1371 1.84837 18.0357 1.84837L17.9951 1.79588C18.1371 1.80113 18.2791 1.79588 18.3805 1.77488L18.3197 1.75914C18.5225 1.74864 18.5225 1.79063 18.5834 1.80113C19.0703 1.76964 19.3137 1.89561 19.6383 1.80638L19.618 1.84837L19.5571 1.83262L19.3746 1.88512C19.1514 1.80638 18.8065 1.82738 18.4211 1.83787ZM19.8817 1.83262C20.0643 1.77488 20.1657 1.84837 20.4092 1.82738L20.1657 1.85362C20.2874 1.86412 20.186 1.89036 20.2063 1.90611C20.2063 1.84312 19.618 1.91136 19.8817 1.83262ZM25.6227 1.9796C25.5822 2.02159 25.501 2.02684 25.3387 2.06883C25.1764 2.00584 24.8316 2.06883 24.5273 2.04259C24.5679 2.03209 24.507 2.02159 24.4664 2.01634C24.6287 2.05834 25.2576 1.9481 25.6227 1.9796ZM24.1824 1.9796L24.1621 2.02159L23.939 2.01634C24.0201 1.9901 23.9796 1.9901 24.1824 1.9796ZM18.0762 1.91136C18.1371 1.89561 18.4008 1.91661 18.5225 1.93236L18.0762 1.91136ZM16.4736 1.91136L16.4939 1.91661C16.6359 1.91136 16.8388 1.90086 16.9199 1.90611C16.7779 1.90611 16.6156 1.94286 16.4939 1.91661C16.3722 1.92186 16.3316 1.92711 16.4736 1.91136ZM19.4151 1.9481L19.3543 1.93236H19.5166C19.476 1.95335 19.5977 1.9586 19.6383 1.97435L19.7194 1.96385C19.618 2.03209 19.5571 1.93761 19.4151 1.9481ZM31.0595 2.35753L30.7552 2.35228L31.0798 2.33129L31.0595 2.35753ZM23.9187 2.14232C23.939 2.14232 23.9593 2.14232 23.9593 2.14757L24.2838 2.17382C24.1216 2.17906 24.0607 2.15807 23.9593 2.14757L23.9187 2.14232L23.7564 2.16332L23.8173 2.17906C23.655 2.17382 23.4724 2.16857 23.3507 2.20006L23.6955 2.12657L23.9187 2.14232ZM22.8841 2.11083C22.9855 2.10558 22.9855 2.08983 22.9855 2.07408H23.1275C23.0058 2.12657 23.3912 2.10558 23.4724 2.13182C22.4175 2.27355 21.6466 2.08458 20.6729 2.11607C20.5309 2.13182 20.328 2.17381 20.1251 2.13182C20.2469 2.13707 20.2874 2.11607 20.3686 2.11083C20.328 2.09508 20.2469 2.09508 20.1454 2.09508C20.186 2.08458 20.1252 2.07408 20.0846 2.06883C19.6586 2.08983 20.2063 2.15807 19.7194 2.15807L19.8817 2.13182L19.6789 2.08983C19.9426 2.07408 20.1454 2.02159 20.47 2.04784L20.8149 2.10558L20.9772 2.07933L20.9163 2.06358C20.9975 2.06358 21.0989 2.06358 21.1395 2.07933L21.4032 2.04259C21.9509 2.10033 22.4581 2.01109 22.8841 2.11083ZM12.5381 1.90611C12.5989 1.89036 12.8626 1.91136 12.9844 1.92711C12.8221 1.91661 12.6192 1.93236 12.5381 1.90611ZM14.2421 1.9586V1.9481L14.6884 1.95335V1.96385L14.2421 1.9586ZM14.9927 1.9691V1.95335L15.3781 1.9586V1.97435L14.9927 1.9691ZM16.6359 2.01109L16.6562 1.99535L16.8793 2.00059L16.859 2.01634L16.6359 2.01109ZM17.3256 1.99535L17.8531 2.00584L17.6908 2.03209L17.3256 1.99535ZM18.908 2.02159L19.7397 2.03209C19.5571 2.02684 19.3948 2.04259 19.2528 2.06358L19.3746 2.08983L18.8877 2.09508C18.8674 2.10033 18.8674 2.10558 18.8471 2.11083C18.8674 2.12132 18.9283 2.12657 18.9688 2.13707H18.8877C18.8471 2.13182 18.8471 2.12132 18.8471 2.11083C18.8268 2.10558 18.8268 2.10033 18.8268 2.09508H18.8674C19.0094 2.05834 19.3543 2.02159 18.908 2.02159ZM16.3113 2.04784C16.2505 2.04784 16.2099 2.05309 16.149 2.05833C16.2099 2.04784 16.2505 2.04259 16.3113 2.04784C16.6156 2.04259 17.0011 2.08458 17.2242 2.05833L17.5082 2.07408C17.2648 2.13707 16.6968 2.10033 16.5142 2.08458C16.5142 2.06883 16.4127 2.04784 16.3113 2.04784ZM15.2361 2.06883L15.5202 2.08458C15.439 2.08458 15.3579 2.07933 15.297 2.09508C15.3173 2.08458 15.2564 2.07408 15.2361 2.06883ZM13.7755 2.07408C13.9378 2.04784 14.1407 2.08458 14.2827 2.09508L13.8161 2.10033C13.877 2.08458 13.8161 2.07933 13.7755 2.07408ZM15.2159 2.18956C15.1144 2.21056 14.9724 2.20006 14.8304 2.19481C14.7898 2.20006 14.7696 2.20006 14.7696 2.19481C14.7898 2.19481 14.8101 2.19481 14.8304 2.19481C14.9318 2.18431 15.1144 2.15282 15.2159 2.18956ZM12.0106 2.11083L11.9295 2.12132L12.1323 2.16332C11.9903 2.15807 11.7672 2.16857 11.686 2.14232C11.7672 2.14232 11.8483 2.14757 11.9295 2.13182L11.7875 2.10033L12.0106 2.11083ZM8.7648 2.05833L8.46051 2.05309C8.52137 2.03734 8.60251 2.04259 8.70394 2.04259L8.7648 2.05833H8.90681L8.82566 2.06883L8.7648 2.05833ZM9.12996 2.10558V2.08983C9.5154 2.09508 9.88055 2.04784 10.266 2.10558C10.5297 2.05833 11.1789 2.10033 11.4832 2.10033L11.3209 2.12657L11.26 2.11083C10.6109 2.15282 9.81969 2.10558 9.12996 2.10558ZM7.38533 2.08983L6.97961 2.10558C7.12161 2.08983 7.26361 2.05833 7.38533 2.08983ZM7.52734 2.09508L8.03449 2.11607V2.13182L7.52734 2.09508ZM12.3758 2.13182C12.6395 2.12132 12.7612 2.16332 12.9438 2.17906L13.0452 2.14232C13.0249 2.16332 12.9844 2.20006 13.1669 2.20006C12.7206 2.24205 12.7409 2.13707 12.3758 2.13182ZM6.73617 2.14757L7.70991 2.17382C7.7302 2.18956 7.66934 2.19481 7.60848 2.20006C7.46648 2.16857 6.91875 2.20531 6.73617 2.14757ZM7.91278 2.19481C7.8722 2.16857 8.3185 2.20531 8.50108 2.21581L7.91278 2.19481ZM5.90443 2.2578L6.20872 2.2473L6.12758 2.2578H5.90443ZM7.46648 2.29454V2.28405L7.91278 2.28929V2.30504L7.46648 2.29454ZM40.5535 2.91394V2.89819L40.8578 2.90344V2.91394H40.5535ZM5.3567 2.49926V2.50976L5.0524 2.50451V2.48876L5.3567 2.49926ZM6.41159 2.38378L6.63474 2.38903V2.40477L6.41159 2.39953V2.38378ZM2.94263 2.35753L2.96291 2.34703L3.26721 2.35228V2.36278L2.94263 2.35753ZM38.1191 2.91394L38.1394 2.90344L38.4437 2.90869L38.4234 2.91918L38.1191 2.91394ZM41.2229 2.93493C41.4664 2.94018 41.7707 2.93493 41.8721 2.98742L41.7098 3.01367L41.6692 2.97168C41.4055 2.99267 41.3244 3.00842 41.0404 3.01367C40.9998 2.98217 40.9592 2.94018 41.2229 2.93493ZM33.1287 2.88769L32.2767 2.90344L32.0535 2.88769H33.1287ZM31.6072 2.87719L31.9115 2.88244V2.89294L31.6072 2.88769V2.87719ZM3.83522 2.48876L3.85551 2.44677L4.6061 2.47301C4.48439 2.47301 4.3221 2.45727 4.22066 2.47826C4.18009 2.48876 4.24095 2.49926 4.28152 2.50451H4.42353C4.15981 2.557 4.13952 2.43102 3.83522 2.48876ZM6.87817 2.59374C6.79703 2.59374 6.6956 2.58849 6.63474 2.60424C6.59416 2.61474 6.65502 2.62524 6.6956 2.63048L6.16815 2.63573L6.20872 2.58324C6.16815 2.57799 6.14787 2.578 6.12758 2.57275C6.16815 2.578 6.2493 2.58324 6.28987 2.57275C6.3913 2.63049 6.65502 2.5675 6.87817 2.59374ZM12.2338 2.77221L12.3149 2.76171C12.2541 2.73547 12.0715 2.75121 11.9498 2.74072C11.8483 2.74597 11.8686 2.76171 11.8483 2.77746L11.7266 2.73547C12.0309 2.69347 12.4975 2.78796 12.4975 2.70922L12.8626 2.71447C12.5786 2.78271 13.1061 2.71447 13.1264 2.75646C13.0046 2.75646 12.8424 2.74072 12.7409 2.76171V2.77746L13.2481 2.79846C12.9032 2.82995 12.6598 2.75646 12.2338 2.77221Z" fill="white"/>
<path d="M37.9125 3.31321H37.8314C37.6488 3.29221 37.9328 3.27121 37.9328 3.26072C37.7908 3.27646 37.6488 3.27122 37.5677 3.23972L37.3242 3.27646C37.6691 3.28171 37.6894 3.32895 37.9125 3.31321Z" fill="white"/>
<path d="M31.0802 3.026C31.0596 3.026 31.0596 3.026 31.0391 3.026C31.0391 3.026 31.0391 3.026 31.0596 3.03125C31.0596 3.026 31.0596 3.026 31.0802 3.026Z" fill="white"/>
<path d="M31.2201 3.0155C31.1593 3.01025 31.1187 3.0155 31.0781 3.026C31.1187 3.026 31.1593 3.026 31.1998 3.03125L31.2201 3.0155Z" fill="white"/>
<path d="M26.2094 2.9922C26.2094 2.99739 26.2322 2.99739 26.2094 2.9922V2.9922Z" fill="white"/>
<path d="M32.3976 1.21216H32.3164V1.22266H32.3773L32.3976 1.21216Z" fill="white"/>
<path d="M22.7233 1.3008C22.6827 1.3008 22.6421 1.3008 22.6016 1.3008C22.6421 1.30598 22.6827 1.30598 22.7233 1.3008Z" fill="white"/>
<path d="M43.3101 3.22375C43.2696 3.23425 44.0404 3.20801 44.1216 3.25C44.1622 3.19751 44.5273 3.25 44.6693 3.21851C44.7302 3.20801 44.6288 3.16077 44.6085 3.19226C44.3447 3.18701 43.9999 3.23425 43.7767 3.19226L43.3101 3.22375Z" fill="white"/>
<path d="M43.7805 3.19141C43.7805 3.18616 43.7599 3.18091 43.7393 3.17566L43.7188 3.18091C43.7393 3.18091 43.7599 3.18616 43.7805 3.19141Z" fill="white"/>
<path d="M23.4701 1.2447C23.4498 1.2342 23.5107 1.2237 23.5513 1.21845C23.4701 1.2237 23.389 1.2237 23.3281 1.22895C23.3687 1.23945 23.389 1.24995 23.4701 1.2447Z" fill="white"/>
<path d="M68.6722 0.0925152C68.7534 0.18175 69.5242 0.103013 69.8488 0.139757C69.93 0.1765 69.646 0.176501 69.646 0.202746C70.0111 0.260486 70.356 0.145006 70.6197 0.12401C70.64 0.0715192 71.0051 0.0347759 71.0051 -0.00196776C70.1734 0.0505231 69.3214 0.0977649 68.3679 0.0767686C68.2462 0.12401 67.9013 0.145006 67.7188 0.145006C68.2462 0.197497 68.3679 0.082017 68.6722 0.0925152Z" fill="white"/>
<path d="M64.8743 0.611816C65.6858 0.643311 66.335 0.59607 67.1667 0.59607C67.5927 0.59607 67.7956 0.627564 68.1607 0.585571C68.5462 0.580322 69.175 0.559325 69.4185 0.632813C69.7634 0.601318 70.1691 0.585572 70.4734 0.543579C70.2908 0.48059 69.7836 0.438596 69.6822 0.370358C69.2765 0.396604 68.891 0.438597 68.749 0.517334C67.3493 0.554077 66.2132 0.53308 64.9961 0.564575C64.8135 0.59607 64.4483 0.543579 64.3672 0.59607L64.8743 0.611816Z" fill="white"/>
<path d="M69.9074 1.36406C69.9074 1.33257 69.7451 1.31682 69.6436 1.29057L69.5625 1.30107C69.6234 1.33256 69.6436 1.37981 69.9074 1.36406Z" fill="white"/>
<path d="M59.9284 0.870113C60.1718 0.896359 60.5573 0.83862 60.821 0.885861C60.2732 0.89636 59.4415 0.980345 59.1778 0.938352L59.3806 0.969847L59.2995 0.980344C59.2184 0.980344 59.1169 0.980345 59.0764 0.964598L58.9141 0.990843C59.6038 1.04858 60.2327 0.927853 60.9427 0.927853C61.0847 0.854366 61.6527 0.912106 61.8759 0.901608C62.0382 0.938352 62.5859 0.89111 62.6265 0.927853C62.6467 0.917355 62.6873 0.901609 62.7076 0.891111H62.5656C62.4033 0.843869 62.2207 0.938352 62.0382 0.880612C62.0179 0.859616 62.1599 0.854366 62.2207 0.843868C62.7279 0.870113 63.6814 0.759882 63.9248 0.896359C64.1074 0.901608 64.2899 0.906857 64.3914 0.875363L64.6551 0.933103C65.0405 0.94885 65.0202 0.870114 65.3043 0.875363C65.6491 0.943601 66.2374 0.891111 66.6229 0.938352L66.562 0.94885C66.6634 0.9436 67.0895 0.9541 67.1909 0.990843C67.1706 1.01709 67.0083 1.02234 66.9272 1.04333C67.3329 1.08533 67.7183 1.13782 68.2255 1.14307L67.9618 1.08533L68.0429 1.07483C67.84 1.08008 67.7589 1.05383 67.6169 1.04333C67.7183 1.02234 67.8603 1.01709 68.0023 1.02234C68.2052 1.07483 68.6515 1.09582 68.4284 1.16406C68.4892 1.13782 68.6515 1.12732 68.6921 1.10107C68.2864 1.00134 67.556 0.922605 66.988 0.833371L67.1706 0.78088C67.0083 0.754634 66.704 0.770381 66.6026 0.71789L64.0059 0.744135C63.2351 0.749384 62.0584 0.786129 61.2267 0.807125L61.2876 0.822872C60.8007 0.906857 59.9892 0.791378 59.5227 0.833371L59.7661 0.822872C59.8675 0.828121 59.9892 0.843868 59.9284 0.870113Z" fill="white"/>
<path d="M62.6273 0.92688C62.6067 0.937378 62.5862 0.942627 62.5862 0.953125C62.6273 0.942627 62.6273 0.937378 62.6273 0.92688Z" fill="white"/>
<path d="M66.457 3.15984C66.6396 3.15459 66.8628 3.18083 67.0048 3.14409C66.8222 3.11785 66.5585 3.12834 66.457 3.15984Z" fill="white"/>
<path d="M68.207 0.210694L68.4099 0.242188C68.4099 0.22644 68.4099 0.210694 68.5113 0.205445L68.207 0.210694Z" fill="white"/>
<path d="M68.8074 0.22111L68.8277 0.194865L68.5234 0.205364C68.6046 0.210613 68.706 0.247356 68.8074 0.22111Z" fill="white"/>
<path d="M62.4844 3.39844C62.6264 3.37219 62.8901 3.40894 63.0321 3.38269C62.8292 3.37744 62.5858 3.36694 62.4844 3.39844Z" fill="white"/>
<path d="M64.2878 0.921752L63.9023 0.932251L64.2066 0.9375L64.2878 0.921752Z" fill="white"/>
<path d="M64.2292 0.589912L63.8438 0.610908L64.0669 0.616158C64.1278 0.621407 64.2292 0.60566 64.2292 0.589912Z" fill="white"/>
<path d="M62.0387 3.40234V3.3866L61.7344 3.39709L62.0387 3.40234Z" fill="white"/>
<path d="M61.6914 3.35413L61.9754 3.35938L61.9957 3.34363L61.6914 3.35413Z" fill="white"/>
<path d="M63.2891 0.875H63.4919C63.3905 0.864502 63.3296 0.869751 63.2891 0.875Z" fill="white"/>
<path d="M62.8873 0.87707L63.0091 0.903316L62.7656 0.94006C63.2322 0.987302 63.0902 0.892817 63.2931 0.871821L62.8873 0.87707Z" fill="white"/>
<path d="M59.1173 4C59.2593 3.9895 59.4216 3.9895 59.523 3.96851C59.4419 3.91077 59.239 3.95801 59.0767 3.96326C59.0565 3.97376 59.0362 3.9895 59.1173 4Z" fill="white"/>
<path d="M58.0195 3.05725L58.2427 3.0625V3.04675L58.0195 3.0415V3.05725Z" fill="white"/>
<path d="M59.2383 0.869751L59.5426 0.875V0.864503L59.2383 0.869751Z" fill="white"/>
<path d="M56.8633 0.934081C57.1473 0.928832 57.4719 0.93933 57.6747 0.93933C57.5327 0.949828 57.4516 0.991821 57.269 0.970825L57.4516 1.03906C57.5124 1.02332 57.5936 1.02856 57.695 1.02856C57.3907 0.860593 58.4659 1.01807 58.8311 0.923582C58.4253 0.965575 58.0805 0.934081 57.695 0.918334C58.0805 0.871092 58.3442 0.902586 58.7905 0.88159L58.5065 0.839598C58.5268 0.855345 58.4659 0.860594 58.405 0.865843L58.3442 0.850095C58.2225 0.865842 57.8979 0.808103 57.7356 0.855344C57.8167 0.850095 57.837 0.865842 57.8776 0.871091C57.411 0.860593 57.1879 0.918333 56.8633 0.934081Z" fill="white"/>
<path d="M56.0125 0.928149C55.7894 0.875658 55.3228 0.943896 55.0793 0.954395C55.2822 0.959644 55.5662 0.901904 55.6879 0.964893C55.0388 0.980641 54.4708 1.00164 54.207 1.02263C54.7953 1.02788 55.5865 1.00689 56.1342 0.975391C55.9922 0.970142 55.7691 0.98064 55.6879 0.954395C55.9517 0.949145 56.1545 0.922901 56.4588 0.938648C56.4182 0.907153 56.5805 0.896655 56.6617 0.875658C56.5197 0.870409 56.3168 0.875659 56.1342 0.880908C56.0734 0.891406 56.1545 0.9229 56.0125 0.928149Z" fill="white"/>
<path d="M55.5644 0.801205L55.1992 0.795956L55.2601 0.811704C55.3412 0.806455 55.5441 0.822201 55.5644 0.801205Z" fill="white"/>
<path d="M54.3047 0.953002L54.3656 0.96875L54.6901 0.947752L54.3047 0.953002Z" fill="white"/>
<path d="M53.4789 0.953002L53.3978 0.963501L53.7629 0.96875C53.7629 0.953003 53.7629 0.937255 53.8644 0.932006C53.9252 0.942504 53.9658 0.963501 54.0672 0.963501C54.0267 0.942504 54.189 0.932006 54.189 0.91101C53.8035 0.890013 53.3166 0.895263 52.8906 0.916259C53.1138 0.916259 53.3369 0.926756 53.4789 0.953002Z" fill="white"/>
<path d="M52.9299 0.984375L53.2545 0.963379C53.1125 0.963379 52.9299 0.95288 52.9299 0.984375Z" fill="white"/>
<path d="M51.5868 3.12964L51.3434 3.14014L51.4042 3.15588L51.0391 3.16113C51.1608 3.16638 51.2622 3.18738 51.3231 3.20312C51.2825 3.17163 51.4245 3.14013 51.5868 3.12964Z" fill="white"/>
<path d="M51.6076 0.911133L51.4453 0.937378L51.8916 0.942628C51.8916 0.947877 51.9119 0.947876 51.9322 0.953125C51.9119 0.947876 51.8916 0.942627 51.9119 0.932129C51.7902 0.921631 51.6279 0.937378 51.6076 0.911133Z" fill="white"/>
<path d="M51.9727 0.967729C51.9929 0.972978 52.0132 0.978227 51.9929 0.988725C52.1958 0.999223 52.3581 0.983477 52.5407 0.972979L52.4798 0.95723C52.3784 0.988725 52.1958 0.978226 52.0132 0.978226C52.0132 0.972977 51.9929 0.967729 51.9727 0.967729Z" fill="white"/>
<path d="M50.4098 3.49609V3.4856L50.1258 3.48035L50.1055 3.49085L50.4098 3.49609Z" fill="white"/>
<path d="M50.4927 0.987739L50.4521 0.945747C50.4115 0.950996 50.371 0.961493 50.2898 0.956244L50.3507 0.971993L50.2695 0.98249C50.6753 1.00349 50.9998 1.02448 51.4056 0.987739C51.3447 0.919501 51.081 0.956244 50.8376 0.924749L51.0404 0.966743C50.8781 0.987739 50.6753 0.987739 50.4927 0.987739Z" fill="white"/>
<path d="M50.2483 0.988006L50.1672 0.998505C49.944 0.988007 49.9238 0.961761 49.9035 0.940765C49.7817 0.956512 49.6195 0.977508 49.5586 1.00375C49.7412 1.02475 50.1266 1.0405 50.2483 0.988006Z" fill="white"/>
<path d="M50.5972 1.04719C50.3538 1.09443 49.7858 1.04194 49.6641 1.07343C50.0089 1.07868 50.4147 1.11018 50.5972 1.04719Z" fill="white"/>
<path d="M48.7301 1.00476C48.8721 1.02576 49.1359 1.02576 49.1359 1.0625C49.7444 0.973265 48.5273 0.994262 48.7301 1.00476Z" fill="white"/>
<path d="M46.8633 3.23828C47.0256 3.21204 47.3096 3.24878 47.4922 3.22253L46.8836 3.22778L46.8633 3.23828Z" fill="white"/>
<path d="M48.2604 1.00513L47.875 1.01038L48.1793 1.01562L48.2604 1.00513Z" fill="white"/>
<path d="M46.5348 3.39844L46.5551 3.37219L46.2305 3.38269L46.5348 3.39844Z" fill="white"/>
<path d="M47.392 0.95642C47.3717 0.972167 47.3514 0.987915 47.4326 0.998414C47.3717 1.00891 47.25 1.01416 47.25 1.03516C47.5543 1.02466 47.7774 1.02991 47.8383 0.961669L47.392 0.95642Z" fill="white"/>
<path d="M47.1473 0.989503L46.8633 0.958008L47.127 1L47.1473 0.989503Z" fill="white"/>
<path d="M46.7965 1.03944L46.4922 1.03419L46.553 1.04994C46.6545 1.04994 46.7356 1.05519 46.7965 1.03944Z" fill="white"/>
<path d="M46.0692 0.999878L45.7852 0.968384L45.988 1.01562L46.0692 0.999878Z" fill="white"/>
<path d="M45.0547 1.03894L45.1155 1.05469C45.2576 1.05469 45.3387 1.03369 45.4401 1.01794L45.0547 1.03894Z" fill="white"/>
<path d="M44.6513 0.977171L43.2109 0.982421C43.2921 0.98767 43.6775 1.03491 43.3732 1.06641C43.921 1.06641 44.2253 1.04541 44.7527 1.04541C44.8136 0.998168 44.4687 1.02966 44.4078 0.998169L44.6513 0.977171Z" fill="white"/>
<path d="M43.9387 1.11316L43.7156 1.10791L43.6953 1.12366L43.9185 1.12891L43.9387 1.11316Z" fill="white"/>
<path d="M41.9883 1.05591L42.4549 1.06641L42.6172 1.04016L41.9883 1.05591Z" fill="white"/>
<path d="M41.5513 1.05078C41.7744 1.02978 41.531 0.99304 41.531 0.982542L41.3281 1.04553L41.5513 1.05078Z" fill="white"/>
<path d="M40.6528 1.02287C40.6123 1.02812 40.5514 1.03337 40.5514 1.04911C40.6326 1.04911 40.734 1.04911 40.7746 1.06486L40.4297 1.1121C40.6731 1.06486 40.9166 1.16459 41.0586 1.09635C41.0383 1.06486 40.9571 1.00187 40.6528 1.02287Z" fill="white"/>
<path d="M39.3717 3.20312H39.5137L39.25 3.14538L39.3717 3.20312Z" fill="white"/>
<path d="M40.0665 1L40.2288 0.979002L39.5391 0.994751L40.0665 1Z" fill="white"/>
<path d="M39.8034 1.04993C39.7426 1.03943 39.4585 1.04468 39.418 1.05517L39.6208 1.08667L39.5397 1.09717L39.6005 1.11291C40.0063 1.11816 39.5194 1.06567 39.8034 1.04993Z" fill="white"/>
<path d="M38.8867 1.0625L39.2113 1.0415C39.0693 1.03625 38.8867 1.03101 38.8867 1.0625Z" fill="white"/>
<path d="M38.6871 0.90625V0.895751L38.4031 0.890503L38.3828 0.901001L38.6871 0.90625Z" fill="white"/>
<path d="M38.6303 1C38.6709 0.979004 38.6303 0.958008 38.5086 0.958008L38.4883 0.984253C38.5694 0.979004 38.5897 0.989502 38.6303 1Z" fill="white"/>
<path d="M37.1445 1.04651L37.5705 1.09375C37.5705 1.0675 37.6314 1.04651 37.6923 1.03076C37.5097 1.04126 37.3474 1.06226 37.1445 1.04651Z" fill="white"/>
<path d="M36.9613 1.09501L36.6367 1.11601C36.6773 1.12126 36.6976 1.13701 36.7787 1.13176C36.8396 1.12126 36.9613 1.11601 36.9613 1.09501Z" fill="white"/>
<path d="M37.0196 0.896346C36.8776 0.864852 36.6545 0.896346 36.4922 0.901596C36.5936 0.891097 36.8168 0.938339 37.0196 0.896346Z" fill="white"/>
<path d="M35.4805 1.13928L35.7036 1.14453L35.7239 1.12878L35.4805 1.13928Z" fill="white"/>
<path d="M35.3378 0.921875L35.5812 0.885132L34.9727 0.900879L35.3378 0.921875Z" fill="white"/>
<path d="M35.1738 1.04126C34.7275 1.05176 35.3361 1.05701 35.2144 1.09375C35.3361 1.0885 35.2347 1.04651 35.1738 1.04126Z" fill="white"/>
<path d="M34.6094 0.966949C34.6499 0.993194 34.8122 0.977446 34.8934 0.982695C35.0151 0.982695 35.218 0.993194 35.218 0.961699L34.6094 0.966949Z" fill="white"/>
<path d="M34.4859 1.04688C34.283 1.00488 33.9178 1.02588 33.8164 1.03638L34.4859 1.04688Z" fill="white"/>
<path d="M32.496 3.02075C32.4148 3.02075 32.3945 3.026 32.3945 3.03125L32.496 3.02075Z" fill="white"/>
<path d="M31.7695 3.09672L31.9115 3.12821C32.1347 3.17021 32.4796 3.1912 32.6621 3.12821C32.6216 3.10722 32.4187 3.05998 32.4187 3.04423L32.3578 3.03373L31.7695 3.09672Z" fill="white"/>
<path d="M33.6367 0.947876L33.941 0.953125L33.9613 0.937378L33.6367 0.947876Z" fill="white"/>
<path d="M33.3086 0.98938L33.4506 1.01562L33.9172 0.98413L33.3086 0.98938Z" fill="white"/>
<path d="M33.3711 0.89319L33.5942 0.898438L33.8377 0.88794L33.3711 0.89319Z" fill="white"/>
<path d="M31.8299 3.25517L31.3633 3.24992C31.4241 3.30766 31.6473 3.27091 31.8299 3.25517Z" fill="white"/>
<path d="M31.8281 3.25256L32.031 3.25781C31.9904 3.24207 31.9093 3.24732 31.8281 3.25256Z" fill="white"/>
<path d="M31.1552 3.19116C31.3784 3.14917 31.4392 3.22266 31.6624 3.21216C31.2161 3.18591 30.8103 3.05469 30.3438 3.13867L30.6278 3.17017L30.4655 3.19641C30.6886 3.20691 30.9726 3.19116 31.1349 3.22266L31.1552 3.19116Z" fill="white"/>
<path d="M33.1095 0.938206L33.0284 0.948703C32.8458 0.911959 32.4401 1.00119 32.7038 0.9697L33.1704 0.964451L33.1095 0.938206Z" fill="white"/>
<path d="M30.6953 3.86719H30.7765L30.959 3.83044L30.6953 3.86719Z" fill="white"/>
<path d="M31.1162 3.24362L30.7307 3.24887L30.7916 3.26462C30.9539 3.28037 31.0756 3.25412 31.1162 3.24362Z" fill="white"/>
<path d="M32.1535 1.00894L32.0927 0.993194L32.4781 0.972198C32.255 0.982696 32.1738 0.9512 32.2144 0.930204C31.8695 0.930204 31.6464 1.00894 31.3218 1.00894C31.2204 0.966948 30.8755 1.04043 30.8958 0.977445L30.6726 0.972198L30.6523 1.01419C30.7132 1.02469 30.7335 1.04568 30.8552 1.04568C30.9769 1.00894 31.2609 1.01944 31.4029 1.02469C31.5855 1.09818 31.8898 1.01419 32.1535 1.00894Z" fill="white"/>
<path d="M22.765 3.57153L22.8462 3.56103L22.3187 3.55053C22.1565 3.63977 22.8056 3.60303 23.0085 3.63977L22.8462 3.66601C23.0288 3.71851 23.5765 3.69751 23.9619 3.70801C23.9011 3.66076 24.2054 3.68176 24.3068 3.66076C25.1385 3.71326 26.0717 3.63977 26.944 3.70276C26.8426 3.70801 26.5789 3.71851 26.4774 3.72375C26.802 3.77625 27.1875 3.63977 27.4715 3.72375L27.3092 3.75C27.8569 3.69751 28.3235 3.66076 28.9321 3.70801L28.8509 3.71851C29.419 3.70276 29.8653 3.72375 30.3724 3.729C30.0276 3.72375 29.7841 3.66601 29.6015 3.62402C29.3987 3.63452 29.0741 3.58728 28.8509 3.59778L28.9118 3.61352C28.9118 3.63452 28.7901 3.63977 28.7292 3.65027V3.54529H28.6481V3.56103C28.5061 3.59778 28.4046 3.54529 28.3641 3.54529C28.1612 3.60303 27.8163 3.63452 27.4918 3.58728C27.2078 3.58203 26.66 3.57153 26.7817 3.62927C26.3354 3.62402 25.6457 3.66077 25.1183 3.61877C24.956 3.54529 24.53 3.65552 24.2257 3.59253L24.3677 3.62402L24.2865 3.63452C24.1648 3.62927 23.9822 3.63977 23.9214 3.61352L24.0837 3.58728L24.0228 3.57153C23.7794 3.56628 23.8402 3.62402 23.6171 3.61877C23.3736 3.57153 22.8868 3.66077 22.765 3.57153ZM23.1099 3.64502C23.1505 3.66077 23.1911 3.67126 23.2316 3.67126C23.1708 3.67126 23.1099 3.67126 23.0288 3.67126C23.0491 3.66077 23.1099 3.65552 23.1099 3.64502ZM23.8402 3.67126C23.6171 3.68701 23.4751 3.68176 23.2925 3.67651C23.4548 3.66601 23.6374 3.62402 23.8402 3.67126Z" fill="white"/>
<path d="M29.8633 3.86975L30.0864 3.875L30.2487 3.8645L29.8633 3.86975Z" fill="white"/>
<path d="M31.4258 1.0885L31.6489 1.09375V1.08325L31.4258 1.0885Z" fill="white"/>
<path d="M28.4023 3.46094H28.4835L28.6458 3.43469L28.4023 3.46094Z" fill="white"/>
<path d="M29.845 0.953002L29.6016 0.963501L29.8247 0.96875L29.845 0.953002Z" fill="white"/>
<path d="M29.1328 0.877563L29.356 0.882812L29.5183 0.872314L29.1328 0.877563Z" fill="white"/>
<path d="M28.0542 0.904904C28.257 0.857662 28.6019 0.904904 28.825 0.878659C28.5613 0.810421 28.2976 0.920652 27.9324 0.862912C27.9122 0.878659 27.8919 0.894406 27.973 0.904904C27.8716 0.915402 27.7904 0.936398 27.6484 0.9259C27.689 0.941647 27.8107 0.946897 27.7702 0.967894C27.9527 0.957396 28.0136 0.98889 28.1353 0.999389L27.973 1.02563L28.1353 1.03088C28.2367 1.04138 28.1962 1.05713 28.1759 1.07288L28.6222 1.07812C27.9324 1.07812 28.4802 0.946897 28.0542 0.904904Z" fill="white"/>
<path d="M26.533 3.50622L26.0664 3.51147L26.3504 3.54297C26.4113 3.53247 26.5533 3.52722 26.533 3.50622Z" fill="white"/>
<path d="M25.9263 3.72656L26.0074 3.71606L25.7031 3.72131L25.9263 3.72656Z" fill="white"/>
<path d="M27.0586 1.11383C27.1803 1.15058 27.4237 1.10858 27.5252 1.10858C27.4035 1.04035 27.2209 1.12958 27.0586 1.11383Z" fill="white"/>
<path d="M25.0734 3.75317C24.9314 3.80042 25.256 3.78992 25.3371 3.81091C25.1951 3.8739 24.7285 3.80566 25.0937 3.84766C25.2965 3.83716 25.54 3.83191 25.6617 3.80041C25.54 3.79517 25.1951 3.79517 25.0734 3.75317Z" fill="white"/>
<path d="M25.0352 3.71057L25.6032 3.75781C25.6437 3.73157 25.3395 3.74731 25.4003 3.71582L25.4815 3.70532L25.0352 3.71057Z" fill="white"/>
<path d="M26.9805 0.912719L27.2848 0.917969C27.1833 0.907471 27.0819 0.90747 26.9805 0.912719Z" fill="white"/>
<path d="M26.9777 0.911172L26.0039 0.895423C26.1662 1.00565 26.5922 0.926919 26.9777 0.911172Z" fill="white"/>
<path d="M26.8594 1.08594C26.9202 1.08069 26.9608 1.07544 26.9811 1.07019L26.8594 1.08594Z" fill="white"/>
<path d="M27.0404 1.03491L27.2027 1.00867L26.8984 1.00342C26.9593 1.02441 27.0202 1.04541 26.9593 1.06641L27.081 1.04541L27.0404 1.03491Z" fill="white"/>
<path d="M26.6974 1.10925L25.9265 1.03052V1.04626C26.0483 1.06201 26.2105 1.06201 26.2714 1.09351C26.1091 1.13025 26.0888 1.07251 25.9062 1.08826L25.9671 1.104C26.0685 1.11975 26.3323 1.1355 26.3525 1.09875C26.3931 1.104 26.4337 1.1145 26.4134 1.125C26.4743 1.1145 26.6771 1.1355 26.6974 1.10925Z" fill="white"/>
<path d="M25.2559 0.991047C25.053 0.970051 24.9313 1.00679 24.8299 0.959552C24.6676 0.959552 24.5053 0.954304 24.3633 0.964802C24.627 1.01204 24.9719 1.00155 25.2559 0.991047Z" fill="white"/>
<path d="M23.3909 0.82778C23.9589 0.864523 24.6486 0.854025 25.2166 0.82778C24.6486 0.848776 23.9995 0.806783 23.3909 0.82778Z" fill="white"/>
<path d="M24.9314 0.895332C24.8097 0.863838 24.546 0.895331 24.4648 0.90058C24.6271 0.90058 24.8097 0.916329 24.9314 0.895332Z" fill="white"/>
<path d="M24.5278 1.04688L24.5481 1.03638L24.3047 1.03113V1.04688H24.5278Z" fill="white"/>
<path d="M22.3964 3.76414C22.3558 3.74315 22.1124 3.75364 22.0312 3.75889V3.76939C22.153 3.76939 22.3761 3.79039 22.3964 3.76414Z" fill="white"/>
<path d="M22.0311 3.75783C21.9694 3.76302 21.99 3.76302 22.0311 3.75783V3.75783Z" fill="white"/>
<path d="M24.0974 0.890625L23.2656 0.880126L23.3468 0.890625H24.0974Z" fill="white"/>
<path d="M21.7695 3.8125H21.9927L22.013 3.802L21.7695 3.8125Z" fill="white"/>
<path d="M23.6744 1.08594C23.7962 1.08069 23.9382 1.03345 23.7962 1.0072C23.4513 1.02295 23.7759 1.07019 23.6744 1.08594Z" fill="white"/>
<path d="M22.0681 3.59984C21.7841 3.61033 21.9464 3.57359 21.8653 3.55784C21.6827 3.55259 21.6827 3.58934 21.6016 3.60508C21.7639 3.59984 21.9464 3.62083 22.0681 3.59984Z" fill="white"/>
<path d="M21.2004 3.75696C22.2553 3.76746 20.8556 3.67822 21.1193 3.64673C21.3018 3.64148 21.5453 3.61523 21.383 3.58374C21.099 3.57849 20.6324 3.57849 20.3484 3.54175C20.105 3.54175 20.4904 3.58374 20.1658 3.57849C20.1658 3.59424 20.1658 3.60999 20.0644 3.61523C19.8007 3.62573 19.1515 3.62573 19.2935 3.64148C19.8412 3.73071 20.2672 3.54175 20.8758 3.65198L20.7135 3.67822C20.9773 3.66772 21.099 3.70972 21.2816 3.72547L20.5107 3.75171L21.2004 3.75696Z" fill="white"/>
<path d="M23.3721 1.04163L23.3516 1.04688C23.3721 1.04688 23.3721 1.04163 23.3927 1.04163H23.3721Z" fill="white"/>
<path d="M23.1094 1.02332L23.3731 1.03906L23.3934 1.02856L23.1094 1.02332Z" fill="white"/>
<path d="M23.3508 1.04932C23.3096 1.05457 23.2891 1.05981 23.2891 1.07031L23.3508 1.04932Z" fill="white"/>
<path d="M23.2492 0.811558C23.0666 0.806308 22.6812 0.853549 22.6406 0.816805C22.6812 0.869296 23.1478 0.832554 23.2492 0.811558Z" fill="white"/>
<path d="M22.0341 2.13281L22.2167 2.08557C21.9936 2.06457 22.0341 2.12231 22.0341 2.13281Z" fill="white"/>
<path d="M22.4773 1.05461L22.457 1.08085C22.4976 1.0861 22.5179 1.10185 22.599 1.0966C22.8222 1.0756 22.5585 1.0651 22.4773 1.05461Z" fill="white"/>
<path d="M22.4377 1.20044L22.2146 1.21094H22.2755L22.4377 1.20044Z" fill="white"/>
<path d="M21.3601 0.886719H21.5021L21.3804 0.828978C21.4818 0.813231 21.6238 0.802733 21.7455 0.797484C21.6644 0.792235 21.6441 0.771239 21.5426 0.807982C21.5021 0.802733 21.4818 0.786985 21.4006 0.792234C21.3398 0.834227 21.1978 0.855224 21.3601 0.886719Z" fill="white"/>
<path d="M20.5722 0.928878C20.8359 0.886885 20.2882 0.907881 20.2273 0.871137L20.207 0.886886C20.2476 0.913131 20.3896 0.934127 20.5722 0.928878Z" fill="white"/>
<path d="M16.4522 3.47054L16.3711 3.48104C16.432 3.50728 16.5131 3.53353 16.4725 3.56502C16.6957 3.53878 17.0203 3.51778 17.2434 3.54928L17.2231 3.59127C17.2637 3.58602 17.3043 3.57552 17.3854 3.58077L17.4057 3.57027C17.6491 3.51778 17.9129 3.58077 18.1563 3.58077L18.0346 3.64376C18.5417 3.67525 18.278 3.61227 18.4606 3.58077L18.6837 3.59652L18.5012 3.53878C18.5214 3.52828 18.4403 3.62801 18.2374 3.57552L18.3186 3.56502C17.9534 3.52828 17.852 3.49154 17.426 3.53878C17.1217 3.53878 16.4117 3.52828 16.4522 3.47054Z" fill="white"/>
<path d="M17.4273 3.60547L17.8939 3.60022L17.3867 3.57922C17.407 3.58447 17.4679 3.58972 17.4273 3.60547Z" fill="white"/>
<path d="M20.4464 0.781617C20.2638 0.792115 19.8784 0.802614 19.7769 0.755372C19.4726 0.813112 19.2292 0.734375 18.864 0.755372L18.8438 0.781617C19.0669 0.786866 19.5943 0.786866 19.7363 0.807863C19.9798 0.802614 20.3449 0.82361 20.4464 0.781617Z" fill="white"/>
<path d="M18.4418 3.67722C18.3201 3.67722 18.1375 3.66672 18.1172 3.69821C18.2592 3.71396 18.4012 3.68772 18.4418 3.67722Z" fill="white"/>
<path d="M19.5178 1.15625C19.6192 1.14575 19.8221 1.1615 19.7612 1.11951L19.3555 1.151L19.5178 1.15625Z" fill="white"/>
<path d="M17.3242 3.64319L17.5474 3.64844V3.63269L17.3242 3.64319Z" fill="white"/>
<path d="M17.0388 3.70703L17.0591 3.70178L16.8359 3.69128L17.0388 3.70703Z" fill="white"/>
<path d="M17.1639 3.66895L17.0625 3.70044L17.2857 3.71094L17.1639 3.66895Z" fill="white"/>
<path d="M17.668 0.976194L17.8505 1.02344L18.1143 0.986693L17.668 0.976194Z" fill="white"/>
<path d="M17.912 0.937134C17.7497 0.931884 17.6077 0.889891 17.8105 0.868894C17.5671 0.874143 17.3642 0.847899 17.3237 0.805906L17.4048 0.795407C17.628 0.77966 17.8105 0.769163 18.054 0.72717L17.6685 0.721921V0.706174L17.5468 0.769162L17.2831 0.721921C16.9585 0.716671 16.5934 0.674679 16.2891 0.721921L16.4716 0.779661C16.9585 0.816404 17.2222 0.889891 17.4657 0.984375L17.5265 0.95813C17.628 0.937133 17.77 0.937134 17.912 0.937134Z" fill="white"/>
<path d="M13.0445 3.56348L13.1663 3.60547C13.3691 3.60022 13.4503 3.53198 13.7343 3.55823C14.0588 3.61597 14.5863 3.51623 15.0123 3.57922C15.0529 3.57397 15.3775 3.55298 15.3166 3.60022C15.5398 3.54773 16.2701 3.62647 16.0672 3.50574L15.844 3.50049L15.9658 3.52673L15.8846 3.53723C15.8035 3.54248 15.7832 3.52673 15.7426 3.52148C15.6412 3.58447 15.1137 3.54248 14.7486 3.53198C15.0326 3.49524 15.5398 3.52148 15.6412 3.45325C15.2152 3.54248 14.2211 3.46899 13.7951 3.47949L13.6734 3.42175C13.6937 3.49524 13.3894 3.56348 13.2474 3.58972C13.146 3.59497 12.9837 3.54248 13.0445 3.56348Z" fill="white"/>
<path d="M14.2615 3.66406C14.5049 3.61682 15.0729 3.66931 15.1946 3.63782C14.8903 3.63257 14.3426 3.61682 14.0586 3.63257C14.1803 3.63257 14.2006 3.65356 14.2615 3.66406Z" fill="white"/>
<path d="M16.6168 1.177V1.1665L16.3125 1.16125V1.17175L16.3734 1.1875C16.4342 1.17175 16.5154 1.177 16.6168 1.177Z" fill="white"/>
<path d="M3.02252 3.3396C3.04281 3.33435 3.06309 3.3291 3.08338 3.3291C2.83994 3.3396 2.6168 3.35535 2.41393 3.34485L2.3125 3.37109H3.22539L3.02252 3.3396Z" fill="white"/>
<path d="M10.5085 3.58801C10.5896 3.57227 10.7519 3.56177 10.7722 3.54077C10.9953 3.53027 11.1373 3.51452 11.2996 3.55127C11.259 3.55652 11.1982 3.56177 11.1982 3.57751C11.5633 3.59326 12.0502 3.56177 12.2328 3.63525L12.3139 3.62476L12.2531 3.60901H12.9428C12.5574 3.61951 12.882 3.54077 12.5371 3.53552C12.5574 3.55127 12.4762 3.55652 12.4357 3.56177L12.3139 3.53027C12.2734 3.53552 12.2125 3.54077 12.2125 3.55652C12.2937 3.55127 12.3139 3.56702 12.3545 3.57226L12.2734 3.58276C12.1922 3.58276 12.0908 3.58276 12.0502 3.56702C11.9488 3.52502 11.6445 3.46728 12.0502 3.44629C11.6445 3.47253 11.4416 3.31506 11.1576 3.42004C10.7316 3.48303 10.2042 3.37805 9.63614 3.43579L9.57528 3.42004C9.61585 3.3938 9.79843 3.3833 9.92015 3.3728C9.65643 3.3728 9.3927 3.3728 9.14927 3.38855C9.04784 3.3623 8.98698 3.34655 8.78411 3.3833C8.6624 3.36755 8.92612 3.33606 8.6624 3.32556L8.74354 3.31506C8.33782 3.3728 7.79008 3.24157 7.44522 3.33606C7.40464 3.33081 7.34378 3.32031 7.38436 3.30981L7.30321 3.32031C6.91777 3.35705 6.47147 3.29406 6.14689 3.24682C5.96431 3.31506 5.63973 3.21008 5.45716 3.26257C4.74713 3.19958 3.97625 3.23632 3.24594 3.17333C1.96791 3.12609 1.05502 3.13134 0.101563 3.11035L1.05502 3.16809L0.872443 3.20483H0.953588C1.15645 3.22582 0.852157 3.24682 0.831871 3.25732C0.913016 3.25732 1.01445 3.26257 1.07531 3.24682L1.27817 3.28881L1.44046 3.26257C1.56218 3.25732 1.58247 3.28357 1.64332 3.29406C2.10991 3.28881 2.23163 3.3413 2.77936 3.30981L2.7185 3.29406L2.96194 3.25732L3.08365 3.28881L3.10394 3.26257C3.1648 3.24682 3.24594 3.25207 3.34738 3.25207C3.38795 3.26782 3.50967 3.27307 3.46909 3.29406C3.77339 3.29406 3.87482 3.29406 4.13854 3.32031L3.97625 3.34655C3.85453 3.29931 3.65167 3.40429 3.52995 3.32556C3.38795 3.32556 3.26623 3.32556 3.12423 3.33606C3.20537 3.33081 3.28652 3.3413 3.36766 3.33606C3.52995 3.3413 3.67196 3.3833 3.46909 3.40429L3.77339 3.3938C3.91539 3.48828 4.74713 3.3413 5.21372 3.42004L5.13257 3.40429C5.19343 3.37805 5.33544 3.39904 5.43687 3.3938C5.51801 3.3518 5.01086 3.3623 5.33544 3.32556C5.59916 3.33606 5.72088 3.36755 5.72088 3.41479C5.63973 3.42004 5.57887 3.44629 5.47744 3.43579C5.51801 3.44104 5.55859 3.45154 5.5383 3.46203C5.88317 3.3833 6.24832 3.44629 6.61348 3.44104L6.63376 3.41479L6.10632 3.40429C6.04546 3.38855 5.92374 3.3728 5.9846 3.34655C6.63376 3.29406 6.91777 3.42004 7.52636 3.40954L7.50608 3.42004C7.74951 3.44629 7.87123 3.56702 8.07409 3.46728L7.74951 3.3938L7.83066 3.3833C7.9118 3.3833 8.01323 3.3833 8.05381 3.39904L8.15524 3.3623L8.9464 3.43054C8.90583 3.45154 8.70297 3.47778 8.82469 3.49353L8.90583 3.48303L8.96669 3.49878L9.23041 3.46203C9.31156 3.50403 9.45356 3.47253 9.59557 3.46728C9.81872 3.44104 10.5896 3.42529 11.0359 3.46203C10.8127 3.47778 10.549 3.53552 10.3259 3.49353L10.5896 3.53552C10.3259 3.58276 9.81872 3.53027 9.59557 3.56177C9.67671 3.56177 9.77815 3.56177 9.81872 3.57751C9.71729 3.60376 9.63614 3.63 9.53471 3.65625C9.85929 3.65625 10.123 3.55652 10.5085 3.58801ZM11.8271 3.55652L11.5228 3.55127L11.4619 3.53552L11.8271 3.55652ZM1.50132 3.23107L1.86647 3.23632C1.80561 3.29406 1.6839 3.21533 1.54189 3.25732C1.58247 3.24682 1.52161 3.23632 1.50132 3.23107ZM2.15048 3.26782L1.88676 3.21008C2.00848 3.20483 2.21134 3.17858 2.43449 3.19433C2.43449 3.20483 2.45478 3.21008 2.45478 3.22058C2.53592 3.22058 2.63735 3.22582 2.73879 3.23107C2.84022 3.22582 2.92136 3.22582 3.02279 3.23107C2.92136 3.23632 2.84022 3.23107 2.73879 3.23107C2.61707 3.23632 2.51564 3.24157 2.45478 3.22058C2.31277 3.21008 2.21134 3.22058 2.15048 3.26782ZM5.05143 3.3518C4.90942 3.30456 4.58484 3.32556 4.32112 3.31506C4.60513 3.28881 4.92971 3.32031 5.05143 3.3518Z" fill="white"/>
<path d="M12.4186 3.70312L12.4389 3.68738L12.2969 3.66113L12.4186 3.70312Z" fill="white"/>
<path d="M13.8359 0.677151C13.8968 0.698147 14.1199 0.682399 14.2214 0.671901C14.0388 0.666652 13.9374 0.650905 13.8359 0.677151Z" fill="white"/>
<path d="M13.3477 0.734606C13.5099 0.750353 13.6722 0.739854 13.8954 0.718858C13.6317 0.676865 13.6114 0.724108 13.3477 0.734606Z" fill="white"/>
<path d="M13.3859 0.665293L12.8788 0.644297L13.0208 0.670543L12.7773 0.691539L13.0005 0.696788C13.1425 0.702037 13.4468 0.717784 13.3859 0.665293Z" fill="white"/>
<path d="M12.6404 1.10132C12.7012 1.11182 12.7418 1.13281 12.8432 1.13281C12.8432 1.10657 12.7012 1.09082 12.6607 1.06457L12.6404 1.10132Z" fill="white"/>
<path d="M11.9062 1.80078L12.1294 1.79028C12.028 1.77978 11.9468 1.75879 11.9062 1.80078Z" fill="white"/>
<path d="M12.3154 1.77933L12.1328 1.78983C12.1937 1.79508 12.2545 1.79508 12.3154 1.77933Z" fill="white"/>
<path d="M12.0522 1.70801C12.2145 1.69751 12.0522 1.67126 12.0117 1.65552C11.9305 1.69226 12.0522 1.729 12.0928 1.75L12.174 1.7395L12.0522 1.70801Z" fill="white"/>
<path d="M12.047 1.8433C11.7224 1.8538 11.8847 1.76981 11.5601 1.78031V1.79606H11.6412C11.8441 1.8223 11.5195 1.8328 11.5195 1.85905C11.6412 1.8433 12.0267 1.92203 12.047 1.8433Z" fill="white"/>
<path d="M12.4943 0.632569L12.332 0.658815L12.5552 0.664062C12.5958 0.643066 12.5349 0.637818 12.4943 0.632569Z" fill="white"/>
<path d="M10.856 2.78579L10.6328 2.78054C10.6734 2.80154 10.7545 2.79629 10.856 2.79629V2.78579Z" fill="white"/>
<path d="M11.2784 1.84241C11.319 1.77418 11.0756 1.81617 10.8727 1.77943C10.5887 1.77943 10.4873 1.81617 10.3047 1.83717C10.609 1.84242 10.9944 1.86341 11.2784 1.84241Z" fill="white"/>
<path d="M11.7031 0.611188L11.0945 0.579695C11.0742 0.653182 11.4799 0.616437 11.7031 0.611188Z" fill="white"/>
<path d="M11.707 0.611938L11.8287 0.617188C11.8085 0.611938 11.7679 0.611938 11.707 0.611938Z" fill="white"/>
<path d="M11.5065 0.652412L11.1211 0.673408L11.3442 0.678658C11.4254 0.683907 11.5268 0.66816 11.5065 0.652412Z" fill="white"/>
<path d="M9.45703 1.73303C9.55846 1.76452 9.76133 1.74353 9.88304 1.73828C9.86276 1.73303 9.84247 1.72778 9.84247 1.72253C9.72075 1.72778 9.4976 1.71203 9.45703 1.73303Z" fill="white"/>
<path d="M9.98034 1.75C9.96005 1.74475 9.91948 1.74475 9.87891 1.74475C9.91948 1.75 9.96005 1.75 9.98034 1.75Z" fill="white"/>
<path d="M10.2036 1.74854C10.1225 1.74329 10.0413 1.74854 9.98047 1.74854C10.0008 1.75378 10.021 1.75903 10.021 1.76953L10.2036 1.74854Z" fill="white"/>
<path d="M10.5256 1.1875L10.3836 1.16125L10.3633 1.1875H10.5256Z" fill="white"/>
<path d="M8.35622 3.42069L8.33594 3.44694C8.43737 3.45218 8.55909 3.49943 8.61995 3.46268C8.37651 3.47843 8.45766 3.42069 8.35622 3.42069Z" fill="white"/>
<path d="M10.3471 0.566652L10.266 0.577151L10.0631 0.535158C9.94139 0.540407 9.81967 0.540406 9.73853 0.556154C9.86024 0.582399 9.94139 0.613895 10.1645 0.603397C10.2254 0.592899 10.3471 0.587649 10.3471 0.566652Z" fill="white"/>
<path d="M9.49239 1.80355L8.8838 1.79305V1.8088C8.80265 1.76156 8.62008 1.7983 8.4375 1.7878C8.78237 1.8088 9.14752 1.82454 9.4721 1.8193L9.49239 1.80355Z" fill="white"/>
<path d="M9.3125 0.725098V0.740844L9.6168 0.746094V0.730347L9.3125 0.725098Z" fill="white"/>
<path d="M9.57422 0.245971V0.256469L9.79737 0.261719V0.25122L9.57422 0.245971Z" fill="white"/>
<path d="M8.72151 0.48938L8.4375 0.510376L8.70122 0.515625L8.72151 0.48938Z" fill="white"/>
<path d="M8.27567 0.467164C7.99166 0.493409 7.86995 0.461914 7.58594 0.48291L8.3771 0.503906C8.33653 0.493408 8.25539 0.482911 8.27567 0.467164Z" fill="white"/>
<path d="M6.36983 1.46094L6.45097 1.45044C6.36983 1.45569 6.34954 1.43994 6.30897 1.43469C6.45097 1.38745 6.71469 1.42419 6.93784 1.41895C7.18128 1.47669 7.36386 1.43469 7.62758 1.41895C7.66815 1.42419 7.70872 1.43469 7.68844 1.44519L7.99273 1.45044C7.93187 1.43469 7.68844 1.42944 7.81016 1.3927C7.62758 1.3822 7.46529 1.39795 7.40443 1.42419C7.26242 1.4137 7.38414 1.38745 7.36386 1.3717L7.14071 1.36645C7.16099 1.3822 7.07985 1.38745 7.03928 1.3927C6.75527 1.34546 6.39011 1.40845 6.14668 1.37695C6.28868 1.36645 6.24811 1.32971 6.34954 1.31396C5.39608 1.36645 4.66577 1.26147 3.57031 1.27197L4.38177 1.29822C4.19919 1.30346 4.05718 1.32971 3.83403 1.31396C4.28033 1.32971 4.60492 1.33496 5.17293 1.36121V1.37695C5.29465 1.3927 5.53809 1.40845 5.70038 1.3717C5.80181 1.3822 5.76124 1.39795 5.74095 1.4137C6.02496 1.39795 6.18725 1.43469 6.36983 1.46094Z" fill="white"/>
<path d="M8.29888 0.898069L8.07573 0.892822L8.03516 0.945312C8.1163 0.929565 8.27859 0.919066 8.29888 0.898069Z" fill="white"/>
<path d="M6.65234 1.92957L6.71406 1.94531C6.73463 1.93481 6.71406 1.92957 6.65234 1.92957Z" fill="white"/>
<path d="M6.65409 1.93433C6.57294 1.93433 6.43094 1.93957 6.3295 1.92908C6.34979 1.94482 6.30922 1.96057 6.1875 1.96582C6.24836 2.01831 6.6338 1.92908 6.61351 1.99732L7.14096 2.00781L6.55265 1.97107C6.57294 1.95532 6.57294 1.94482 6.65409 1.93433Z" fill="white"/>
<path d="M6.23047 1.89429C6.23047 1.91003 6.27104 1.92053 6.3319 1.92578C6.31161 1.91528 6.27104 1.89954 6.23047 1.89429Z" fill="white"/>
<path d="M7.03727 1.49609L7.05756 1.46985C6.91556 1.50134 6.81412 1.4541 6.69241 1.44885L6.67212 1.4751C6.73298 1.50134 6.91555 1.4856 7.03727 1.49609Z" fill="white"/>
<path d="M7.32387 0.547785L6.95871 0.51629L7.14129 0.479546C6.91814 0.469048 6.77614 0.516291 6.51241 0.495294C5.98497 0.442803 5.51838 0.45855 4.97065 0.406059C4.82865 0.432305 4.62578 0.40081 4.50407 0.427055C4.1592 0.364066 3.32746 0.416557 3.20574 0.327323C3.42889 0.290579 3.55061 0.353569 3.81433 0.337822C3.69261 0.311576 3.22603 0.322074 3.4086 0.280081C3.28689 0.243338 3.14488 0.301078 3.04345 0.259085C2.75944 0.206594 2.75944 0.332573 2.41457 0.29058L2.6783 0.337822L2.374 0.348319C2.17114 0.364066 1.98856 0.358818 2.02913 0.395562H2.17114L2.11028 0.379814L2.19142 0.369316C2.41457 0.458551 3.00288 0.306327 3.22603 0.411309C3.30717 0.406059 3.36803 0.379814 3.46946 0.390313C3.51004 0.395562 3.55061 0.40606 3.53032 0.416558C3.77376 0.421807 4.1592 0.385062 4.26063 0.453301C5.01122 0.432304 5.82268 0.547785 6.43127 0.500544L6.63413 0.542536C6.85728 0.45855 7.06014 0.584529 7.32387 0.547785Z" fill="white"/>
<path d="M4.88758 0.319701L4.78614 0.356445C4.66443 0.356445 4.60357 0.324951 4.52242 0.309204C4.46156 0.319702 4.33984 0.32495 4.33984 0.345947C4.46156 0.340698 4.48185 0.366943 4.54271 0.377441C4.54271 0.361694 4.54271 0.345948 4.64414 0.340699C4.62385 0.377442 4.86729 0.377441 4.98901 0.398438L5.31359 0.377441C4.82672 0.393189 5.19187 0.340698 4.88758 0.319701Z" fill="white"/>
<path d="M6.89844 0.162596V0.178344L7.34474 0.183594V0.167846L6.89844 0.162596Z" fill="white"/>
<path d="M4.6425 3.17578L4.66278 3.14954L4.27734 3.17053L4.6425 3.17578Z" fill="white"/>
<path d="M6.2437 0.4375C6.42627 0.427002 6.26398 0.395507 6.20312 0.385009L6.2437 0.4375Z" fill="white"/>
<path d="M5.6789 0.953125V0.937378L5.07031 0.92688V0.942628L5.6789 0.953125Z" fill="white"/>
<path d="M5.33857 1.42621L4.95312 1.42096V1.4367C5.07484 1.43145 5.31828 1.4472 5.33857 1.42621Z" fill="white"/>
<path d="M4.01674 1.14758C3.99646 1.12658 4.13846 1.12134 4.19932 1.11084L3.67188 1.10034L4.42247 1.22107C4.60505 1.23157 4.84848 1.21057 4.92963 1.25781L5.2745 1.21057C4.80791 1.22632 4.30075 1.21057 4.01674 1.14758Z" fill="white"/>
<path d="M3.61013 2.93213L3.58984 2.94788L4.03614 2.95312L4.05643 2.94263L3.61013 2.93213Z" fill="white"/>
<path d="M3.00391 0.859375C3.00391 0.854126 3.00391 0.843628 3.02677 0.838379C3.00391 0.838379 3.00391 0.848877 3.00391 0.859375Z" fill="white"/>
<path d="M3.16666 1.05566L3.36952 1.09766L3.38981 1.05566C3.57239 1.02417 3.73468 1.08716 3.91726 1.05041L3.63325 1.03467L3.79554 1.00842H3.65353C3.47096 0.992674 3.08552 0.976928 3.24781 0.919188C3.02466 0.924437 2.98408 0.882443 2.98408 0.856198C2.9638 0.861447 2.94351 0.866695 2.90294 0.871944C2.88265 0.913937 3.38981 0.940183 3.06523 0.982176C3.24781 0.982176 3.36952 1.00317 3.49124 1.01367L3.16666 1.05566Z" fill="white"/>
<path d="M1.64453 3.35413L1.86768 3.35938C1.90825 3.35413 1.96911 3.34888 1.96911 3.33313C1.84739 3.35413 1.76625 3.32263 1.64453 3.35413Z" fill="white"/>
<path d="M2.90234 1.33069L3.12549 1.33594L3.20664 1.32544L2.90234 1.33069Z" fill="white"/>
<path d="M2.51562 1.98682L2.73877 2.00781L2.51562 1.97632V1.98682Z" fill="white"/>
<path d="M3.71484 0.0465085V0.0622552C3.7757 0.0727533 3.81628 0.09375 3.91771 0.09375L3.93799 0.0517579L3.71484 0.0465085Z" fill="white"/>
<path d="M3.0239 1.03894L3.04419 1.0127C2.76018 1.03369 2.41531 1.00745 2.17188 1.05469C2.55732 1.05469 2.69932 1.01794 3.0239 1.03894Z" fill="white"/>
<path d="M3.00653 1.07906L2.64138 1.05807L2.62109 1.08431C2.70224 1.10006 2.96596 1.11581 3.00653 1.07906Z" fill="white"/>
<path d="M1.4375 2.32275V2.33325L1.8838 2.34375L1.90409 2.328L1.4375 2.32275Z" fill="white"/>
<path d="M3.33088 0.0694904C3.22945 0.0642413 3.14831 0.0432447 3.04688 0.0379956C3.12802 0.0537428 3.18888 0.0747395 3.33088 0.0694904Z" fill="white"/>
<path d="M2.85938 0.0585938L3.02167 0.0323483C2.98109 0.0323483 2.92023 0.0323489 2.85938 0.0428471V0.0585938Z" fill="white"/>
<path d="M0.486872 3.27061L0.263722 3.25487L0.243436 3.28111C0.182577 3.29686 0.101432 3.29161 0 3.29161C0.162291 3.3336 0.365154 3.26011 0.486872 3.27061Z" fill="white"/>
<path d="M1.66482 1.03503L1.64453 1.04553L1.94883 1.05078L1.96911 1.04028L1.66482 1.03503Z" fill="white"/>
</svg>
