<svg width="162" height="4" viewBox="0 0 162 4" fill="none" xmlns="http://www.w3.org/2000/svg">
<path d="M82.9867 3.67907C82.8016 3.66858 82.2462 3.66858 81.9222 3.68432C81.8296 3.70532 82.1073 3.71057 82.1999 3.72632C82.1073 3.73157 82.0147 3.74206 81.8296 3.73681C81.4593 3.71582 81.3668 3.65808 81.413 3.66858C81.0428 3.67383 80.3022 3.66333 79.8857 3.64233L80.0708 3.63183L79.3766 3.62658C79.1914 3.71057 78.0806 3.61609 77.7103 3.69482L77.2475 3.65283L77.0624 3.66333C77.0161 3.70007 77.5715 3.70007 77.8492 3.72107C77.1087 3.77881 76.2293 3.70532 75.5813 3.72107C75.535 3.65808 76.4144 3.70007 76.7384 3.66333L75.7201 3.65808C74.7945 3.75256 74.6556 3.57409 74.3779 3.62133L74.5168 3.63708L74.1465 3.66333C72.9894 3.69482 71.6472 3.68957 70.8603 3.65283L71.2306 3.62658C70.8603 3.62658 70.4901 3.62133 70.1661 3.63183L70.6289 3.67383L69.3793 3.70532C69.981 3.68432 70.5364 3.70532 70.9066 3.73156C70.9529 3.74731 70.7678 3.75256 70.6752 3.75781C70.5364 3.73156 70.1198 3.74731 69.8421 3.73681L70.3049 3.77881C69.8884 3.78931 69.4718 3.78406 69.1016 3.76831L69.4256 3.79455C70.8604 3.8418 72.2026 3.74731 73.1283 3.75256C73.7299 3.76831 74.5168 3.78406 74.7482 3.8313L74.563 3.8418L76.2755 3.85229V3.86804L77.2938 3.87329L76.831 3.8418C78.0806 3.76306 79.0063 3.87854 80.3022 3.85229C81.8759 3.7998 83.2181 3.85754 84.8843 3.81555C85.0232 3.8418 85.0232 3.88904 85.6712 3.87329L85.2083 3.8418C85.7174 3.84704 86.2266 3.79455 86.6431 3.82605L86.2728 3.85229C86.1803 3.86279 86.3191 3.87329 86.4117 3.87854C86.9208 3.85754 87.8928 3.74731 88.3556 3.85229L87.9853 3.87854L88.1242 3.89429C88.3093 3.87329 88.6333 3.87329 88.8647 3.85754C89.5127 3.8418 91.1326 3.84704 90.6698 3.92578C91.4103 3.86804 91.5955 3.88904 92.2897 3.88379L90.9938 3.83655C91.9195 3.76306 92.2435 3.89429 93.0303 3.86279L92.7989 3.88904C93.9097 3.85229 95.5296 3.8418 96.3627 3.8208C96.9644 3.88379 97.7512 3.76306 98.0752 3.84704C99.834 3.73156 100.806 3.87854 102.704 3.86804V3.88379C103.028 3.8313 103.861 3.87854 104.231 3.91003C104.324 3.88904 104.046 3.88379 103.953 3.86804L104.138 3.85754C104.648 3.85229 105.481 3.87854 105.11 3.90479C105.897 3.86279 105.943 3.87854 107.193 3.89429C107.286 3.87854 107.101 3.84704 107.471 3.8418C107.517 3.91528 108.489 3.88379 109.137 3.87854L108.674 3.83655C108.813 3.8208 108.998 3.82605 109.23 3.82605C109.878 3.91528 112.007 3.85229 113.164 3.86804C113.071 3.85229 112.701 3.82605 113.071 3.81555C114.46 3.8208 114.83 3.8103 116.172 3.82605C116.913 3.87329 117.607 3.83655 118.533 3.85754C118.764 3.84705 118.857 3.80505 119.273 3.8208C119.505 3.8313 119.412 3.84704 119.366 3.86279L119.921 3.82605C120.06 3.80505 120.384 3.8208 120.615 3.81555C120.801 3.8103 120.986 3.8313 120.893 3.84704C121.31 3.81555 121.865 3.8418 122.467 3.8313L122.513 3.80505C123.485 3.8208 125.151 3.80505 126.493 3.80505C127.697 3.75256 128.808 3.8313 129.826 3.77356L129.872 3.74731C130.798 3.76306 131.122 3.71057 131.955 3.73681L131.585 3.76306C132.371 3.76831 133.39 3.71582 133.991 3.77881C133.76 3.72107 134.871 3.76306 135.287 3.73156C135.38 3.71582 134.639 3.74206 134.825 3.70007C135.241 3.65808 136.12 3.67907 136.583 3.70007L136.398 3.71057L140.008 3.72107C139.314 3.68957 138.157 3.71057 137.463 3.67907C138.435 3.67907 139.592 3.65808 140.425 3.67383L140.795 3.64758C141.212 3.65283 141.721 3.64233 141.952 3.66858L141.582 3.69482C142.045 3.70007 142.646 3.70532 142.832 3.67907C142.646 3.68432 142.6 3.66858 142.508 3.66333L143.063 3.62658C143.618 3.62658 143.294 3.68432 143.85 3.68432C144.544 3.62658 143.248 3.67907 143.433 3.62658C147.691 3.66858 152.783 3.61609 156.948 3.64233C157.781 3.5321 159.447 3.61084 160.234 3.5321C159.864 3.5531 159.216 3.56359 158.846 3.53735C159.771 3.50061 159.309 3.46911 160.095 3.42712C159.494 3.41137 159.077 3.45336 158.753 3.39037C157.689 3.46911 157.087 3.37463 156.161 3.38513L157.272 3.32739C156.67 3.33263 155.976 3.37463 155.513 3.35363L155.56 3.32739C154.958 3.25915 154.449 3.21715 153.384 3.28539C153.245 3.26964 152.968 3.2539 153.107 3.22765C151.764 3.15417 151.209 3.33788 149.774 3.2434C148.478 3.19616 147.09 3.28539 145.794 3.2434V3.2539C147.136 3.30114 148.525 3.2434 149.45 3.34838L149.08 3.37463C146.071 3.2644 143.896 3.49011 140.888 3.50585C139.221 3.49011 137.231 3.54785 135.519 3.5111C135.889 3.50061 135.519 3.44286 136.12 3.44811C136.259 3.56884 136.722 3.39562 137.694 3.43237C138.388 3.45336 139.777 3.47436 139.638 3.41662C139.869 3.44286 140.379 3.42187 140.517 3.41137C140.008 3.37463 139.36 3.41137 138.805 3.41137C137.046 3.35363 135.102 3.47436 133.575 3.41662C132.186 3.46911 130.52 3.43762 129.132 3.49536C128.761 3.49011 128.484 3.43762 128.113 3.49011C127.095 3.44811 125.938 3.48486 125.336 3.49536L124.735 3.45336C123.392 3.45336 122.05 3.50585 120.847 3.49536L120.893 3.47961L120.014 3.47436L119.967 3.5006C119.366 3.49011 118.116 3.52685 118.533 3.42187C118.486 3.46911 117.746 3.48486 117.838 3.52685C117.653 3.48486 117.329 3.51635 116.959 3.5216C115.894 3.5531 113.58 3.5426 112.655 3.50585L112.608 3.5216C112.192 3.5321 111.544 3.58459 111.405 3.52685C110.85 3.59509 112.238 3.56359 112.145 3.61084C111.96 3.61608 111.821 3.64233 111.59 3.63183C110.248 3.61608 108.165 3.68432 106.962 3.60034C108.211 3.56884 110.063 3.59509 110.988 3.56359L110.34 3.5321C109.091 3.56359 107.378 3.59509 106.314 3.56884C105.897 3.54785 105.064 3.5426 104.277 3.5531C104 3.49011 102.842 3.5531 102.38 3.5426C101.963 3.55835 102.241 3.63183 102.426 3.61084L102.796 3.58459C103.49 3.66333 104.324 3.56884 105.203 3.58984C105.851 3.61084 105.249 3.60559 105.619 3.64758L102.796 3.66858C101.917 3.66858 101.5 3.66333 100.852 3.68432C100.575 3.68432 100.528 3.66333 100.389 3.65283C100.575 3.63183 100.621 3.60559 100.991 3.58984C100.204 3.53735 99.7877 3.60559 98.9546 3.57409L99.0934 3.58984L98.538 3.62658C98.0289 3.66333 96.0387 3.63183 96.5941 3.64233L96.5016 3.69482C95.0668 3.71057 93.7245 3.67907 92.5212 3.69482C90.8087 3.68432 89.6053 3.72632 88.0779 3.66333C88.2168 3.65283 88.4945 3.64758 88.4945 3.62658L90.7624 3.61609C91.1789 3.67907 92.1046 3.63183 92.4749 3.61609C91.9195 3.56884 91.1789 3.63708 90.6235 3.58984C89.9293 3.63708 89.1424 3.58984 88.587 3.56359L88.1705 3.61609C87.8928 3.5426 86.4117 3.56359 86.134 3.57409C86.5968 3.61084 87.4762 3.54785 87.8002 3.61084L86.3654 3.64233C86.5043 3.70532 87.2448 3.62133 87.1522 3.68957C86.2266 3.67382 85.7174 3.71582 84.7455 3.67383L84.9306 3.66333L83.4033 3.63708C83.357 3.62133 83.4958 3.61608 83.6347 3.61084L82.385 3.62658C82.6627 3.63183 83.0793 3.62133 83.2181 3.64758C82.9867 3.66858 82.6164 3.65283 82.3387 3.65283L83.3107 3.68432L82.9867 3.67907ZM77.2938 3.77356V3.7893L76.0904 3.77881L76.1367 3.76831L77.2938 3.77356ZM88.9573 3.8418V3.85754L88.263 3.85229L88.3093 3.83655L88.9573 3.8418ZM74.7482 3.72632L74.7945 3.70007L75.3036 3.70532C75.3499 3.72107 75.1647 3.72632 75.0722 3.73156L74.7482 3.72632ZM78.2195 3.72632V3.71057L79.0989 3.71582C78.9137 3.74206 78.5435 3.72107 78.2195 3.72632ZM90.2533 3.79455C90.1144 3.79455 89.9293 3.7893 89.7441 3.7893C89.0499 3.7893 88.3093 3.8313 87.5225 3.7893C88.1705 3.76831 89.0962 3.77881 89.7441 3.7893C89.9293 3.7893 90.0681 3.7893 90.2533 3.79455ZM134.315 3.46911C134.871 3.49536 134.963 3.43237 135.38 3.44811C135.334 3.47436 134.963 3.47961 134.778 3.49536C134.501 3.50585 134.454 3.47961 134.315 3.46911ZM113.858 3.55835L113.719 3.5426L114.737 3.54785C113.951 3.57409 114.089 3.58984 113.303 3.58984C113.488 3.57409 113.904 3.58984 113.858 3.55835ZM128.669 3.74206L129.733 3.72107C129.733 3.76831 129.085 3.73157 128.808 3.75256L128.669 3.74206ZM99.3712 3.72632L99.9266 3.71582C99.834 3.72107 99.6951 3.72632 99.6951 3.74206C99.5563 3.74206 99.4637 3.73157 99.3712 3.72632ZM94.3262 3.74206C94.5114 3.76306 94.8353 3.78406 94.9742 3.75781C94.9279 3.78406 94.3725 3.76306 94.0948 3.76306C94.1874 3.76306 94.3262 3.75781 94.3262 3.74206C94.0485 3.71057 94.1411 3.72632 94.3262 3.74206Z" fill="white"/>
<path d="M80.0678 3.88281H80.3918C80.4843 3.87231 80.3455 3.86182 80.2529 3.85657C80.1604 3.86707 80.0215 3.87231 80.0678 3.88281Z" fill="white"/>
<path d="M14.668 1.26819C14.8994 1.26819 15.0382 1.27344 15.2234 1.27344C14.992 1.26819 14.8068 1.26294 14.668 1.26819Z" fill="white"/>
<path d="M56.5611 1.3606C56.4222 1.36585 56.2834 1.36584 56.1445 1.37109C56.2834 1.37109 56.4222 1.37109 56.5611 1.3606Z" fill="white"/>
<path d="M18.4648 2.66138C18.5111 2.66663 18.6037 2.67188 18.6963 2.67188L18.4648 2.66138Z" fill="white"/>
<path d="M23.7411 2.78125V2.7655L23.0469 2.76025V2.776C23.3246 2.78125 23.6023 2.78125 23.7411 2.78125Z" fill="white"/>
<path d="M54.7656 1.36136C55.321 1.37711 55.6913 1.37711 56.1541 1.37186C55.6913 1.36661 55.1359 1.32987 54.7656 1.36136Z" fill="white"/>
<path d="M6.62109 2.52832L6.8988 2.57031C6.94508 2.55457 6.8988 2.53882 7.13022 2.53357C6.8988 2.52832 6.62109 2.53882 6.62109 2.52832Z" fill="white"/>
<path d="M27.9108 2.86669C28.4199 2.86144 28.2348 2.79846 28.8365 2.81945C28.9291 2.8247 29.0216 2.8352 28.9754 2.8457L29.7159 2.80896L29.9936 2.84045C30.1787 2.8457 30.2713 2.8352 30.3639 2.82995C31.1044 2.8247 31.8449 2.80895 32.2152 2.8562V2.84045C32.0301 2.8457 31.9838 2.82995 31.8912 2.8247L32.2615 2.79846C32.4466 2.79321 32.4929 2.80895 32.5855 2.8142C32.9558 2.8457 33.4186 2.80371 33.8351 2.79846C34.2517 2.8247 33.65 2.84045 33.5574 2.86145L34.7608 2.87194C33.974 2.8457 35.0385 2.78271 34.7608 2.75121C35.2699 2.75121 34.8534 2.79321 35.1774 2.80896C36.0105 2.76696 35.9642 2.79846 36.7973 2.76696C37.0287 2.79846 38.047 2.76696 37.723 2.8247C38.2784 2.8247 38.7412 2.84045 39.0189 2.87194L37.6304 2.87719C38.371 2.89819 39.3892 2.93493 40.5463 2.89819C40.6389 2.91394 40.824 2.91394 41.0554 2.91394L40.5926 2.88244C40.824 2.86145 41.148 2.8562 41.472 2.86145C41.9811 2.97168 43.601 2.90869 43.9713 2.92968L43.8324 2.91394L44.0176 2.90344C44.5267 2.96643 45.1284 2.90869 45.6838 2.90344C45.3598 2.90344 45.0821 2.89819 44.9432 2.87194C45.3598 2.8352 45.8226 2.87719 46.0078 2.86669C46.5169 2.85095 46.9797 2.89819 47.4889 2.90344C47.3963 2.90869 47.3037 2.91919 47.1186 2.91394L48.8311 2.94018L48.7848 2.95593C49.2014 2.99792 49.2476 2.95068 49.6642 2.93493C49.9419 2.94018 50.3585 2.92968 50.4973 2.95593C50.4047 2.96118 50.2659 2.96643 50.2659 2.98217C50.4973 2.97693 50.8213 2.99792 50.9601 2.97168C51.747 2.96118 52.2561 2.95068 52.8115 2.99792L52.4412 3.02417C53.7835 3.04516 54.1074 2.90344 55.172 2.93493C55.5885 2.90344 55.9588 2.85095 55.8662 2.81945C56.4679 2.8247 56.6068 2.81945 57.0233 2.84045C56.5605 2.8562 56.9307 2.87719 56.6068 2.89294C57.3473 2.93493 58.3193 3.05566 59.5226 2.99792C59.3375 2.99267 58.597 2.97168 58.2267 2.96118C58.9672 2.94018 60.2632 2.91919 60.9574 2.88769L60.1243 2.86669C60.078 2.8457 60.402 2.84045 60.5409 2.82995C61.6054 2.85095 63.2716 2.8142 63.7345 2.89294L63.5493 2.90344C63.2716 2.87719 62.1145 2.87194 62.346 2.90869C62.4848 2.92968 63.0402 2.92968 62.7625 2.96643C63.8733 2.95068 64.7064 2.97168 65.6784 2.97168V2.98742L67.3909 2.99792L65.7709 3.02942C67.2057 3.00842 68.1314 3.09241 68.9645 2.98742C69.4274 2.99267 70.0291 2.98217 70.3068 3.00842L69.0571 3.02942C69.4736 3.06616 70.0753 3.03991 70.5845 3.03467C70.4919 3.02417 70.2605 3.01367 70.353 2.99792H71.9267C73.1301 2.94018 75.3054 3.1029 75.3054 2.94018C75.6294 2.93493 75.7682 2.95593 75.9534 2.97168C75.8145 3.00842 76.0459 3.05041 75.3054 3.05041C76.6476 3.06616 78.5916 3.06616 79.9338 3.08191L80.4892 3.06091C80.9983 3.11865 82.3405 3.07666 82.6182 3.1449L82.248 3.17114C82.572 3.18164 82.9422 3.21838 83.2199 3.20264C83.1736 3.16589 83.9605 3.18689 83.4976 3.15015C83.9142 3.09241 84.4233 3.15539 84.8861 3.16064C84.6084 3.17639 84.6547 3.22888 84.1456 3.20788C84.5622 3.24463 85.2101 3.19739 85.6267 3.26038C86.0895 3.20788 84.9324 3.1344 85.2101 3.09766C86.1821 3.09241 87.1541 3.02417 88.1723 3.07666C89.6071 3.03466 91.1807 3.1344 92.9395 3.1344L93.5412 3.08716C94.2817 3.08191 94.7909 3.1134 95.3926 3.12915C95.1611 3.16589 94.0966 3.16064 93.9578 3.16064C93.6801 3.18164 93.9115 3.21838 93.4486 3.21313C94.004 3.22888 94.6057 3.26038 95.0686 3.23413C95.7628 3.24463 97.5216 3.23938 97.7993 3.26563L97.7067 3.22363L97.5216 3.23413C97.3365 3.23413 97.1051 3.23413 97.0125 3.21838C97.1051 3.21313 97.1976 3.20264 97.3828 3.20788L97.2439 3.19214C97.1976 3.17114 97.5216 3.16589 97.6605 3.15539C98.4473 3.17114 99.373 3.1344 99.7432 3.19214L100.252 3.16064C101.363 3.19739 103.492 3.06091 103.307 3.20788C104.279 3.16064 104.464 3.24463 105.529 3.22363L105.436 3.18164C104.834 3.17114 104.834 3.19214 104.372 3.20264C104.233 3.18164 103.909 3.17114 103.955 3.1449C105.853 3.10815 107.797 3.10815 109.879 3.1344C109.833 3.15015 109.879 3.16589 109.648 3.17114C110.851 3.18689 111.823 3.23413 112.934 3.16589C112.61 3.17114 112.471 3.15015 112.286 3.1344C113.166 3.1134 113.536 3.13965 114.323 3.16064C114.323 3.13965 114.6 3.1344 114.739 3.1239C114.832 3.1449 115.017 3.13965 115.248 3.13965C115.48 3.06091 116.267 3.1449 116.498 3.1239C117.007 3.1344 117.609 3.05566 117.886 3.11865C118.257 3.09241 118.72 3.12915 118.627 3.08191C119.969 3.1344 120.756 3.08191 122.422 3.09241C122.931 3.06091 123.765 3.1134 124.181 3.06616C124.412 3.12915 125.246 3.07141 125.57 3.07666C126.264 3.07141 126.912 3.04516 127.467 3.09241L127.514 3.05041H127.699C127.837 3.02417 128.671 2.96643 129.18 3.00842L128.578 3.07141C128.948 3.06616 129.92 3.1029 130.337 3.05566C130.476 3.00317 129.643 3.04516 129.55 2.99792C131.679 2.96643 134.04 2.93493 136.539 2.96643L135.613 3.00317L135.752 3.01892L136.122 2.99267C136.724 3.00317 137.279 2.96643 137.65 3.01892L136.909 3.03991C138.622 3.04516 140.751 3.05041 141.584 2.94018C142.278 2.95593 143.528 2.92443 143.574 3.00842C142.417 3.00842 142.509 3.09766 142.463 3.15015C142.926 3.18164 144.407 3.16589 143.898 3.23938L145.148 3.22363L144.685 3.18164C144.222 3.1449 145.101 3.12915 145.333 3.1029L144.87 3.06091C145.796 2.97693 145.888 3.12915 146.814 3.04516C147.323 3.03992 147.601 3.06616 147.971 3.08191C147.878 3.09765 148.064 3.12915 147.693 3.1344L148.387 3.13965C148.48 3.10815 148.341 3.06616 148.711 3.05041C148.897 3.05041 149.128 3.05041 149.221 3.06616C149.082 3.07666 148.804 3.08191 148.804 3.1029C149.174 3.09765 149.545 3.08716 149.915 3.05566C149.73 3.05566 149.498 3.05566 149.406 3.03991C149.498 3.03467 149.591 3.02417 149.776 3.02942C150.193 2.97168 149.359 2.88244 150.239 2.82995C149.498 2.80371 150.609 2.69872 149.637 2.67773C150.933 2.59374 152.09 2.65148 153.571 2.60949C154.59 2.61999 156.533 2.55175 156.209 2.69347C157.274 2.5465 159.773 2.63049 160.93 2.5675C160.282 2.5675 160.792 2.51501 160.699 2.48351C160.329 2.42577 159.634 2.41527 159.125 2.37853C158.57 2.28405 160.606 2.21581 158.801 2.16332C159.542 2.04784 157.459 1.97435 157.552 1.85887C156.811 1.86937 157.135 1.76964 156.441 1.81163C156.302 1.72764 154.96 1.80638 154.867 1.72239C152.738 1.72239 150.239 1.82213 148.017 1.76963L148.156 1.78538L146.768 1.79063C146.629 1.80638 146.444 1.80113 146.212 1.80113C145.564 1.76439 145.472 1.79063 144.962 1.81688L144.824 1.80113C144.777 1.78538 144.962 1.78013 145.055 1.77488C144.453 1.75914 143.991 1.78538 143.481 1.79063C143.667 1.79063 143.898 1.79063 143.991 1.80638L143.805 1.81688C143.481 1.81163 142.972 1.82213 142.787 1.79588L142.972 1.78538L142.371 1.71189C143.805 1.68565 145.61 1.7014 146.906 1.6909C150.193 1.64891 153.895 1.7119 157.043 1.62791C158.061 1.54917 157.089 1.42319 157.829 1.34971L156.857 1.30247L158.153 1.25522L156.626 1.23423L156.256 1.26047C154.173 1.1345 151.165 1.10825 148.758 1.06101C146.444 1.0925 144.5 1.04526 142.278 1.09775C138.344 1.01902 133.16 1.1135 128.995 1.15549C127.93 1.15024 126.171 1.18174 125.292 1.19748C124.922 1.10825 123.996 1.25522 123.394 1.19748C121.45 1.25522 119.553 1.18699 117.886 1.28147C117.701 1.27097 117.748 1.25522 117.794 1.23948C116.405 1.23423 115.665 1.27622 114.323 1.22898C113.767 1.27097 113.166 1.23423 112.61 1.22898C112.147 1.24998 111.314 1.28672 111.036 1.24473C109.555 1.25522 108.583 1.23948 107.287 1.29722C107.056 1.27097 106.732 1.25522 106.316 1.24998C104.325 1.33396 102.15 1.19223 100.299 1.31821C100.114 1.26572 99.1878 1.30247 98.8176 1.26572C97.3828 1.30247 96.1331 1.26572 94.9297 1.31821C93.1709 1.18699 91.1807 1.35496 89.2831 1.27622C88.5426 1.30247 87.5243 1.24997 86.8301 1.29722C86.6912 1.28672 86.5986 1.26572 86.3672 1.26572C85.997 1.27622 85.4878 1.28672 85.5804 1.31297C85.3953 1.27622 84.8861 1.25522 84.2382 1.27622C83.2662 1.22898 81.4611 1.27097 80.2115 1.30247L80.0726 1.28672L80.4429 1.26047C80.0263 1.23948 79.9338 1.28147 79.7024 1.29722C78.823 1.22898 77.4345 1.29197 76.5088 1.24998C75.7682 1.33396 75.4443 1.26047 74.6111 1.23948L74.5649 1.26572C74.4723 1.27097 74.3797 1.28147 74.1946 1.27622L75.3517 1.29722C74.8888 1.30247 74.4723 1.32871 73.9169 1.31297C73.6392 1.29722 73.4541 1.26047 73.6855 1.24473C72.6209 1.29197 71.6027 1.23423 70.7233 1.26572L70.7696 1.24998C69.8439 1.23948 68.7794 1.23423 68.2703 1.28672C66.8818 1.24473 65.2618 1.23423 63.503 1.23948C62.9014 1.26572 62.022 1.28672 61.4203 1.24998C60.4483 1.20273 58.9672 1.19224 57.301 1.22373L58.273 1.27097C58.3655 1.29722 58.0416 1.30771 57.8564 1.32346C57.4399 1.30247 56.8382 1.30247 56.5605 1.26047C56.653 1.24473 57.2547 1.21848 56.8382 1.20798C55.7737 1.20273 54.7554 1.22373 53.8297 1.23948C54.1074 1.25522 54.0612 1.27622 54.2463 1.29722C53.8297 1.27622 53.0429 1.3812 53.228 1.29197C52.8115 1.26047 52.2561 1.31296 51.8858 1.32346C53.0429 1.33396 53.4132 1.36546 54.5703 1.31297C55.3108 1.32871 56.3291 1.27097 56.7456 1.35496C56.6993 1.36546 56.653 1.37595 56.5605 1.3812C56.653 1.37595 56.7456 1.37595 56.8845 1.3707C57.0233 1.43369 57.5787 1.4127 57.949 1.45994C56.0051 1.49143 54.4314 1.40745 52.7189 1.3812L52.9966 1.4127C53.0429 1.42844 52.9041 1.43369 52.8115 1.43894C51.8858 1.48094 51.1453 1.3917 50.127 1.3917L50.0807 1.41795C49.9419 1.43894 49.6179 1.42319 49.3865 1.42844C49.1551 1.37595 47.8591 1.4022 47.35 1.38645C47.7203 1.31296 48.7385 1.34446 49.2476 1.27622C50.0807 1.26572 50.5899 1.32346 51.3304 1.27622L51.1916 1.26047L51.0064 1.27097C50.3122 1.26572 49.5716 1.20798 49.4328 1.16599C48.8774 1.17124 49.7105 1.23423 48.8311 1.21323C48.7385 1.20798 48.5997 1.19748 48.6922 1.18699L48.5071 1.19748C47.8591 1.26572 47.4426 1.16599 47.2112 1.15024C46.9797 1.18174 46.702 1.12925 46.6558 1.17124L47.2112 1.16074L47.4426 1.22898C46.1929 1.30772 44.3878 1.21848 43.4622 1.21323L43.8324 1.18699C43.925 1.17649 43.7862 1.16599 43.6936 1.16074L43.5085 1.17124C43.1382 1.09775 41.7034 1.11875 41.148 1.12925L42.5828 1.20798L41.796 1.27097L41.5183 1.23948C41.0554 1.24473 41.0091 1.26047 40.7314 1.28672C40.176 1.28672 39.7132 1.27097 39.4355 1.23948L40.5463 1.20798C40.0835 1.20798 39.3892 1.18699 39.1578 1.21323L39.2041 1.30772C39.4818 1.31821 39.7132 1.29722 39.9446 1.28672C40.1297 1.30247 40.1297 1.32346 40.2223 1.34446C39.0189 1.3812 38.0007 1.36021 36.751 1.33396C36.5196 1.30247 37.3527 1.28672 37.0287 1.28147C37.075 1.29722 36.8899 1.30247 36.7973 1.30772L36.6585 1.29197L36.6122 1.33396L34.5294 1.31821C35.0385 1.31296 35.0848 1.27097 35.3625 1.24473C34.298 1.32346 32.7706 1.30247 31.6135 1.31297C31.8912 1.31297 31.9375 1.33396 32.0764 1.34446L31.8912 1.35496C30.0862 1.22373 28.9291 1.32871 26.8 1.28147L26.1983 1.23948C25.6429 1.18174 25.5041 1.27097 25.0875 1.27097C25.2727 1.27097 25.5041 1.27097 25.5966 1.28672C25.4578 1.30772 25.1338 1.29197 24.9024 1.29722C24.8098 1.28147 24.5321 1.27622 24.6247 1.25522L23.2824 1.23423C22.8196 1.23948 22.3568 1.28672 22.4493 1.30772C21.6162 1.31296 21.0608 1.28147 20.4129 1.28147C20.3666 1.26572 20.5517 1.26047 20.6443 1.25522L18.9318 1.22898L19.302 1.20273C19.1632 1.15024 18.6541 1.21848 18.7004 1.16074C20.4591 1.15549 21.7551 1.04001 23.3287 1.09775C23.5602 1.05576 22.3568 1.06626 23.0973 1.02951L22.7733 1.02427L22.727 1.06626C20.6443 1.10825 20.5054 1.10825 18.1912 1.08725C18.2838 1.07151 18.2375 1.01377 17.5895 1.02951C17.2656 1.04526 17.3581 1.07676 17.1267 1.0925C17.7284 1.10825 18.6078 1.082 18.9781 1.13449L18.7929 1.14499C17.5895 1.16599 16.2473 1.1135 15.6456 1.16599C15.4605 1.09775 14.9051 1.18174 14.4885 1.14499C14.5811 1.13974 14.72 1.1345 14.72 1.11875C14.1183 1.16074 13.2389 1.14499 13.0075 1.21323C12.7297 1.19223 12.5446 1.22373 12.3595 1.19748L12.9612 1.16074C12.776 1.15549 12.6835 1.16599 12.5909 1.17124L12.1281 1.12925C11.2024 1.09775 11.1098 1.17124 11.0173 1.17649C11.4338 1.17649 12.0355 1.10825 12.2206 1.17124L11.6652 1.19223C12.2206 1.21848 12.8223 1.21323 13.1463 1.24473C13.0537 1.30247 12.7297 1.22373 12.5909 1.26572C13.0075 1.27097 13.5166 1.26047 13.7943 1.28672L13.6554 1.27097L14.072 1.22373C14.6737 1.21323 15.7382 1.20273 16.1085 1.24998C15.9233 1.26572 15.7382 1.27097 15.5531 1.27097C15.8308 1.27622 16.0622 1.27622 16.3862 1.28672V1.30247L17.1267 1.28147C18.0524 1.31296 19.5335 1.29197 19.9037 1.3812C19.3946 1.41795 18.9781 1.40745 18.3301 1.39695L19.1169 1.45469L19.4872 1.42844C19.9963 1.45469 21.0608 1.45469 21.6162 1.49668C20.7831 1.52293 18.9318 1.45994 18.5152 1.47569C18.8392 1.54917 19.6723 1.45994 20.1814 1.51243V1.52818H20.3666V1.51243C20.4591 1.51768 20.5517 1.52818 20.5054 1.53868C21.1997 1.50718 21.7551 1.55442 22.3568 1.56492C23.4213 1.61216 24.347 1.55442 25.2264 1.61216C25.3189 1.59641 25.1801 1.56492 25.5041 1.55967C25.7355 1.64891 26.7074 1.55967 26.9389 1.62266C27.3554 1.62266 28.0497 1.57017 28.3737 1.59117L28.096 1.55967C28.6514 1.53867 29.577 1.55967 29.9936 1.55967C29.7159 1.59117 30.2713 1.60166 30.4102 1.61741L29.7159 1.62791C30.3176 1.63841 31.2433 1.68565 32.0764 1.6594C31.4747 1.61741 30.5953 1.6699 30.6416 1.58067C31.1044 1.60166 32.0301 1.49668 31.8449 1.59117C32.7243 1.54392 32.8632 1.65416 33.3723 1.60166C33.5112 1.62266 34.0666 1.62266 33.7889 1.6594C33.5112 1.6804 33.0946 1.66465 32.7243 1.66465L32.6781 1.70665C31.4747 1.74339 29.6233 1.7119 28.7902 1.74864C30.7804 1.76439 33.2335 1.73814 34.9922 1.6699C35.8716 1.72764 36.7973 1.6909 37.8618 1.73289L37.6767 1.74339L39.2041 1.75389C39.8058 1.75914 39.6206 1.82213 39.5743 1.83787L38.371 1.82738C37.4453 1.85887 36.3345 1.79588 35.1311 1.80638C34.7145 1.80113 34.4368 1.87462 34.0666 1.82738C33.2335 1.87462 31.3358 1.81688 30.5953 1.84312C30.3639 1.9691 29.0216 1.81163 27.8183 1.84837C27.9571 1.86937 28.2811 1.88512 28.2348 1.90611C27.772 1.91661 27.4943 1.93236 27.0314 1.91136C27.124 1.91661 27.2629 1.92711 27.1703 1.93761C27.5868 1.92186 28.4662 1.92186 28.5125 1.9586V1.94286C29.4845 1.93761 31.2433 1.92186 31.7524 1.9901L31.5672 2.00059C30.873 1.97435 31.4747 2.04784 31.1507 2.05309C30.9193 2.04784 30.549 2.05833 30.5027 2.03734C30.4564 2.02159 30.5953 2.01634 30.7341 2.01109C30.0862 1.98485 29.4382 2.05309 29.0216 1.98485L28.9754 2.01109L27.2166 2.01109C26.4297 2.01109 26.3835 1.92711 26.5223 1.90086L25.8281 1.89561L26.1058 1.93761L25.0412 1.94286C25.0412 1.96385 25.5966 1.9901 25.0875 2.01109C24.4395 2.06358 23.7916 2.00584 23.1899 2.01109C23.5139 2.00584 23.375 1.97435 23.4676 1.9586C23.375 1.9691 23.2362 1.96385 23.0973 1.9586C23.1436 1.96385 23.1899 1.96385 23.2824 1.9691C23.3287 1.98485 23.1436 1.9901 23.051 1.99535C21.8939 2.0006 20.9683 2.00059 19.95 1.98485C20.5517 1.9901 20.6443 1.93761 21.0608 1.92711C20.7831 1.92186 20.3666 1.93236 20.2277 1.90611C20.4129 1.85362 20.7368 1.90086 21.1534 1.87462L19.7649 1.86412L20.6443 1.95335C20.5054 1.97435 19.6723 1.95335 19.95 1.96385L20.0889 1.9796L19.3483 2.00059C19.2095 1.98485 18.9318 1.9691 19.0706 1.94286L17.6821 1.93236C17.821 2.00059 18.5615 1.9481 19.0243 1.9691V1.98485C19.0243 2.04259 17.7747 2.03209 17.0341 2.02684C17.497 1.98485 16.4325 1.94285 16.2936 1.95335L16.7564 1.99535C16.1085 2.03209 15.3679 2.08983 15.3216 2.12132C14.5811 2.05834 14.2108 2.21056 13.6091 2.12132C12.8223 2.14232 11.8966 2.12132 11.2487 2.08983C11.3875 2.07933 11.6652 2.07408 11.6652 2.05309H11.3412C11.3412 2.10558 10.5081 2.05309 10.4156 2.08458L10.5544 2.10033C10.1379 2.14757 9.67502 2.05309 9.48988 2.12132C9.25847 2.11608 8.8882 2.12657 8.84191 2.10558L9.21218 2.07933L9.07333 2.06358C8.61049 2.07408 8.0088 2.02684 8.05509 2.04259L8.70306 2.07408C7.91624 2.14232 7.49968 2.03734 6.66657 2.04784C6.71286 2.11083 8.42536 2.10033 7.68482 2.17382C7.1757 2.15807 6.71286 2.13707 6.29631 2.16332L8.14766 2.18956C8.19394 2.16857 7.82367 2.14757 8.24022 2.12132L8.56421 2.15282C10.2767 2.14232 9.90644 2.18431 11.4338 2.20006V2.21056C10.3693 2.22106 9.07333 2.21056 8.24022 2.24205C8.93448 2.31029 9.99901 2.20006 10.8321 2.2473C8.47164 2.45727 7.22198 2.11608 4.72266 2.28405C5.13921 2.27355 5.27806 2.30504 5.55576 2.31554L4.86151 2.32604C5.04664 2.39428 6.06489 2.32079 6.34259 2.36278C6.52772 2.39953 7.40711 2.35753 7.31455 2.41002C8.47164 2.38378 7.96252 2.46776 8.74934 2.48876C8.61049 2.55175 7.77739 2.49401 7.4534 2.5465C7.4534 2.5255 7.31455 2.52026 7.1757 2.52026C7.4534 2.53075 7.22198 2.557 7.26826 2.57275C7.91624 2.58849 7.63853 2.55175 7.82367 2.536C8.0088 2.536 8.24022 2.536 8.33279 2.55175L8.14766 2.56225C8.37907 2.5675 8.74934 2.557 8.79563 2.57799L9.21218 2.54125C9.02705 2.54125 8.79563 2.54125 8.70306 2.5255L9.07333 2.49926C9.62874 2.5255 10.5081 2.51501 10.8784 2.5675C10.9247 2.55175 10.8784 2.536 11.1098 2.53075C11.4338 2.557 11.5727 2.578 11.5264 2.59899H9.76759L11.6189 2.62524C11.6189 2.60949 11.6189 2.59374 11.8504 2.58849C11.8041 2.66723 13.1 2.55175 12.776 2.64623L13.4703 2.65148C13.5166 2.63574 13.4703 2.61999 13.7017 2.61474C13.8868 2.71972 15.5993 2.65148 16.3399 2.69872C16.3399 2.68298 16.3399 2.66723 16.5713 2.66198C17.4044 2.68823 17.5895 2.63574 17.5433 2.59899C17.8672 2.60424 18.3764 2.59374 18.5615 2.61999C18.4689 2.62524 18.3764 2.63573 18.1912 2.63048L18.4227 2.64098C18.3764 2.63573 18.3764 2.63573 18.3301 2.63573L19.4409 2.58849C19.5335 2.59374 19.6723 2.60424 19.5797 2.61474H19.9037C19.5335 2.71447 21.1071 2.64623 21.8477 2.69347C21.9402 2.73022 22.4956 2.74597 22.9585 2.75646C22.1254 2.74597 21.8939 2.66198 22.1254 2.61474C23.2824 2.60424 22.6808 2.69872 23.699 2.70397L23.051 2.66198C23.8841 2.65148 25.1801 2.64623 25.7818 2.69347L25.5966 2.70397L26.1983 2.76171L25.3189 2.78271C25.8743 2.78796 26.5686 2.78271 26.8 2.8352L27.0314 2.79846C27.5868 2.80895 27.6794 2.85095 27.9108 2.86669ZM59.8466 2.8457V2.8562L59.1524 2.85095L59.1987 2.8352L59.8466 2.8457ZM63.9196 2.92968L63.4105 2.92443L64.1047 2.91394L63.9196 2.92968ZM93.3561 3.05041V3.06616L92.6618 3.06091V3.04516L93.3561 3.05041ZM108.815 1.28147L109.37 1.27097L109 1.28147H108.815ZM96.7811 1.33396L96.8274 1.31821L97.5216 1.32346L97.4753 1.33396L96.7811 1.33396ZM55.4959 1.23423L56.1902 1.22373L56.0051 1.23423H55.4959ZM64.0122 1.45469C63.9196 1.44419 64.151 1.39695 64.7527 1.41795L64.0122 1.45469ZM65.4007 1.42319C66.1412 1.4022 66.5578 1.42319 67.1595 1.42319C66.5115 1.42844 66.0024 1.47044 65.4007 1.42319ZM76.9716 1.47569C76.8791 1.48093 76.7865 1.47569 76.7402 1.47044L76.3236 1.45994C76.6013 1.4022 76.5551 1.44944 76.7402 1.47044L76.9716 1.47569ZM77.3419 1.46519L77.2493 1.42319L78.4064 1.43369C77.851 1.43894 78.0824 1.49143 77.3419 1.46519ZM82.1554 1.47044C82.8959 1.49143 82.3405 1.43369 82.7571 1.43369L85.673 1.45469L84.0993 1.47044C83.4976 1.43369 82.9422 1.50193 82.1554 1.47044ZM79.5635 1.46519C79.3784 1.46519 79.3321 1.45994 79.2395 1.44944L78.9155 1.44944L79.1007 1.43894C79.147 1.44419 79.1932 1.44944 79.2395 1.45469H79.6098L79.5635 1.46519ZM130.846 1.82213C130.198 1.80113 129.319 1.83787 128.439 1.81688C128.393 1.79588 128.717 1.79063 128.856 1.78013L128.948 1.82213C129.504 1.80113 130.429 1.76439 130.846 1.82213ZM132.234 1.78538L133.021 1.76963C132.882 1.81163 132.558 1.78538 132.234 1.78538ZM86.3209 1.48618C86.2284 1.48094 86.1821 1.46519 85.9969 1.47044L86.5524 1.44944C86.3209 1.45469 86.3209 1.47044 86.3209 1.48618ZM80.9983 1.43894L80.1189 1.43369C80.4892 1.41795 80.7669 1.41795 80.9983 1.4127V1.43894ZM76.2311 1.3917L75.722 1.38645L77.3419 1.35496C77.6196 1.40745 76.5551 1.36546 76.2311 1.3917ZM85.5804 1.38645L86.0895 1.4022L85.5804 1.4127V1.38645ZM141.306 1.80113C140.566 1.80113 140.473 1.75914 139.779 1.79063L139.362 1.73289C140.056 1.75914 140.704 1.76439 141.26 1.74864C141.306 1.73289 141.352 1.71714 141.167 1.70665L141.861 1.69615C141.676 1.74339 141.26 1.77488 141.306 1.80113ZM109.463 1.43369C109.509 1.44944 109.37 1.45469 109.231 1.45994C108.954 1.45994 108.907 1.43894 108.769 1.42844L109.463 1.43369ZM103.261 1.4022C104.464 1.41795 104.881 1.45994 106.038 1.40745C105.529 1.44944 104.557 1.44419 103.862 1.47044L103.353 1.46519C103.862 1.44944 103.168 1.42844 103.261 1.4022ZM81.7851 1.28147C82.0628 1.28147 82.2943 1.30771 82.248 1.32346C82.0628 1.32346 81.8314 1.32346 81.7388 1.30772L81.7851 1.28147ZM76.3699 1.31297C76.4625 1.30247 76.3236 1.29197 76.2311 1.28672C76.4625 1.25522 76.7402 1.29197 76.8791 1.30247V1.31821L76.3699 1.31297ZM93.8652 1.43369C94.2817 1.42844 94.8372 1.45469 95.1149 1.41795L97.429 1.47569C96.0868 1.48093 94.976 1.45469 93.8652 1.43369ZM60.2632 1.27622C60.4946 1.27622 60.7723 1.27622 61.0963 1.27097C61.0037 1.27097 60.9111 1.27622 60.7723 1.28147L60.2632 1.27622ZM61.374 1.27097C62.1145 1.26572 62.9014 1.26047 63.5956 1.28672C62.9476 1.33396 62.2071 1.27097 61.374 1.27097ZM65.6321 1.29197L67.8537 1.30772V1.32346L65.6321 1.30772V1.29197ZM70.353 1.36021C70.353 1.36546 70.353 1.36546 70.353 1.36021C70.6307 1.36546 71.0473 1.36546 71.0936 1.33921C71.1861 1.32346 70.9547 1.31296 70.8622 1.30247C70.8159 1.30247 70.8159 1.30247 70.7696 1.29722C69.9828 1.32346 69.5199 1.29197 68.5943 1.29197L68.6405 1.26572C69.3811 1.29722 70.1216 1.28672 70.7696 1.29722H70.8159C70.8159 1.29722 70.8622 1.29722 70.8622 1.30247C71.001 1.30772 71.1861 1.30772 71.325 1.31297C71.6953 1.31297 72.1118 1.32871 72.3895 1.30772C72.2507 1.32871 72.4821 1.34446 72.6672 1.36546C72.9912 1.31297 73.4541 1.37595 73.5466 1.36021C73.5466 1.37595 73.454 1.3917 73.6392 1.4022C74.2872 1.4127 73.8243 1.33396 74.5649 1.3707L74.0095 1.3917L74.2872 1.43369C73.8706 1.44944 73.3152 1.38645 72.7598 1.42319L73.0375 1.46519C72.2044 1.45994 72.1581 1.36546 71.0473 1.4127C71.001 1.47569 70.7696 1.43369 70.1216 1.45994L68.7331 1.46519C68.7331 1.4232 70.5845 1.43894 70.353 1.36021C69.9828 1.35496 70.1216 1.36021 70.353 1.36021ZM64.9841 1.36546C64.7527 1.37071 64.4287 1.34971 64.2899 1.37595L64.0122 1.34446L64.9841 1.36546ZM65.5395 1.35496L66.2338 1.36021V1.37595L65.5395 1.3707V1.35496ZM60.2169 1.4127L59.4764 1.43369L59.5226 1.40745C59.3838 1.3812 59.0135 1.40745 58.8284 1.41795L58.4118 1.36021C58.3193 1.36546 58.1804 1.3707 58.1804 1.38645L57.6713 1.3812C57.7639 1.37595 57.949 1.3707 57.9027 1.35496L57.7639 1.33921L58.9672 1.33396L59.0135 1.30772C59.3375 1.31821 59.5226 1.29722 59.7541 1.28672C59.6615 1.31821 58.597 1.34446 59.4301 1.37595C60.4483 1.34446 61.0037 1.40745 61.7905 1.41795C61.2351 1.47044 60.9112 1.39695 60.3557 1.44944L60.2169 1.4127ZM42.3051 1.35496C42.3976 1.34446 42.2588 1.33396 42.1662 1.32871C42.4439 1.33921 42.6753 1.31821 42.9068 1.30772V1.29197L42.0737 1.28672C42.6753 1.25522 43.601 1.29722 44.0639 1.33921C43.601 1.34446 42.953 1.3707 42.3051 1.35496ZM115.48 1.89036L115.341 1.87462C116.776 1.87462 117.701 1.85362 118.997 1.87462C117.84 1.87987 116.776 1.91661 115.48 1.89036ZM25.9206 1.28147V1.27097L27.3091 1.28147V1.29197L25.9206 1.28147ZM31.0581 1.44944L31.8912 1.45469L31.8449 1.48093C31.4284 1.49143 31.3358 1.45994 31.0581 1.44944C30.9193 1.47569 30.549 1.49668 30.1324 1.48093L30.1787 1.43894L31.0581 1.44944ZM26.6612 1.35496V1.34446L27.3554 1.34971V1.36546L26.6612 1.35496ZM103.168 1.90086L101.595 1.91661C102.15 1.86937 102.613 1.90611 103.168 1.90086ZM25.1338 1.35496C25.8743 1.4127 26.8 1.3707 27.5406 1.4127C27.5868 1.4127 27.5868 1.4127 27.6331 1.4127L27.772 1.42844C27.6794 1.42319 27.6331 1.41795 27.5406 1.4127C27.2166 1.4127 27.2166 1.44419 27.0314 1.45994L27.3554 1.49143L26.8463 1.48618C27.1703 1.43894 26.3835 1.44944 26.2446 1.42844L26.4297 1.41795C26.152 1.35496 25.5504 1.41795 25.0412 1.40745L25.1338 1.35496ZM25.1338 1.44944L25.7818 1.46519L25.2726 1.45994L25.1338 1.44944ZM23.4676 1.42844C23.0973 1.43894 22.9122 1.40745 22.8196 1.39695L22.6808 1.3812C23.0047 1.3812 23.7453 1.3812 23.4676 1.42844ZM19.8112 1.4127L20.3666 1.4022L19.9037 1.36021L20.598 1.36546C20.4129 1.41795 21.0145 1.41795 21.4311 1.42844C20.922 1.41795 20.2277 1.48094 19.8112 1.4127ZM62.5774 2.00584L62.4385 1.9901L63.3179 1.98485C63.2716 2.00584 62.8551 1.99535 62.5774 2.00584ZM71.0936 2.00059V2.01109L69.7051 2.00059L69.7514 1.98485L71.0936 2.00059ZM61.0963 1.9691C61.1889 1.9901 61.374 1.98485 61.6054 1.98485C60.7723 1.99535 60.9112 2.07408 60.0318 2.00059C59.8003 2.02159 59.4764 2.02684 59.1061 2.02159L58.9672 2.00584C59.5226 1.9796 60.3095 1.9586 60.9111 1.9901L61.0963 1.9796L60.6797 1.92186C61.1889 1.85887 62.1608 1.94285 62.7625 1.92186C62.3459 1.99535 61.6054 1.91136 61.0963 1.9691ZM48.0905 1.86412H47.9054L48.1368 1.83787L48.0905 1.86412ZM72.5747 1.95335L72.5284 1.99535L71.6953 1.9901L72.5747 1.95335ZM67.0206 1.9586L66.0024 1.95335V1.94286L67.0206 1.9481V1.9586ZM73.9632 1.93761L74.102 1.96385C73.6392 1.9586 73.3152 2.0006 72.8987 1.9691C73.3152 1.9901 73.5466 1.93236 73.9632 1.93761ZM65.3544 1.89036L65.2155 1.87462H67.2983L65.3544 1.89036ZM74.426 1.9691C74.6111 1.97435 74.7037 1.96385 74.7963 1.9586L75.4443 1.96385C75.0277 1.96385 74.8888 2.00584 74.426 1.9691ZM23.0973 1.52818L23.1436 1.50193C23.051 1.51243 25.0412 1.54917 25.7355 1.51768C25.1801 1.56492 23.7916 1.52818 23.0973 1.52818ZM27.2166 1.55967L26.8463 1.57017C26.9389 1.54917 26.6612 1.54392 26.5686 1.52818L27.2166 1.55967ZM158.986 2.44677C159.496 2.55175 157.783 2.5465 156.904 2.55175L152.97 2.5255C152.877 2.53075 152.831 2.53075 152.738 2.536L152.599 2.52026L152.97 2.5255C153.895 2.47826 155.191 2.5465 156.163 2.47826C156.811 2.50451 157.274 2.49401 157.876 2.50451L158.986 2.44677ZM43.5547 1.7014C43.3233 1.7014 43.0919 1.70665 42.7679 1.70665C42.9068 1.6594 43.1845 1.69615 43.5547 1.7014ZM47.4426 1.72764L47.9517 1.73289L47.9054 1.74864L47.3963 1.74339L47.4426 1.72764ZM35.0385 1.6699C35.3625 1.63316 35.8253 1.64366 36.2882 1.64366C35.8716 1.65416 35.5476 1.68565 35.0385 1.6699ZM64.0122 1.86937L63.827 1.87987L64.2899 1.92186C63.9659 1.94285 63.4568 1.92711 63.0865 1.92711C63.827 1.92711 63.0402 1.82737 64.0122 1.86937ZM53.4595 1.86412L52.5801 1.85887L52.6264 1.81688C53.0429 1.85887 53.4595 1.79588 53.4595 1.86412ZM42.0274 1.83787L41.6571 1.86412C41.5645 1.84837 41.3794 1.84837 41.148 1.84837L41.0554 1.79588C41.3794 1.80113 41.7034 1.79588 41.9348 1.77488L41.796 1.75914C42.2588 1.74864 42.2588 1.79063 42.3976 1.80113C43.5085 1.76964 44.0639 1.89561 44.8044 1.80638L44.7581 1.84837L44.6193 1.83262L44.2027 1.88512C43.6936 1.80638 42.9068 1.82738 42.0274 1.83787ZM45.3598 1.83262C45.7764 1.77488 46.0078 1.84837 46.5632 1.82738L46.0078 1.85362C46.2855 1.86412 46.0541 1.89036 46.1003 1.90611C46.1003 1.84312 44.7581 1.91136 45.3598 1.83262ZM58.4581 1.9796C58.3655 2.02159 58.1804 2.02684 57.8101 2.06883C57.4399 2.00584 56.653 2.06883 55.9588 2.04259C56.0514 2.03209 55.9125 2.02159 55.8199 2.01634C56.1902 2.05834 57.625 1.9481 58.4581 1.9796ZM55.172 1.9796L55.1257 2.02159L54.6166 2.01634C54.8017 1.9901 54.7091 1.9901 55.172 1.9796ZM41.2405 1.91136C41.3794 1.89561 41.9811 1.91661 42.2588 1.93236L41.2405 1.91136ZM37.5841 1.91136L37.6304 1.91661C37.9544 1.91136 38.4172 1.90086 38.6024 1.90611C38.2784 1.90611 37.9081 1.94286 37.6304 1.91661C37.3527 1.92186 37.2601 1.92711 37.5841 1.91136ZM44.2953 1.9481L44.1564 1.93236H44.5267C44.4341 1.95335 44.7118 1.9586 44.8044 1.97435L44.9895 1.96385C44.7581 2.03209 44.6193 1.93761 44.2953 1.9481ZM70.8622 2.35753L70.1679 2.35228L70.9084 2.33129L70.8622 2.35753ZM54.5703 2.14232C54.6166 2.14232 54.6628 2.14232 54.6628 2.14757L55.4034 2.17382C55.0331 2.17906 54.8943 2.15807 54.6628 2.14757L54.5703 2.14232L54.2 2.16332L54.3389 2.17906C53.9686 2.17382 53.552 2.16857 53.2743 2.20006L54.0611 2.12657L54.5703 2.14232ZM52.2098 2.11083C52.4412 2.10558 52.4412 2.08983 52.4412 2.07408H52.7652C52.4875 2.12657 53.3669 2.10558 53.552 2.13182C51.1453 2.27355 49.3865 2.08458 47.1649 2.11607C46.8409 2.13182 46.378 2.17381 45.9152 2.13182C46.1929 2.13707 46.2855 2.11607 46.4706 2.11083C46.378 2.09508 46.1929 2.09508 45.9615 2.09508C46.0541 2.08458 45.9152 2.07408 45.8226 2.06883C44.8507 2.08983 46.1003 2.15807 44.9895 2.15807L45.3598 2.13182L44.897 2.08983C45.4987 2.07408 45.9615 2.02159 46.702 2.04784L47.4889 2.10558L47.8591 2.07933L47.7203 2.06358C47.9054 2.06358 48.1368 2.06358 48.2294 2.07933L48.8311 2.04259C50.0808 2.10033 51.2378 2.01109 52.2098 2.11083ZM28.6051 1.90611C28.7439 1.89036 29.3456 1.91136 29.6233 1.92711C29.2531 1.91661 28.7902 1.93236 28.6051 1.90611ZM32.4929 1.9586V1.9481L33.5112 1.95335V1.96385L32.4929 1.9586ZM34.2054 1.9691V1.95335L35.0848 1.9586V1.97435L34.2054 1.9691ZM37.9544 2.01109L38.0007 1.99535L38.5098 2.00059L38.4635 2.01634L37.9544 2.01109ZM39.528 1.99535L40.7314 2.00584L40.3612 2.03209L39.528 1.99535ZM43.1382 2.02159L45.0358 2.03209C44.6193 2.02684 44.249 2.04259 43.925 2.06358L44.2027 2.08983L43.0919 2.09508C43.0456 2.10033 43.0456 2.10558 42.9993 2.11083C43.0456 2.12132 43.1845 2.12657 43.277 2.13707H43.0919C42.9993 2.13182 42.9993 2.12132 42.9993 2.11083C42.953 2.10558 42.9531 2.10033 42.9531 2.09508H43.0456C43.3696 2.05834 44.1564 2.02159 43.1382 2.02159ZM37.2139 2.04784C37.075 2.04784 36.9824 2.05309 36.8436 2.05833C36.9824 2.04784 37.075 2.04259 37.2139 2.04784C37.9081 2.04259 38.7875 2.08458 39.2966 2.05833L39.9446 2.07408C39.3892 2.13707 38.0933 2.10033 37.6767 2.08458C37.6767 2.06883 37.4453 2.04784 37.2139 2.04784ZM34.7608 2.06883L35.4088 2.08458C35.2237 2.08458 35.0385 2.07933 34.8997 2.09508C34.946 2.08458 34.8071 2.07408 34.7608 2.06883ZM31.4284 2.07408C31.7987 2.04784 32.2615 2.08458 32.5855 2.09508L31.521 2.10033C31.6598 2.08458 31.521 2.07933 31.4284 2.07408ZM34.7145 2.18956C34.4831 2.21056 34.1591 2.20006 33.8351 2.19481C33.7426 2.20006 33.6963 2.20006 33.6963 2.19481C33.7426 2.19481 33.7889 2.19481 33.8351 2.19481C34.0666 2.18431 34.4831 2.15282 34.7145 2.18956ZM27.4017 2.11083L27.2166 2.12132L27.6794 2.16332C27.3554 2.15807 26.8463 2.16857 26.6612 2.14232C26.8463 2.14232 27.0314 2.14757 27.2166 2.13182L26.8926 2.10033L27.4017 2.11083ZM19.9963 2.05833L19.302 2.05309C19.4409 2.03734 19.626 2.04259 19.8574 2.04259L19.9963 2.05833H20.3203L20.1352 2.06883L19.9963 2.05833ZM20.8294 2.10558V2.08983C21.7088 2.09508 22.5419 2.04784 23.4213 2.10558C24.023 2.05833 25.5041 2.10033 26.1983 2.10033L25.8281 2.12657L25.6892 2.11083C24.2081 2.15282 22.4031 2.10558 20.8294 2.10558ZM16.849 2.08983L15.9233 2.10558C16.2473 2.08983 16.5713 2.05833 16.849 2.08983ZM17.173 2.09508L18.3301 2.11607V2.13182L17.173 2.09508ZM28.2348 2.13182C28.8365 2.12132 29.1142 2.16332 29.5308 2.17906L29.7622 2.14232C29.7159 2.16332 29.6233 2.20006 30.0399 2.20006C29.0216 2.24205 29.0679 2.13707 28.2348 2.13182ZM15.3679 2.14757L17.5895 2.17382C17.6358 2.18956 17.497 2.19481 17.3581 2.20006C17.0341 2.16857 15.7845 2.20531 15.3679 2.14757ZM18.0524 2.19481C17.9598 2.16857 18.9781 2.20531 19.3946 2.21581L18.0524 2.19481ZM13.4703 2.2578L14.1645 2.2473L13.9794 2.2578L13.4703 2.2578ZM17.0341 2.29454V2.28405L18.0524 2.28929V2.30504L17.0341 2.29454ZM92.523 2.91394V2.89819L93.2172 2.90344V2.91394H92.523ZM12.2206 2.49926V2.50976L11.5264 2.50451V2.48876L12.2206 2.49926ZM14.6274 2.38378L15.1365 2.38903V2.40477L14.6274 2.39953V2.38378ZM6.71286 2.35753L6.75914 2.34703L7.4534 2.35228V2.36278L6.71286 2.35753ZM86.9689 2.91394L87.0152 2.90344L87.7095 2.90869L87.6632 2.91918L86.9689 2.91394ZM94.0503 2.93493C94.6057 2.94018 95.3 2.93493 95.5314 2.98742L95.1611 3.01367L95.0686 2.97168C94.4669 2.99267 94.2817 3.00842 93.6338 3.01367C93.5412 2.98217 93.4486 2.94018 94.0503 2.93493ZM75.5831 2.88769L73.6392 2.90344L73.1301 2.88769L75.5831 2.88769ZM72.1118 2.87719L72.8061 2.88244V2.89294L72.1118 2.88769V2.87719ZM8.74934 2.48876L8.79563 2.44677L10.5081 2.47301C10.2304 2.47301 9.86016 2.45727 9.62874 2.47826C9.53617 2.48876 9.67502 2.49926 9.76759 2.50451H10.0916C9.48989 2.557 9.4436 2.43102 8.74934 2.48876ZM15.6919 2.59374C15.5068 2.59374 15.2754 2.58849 15.1365 2.60424C15.0439 2.61474 15.1828 2.62524 15.2754 2.63048L14.072 2.63573L14.1645 2.58324C14.072 2.57799 14.0257 2.578 13.9794 2.57275C14.072 2.578 14.2571 2.58324 14.3497 2.57275C14.5811 2.63049 15.1828 2.5675 15.6919 2.59374ZM27.9108 2.77221L28.096 2.76171C27.9571 2.73547 27.5406 2.75121 27.2629 2.74072C27.0314 2.74597 27.0777 2.76171 27.0314 2.77746L26.7537 2.73547C27.448 2.69347 28.5125 2.78796 28.5125 2.70922L29.3456 2.71447C28.6976 2.78271 29.901 2.71447 29.9473 2.75646C29.6696 2.75646 29.2993 2.74072 29.0679 2.76171V2.77746L30.225 2.79846C29.4382 2.82995 28.8828 2.75646 27.9108 2.77221Z" fill="white"/>
<path d="M86.4985 3.31321H86.3133C85.8968 3.29221 86.5448 3.27121 86.5448 3.26072C86.2208 3.27646 85.8968 3.27122 85.7117 3.23972L85.1562 3.27646C85.9431 3.28171 85.9894 3.32895 86.4985 3.31321Z" fill="white"/>
<path d="M70.9103 3.026C70.8633 3.026 70.8633 3.026 70.8164 3.026C70.8164 3.026 70.8164 3.026 70.8633 3.03125C70.8633 3.026 70.8633 3.026 70.9103 3.026Z" fill="white"/>
<path d="M71.2302 3.0155C71.0914 3.01025 70.9988 3.0155 70.9062 3.026C70.9988 3.026 71.0914 3.026 71.1839 3.03125L71.2302 3.0155Z" fill="white"/>
<path d="M59.7994 2.9922C59.7994 2.99739 59.8489 2.99739 59.7994 2.9922V2.9922Z" fill="white"/>
<path d="M73.9156 1.21216H73.7305V1.22266H73.8693L73.9156 1.21216Z" fill="white"/>
<path d="M51.8441 1.3008C51.7515 1.3008 51.659 1.3008 51.5664 1.3008C51.659 1.30598 51.7515 1.30598 51.8441 1.3008Z" fill="white"/>
<path d="M98.8085 3.22375C98.7159 3.23425 100.475 3.20801 100.66 3.25C100.752 3.19751 101.585 3.25 101.909 3.21851C102.048 3.20801 101.817 3.16077 101.771 3.19226C101.169 3.18701 100.382 3.23425 99.873 3.19226L98.8085 3.22375Z" fill="white"/>
<path d="M99.8869 3.19141C99.8869 3.18616 99.84 3.18091 99.793 3.17566L99.7461 3.18091C99.793 3.18091 99.84 3.18616 99.8869 3.19141Z" fill="white"/>
<path d="M53.5466 1.2447C53.5004 1.2342 53.6392 1.2237 53.7318 1.21845C53.5466 1.2237 53.3615 1.2237 53.2227 1.22895C53.3152 1.23945 53.3615 1.24995 53.5466 1.2447Z" fill="white"/>
<path d="M156.675 0.0925152C156.86 0.18175 158.619 0.103013 159.36 0.139757C159.545 0.1765 158.897 0.176501 158.897 0.202746C159.73 0.260486 160.517 0.145006 161.119 0.12401C161.165 0.0715192 161.998 0.0347759 161.998 -0.00196776C160.1 0.0505231 158.156 0.0977649 155.981 0.0767686C155.703 0.12401 154.917 0.145006 154.5 0.145006C155.703 0.197497 155.981 0.082017 156.675 0.0925152Z" fill="white"/>
<path d="M148.016 0.611816C149.868 0.643311 151.349 0.59607 153.247 0.59607C154.219 0.59607 154.681 0.627564 155.514 0.585571C156.394 0.580322 157.829 0.559325 158.384 0.632813C159.171 0.601318 160.097 0.585572 160.791 0.543579C160.374 0.48059 159.217 0.438596 158.986 0.370358C158.06 0.396604 157.181 0.438597 156.857 0.517334C153.663 0.554077 151.071 0.53308 148.294 0.564575C147.878 0.59607 147.045 0.543579 146.859 0.59607L148.016 0.611816Z" fill="white"/>
<path d="M159.498 1.36406C159.498 1.33257 159.127 1.31682 158.896 1.29057L158.711 1.30107C158.85 1.33256 158.896 1.37981 159.498 1.36406Z" fill="white"/>
<path d="M136.728 0.870113C137.284 0.896359 138.163 0.83862 138.765 0.885861C137.515 0.89636 135.617 0.980345 135.016 0.938352L135.479 0.969847L135.293 0.980344C135.108 0.980344 134.877 0.980345 134.784 0.964598L134.414 0.990843C135.988 1.04858 137.423 0.927853 139.042 0.927853C139.366 0.854366 140.662 0.912106 141.171 0.901608C141.542 0.938352 142.791 0.89111 142.884 0.927853C142.93 0.917355 143.023 0.901609 143.069 0.891111L142.745 0.891111C142.375 0.843869 141.958 0.938352 141.542 0.880612C141.495 0.859616 141.819 0.854366 141.958 0.843868C143.115 0.870113 145.291 0.759882 145.846 0.896359C146.263 0.901608 146.679 0.906857 146.911 0.875363L147.512 0.933103C148.392 0.94885 148.345 0.870114 148.993 0.875363C149.78 0.943601 151.123 0.891111 152.002 0.938352L151.863 0.94885C152.094 0.9436 153.066 0.9541 153.298 0.990843C153.252 1.01709 152.881 1.02234 152.696 1.04333C153.622 1.08533 154.501 1.13782 155.658 1.14307L155.057 1.08533L155.242 1.07483C154.779 1.08008 154.594 1.05383 154.27 1.04333C154.501 1.02234 154.825 1.01709 155.149 1.02234C155.612 1.07483 156.63 1.09582 156.121 1.16406C156.26 1.13782 156.63 1.12732 156.723 1.10107C155.797 1.00134 154.131 0.922605 152.835 0.833371L153.252 0.78088C152.881 0.754634 152.187 0.770381 151.956 0.71789L146.031 0.744135C144.273 0.749384 141.588 0.786129 139.69 0.807125L139.829 0.822872C138.718 0.906857 136.867 0.791378 135.803 0.833371L136.358 0.822872C136.589 0.828121 136.867 0.843868 136.728 0.870113Z" fill="white"/>
<path d="M142.883 0.92688C142.836 0.937378 142.789 0.942627 142.789 0.953125C142.883 0.942627 142.883 0.937378 142.883 0.92688Z" fill="white"/>
<path d="M151.625 3.15984C152.042 3.15459 152.551 3.18083 152.875 3.14409C152.458 3.11785 151.856 3.12834 151.625 3.15984Z" fill="white"/>
<path d="M155.617 0.210694L156.08 0.242188C156.08 0.22644 156.08 0.210694 156.311 0.205445L155.617 0.210694Z" fill="white"/>
<path d="M156.984 0.22111L157.03 0.194865L156.336 0.205364C156.521 0.210613 156.752 0.247356 156.984 0.22111Z" fill="white"/>
<path d="M142.559 3.39844C142.883 3.37219 143.484 3.40894 143.808 3.38269C143.345 3.37744 142.79 3.36694 142.559 3.39844Z" fill="white"/>
<path d="M146.672 0.921752L145.793 0.932251L146.487 0.9375L146.672 0.921752Z" fill="white"/>
<path d="M146.539 0.589912L145.66 0.610908L146.169 0.616158C146.308 0.621407 146.539 0.60566 146.539 0.589912Z" fill="white"/>
<path d="M141.546 3.40234V3.3866L140.852 3.39709L141.546 3.40234Z" fill="white"/>
<path d="M140.75 3.35413L141.398 3.35938L141.444 3.34363L140.75 3.35413Z" fill="white"/>
<path d="M144.395 0.875H144.857C144.626 0.864502 144.487 0.869751 144.395 0.875Z" fill="white"/>
<path d="M143.481 0.87707L143.759 0.903316L143.203 0.94006C144.268 0.987302 143.944 0.892817 144.407 0.871821L143.481 0.87707Z" fill="white"/>
<path d="M134.876 4C135.2 3.9895 135.57 3.9895 135.802 3.96851C135.617 3.91077 135.154 3.95801 134.784 3.96326C134.737 3.97376 134.691 3.9895 134.876 4Z" fill="white"/>
<path d="M132.371 3.05725L132.88 3.0625V3.04675L132.371 3.0415V3.05725Z" fill="white"/>
<path d="M135.156 0.869751L135.851 0.875V0.864503L135.156 0.869751Z" fill="white"/>
<path d="M129.734 0.934081C130.382 0.928832 131.123 0.93933 131.586 0.93933C131.262 0.949828 131.077 0.991821 130.66 0.970825L131.077 1.03906C131.215 1.02332 131.401 1.02856 131.632 1.02856C130.938 0.860593 133.391 1.01807 134.224 0.923582C133.298 0.965575 132.511 0.934081 131.632 0.918334C132.511 0.871092 133.113 0.902586 134.131 0.88159L133.483 0.839598C133.53 0.855345 133.391 0.860594 133.252 0.865843L133.113 0.850095C132.835 0.865842 132.095 0.808103 131.725 0.855344C131.91 0.850095 131.956 0.865842 132.049 0.871091C130.984 0.860593 130.475 0.918333 129.734 0.934081Z" fill="white"/>
<path d="M127.791 0.928149C127.282 0.875658 126.217 0.943896 125.662 0.954395C126.125 0.959644 126.773 0.901904 127.051 0.964893C125.57 0.980641 124.274 1.00164 123.672 1.02263C125.014 1.02788 126.819 1.00689 128.069 0.975391C127.745 0.970142 127.236 0.98064 127.051 0.954395C127.652 0.949145 128.115 0.922901 128.809 0.938648C128.717 0.907153 129.087 0.896655 129.272 0.875658C128.948 0.870409 128.485 0.875659 128.069 0.880908C127.93 0.891406 128.115 0.9229 127.791 0.928149Z" fill="white"/>
<path d="M126.771 0.801205L125.938 0.795956L126.076 0.811704C126.261 0.806455 126.724 0.822201 126.771 0.801205Z" fill="white"/>
<path d="M123.902 0.953002L124.041 0.96875L124.782 0.947752L123.902 0.953002Z" fill="white"/>
<path d="M122.01 0.953002L121.825 0.963501L122.658 0.96875C122.658 0.953003 122.658 0.937255 122.89 0.932006C123.028 0.942504 123.121 0.963501 123.352 0.963501C123.26 0.942504 123.63 0.932006 123.63 0.91101C122.751 0.890013 121.64 0.895263 120.668 0.916259C121.177 0.916259 121.686 0.926756 122.01 0.953002Z" fill="white"/>
<path d="M120.766 0.984375L121.506 0.963379C121.182 0.963379 120.766 0.95288 120.766 0.984375Z" fill="white"/>
<path d="M117.695 3.12964L117.14 3.14014L117.278 3.15588L116.445 3.16113C116.723 3.16638 116.954 3.18738 117.093 3.20312C117.001 3.17163 117.325 3.14013 117.695 3.12964Z" fill="white"/>
<path d="M117.741 0.911133L117.371 0.937378L118.389 0.942628C118.389 0.947877 118.436 0.947876 118.482 0.953125C118.436 0.947876 118.389 0.942627 118.436 0.932129C118.158 0.921631 117.788 0.937378 117.741 0.911133Z" fill="white"/>
<path d="M118.578 0.967729C118.624 0.972978 118.671 0.978227 118.624 0.988725C119.087 0.999223 119.458 0.983477 119.874 0.972979L119.735 0.95723C119.504 0.988725 119.087 0.978226 118.671 0.978226C118.671 0.972977 118.624 0.967729 118.578 0.967729Z" fill="white"/>
<path d="M115.007 3.49609V3.4856L114.359 3.48035L114.312 3.49085L115.007 3.49609Z" fill="white"/>
<path d="M115.197 0.987739L115.104 0.945747C115.011 0.950996 114.919 0.961493 114.734 0.956244L114.873 0.971993L114.688 0.98249C115.613 1.00349 116.354 1.02448 117.279 0.987739C117.141 0.919501 116.539 0.956244 115.983 0.924749L116.446 0.966743C116.076 0.987739 115.613 0.987739 115.197 0.987739Z" fill="white"/>
<path d="M114.64 0.988006L114.455 0.998505C113.946 0.988007 113.9 0.961761 113.853 0.940765C113.576 0.956512 113.205 0.977508 113.066 1.00375C113.483 1.02475 114.362 1.0405 114.64 0.988006Z" fill="white"/>
<path d="M115.442 1.04719C114.886 1.09443 113.59 1.04194 113.312 1.07343C114.099 1.07868 115.025 1.11018 115.442 1.04719Z" fill="white"/>
<path d="M111.182 1.00476C111.506 1.02576 112.107 1.02576 112.107 1.0625C113.496 0.973265 110.719 0.994262 111.182 1.00476Z" fill="white"/>
<path d="M106.918 3.23828C107.288 3.21204 107.936 3.24878 108.353 3.22253L106.964 3.22778L106.918 3.23828Z" fill="white"/>
<path d="M110.11 1.00513L109.23 1.01038L109.925 1.01562L110.11 1.00513Z" fill="white"/>
<path d="M106.167 3.39844L106.213 3.37219L105.473 3.38269L106.167 3.39844Z" fill="white"/>
<path d="M108.129 0.95642C108.082 0.972167 108.036 0.987915 108.221 0.998414C108.082 1.00891 107.805 1.01416 107.805 1.03516C108.499 1.02466 109.008 1.02991 109.147 0.961669L108.129 0.95642Z" fill="white"/>
<path d="M107.566 0.989503L106.918 0.958008L107.52 1L107.566 0.989503Z" fill="white"/>
<path d="M106.768 1.03944L106.074 1.03419L106.213 1.04994C106.444 1.04994 106.629 1.05519 106.768 1.03944Z" fill="white"/>
<path d="M105.109 0.999878L104.461 0.968384L104.924 1.01562L105.109 0.999878Z" fill="white"/>
<path d="M102.793 1.03894L102.932 1.05469C103.256 1.05469 103.441 1.03369 103.672 1.01794L102.793 1.03894Z" fill="white"/>
<path d="M101.876 0.977171L98.5898 0.982421C98.775 0.98767 99.6544 1.03491 98.9601 1.06641C100.21 1.06641 100.904 1.04541 102.107 1.04541C102.246 0.998168 101.459 1.02966 101.321 0.998169L101.876 0.977171Z" fill="white"/>
<path d="M100.251 1.11316L99.7416 1.10791L99.6953 1.12366L100.204 1.12891L100.251 1.11316Z" fill="white"/>
<path d="M95.7971 1.05591L96.8616 1.06641L97.2319 1.04016L95.7971 1.05591Z" fill="white"/>
<path d="M94.8021 1.05078C95.3112 1.02978 94.7558 0.99304 94.7558 0.982542L94.293 1.04553L94.8021 1.05078Z" fill="white"/>
<path d="M92.7552 1.02287C92.6627 1.02812 92.5238 1.03337 92.5238 1.04911C92.7089 1.04911 92.9404 1.04911 93.0329 1.06486L92.2461 1.1121C92.8015 1.06486 93.3569 1.16459 93.6809 1.09635C93.6346 1.06486 93.4495 1.00187 92.7552 1.02287Z" fill="white"/>
<path d="M89.8285 3.20312H90.1525L89.5508 3.14538L89.8285 3.20312Z" fill="white"/>
<path d="M91.4143 1L91.7846 0.979002L90.2109 0.994751L91.4143 1Z" fill="white"/>
<path d="M90.813 1.04993C90.6741 1.03943 90.0262 1.04468 89.9336 1.05517L90.3964 1.08667L90.2113 1.09717L90.3502 1.11291C91.2758 1.11816 90.165 1.06567 90.813 1.04993Z" fill="white"/>
<path d="M88.7188 1.0625L89.4593 1.0415C89.1353 1.03625 88.7188 1.03101 88.7188 1.0625Z" fill="white"/>
<path d="M88.2646 0.90625V0.895751L87.6166 0.890503L87.5703 0.901001L88.2646 0.90625Z" fill="white"/>
<path d="M88.1404 1C88.233 0.979004 88.1404 0.958008 87.8627 0.958008L87.8164 0.984253C88.0015 0.979004 88.0478 0.989502 88.1404 1Z" fill="white"/>
<path d="M84.7461 1.04651L85.7181 1.09375C85.7181 1.0675 85.8569 1.04651 85.9958 1.03076C85.5792 1.04126 85.2089 1.06226 84.7461 1.04651Z" fill="white"/>
<path d="M84.3301 1.09501L83.5896 1.11601C83.6822 1.12126 83.7284 1.13701 83.9136 1.13176C84.0524 1.12126 84.3301 1.11601 84.3301 1.09501Z" fill="white"/>
<path d="M84.4612 0.896346C84.1372 0.864852 83.6281 0.896346 83.2578 0.901596C83.4892 0.891097 83.9984 0.938339 84.4612 0.896346Z" fill="white"/>
<path d="M80.9492 1.13928L81.4583 1.14453L81.5046 1.12878L80.9492 1.13928Z" fill="white"/>
<path d="M80.6258 0.921875L81.1812 0.885132L79.7927 0.900879L80.6258 0.921875Z" fill="white"/>
<path d="M80.2459 1.04126C79.2277 1.05176 80.6162 1.05701 80.3385 1.09375C80.6162 1.0885 80.3848 1.04651 80.2459 1.04126Z" fill="white"/>
<path d="M78.9648 0.966949C79.0574 0.993194 79.4277 0.977446 79.6128 0.982695C79.8905 0.982695 80.3534 0.993194 80.3534 0.961699L78.9648 0.966949Z" fill="white"/>
<path d="M78.6797 1.04688C78.2169 1.00488 77.3838 1.02588 77.1523 1.03638L78.6797 1.04688Z" fill="white"/>
<path d="M74.1416 3.02075C73.9564 3.02075 73.9102 3.026 73.9102 3.03125L74.1416 3.02075Z" fill="white"/>
<path d="M72.4844 3.09672L72.8084 3.12821C73.3175 3.17021 74.1043 3.1912 74.5209 3.12821C74.4283 3.10722 73.9655 3.05998 73.9655 3.04423L73.8266 3.03373L72.4844 3.09672Z" fill="white"/>
<path d="M76.7461 0.947876L77.4404 0.953125L77.4866 0.937378L76.7461 0.947876Z" fill="white"/>
<path d="M75.9961 0.98938L76.3201 1.01562L77.3846 0.98413L75.9961 0.98938Z" fill="white"/>
<path d="M76.1406 0.89319L76.6497 0.898438L77.2051 0.88794L76.1406 0.89319Z" fill="white"/>
<path d="M72.6229 3.25517L71.5583 3.24992C71.6972 3.30766 72.2063 3.27091 72.6229 3.25517Z" fill="white"/>
<path d="M72.6211 3.25256L73.0839 3.25781C72.9914 3.24207 72.8062 3.24732 72.6211 3.25256Z" fill="white"/>
<path d="M71.0779 3.19116C71.587 3.14917 71.7259 3.22266 72.235 3.21216C71.2168 3.18591 70.2911 3.05469 69.2266 3.13867L69.8745 3.17017L69.5043 3.19641C70.0134 3.20691 70.6614 3.19116 71.0316 3.22266L71.0779 3.19116Z" fill="white"/>
<path d="M75.5412 0.938206L75.3561 0.948703C74.9395 0.911959 74.0139 1.00119 74.6156 0.9697L75.6801 0.964451L75.5412 0.938206Z" fill="white"/>
<path d="M70.0273 3.86719H70.2125L70.629 3.83044L70.0273 3.86719Z" fill="white"/>
<path d="M70.9966 3.24362L70.1172 3.24887L70.256 3.26462C70.6263 3.28037 70.904 3.25412 70.9966 3.24362Z" fill="white"/>
<path d="M73.3586 1.00894L73.2197 0.993194L74.0991 0.972198C73.59 0.982696 73.4049 0.9512 73.4974 0.930204C72.7106 0.930204 72.2015 1.00894 71.461 1.00894C71.2295 0.966948 70.4427 1.04043 70.489 0.977445L69.9799 0.972198L69.9336 1.01419C70.0724 1.02469 70.1187 1.04568 70.3964 1.04568C70.6741 1.00894 71.3221 1.01944 71.6461 1.02469C72.0626 1.09818 72.7569 1.01419 73.3586 1.00894Z" fill="white"/>
<path d="M51.9403 3.57153L52.1255 3.56103L50.9221 3.55053C50.5518 3.63977 52.0329 3.60303 52.4957 3.63977L52.1255 3.66601C52.542 3.71851 53.7917 3.69751 54.6711 3.70801C54.5322 3.66076 55.2265 3.68176 55.4579 3.66076C57.3555 3.71326 59.4846 3.63977 61.4748 3.70276C61.2434 3.70801 60.6417 3.71851 60.4103 3.72375C61.1508 3.77625 62.0302 3.63977 62.6782 3.72375L62.3079 3.75C63.5576 3.69751 64.6221 3.66076 66.0106 3.70801L65.8255 3.71851C67.1214 3.70276 68.1397 3.72375 69.2967 3.729C68.5099 3.72375 67.9545 3.66601 67.538 3.62402C67.0751 3.63452 66.3346 3.58728 65.8255 3.59778L65.9643 3.61352C65.9643 3.63452 65.6866 3.63977 65.5478 3.65027V3.54529H65.3626V3.56103C65.0386 3.59778 64.8072 3.54529 64.7147 3.54529C64.2518 3.60303 63.465 3.63452 62.7245 3.58728C62.0765 3.58203 60.8268 3.57153 61.1045 3.62927C60.0863 3.62402 58.5126 3.66077 57.3092 3.61877C56.939 3.54529 55.967 3.65552 55.2728 3.59253L55.5967 3.62402L55.4116 3.63452C55.1339 3.62927 54.7174 3.63977 54.5785 3.61352L54.9488 3.58728L54.8099 3.57153C54.2545 3.56628 54.3934 3.62402 53.8843 3.61877C53.3288 3.57153 52.218 3.66077 51.9403 3.57153ZM52.7272 3.64502C52.8197 3.66077 52.9123 3.67126 53.0049 3.67126C52.866 3.67126 52.7272 3.67126 52.542 3.67126C52.5883 3.66077 52.7272 3.65552 52.7272 3.64502ZM54.3934 3.67126C53.8843 3.68701 53.5603 3.68176 53.1437 3.67651C53.514 3.66601 53.9305 3.62402 54.3934 3.67126Z" fill="white"/>
<path d="M68.1289 3.86975L68.638 3.875L69.0083 3.8645L68.1289 3.86975Z" fill="white"/>
<path d="M71.7031 1.0885L72.2122 1.09375V1.08325L71.7031 1.0885Z" fill="white"/>
<path d="M64.7969 3.46094H64.982L65.3523 3.43469L64.7969 3.46094Z" fill="white"/>
<path d="M68.0906 0.953002L67.5352 0.963501L68.0443 0.96875L68.0906 0.953002Z" fill="white"/>
<path d="M66.4688 0.877563L66.9779 0.882812L67.3481 0.872314L66.4688 0.877563Z" fill="white"/>
<path d="M64.0038 0.904904C64.4666 0.857662 65.2535 0.904904 65.7626 0.878659C65.1609 0.810421 64.5592 0.920652 63.7261 0.862912C63.6798 0.878659 63.6335 0.894406 63.8187 0.904904C63.5872 0.915402 63.4021 0.936398 63.0781 0.9259C63.1707 0.941647 63.4484 0.946897 63.3558 0.967894C63.7724 0.957396 63.9112 0.98889 64.1889 0.999389L63.8187 1.02563L64.1889 1.03088C64.4204 1.04138 64.3278 1.05713 64.2815 1.07288L65.2997 1.07813C63.7261 1.07812 64.9758 0.946897 64.0038 0.904904Z" fill="white"/>
<path d="M60.5372 3.50622L59.4727 3.51147L60.1206 3.54297C60.2595 3.53247 60.5835 3.52722 60.5372 3.50622Z" fill="white"/>
<path d="M59.1458 3.72656L59.331 3.71606L58.6367 3.72131L59.1458 3.72656Z" fill="white"/>
<path d="M61.7344 1.11383C62.0121 1.15058 62.5675 1.10858 62.7989 1.10858C62.5212 1.04035 62.1046 1.12958 61.7344 1.11383Z" fill="white"/>
<path d="M57.2069 3.75317C56.8829 3.80042 57.6234 3.78992 57.8085 3.81091C57.4846 3.8739 56.42 3.80566 57.2531 3.84766C57.716 3.83716 58.2714 3.83191 58.5491 3.80041C58.2714 3.79517 57.4846 3.79517 57.2069 3.75317Z" fill="white"/>
<path d="M57.1211 3.71057L58.417 3.75781C58.5096 3.73157 57.8154 3.74731 57.9542 3.71582L58.1393 3.70532L57.1211 3.71057Z" fill="white"/>
<path d="M61.5586 0.912719L62.2529 0.917969C62.0214 0.907471 61.79 0.90747 61.5586 0.912719Z" fill="white"/>
<path d="M61.5537 0.911172L59.332 0.895423C59.7023 1.00565 60.6743 0.926919 61.5537 0.911172Z" fill="white"/>
<path d="M61.2815 1.08594C61.4203 1.08069 61.5129 1.07544 61.5592 1.07019L61.2815 1.08594Z" fill="white"/>
<path d="M61.6951 1.03491L62.0654 1.00867L61.3711 1.00342C61.5099 1.02441 61.6488 1.04541 61.5099 1.06641L61.7877 1.04541L61.6951 1.03491Z" fill="white"/>
<path d="M60.9105 1.10925L59.1517 1.03052V1.04626C59.4295 1.06201 59.7997 1.06201 59.9386 1.09351C59.5683 1.13025 59.522 1.07251 59.1055 1.08826L59.2443 1.104C59.4757 1.11975 60.0774 1.1355 60.1237 1.09875C60.2163 1.104 60.3088 1.1145 60.2626 1.125C60.4014 1.1145 60.8642 1.1355 60.9105 1.10925Z" fill="white"/>
<path d="M57.6224 0.991047C57.1596 0.970051 56.8819 1.00679 56.6505 0.959552C56.2802 0.959552 55.9099 0.954304 55.5859 0.964802C56.1876 1.01204 56.9745 1.00155 57.6224 0.991047Z" fill="white"/>
<path d="M53.3674 0.82778C54.6634 0.864523 56.237 0.854025 57.533 0.82778C56.237 0.848776 54.7559 0.806783 53.3674 0.82778Z" fill="white"/>
<path d="M56.8809 0.895332C56.6032 0.863838 56.0015 0.895331 55.8164 0.90058C56.1867 0.90058 56.6032 0.916329 56.8809 0.895332Z" fill="white"/>
<path d="M55.9583 1.04688L56.0046 1.03638L55.4492 1.03113V1.04688H55.9583Z" fill="white"/>
<path d="M51.0948 3.76414C51.0023 3.74315 50.4469 3.75364 50.2617 3.75889V3.76939C50.5394 3.76939 51.0485 3.79039 51.0948 3.76414Z" fill="white"/>
<path d="M50.2686 3.75783C50.1277 3.76302 50.1747 3.76302 50.2686 3.75783V3.75783Z" fill="white"/>
<path d="M54.9758 0.890625L53.0781 0.880126L53.2633 0.890625L54.9758 0.890625Z" fill="white"/>
<path d="M49.668 3.8125H50.1771L50.2234 3.802L49.668 3.8125Z" fill="white"/>
<path d="M54.013 1.08594C54.2907 1.08069 54.6146 1.03345 54.2907 1.0072C53.5038 1.02295 54.2444 1.07019 54.013 1.08594Z" fill="white"/>
<path d="M50.3458 3.59984C49.6978 3.61033 50.0681 3.57359 49.8829 3.55784C49.4664 3.55259 49.4664 3.58934 49.2812 3.60508C49.6515 3.59984 50.0681 3.62083 50.3458 3.59984Z" fill="white"/>
<path d="M48.3691 3.75696C50.7759 3.76746 47.5823 3.67822 48.184 3.64673C48.6005 3.64148 49.1559 3.61523 48.7857 3.58374C48.1377 3.57849 47.0732 3.57849 46.4252 3.54175C45.8698 3.54175 46.7492 3.58374 46.0086 3.57849C46.0086 3.59424 46.0086 3.60999 45.7772 3.61523C45.1755 3.62573 43.6944 3.62573 44.0184 3.64148C45.2681 3.73071 46.2401 3.54175 47.6286 3.65198L47.2583 3.67822C47.86 3.66772 48.1377 3.70972 48.5542 3.72547L46.7955 3.75171L48.3691 3.75696Z" fill="white"/>
<path d="M53.3204 1.04163L53.2734 1.04688C53.3204 1.04688 53.3204 1.04163 53.3673 1.04163H53.3204Z" fill="white"/>
<path d="M52.7266 1.02332L53.3283 1.03906L53.3745 1.02856L52.7266 1.02332Z" fill="white"/>
<path d="M53.2775 1.04932C53.1837 1.05457 53.1367 1.05981 53.1367 1.07031L53.2775 1.04932Z" fill="white"/>
<path d="M53.0409 0.811558C52.6243 0.806308 51.7449 0.853549 51.6523 0.816805C51.7449 0.869296 52.8094 0.832554 53.0409 0.811558Z" fill="white"/>
<path d="M50.2683 2.13281L50.6849 2.08557C50.1757 2.06457 50.2683 2.12231 50.2683 2.13281Z" fill="white"/>
<path d="M51.2846 1.05461L51.2383 1.08085C51.3308 1.0861 51.3771 1.10185 51.5623 1.0966C52.0714 1.0756 51.4697 1.0651 51.2846 1.05461Z" fill="white"/>
<path d="M51.1927 1.20044L50.6836 1.21094H50.8224L51.1927 1.20044Z" fill="white"/>
<path d="M48.734 0.886719H49.058L48.7803 0.828978C49.0117 0.813231 49.3357 0.802733 49.6134 0.797484C49.4282 0.792235 49.3819 0.771239 49.1505 0.807982C49.058 0.802733 49.0117 0.786985 48.8265 0.792234C48.6877 0.834227 48.3637 0.855224 48.734 0.886719Z" fill="white"/>
<path d="M46.9386 0.928878C47.5403 0.886885 46.2906 0.907881 46.1518 0.871137L46.1055 0.886886C46.198 0.913131 46.522 0.934127 46.9386 0.928878Z" fill="white"/>
<path d="M37.5367 3.47054L37.3516 3.48104C37.4904 3.50728 37.6755 3.53353 37.583 3.56502C38.0921 3.53878 38.8326 3.51778 39.3418 3.54928L39.2955 3.59127C39.388 3.58602 39.4806 3.57552 39.6658 3.58077L39.712 3.57027C40.2674 3.51778 40.8691 3.58077 41.4245 3.58077L41.1468 3.64376C42.3039 3.67525 41.7022 3.61227 42.1188 3.58077L42.6279 3.59652L42.2114 3.53878C42.2576 3.52828 42.0725 3.62801 41.6097 3.57552L41.7948 3.56502C40.9617 3.52828 40.7303 3.49154 39.7583 3.53878C39.0641 3.53878 37.4441 3.52828 37.5367 3.47054Z" fill="white"/>
<path d="M39.7605 3.60547L40.8251 3.60022L39.668 3.57922C39.7143 3.58447 39.8531 3.58972 39.7605 3.60547Z" fill="white"/>
<path d="M46.6486 0.781617C46.2321 0.792115 45.3527 0.802614 45.1212 0.755372C44.427 0.813112 43.8716 0.734375 43.0385 0.755372L42.9922 0.781617C43.5013 0.786866 44.7047 0.786866 45.0287 0.807863C45.5841 0.802614 46.4172 0.82361 46.6486 0.781617Z" fill="white"/>
<path d="M42.0765 3.67722C41.7988 3.67722 41.3822 3.66672 41.3359 3.69821C41.6599 3.71396 41.9839 3.68772 42.0765 3.67722Z" fill="white"/>
<path d="M44.5343 1.15625C44.7658 1.14575 45.2286 1.1615 45.0897 1.11951L44.1641 1.151L44.5343 1.15625Z" fill="white"/>
<path d="M39.5273 3.64319L40.0365 3.64844V3.63269L39.5273 3.64319Z" fill="white"/>
<path d="M38.873 3.70703L38.9193 3.70178L38.4102 3.69128L38.873 3.70703Z" fill="white"/>
<path d="M39.1611 3.66895L38.9297 3.70044L39.4388 3.71094L39.1611 3.66895Z" fill="white"/>
<path d="M40.3086 0.976194L40.7251 1.02344L41.3268 0.986693L40.3086 0.976194Z" fill="white"/>
<path d="M40.8668 0.937134C40.4965 0.931884 40.1725 0.889891 40.6353 0.868894C40.0799 0.874143 39.6171 0.847899 39.5245 0.805906L39.7097 0.795407C40.2188 0.77966 40.6353 0.769163 41.1907 0.72717L40.3114 0.721921V0.706174L40.0337 0.769162L39.432 0.721921C38.6914 0.716671 37.8583 0.674679 37.1641 0.721921L37.5806 0.779661C38.6914 0.816404 39.2931 0.889891 39.8485 0.984375L39.9874 0.95813C40.2188 0.937133 40.5428 0.937134 40.8668 0.937134Z" fill="white"/>
<path d="M29.7608 3.56348L30.0385 3.60547C30.5013 3.60022 30.6865 3.53198 31.3344 3.55823C32.075 3.61597 33.2783 3.51623 34.2503 3.57922C34.3429 3.57397 35.0834 3.55298 34.9446 3.60022C35.4537 3.54773 37.1199 3.62647 36.6571 3.50574L36.1479 3.50049L36.4256 3.52673L36.2405 3.53723C36.0554 3.54248 36.0091 3.52673 35.9165 3.52148C35.6851 3.58447 34.4817 3.54248 33.6486 3.53198C34.2966 3.49524 35.4537 3.52148 35.6851 3.45325C34.7131 3.54248 32.4452 3.46899 31.4733 3.47949L31.1956 3.42175C31.2419 3.49524 30.5476 3.56348 30.2236 3.58972C29.9922 3.59497 29.6219 3.54248 29.7608 3.56348Z" fill="white"/>
<path d="M32.5371 3.66406C33.0925 3.61682 34.3884 3.66931 34.6661 3.63782C33.9719 3.63257 32.7222 3.61682 32.0742 3.63257C32.3519 3.63257 32.3982 3.65356 32.5371 3.66406Z" fill="white"/>
<path d="M37.913 1.177V1.1665L37.2188 1.16125V1.17175L37.3576 1.1875C37.4965 1.17175 37.6816 1.177 37.913 1.177Z" fill="white"/>
<path d="M6.89728 3.3396C6.94356 3.33435 6.98984 3.3291 7.03613 3.3291C6.48072 3.3396 5.9716 3.35535 5.50876 3.34485L5.27734 3.37109H7.36011L6.89728 3.3396Z" fill="white"/>
<path d="M23.978 3.58801C24.1631 3.57227 24.5334 3.56177 24.5796 3.54077C25.0888 3.53027 25.4128 3.51452 25.783 3.55127C25.6905 3.55652 25.5516 3.56177 25.5516 3.57751C26.3847 3.59326 27.4955 3.56177 27.9121 3.63525L28.0972 3.62476L27.9584 3.60901H29.532C28.6526 3.61951 29.3932 3.54077 28.6063 3.53552C28.6526 3.55127 28.4675 3.55652 28.3749 3.56177L28.0972 3.53027C28.0046 3.53552 27.8658 3.54077 27.8658 3.55652C28.0509 3.55127 28.0972 3.56702 28.1898 3.57226L28.0046 3.58276C27.8195 3.58276 27.5881 3.58276 27.4955 3.56702C27.2641 3.52502 26.5698 3.46728 27.4955 3.44629C26.5698 3.47253 26.107 3.31506 25.459 3.42004C24.4871 3.48303 23.2837 3.37805 21.9877 3.43579L21.8489 3.42004C21.9415 3.3938 22.358 3.3833 22.6357 3.3728C22.034 3.3728 21.4323 3.3728 20.8769 3.38855C20.6455 3.3623 20.5067 3.34655 20.0438 3.3833C19.7661 3.36755 20.3678 3.33606 19.7661 3.32556L19.9513 3.31506C19.0256 3.3728 17.7759 3.24157 16.9891 3.33606C16.8965 3.33081 16.7577 3.32031 16.8503 3.30981L16.6651 3.32031C15.7857 3.35705 14.7675 3.29406 14.0269 3.24682C13.6104 3.31506 12.8698 3.21008 12.4533 3.26257C10.8334 3.19958 9.07458 3.23632 7.40836 3.17333C4.49248 3.12609 2.40971 3.13134 0.234375 3.11035L2.40971 3.16809L1.99316 3.20483H2.17829C2.64113 3.22582 1.94687 3.24682 1.90059 3.25732C2.08573 3.25732 2.31714 3.26257 2.456 3.24682L2.91883 3.28881L3.2891 3.26257C3.56681 3.25732 3.61309 3.28357 3.75194 3.29406C4.81647 3.28881 5.09417 3.3413 6.34383 3.30981L6.20498 3.29406L6.76039 3.25732L7.03809 3.28881L7.08437 3.26257C7.22322 3.24682 7.40836 3.25207 7.63978 3.25207C7.73235 3.26782 8.01005 3.27307 7.91748 3.29406C8.61174 3.29406 8.84316 3.29406 9.44485 3.32031L9.07458 3.34655C8.79687 3.29931 8.33403 3.40429 8.05633 3.32556C7.73235 3.32556 7.45464 3.32556 7.13066 3.33606C7.31579 3.33081 7.50093 3.3413 7.68606 3.33606C8.05633 3.3413 8.38032 3.3833 7.91748 3.40429L8.61174 3.3938C8.93572 3.48828 10.8334 3.3413 11.8979 3.42004L11.7128 3.40429C11.8516 3.37805 12.1756 3.39904 12.407 3.3938C12.5921 3.3518 11.435 3.3623 12.1756 3.32556C12.7773 3.33606 13.055 3.36755 13.055 3.41479C12.8698 3.42004 12.731 3.44629 12.4996 3.43579C12.5921 3.44104 12.6847 3.45154 12.6384 3.46203C13.4253 3.3833 14.2584 3.44629 15.0915 3.44104L15.1377 3.41479L13.9344 3.40429C13.7955 3.38855 13.5178 3.3728 13.6567 3.34655C15.1377 3.29406 15.7857 3.42004 17.1742 3.40954L17.128 3.42004C17.6834 3.44629 17.9611 3.56702 18.4239 3.46728L17.6834 3.3938L17.8685 3.3833C18.0536 3.3833 18.285 3.3833 18.3776 3.39904L18.609 3.3623L20.4141 3.43054C20.3215 3.45154 19.8587 3.47778 20.1364 3.49353L20.3215 3.48303L20.4604 3.49878L21.0621 3.46203C21.2472 3.50403 21.5712 3.47253 21.8952 3.46728C22.4043 3.44104 24.1631 3.42529 25.1813 3.46203C24.6722 3.47778 24.0705 3.53552 23.5614 3.49353L24.1631 3.53552C23.5614 3.58276 22.4043 3.53027 21.8952 3.56177C22.0803 3.56177 22.3117 3.56177 22.4043 3.57751C22.1729 3.60376 21.9877 3.63 21.7563 3.65625C22.4969 3.65625 23.0986 3.55652 23.978 3.58801ZM26.9864 3.55652L26.2921 3.55127L26.1533 3.53552L26.9864 3.55652ZM3.42796 3.23107L4.26106 3.23632C4.12221 3.29406 3.84451 3.21533 3.52052 3.25732C3.61309 3.24682 3.47424 3.23632 3.42796 3.23107ZM4.90904 3.26782L4.30735 3.21008C4.58505 3.20483 5.04789 3.17858 5.55701 3.19433C5.55701 3.20483 5.60329 3.21008 5.60329 3.22058C5.78843 3.22058 6.01985 3.22582 6.25127 3.23107C6.48268 3.22582 6.66782 3.22582 6.89924 3.23107C6.66782 3.23632 6.48268 3.23107 6.25127 3.23107C5.97356 3.23632 5.74214 3.24157 5.60329 3.22058C5.27931 3.21008 5.04789 3.22058 4.90904 3.26782ZM11.5276 3.3518C11.2036 3.30456 10.4631 3.32556 9.8614 3.31506C10.5094 3.28881 11.2499 3.32031 11.5276 3.3518Z" fill="white"/>
<path d="M28.3363 3.70312L28.3826 3.68738L28.0586 3.66113L28.3363 3.70312Z" fill="white"/>
<path d="M31.5664 0.677151C31.7053 0.698147 32.2144 0.682399 32.4458 0.671901C32.0292 0.666652 31.7978 0.650905 31.5664 0.677151Z" fill="white"/>
<path d="M30.4531 0.734606C30.8234 0.750353 31.1937 0.739854 31.7028 0.718858C31.1011 0.676865 31.0548 0.724108 30.4531 0.734606Z" fill="white"/>
<path d="M30.5409 0.665293L29.3838 0.644297L29.7078 0.670543L29.1523 0.691539L29.6615 0.696788C29.9855 0.702037 30.6797 0.717784 30.5409 0.665293Z" fill="white"/>
<path d="M28.8398 1.10132C28.9787 1.11182 29.0713 1.13281 29.3027 1.13281C29.3027 1.10657 28.9787 1.09082 28.8861 1.06457L28.8398 1.10132Z" fill="white"/>
<path d="M27.1641 1.80078L27.6732 1.79028C27.4418 1.77978 27.2566 1.75879 27.1641 1.80078Z" fill="white"/>
<path d="M28.0962 1.77933L27.6797 1.78983C27.8185 1.79508 27.9574 1.79508 28.0962 1.77933Z" fill="white"/>
<path d="M27.4947 1.70801C27.865 1.69751 27.4947 1.67126 27.4021 1.65552C27.217 1.69226 27.4947 1.729 27.5873 1.75L27.7724 1.7395L27.4947 1.70801Z" fill="white"/>
<path d="M27.4846 1.8433C26.7441 1.8538 27.1144 1.76981 26.3738 1.78031V1.79606H26.559C27.0218 1.8223 26.2812 1.8328 26.2812 1.85905C26.559 1.8433 27.4383 1.92203 27.4846 1.8433Z" fill="white"/>
<path d="M28.507 0.632569L28.1367 0.658815L28.6458 0.664062C28.7384 0.643066 28.5996 0.637818 28.507 0.632569Z" fill="white"/>
<path d="M24.7708 2.78579L24.2617 2.78054C24.3543 2.80154 24.5394 2.79629 24.7708 2.79629V2.78579Z" fill="white"/>
<path d="M25.7255 1.84241C25.8181 1.77418 25.2627 1.81617 24.7998 1.77943C24.1519 1.77943 23.9205 1.81617 23.5039 1.83717C24.1982 1.84242 25.0776 1.86341 25.7255 1.84241Z" fill="white"/>
<path d="M26.7027 0.611188L25.3142 0.579695C25.2679 0.653182 26.1936 0.616437 26.7027 0.611188Z" fill="white"/>
<path d="M26.707 0.611938L26.9847 0.617188C26.9384 0.611938 26.8459 0.611938 26.707 0.611938Z" fill="white"/>
<path d="M26.2505 0.652412L25.3711 0.673408L25.8802 0.678658C26.0653 0.683907 26.2968 0.66816 26.2505 0.652412Z" fill="white"/>
<path d="M21.5742 1.73303C21.8056 1.76452 22.2685 1.74353 22.5462 1.73828C22.4999 1.73303 22.4536 1.72778 22.4536 1.72253C22.1759 1.72778 21.6668 1.71203 21.5742 1.73303Z" fill="white"/>
<path d="M22.7705 1.75C22.7242 1.74475 22.6316 1.74475 22.5391 1.74475C22.6316 1.75 22.7242 1.75 22.7705 1.75Z" fill="white"/>
<path d="M23.2787 1.74854C23.0935 1.74329 22.9084 1.74854 22.7695 1.74854C22.8158 1.75378 22.8621 1.75903 22.8621 1.76953L23.2787 1.74854Z" fill="white"/>
<path d="M24.0148 1.1875L23.6908 1.16125L23.6445 1.1875H24.0148Z" fill="white"/>
<path d="M19.0658 3.42069L19.0195 3.44694C19.251 3.45218 19.5287 3.49943 19.6675 3.46268C19.1121 3.47843 19.2972 3.42069 19.0658 3.42069Z" fill="white"/>
<path d="M23.6073 0.566652L23.4221 0.577151L22.9593 0.535158C22.6816 0.540407 22.4039 0.540406 22.2188 0.556154C22.4965 0.582399 22.6816 0.613895 23.1907 0.603397C23.3296 0.592899 23.6073 0.587649 23.6073 0.566652Z" fill="white"/>
<path d="M21.6568 1.80355L20.2682 1.79305V1.8088C20.0831 1.76156 19.6666 1.7983 19.25 1.7878C20.0368 1.8088 20.8699 1.82454 21.6105 1.8193L21.6568 1.80355Z" fill="white"/>
<path d="M21.2461 0.725098V0.740844L21.9404 0.746094V0.730347L21.2461 0.725098Z" fill="white"/>
<path d="M21.8435 0.245971V0.256469L22.3526 0.261719V0.25122L21.8435 0.245971Z" fill="white"/>
<path d="M19.898 0.48938L19.25 0.510376L19.8517 0.515625L19.898 0.48938Z" fill="white"/>
<path d="M18.8822 0.467164C18.2343 0.493409 17.9566 0.461914 17.3086 0.48291L19.1137 0.503906C19.0211 0.493408 18.836 0.482911 18.8822 0.467164Z" fill="white"/>
<path d="M14.5356 1.46094L14.7207 1.45044C14.5356 1.45569 14.4893 1.43994 14.3967 1.43469C14.7207 1.38745 15.3224 1.42419 15.8315 1.41895C16.3869 1.47669 16.8035 1.43469 17.4052 1.41895C17.4978 1.42419 17.5903 1.43469 17.544 1.44519L18.2383 1.45044C18.0994 1.43469 17.544 1.42944 17.8217 1.3927C17.4052 1.3822 17.0349 1.39795 16.8961 1.42419C16.5721 1.4137 16.8498 1.38745 16.8035 1.3717L16.2944 1.36645C16.3407 1.3822 16.1555 1.38745 16.063 1.3927C15.415 1.34546 14.5819 1.40845 14.0265 1.37695C14.3505 1.36645 14.2579 1.32971 14.4893 1.31396C12.314 1.36645 10.6478 1.26147 8.14844 1.27197L9.99979 1.29822C9.58323 1.30346 9.25925 1.32971 8.75013 1.31396C9.76837 1.32971 10.5089 1.33496 11.8049 1.36121V1.37695C12.0826 1.3927 12.638 1.40845 13.0082 1.3717C13.2397 1.3822 13.1471 1.39795 13.1008 1.4137C13.7488 1.39795 14.119 1.43469 14.5356 1.46094Z" fill="white"/>
<path d="M18.9337 0.898069L18.4246 0.892822L18.332 0.945312C18.5172 0.929565 18.8874 0.919066 18.9337 0.898069Z" fill="white"/>
<path d="M15.1797 1.92957L15.3205 1.94531C15.3674 1.93481 15.3205 1.92957 15.1797 1.92957Z" fill="white"/>
<path d="M15.1817 1.93433C14.9966 1.93433 14.6726 1.93957 14.4412 1.92908C14.4875 1.94482 14.3949 1.96057 14.1172 1.96582C14.256 2.01831 15.1354 1.92908 15.0891 1.99732L16.2925 2.00781L14.9503 1.97107C14.9966 1.95532 14.9966 1.94482 15.1817 1.93433Z" fill="white"/>
<path d="M14.2148 1.89429C14.2148 1.91003 14.3074 1.92053 14.4463 1.92578C14.4 1.91528 14.3074 1.89954 14.2148 1.89429Z" fill="white"/>
<path d="M16.0558 1.49609L16.102 1.46985C15.7781 1.50134 15.5466 1.4541 15.2689 1.44885L15.2227 1.4751C15.3615 1.50134 15.7781 1.4856 16.0558 1.49609Z" fill="white"/>
<path d="M16.7102 0.547785L15.8771 0.51629L16.2937 0.479546C15.7846 0.469048 15.4606 0.516291 14.8589 0.495294C13.6555 0.442803 12.591 0.45855 11.3413 0.406059C11.0173 0.432305 10.5545 0.40081 10.2768 0.427055C9.48998 0.364066 7.59234 0.416557 7.31464 0.327323C7.82376 0.290579 8.10146 0.353569 8.70315 0.337822C8.42545 0.311576 7.36092 0.322074 7.77748 0.280081C7.49978 0.243338 7.17579 0.301078 6.94437 0.259085C6.2964 0.206594 6.2964 0.332573 5.50957 0.29058L6.11126 0.337822L5.41701 0.348319C4.95417 0.364066 4.53761 0.358818 4.63018 0.395562H4.95417L4.81532 0.379814L5.00045 0.369316C5.50957 0.458551 6.8518 0.306327 7.36092 0.411309C7.54606 0.406059 7.68491 0.379814 7.91633 0.390313C8.0089 0.395562 8.10146 0.40606 8.05518 0.416558C8.61059 0.421807 9.48998 0.385062 9.7214 0.453301C11.4339 0.432304 13.2852 0.547785 14.6738 0.500544L15.1366 0.542536C15.6457 0.45855 16.1086 0.584529 16.7102 0.547785Z" fill="white"/>
<path d="M11.152 0.319701L10.9206 0.356445C10.6429 0.356445 10.504 0.324951 10.3189 0.309204C10.18 0.319702 9.90234 0.32495 9.90234 0.345947C10.18 0.340698 10.2263 0.366943 10.3652 0.377441C10.3652 0.361694 10.3652 0.345948 10.5966 0.340699C10.5503 0.377442 11.1057 0.377441 11.3834 0.398438L12.124 0.377441C11.0132 0.393189 11.8463 0.340698 11.152 0.319701Z" fill="white"/>
<path d="M15.7422 0.162596V0.178344L16.7604 0.183594V0.167846L15.7422 0.162596Z" fill="white"/>
<path d="M10.5909 3.17578L10.6372 3.14954L9.75781 3.17053L10.5909 3.17578Z" fill="white"/>
<path d="M14.2449 0.4375C14.6615 0.427002 14.2912 0.395507 14.1523 0.385009L14.2449 0.4375Z" fill="white"/>
<path d="M12.9588 0.953125V0.937378L11.5703 0.92688V0.942628L12.9588 0.953125Z" fill="white"/>
<path d="M12.1802 1.42621L11.3008 1.42096V1.4367C11.5785 1.43145 12.1339 1.4472 12.1802 1.42621Z" fill="white"/>
<path d="M9.16182 1.14758C9.11554 1.12658 9.43953 1.12134 9.57838 1.11084L8.375 1.10034L10.0875 1.22107C10.5041 1.23157 11.0595 1.21057 11.2446 1.25781L12.0314 1.21057C10.9669 1.22632 9.8098 1.21057 9.16182 1.14758Z" fill="white"/>
<path d="M8.23769 2.93213L8.19141 2.94788L9.20965 2.95312L9.25593 2.94263L8.23769 2.93213Z" fill="white"/>
<path d="M6.85547 0.859375C6.85547 0.854126 6.85547 0.843628 6.90503 0.838379C6.85547 0.838379 6.85547 0.848877 6.85547 0.859375Z" fill="white"/>
<path d="M7.22414 1.05566L7.68698 1.09766L7.73326 1.05566C8.14982 1.02417 8.52009 1.08716 8.93664 1.05041L8.28867 1.03467L8.65894 1.00842L8.33495 1.00842C7.9184 0.992674 7.03901 0.976928 7.40928 0.919188C6.90015 0.924437 6.80759 0.882443 6.80759 0.856198C6.7613 0.861447 6.71502 0.866695 6.62245 0.871944C6.57617 0.913937 7.73326 0.940183 6.99272 0.982176C7.40928 0.982176 7.68698 1.00317 7.96468 1.01367L7.22414 1.05566Z" fill="white"/>
<path d="M3.75391 3.35413L4.26303 3.35938C4.35559 3.35413 4.49445 3.34888 4.49445 3.33313C4.21674 3.35413 4.03161 3.32263 3.75391 3.35413Z" fill="white"/>
<path d="M6.62109 1.33069L7.13022 1.33594L7.31535 1.32544L6.62109 1.33069Z" fill="white"/>
<path d="M5.73828 1.98682L6.2474 2.00781L5.73828 1.97632V1.98682Z" fill="white"/>
<path d="M8.47656 0.0465085V0.0622552C8.61541 0.0727533 8.70798 0.09375 8.9394 0.09375L8.98568 0.0517579L8.47656 0.0465085Z" fill="white"/>
<path d="M6.90095 1.03894L6.94723 1.0127C6.29926 1.03369 5.51244 1.00745 4.95703 1.05469C5.83642 1.05469 6.16041 1.01794 6.90095 1.03894Z" fill="white"/>
<path d="M6.85986 1.07906L6.02675 1.05807L5.98047 1.08431C6.1656 1.10006 6.76729 1.11581 6.85986 1.07906Z" fill="white"/>
<path d="M3.27734 2.32275V2.33325L4.29559 2.34375L4.34187 2.328L3.27734 2.32275Z" fill="white"/>
<path d="M7.6011 0.0694904C7.36968 0.0642413 7.18454 0.0432447 6.95312 0.0379956C7.13826 0.0537428 7.27711 0.0747395 7.6011 0.0694904Z" fill="white"/>
<path d="M6.52344 0.0585938L6.89371 0.0323483C6.80114 0.0323483 6.66229 0.0323489 6.52344 0.0428471V0.0585938Z" fill="white"/>
<path d="M1.11081 3.27061L0.601689 3.25487L0.555405 3.28111C0.416554 3.29686 0.231419 3.29161 0 3.29161C0.37027 3.3336 0.833108 3.26011 1.11081 3.27061Z" fill="white"/>
<path d="M3.80019 1.03503L3.75391 1.04553L4.44816 1.05078L4.49445 1.04028L3.80019 1.03503Z" fill="white"/>
</svg>
