<svg width="32" height="32" viewBox="0 0 32 32" fill="none" xmlns="http://www.w3.org/2000/svg">
<g clip-path="url(#clip0_1404_1187)">
<path d="M16 7.33333C14.9369 7.33307 13.8976 7.6481 13.0135 8.23857C12.1294 8.82905 11.4403 9.66844 11.0334 10.6506C10.6264 11.6327 10.5199 12.7135 10.7272 13.7562C10.9345 14.7989 11.4465 15.7567 12.1982 16.5085C12.9499 17.2602 13.9077 17.7721 14.9504 17.9795C15.9932 18.1868 17.0739 18.0802 18.0561 17.6733C19.0382 17.2663 19.8776 16.5772 20.4681 15.6932C21.0586 14.8091 21.3736 13.7698 21.3733 12.7067C21.3716 11.2821 20.8049 9.91641 19.7976 8.90909C18.7903 7.90178 17.4246 7.3351 16 7.33333ZM16 16.748C15.2006 16.7483 14.4192 16.5115 13.7544 16.0676C13.0896 15.6237 12.5714 14.9926 12.2653 14.2541C11.9593 13.5157 11.879 12.7031 12.0348 11.9191C12.1906 11.135 12.5754 10.4148 13.1405 9.84948C13.7057 9.28416 14.4258 8.89913 15.2098 8.74308C15.9937 8.58704 16.8064 8.667 17.5449 8.97283C18.2834 9.27867 18.9147 9.79666 19.3588 10.4613C19.8029 11.1259 20.04 11.9073 20.04 12.7067C20.0386 13.7778 19.6125 14.8047 18.8552 15.5623C18.0979 16.3198 17.0712 16.7462 16 16.748ZM16.9427 20.9053H15.0587C13.8546 20.9076 12.6721 21.2254 11.6292 21.8271C10.5863 22.4288 9.71926 23.2934 9.11467 24.3347C9.05565 24.4364 8.97079 24.5206 8.8687 24.5789C8.7666 24.6372 8.6509 24.6675 8.53333 24.6667C8.41623 24.6672 8.30112 24.6364 8.2 24.5773C8.12412 24.5334 8.05764 24.475 8.00436 24.4054C7.95109 24.3358 7.91206 24.2564 7.88952 24.1717C7.86698 24.087 7.86137 23.9986 7.87301 23.9117C7.88464 23.8249 7.9133 23.7411 7.95733 23.6653C8.67938 22.4222 9.71467 21.3901 10.96 20.6719C12.2053 19.9537 13.6171 19.5745 15.0547 19.572H16.9387C18.3759 19.5744 19.7874 19.9535 21.0325 20.6715C22.2775 21.3895 23.3127 22.4213 24.0347 23.664C24.0829 23.7399 24.1153 23.8247 24.1299 23.9135C24.1445 24.0022 24.141 24.0929 24.1196 24.1803C24.0982 24.2676 24.0594 24.3497 24.0054 24.4216C23.9515 24.4936 23.8835 24.5538 23.8057 24.5988C23.7278 24.6438 23.6417 24.6726 23.5524 24.6835C23.4632 24.6943 23.3727 24.687 23.2863 24.6619C23.2 24.6369 23.1196 24.5946 23.05 24.5377C22.9804 24.4808 22.923 24.4103 22.8813 24.3307C22.2765 23.2911 21.4101 22.4279 20.3682 21.827C19.3264 21.2261 18.1454 20.9083 16.9427 20.9053ZM32 4.4V10.784C32 10.9608 31.9298 11.1304 31.8047 11.2554C31.6797 11.3804 31.5101 11.4507 31.3333 11.4507C31.1565 11.4507 30.987 11.3804 30.8619 11.2554C30.7369 11.1304 30.6667 10.9608 30.6667 10.784V4.4C30.6649 3.58721 30.3412 2.80821 29.7665 2.23348C29.1918 1.65875 28.4128 1.33509 27.6 1.33333H21.3333C21.1565 1.33333 20.987 1.2631 20.8619 1.13807C20.7369 1.01305 20.6667 0.843478 20.6667 0.666667C20.6667 0.489856 20.7369 0.320286 20.8619 0.195262C20.987 0.0702379 21.1565 0 21.3333 0L27.6 0C28.7663 0.00211479 29.8842 0.466364 30.7089 1.29107C31.5336 2.11577 31.9979 3.2337 32 4.4ZM0 10.784V4.4C0.00211479 3.2337 0.466364 2.11577 1.29107 1.29107C2.11577 0.466364 3.2337 0.00211479 4.4 0L10.6667 0C10.8435 0 11.013 0.0702379 11.1381 0.195262C11.2631 0.320286 11.3333 0.489856 11.3333 0.666667C11.3333 0.843478 11.2631 1.01305 11.1381 1.13807C11.013 1.2631 10.8435 1.33333 10.6667 1.33333H4.4C3.58721 1.33509 2.80821 1.65875 2.23348 2.23348C1.65875 2.80821 1.33509 3.58721 1.33333 4.4V10.784C1.33333 10.9608 1.2631 11.1304 1.13807 11.2554C1.01305 11.3804 0.843478 11.4507 0.666667 11.4507C0.489856 11.4507 0.320286 11.3804 0.195262 11.2554C0.0702379 11.1304 0 10.9608 0 10.784ZM32 21.4507V27.6C31.9979 28.7663 31.5336 29.8842 30.7089 30.7089C29.8842 31.5336 28.7663 31.9979 27.6 32H21.3333C21.1565 32 20.987 31.9298 20.8619 31.8047C20.7369 31.6797 20.6667 31.5101 20.6667 31.3333C20.6667 31.1565 20.7369 30.987 20.8619 30.8619C20.987 30.7369 21.1565 30.6667 21.3333 30.6667H27.6C28.4128 30.6649 29.1918 30.3412 29.7665 29.7665C30.3412 29.1918 30.6649 28.4128 30.6667 27.6V21.4507C30.6667 21.2739 30.7369 21.1043 30.8619 20.9793C30.987 20.8542 31.1565 20.784 31.3333 20.784C31.5101 20.784 31.6797 20.8542 31.8047 20.9793C31.9298 21.1043 32 21.2739 32 21.4507ZM0 27.6V21.4507C0 21.2739 0.0702379 21.1043 0.195262 20.9793C0.320286 20.8542 0.489856 20.784 0.666667 20.784C0.843478 20.784 1.01305 20.8542 1.13807 20.9793C1.2631 21.1043 1.33333 21.2739 1.33333 21.4507V27.6C1.33509 28.4128 1.65875 29.1918 2.23348 29.7665C2.80821 30.3412 3.58721 30.6649 4.4 30.6667H10.6667C10.8435 30.6667 11.013 30.7369 11.1381 30.8619C11.2631 30.987 11.3333 31.1565 11.3333 31.3333C11.3333 31.5101 11.2631 31.6797 11.1381 31.8047C11.013 31.9298 10.8435 32 10.6667 32H4.4C3.2337 31.9979 2.11577 31.5336 1.29107 30.7089C0.466364 29.8842 0.00211479 28.7663 0 27.6Z" fill="url(#paint0_linear_1404_1187)"/>
</g>
<defs>
<linearGradient id="paint0_linear_1404_1187" x1="10.6626" y1="-2.61374e-07" x2="31.3194" y2="3.81675" gradientUnits="userSpaceOnUse">
<stop stop-color="#C3942F"/>
<stop offset="0.234" stop-color="#D89C27"/>
<stop offset="0.449" stop-color="#E7DC96"/>
<stop offset="0.669" stop-color="#DFC86F"/>
<stop offset="0.849" stop-color="#D89C27"/>
<stop offset="1" stop-color="#C99C30"/>
</linearGradient>
<clipPath id="clip0_1404_1187">
<rect width="32" height="32" fill="white"/>
</clipPath>
</defs>
</svg>
