<svg width="34" height="34" viewBox="0 0 34 34" fill="none" xmlns="http://www.w3.org/2000/svg">
<path d="M30.8125 7.08333V12.75C30.8125 13.0318 30.7006 13.302 30.5013 13.5013C30.302 13.7006 30.0318 13.8125 29.75 13.8125C29.4682 13.8125 29.198 13.7006 28.9987 13.5013C28.7994 13.302 28.6875 13.0318 28.6875 12.75V7.08333C28.6875 6.10583 27.8942 5.3125 26.9167 5.3125H21.25C20.9682 5.3125 20.698 5.20056 20.4987 5.0013C20.2994 4.80204 20.1875 4.53179 20.1875 4.25C20.1875 3.96821 20.2994 3.69796 20.4987 3.4987C20.698 3.29944 20.9682 3.1875 21.25 3.1875H26.9167C27.9496 3.18862 28.9398 3.59944 29.6702 4.32981C30.4006 5.06017 30.8114 6.05044 30.8125 7.08333ZM29.75 20.1875C29.4682 20.1875 29.198 20.2994 28.9987 20.4987C28.7994 20.698 28.6875 20.9682 28.6875 21.25V26.9167C28.6875 27.8942 27.8942 28.6875 26.9167 28.6875H21.25C20.9682 28.6875 20.698 28.7994 20.4987 28.9987C20.2994 29.198 20.1875 29.4682 20.1875 29.75C20.1875 30.0318 20.2994 30.302 20.4987 30.5013C20.698 30.7006 20.9682 30.8125 21.25 30.8125H26.9167C27.9496 30.8114 28.9398 30.4006 29.6702 29.6702C30.4006 28.9398 30.8114 27.9496 30.8125 26.9167V21.25C30.8125 20.9682 30.7006 20.698 30.5013 20.4987C30.302 20.2994 30.0318 20.1875 29.75 20.1875ZM12.75 28.6875H7.08333C6.10583 28.6875 5.3125 27.8942 5.3125 26.9167V21.25C5.3125 20.9682 5.20056 20.698 5.0013 20.4987C4.80204 20.2994 4.53179 20.1875 4.25 20.1875C3.96821 20.1875 3.69796 20.2994 3.4987 20.4987C3.29944 20.698 3.1875 20.9682 3.1875 21.25V26.9167C3.18862 27.9496 3.59944 28.9398 4.32981 29.6702C5.06017 30.4006 6.05044 30.8114 7.08333 30.8125H12.75C13.0318 30.8125 13.302 30.7006 13.5013 30.5013C13.7006 30.302 13.8125 30.0318 13.8125 29.75C13.8125 29.4682 13.7006 29.198 13.5013 28.9987C13.302 28.7994 13.0318 28.6875 12.75 28.6875ZM13.8125 4.25C13.8125 3.96821 13.7006 3.69796 13.5013 3.4987C13.302 3.29944 13.0318 3.1875 12.75 3.1875H7.08333C6.05044 3.18862 5.06017 3.59944 4.32981 4.32981C3.59944 5.06017 3.18862 6.05044 3.1875 7.08333V12.75C3.1875 13.0318 3.29944 13.302 3.4987 13.5013C3.69796 13.7006 3.96821 13.8125 4.25 13.8125C4.53179 13.8125 4.80204 13.7006 5.0013 13.5013C5.20056 13.302 5.3125 13.0318 5.3125 12.75V7.08333C5.3125 6.10583 6.10583 5.3125 7.08333 5.3125H12.75C13.0318 5.3125 13.302 5.20056 13.5013 5.0013C13.7006 4.80204 13.8125 4.53179 13.8125 4.25ZM10.2708 11.3333V12.75C10.2708 13.0318 10.3828 13.302 10.582 13.5013C10.7813 13.7006 11.0515 13.8125 11.3333 13.8125C11.6151 13.8125 11.8854 13.7006 12.0846 13.5013C12.2839 13.302 12.3958 13.0318 12.3958 12.75V11.3333C12.3958 11.0515 12.2839 10.7813 12.0846 10.582C11.8854 10.3828 11.6151 10.2708 11.3333 10.2708C11.0515 10.2708 10.7813 10.3828 10.582 10.582C10.3828 10.7813 10.2708 11.0515 10.2708 11.3333ZM22.6667 13.8125C22.9485 13.8125 23.2187 13.7006 23.418 13.5013C23.6172 13.302 23.7292 13.0318 23.7292 12.75V11.3333C23.7292 11.0515 23.6172 10.7813 23.418 10.582C23.2187 10.3828 22.9485 10.2708 22.6667 10.2708C22.3849 10.2708 22.1146 10.3828 21.9154 10.582C21.7161 10.7813 21.6042 11.0515 21.6042 11.3333V12.75C21.6042 13.3365 22.0802 13.8125 22.6667 13.8125ZM17.6375 19.1958C17.736 19.2949 17.8531 19.3735 17.9821 19.4272C18.111 19.4808 18.2493 19.5085 18.389 19.5085C18.5287 19.5085 18.667 19.4808 18.796 19.4272C18.925 19.3735 19.0421 19.2949 19.1406 19.1958C19.7192 18.618 20.1011 17.8726 20.232 17.0655C20.363 16.2583 20.2364 15.4304 19.8702 14.6993L18.6589 12.2768C18.5973 12.1509 18.5113 12.0384 18.4059 11.9458C18.3006 11.8533 18.178 11.7825 18.0452 11.7376C17.9123 11.6926 17.7719 11.6744 17.632 11.684C17.4921 11.6936 17.3555 11.7308 17.23 11.7934C17.1046 11.856 16.9928 11.9429 16.901 12.049C16.8093 12.155 16.7395 12.2782 16.6956 12.4114C16.6517 12.5445 16.6346 12.6851 16.6452 12.8249C16.6559 12.9647 16.6941 13.101 16.7578 13.226L17.9704 15.6485C18.1365 15.9811 18.1937 16.3575 18.134 16.7244C18.0742 17.0913 17.9005 17.4301 17.6375 17.6927C17.4385 17.892 17.3268 18.162 17.3268 18.4436C17.3268 18.7251 17.4385 18.9952 17.6375 19.1944V19.1958ZM23.6158 21.7246C23.7403 21.4749 23.761 21.1862 23.6734 20.9213C23.5858 20.6565 23.3971 20.437 23.1483 20.3107C22.8985 20.1847 22.6092 20.1615 22.3425 20.2463C22.0758 20.331 21.853 20.5169 21.7218 20.7641C21.6722 20.8576 20.4893 23.0208 17 23.0208C13.5107 23.0208 12.3278 20.8576 12.2825 20.7754C12.2246 20.6436 12.1405 20.525 12.0353 20.4267C11.9301 20.3284 11.8061 20.2525 11.6707 20.2037C11.5353 20.1548 11.3913 20.1339 11.2476 20.1423C11.1039 20.1508 10.9634 20.1883 10.8347 20.2527C10.7059 20.3171 10.5916 20.4069 10.4986 20.5168C10.4057 20.6267 10.336 20.7544 10.2939 20.892C10.2517 21.0297 10.238 21.1745 10.2535 21.3176C10.2691 21.4607 10.3135 21.5992 10.3842 21.7246C10.4522 21.8648 12.1493 25.1458 17 25.1458C21.8507 25.1458 23.5464 21.8648 23.6158 21.7246Z" fill="url(#paint0_linear_1404_1204)"/>
<defs>
<linearGradient id="paint0_linear_1404_1204" x1="12.3924" y1="3.1875" x2="30.2249" y2="6.48243" gradientUnits="userSpaceOnUse">
<stop stop-color="#C3942F"/>
<stop offset="0.234" stop-color="#D89C27"/>
<stop offset="0.449" stop-color="#E7DC96"/>
<stop offset="0.669" stop-color="#DFC86F"/>
<stop offset="0.849" stop-color="#D89C27"/>
<stop offset="1" stop-color="#C99C30"/>
</linearGradient>
</defs>
</svg>
