<svg width="32" height="32" viewBox="0 0 32 32" fill="none" xmlns="http://www.w3.org/2000/svg">
<path fill-rule="evenodd" clip-rule="evenodd" d="M15.9993 1.66666C23.91 1.66666 30.3327 8.08932 30.3327 16C30.3327 23.9107 23.91 30.3333 15.9993 30.3333C8.08868 30.3333 1.66602 23.9107 1.66602 16C1.66602 8.08932 8.08868 1.66666 15.9993 1.66666ZM15.9993 3.66666C9.19268 3.66666 3.66602 9.19332 3.66602 16C3.66602 22.8067 9.19268 28.3333 15.9993 28.3333C22.806 28.3333 28.3327 22.8067 28.3327 16C28.3327 9.19332 22.806 3.66666 15.9993 3.66666Z" fill="url(#paint0_linear_1404_1195)"/>
<path fill-rule="evenodd" clip-rule="evenodd" d="M19.934 12.8C19.7213 12.9452 19.4607 13.0028 19.2066 12.9609C18.9525 12.9189 18.7243 12.7807 18.5694 12.5749C18.4146 12.369 18.345 12.1114 18.3751 11.8556C18.4053 11.5998 18.5329 11.3655 18.7313 11.2013C19.4567 10.656 20.3567 10.3333 21.3327 10.3333C22.3087 10.3333 23.2087 10.656 23.934 11.2013C24.039 11.2803 24.1274 11.3792 24.1941 11.4923C24.2609 11.6054 24.3047 11.7306 24.3231 11.8606C24.3415 11.9907 24.3341 12.1231 24.3013 12.2503C24.2685 12.3775 24.211 12.497 24.132 12.602C24.0531 12.7069 23.9542 12.7953 23.8411 12.8621C23.7279 12.9289 23.6028 12.9727 23.4727 12.9911C23.3426 13.0095 23.2102 13.002 23.083 12.9693C22.9558 12.9365 22.8363 12.8789 22.7314 12.8C22.342 12.5066 21.858 12.3333 21.3327 12.3333C20.8074 12.3333 20.3234 12.5066 19.934 12.8ZM9.26735 12.8C9.05459 12.9452 8.79407 13.0028 8.53993 12.9609C8.28579 12.9189 8.05758 12.7807 7.90274 12.5749C7.74789 12.369 7.67832 12.1114 7.70848 11.8556C7.73864 11.5998 7.86621 11.3655 8.06468 11.2013C8.79002 10.656 9.69002 10.3333 10.666 10.3333C11.642 10.3333 12.542 10.656 13.2673 11.2013C13.4793 11.3608 13.6193 11.598 13.6564 11.8606C13.6936 12.1233 13.6248 12.39 13.4653 12.602C13.3059 12.814 13.0687 12.9539 12.806 12.9911C12.5433 13.0282 12.2767 12.9595 12.0647 12.8C11.6753 12.5066 11.1913 12.3333 10.666 12.3333C10.1407 12.3333 9.65668 12.5066 9.26735 12.8ZM8.66602 16.3333H23.3327C23.5979 16.3333 23.8523 16.4387 24.0398 16.6262C24.2273 16.8137 24.3327 17.0681 24.3327 17.3333C24.3327 21.932 20.598 25.6666 15.9993 25.6666C11.4007 25.6666 7.66602 21.932 7.66602 17.3333C7.66602 17.0681 7.77137 16.8137 7.95891 16.6262C8.14645 16.4387 8.4008 16.3333 8.66602 16.3333ZM9.74468 18.3333C10.2247 21.3546 12.8447 23.6666 15.9993 23.6666C19.154 23.6666 21.774 21.3546 22.254 18.3333H9.74468Z" fill="url(#paint1_linear_1404_1195)"/>
<defs>
<linearGradient id="paint0_linear_1404_1195" x1="11.218" y1="1.66666" x2="29.7229" y2="5.08583" gradientUnits="userSpaceOnUse">
<stop stop-color="#C3942F"/>
<stop offset="0.234" stop-color="#D89C27"/>
<stop offset="0.449" stop-color="#E7DC96"/>
<stop offset="0.669" stop-color="#DFC86F"/>
<stop offset="0.849" stop-color="#D89C27"/>
<stop offset="1" stop-color="#C99C30"/>
</linearGradient>
<linearGradient id="paint1_linear_1404_1195" x1="13.2196" y1="10.3333" x2="23.9144" y2="12.4813" gradientUnits="userSpaceOnUse">
<stop stop-color="#C3942F"/>
<stop offset="0.234" stop-color="#D89C27"/>
<stop offset="0.449" stop-color="#E7DC96"/>
<stop offset="0.669" stop-color="#DFC86F"/>
<stop offset="0.849" stop-color="#D89C27"/>
<stop offset="1" stop-color="#C99C30"/>
</linearGradient>
</defs>
</svg>
