<svg width="46" height="46" viewBox="0 0 46 46" fill="none" xmlns="http://www.w3.org/2000/svg">
<path d="M16.5614 12.6034L16.4824 15.4468C16.4697 15.9138 16.5709 16.3768 16.7773 16.7959C16.9837 17.215 17.289 17.5775 17.6669 17.852C18.0449 18.1266 18.484 18.3051 18.9463 18.3719C19.4086 18.4387 19.8803 18.3919 20.3205 18.2355L23 17.2825L25.6795 18.2355C26.1198 18.3931 26.5919 18.4405 27.0547 18.3736C27.5175 18.3067 27.9569 18.1275 28.3346 17.8517C28.7122 17.577 29.0172 17.2145 29.2233 16.7955C29.4294 16.3765 29.5304 15.9136 29.5176 15.4468L29.4386 12.6034L31.1736 10.348C31.7515 9.59617 31.9226 8.60861 31.6264 7.70586C31.4822 7.26193 31.232 6.85985 30.8973 6.53447C30.5627 6.20909 30.1537 5.97022 29.7059 5.83855L26.979 5.03499L25.3719 2.68899C25.1075 2.30393 24.7534 1.98905 24.3401 1.77153C23.9268 1.55402 23.4667 1.44043 22.9996 1.44057C22.5326 1.44071 22.0726 1.55458 21.6594 1.77234C21.2462 1.99011 20.8922 2.30521 20.6281 2.69042L19.021 5.03642L16.2926 5.84142C15.8451 5.97329 15.4364 6.21226 15.102 6.53763C14.7677 6.863 14.5176 7.26497 14.3736 7.70874C14.2283 8.15306 14.1938 8.62613 14.2729 9.08684C14.3521 9.54754 14.5426 9.98195 14.8278 10.3523L16.5614 12.6063V12.6034ZM20.3234 7.64836C20.6411 7.55492 20.9171 7.35367 21.1039 7.08055L23 4.31192L24.8961 7.08055C25.0829 7.35367 25.3589 7.55349 25.6766 7.64836L28.8952 8.59711L26.8482 11.2565C26.6456 11.5185 26.54 11.8426 26.5492 12.1736L26.6412 15.5273L23.4801 14.4032C23.1686 14.2924 22.8285 14.2924 22.517 14.4032L19.3559 15.5287L19.4479 12.175C19.4569 11.844 19.3513 11.5201 19.1489 11.2579L17.1019 8.59855L20.3205 7.6498L20.3234 7.64836ZM37.375 28.7509H30.1875V25.8759C30.1875 23.4982 28.2526 21.5634 25.875 21.5634H20.125C17.7474 21.5634 15.8125 23.4982 15.8125 25.8759V27.3134H8.625C6.24737 27.3134 4.3125 29.2482 4.3125 31.6259V38.8134C4.3125 41.191 6.24737 43.1259 8.625 43.1259H37.375C39.7526 43.1259 41.6875 41.191 41.6875 38.8134V33.0634C41.6875 30.6857 39.7526 28.7509 37.375 28.7509ZM7.1875 38.8134V31.6259C7.1875 30.8338 7.8315 30.1884 8.625 30.1884H15.8125V40.2509H8.625C7.8315 40.2509 7.1875 39.6054 7.1875 38.8134ZM27.3125 40.2509H18.6875V25.8759C18.6875 25.0838 19.3315 24.4384 20.125 24.4384H25.875C26.6685 24.4384 27.3125 25.0838 27.3125 25.8759V40.2509ZM38.8125 38.8134C38.8125 39.6054 38.1685 40.2509 37.375 40.2509H30.1875V31.6259H37.375C38.1685 31.6259 38.8125 32.2713 38.8125 33.0634V38.8134ZM9.8325 4.12074L11.0774 4.83949C11.2408 4.93425 11.4212 4.99582 11.6085 5.02066C11.7957 5.0455 11.986 5.03313 12.1685 4.98425C12.3509 4.93536 12.5219 4.85094 12.6716 4.73581C12.8214 4.62068 12.9469 4.47712 13.041 4.31336C13.2316 3.9832 13.2833 3.59084 13.1846 3.22259C13.0859 2.85434 12.845 2.54037 12.5149 2.34974L11.27 1.63099C10.94 1.44337 10.5492 1.39389 10.1829 1.49335C9.81653 1.59281 9.50441 1.83313 9.31461 2.16186C9.1248 2.4906 9.07273 2.88107 9.16976 3.24806C9.26678 3.61504 9.50503 3.92876 9.8325 4.12074ZM33.4851 17.777L34.73 18.4957C34.8934 18.5905 35.0739 18.6521 35.2611 18.6769C35.4483 18.7018 35.6386 18.6894 35.8211 18.6405C36.0035 18.5916 36.1745 18.5072 36.3242 18.3921C36.474 18.2769 36.5995 18.1334 36.6936 17.9696C36.8842 17.6394 36.9359 17.2471 36.8372 16.8788C36.7386 16.5106 36.4977 16.1966 36.1675 16.006L34.9226 15.2872C34.5926 15.0996 34.2018 15.0501 33.8355 15.1496C33.4692 15.2491 33.157 15.4894 32.9672 15.8181C32.7774 16.1469 32.7254 16.5373 32.8224 16.9043C32.9194 17.2713 33.1577 17.585 33.4851 17.777ZM8.625 11.5009H10.0625C10.4437 11.5009 10.8094 11.3494 11.079 11.0798C11.3485 10.8102 11.5 10.4446 11.5 10.0634C11.5 9.68211 11.3485 9.31648 11.079 9.0469C10.8094 8.77731 10.4437 8.62586 10.0625 8.62586H8.625C8.24375 8.62586 7.87812 8.77731 7.60853 9.0469C7.33895 9.31648 7.1875 9.68211 7.1875 10.0634C7.1875 10.4446 7.33895 10.8102 7.60853 11.0798C7.87812 11.3494 8.24375 11.5009 8.625 11.5009ZM34.5 10.0634C34.5 10.4446 34.6514 10.8102 34.921 11.0798C35.1906 11.3494 35.5563 11.5009 35.9375 11.5009H37.375C37.7562 11.5009 38.1219 11.3494 38.3915 11.0798C38.661 10.8102 38.8125 10.4446 38.8125 10.0634C38.8125 9.68211 38.661 9.31648 38.3915 9.0469C38.1219 8.77731 37.7562 8.62586 37.375 8.62586H35.9375C35.5563 8.62586 35.1906 8.77731 34.921 9.0469C34.6514 9.31648 34.5 9.68211 34.5 10.0634ZM34.2053 5.03211C34.4497 5.03211 34.6969 4.9703 34.9226 4.83949L36.1675 4.12074C36.3323 4.02704 36.4769 3.90166 36.5931 3.75184C36.7093 3.60201 36.7946 3.43069 36.8443 3.24773C36.894 3.06478 36.907 2.8738 36.8825 2.68581C36.8581 2.49781 36.7967 2.31651 36.7019 2.15233C36.6071 1.98815 36.4808 1.84434 36.3302 1.72919C36.1796 1.61403 36.0077 1.5298 35.8244 1.48134C35.6412 1.43289 35.4501 1.42116 35.2623 1.44685C35.0744 1.47253 34.8935 1.53511 34.73 1.63099L33.4851 2.34974C33.2099 2.5073 32.9945 2.75155 32.8727 3.04438C32.7508 3.3372 32.7293 3.66213 32.8116 3.96844C32.8938 4.27476 33.0752 4.54523 33.3273 4.73765C33.5794 4.93007 33.8882 5.03361 34.2053 5.03211ZM11.0774 15.2872L9.8325 16.006C9.55724 16.1635 9.34188 16.4078 9.22004 16.7006C9.09819 16.9935 9.07672 17.3184 9.15896 17.6247C9.2412 17.931 9.42254 18.2015 9.67466 18.3939C9.92679 18.5863 10.2355 18.6899 10.5527 18.6884C10.7971 18.6884 11.0443 18.6265 11.27 18.4957L12.5149 17.777C12.8423 17.585 13.0806 17.2713 13.1776 16.9043C13.2746 16.5373 13.2226 16.1469 13.0328 15.8181C12.843 15.4894 12.5308 15.2491 12.1645 15.1496C11.7982 15.0501 11.4074 15.0996 11.0774 15.2872Z" fill="url(#paint0_linear_931_20373)"/>
<defs>
<linearGradient id="paint0_linear_931_20373" x1="41.6875" y1="1.4336" x2="-1.49123" y2="8.71644" gradientUnits="userSpaceOnUse">
<stop stop-color="#DCAD81"/>
<stop offset="0.25" stop-color="#D8A97C"/>
<stop offset="0.5" stop-color="#FFD2A4"/>
<stop offset="0.75" stop-color="#D8A97C"/>
<stop offset="1" stop-color="#DCAD81"/>
</linearGradient>
</defs>
</svg>
