<svg width="200" height="37" viewBox="0 0 200 37" fill="none" xmlns="http://www.w3.org/2000/svg">
<g clip-path="url(#clip0_1388_5)">
<mask id="mask0_1388_5" style="mask-type:luminance" maskUnits="userSpaceOnUse" x="1" y="32" width="195" height="5">
<path d="M184.546 36.6838H185.124V36.1154H184.546V36.6838ZM189.683 36.6838H190.258V36.1154H189.683V36.6838ZM194.819 36.6838H195.395V36.1154H194.828L194.819 36.6838ZM1.86865 32.6083V33.1001H3.22427V36.6941H3.76861V33.1001H5.1284V32.6186L1.86865 32.6083ZM11.9253 32.6083V34.2823H9.78965V32.6083H9.24323V36.6838H9.78965V34.7638H11.9253V36.6838H12.4696V32.6083H11.9253ZM16.9306 32.6083V36.6838H19.9944V36.2002H17.4729V34.8155H19.7483V34.3401H17.4729V33.1001H19.9026V32.6186L16.9306 32.6083ZM32.1282 32.6083V34.9602C32.1282 35.4727 32.0434 35.8171 31.8738 35.9935C31.7027 36.1733 31.417 36.2642 31.0166 36.2642C30.8105 36.2709 30.6063 36.2239 30.4243 36.1278C30.2675 36.0424 30.1464 35.9048 30.0823 35.7393C30.0033 35.4859 29.9695 35.2209 29.9821 34.956V32.6083H29.4357V34.9602C29.4175 35.3112 29.4692 35.6623 29.588 35.9935C29.688 36.2407 29.8746 36.444 30.1135 36.566C30.4062 36.7118 30.7309 36.7829 31.0583 36.7727C31.3939 36.7874 31.727 36.7086 32.0198 36.5453C32.2496 36.4112 32.4273 36.2045 32.5245 35.9584C32.6299 35.6441 32.6779 35.3138 32.6663 34.9829V32.6269L32.1282 32.6083ZM39.8323 32.6083V35.8075L37.6737 32.6083H37.1148V36.6838H37.6341V33.4825L39.7948 36.6838H40.3537V32.6083H39.8323ZM44.9023 36.6838H45.4383V32.6083H44.894L44.9023 36.6838ZM60.663 32.6083V34.9602C60.663 35.4727 60.5782 35.8171 60.4085 35.9935C60.2375 36.1733 59.9539 36.2642 59.5514 36.2642C59.3453 36.2706 59.1412 36.2236 58.9591 36.1278C58.8028 36.0419 58.6818 35.9044 58.617 35.7393C58.5381 35.4859 58.5042 35.2209 58.5169 34.956V32.6083H57.9726V34.9602C57.9587 35.3066 58.0118 35.6524 58.129 35.979C58.2291 36.2263 58.4156 36.4295 58.6546 36.5515C58.9473 36.6971 59.272 36.7682 59.5993 36.7582C59.935 36.7732 60.2682 36.6945 60.5608 36.5308C60.7907 36.3962 60.9689 36.1898 61.0676 35.9439C61.1711 35.6293 61.2184 35.2992 61.2073 34.9684V32.6124L60.663 32.6083ZM65.6684 32.6083V36.6838H68.7383V36.2002H66.2002V34.8155H68.4755V34.3401H66.2002V33.1001H68.6299V32.6186L65.6684 32.6083ZM85.5501 32.6083V36.6838H88.6096V36.2002H86.0819V34.8155H88.3573V34.3401H86.0819V33.1001H88.5116V32.6186L85.5501 32.6083ZM95.6255 32.6083V35.8075L93.4648 32.6083H92.9059V36.6838H93.4064V33.4825L95.5671 36.6838H96.126V32.6083H95.6255ZM108.304 32.6083V36.6838H111.374V36.2002H108.84V34.8155H111.115V34.3401H108.84V33.1001H111.269V32.6186L108.304 32.6083ZM128.838 32.6083V36.6838H129.385V34.8238H131.316V34.3422H129.385V33.1001H131.614V32.6186L128.838 32.6083ZM141.521 34.8031H142.472C142.675 34.7958 142.878 34.8188 143.074 34.8713C143.206 34.9121 143.32 34.995 143.4 35.1069C143.48 35.2235 143.522 35.3623 143.519 35.5037C143.52 35.6223 143.492 35.7394 143.437 35.8447C143.389 35.9376 143.317 36.0161 143.229 36.072C143.132 36.1284 143.026 36.1662 142.916 36.1836C142.793 36.1999 142.669 36.2068 142.545 36.2043H141.521V34.8031ZM141.521 33.0898H142.342C142.552 33.0812 142.763 33.1 142.968 33.1456C143.084 33.1788 143.184 33.2521 143.25 33.3523C143.315 33.4592 143.349 33.5825 143.348 33.7077C143.352 33.8349 143.316 33.9602 143.243 34.0653C143.165 34.1673 143.054 34.2401 142.928 34.2719C142.759 34.3101 142.585 34.3261 142.411 34.3195H141.521V33.0898ZM140.957 32.6083V36.6838H142.528C142.751 36.6875 142.973 36.6653 143.191 36.6176C143.354 36.5793 143.507 36.509 143.642 36.411C143.77 36.3092 143.873 36.1789 143.942 36.0307C144.024 35.8655 144.066 35.6837 144.065 35.4996C144.068 35.2755 143.995 35.0569 143.856 34.8796C143.711 34.6978 143.51 34.5679 143.283 34.5096C143.459 34.4279 143.609 34.2991 143.715 34.1376C143.809 33.9905 143.858 33.8199 143.858 33.6457C143.857 33.4543 143.801 33.2671 143.696 33.1063C143.592 32.9357 143.435 32.8025 143.25 32.7261C143.009 32.6344 142.752 32.5922 142.495 32.6021L140.957 32.6083ZM148.365 32.6083V36.6838H151.435V36.2002H148.914V34.8155H151.189V34.3401H148.914V33.1001H151.344V32.6186L148.365 32.6083ZM156.916 33.8152C157.011 33.5618 157.085 33.3012 157.137 33.0361C157.202 33.2572 157.298 33.5383 157.429 33.8834L157.859 35.0098H156.464L156.916 33.8152ZM156.858 32.6083L155.277 36.6838H155.857L156.307 35.4438H158.028L158.508 36.6838H159.133L157.45 32.6083H156.858ZM165.801 32.6083V34.9602C165.801 35.4727 165.716 35.8171 165.546 35.9935C165.375 36.1733 165.092 36.2642 164.689 36.2642C164.483 36.2706 164.279 36.2236 164.097 36.1278C163.941 36.0419 163.82 35.9044 163.755 35.7393C163.676 35.4859 163.642 35.2209 163.655 34.956V32.6083H163.11V34.9602C163.095 35.3119 163.151 35.663 163.273 35.9935C163.372 36.241 163.558 36.4445 163.797 36.566C164.089 36.7116 164.414 36.7826 164.741 36.7727C165.078 36.7873 165.411 36.7086 165.705 36.5453C165.934 36.41 166.111 36.2037 166.21 35.9584C166.313 35.6438 166.36 35.3136 166.349 34.9829V32.6269L165.801 32.6083ZM170.485 32.6083V33.1001H171.841V36.6941H172.383V33.1001H173.745V32.6186L170.485 32.6083ZM180.554 32.6083L179.757 33.8069C179.581 34.0742 179.431 34.314 179.307 34.5262C179.178 34.2968 179.038 34.0673 178.89 33.8379L178.079 32.5979H177.415L179.005 34.9602V36.6858H179.541V34.9602L181.18 32.6103L180.554 32.6083ZM78.82 32.6868C78.6077 32.7668 78.4266 32.9115 78.3027 33.1001C78.1871 33.2706 78.1254 33.4713 78.1255 33.6767C78.1231 33.8564 78.1731 34.0329 78.2694 34.1851C78.3801 34.3473 78.5318 34.4777 78.7094 34.5634C78.9638 34.6775 79.2303 34.7628 79.504 34.8176C79.7518 34.8725 79.9962 34.9415 80.2361 35.0242C80.3794 35.0695 80.5076 35.1523 80.6073 35.264C80.6811 35.3601 80.72 35.478 80.7178 35.5988C80.7186 35.7244 80.6784 35.8469 80.6031 35.948C80.5123 36.0641 80.389 36.151 80.2486 36.1981C80.0725 36.2628 79.8858 36.2944 79.698 36.2911C79.4832 36.2934 79.2702 36.2519 79.0723 36.1692C78.9056 36.1055 78.7609 35.9957 78.6552 35.853C78.5591 35.7014 78.5012 35.5292 78.4863 35.3508L77.9732 35.3735C77.9773 35.6338 78.0562 35.8876 78.2006 36.1051C78.3444 36.3221 78.5508 36.4914 78.7929 36.5908C79.0901 36.7066 79.4079 36.7615 79.7272 36.752C80.0005 36.7561 80.2715 36.7018 80.5218 36.5928C80.7415 36.4977 80.929 36.342 81.062 36.1444C81.1852 35.9607 81.2505 35.7449 81.2497 35.5244C81.2538 35.318 81.1942 35.1154 81.0786 34.9436C80.943 34.7601 80.759 34.6171 80.5468 34.5303C80.2533 34.4196 79.9504 34.3352 79.6417 34.2782C79.3507 34.237 79.0712 34.1379 78.82 33.9867C78.768 33.9418 78.7267 33.8862 78.699 33.8237C78.6712 33.7611 78.6577 33.6933 78.6594 33.6251C78.6599 33.5404 78.6808 33.457 78.7204 33.3819C78.7599 33.3068 78.8169 33.2421 78.8867 33.1931C79.0998 33.0559 79.3529 32.9926 79.6062 33.0133C79.8623 32.9974 80.116 33.0705 80.3237 33.22C80.4076 33.2938 80.4761 33.3832 80.5251 33.4832C80.5741 33.5832 80.6028 33.6918 80.6094 33.8028L81.1308 33.7656C81.1226 33.5364 81.0504 33.3139 80.9222 33.1229C80.7908 32.929 80.6032 32.7791 80.3841 32.693C80.1275 32.5919 79.8531 32.5427 79.577 32.5483C79.3193 32.5446 79.0633 32.5916 78.8241 32.6868M101.469 32.6868C101.257 32.7668 101.076 32.9115 100.952 33.1001C100.836 33.2706 100.775 33.4713 100.775 33.6767C100.772 33.8567 100.823 34.0335 100.921 34.1851C101.03 34.3477 101.181 34.4782 101.359 34.5634C101.613 34.6772 101.88 34.7625 102.153 34.8176C102.401 34.8721 102.644 34.9411 102.883 35.0242C103.027 35.0692 103.156 35.152 103.257 35.264C103.331 35.3596 103.37 35.4779 103.367 35.5988C103.368 35.7244 103.328 35.8469 103.252 35.948C103.162 36.0641 103.038 36.151 102.898 36.1981C102.722 36.2628 102.535 36.2944 102.347 36.2911C102.133 36.2934 101.92 36.2519 101.722 36.1692C101.555 36.1055 101.41 35.9957 101.305 35.853C101.208 35.7014 101.151 35.5292 101.136 35.3508L100.62 35.3962C100.625 35.6565 100.703 35.9103 100.848 36.1278C100.992 36.3445 101.198 36.5135 101.44 36.6135C101.738 36.7295 102.057 36.7844 102.376 36.7747C102.649 36.7786 102.919 36.7243 103.169 36.6156C103.389 36.5205 103.576 36.3648 103.709 36.1671C103.832 35.9835 103.898 35.7676 103.897 35.5471C103.901 35.3408 103.841 35.1381 103.726 34.9664C103.59 34.7829 103.406 34.6399 103.194 34.553C102.9 34.439 102.595 34.3518 102.285 34.2926C101.994 34.2515 101.714 34.1524 101.463 34.0012C101.411 33.9562 101.37 33.9005 101.343 33.8379C101.316 33.7754 101.302 33.7077 101.305 33.6395C101.305 33.555 101.325 33.4717 101.364 33.3965C101.403 33.3214 101.46 33.2566 101.53 33.2076C101.743 33.0703 101.996 33.0071 102.249 33.0278C102.505 33.0119 102.759 33.085 102.967 33.2345C103.051 33.3082 103.119 33.3977 103.168 33.4977C103.217 33.5977 103.246 33.7063 103.252 33.8173L103.774 33.7801C103.766 33.5508 103.693 33.3283 103.565 33.1373C103.434 32.9434 103.246 32.7936 103.027 32.7075C102.771 32.6064 102.498 32.5572 102.222 32.5628C101.964 32.5589 101.707 32.6059 101.467 32.7013M50.7065 35.8654C50.4197 35.5252 50.2769 35.0882 50.3081 34.646C50.3081 34.0983 50.4416 33.6891 50.7106 33.406C50.9362 33.1835 51.2304 33.0422 51.5465 33.0048C51.8625 32.9673 52.182 33.0358 52.4542 33.1993C52.6739 33.3374 52.8468 33.5375 52.9505 33.7739C53.0688 34.0465 53.1264 34.3411 53.1195 34.6378C53.1195 35.2185 52.961 35.6546 52.6419 35.9418C52.4129 35.758 52.147 35.6248 51.8619 35.5512L51.7305 35.9439C51.9223 35.9918 52.1048 36.0707 52.2706 36.1774C52.0965 36.2506 51.9092 36.2878 51.7201 36.287C51.5299 36.2925 51.3409 36.2571 51.1659 36.1832C50.9909 36.1094 50.8342 35.9988 50.7065 35.8592M50.7065 32.7881C50.4004 32.963 50.1553 33.2261 50.0036 33.5424C49.8367 33.8843 49.7524 34.26 49.7575 34.6398C49.7511 35.0169 49.8347 35.3901 50.0015 35.729C50.1559 36.0422 50.3995 36.3037 50.7023 36.4812C51.0086 36.6599 51.3584 36.7521 51.7138 36.7479C52.0676 36.7518 52.4162 36.6642 52.7253 36.4936C52.9908 36.7072 53.2894 36.8768 53.6096 36.9958L53.7681 36.6197C53.5204 36.5226 53.2857 36.3956 53.0694 36.2415C53.2746 36.0452 53.4341 35.8067 53.5366 35.543C53.6429 35.253 53.6952 34.9463 53.6909 34.6378C53.6977 34.2611 53.6155 33.8882 53.4511 33.5486C53.2986 33.2353 53.0554 32.9741 52.7524 32.7984C52.4417 32.6172 52.0867 32.5243 51.7263 32.5297C51.3692 32.5242 51.0171 32.6133 50.7065 32.7881ZM121.593 35.8612C121.312 35.5413 121.168 35.1252 121.193 34.7018C121.193 34.0873 121.332 33.6492 121.61 33.3874C121.741 33.2602 121.897 33.16 122.067 33.0926C122.238 33.0252 122.421 32.9919 122.604 32.9947C122.864 32.9922 123.119 33.0639 123.339 33.2014C123.558 33.3394 123.731 33.5395 123.835 33.7759C123.953 34.0501 124.01 34.346 124.004 34.6439C124.032 35.0845 123.891 35.5193 123.61 35.8612C123.479 35.9962 123.323 36.1036 123.15 36.177C122.976 36.2504 122.79 36.2883 122.601 36.2883C122.413 36.2883 122.226 36.2504 122.053 36.177C121.88 36.1036 121.723 35.9962 121.593 35.8612ZM121.176 33.1022C120.809 33.4852 120.625 34.0157 120.625 34.6936C120.624 35.0466 120.704 35.3953 120.861 35.7124C121.012 36.0266 121.253 36.2902 121.553 36.4709C121.868 36.6587 122.229 36.7547 122.596 36.7479C122.945 36.7495 123.289 36.6627 123.595 36.4957C123.905 36.3271 124.155 36.069 124.313 35.7558C124.477 35.4117 124.563 35.0362 124.565 34.6557C124.567 34.2751 124.485 33.8987 124.325 33.5527C124.173 33.2388 123.929 32.9769 123.626 32.8005C123.316 32.6187 122.961 32.525 122.6 32.5297C122.336 32.5202 122.074 32.5663 121.829 32.665C121.585 32.7637 121.364 32.9127 121.182 33.1022" fill="white"/>
</mask>
<g mask="url(#mask0_1388_5)">
<path d="M195.403 32.5359H1.86865V37H195.403V32.5359Z" fill="url(#paint0_linear_1388_5)"/>
</g>
<mask id="mask1_1388_5" style="mask-type:luminance" maskUnits="userSpaceOnUse" x="148" y="22" width="50" height="6">
<path d="M150.564 27.0365C150.459 26.9517 150.407 26.7409 150.407 26.4165V23.118C150.407 22.7853 150.455 22.5766 150.553 22.498C150.651 22.4195 150.883 22.3761 151.248 22.3761C152.082 22.3761 152.683 22.5586 153.05 22.9238C153.417 23.2854 153.602 23.8786 153.602 24.697C153.602 25.5981 153.431 26.2346 153.087 26.6066C152.743 26.9786 152.153 27.1667 151.317 27.1667C150.918 27.1667 150.666 27.1233 150.564 27.0406M148.641 22.1694V22.3761H148.883C149.098 22.3518 149.315 22.3906 149.508 22.4877C149.6 22.5621 149.646 22.744 149.646 23.0292V26.5281C149.646 26.8091 149.602 26.9848 149.51 27.0571C149.317 27.1529 149.1 27.1909 148.885 27.1667H148.639V27.3878H151.177C151.545 27.3916 151.914 27.366 152.278 27.3113C152.539 27.2741 152.793 27.1952 153.029 27.0778C153.461 26.8572 153.822 26.5215 154.072 26.1085C154.314 25.6917 154.439 25.2175 154.432 24.7363C154.44 24.2911 154.331 23.8516 154.115 23.4611C153.898 23.0809 153.579 22.7671 153.194 22.5538C152.946 22.4144 152.677 22.3153 152.397 22.2603C152.03 22.1941 151.657 22.1637 151.283 22.1694H148.641ZM155.164 22.1694V22.3761H155.408C155.623 22.3525 155.84 22.3905 156.034 22.4856C156.126 22.5614 156.172 22.7412 156.172 23.025V26.5281C156.172 26.816 156.126 26.9958 156.034 27.0675C155.842 27.1666 155.624 27.2062 155.408 27.1811H155.164V27.3878H159.899L160.257 25.7345L159.965 25.6849C159.876 26.1185 159.658 26.5158 159.34 26.8257C159.002 27.0647 158.592 27.1808 158.178 27.1543H157.761C157.537 27.1747 157.311 27.1377 157.106 27.0468C156.998 26.9765 156.943 26.7947 156.943 26.4971V24.73H157.073H157.281C157.698 24.73 157.99 24.7983 158.153 24.9367C158.316 25.0752 158.399 25.3211 158.405 25.6766H158.656V23.5934H158.405V23.6409C158.418 23.7661 158.401 23.8924 158.356 24.0103C158.312 24.1281 158.241 24.2343 158.149 24.3208C157.896 24.4807 157.597 24.5534 157.298 24.5275C157.233 24.5275 157.127 24.5275 156.981 24.5172H156.952V23.0374C156.928 22.8595 156.975 22.6793 157.083 22.5352C157.241 22.4379 157.427 22.3964 157.611 22.4174H158.153C158.513 22.39 158.874 22.4745 159.183 22.6592C159.442 22.8824 159.616 23.1853 159.68 23.519H159.936L159.786 22.1818L155.164 22.1694ZM165.782 22.1694V22.3761H166.028C166.24 22.3533 166.453 22.3913 166.643 22.4856C166.733 22.56 166.779 22.7398 166.779 23.0292V26.5281C166.779 26.8153 166.733 26.9972 166.643 27.0716C166.453 27.1659 166.24 27.2039 166.028 27.1811H165.776V27.3878H168.539V27.1811H168.297C168.082 27.2057 167.864 27.1661 167.672 27.0675C167.578 26.9951 167.532 26.8133 167.532 26.5281V23.025C167.532 22.7398 167.578 22.558 167.672 22.4836C167.865 22.3869 168.082 22.3481 168.297 22.372H168.539V22.1653L165.782 22.1694ZM178.898 22.1694V22.3761H179.123C179.24 22.366 179.358 22.3834 179.467 22.4269C179.575 22.4703 179.672 22.5386 179.749 22.6262C179.901 22.8698 179.969 23.1552 179.945 23.4404V26.4454L176.725 22.1653H175.14V22.372H175.461C175.561 22.3634 175.662 22.3775 175.756 22.4133C175.85 22.4491 175.935 22.5057 176.003 22.5786C176.137 22.7656 176.201 22.9929 176.183 23.2214V26.0362C176.183 26.4723 176.124 26.7719 176.006 26.9311C175.925 27.018 175.825 27.0848 175.714 27.1261C175.603 27.1674 175.483 27.182 175.365 27.1687H175.14V27.3754H177.455V27.1687H177.186C177.074 27.1802 176.961 27.1637 176.857 27.1207C176.753 27.0778 176.662 27.0097 176.592 26.9228C176.452 26.6489 176.392 26.3419 176.418 26.0362V22.9196L179.906 27.5015H180.187V23.3061C180.163 23.0527 180.224 22.7984 180.36 22.5828C180.436 22.5068 180.528 22.4488 180.629 22.413C180.731 22.3772 180.839 22.3646 180.946 22.3761H181.209V22.1694H178.898ZM181.764 22.1694V22.3761H182.01C182.221 22.3535 182.435 22.3915 182.625 22.4856C182.715 22.56 182.761 22.7398 182.761 23.0292V26.5281C182.761 26.8153 182.715 26.9972 182.625 27.0716C182.435 27.1657 182.221 27.2037 182.01 27.1811H181.764V27.3878H184.527V27.1811H184.285C184.07 27.2063 183.852 27.1667 183.66 27.0675C183.566 26.9951 183.52 26.8133 183.52 26.5281V23.025C183.52 22.7398 183.566 22.558 183.66 22.4836C183.853 22.3863 184.07 22.3475 184.285 22.372H184.527V22.1653L181.764 22.1694ZM188.89 22.1694V22.3761H189.118C189.234 22.3658 189.352 22.3832 189.461 22.4266C189.569 22.4701 189.666 22.5385 189.743 22.6262C189.895 22.8698 189.964 23.1552 189.939 23.4404V26.4454L186.719 22.1653H185.13V22.372H185.453C185.553 22.3634 185.654 22.3775 185.748 22.4133C185.842 22.4491 185.927 22.5057 185.995 22.5786C186.128 22.766 186.191 22.993 186.175 23.2214V26.0362C186.175 26.4723 186.116 26.7719 185.998 26.9311C185.917 27.0177 185.817 27.0843 185.706 27.1256C185.595 27.1669 185.475 27.1817 185.357 27.1687H185.13V27.3754H187.447V27.1687H187.178C187.066 27.1804 186.953 27.164 186.849 27.121C186.745 27.078 186.654 27.0099 186.584 26.9228C186.467 26.7595 186.41 26.464 186.41 26.0362V22.9196L189.898 27.5015H190.177V23.3061C190.153 23.0527 190.214 22.7984 190.35 22.5828C190.426 22.5068 190.518 22.4488 190.619 22.413C190.721 22.3772 190.829 22.3646 190.936 22.3761H191.188V22.1694H188.89ZM170.85 22.2707C170.529 22.414 170.244 22.6257 170.016 22.8907C169.789 23.1521 169.613 23.4536 169.499 23.7794C169.38 24.1239 169.321 24.4859 169.325 24.8499C169.31 25.201 169.366 25.5515 169.49 25.8808C169.613 26.2102 169.802 26.5117 170.045 26.7678C170.29 27.0119 170.583 27.2031 170.906 27.3293C171.229 27.4556 171.575 27.5142 171.922 27.5015C172.243 27.4982 172.561 27.4452 172.865 27.3444C173.045 27.2767 173.23 27.2242 173.419 27.1874C173.488 27.1856 173.556 27.2027 173.615 27.2369C173.679 27.2752 173.732 27.3275 173.772 27.3899H174.022V26.1705C174.022 25.8068 174.068 25.5877 174.16 25.5113C174.34 25.4124 174.547 25.372 174.752 25.3955V25.1888H172.596V25.3955C172.812 25.3886 173.027 25.434 173.221 25.5278C173.268 25.5781 173.302 25.6378 173.323 25.7028C173.343 25.7678 173.349 25.8364 173.34 25.9039V26.1871C173.349 26.34 173.32 26.4927 173.257 26.6326C173.194 26.7724 173.098 26.8953 172.977 26.991C172.672 27.1987 172.304 27.2977 171.935 27.2721C171.33 27.2721 170.892 27.0654 170.593 26.6727C170.295 26.2801 170.16 25.6518 170.16 24.8127C170.16 23.9736 170.308 23.3536 170.604 22.9196C170.743 22.7099 170.936 22.5397 171.162 22.426C171.388 22.3122 171.64 22.2587 171.893 22.2707C172.324 22.2591 172.745 22.4014 173.079 22.6716C173.435 22.9905 173.691 23.4025 173.82 23.86H174.028V22.2479H173.749C173.725 22.3223 173.681 22.3888 173.622 22.4402C173.569 22.4831 173.502 22.5058 173.434 22.5042C173.322 22.4917 173.215 22.4535 173.121 22.3926C172.984 22.3203 172.886 22.2686 172.821 22.2438C172.668 22.1797 172.51 22.1305 172.347 22.0971C172.188 22.064 172.025 22.0474 171.862 22.0475C171.509 22.0469 171.16 22.1223 170.84 22.2686M193.364 22.2686C193.044 22.413 192.759 22.6245 192.53 22.8886C192.302 23.1496 192.127 23.4512 192.014 23.7773C191.895 24.1217 191.836 24.4837 191.839 24.8479C191.824 25.1991 191.881 25.5496 192.005 25.879C192.128 26.2084 192.318 26.5098 192.561 26.7657C192.805 27.0104 193.098 27.202 193.421 27.3283C193.745 27.4547 194.091 27.5129 194.438 27.4994C194.758 27.4963 195.077 27.4433 195.38 27.3424C195.561 27.2748 195.748 27.2223 195.937 27.1853C196.005 27.1836 196.073 27.2007 196.131 27.2349C196.195 27.273 196.25 27.3254 196.29 27.3878H196.538V26.1685C196.538 25.8047 196.584 25.5857 196.676 25.5092C196.856 25.4106 197.063 25.3702 197.268 25.3935V25.1868H195.114V25.3935C195.33 25.3859 195.545 25.4313 195.739 25.5257C195.785 25.576 195.82 25.6358 195.841 25.7008C195.861 25.7657 195.867 25.8344 195.858 25.9019V26.185C195.867 26.338 195.839 26.4909 195.776 26.6308C195.712 26.7707 195.616 26.8935 195.495 26.9889C195.19 27.1967 194.822 27.2958 194.452 27.27C193.848 27.27 193.41 27.0633 193.109 26.6707C192.809 26.278 192.678 25.6497 192.678 24.8107C192.678 23.9716 192.826 23.3516 193.122 22.9176C193.261 22.7078 193.454 22.5377 193.679 22.4239C193.905 22.3101 194.157 22.2566 194.411 22.2686C194.841 22.257 195.262 22.3993 195.595 22.6696C195.95 22.9884 196.207 23.4004 196.336 23.8579H196.555V22.2459H196.275C196.251 22.3202 196.207 22.3867 196.148 22.4381C196.094 22.4811 196.027 22.5038 195.958 22.5021C195.847 22.4894 195.74 22.4512 195.645 22.3906C195.548 22.3358 195.448 22.2862 195.345 22.2418C195.193 22.177 195.034 22.1279 194.872 22.095C194.712 22.062 194.55 22.0453 194.388 22.0454C194.034 22.0446 193.685 22.12 193.364 22.2666M161.813 22.436C161.678 22.5604 161.572 22.7116 161.5 22.8797C161.428 23.0478 161.392 23.229 161.396 23.4115C161.395 23.5978 161.433 23.7823 161.509 23.953C161.585 24.1207 161.694 24.2718 161.83 24.3973C162.142 24.6496 162.502 24.8391 162.887 24.9553L163.131 25.0463C163.687 25.2612 164.041 25.4458 164.193 25.6001C164.269 25.6815 164.328 25.7768 164.366 25.8807C164.405 25.9846 164.423 26.095 164.418 26.2057C164.424 26.3496 164.399 26.493 164.344 26.6266C164.29 26.7602 164.208 26.8809 164.103 26.9807C163.993 27.0819 163.864 27.1605 163.723 27.2119C163.582 27.2633 163.432 27.2866 163.281 27.2804C162.914 27.2792 162.559 27.1504 162.278 26.9166C161.962 26.6555 161.725 26.3129 161.592 25.9267H161.35L161.413 27.3403H161.642C161.669 27.2798 161.712 27.2281 161.767 27.1915C161.831 27.157 161.903 27.1412 161.976 27.146C162.15 27.1842 162.32 27.2425 162.481 27.3196C162.725 27.4275 162.987 27.4871 163.254 27.4953C163.695 27.51 164.125 27.3552 164.454 27.0633C164.607 26.9304 164.73 26.7656 164.812 26.5806C164.895 26.3957 164.935 26.195 164.931 25.9928C164.935 25.8036 164.905 25.6153 164.841 25.4369C164.78 25.2751 164.685 25.1274 164.564 25.0029C164.241 24.7223 163.862 24.5112 163.452 24.3828L163.284 24.3167L163.085 24.2464C162.755 24.1427 162.445 23.9826 162.17 23.7732C162.08 23.6975 162.009 23.6029 161.961 23.4962C161.913 23.3817 161.889 23.2586 161.89 23.1346C161.885 23.0147 161.907 22.8952 161.954 22.7847C162.002 22.6743 162.073 22.5756 162.164 22.496C162.369 22.3287 162.63 22.2439 162.896 22.2583C163.219 22.256 163.536 22.3504 163.805 22.529C164.095 22.7306 164.33 23.0005 164.489 23.3144H164.71L164.52 22.1694H164.27C164.243 22.2188 164.203 22.2607 164.155 22.2914C164.108 22.3176 164.055 22.3311 164.001 22.3306C163.859 22.2922 163.72 22.2452 163.584 22.1901C163.347 22.1004 163.095 22.0528 162.841 22.0496C162.653 22.0431 162.465 22.074 162.288 22.1403C162.112 22.2067 161.95 22.3072 161.813 22.436Z" fill="white"/>
</mask>
<g mask="url(#mask1_1388_5)">
<path d="M197.272 22.0454H148.641V27.5015H197.272V22.0454Z" fill="url(#paint1_linear_1388_5)"/>
</g>
<mask id="mask2_1388_5" style="mask-type:luminance" maskUnits="userSpaceOnUse" x="139" y="-1" width="59" height="28">
<path d="M175.353 13.0966C175.29 13.1658 175.234 13.2405 175.186 13.3198C174.95 13.7001 174.735 14.101 174.5 14.4813C174.458 14.5451 174.425 14.6147 174.404 14.688C174.381 14.7429 174.37 14.8021 174.373 14.8614C174.375 14.9207 174.391 14.9788 174.418 15.0318C174.445 15.0847 174.483 15.1313 174.53 15.1682C174.577 15.2052 174.631 15.2317 174.689 15.246H174.744C174.792 15.246 174.84 15.2233 174.84 15.1778C174.831 15.0133 174.87 14.8496 174.952 14.7066C175.137 14.2709 175.345 13.8459 175.578 13.4335C175.597 13.38 175.621 13.3281 175.649 13.2785C175.652 13.2341 175.642 13.1897 175.621 13.1503C175.6 13.1109 175.569 13.078 175.53 13.0553C175.517 13.042 175.5 13.0339 175.482 13.0326C175.437 13.0412 175.396 13.0645 175.365 13.0987M142.044 24.699C143.093 23.0382 144.461 21.598 146.071 20.4603C146.129 20.434 146.184 20.4043 146.238 20.3714C146.262 20.416 146.274 20.4656 146.274 20.516C146.274 20.5665 146.262 20.6161 146.238 20.6607C145.515 22.5103 144.195 24.0711 142.484 25.1C142.275 25.2343 142.067 25.4141 141.773 25.4141H141.679C141.702 25.1227 141.888 24.9222 142.034 24.699M181.259 16.3269L181.192 16.3765L181.259 16.3331M189.153 17.3209C189.57 16.5831 190.669 15.8474 191.474 15.804C191.497 15.9363 191.38 16.0107 191.284 16.0933C190.867 16.4943 189.864 17.2321 189.247 17.3643C189.212 17.3596 189.179 17.3445 189.153 17.3209ZM181.263 15.9817C182.85 12.8362 185.851 8.3515 188.98 6.26827C189.266 6.05889 189.587 5.90017 189.929 5.79913C190.023 5.7764 190.118 5.8446 190.071 5.93346L189.862 6.53487C189.619 7.05585 189.334 7.55628 189.009 8.03116C187.058 10.957 184.672 13.5734 181.931 15.7916C181.932 15.7779 181.932 15.764 181.931 15.7503C181.931 15.7275 181.908 15.7048 181.862 15.7048C181.8 15.7073 181.741 15.7314 181.695 15.773C181.545 15.8743 181.382 15.9797 181.211 16.0913C181.227 16.0507 181.246 16.0113 181.267 15.9735M139.764 8.85577C139.525 9.2277 139.326 9.62402 139.172 10.0379C138.863 10.8646 139.053 11.5776 139.694 12.1811C140.024 12.473 140.381 12.7345 140.759 12.9623L142.607 13.9646C143.151 14.256 143.721 14.5454 144.242 14.8802C145.402 15.6387 146.161 16.4426 146.493 17.7736C146.563 18.2239 146.587 18.6803 146.563 19.1355C146.568 19.2621 146.535 19.3873 146.467 19.4949C146.399 19.6024 146.301 19.6875 146.184 19.739C146.091 19.7896 146.004 19.8492 145.923 19.9167C144.098 21.1649 142.539 22.7569 141.335 24.6019C141.165 24.8366 141.024 25.0913 140.918 25.3604C140.892 25.4437 140.891 25.5328 140.916 25.6164C140.942 25.7 140.992 25.7742 141.06 25.8295C141.145 25.907 141.247 25.9656 141.357 26.0012C141.468 26.0368 141.584 26.0488 141.7 26.0362C141.877 26.0287 142.048 25.9744 142.196 25.8791C144.163 25.0524 146.722 22.1322 147.124 20.0118C147.144 19.9121 147.186 19.8181 147.247 19.7369C147.309 19.6556 147.388 19.5892 147.479 19.5426C149.792 18.2799 153.3 17.1453 156.044 17.0915C155.961 17.3623 155.884 17.6371 155.819 17.9182C155.762 18.175 155.73 18.4366 155.723 18.6994C155.704 18.8265 155.712 18.9562 155.748 19.0797C155.784 19.2032 155.847 19.3174 155.932 19.4145C156.17 19.6584 156.336 19.77 156.501 19.77C156.666 19.77 156.785 19.6356 156.952 19.4352C157.214 19.1142 157.459 18.7796 157.686 18.4328C158.847 16.6906 160.007 14.9732 161.452 13.4108C161.83 12.9841 162.249 12.5958 162.704 12.2513C162.847 12.1167 163.029 12.0306 163.225 12.0054H163.319C163.415 12.2286 163.319 12.4063 163.248 12.6089C163.106 13.0553 162.941 13.5224 162.775 13.9688C162.525 14.6183 162.342 15.2914 162.23 15.9776C162.195 16.207 162.195 16.4405 162.23 16.6699C162.274 16.8612 162.382 17.0319 162.538 17.1537C162.693 17.2755 162.885 17.3411 163.083 17.3395C163.162 17.3433 163.242 17.3356 163.319 17.3168C163.789 17.1785 164.248 17.0065 164.693 16.8022C165.002 16.6472 165.286 16.5129 165.594 16.3889C165.77 16.2967 165.963 16.2438 166.162 16.2339C166.28 16.2339 166.37 16.2773 166.399 16.3889C166.433 16.5359 166.457 16.685 166.47 16.8353C166.589 17.7281 166.802 18.7552 168.034 18.7552C168.508 18.7552 169.338 18.4432 169.763 18.2406C170.971 17.6826 172.155 17.1267 173.34 16.5459L173.476 16.4798L173.34 16.7691C173.086 17.2523 172.944 17.7852 172.923 18.3295C172.949 18.6069 173.077 18.8653 173.282 19.0557C173.487 19.2462 173.756 19.3554 174.037 19.3628C174.116 19.3666 174.195 19.3589 174.272 19.3401C175.763 19.1748 178.289 18.1001 180.166 17.0295C179.838 17.8386 179.641 18.6936 179.58 19.5633C179.56 19.8439 179.6 20.1255 179.697 20.39C179.803 20.7409 180.026 21.0461 180.328 21.2564C180.631 21.4668 180.996 21.57 181.365 21.5494C183.424 21.5494 186.431 19.5984 188.342 17.9286C188.2 18.5134 188.506 18.9619 189.04 19.1851C189.219 19.2661 189.411 19.3118 189.608 19.3194H190.367C191.62 19.2347 192.848 18.9325 193.996 18.4266C194.967 17.9802 195.937 17.5111 196.886 17.0192C196.934 16.9758 197.005 16.9303 197.051 16.8869C197.097 16.8435 197.051 16.8187 197.051 16.796C197.028 16.7299 196.98 16.6844 196.934 16.7071C196.817 16.7456 196.705 16.7984 196.6 16.8642C195.558 17.3767 194.494 17.8686 193.426 18.2923C192.362 18.7399 191.22 18.9819 190.064 19.0053C189.701 19.0277 189.338 18.9749 188.996 18.8503C188.594 18.716 188.523 18.5816 188.642 18.2034C188.665 18.1352 188.69 18.0691 188.713 17.9967C188.717 17.9706 188.727 17.9457 188.742 17.9235C188.756 17.9013 188.775 17.8823 188.798 17.8678C188.82 17.8532 188.845 17.8434 188.871 17.8389C188.898 17.8345 188.925 17.8354 188.951 17.8417C189.801 17.8417 191.036 16.8601 191.578 16.3248C191.691 16.2373 191.788 16.131 191.864 16.0107C191.905 15.9543 191.931 15.8886 191.939 15.8197C191.948 15.7508 191.938 15.6809 191.913 15.6165C191.887 15.552 191.845 15.4951 191.791 15.4509C191.737 15.4068 191.672 15.3768 191.603 15.3638C191.542 15.3467 191.478 15.3398 191.414 15.3431C191.334 15.3397 191.254 15.3467 191.176 15.3638C190.656 15.4769 190.164 15.6943 189.732 16.0024C189.299 16.3105 188.935 16.7029 188.661 17.1556C186.948 18.7098 184.085 20.7289 181.868 21.0534C181.649 21.0986 181.426 21.1214 181.203 21.1216C180.729 21.1216 180.208 21.01 180.091 20.5181C180.039 20.2842 180.023 20.0438 180.043 19.8051C180.091 19.2244 180.494 17.1721 181.038 16.8601C183.974 14.9628 187.086 11.4371 189.067 8.7607C189.403 8.32299 189.705 7.86003 189.968 7.37602C190.11 7.10941 190.229 6.84074 190.371 6.57414C190.444 6.38102 190.485 6.17701 190.49 5.97067C190.49 5.5036 190.252 5.25766 189.897 5.25766C189.754 5.25697 189.611 5.28729 189.48 5.34652C186.56 6.72294 182.051 12.3278 180.304 16.6472C178.427 17.7364 175.893 18.8896 174.083 18.8896C173.964 18.8926 173.845 18.8849 173.728 18.8668C173.49 18.8462 173.444 18.778 173.444 18.532C173.441 18.4426 173.448 18.353 173.467 18.2654C173.61 17.5875 173.833 16.9285 174.13 16.3021C174.153 16.2339 174.201 16.2132 174.297 16.2132C174.439 16.2132 174.485 16.1677 174.439 16.0334C174.369 15.8579 174.244 15.7093 174.083 15.6097C174.073 15.6016 174.061 15.5956 174.049 15.592C174.037 15.5884 174.024 15.5874 174.012 15.5891C173.984 15.5853 173.956 15.5896 173.931 15.6013C173.906 15.613 173.884 15.6318 173.87 15.6552L173.799 15.7895L173.663 16.0789C172.105 16.8332 170.535 17.4718 168.919 18.1084C168.588 18.2479 168.235 18.3311 167.876 18.3543C167.309 18.3543 167.042 18.1993 166.881 17.6619C166.837 17.426 166.806 17.1881 166.787 16.9489C166.716 16.4364 166.549 15.8329 165.863 15.8329C165.541 15.8587 165.231 15.9662 164.962 16.145C164.702 16.2793 164.441 16.4364 164.18 16.5583C163.777 16.8162 163.31 16.9592 162.831 16.9717C162.797 16.9769 162.763 16.9752 162.73 16.9666C162.697 16.958 162.666 16.9427 162.64 16.9217C162.613 16.9008 162.591 16.8745 162.575 16.8447C162.559 16.8149 162.55 16.7821 162.547 16.7485C162.511 16.5642 162.511 16.3747 162.547 16.1905C162.622 15.7146 162.732 15.2449 162.877 14.7851C163.044 14.2271 163.233 13.6918 163.398 13.1566C163.474 12.914 163.537 12.6677 163.588 12.4187C163.636 12.1749 163.636 11.9289 163.398 11.7719C163.316 11.7125 163.216 11.6814 163.115 11.683C162.952 11.6907 162.796 11.7453 162.664 11.8401C162.179 12.0854 161.739 12.4095 161.363 12.799C160.011 13.9812 158.923 15.432 157.926 16.8828C157.594 17.3499 157.264 17.819 156.933 18.3088C156.815 18.4375 156.704 18.572 156.599 18.7118C156.553 18.6891 156.528 18.6891 156.528 18.6664C156.508 18.5867 156.5 18.5045 156.505 18.4225C156.656 17.3405 156.993 16.2921 157.5 15.3224C157.619 15.1881 157.667 15.1158 157.88 15.1158C158.022 15.1364 158.07 15.0269 158.022 14.9091C157.962 14.7915 157.878 14.6872 157.777 14.6026C157.675 14.518 157.557 14.4549 157.429 14.4172C157.393 14.3988 157.351 14.391 157.31 14.3945C157.259 14.3958 157.21 14.4086 157.164 14.4319C157.119 14.4552 157.08 14.4883 157.05 14.5288C156.949 14.665 156.869 14.8155 156.814 14.9752C156.57 15.5953 156.328 16.2029 156.124 16.8353C156.071 16.82 156.016 16.8124 155.961 16.8125C153.425 16.8125 149.754 17.7281 147.575 18.9102C147.532 18.9479 147.484 18.9779 147.431 18.9991C147.411 19.0053 147.39 19.0073 147.37 19.0049C147.349 19.0025 147.33 18.9958 147.312 18.9853C147.294 18.9747 147.279 18.9605 147.267 18.9437C147.255 18.9268 147.247 18.9077 147.243 18.8875V18.6808C147.054 16.4509 145.252 15.0228 143.358 13.9502C142.718 13.5947 142.054 13.2372 141.414 12.8569C141.038 12.6632 140.675 12.4472 140.325 12.21C140.11 12.0523 139.947 11.8339 139.858 11.5833C139.769 11.3327 139.758 11.0614 139.827 10.8047C139.911 10.4873 140.031 10.1802 140.184 9.88912C142.006 6.58241 146.793 1.36607 150.939 0.653066C151.223 0.630332 151.46 0.607598 151.744 0.607598C151.966 0.612665 152.182 0.680504 152.367 0.803148C152.552 0.925792 152.697 1.09814 152.787 1.29994C152.895 1.60583 152.982 1.91861 153.047 2.23615C153.142 3.03926 153.118 3.85167 152.977 4.64798C152.835 5.65033 152.572 6.60927 152.336 7.57029C152.101 8.5313 151.838 9.44478 151.579 10.381C151.526 10.6078 151.51 10.8415 151.531 11.0733C151.539 11.1706 151.582 11.262 151.651 11.3312C151.721 11.4005 151.813 11.4431 151.911 11.4515C151.98 11.4515 152.051 11.4515 152.076 11.3854C152.101 11.3193 152.124 11.2738 152.146 11.2056C152.455 10.0007 152.787 8.81857 153.07 7.61369C153.421 6.32191 153.644 4.99907 153.734 3.66424C153.745 3.50117 153.745 3.3375 153.734 3.17443C153.734 1.54588 152.929 -0.0165405 151.01 -0.0165405C147.172 -0.0165405 141.675 5.58419 139.781 8.8413" fill="white"/>
</mask>
<g mask="url(#mask2_1388_5)">
<path d="M197.076 0H138.87V26.0383H197.076V0Z" fill="url(#paint2_linear_1388_5)"/>
</g>
<mask id="mask3_1388_5" style="mask-type:luminance" maskUnits="userSpaceOnUse" x="0" y="1" width="133" height="26">
<path d="M13.625 1.44048V16.2525C13.625 21.7767 11.4998 24.2278 8.16288 24.2278C5.15966 24.2278 2.9281 21.8615 2.9281 16.2525V1.44048H0.00830078V16.1801C0.00830078 23.9344 3.46618 26.8691 8.06695 26.8691C12.9347 26.8691 16.5719 23.7132 16.5719 16.0334V1.44048H13.625ZM21.5898 1.44048V26.4578H34.0907V23.7442H24.4971V1.44048H21.5898ZM31.8091 1.44048V4.18712H38.6498V26.4578H41.58V4.18712H48.4478V1.44048H31.8091ZM50.9442 26.4578H53.8431V1.45082H50.9442V26.4578ZM76.1442 1.45082L72.1461 13.5492C71.145 16.7051 70.3421 19.4517 69.7748 21.9772H69.681C69.1137 19.3773 68.3379 16.6327 67.4119 13.5492L63.5828 1.44048H59.883L58.323 26.4578H61.0801L61.6849 15.7275C61.883 11.9827 62.054 7.79557 62.1208 4.67073H62.1854C62.8111 7.63643 63.7162 10.8708 64.7841 14.3842L68.4234 26.3049H70.6153L74.5779 14.1651C75.7104 10.7137 76.6468 7.59923 77.4122 4.65833H77.5165C77.4768 7.78317 77.6771 11.9703 77.846 15.463L78.4133 26.4454H81.2476L79.8502 1.43842L76.1442 1.45082ZM91.8068 8.83718C92.2406 7.32229 92.6097 5.795 92.9413 4.31319H93.0081C93.3376 5.75987 93.6776 7.24789 94.1698 8.87851L96.37 16.0747H89.6169L91.8068 8.83718ZM91.3209 1.44048L83.6814 26.4578H86.6867L89.0267 18.5899H96.9915L99.392 26.4578H102.491L94.8184 1.45082L91.3209 1.44048ZM100.65 1.44048V4.18712H107.492V26.4578H110.412V4.18712H117.286V1.44048H100.65ZM119.785 1.44048V26.4578H132.407V23.7442H122.682V14.7272H131.412V12.055H122.682V4.16645H131.912V1.44048H119.785Z" fill="white"/>
</mask>
<g mask="url(#mask3_1388_5)">
<path d="M132.413 1.44049H0V26.8691H132.413V1.44049Z" fill="url(#paint3_linear_1388_5)"/>
</g>
<mask id="mask4_1388_5" style="mask-type:luminance" maskUnits="userSpaceOnUse" x="195" y="0" width="6" height="5">
<path d="M196.711 3.98459C196.549 3.82395 196.42 3.63322 196.332 3.42329C196.244 3.21336 196.199 2.98835 196.199 2.76112C196.199 2.53388 196.244 2.30886 196.332 2.09893C196.42 1.889 196.549 1.69827 196.711 1.53763C197.039 1.21287 197.484 1.03053 197.947 1.03072C198.411 1.03091 198.856 1.21363 199.183 1.53867C199.511 1.8637 199.695 2.30443 199.695 2.76391C199.695 3.22339 199.51 3.66397 199.182 3.98873C198.854 4.31345 198.41 4.49587 197.947 4.49587C197.483 4.49587 197.039 4.31345 196.711 3.98873M196.502 1.32476C196.134 1.70963 195.932 2.22179 195.939 2.7522C195.946 3.28261 196.161 3.78936 196.54 4.16458C196.918 4.53981 197.429 4.75385 197.964 4.76115C198.5 4.76845 199.017 4.56843 199.405 4.20366C199.79 3.8218 200.006 3.30416 200.006 2.76452C200.006 2.22487 199.789 1.70738 199.404 1.3258C199.019 0.944209 198.497 0.729747 197.952 0.729553C197.408 0.72936 196.886 0.943449 196.5 1.32476" fill="white"/>
</mask>
<g mask="url(#mask4_1388_5)">
<path d="M200 0.725403H195.891V4.79679H200V0.725403Z" fill="url(#paint4_linear_1388_5)"/>
</g>
<mask id="mask5_1388_5" style="mask-type:luminance" maskUnits="userSpaceOnUse" x="197" y="1" width="2" height="3">
<path d="M197.589 1.84143C197.687 1.82376 197.787 1.81614 197.887 1.8187C198.204 1.8187 198.423 1.9489 198.423 2.2465C198.423 2.50897 198.215 2.68464 197.898 2.68464H197.589V1.84143ZM197.289 1.63476V3.90813H197.589V2.90785H197.873C198.146 2.91818 198.275 3.03804 198.344 3.35632C198.376 3.54491 198.427 3.72981 198.496 3.90813H198.807C198.728 3.70309 198.668 3.49143 198.628 3.27572C198.617 3.17536 198.579 3.07954 198.52 2.99767C198.46 2.91579 198.38 2.85065 198.288 2.80864V2.79831C198.415 2.76103 198.526 2.68376 198.604 2.57823C198.683 2.47269 198.725 2.34463 198.723 2.21343C198.726 2.1311 198.711 2.0492 198.679 1.97302C198.647 1.89684 198.6 1.82807 198.54 1.77117C198.347 1.62739 198.107 1.56031 197.866 1.5831C197.673 1.58338 197.48 1.59928 197.289 1.63063" fill="white"/>
</mask>
<g mask="url(#mask5_1388_5)">
<path d="M198.807 1.58514H197.291V3.91017H198.807V1.58514Z" fill="url(#paint5_linear_1388_5)"/>
</g>
</g>
<defs>
<linearGradient id="paint0_linear_1388_5" x1="1.86865" y1="35.6071" x2="195.403" y2="35.6071" gradientUnits="userSpaceOnUse">
<stop stop-color="#BC9443"/>
<stop offset="0.15" stop-color="#A9803B"/>
<stop offset="0.43" stop-color="#F2DB86"/>
<stop offset="0.59" stop-color="#F9EEAB"/>
<stop offset="0.73" stop-color="#F2DB86"/>
<stop offset="0.93" stop-color="#A9803B"/>
<stop offset="1" stop-color="#C29B45"/>
</linearGradient>
<linearGradient id="paint1_linear_1388_5" x1="148.641" y1="25.0276" x2="197.272" y2="25.0276" gradientUnits="userSpaceOnUse">
<stop stop-color="#BC9443"/>
<stop offset="0.15" stop-color="#A9803B"/>
<stop offset="0.43" stop-color="#F2DB86"/>
<stop offset="0.59" stop-color="#F9EEAB"/>
<stop offset="0.73" stop-color="#F2DB86"/>
<stop offset="0.93" stop-color="#A9803B"/>
<stop offset="1" stop-color="#C29B45"/>
</linearGradient>
<linearGradient id="paint2_linear_1388_5" x1="139.034" y1="12.9892" x2="197.063" y2="12.9892" gradientUnits="userSpaceOnUse">
<stop stop-color="#BC9443"/>
<stop offset="0.15" stop-color="#A9803B"/>
<stop offset="0.43" stop-color="#F2DB86"/>
<stop offset="0.59" stop-color="#F9EEAB"/>
<stop offset="0.73" stop-color="#F2DB86"/>
<stop offset="0.93" stop-color="#A9803B"/>
<stop offset="1" stop-color="#C29B45"/>
</linearGradient>
<linearGradient id="paint3_linear_1388_5" x1="0" y1="13.0718" x2="132.415" y2="13.0718" gradientUnits="userSpaceOnUse">
<stop stop-color="#BC9443"/>
<stop offset="0.15" stop-color="#A9803B"/>
<stop offset="0.43" stop-color="#F2DB86"/>
<stop offset="0.59" stop-color="#F9EEAB"/>
<stop offset="0.73" stop-color="#F2DB86"/>
<stop offset="0.93" stop-color="#A9803B"/>
<stop offset="1" stop-color="#C29B45"/>
</linearGradient>
<linearGradient id="paint4_linear_1388_5" x1="195.891" y1="3.1951" x2="200" y2="3.1951" gradientUnits="userSpaceOnUse">
<stop stop-color="#BC9443"/>
<stop offset="0.15" stop-color="#A9803B"/>
<stop offset="0.43" stop-color="#F2DB86"/>
<stop offset="0.59" stop-color="#F9EEAB"/>
<stop offset="0.73" stop-color="#F2DB86"/>
<stop offset="0.93" stop-color="#A9803B"/>
<stop offset="1" stop-color="#C29B45"/>
</linearGradient>
<linearGradient id="paint5_linear_1388_5" x1="197.291" y1="3.50923" x2="198.807" y2="3.50923" gradientUnits="userSpaceOnUse">
<stop stop-color="#BC9443"/>
<stop offset="0.15" stop-color="#A9803B"/>
<stop offset="0.43" stop-color="#F2DB86"/>
<stop offset="0.59" stop-color="#F9EEAB"/>
<stop offset="0.73" stop-color="#F2DB86"/>
<stop offset="0.93" stop-color="#A9803B"/>
<stop offset="1" stop-color="#C29B45"/>
</linearGradient>
<clipPath id="clip0_1388_5">
<rect width="200" height="37" fill="white"/>
</clipPath>
</defs>
</svg>
