<svg width="250" height="47" viewBox="0 0 250 47" fill="none" xmlns="http://www.w3.org/2000/svg">
<g clip-path="url(#clip0_1388_5)">
<mask id="mask0_1388_5" style="mask-type:luminance" maskUnits="userSpaceOnUse" x="2" y="41" width="243" height="6">
<path d="M230.682 46.5983H231.405V45.8764H230.682V46.5983ZM237.103 46.5983H237.823V45.8764H237.103V46.5983ZM243.524 46.5983H244.244V45.8764H243.535L243.524 46.5983ZM2.33594 41.4213V42.0461H4.03046V46.6115H4.71088V42.0461H6.41062V41.4344L2.33594 41.4213ZM14.9067 41.4213V43.5478H12.2372V41.4213H11.5542V46.5983H12.2372V44.1595H14.9067V46.5983H15.5871V41.4213H14.9067ZM21.1634 41.4213V46.5983H24.9931V45.984H21.8412V44.2251H24.6854V43.6213H21.8412V42.0461H24.8784V41.4344L21.1634 41.4213ZM40.1604 41.4213V44.4089C40.1604 45.0599 40.0544 45.4975 39.8423 45.7215C39.6286 45.9499 39.2714 46.0654 38.7709 46.0654C38.5133 46.0739 38.258 46.0141 38.0305 45.8921C37.8345 45.7837 37.6831 45.6088 37.6029 45.3986C37.5043 45.0767 37.4619 44.7401 37.4778 44.4036V41.4213H36.7948V44.4089C36.7719 44.8547 36.8366 45.3008 36.9851 45.7215C37.1101 46.0355 37.3434 46.2937 37.642 46.4487C38.0078 46.634 38.4138 46.7242 38.823 46.7112C39.2425 46.7299 39.6589 46.6299 40.0248 46.4224C40.3121 46.2521 40.5342 45.9895 40.6557 45.6769C40.7874 45.2777 40.8475 44.8581 40.833 44.4377V41.445L40.1604 41.4213ZM49.7905 41.4213V45.4852L47.0923 41.4213H46.3936V46.5983H47.0428V42.5318L49.7436 46.5983H50.4422V41.4213H49.7905ZM56.128 46.5983H56.798V41.4213H56.1176L56.128 46.5983ZM75.8288 41.4213V44.4089C75.8288 45.0599 75.7228 45.4975 75.5108 45.7215C75.297 45.9499 74.9425 46.0654 74.4393 46.0654C74.1818 46.0735 73.9266 46.0138 73.699 45.8921C73.5036 45.7829 73.3523 45.6083 73.2714 45.3986C73.1728 45.0767 73.1304 44.7401 73.1463 44.4036V41.4213H72.4659V44.4089C72.4485 44.8489 72.5149 45.2882 72.6614 45.7031C72.7864 46.0172 73.0197 46.2753 73.3183 46.4303C73.6842 46.6153 74.0901 46.7055 74.4993 46.6928C74.9189 46.712 75.3353 46.6119 75.7011 46.4041C75.9884 46.233 76.2113 45.9708 76.3346 45.6585C76.464 45.2588 76.5231 44.8395 76.5093 44.4194V41.4266L75.8288 41.4213ZM82.0856 41.4213V46.5983H85.923V45.984H82.7503V44.2251H85.5945V43.6213H82.7503V42.0461H85.7875V41.4344L82.0856 41.4213ZM106.938 41.4213V46.5983H110.762V45.984H107.603V44.2251H110.447V43.6213H107.603V42.0461H110.64V41.4344L106.938 41.4213ZM119.532 41.4213V45.4852L116.831 41.4213H116.133V46.5983H116.758V42.5318L119.459 46.5983H120.158V41.4213H119.532ZM135.38 41.4213V46.5983H139.217V45.984H136.05V44.2251H138.894V43.6213H136.05V42.0461H139.087V41.4344L135.38 41.4213ZM161.048 41.4213V46.5983H161.731V44.2356H164.145V43.6239H161.731V42.0461H164.518V41.4344L161.048 41.4213ZM176.901 44.2093H178.09C178.344 44.2 178.598 44.2292 178.843 44.296C179.008 44.3478 179.151 44.4531 179.25 44.5953C179.351 44.7433 179.403 44.9197 179.398 45.0993C179.4 45.2499 179.365 45.3987 179.297 45.5325C179.237 45.6505 179.147 45.7502 179.036 45.8213C178.916 45.8928 178.783 45.9409 178.645 45.963C178.491 45.9837 178.336 45.9925 178.181 45.9893H176.901V44.2093ZM176.901 42.033H177.928C178.191 42.0221 178.454 42.0459 178.71 42.1039C178.855 42.146 178.98 42.2392 179.062 42.3664C179.144 42.5023 179.187 42.6588 179.185 42.818C179.19 42.9795 179.145 43.1387 179.054 43.2721C178.956 43.4017 178.817 43.4942 178.661 43.5346C178.449 43.5831 178.231 43.6034 178.014 43.595H176.901V42.033ZM176.197 41.4213V46.5983H178.16C178.439 46.603 178.717 46.5749 178.989 46.5143C179.192 46.4656 179.384 46.3763 179.552 46.2518C179.713 46.1225 179.841 45.957 179.927 45.7687C180.03 45.5589 180.083 45.3279 180.081 45.0941C180.085 44.8094 179.993 44.5318 179.821 44.3065C179.639 44.0756 179.387 43.9107 179.104 43.8366C179.324 43.7328 179.511 43.5691 179.643 43.364C179.761 43.1771 179.823 42.9604 179.823 42.7392C179.822 42.496 179.751 42.2583 179.62 42.054C179.49 41.8373 179.294 41.668 179.062 41.571C178.761 41.4545 178.44 41.4009 178.118 41.4135L176.197 41.4213ZM185.457 41.4213V46.5983H189.294V45.984H186.143V44.2251H188.987V43.6213H186.143V42.0461H189.18V41.4344L185.457 41.4213ZM196.145 42.9545C196.264 42.6326 196.356 42.3016 196.422 41.9647C196.503 42.2457 196.623 42.6027 196.787 43.0411L197.324 44.4719H195.58L196.145 42.9545ZM196.072 41.4213L194.096 46.5983H194.821L195.384 45.0232H197.535L198.135 46.5983H198.917L196.813 41.4213H196.072ZM207.251 41.4213V44.4089C207.251 45.0599 207.145 45.4975 206.933 45.7215C206.719 45.9499 206.365 46.0654 205.862 46.0654C205.604 46.0735 205.349 46.0138 205.121 45.8921C204.926 45.7829 204.775 45.6083 204.694 45.3986C204.595 45.0767 204.553 44.7401 204.569 44.4036V41.4213H203.888V44.4089C203.869 44.8556 203.939 45.3017 204.091 45.7215C204.215 46.0359 204.447 46.2944 204.746 46.4487C205.112 46.6337 205.518 46.7239 205.927 46.7112C206.347 46.7299 206.764 46.6298 207.131 46.4224C207.417 46.2505 207.639 45.9885 207.762 45.6769C207.891 45.2772 207.951 44.8579 207.937 44.4377V41.445L207.251 41.4213ZM213.106 41.4213V42.0461H214.801V46.6115H215.479V42.0461H217.181V41.4344L213.106 41.4213ZM225.693 41.4213L224.697 42.944C224.476 43.2835 224.288 43.588 224.134 43.8576C223.972 43.5662 223.797 43.2748 223.612 42.9834L222.598 41.4082H221.769L223.756 44.4089V46.6009H224.426V44.4089L226.475 41.4239L225.693 41.4213ZM98.5251 41.5211C98.2598 41.6227 98.0334 41.8066 97.8785 42.0461C97.734 42.2627 97.6569 42.5177 97.657 42.7786C97.654 43.0068 97.7164 43.231 97.8368 43.4244C97.9752 43.6303 98.1649 43.796 98.3869 43.9048C98.7048 44.0499 99.038 44.1582 99.3802 44.2277C99.6899 44.2976 99.9954 44.3852 100.295 44.4902C100.474 44.5478 100.635 44.653 100.759 44.7948C100.851 44.9169 100.9 45.0667 100.897 45.2201C100.898 45.3797 100.848 45.5353 100.754 45.6637C100.64 45.8111 100.486 45.9216 100.311 45.9814C100.091 46.0636 99.8573 46.1037 99.6226 46.0995C99.3541 46.1025 99.0879 46.0497 98.8405 45.9446C98.6322 45.8637 98.4512 45.7243 98.3191 45.543C98.199 45.3504 98.1266 45.1316 98.108 44.905L97.4666 44.9339C97.4718 45.2646 97.5703 45.5869 97.7508 45.8633C97.9306 46.139 98.1886 46.3539 98.4912 46.4802C98.8627 46.6274 99.26 46.697 99.6591 46.685C100.001 46.6902 100.34 46.6212 100.652 46.4828C100.927 46.362 101.161 46.1642 101.328 45.9131C101.482 45.6798 101.563 45.4057 101.562 45.1256C101.567 44.8634 101.493 44.606 101.348 44.3879C101.179 44.1547 100.949 43.9731 100.684 43.8628C100.317 43.7222 99.9381 43.615 99.5522 43.5425C99.1885 43.4903 98.8391 43.3644 98.5251 43.1724C98.4602 43.1153 98.4085 43.0446 98.3738 42.9652C98.3391 42.8858 98.3222 42.7997 98.3243 42.7129C98.325 42.6053 98.3511 42.4994 98.4006 42.404C98.45 42.3086 98.5213 42.2264 98.6085 42.1643C98.8749 41.9899 99.1912 41.9096 99.5079 41.9359C99.828 41.9157 100.145 42.0085 100.405 42.1984C100.51 42.2921 100.595 42.4057 100.657 42.5327C100.718 42.6598 100.754 42.7977 100.762 42.9387L101.414 42.8915C101.403 42.6003 101.313 42.3176 101.153 42.075C100.989 41.8287 100.754 41.6383 100.48 41.529C100.16 41.4006 99.8165 41.3381 99.4714 41.3452C99.1492 41.3404 98.8293 41.4002 98.5303 41.5211M126.837 41.5211C126.571 41.6227 126.345 41.8066 126.19 42.0461C126.046 42.2627 125.969 42.5177 125.969 42.7786C125.965 43.0072 126.029 43.2318 126.151 43.4244C126.288 43.6308 126.477 43.7967 126.699 43.9048C127.017 44.0495 127.35 44.1578 127.692 44.2277C128.001 44.297 128.305 44.3847 128.604 44.4902C128.784 44.5474 128.946 44.6526 129.071 44.7948C129.164 44.9163 129.213 45.0665 129.209 45.2201C129.21 45.3797 129.16 45.5353 129.066 45.6637C128.952 45.8111 128.798 45.9216 128.622 45.9814C128.402 46.0636 128.169 46.1037 127.934 46.0995C127.666 46.1025 127.4 46.0497 127.152 45.9446C126.944 45.8637 126.763 45.7243 126.631 45.543C126.511 45.3504 126.438 45.1316 126.42 44.905L125.776 44.9628C125.781 45.2935 125.879 45.6158 126.06 45.8921C126.24 46.1673 126.498 46.3821 126.8 46.5091C127.173 46.6565 127.571 46.7261 127.971 46.7138C128.312 46.7187 128.649 46.6498 128.961 46.5117C129.236 46.3909 129.47 46.1931 129.637 45.942C129.791 45.7087 129.872 45.4346 129.871 45.1544C129.876 44.8923 129.802 44.6349 129.657 44.4167C129.488 44.1836 129.258 44.002 128.993 43.8917C128.625 43.7468 128.244 43.6361 127.856 43.5609C127.492 43.5087 127.143 43.3827 126.829 43.1907C126.764 43.1336 126.713 43.0628 126.679 42.9833C126.645 42.9039 126.628 42.8179 126.631 42.7313C126.631 42.6239 126.657 42.5181 126.706 42.4226C126.754 42.3272 126.825 42.2449 126.912 42.1826C127.179 42.0083 127.495 41.9279 127.812 41.9543C128.132 41.9341 128.449 42.0269 128.709 42.2168C128.813 42.3105 128.899 42.4241 128.96 42.5511C129.022 42.6781 129.057 42.8161 129.066 42.9571L129.717 42.9098C129.707 42.6186 129.617 42.336 129.457 42.0934C129.292 41.8471 129.058 41.6567 128.784 41.5473C128.464 41.419 128.122 41.3565 127.778 41.3636C127.455 41.3586 127.134 41.4184 126.834 41.5395M63.3832 45.5587C63.0247 45.1266 62.8463 44.5715 62.8853 44.0098C62.8853 43.3141 63.0521 42.7943 63.3884 42.4347C63.6704 42.152 64.0382 41.9726 64.4332 41.925C64.8282 41.8774 65.2277 41.9644 65.5678 42.1721C65.8424 42.3475 66.0586 42.6017 66.1883 42.902C66.3361 43.2482 66.4081 43.6225 66.3995 43.9993C66.3995 44.737 66.2013 45.291 65.8025 45.6559C65.5163 45.4224 65.1839 45.2532 64.8275 45.1597L64.6632 45.6585C64.903 45.7193 65.1311 45.8195 65.3384 45.9551C65.1208 46.048 64.8866 46.0953 64.6502 46.0943C64.4125 46.1013 64.1762 46.0563 63.9575 45.9625C63.7388 45.8687 63.5429 45.7282 63.3832 45.5508M63.3832 41.6497C63.0006 41.872 62.6942 42.2062 62.5047 42.6079C62.296 43.0422 62.1907 43.5195 62.197 44.002C62.189 44.4809 62.2935 44.955 62.5021 45.3855C62.695 45.7833 62.9995 46.1156 63.378 46.3411C63.7609 46.568 64.1981 46.6851 64.6424 46.6797C65.0846 46.6848 65.5204 46.5735 65.9067 46.3568C66.2386 46.6281 66.6119 46.8436 67.0121 46.9947L67.2102 46.517C66.9006 46.3936 66.6072 46.2323 66.3369 46.0365C66.5934 45.7871 66.7927 45.4843 66.9208 45.1492C67.0537 44.7808 67.1191 44.3912 67.1138 43.9993C67.1222 43.5209 67.0195 43.0472 66.814 42.6158C66.6233 42.2178 66.3193 41.8861 65.9406 41.6628C65.5523 41.4327 65.1085 41.3147 64.658 41.3216C64.2116 41.3145 63.7715 41.4278 63.3832 41.6497ZM151.991 45.5535C151.64 45.147 151.461 44.6186 151.491 44.0807C151.491 43.3001 151.665 42.7436 152.012 42.411C152.177 42.2494 152.371 42.1221 152.584 42.0365C152.798 41.9509 153.026 41.9087 153.256 41.9122C153.58 41.909 153.899 42.0002 154.173 42.1748C154.448 42.35 154.664 42.6043 154.794 42.9046C154.941 43.2529 155.013 43.6287 155.005 44.0072C155.04 44.5668 154.864 45.1192 154.512 45.5535C154.349 45.7249 154.154 45.8614 153.937 45.9546C153.72 46.0479 153.487 46.0959 153.252 46.0959C153.016 46.0959 152.783 46.0479 152.566 45.9546C152.35 45.8614 152.154 45.7249 151.991 45.5535ZM151.47 42.0488C151.011 42.5353 150.782 43.2091 150.782 44.0702C150.78 44.5187 150.88 44.9616 151.076 45.3645C151.266 45.7636 151.566 46.0984 151.942 46.3279C152.335 46.5665 152.787 46.6885 153.245 46.6797C153.682 46.6818 154.112 46.5716 154.494 46.3594C154.881 46.1452 155.194 45.8174 155.391 45.4196C155.596 44.9825 155.703 44.5055 155.706 44.0221C155.709 43.5386 155.607 43.0605 155.406 42.6211C155.216 42.2223 154.912 41.8896 154.533 41.6655C154.145 41.4346 153.701 41.3156 153.25 41.3216C152.921 41.3095 152.592 41.3681 152.287 41.4934C151.981 41.6188 151.705 41.8081 151.478 42.0488" fill="white"/>
</mask>
<g mask="url(#mask0_1388_5)">
<path d="M244.254 41.3294H2.33594V47H244.254V41.3294Z" fill="url(#paint0_linear_1388_5)"/>
</g>
<mask id="mask1_1388_5" style="mask-type:luminance" maskUnits="userSpaceOnUse" x="185" y="28" width="62" height="7">
<path d="M188.205 34.3436C188.074 34.236 188.009 33.9682 188.009 33.556V29.3661C188.009 28.9435 188.069 28.6783 188.192 28.5785C188.314 28.4788 188.603 28.4236 189.06 28.4236C190.102 28.4236 190.853 28.6555 191.312 29.1193C191.771 29.5788 192.003 30.3322 192.003 31.3718C192.003 32.5164 191.788 33.325 191.359 33.7976C190.929 34.2701 190.191 34.509 189.146 34.509C188.648 34.509 188.332 34.4539 188.205 34.3489M185.801 28.1611V28.4236H186.103C186.372 28.3928 186.644 28.4421 186.885 28.5654C187 28.6599 187.057 28.891 187.057 29.2532V33.6978C187.057 34.0548 187.003 34.278 186.888 34.3699C186.646 34.4914 186.375 34.5398 186.106 34.509H185.798V34.7899H188.971C189.432 34.7947 189.892 34.7622 190.347 34.6928C190.674 34.6454 190.991 34.5453 191.286 34.3961C191.826 34.1159 192.277 33.6895 192.589 33.1649C192.893 32.6354 193.049 32.0331 193.04 31.4217C193.05 30.8563 192.914 30.298 192.644 29.8019C192.372 29.319 191.973 28.9204 191.492 28.6494C191.182 28.4723 190.846 28.3464 190.496 28.2766C190.037 28.1925 189.571 28.1538 189.104 28.1611H185.801ZM193.956 28.1611V28.4236H194.261C194.529 28.3936 194.801 28.4419 195.043 28.5628C195.157 28.6591 195.215 28.8874 195.215 29.248V33.6978C195.215 34.0636 195.157 34.292 195.043 34.383C194.802 34.5089 194.53 34.5592 194.261 34.5274H193.956V34.7899H199.873L200.322 32.6897L199.957 32.6267C199.845 33.1775 199.573 33.6822 199.175 34.0758C198.753 34.3795 198.24 34.5269 197.723 34.4932H197.201C196.921 34.5192 196.639 34.4722 196.383 34.3567C196.247 34.2675 196.179 34.0364 196.179 33.6584V31.4138H196.341H196.602C197.123 31.4138 197.488 31.5005 197.691 31.6763C197.895 31.8522 197.999 32.1646 198.007 32.6162H198.32V29.9699H198.007V30.0303C198.022 30.1893 198.001 30.3498 197.946 30.4995C197.89 30.6492 197.801 30.7841 197.686 30.894C197.37 31.0971 196.996 31.1894 196.622 31.1565C196.542 31.1565 196.409 31.1565 196.226 31.1434H196.19V29.2637C196.16 29.0377 196.219 28.8088 196.354 28.6258C196.551 28.5022 196.783 28.4494 197.013 28.4762H197.691C198.142 28.4413 198.592 28.5486 198.979 28.7833C199.302 29.0668 199.521 29.4515 199.6 29.8754H199.92L199.733 28.1769L193.956 28.1611ZM207.228 28.1611V28.4236H207.535C207.8 28.3947 208.066 28.443 208.304 28.5628C208.416 28.6573 208.474 28.8857 208.474 29.2532V33.6978C208.474 34.0627 208.416 34.2937 208.304 34.3882C208.066 34.508 207.8 34.5563 207.535 34.5274H207.22V34.7899H210.674V34.5274H210.372C210.102 34.5586 209.83 34.5083 209.589 34.383C209.472 34.2911 209.415 34.0601 209.415 33.6978V29.248C209.415 28.8857 209.472 28.6547 209.589 28.5602C209.831 28.4374 210.103 28.3881 210.372 28.4184H210.674V28.1559L207.228 28.1611ZM223.623 28.1611V28.4236H223.904C224.05 28.4108 224.197 28.433 224.333 28.4882C224.469 28.5434 224.59 28.6301 224.686 28.7413C224.876 29.0508 224.962 29.4134 224.931 29.7757V33.5928L220.906 28.1559H218.925V28.4184H219.326C219.452 28.4075 219.578 28.4255 219.695 28.4709C219.813 28.5164 219.919 28.5882 220.004 28.6809C220.171 28.9184 220.251 29.2072 220.229 29.4974V33.073C220.229 33.6269 220.156 34.0076 220.007 34.2097C219.907 34.3201 219.782 34.405 219.643 34.4574C219.504 34.5099 219.354 34.5285 219.207 34.5116H218.925V34.7741H221.819V34.5116H221.482C221.343 34.5262 221.201 34.5052 221.071 34.4506C220.942 34.3961 220.828 34.3096 220.739 34.1992C220.565 33.8513 220.49 33.4613 220.523 33.073V29.1141L224.882 34.9343H225.234V29.605C225.204 29.2831 225.28 28.9602 225.45 28.6862C225.545 28.5897 225.66 28.516 225.787 28.4705C225.914 28.4251 226.049 28.409 226.183 28.4236H226.511V28.1611H223.623ZM227.205 28.1611V28.4236H227.512C227.777 28.395 228.044 28.4433 228.281 28.5628C228.394 28.6573 228.451 28.8857 228.451 29.2532V33.6978C228.451 34.0627 228.394 34.2937 228.281 34.3882C228.044 34.5077 227.777 34.556 227.512 34.5274H227.205V34.7899H230.659V34.5274H230.357C230.087 34.5594 229.815 34.5091 229.574 34.383C229.457 34.2911 229.4 34.0601 229.4 33.6978V29.248C229.4 28.8857 229.457 28.6547 229.574 28.5602C229.816 28.4367 230.088 28.3874 230.357 28.4184H230.659V28.1559L227.205 28.1611ZM236.113 28.1611V28.4236H236.397C236.543 28.4106 236.69 28.4326 236.826 28.4879C236.962 28.5431 237.083 28.6299 237.179 28.7413C237.368 29.0508 237.454 29.4134 237.424 29.7757V33.5928L233.399 28.1559H231.412V28.4184H231.816C231.942 28.4075 232.068 28.4255 232.185 28.4709C232.303 28.5164 232.408 28.5882 232.494 28.6809C232.66 28.919 232.739 29.2074 232.718 29.4974V33.073C232.718 33.6269 232.645 34.0076 232.497 34.2097C232.396 34.3197 232.272 34.4044 232.132 34.4568C231.993 34.5093 231.844 34.528 231.697 34.5116H231.412V34.7741H234.309V34.5116H233.972C233.832 34.5264 233.691 34.5056 233.561 34.451C233.431 34.3964 233.317 34.3098 233.229 34.1992C233.083 33.9918 233.013 33.6164 233.013 33.073V29.1141L237.372 34.9343H237.721V29.605C237.691 29.2831 237.767 28.9602 237.938 28.6862C238.032 28.5897 238.147 28.516 238.274 28.4705C238.401 28.4251 238.536 28.409 238.67 28.4236H238.986V28.1611H236.113ZM213.563 28.2898C213.162 28.4718 212.806 28.7407 212.52 29.0773C212.236 29.4094 212.016 29.7923 211.873 30.2062C211.725 30.6438 211.652 31.1037 211.657 31.5661C211.638 32.012 211.708 32.4573 211.862 32.8756C212.017 33.294 212.253 33.6771 212.556 34.0023C212.862 34.3124 213.229 34.5552 213.632 34.7156C214.036 34.876 214.469 34.9505 214.902 34.9343C215.303 34.9301 215.701 34.8628 216.081 34.7348C216.306 34.6488 216.538 34.582 216.774 34.5353C216.86 34.533 216.945 34.5548 217.019 34.5983C217.099 34.6468 217.166 34.7133 217.215 34.7925H217.528V33.2436C217.528 32.7816 217.585 32.5033 217.7 32.4062C217.925 32.2806 218.184 32.2292 218.44 32.2591V31.9966H215.745V32.2591C216.015 32.2504 216.283 32.308 216.527 32.4272C216.584 32.4911 216.628 32.567 216.653 32.6495C216.679 32.732 216.687 32.8192 216.675 32.905V33.2646C216.686 33.4589 216.65 33.6529 216.571 33.8305C216.492 34.0081 216.372 34.1642 216.222 34.2859C215.84 34.5496 215.38 34.6755 214.918 34.6429C214.162 34.6429 213.615 34.3804 213.242 33.8816C212.869 33.3828 212.7 32.5847 212.7 31.5188C212.7 30.453 212.885 29.6654 213.255 29.1141C213.429 28.8477 213.669 28.6315 213.952 28.487C214.234 28.3425 214.549 28.2745 214.866 28.2898C215.405 28.275 215.931 28.4557 216.349 28.7991C216.793 29.2041 217.114 29.7275 217.275 30.3086H217.536V28.2609H217.186C217.156 28.3553 217.101 28.4398 217.027 28.505C216.961 28.5595 216.878 28.5884 216.793 28.5864C216.653 28.5705 216.519 28.522 216.401 28.4447C216.229 28.3528 216.107 28.2871 216.026 28.2556C215.835 28.1741 215.637 28.1117 215.434 28.0692C215.235 28.0272 215.031 28.0061 214.827 28.0062C214.386 28.0055 213.95 28.1013 213.549 28.2871M241.705 28.2871C241.305 28.4705 240.949 28.7392 240.662 29.0747C240.378 29.4062 240.159 29.7894 240.018 30.2036C239.869 30.641 239.795 31.1009 239.799 31.5635C239.781 32.0096 239.851 32.4549 240.006 32.8733C240.161 33.2917 240.397 33.6746 240.701 33.9997C241.006 34.3105 241.373 34.5539 241.777 34.7143C242.181 34.8748 242.613 34.9488 243.047 34.9317C243.448 34.9277 243.846 34.8604 244.226 34.7321C244.452 34.6463 244.685 34.5796 244.922 34.5326C245.007 34.5304 245.091 34.5523 245.164 34.5956C245.244 34.6441 245.312 34.7106 245.362 34.7899H245.672V33.241C245.672 32.779 245.73 32.5007 245.845 32.4035C246.07 32.2783 246.329 32.2269 246.585 32.2565V31.994H243.892V32.2565C244.162 32.2469 244.431 32.3046 244.674 32.4245C244.732 32.4885 244.775 32.5643 244.801 32.6469C244.826 32.7294 244.834 32.8166 244.823 32.9023V33.262C244.834 33.4564 244.798 33.6506 244.719 33.8283C244.64 34.006 244.52 34.162 244.369 34.2832C243.987 34.5472 243.528 34.673 243.066 34.6403C242.309 34.6403 241.762 34.3777 241.387 33.8789C241.011 33.3801 240.847 32.5821 240.847 31.5162C240.847 30.4504 241.032 29.6628 241.402 29.1115C241.577 28.845 241.817 28.6289 242.099 28.4844C242.382 28.3398 242.697 28.2719 243.013 28.2871C243.552 28.2723 244.077 28.4531 244.494 28.7964C244.938 29.2015 245.259 29.7248 245.42 30.306H245.693V28.2583H245.344C245.314 28.3527 245.259 28.4371 245.185 28.5024C245.118 28.5571 245.034 28.5859 244.948 28.5838C244.808 28.5675 244.674 28.519 244.557 28.442C244.435 28.3725 244.31 28.3094 244.181 28.253C243.991 28.1708 243.793 28.1083 243.59 28.0666C243.391 28.0246 243.188 28.0035 242.985 28.0036C242.543 28.0025 242.106 28.0984 241.705 28.2845M202.267 28.4998C202.098 28.6578 201.964 28.8498 201.875 29.0633C201.785 29.2768 201.741 29.5071 201.745 29.7389C201.744 29.9756 201.792 30.2099 201.886 30.4267C201.981 30.6398 202.118 30.8317 202.287 30.9912C202.678 31.3116 203.127 31.5523 203.609 31.7L203.914 31.8155C204.609 32.0885 205.052 32.323 205.241 32.5191C205.336 32.6224 205.41 32.7435 205.458 32.8754C205.506 33.0074 205.528 33.1477 205.523 33.2883C205.53 33.471 205.498 33.6533 205.431 33.823C205.363 33.9927 205.26 34.146 205.129 34.2727C204.991 34.4013 204.829 34.5011 204.653 34.5665C204.477 34.6318 204.29 34.6613 204.102 34.6534C203.643 34.6519 203.199 34.4884 202.848 34.1913C202.452 33.8597 202.156 33.4245 201.99 32.9338H201.688L201.766 34.7295H202.053C202.086 34.6527 202.14 34.5871 202.209 34.5405C202.289 34.4967 202.379 34.4766 202.47 34.4827C202.688 34.5313 202.9 34.6053 203.101 34.7033C203.406 34.8403 203.734 34.9161 204.068 34.9264C204.619 34.9451 205.156 34.7485 205.567 34.3777C205.759 34.2088 205.912 33.9995 206.015 33.7645C206.119 33.5296 206.169 33.2747 206.164 33.0178C206.169 32.7776 206.131 32.5383 206.052 32.3117C205.975 32.1061 205.857 31.9186 205.705 31.7604C205.301 31.404 204.828 31.1358 204.316 30.9728L204.104 30.8888L203.857 30.7995C203.443 30.6677 203.056 30.4643 202.712 30.1983C202.6 30.1022 202.511 29.982 202.452 29.8465C202.392 29.701 202.361 29.5447 202.363 29.3871C202.357 29.2349 202.384 29.0831 202.443 28.9427C202.502 28.8024 202.591 28.6771 202.704 28.5759C202.961 28.3635 203.288 28.2557 203.62 28.274C204.024 28.2711 204.42 28.391 204.756 28.6179C205.119 28.874 205.413 29.2168 205.611 29.6155H205.888L205.65 28.1611H205.338C205.303 28.2239 205.254 28.2771 205.194 28.316C205.135 28.3494 205.069 28.3666 205.001 28.3659C204.824 28.317 204.65 28.2574 204.48 28.1874C204.183 28.0735 203.869 28.013 203.552 28.0089C203.316 28.0007 203.081 28.0399 202.86 28.1242C202.639 28.2085 202.438 28.3362 202.267 28.4998Z" fill="white"/>
</mask>
<g mask="url(#mask1_1388_5)">
<path d="M246.59 28.0036H185.801V34.9343H246.59V28.0036Z" fill="url(#paint1_linear_1388_5)"/>
</g>
<mask id="mask2_1388_5" style="mask-type:luminance" maskUnits="userSpaceOnUse" x="173" y="-1" width="74" height="35">
<path d="M219.191 16.6363C219.113 16.7241 219.043 16.819 218.982 16.9198C218.688 17.4028 218.419 17.9121 218.125 18.3952C218.072 18.4762 218.031 18.5647 218.005 18.6577C217.976 18.7275 217.963 18.8026 217.966 18.878C217.969 18.9534 217.988 19.0272 218.022 19.0944C218.056 19.1617 218.104 19.2208 218.162 19.2678C218.221 19.3147 218.289 19.3484 218.362 19.3665H218.43C218.49 19.3665 218.549 19.3377 218.549 19.2799C218.538 19.0709 218.587 18.863 218.69 18.6813C218.921 18.128 219.182 17.5881 219.472 17.0642C219.496 16.9962 219.526 16.9303 219.561 16.8673C219.565 16.8108 219.553 16.7545 219.526 16.7044C219.5 16.6544 219.461 16.6127 219.412 16.5838C219.397 16.5669 219.375 16.5566 219.352 16.5549C219.296 16.5659 219.245 16.5954 219.206 16.6389M177.555 31.3745C178.866 29.2648 180.577 27.4353 182.589 25.9901C182.661 25.9567 182.73 25.919 182.798 25.8772C182.827 25.9338 182.843 25.9969 182.843 26.0609C182.843 26.125 182.827 26.1881 182.798 26.2447C181.894 28.5942 180.244 30.5768 178.105 31.8838C177.844 32.0544 177.584 32.2828 177.216 32.2828H177.099C177.127 31.9126 177.359 31.658 177.542 31.3745M226.574 20.7396L226.49 20.8026L226.574 20.7474M236.441 22.0023C236.962 21.0651 238.336 20.1305 239.343 20.0754C239.371 20.2434 239.225 20.3379 239.105 20.4429C238.584 20.9522 237.33 21.8894 236.558 22.0574C236.515 22.0514 236.474 22.0322 236.441 22.0023ZM226.579 20.3011C228.563 16.3055 232.314 10.6087 236.225 7.96242C236.583 7.69644 236.984 7.49482 237.411 7.36648C237.528 7.3376 237.648 7.42423 237.588 7.53712L237.327 8.30107C237.024 8.96285 236.667 9.59854 236.261 10.2018C233.823 13.9184 230.839 17.242 227.413 20.0596C227.415 20.0422 227.415 20.0245 227.413 20.0071C227.413 19.9782 227.384 19.9493 227.327 19.9493C227.25 19.9525 227.176 19.9832 227.119 20.036C226.931 20.1646 226.728 20.2985 226.514 20.4403C226.534 20.3887 226.557 20.3387 226.584 20.2906M174.706 11.2492C174.406 11.7217 174.158 12.2251 173.965 12.7509C173.579 13.801 173.817 14.7067 174.617 15.4733C175.03 15.8441 175.476 16.1762 175.949 16.4656L178.259 17.7389C178.939 18.109 179.651 18.4766 180.303 18.9019C181.752 19.8653 182.701 20.8866 183.116 22.5772C183.204 23.1493 183.234 23.7291 183.204 24.3073C183.21 24.4682 183.168 24.6272 183.084 24.7638C182.999 24.9004 182.876 25.0084 182.73 25.0738C182.614 25.1382 182.505 25.2138 182.404 25.2996C180.123 26.8852 178.174 28.9074 176.669 31.2511C176.456 31.5492 176.281 31.8728 176.147 32.2145C176.114 32.3204 176.114 32.4336 176.145 32.5398C176.177 32.646 176.239 32.7402 176.324 32.8105C176.432 32.909 176.559 32.9833 176.697 33.0286C176.835 33.0738 176.981 33.089 177.125 33.073C177.346 33.0634 177.56 32.9946 177.745 32.8735C180.204 31.8234 183.402 28.1139 183.906 25.4204C183.93 25.2938 183.982 25.1744 184.059 25.0712C184.136 24.9679 184.235 24.8836 184.349 24.8245C187.24 23.2204 191.625 21.7791 195.056 21.7109C194.951 22.0548 194.855 22.404 194.774 22.761C194.703 23.0872 194.663 23.4195 194.654 23.7533C194.63 23.9147 194.64 24.0796 194.685 24.2364C194.73 24.3932 194.809 24.5384 194.915 24.6617C195.212 24.9715 195.421 25.1132 195.626 25.1132C195.832 25.1132 195.981 24.9426 196.19 24.6879C196.518 24.2802 196.824 23.8552 197.107 23.4147C198.559 21.2016 200.009 19.02 201.815 17.0353C202.287 16.4934 202.811 16 203.38 15.5625C203.559 15.3916 203.787 15.2822 204.031 15.2501H204.149C204.269 15.5337 204.149 15.7594 204.06 16.0167C203.883 16.5838 203.677 17.1771 203.468 17.7441C203.156 18.5692 202.928 19.4242 202.788 20.2959C202.743 20.5873 202.743 20.8839 202.788 21.1753C202.842 21.4183 202.978 21.6352 203.172 21.7899C203.366 21.9446 203.607 22.0279 203.854 22.0259C203.953 22.0307 204.052 22.0209 204.149 21.997C204.736 21.8214 205.31 21.6029 205.867 21.3434C206.252 21.1465 206.607 20.9758 206.993 20.8183C207.212 20.7013 207.454 20.6341 207.702 20.6214C207.851 20.6214 207.963 20.6765 207.999 20.8183C208.042 21.005 208.071 21.1945 208.088 21.3854C208.236 22.5195 208.502 23.8242 210.043 23.8242C210.635 23.8242 211.672 23.4278 212.204 23.1705C213.714 22.4617 215.194 21.7555 216.675 21.0178L216.845 20.9338L216.675 21.3013C216.358 21.9151 216.18 22.592 216.154 23.2834C216.186 23.6358 216.346 23.9641 216.602 24.206C216.859 24.4479 217.194 24.5866 217.546 24.5961C217.645 24.6008 217.744 24.5911 217.84 24.5672C219.704 24.3571 222.861 22.992 225.208 21.6321C224.798 22.6599 224.551 23.7459 224.475 24.8507C224.45 25.2072 224.5 25.5649 224.621 25.9008C224.754 26.3465 225.032 26.7342 225.41 27.0014C225.789 27.2686 226.245 27.3997 226.707 27.3736C229.28 27.3736 233.039 24.8953 235.427 22.7741C235.25 23.5171 235.633 24.0867 236.3 24.3703C236.523 24.4732 236.764 24.5312 237.009 24.5409H237.958C239.525 24.4333 241.06 24.0494 242.494 23.4068C243.709 22.8398 244.922 22.2438 246.108 21.619C246.168 21.5639 246.256 21.5061 246.314 21.451C246.371 21.3959 246.314 21.3644 246.314 21.3355C246.285 21.2515 246.225 21.1937 246.168 21.2226C246.021 21.2715 245.881 21.3385 245.751 21.4221C244.447 22.0732 243.118 22.698 241.783 23.2362C240.452 23.8047 239.026 24.1121 237.58 24.1419C237.127 24.1703 236.672 24.1033 236.246 23.945C235.742 23.7743 235.654 23.6037 235.802 23.1233C235.831 23.0366 235.862 22.9526 235.891 22.8607C235.897 22.8276 235.909 22.7959 235.927 22.7677C235.945 22.7395 235.969 22.7154 235.997 22.6969C236.025 22.6785 236.056 22.666 236.089 22.6603C236.122 22.6546 236.156 22.6558 236.188 22.6639C237.252 22.6639 238.795 21.4169 239.473 20.7369C239.614 20.6258 239.735 20.4908 239.83 20.3379C239.881 20.2662 239.913 20.1828 239.924 20.0953C239.935 20.0078 239.923 19.919 239.891 19.8372C239.858 19.7553 239.806 19.683 239.738 19.6269C239.671 19.5708 239.59 19.5327 239.504 19.5162C239.427 19.4945 239.347 19.4857 239.267 19.4899C239.167 19.4856 239.067 19.4944 238.97 19.5162C238.319 19.6599 237.705 19.936 237.164 20.3274C236.624 20.7187 236.168 21.2172 235.826 21.7923C233.686 23.7665 230.106 26.3313 227.335 26.7435C227.061 26.8009 226.783 26.8299 226.503 26.8301C225.912 26.8301 225.26 26.6884 225.114 26.0636C225.049 25.7664 225.028 25.4611 225.054 25.1578C225.114 24.4202 225.617 21.8133 226.297 21.4169C229.968 19.0069 233.858 14.5282 236.334 11.1285C236.754 10.5725 237.131 9.98438 237.46 9.36955C237.638 9.03089 237.786 8.68961 237.964 8.35095C238.055 8.10563 238.106 7.84649 238.112 7.58438C238.112 6.99107 237.815 6.67866 237.372 6.67866C237.192 6.67779 237.014 6.71631 236.85 6.79154C233.201 8.53997 227.564 15.6597 225.38 21.1465C223.033 22.53 219.866 23.9949 217.603 23.9949C217.455 23.9987 217.307 23.989 217.16 23.966C216.863 23.9397 216.805 23.8531 216.805 23.5407C216.801 23.427 216.81 23.3132 216.834 23.202C217.013 22.3409 217.291 21.5038 217.663 20.708C217.692 20.6214 217.752 20.5951 217.872 20.5951C218.049 20.5951 218.106 20.5374 218.049 20.3668C217.962 20.1438 217.805 19.9551 217.603 19.8286C217.591 19.8183 217.577 19.8106 217.562 19.8061C217.546 19.8015 217.53 19.8003 217.515 19.8023C217.48 19.7976 217.445 19.803 217.414 19.8179C217.382 19.8328 217.356 19.8566 217.337 19.8863L217.249 20.057L217.079 20.4245C215.132 21.3827 213.169 22.1939 211.148 23.0025C210.734 23.1798 210.294 23.2855 209.845 23.3149C209.136 23.3149 208.802 23.118 208.601 22.4355C208.547 22.1358 208.508 21.8335 208.484 21.5297C208.395 20.8787 208.187 20.1121 207.329 20.1121C206.926 20.1449 206.538 20.2814 206.203 20.5085C205.877 20.6792 205.551 20.8787 205.225 21.0336C204.722 21.3612 204.138 21.5428 203.539 21.5586C203.497 21.5653 203.454 21.5631 203.412 21.5522C203.371 21.5412 203.333 21.5218 203.3 21.4952C203.266 21.4685 203.239 21.4352 203.219 21.3973C203.199 21.3595 203.187 21.3178 203.184 21.2751C203.138 21.0411 203.138 20.8003 203.184 20.5663C203.278 19.9618 203.415 19.3652 203.596 18.7811C203.804 18.0723 204.042 17.3923 204.248 16.7124C204.343 16.4043 204.422 16.0915 204.485 15.7752C204.545 15.4654 204.545 15.153 204.248 14.9535C204.145 14.8781 204.02 14.8385 203.893 14.8406C203.69 14.8504 203.494 14.9198 203.33 15.0401C202.724 15.3517 202.174 15.7634 201.703 16.2582C200.014 17.7599 198.653 19.6028 197.407 21.4457C196.993 22.0391 196.581 22.635 196.166 23.2572C196.019 23.4206 195.879 23.5915 195.749 23.7691C195.692 23.7402 195.66 23.7402 195.66 23.7113C195.635 23.6101 195.626 23.5057 195.632 23.4016C195.82 22.0271 196.241 20.6953 196.875 19.4637C197.024 19.293 197.084 19.2011 197.35 19.2011C197.527 19.2274 197.587 19.0883 197.527 18.9386C197.452 18.7892 197.348 18.6567 197.221 18.5493C197.093 18.4418 196.946 18.3617 196.787 18.3138C196.741 18.2904 196.689 18.2804 196.638 18.2849C196.574 18.2866 196.512 18.3029 196.456 18.3324C196.399 18.362 196.35 18.4041 196.312 18.4556C196.186 18.6285 196.087 18.8197 196.018 19.0226C195.712 19.8102 195.41 20.582 195.155 21.3854C195.089 21.366 195.02 21.3563 194.951 21.3565C191.781 21.3565 187.193 22.5195 184.469 24.0211C184.416 24.0689 184.355 24.1071 184.289 24.134C184.264 24.1419 184.238 24.1444 184.212 24.1414C184.187 24.1383 184.162 24.1298 184.14 24.1164C184.118 24.103 184.098 24.085 184.084 24.0636C184.069 24.0422 184.059 24.0179 184.054 23.9922V23.7297C183.817 20.8971 181.564 19.083 179.197 17.7205C178.397 17.269 177.568 16.8148 176.768 16.3317C176.298 16.0857 175.844 15.8113 175.407 15.51C175.137 15.3097 174.934 15.0323 174.823 14.714C174.711 14.3956 174.698 14.051 174.784 13.7249C174.889 13.3217 175.038 12.9316 175.23 12.5619C177.508 8.36145 183.491 1.7353 188.674 0.829585C189.028 0.800707 189.325 0.771829 189.68 0.771829C189.958 0.778264 190.228 0.864439 190.459 1.02023C190.69 1.17602 190.872 1.39496 190.983 1.65129C191.119 2.03985 191.227 2.43717 191.309 2.84053C191.427 3.8607 191.397 4.89267 191.221 5.90421C191.043 7.17746 190.715 8.39558 190.42 9.61632C190.126 10.8371 189.797 11.9974 189.474 13.1867C189.408 13.4748 189.388 13.7716 189.414 14.0661C189.424 14.1897 189.477 14.3058 189.564 14.3937C189.651 14.4817 189.766 14.5358 189.889 14.5466C189.975 14.5466 190.063 14.5466 190.094 14.4625C190.126 14.3785 190.154 14.3208 190.183 14.2342C190.569 12.7036 190.983 11.202 191.338 9.67145C191.777 8.03055 192.055 6.35019 192.167 4.65459C192.181 4.44745 192.181 4.23955 192.167 4.0324C192.167 1.9637 191.161 -0.0209961 188.762 -0.0209961C183.966 -0.0209961 177.094 7.09345 174.726 11.2309" fill="white"/>
</mask>
<g mask="url(#mask2_1388_5)">
<path d="M246.345 0H173.587V33.0756H246.345V0Z" fill="url(#paint2_linear_1388_5)"/>
</g>
<mask id="mask3_1388_5" style="mask-type:luminance" maskUnits="userSpaceOnUse" x="0" y="1" width="166" height="34">
<path d="M17.0311 1.82978V20.645C17.0311 27.6623 14.3746 30.7759 10.2035 30.7759C6.44945 30.7759 3.66 27.77 3.66 20.645V1.82978H0.0102539V20.5531C0.0102539 30.4031 4.3326 34.131 10.0836 34.131C16.1682 34.131 20.7148 30.1222 20.7148 20.3667V1.82978H17.0311ZM26.9871 1.82978V33.6085H42.6133V30.1616H30.6212V1.82978H26.9871ZM39.7612 1.82978V5.31875H48.3121V33.6085H51.9749V5.31875H60.5596V1.82978H39.7612ZM63.6801 33.6085H67.3038V1.8429H63.6801V33.6085ZM95.1801 1.8429L90.1825 17.2112C88.9312 21.2199 87.9275 24.7089 87.2184 27.917H87.1011C86.392 24.6144 85.4222 21.1281 84.2647 17.2112L79.4783 1.82978H74.8536L72.9036 33.6085H76.35L77.106 19.9782C77.3537 15.2212 77.5674 9.90245 77.6509 5.93306H77.7317C78.5138 9.7003 79.6452 13.8088 80.9799 18.2718L85.5291 33.4143H88.269L93.2222 17.9935C94.6378 13.6093 95.8084 9.65305 96.7651 5.91731H96.8955C96.8459 9.8867 97.0962 15.2055 97.3074 19.6421L98.0165 33.5928H101.559L99.8127 1.82715L95.1801 1.8429ZM114.758 11.2256C115.301 9.30126 115.762 7.36119 116.177 5.47888H116.26C116.672 7.31657 117.097 9.20675 117.712 11.2781L120.462 20.4192H112.021L114.758 11.2256ZM114.151 1.82978L104.602 33.6085H108.358L111.283 23.6142H121.239L124.24 33.6085H128.114L118.523 1.8429L114.151 1.82978ZM125.812 1.82978V5.31875H134.365V33.6085H138.015V5.31875H146.608V1.82978H125.812ZM149.731 1.82978V33.6085H165.508V30.1616H153.352V18.7076H164.265V15.3131H153.352V5.29249H164.89V1.82978H149.731Z" fill="white"/>
</mask>
<g mask="url(#mask3_1388_5)">
<path d="M165.516 1.82977H0V34.131H165.516V1.82977Z" fill="url(#paint3_linear_1388_5)"/>
</g>
<mask id="mask4_1388_5" style="mask-type:luminance" maskUnits="userSpaceOnUse" x="244" y="0" width="7" height="7">
<path d="M245.889 5.06148C245.686 4.85742 245.525 4.61514 245.415 4.34847C245.306 4.08181 245.249 3.79598 245.249 3.50733C245.249 3.21868 245.306 2.93285 245.415 2.66618C245.525 2.39951 245.686 2.15723 245.889 1.95317C246.299 1.54064 246.855 1.30902 247.434 1.30926C248.014 1.30951 248.57 1.5416 248.979 1.95449C249.389 2.36737 249.619 2.92722 249.619 3.51088C249.619 4.09454 249.388 4.6542 248.978 5.06673C248.568 5.47922 248.013 5.71094 247.433 5.71094C246.854 5.71094 246.298 5.47922 245.889 5.06673M245.628 1.68277C245.168 2.17166 244.915 2.82224 244.924 3.496C244.932 4.16976 245.202 4.81348 245.675 5.29012C246.148 5.76675 246.787 6.03864 247.456 6.04791C248.125 6.05718 248.771 5.8031 249.257 5.33976C249.738 4.85469 250.008 4.19714 250.008 3.51165C250.008 2.82615 249.737 2.16881 249.256 1.68409C248.774 1.19937 248.122 0.926943 247.441 0.926697C246.76 0.926451 246.107 1.1984 245.625 1.68277" fill="white"/>
</mask>
<g mask="url(#mask4_1388_5)">
<path d="M250 0.921448H244.864V6.09321H250V0.921448Z" fill="url(#paint4_linear_1388_5)"/>
</g>
<mask id="mask5_1388_5" style="mask-type:luminance" maskUnits="userSpaceOnUse" x="246" y="2" width="3" height="3">
<path d="M246.986 2.33913C247.109 2.31667 247.234 2.307 247.359 2.31025C247.755 2.31025 248.029 2.47564 248.029 2.85368C248.029 3.18708 247.768 3.41023 247.372 3.41023H246.986V2.33913ZM246.611 2.0766V4.96439H246.986V3.69376H247.341C247.682 3.70689 247.844 3.85915 247.93 4.26344C247.97 4.50301 248.033 4.73788 248.12 4.96439H248.509C248.41 4.70394 248.335 4.43508 248.285 4.16106C248.271 4.03357 248.224 3.91186 248.15 3.80786C248.075 3.70385 247.975 3.62111 247.86 3.56775V3.55462C248.018 3.50726 248.157 3.40912 248.256 3.27506C248.354 3.141 248.406 2.97832 248.404 2.81167C248.407 2.70708 248.388 2.60305 248.349 2.50628C248.309 2.40951 248.25 2.32216 248.175 2.24987C247.934 2.06724 247.633 1.98203 247.333 2.01097C247.091 2.01133 246.85 2.03153 246.611 2.07136" fill="white"/>
</mask>
<g mask="url(#mask5_1388_5)">
<path d="M248.509 2.01361H246.613V4.96703H248.509V2.01361Z" fill="url(#paint5_linear_1388_5)"/>
</g>
</g>
<defs>
<linearGradient id="paint0_linear_1388_5" x1="2.33594" y1="45.2305" x2="244.254" y2="45.2305" gradientUnits="userSpaceOnUse">
<stop stop-color="#BC9443"/>
<stop offset="0.15" stop-color="#A9803B"/>
<stop offset="0.43" stop-color="#F2DB86"/>
<stop offset="0.59" stop-color="#F9EEAB"/>
<stop offset="0.73" stop-color="#F2DB86"/>
<stop offset="0.93" stop-color="#A9803B"/>
<stop offset="1" stop-color="#C29B45"/>
</linearGradient>
<linearGradient id="paint1_linear_1388_5" x1="185.801" y1="31.7918" x2="246.59" y2="31.7918" gradientUnits="userSpaceOnUse">
<stop stop-color="#BC9443"/>
<stop offset="0.15" stop-color="#A9803B"/>
<stop offset="0.43" stop-color="#F2DB86"/>
<stop offset="0.59" stop-color="#F9EEAB"/>
<stop offset="0.73" stop-color="#F2DB86"/>
<stop offset="0.93" stop-color="#A9803B"/>
<stop offset="1" stop-color="#C29B45"/>
</linearGradient>
<linearGradient id="paint2_linear_1388_5" x1="173.793" y1="16.4997" x2="246.33" y2="16.4997" gradientUnits="userSpaceOnUse">
<stop stop-color="#BC9443"/>
<stop offset="0.15" stop-color="#A9803B"/>
<stop offset="0.43" stop-color="#F2DB86"/>
<stop offset="0.59" stop-color="#F9EEAB"/>
<stop offset="0.73" stop-color="#F2DB86"/>
<stop offset="0.93" stop-color="#A9803B"/>
<stop offset="1" stop-color="#C29B45"/>
</linearGradient>
<linearGradient id="paint3_linear_1388_5" x1="0" y1="16.6047" x2="165.519" y2="16.6047" gradientUnits="userSpaceOnUse">
<stop stop-color="#BC9443"/>
<stop offset="0.15" stop-color="#A9803B"/>
<stop offset="0.43" stop-color="#F2DB86"/>
<stop offset="0.59" stop-color="#F9EEAB"/>
<stop offset="0.73" stop-color="#F2DB86"/>
<stop offset="0.93" stop-color="#A9803B"/>
<stop offset="1" stop-color="#C29B45"/>
</linearGradient>
<linearGradient id="paint4_linear_1388_5" x1="244.864" y1="4.05863" x2="250" y2="4.05863" gradientUnits="userSpaceOnUse">
<stop stop-color="#BC9443"/>
<stop offset="0.15" stop-color="#A9803B"/>
<stop offset="0.43" stop-color="#F2DB86"/>
<stop offset="0.59" stop-color="#F9EEAB"/>
<stop offset="0.73" stop-color="#F2DB86"/>
<stop offset="0.93" stop-color="#A9803B"/>
<stop offset="1" stop-color="#C29B45"/>
</linearGradient>
<linearGradient id="paint5_linear_1388_5" x1="246.613" y1="4.45773" x2="248.509" y2="4.45773" gradientUnits="userSpaceOnUse">
<stop stop-color="#BC9443"/>
<stop offset="0.15" stop-color="#A9803B"/>
<stop offset="0.43" stop-color="#F2DB86"/>
<stop offset="0.59" stop-color="#F9EEAB"/>
<stop offset="0.73" stop-color="#F2DB86"/>
<stop offset="0.93" stop-color="#A9803B"/>
<stop offset="1" stop-color="#C29B45"/>
</linearGradient>
<clipPath id="clip0_1388_5">
<rect width="250" height="47" fill="white"/>
</clipPath>
</defs>
</svg>
