<svg width="22" height="22" viewBox="0 0 22 22" fill="none" xmlns="http://www.w3.org/2000/svg">
<path d="M10.9992 10.9367C10.1554 10.9367 9.33055 10.6865 8.62898 10.2178C7.9274 9.74897 7.38059 9.08268 7.05769 8.30313C6.73479 7.52358 6.6503 6.66579 6.81492 5.83822C6.97953 5.01066 7.38585 4.25049 7.98249 3.65385C8.57913 3.0572 9.3393 2.65089 10.1669 2.48627C10.9944 2.32166 11.8522 2.40615 12.6318 2.72905C13.4113 3.05195 14.0776 3.59876 14.5464 4.30033C15.0152 5.00191 15.2654 5.82674 15.2654 6.67052C15.2641 7.80161 14.8143 8.88601 14.0145 9.68581C13.2147 10.4856 12.1302 10.9355 10.9992 10.9367ZM10.9992 3.58936C10.3898 3.58936 9.79406 3.77007 9.28736 4.10863C8.78067 4.44719 8.38575 4.9284 8.15254 5.49141C7.91934 6.05442 7.85832 6.67394 7.97721 7.27162C8.09609 7.86931 8.38955 8.41832 8.82045 8.84923C9.25136 9.28014 9.80037 9.57359 10.3981 9.69247C10.9957 9.81136 11.6153 9.75035 12.1783 9.51714C12.7413 9.28393 13.2225 8.88901 13.5611 8.38232C13.8996 7.87563 14.0803 7.27992 14.0803 6.67052C14.0794 5.85363 13.7545 5.07048 13.1768 4.49285C12.5992 3.91522 11.816 3.5903 10.9992 3.58936ZM18.4058 19.5984C18.2486 19.5984 18.0979 19.5359 17.9868 19.4248C17.8757 19.3137 17.8133 19.163 17.8133 19.0058V17.5411C17.812 16.416 17.3645 15.3373 16.5689 14.5417C15.7733 13.7461 14.6947 13.2986 13.5696 13.2974H8.42877C7.30365 13.2986 6.22498 13.7461 5.4294 14.5417C4.63382 15.3373 4.18632 16.416 4.18506 17.5411V19.0058C4.18506 19.163 4.12263 19.3137 4.01151 19.4248C3.90039 19.5359 3.74968 19.5984 3.59253 19.5984C3.43538 19.5984 3.28467 19.5359 3.17355 19.4248C3.06243 19.3137 3 19.163 3 19.0058V17.5411C3.00172 16.1018 3.57424 14.722 4.59195 13.7043C5.60967 12.6866 6.9895 12.114 8.42877 12.1123H13.569C15.0083 12.1139 16.3883 12.6863 17.4062 13.7041C18.424 14.7218 18.9966 16.1017 18.9983 17.5411V19.0058C18.9983 19.163 18.9359 19.3137 18.8248 19.4248C18.7137 19.5359 18.5629 19.5984 18.4058 19.5984Z" fill="url(#paint0_linear_2875_1894)"/>
<defs>
<linearGradient id="paint0_linear_2875_1894" x1="8.33077" y1="2.4043" x2="18.704" y2="4.18767" gradientUnits="userSpaceOnUse">
<stop stop-color="#C3942F"/>
<stop offset="0.234" stop-color="#D89C27"/>
<stop offset="0.449" stop-color="#E7DC96"/>
<stop offset="0.669" stop-color="#DFC86F"/>
<stop offset="0.849" stop-color="#D89C27"/>
<stop offset="1" stop-color="#C99C30"/>
</linearGradient>
</defs>
</svg>
