<svg width="22" height="22" viewBox="0 0 22 22" fill="none" xmlns="http://www.w3.org/2000/svg">
<path d="M10.9992 10.9387C10.1554 10.9387 9.33055 10.6885 8.62898 10.2197C7.9274 9.75093 7.38059 9.08463 7.05769 8.30508C6.73479 7.52554 6.6503 6.66774 6.81492 5.84017C6.97953 5.01261 7.38585 4.25244 7.98249 3.6558C8.57913 3.05916 9.3393 2.65284 10.1669 2.48823C10.9944 2.32361 11.8522 2.4081 12.6318 2.731C13.4113 3.0539 14.0776 3.60071 14.5464 4.30229C15.0152 5.00386 15.2654 5.82869 15.2654 6.67247C15.2641 7.80356 14.8143 8.88796 14.0145 9.68776C13.2147 10.4876 12.1302 10.9374 10.9992 10.9387ZM10.9992 3.59131C10.3898 3.59131 9.79406 3.77202 9.28736 4.11058C8.78067 4.44914 8.38575 4.93036 8.15254 5.49336C7.91934 6.05637 7.85832 6.67589 7.97721 7.27358C8.09609 7.87126 8.38955 8.42027 8.82046 8.85118C9.25136 9.28209 9.80037 9.57554 10.3981 9.69443C10.9957 9.81331 11.6153 9.7523 12.1783 9.51909C12.7413 9.28589 13.2225 8.89097 13.5611 8.38427C13.8996 7.87758 14.0803 7.28187 14.0803 6.67247C14.0794 5.85559 13.7545 5.07243 13.1768 4.4948C12.5992 3.91718 11.816 3.59225 10.9992 3.59131ZM18.4058 19.6003C18.2486 19.6003 18.0979 19.5379 17.9868 19.4268C17.8757 19.3156 17.8133 19.1649 17.8133 19.0078V17.543C17.812 16.4179 17.3645 15.3393 16.5689 14.5437C15.7733 13.7481 14.6947 13.3006 13.5696 13.2993H8.42876C7.30365 13.3006 6.22498 13.7481 5.4294 14.5437C4.63382 15.3393 4.18632 16.4179 4.18506 17.543V19.0078C4.18506 19.1649 4.12263 19.3156 4.01151 19.4268C3.90039 19.5379 3.74968 19.6003 3.59253 19.6003C3.43538 19.6003 3.28467 19.5379 3.17355 19.4268C3.06243 19.3156 3 19.1649 3 19.0078V17.543C3.00172 16.1038 3.57424 14.7239 4.59195 13.7062C5.60967 12.6885 6.9895 12.116 8.42876 12.1143H13.569C15.0083 12.1158 16.3883 12.6883 17.4062 13.706C18.424 14.7238 18.9966 16.1037 18.9983 17.543V19.0078C18.9983 19.1649 18.9359 19.3156 18.8248 19.4268C18.7137 19.5379 18.5629 19.6003 18.4058 19.6003Z" fill="url(#paint0_linear_1630_2067)"/>
<defs>
<linearGradient id="paint0_linear_1630_2067" x1="18.9983" y1="2.40625" x2="0.555161" y2="5.63502" gradientUnits="userSpaceOnUse">
<stop stop-color="#DCAD81"/>
<stop offset="0.25" stop-color="#D8A97C"/>
<stop offset="0.5" stop-color="#FFD2A4"/>
<stop offset="0.75" stop-color="#D8A97C"/>
<stop offset="1" stop-color="#DCAD81"/>
</linearGradient>
</defs>
</svg>
