<svg width="1089" height="426" viewBox="0 0 1089 426" fill="none" xmlns="http://www.w3.org/2000/svg">
<path d="M1048.34 13.5757C1078.75 20.9174 1097.16 52.2547 1085.21 81.157C1047.55 172.21 983.429 252.457 899.358 312.822C798.985 384.892 675.731 424.63 548.554 425.923C421.377 427.216 297.323 389.993 195.474 319.979C110.17 261.339 44.3998 182.417 4.85163 92.154C-7.7037 63.4984 10.0731 31.7786 40.3288 23.8174L85.9498 11.813C114.453 4.31279 143.433 20.8552 156.054 47.49C185.193 108.985 231.285 162.752 290.173 203.233C364.269 254.168 454.519 281.249 547.041 280.308C639.562 279.367 729.23 250.458 802.252 198.026C860.278 156.362 905.238 101.679 933.094 39.6155C945.166 12.7184 973.81 -4.42203 1002.47 2.49826L1048.34 13.5757Z" fill="#D89C27" fill-opacity="0.22"/>
</svg>
