<svg width="182" height="102" viewBox="0 0 182 102" fill="none" xmlns="http://www.w3.org/2000/svg">
<path d="M252.303 0.626375C263.192 3.17145 269.81 14.4522 264.85 24.4757C255.271 43.8377 240.436 60.9021 221.543 74.0489C196.63 91.3854 166.04 100.949 134.48 101.269C102.919 101.588 72.1364 92.6462 46.8661 75.818C27.7038 63.0572 12.5162 46.2979 2.53452 27.135C-2.63273 17.2149 3.75258 5.79743 14.5904 3.03139C24.5692 0.484594 34.6279 6.30972 39.724 15.2592C46.9657 27.9767 57.4221 39.1137 70.3749 47.7393C88.7591 59.9819 111.154 66.4873 134.114 66.2548C157.074 66.0222 179.329 59.0647 197.453 46.4523C210.218 37.5696 220.437 26.2286 227.411 13.3734C232.325 4.31599 242.269 -1.71877 252.303 0.626375Z" fill="#D89C27" fill-opacity="0.97"/>
</svg>
