<svg width="158" height="168" viewBox="0 0 158 168" fill="none" xmlns="http://www.w3.org/2000/svg">
<path d="M134.995 1.05963C144.607 -1.77704 154.832 3.70901 156.353 13.6149C159.84 36.3277 157.426 59.6566 149.196 81.306C138.81 108.63 119.736 131.765 94.9093 147.153C70.0823 162.54 40.8771 169.329 11.786 166.473C-11.2639 164.211 -33.2305 155.993 -52.0198 142.765C-60.2145 136.996 -60.5781 125.397 -53.761 118.051C-46.9339 110.694 -35.4992 110.443 -27.0073 115.793C-14.2967 123.801 0.165619 128.797 15.2672 130.279C36.431 132.357 57.6779 127.418 75.7397 116.224C93.8014 105.029 107.678 88.1979 115.234 68.32C120.625 54.1358 122.586 38.9608 121.07 24.0147C120.057 14.0293 125.369 3.90043 134.995 1.05963Z" fill="#FBE9D0" fill-opacity="0.31"/>
</svg>
